<svg xmlns="http://www.w3.org/2000/svg" width="1920" height="940" viewBox="0 0 1920 940" fill="none">
    <path d="M673 590.861L947.314 593L897.165 589.305C897.165 589.305 893.126 575.337 884.375 573.543C875.623 571.752 870.237 583.196 870.237 583.196C870.237 583.196 857.112 561.365 834.222 561.005C811.333 560.648 808.977 580.349 808.977 580.349C808.977 580.349 804.264 576.01 796.186 576.925C788.109 577.841 789.118 583.573 789.118 583.573L778.684 586.259C778.684 586.259 765.893 578.914 751.082 578.558C736.27 578.202 729.205 586.676 729.205 586.676L714.732 588.945C714.732 588.945 705.307 584.647 696.555 584.647C687.804 584.647 686.121 588.945 686.121 588.945L673 590.861Z" fill="url(#paint0_linear_185_67501)"/>
    <path d="M673 590.861C673 590.861 806.963 586.559 848.025 586.676C889.087 586.798 949 592.996 949 592.996C949 592.996 710.697 592.773 673 590.857V590.861Z" fill="url(#paint1_linear_185_67501)"/>
    <defs>
        <linearGradient id="paint0_linear_185_67501" x1="810.157" y1="592.996" x2="810.157" y2="561.001" gradientUnits="userSpaceOnUse">
            <stop stop-color="#FCAC90"/>
            <stop offset="1" stop-color="#FFEFA4"/>
        </linearGradient>
        <linearGradient id="paint1_linear_185_67501" x1="834.203" y1="647.389" x2="782.774" y2="538.848" gradientUnits="userSpaceOnUse">
            <stop stop-color="#FC6A7C"/>
            <stop offset="1" stop-color="#FFA693"/>
        </linearGradient>
    </defs>
</svg>