<svg xmlns="http://www.w3.org/2000/svg" width="1920" height="940" viewBox="0 0 1920 940" fill="none">
    <path d="M982 156.526C982 156.526 1022.41 113.935 1041.27 110.916C1060.14 107.898 1072.43 123.929 1072.43 123.929C1076.45 121.425 1081.07 120.058 1085.81 119.972C1093.35 119.972 1106.18 130.055 1106.18 130.055C1106.18 130.055 1133.89 47.5328 1170.33 34.068C1216.69 16.9302 1242.77 111.94 1242.77 111.94L1229.54 115.144C1229.54 115.144 1238.83 95.9787 1258.16 115.144C1277.49 134.309 1278 156.446 1278 156.446L1185.41 147.137L982 156.526Z" fill="url(#paint0_linear_199_67408)"/>
    <path style="mix-blend-mode:multiply" opacity="0.5" d="M1170.32 34.0665C1170.32 34.0665 1143.15 64.1287 1141.65 89.7859C1140.14 115.443 1154.48 115.144 1154.48 115.144L1139.14 127.098L1164.29 143.328L1101.65 137.33L982 156.526C982 156.526 1049.14 143.742 1057.1 139.592C1065.05 135.442 1072.43 123.929 1072.43 123.929C1072.43 123.929 1067.69 133.177 1070.71 134.687C1073.73 136.197 1090.33 133.725 1094.1 130.055C1097.88 126.385 1095.23 122.992 1095.23 122.992L1106.18 130.055C1106.18 130.055 1134.1 46.2621 1170.32 34.0665Z" fill="url(#paint1_linear_199_67408)"/>
    <path d="M1158.25 113.496C1158.25 113.496 1200.51 88.5631 1242.77 111.94C1242.77 111.94 1246.07 123.79 1227.82 130.055C1209.57 136.32 1176.36 137.33 1176.36 137.33C1176.36 137.33 1230.69 141.344 1277.99 156.444C1277.99 156.444 1047.52 236.391 982 156.524L1047.52 144.039C1047.52 144.039 1059.64 142.362 1080.77 137.329C1101.9 132.295 1164.27 143.327 1164.27 143.327L1137.61 130.628C1137.61 130.628 1138.82 121.31 1158.25 113.496Z" fill="url(#paint2_radial_199_67408)"/>
    <defs>
        <linearGradient id="paint0_linear_199_67408" x1="1156.05" y1="210.695" x2="1144.52" y2="64.4016" gradientUnits="userSpaceOnUse">
            <stop offset="0.275" stop-color="#FC6A7C"/>
            <stop offset="1" stop-color="#FFEFA4"/>
        </linearGradient>
        <linearGradient id="paint1_linear_199_67408" x1="1076.16" y1="156.526" x2="1076.16" y2="34.0665" gradientUnits="userSpaceOnUse">
            <stop offset="0.008" stop-color="#D698C7"/>
            <stop offset="1" stop-color="#FFDBFF"/>
        </linearGradient>
        <radialGradient id="paint2_radial_199_67408" cx="0" cy="0" r="1" gradientUnits="userSpaceOnUse" gradientTransform="translate(-573.292 146.969) scale(109.235 109.334)">
            <stop stop-color="#D7586A"/>
            <stop offset="1" stop-color="#A64A8E"/>
        </radialGradient>
    </defs>
</svg>