<svg xmlns="http://www.w3.org/2000/svg" width="1920" height="940" viewBox="0 0 1920 940" fill="none">    <path d="M983.669 545.875C983.669 545.875 993.9 538.283 1003.2 537.335C1012.5 536.386 1023.04 541.606 1023.04 541.606C1023.04 541.606 1021.49 538.687 1025.52 537.22C1029.55 535.753 1048.46 539.868 1048.46 539.868C1048.46 539.868 1045.98 528.479 1059 521.521C1072.02 514.562 1084.42 528.165 1084.42 528.165C1084.42 528.165 1085.35 522.909 1090 519.539C1094.65 516.168 1096.51 521.836 1096.51 521.836C1096.51 521.836 1116.04 502.222 1140.84 506.651C1165.64 511.081 1150.76 534.175 1150.76 534.175C1150.76 534.175 1165.64 529.431 1172.46 531.327C1179.28 533.227 1167.81 540.186 1167.81 540.186H1194.78C1201.29 540.186 1200.05 544.297 1200.05 544.297L1240.97 543.664C1240.97 543.664 1250.28 525.317 1271.97 528.161C1293.67 531.009 1280.03 545.878 1280.03 545.878C1280.03 545.878 1286.85 542.082 1291.19 543.03C1295.53 543.979 1293.36 547.46 1293.36 547.46L1358 550.308H1042.72C1042.72 550.308 1044.12 551.256 1043.65 553.156C1043.19 555.055 956 553.156 956 553.156L987.852 550.072C987.852 550.072 982.968 549.281 983.666 545.878L983.669 545.875Z" fill="url(#paint0_linear_185_67686)"/>    <path d="M1358 550.304C1358 550.304 1110.92 544.862 1075.43 545.449C1039.93 546.036 1042.72 550.304 1042.72 550.304H1358Z" fill="url(#paint1_linear_185_67686)"/>    <defs>        <linearGradient id="paint0_linear_185_67686" x1="1157" y1="553.996" x2="1157" y2="505.997" gradientUnits="userSpaceOnUse">            <stop stop-color="#FC8E90"/>            <stop offset="1" stop-color="#FFEFA4"/>        </linearGradient>        <linearGradient id="paint1_linear_185_67686" x1="1226.44" y1="610.078" x2="1172.13" y2="490.55" gradientUnits="userSpaceOnUse">            <stop stop-color="#FC6A7C"/>            <stop offset="1" stop-color="#FFA693"/>        </linearGradient>    </defs></svg>