<svg xmlns="http://www.w3.org/2000/svg" width="1920" height="940" viewBox="0 0 1920 940" fill="none">    <path d="M898 512.118L899.177 512.13L1252.96 516.116C1252.96 516.116 1212.05 517.692 1210.48 519.265C1208.91 520.84 1443.89 521.363 1446.51 519.265C1449.13 517.166 1407.17 516.383 1407.17 516.383L1564 516.701L1509.97 509.818C1509.97 509.818 1507.09 504.307 1502.37 504.046C1497.65 503.785 1489 508.246 1489 508.246C1489 508.246 1487.95 496.962 1477.98 497.224C1468.01 497.485 1446.51 508.934 1446.51 508.934L1438.12 510.08C1438.12 510.08 1439.43 500.895 1421.86 501.684C1404.29 502.47 1393.27 511.917 1393.27 511.917C1393.27 511.917 1394.06 500.895 1390.91 500.633C1387.76 500.372 1384.88 503.257 1384.88 503.257C1384.88 503.257 1390.65 495.909 1386.19 495.122C1386.19 495.122 1400.61 452.349 1372.55 440.805C1344.49 429.257 1299.91 488.3 1299.91 488.3C1299.91 488.3 1297.81 482.002 1288.37 484.1C1278.92 486.199 1265.55 501.156 1265.55 501.156C1265.55 501.156 1266.07 492.496 1252.44 495.384C1252.44 495.384 1251.39 485.937 1226.21 487.774C1201.03 489.611 1198.14 503.586 1199.2 509.554L1179.79 512.703C1179.79 512.703 1187.14 500.895 1177.7 498.271C1177.7 498.271 1191.07 440.772 1151.21 432.035C1111.34 423.298 1094.56 494.544 1094.56 501.393C1094.56 501.393 1093.51 490.923 1076.72 493.024C1059.94 495.122 1043.68 509.818 1043.68 509.818C1043.68 509.818 1048.14 498.271 1033.32 493.55C1018.5 488.825 987.558 508.246 987.558 508.246L967.626 509.296C967.626 509.296 960.846 503.595 944.023 501.396C927.2 499.2 922.517 508.771 922.517 508.771C922.517 508.771 923.042 505.358 918.584 504.572C914.126 503.785 910.454 509.557 910.454 509.557L898 512.118Z" fill="url(#paint0_linear_185_67668)"/>    <path d="M1446.51 519.265C1446.51 519.265 1440.35 516.914 1407.17 516.383C1374 515.852 1246.61 516.383 1246.61 516.383L995.969 513.219L1208.11 519.262C1208.11 519.262 1192.25 522.542 1193.43 522.936C1194.61 523.331 1432.87 521.886 1446.51 519.262V519.265Z" fill="url(#paint1_linear_185_67668)"/>    <path style="mix-blend-mode:multiply" opacity="0.5" d="M989.512 507.067C989.512 507.067 1002.52 513.739 1022.65 513.222C1042.76 512.706 1043.68 509.818 1043.68 509.818L1059.36 499.016C1059.36 499.016 1048.27 506.682 1052.21 509.103C1056.14 511.525 1086.72 512.332 1090.31 510.943C1093.91 509.557 1094.56 501.393 1094.56 501.393C1094.56 501.393 1099.23 481.34 1103.4 473.245C1103.4 473.245 1090.21 498.927 1104.06 506.8C1117.9 514.674 1162.96 507.053 1170.62 501.393C1178.27 495.734 1178.91 492.051 1178.91 492.051L1177.7 498.271C1177.7 498.271 1162.33 505.106 1163.92 509.103C1165.5 513.098 1179.79 512.706 1179.79 512.706L1177.77 515.27L1199.2 509.557C1199.2 509.557 1232.04 515.315 1250.3 513.222C1268.56 511.13 1265.55 501.159 1265.55 501.159C1265.55 501.159 1265.02 505.607 1270.93 510.943C1276.83 516.279 1294.77 501.539 1294.77 501.539C1294.77 501.539 1290.99 510.231 1296.49 513.219C1302 516.208 1342.62 516.454 1364.21 501.393C1385.79 486.332 1389.48 465.042 1389.48 465.042C1389.48 465.042 1392.09 486.202 1386.19 495.122C1380.29 504.043 1370.45 513.219 1370.45 513.219C1370.45 513.219 1400.35 514.131 1420.81 513.219C1441.26 512.308 1438.11 510.08 1438.11 510.08L1446.51 508.934C1446.51 508.934 1453.06 512.952 1468.4 513.222C1483.75 513.492 1488.99 508.246 1488.99 508.246C1488.99 508.246 1486.19 511.379 1497.75 513.222C1509.32 515.068 1546.69 516.217 1546.69 516.217L1407.17 516.383L1208.1 519.265L899.177 512.13L938.859 510.943C938.859 510.943 942.647 505.227 954.843 506.21C967.039 507.195 970.972 510.145 970.972 510.145L985.33 510.943L989.512 507.067V507.067Z" fill="url(#paint2_linear_185_67668)"/>    <path d="M1043.68 509.818C1043.68 509.818 1058.37 498.037 1073.06 497.105C1087.74 496.173 1093.14 497.873 1093.14 497.873C1093.14 497.873 1076.99 480.691 1043.68 509.816V509.818Z" fill="#FFE58B"/>    <path d="M987.561 508.243C987.561 508.243 1008.92 497.565 1024.14 497.031C1039.37 496.499 1043.68 501.328 1043.68 501.328C1043.68 501.328 1031.88 479.64 987.561 508.243V508.243Z" fill="#FFE58B"/>    <path d="M1098.82 484.569C1098.82 484.569 1110.82 443.309 1134.69 437.994C1158.56 432.679 1170.11 442.431 1170.11 442.431C1170.11 442.431 1155.92 426.64 1136.25 432.178C1110.3 439.481 1098.82 484.569 1098.82 484.569V484.569Z" fill="#FFFC9A"/>    <path d="M1265.55 501.159C1265.55 501.159 1275.99 489.407 1286.75 487.35C1297.52 485.296 1299.91 488.3 1299.91 488.3C1299.91 488.3 1286.8 471.244 1265.55 501.159H1265.55Z" fill="#FFE58B"/>    <defs>        <linearGradient id="paint0_linear_185_67668" x1="1231" y1="520.651" x2="1231" y2="431.296" gradientUnits="userSpaceOnUse">            <stop stop-color="#FCAC90"/>            <stop offset="1" stop-color="#FFEFA4"/>        </linearGradient>        <linearGradient id="paint1_linear_185_67668" x1="1259.63" y1="602.525" x2="1182.76" y2="430" gradientUnits="userSpaceOnUse">            <stop stop-color="#FC6A7C"/>            <stop offset="1" stop-color="#FFA693"/>        </linearGradient>        <linearGradient id="paint2_linear_185_67668" x1="1222.93" y1="519.265" x2="1222.93" y2="465.042" gradientUnits="userSpaceOnUse">            <stop stop-color="#D698C7"/>            <stop offset="1" stop-color="#FFDBFF"/>        </linearGradient>    </defs></svg>