<svg xmlns="http://www.w3.org/2000/svg" width="1920" height="940" viewBox="0 0 1920 940" fill="none">
    <path d="M551.215 534.257H736.157C736.157 534.257 722.477 537.101 722.477 538.236C722.477 539.371 863.542 541.69 863.542 541.69H919.215L899.398 538.236C899.398 538.236 901.443 533.175 892.949 531.006C884.458 528.838 868.102 534.723 868.102 534.723C868.102 534.723 859.611 522.645 842.31 522.645C825.008 522.645 817.776 527.602 817.776 527.602C817.776 527.602 821.863 520.789 812.113 519.24C802.363 517.692 793.242 523.265 793.242 523.265C793.242 523.265 786.324 481.452 753.612 486.408C720.901 491.365 709.579 525.742 709.579 525.742C709.579 525.742 688.189 512.424 675.295 516.14C662.4 519.857 660.198 526.05 660.198 526.05C660.198 526.05 646.358 508.396 640.698 510.564C635.035 512.732 638.809 517.997 638.809 517.997C638.809 517.997 631.261 508.704 603.583 512.42C575.905 516.137 559.236 530.075 559.236 530.075C559.236 530.075 558.923 525.738 556.092 526.978C553.26 528.218 551.215 534.257 551.215 534.257V534.257Z" fill="url(#paint0_linear_185_67680)"/>
    <path d="M919.211 541.69C919.211 541.69 805.824 533.602 722.477 538.236C722.477 538.236 799.378 543.28 919.211 541.69Z" fill="url(#paint1_linear_185_67680)"/>
    <path d="M551.215 534.257C551.215 534.257 634.722 528.078 732.223 534.257C732.223 534.257 624.969 538.033 551.215 534.257Z" fill="url(#paint2_linear_185_67680)"/>
    <defs>
        <linearGradient id="paint0_linear_185_67680" x1="735.211" y1="541.69" x2="735.211" y2="485.995" gradientUnits="userSpaceOnUse">
            <stop stop-color="#FC8E90"/>
            <stop offset="1" stop-color="#FFEFA4"/>
        </linearGradient>
        <linearGradient id="paint1_linear_185_67680" x1="837.767" y1="577.394" x2="804.778" y2="502.148" gradientUnits="userSpaceOnUse">
            <stop stop-color="#FC6A7C"/>
            <stop offset="1" stop-color="#FFA693"/>
        </linearGradient>
        <linearGradient id="paint2_linear_185_67680" x1="656.691" y1="567.373" x2="627.508" y2="500.807" gradientUnits="userSpaceOnUse">
            <stop stop-color="#FFA693"/>
            <stop offset="1" stop-color="#FC6A7C"/>
        </linearGradient>
    </defs>
</svg>