<svg xmlns="http://www.w3.org/2000/svg" width="1920" height="940" viewBox="0 0 1920 940" fill="none">    <path d="M836.193 363.355L689.734 362.741C689.734 362.741 628.264 363.773 623.961 361.837C619.67 359.885 628.642 355.312 628.642 355.312C628.642 355.312 562.547 358.547 467.862 350.906C467.862 350.906 484.274 356.539 483.733 360.487C483.175 364.418 403.382 359.734 350.383 355.424C350.383 355.424 360.526 362.801 325.304 362.745C290.083 362.677 298.821 351.775 298.821 351.775L245.364 353.826C245.364 353.826 102.639 361.423 87.4929 352.137C72.3343 342.852 99.0966 287.546 110.147 281.48C121.182 275.417 132.968 289.024 132.968 289.024C132.968 289.024 138.848 277.006 145.97 278.775C153.075 280.532 182.946 306.169 182.946 306.169L189.789 300.982C189.789 300.982 149.273 272.931 146.403 253.301C143.533 233.671 165.714 206.022 165.714 206.022C165.714 206.022 140.066 193.139 117.229 172.856C117.201 172.828 117.133 172.772 117.034 172.689C101.728 159.049 87.7397 142.112 83.6435 123.497C82.4453 118.032 82.3617 112.997 83.2096 108.424C89.6066 74.155 148.203 65.8735 175.57 97.7049C175.61 97.7328 175.626 97.7607 175.654 97.7886C175.654 97.7886 175.57 97.5934 175.443 97.2189L175.347 96.9122C175.208 96.5099 175.057 95.9642 174.901 95.3109C174.889 95.271 174.873 95.2272 174.873 95.1874L174.861 95.1754C173.357 88.6108 172.672 72.1314 205.051 74.8361C224.167 76.4375 241.347 85.7945 254.121 95.1754L254.137 95.1874C267.887 105.293 276.553 115.443 277.054 116.045L277.082 116.072C277.082 116.072 276.692 105.895 289.247 102.593C301.631 99.3301 315.803 125.441 316.209 126.21V126.182C315.719 124.939 304.533 95.6773 315.333 77.8317C317.228 74.6967 319.791 71.9083 323.219 69.6896C346.585 54.5646 369.24 75.5452 369.24 75.5452C369.24 75.5452 364.626 57.3928 374.868 52.78C385.095 48.1513 406.467 72.701 406.929 84.6791C407.387 96.6413 382.408 88.4435 382.408 88.4435L408.111 115.642C408.111 115.642 408.139 115.602 408.139 115.586C408.362 115.017 410.229 110.651 414.536 106.034C420.627 99.5373 431.562 92.5663 449.658 95.1595H449.73C450.605 95.283 451.513 95.4383 452.432 95.6056C486.495 102.063 525.884 173.864 525.884 173.864C525.884 173.864 536.891 169.303 550.768 172.374L550.784 172.386C552.078 172.665 553.403 173.027 554.753 173.461C570.441 178.492 568.797 245.748 568.797 245.748C568.797 245.748 568.518 256.818 535.538 260.192C535.538 260.192 536.959 274.301 532.962 280.157C528.95 286.013 495.428 293.637 495.428 293.637C495.428 293.637 500.639 297.122 502.896 304.83L502.924 304.93C503.079 305.46 503.202 305.989 503.33 306.547C503.33 306.547 503.37 306.531 503.469 306.507C505.738 305.81 535.777 297.027 551.174 314.231C551.174 314.231 555.979 304.611 566.79 299.19C570.234 297.445 574.286 296.15 578.995 295.716C598.473 293.904 597.955 319.836 597.955 319.836C597.955 319.836 614.033 313.924 627.631 323.979C638.093 331.714 641.608 345.979 642.663 352.141C642.897 353.496 643.009 354.456 643.053 354.874L643.081 355.109L665.735 353.185C665.735 353.185 658.629 319.613 669.608 302.799C680.587 286.001 711.891 303.301 711.891 303.301C711.891 303.301 720.808 276.815 734.47 255.404C753.569 225.465 798.893 233.336 811.118 248.338C846.857 292.195 836.197 363.363 836.197 363.363L836.193 363.355Z" fill="url(#paint0_linear_185_67401)"/>    <path style="mix-blend-mode:multiply" opacity="0.5" d="M449.65 95.1555C431.414 95.1555 396.818 145.346 398.255 170.554L409.329 194.338L358.129 175.84L300.214 167.474L117.253 172.868C117.253 172.868 117.241 172.868 117.225 172.852C117.197 172.824 117.129 172.768 117.03 172.685C113.786 169.996 76.6973 138.499 82.6444 107.158C82.6444 107.158 82.8276 107.616 83.2137 108.424C85.7773 113.738 97.3969 134.133 125.819 137.802C158.549 142.024 178.532 126.688 178.532 126.688L175.574 97.7049L175.447 97.2149L175.351 96.9082L174.905 95.3069L174.866 95.1675L174.877 95.1794C175.196 95.526 185.94 106.779 215.043 116.662C244.608 126.7 271.008 118.781 271.008 118.781L254.137 95.1754L277.054 116.033L277.082 116.06C277.082 116.06 294.235 129.863 309.015 133.042C323.812 136.209 316.221 126.21 316.221 126.21L316.209 126.194V126.166C315.679 124.955 303.419 96.1474 315.333 77.8157C315.612 78.9869 329.17 134.209 385.58 145.199C385.58 145.199 397.546 144.693 412.51 123.529C412.526 123.517 408.139 115.586 408.139 115.571C410.591 112.125 412.669 108.95 414.536 106.018C420.627 99.5213 431.562 92.5504 449.658 95.1436L449.65 95.1555Z" fill="url(#paint1_linear_185_67401)"/>    <path style="mix-blend-mode:multiply" opacity="0.5" d="M536.867 225.457L474.796 200.15L482.583 195.41C482.583 195.41 490.635 174.792 489.063 144.673C487.475 114.559 469.641 101.481 452.421 95.5977C486.484 102.055 525.873 173.856 525.873 173.856C525.873 173.856 536.879 169.295 550.756 172.366L550.772 172.378C550.772 172.378 526.541 177.425 515.451 190.112C504.528 202.62 536.016 224.871 536.867 225.457V225.457Z" fill="url(#paint2_linear_185_67401)"/>    <path style="mix-blend-mode:multiply" opacity="0.5" d="M355.482 173.553C355.482 173.553 391.52 145.378 411.339 131.64C411.339 131.64 396.121 164.395 396.392 173.553C396.663 182.711 409.329 194.339 409.329 194.339L355.482 173.553Z" fill="url(#paint3_linear_185_67401)"/>    <path style="mix-blend-mode:multiply" opacity="0.5" d="M643.073 355.101L628.639 355.308L562.977 345.437L523.727 326.52L504.377 309.232L503.457 306.499C505.726 305.802 535.765 297.019 551.162 314.223C551.162 314.223 555.967 304.603 566.778 299.182C566.778 299.182 555.019 310.069 555.756 316.804C556.496 323.54 581.447 335.57 581.447 335.57L597.943 319.832C597.943 319.832 589.878 336.729 593.668 343.673C597.458 350.616 642.655 352.137 642.655 352.137L643.045 354.87L643.073 355.105V355.101Z" fill="url(#paint4_linear_185_67401)"/>    <path style="mix-blend-mode:multiply" opacity="0.5" d="M110.143 281.476C110.143 281.476 95.1956 297.887 97.8348 313.207C100.474 328.528 126.345 326.524 126.345 326.524C126.345 326.524 126.384 306.567 132.965 289.02C132.965 289.02 128.458 311.626 143.768 318.493C159.078 325.361 182.942 306.169 182.942 306.169L189.785 300.982C189.785 300.982 202.201 322.72 213.642 330.647L87.489 352.137C87.489 352.137 66.4947 338.466 110.143 281.476Z" fill="url(#paint5_linear_185_67401)"/>    <path d="M87.4892 352.137C87.4892 352.137 78.4769 336.279 124.235 330.643C169.993 325.006 213.638 330.643 213.638 330.643C213.638 330.643 191.111 302.819 205.895 295.422C205.895 295.422 168.059 286.088 154.859 265.574C141.659 245.055 187.067 231.89 237.749 228.17C237.749 228.17 229.302 227.688 230.62 220.521C231.941 213.355 243.553 213.718 243.553 213.718C243.553 213.718 177.31 220.099 117.245 172.876C117.245 172.876 112.615 146.215 185.478 154.954C185.478 154.954 183.894 130.468 224.02 129.648C264.145 128.827 320.639 149.386 323.804 154.954C326.973 160.523 305.855 161.053 305.855 161.053C305.855 161.053 377.659 175.318 409.338 194.338C409.338 194.338 389.804 178.488 398.251 170.565C406.698 162.638 469.012 182.719 479.036 190.642C489.063 198.565 474.804 200.162 474.804 200.162C474.804 200.162 566.683 233.758 568.789 245.748C570.895 257.738 494.342 263.02 494.342 263.02C494.342 263.02 533.771 271.425 532.951 280.149C531.482 295.808 355.487 284.268 355.487 284.268L506.244 309.515L545.048 326.528C545.048 326.528 541.374 318.497 545.048 317.968C548.722 317.438 576.173 335.893 581.981 342.25C587.789 348.608 562.973 345.437 562.973 345.437L628.647 355.308C628.647 355.308 653.682 364.422 680.711 355.308C778.003 322.509 837.678 363.359 837.678 363.359C837.678 363.359 631.632 365.549 623.966 361.833C616.299 358.116 623.161 357.591 623.161 357.591C623.161 357.591 513.823 354.95 469.852 351.074C469.852 351.074 483.49 355.451 483.725 360.483C483.956 365.514 350.383 355.432 350.383 355.432C350.383 355.432 357.421 362.606 325.301 362.741C293.18 362.877 295.82 351.078 295.82 351.078C295.82 351.078 166.363 367.298 87.4853 352.145L87.4892 352.137Z" fill="url(#paint6_radial_185_67401)"/>    <path style="mix-blend-mode:screen" opacity="0.2" d="M160.487 262.168C160.487 262.168 172.453 240.745 263.265 236.383C354.077 232.022 378.009 248.361 378.009 248.361C378.009 248.361 388.57 258.085 337.884 266.183L365.283 272.875L291.425 284.26C291.425 284.26 464.407 290.876 515.734 319.374C578.585 354.272 393.06 348.795 393.06 348.795L413.211 355.953C413.211 355.953 354.077 355.961 290.02 342.243C225.958 328.524 204.84 301.106 220.329 295.796C235.818 290.486 264.678 286.861 264.678 286.861C264.678 286.861 180.204 293.721 160.491 262.164L160.487 262.168Z" fill="url(#paint7_linear_185_67401)"/>    <path style="mix-blend-mode:screen" opacity="0.5" d="M294.263 166.522C294.263 166.522 378.698 178.492 419.636 209.133C460.573 239.777 334.918 230.265 268.922 190.642C202.926 151.019 294.263 166.522 294.263 166.522Z" fill="url(#paint8_linear_185_67401)"/>    <path style="mix-blend-mode:multiply" opacity="0.5" d="M185.478 154.951C185.478 154.951 174.097 116.459 174.862 95.1675C174.862 95.1675 183.989 127.525 195.115 137.328C195.115 137.328 186.183 147.972 185.478 154.951Z" fill="url(#paint9_linear_185_67401)"/>    <path style="mix-blend-mode:multiply" opacity="0.5" d="M474.804 200.154C474.804 200.154 481.384 199.003 482.586 195.41C483.788 191.817 490.205 168.777 489.266 153.122C489.266 153.122 492.403 175.314 504.369 192.924C516.335 210.535 540.729 227.273 540.729 227.273C540.729 227.273 503.314 210.204 474.8 200.154H474.804Z" fill="url(#paint10_linear_185_67401)"/>    <path style="mix-blend-mode:screen" opacity="0.5" d="M448.934 99.2345C448.934 99.2345 441.016 132.512 444.71 153.122C448.404 173.728 482.196 185.352 482.196 185.352C482.196 185.352 495.241 153.931 485.815 127.11C476.389 100.29 455.259 101.346 448.934 99.2345V99.2345Z" fill="url(#paint11_linear_185_67401)"/>    <path style="mix-blend-mode:screen" opacity="0.5" d="M540.729 175.242C540.729 175.242 535.387 201.246 545.044 215.578C554.701 229.91 568.422 236.383 568.422 236.383C568.422 236.383 573.219 164.953 540.729 175.242Z" fill="url(#paint12_linear_185_67401)"/>    <path style="mix-blend-mode:screen" opacity="0.5" d="M184.969 77.8237C184.969 77.8237 193.643 103.736 218.212 112.706C242.781 121.677 265.821 105.819 265.821 105.819C265.821 105.819 220.712 68.0365 184.969 77.8237V77.8237Z" fill="url(#paint13_linear_185_67401)"/>    <path style="mix-blend-mode:screen" opacity="0.5" d="M597.948 319.828C597.948 319.828 589.198 332.404 601.518 339.797C613.838 347.194 640.74 344.21 640.74 344.21C640.74 344.21 633.802 309.714 597.948 319.824V319.828Z" fill="url(#paint14_linear_185_67401)"/>    <path style="mix-blend-mode:multiply" opacity="0.5" d="M766.315 235.642C766.315 235.642 746.961 245.569 739.219 289.379C731.476 333.188 756.196 342.565 756.196 342.565C714.749 340.558 668.561 358.686 669.349 358.539C669.349 358.539 678.676 354.177 691.347 336.642C704.017 319.103 689.886 295.8 689.886 295.8L711.883 303.293C711.883 303.293 732.869 236.714 766.311 235.642H766.315Z" fill="url(#paint15_linear_185_67401)"/>    <path style="mix-blend-mode:screen" opacity="0.5" d="M763.425 237.674C763.425 237.674 741.973 270.497 758.549 305.014C775.125 339.53 832.391 321.465 832.391 321.465C832.391 321.465 831.038 215.562 763.429 237.674H763.425Z" fill="url(#paint16_linear_185_67401)"/>    <path d="M739.677 248.768C739.677 248.768 758.573 232.46 790.431 240.913C790.431 240.913 790.61 263.02 805.394 277.325C820.178 291.629 829.708 295.8 829.708 295.8C829.708 295.8 839.453 341.844 836.193 363.355C836.193 363.355 845.866 266.231 810.868 242.482C777.939 220.139 744.887 242.139 739.677 248.768V248.768Z" fill="#FFFFA2"/>    <path d="M525.872 173.856C525.872 173.856 544.319 168.669 553.964 177.863C563.609 187.057 568.788 245.74 568.788 245.74C568.788 245.74 572.144 196.983 562.531 178.919C552.917 160.854 525.876 173.856 525.876 173.856H525.872Z" fill="#FFFFA2"/>    <path d="M457.333 97.4818C457.333 97.4818 469.581 101.23 480.341 127.764C491.101 154.297 487.706 173.979 487.706 173.979C487.706 173.979 490.731 147.342 486.639 130.568C480.429 105.11 457.333 97.4858 457.333 97.4858V97.4818Z" fill="#FFFFA2"/>    <path d="M601.51 318.485C601.51 318.485 618.185 331.694 626.083 336.184C633.981 340.673 636.883 339.355 636.883 339.355C636.883 339.355 641.333 346.899 643.073 355.101C643.073 355.101 642.185 313.781 601.506 318.485H601.51Z" fill="#FFFFA2"/>    <path d="M368.213 65.6863C368.213 65.6863 367.882 55.6441 376.066 58.0222C384.251 60.4003 390.516 83.5797 406.917 84.6712C406.917 84.6712 401.312 61.4001 383.411 53.7679C365.506 46.1357 368.213 65.6863 368.213 65.6863V65.6863Z" fill="#FFFFA2"/>    <path style="mix-blend-mode:screen" opacity="0.5" d="M699.797 355.957C699.797 355.957 764.623 342.426 800.31 351.508C849.389 363.996 786.824 362.869 786.824 362.869L683.254 362.076L699.797 355.957V355.957Z" fill="url(#paint17_linear_185_67401)"/>    <path d="M810.672 239.152C811.799 241.004 813.184 242.685 814.912 244.032C815.728 244.665 816.679 245.426 817.71 245.501C819.076 245.605 820.338 245.254 820.533 243.741C820.672 242.661 820.027 241.594 819.573 240.666C818.63 238.738 817.372 237.232 815.951 235.631C814.434 233.922 812.989 232.137 811.385 230.508C810.633 229.743 809.713 229.185 808.893 228.496C808.216 227.927 807.663 227.174 806.799 226.875C806.071 226.62 804.407 226.114 803.623 226.512C802.663 226.998 802.576 228.723 802.815 229.556C803.408 231.627 805.617 232.723 806.54 234.567C806.879 235.24 807.293 235.985 807.512 236.698C807.671 237.228 807.747 237.746 808.021 238.283C808.324 238.869 808.786 239.263 809.271 239.686C809.932 240.263 810.091 240.195 810.668 239.156L810.672 239.152Z" fill="#FFFFA2"/>    <path d="M822.288 237.742C822.539 238.041 823.574 239.813 824.418 239.534C824.888 239.379 824.923 238.383 824.724 237.945C824.47 237.379 824.075 237.415 823.522 237.387C822.571 237.339 822.503 237.347 821.934 238.096L822.284 237.746L822.288 237.742Z" fill="#FFFFA2"/>    <path d="M839.031 200.792C837.678 198.852 836.248 195.836 838.732 194.091C841.547 192.116 845.798 193.108 848.62 194.434C852.354 196.191 854.803 199.899 856.303 203.624C856.936 205.197 857.167 206.922 857.669 208.535C858.17 210.149 859.018 211.678 859.623 213.252C860.153 214.626 860.26 215.104 859.038 216.195C857.9 217.211 856.502 217.821 855.125 218.394C854.002 218.864 852.884 219.306 851.706 219.629C851.037 219.812 850.328 220.199 849.628 220.123C848.82 220.035 847.848 219.478 847.136 219.135C845.257 218.231 843.211 216.578 842.116 214.817C840.846 212.77 839.326 210.878 838.056 208.83C837.506 207.942 837.196 206.986 836.818 206.026C836.547 205.337 836.236 205.018 836.189 204.253C836.105 202.887 836.217 201.457 839.031 200.792V200.792Z" fill="#FFFFA2"/>    <path d="M825.103 246.194C825.592 246.728 827.766 249.728 828.725 248.764C829.262 248.222 829.095 246.453 828.717 245.828C828.295 245.131 827.499 244.478 826.683 244.422C825.759 244.358 824.47 245.187 824.398 246.198H825.103V246.194Z" fill="#FFFFA2"/>    <path d="M798.002 237.387C797.162 236.73 792.927 233.981 796.035 233.149C797.206 232.834 799.172 233.364 800.227 233.858C801.19 234.308 802.218 234.75 802.85 235.631C803.272 236.22 803.866 236.965 803.659 237.75C803.471 238.463 802.663 239.068 801.959 239.176C801.143 239.303 800.195 238.945 799.419 238.805C798.344 238.618 797.297 237.853 796.242 237.742L798.002 237.391V237.387Z" fill="#FFFFA2"/>    <path d="M737.109 236.332C735.381 237.124 733.749 237.825 732.177 238.869C731.166 239.538 730.206 240.295 729.171 240.924C728.546 241.307 727.464 241.426 727.026 241.984C727.452 241.96 727.885 242.004 728.311 241.972C728.909 241.928 729.378 241.685 729.975 241.594C731.15 241.418 732.081 242.179 733.24 241.98C734.41 241.777 735.405 240.793 736.074 239.869C736.364 239.467 737.499 236.905 736.054 237.383L737.109 236.328V236.332Z" fill="#FFFFA2"/>    <path d="M727.958 248.31C726.919 248.951 724.67 249.756 724.825 251.445C725.525 251.716 725.744 251.309 726.246 250.967C727.066 250.409 728.296 250.126 728.829 249.186C729.829 247.429 727.333 248.955 726.903 249.011L727.958 248.306V248.31Z" fill="#FFFFA2"/>    <path d="M842.001 286.698C842.761 288.016 843.474 289.323 844.561 287.499C845.138 286.531 845.5 285.124 845.006 284.045C844.6 283.165 843.888 282.985 843.06 283.34C841.444 284.029 841.4 285.391 841.3 287.052L842.005 286.702L842.001 286.698Z" fill="#FFFFA2"/>    <path d="M626.234 318.398C626.808 320.027 627.198 321.238 628.591 322.302C629.001 322.612 630.753 323.728 631.338 323.325C632.102 322.803 631.039 320.8 630.808 320.158C630.406 319.039 629.694 318.43 628.694 317.76C627.405 316.896 626.541 317.525 625.88 318.748L626.23 318.398H626.234Z" fill="#FFFFA2"/>    <path d="M637.149 328.611C637.854 328.424 638.24 328.034 638.312 327.452C637.118 327.532 638.025 330.324 639.613 330.021L637.149 328.611V328.611Z" fill="#FFFFA2"/>    <path d="M608.285 300.082C607.979 298.485 607.469 295.346 610.319 295.824C611.725 296.059 613.341 297.975 613.58 299.377C613.767 300.465 613.102 301.329 612.159 301.671C611.677 301.847 611.124 301.954 610.57 301.819C609.754 301.616 609.153 300.811 608.281 300.791V300.086L608.285 300.082Z" fill="#FFFFA2"/>    <path d="M604.766 283.882C605.176 284.268 607.533 286.674 608.214 285.571C608.504 285.101 608.174 284.447 608.03 283.985C607.724 283.013 607.481 282.037 607.23 281.049C606.832 279.48 606.207 277.373 604.945 276.293C603.954 275.445 603.194 275.99 602.111 276.441C600.551 277.086 598.7 277.899 599.715 279.982C600.439 281.468 601.653 282.906 602.832 284.057C603.731 284.937 604.109 285.917 605.117 286.698L604.766 283.882V283.882Z" fill="#FFFFA2"/>    <path d="M603.711 271.907C603.652 271.824 601.829 269.334 602.35 268.792C602.868 268.251 603.751 268.98 604.054 269.294C604.643 269.908 604.794 270.613 605.121 271.35C605.355 271.88 605.758 272.401 604.77 272.613L603.715 271.907H603.711Z" fill="#FFFFA2"/>    <path d="M807.154 220.482C807.249 221.226 807.273 222.768 807.711 223.561C807.894 223.891 808.312 224.282 808.555 224.608C809.056 225.286 809.693 226.345 810.68 226.413C811.361 226.457 812.591 225.393 812.802 224.744C813.041 224.015 812.746 222.995 812.448 222.35C812.05 221.485 811.735 220.334 811.13 219.617C810.72 219.127 809.566 218.135 808.913 218.016C807.958 217.845 807.162 218.868 807.154 219.777V220.482V220.482Z" fill="#FFFFA2"/>    <path d="M815.601 229.64C815.652 229.739 816.369 231.683 817.038 231.472C817.476 231.336 817.376 231.125 817.297 230.779C817.205 230.388 816.52 229.807 816.301 229.46C815.987 228.962 815.915 228.68 815.334 228.488C814.478 228.205 814.542 228.795 814.542 229.636H815.597L815.601 229.64Z" fill="#FFFFA2"/>    <path d="M809.263 245.139C808.527 244.338 806.752 243.223 807.926 242.04C808.758 241.199 810.155 241.765 810.864 242.482C811.306 242.932 811.445 243.45 811.727 244.004C811.907 244.358 812.42 244.904 812.416 245.326C812.416 246.23 811.481 246.35 810.732 246.135C810.712 246.039 810.693 245.94 810.673 245.844L809.263 245.139V245.139Z" fill="#FFFFA2"/>    <path d="M566.929 189.311C566.667 188.208 565.775 186.065 566.894 185.033C567.817 184.185 568.506 184.854 569.175 185.587C570.735 187.304 571.663 189.682 571.694 191.98C571.726 194.394 570.249 195.179 568.235 193.805C567.328 193.187 567.244 192.582 566.671 191.666C566.308 191.088 565.803 189.674 565.349 189.307H566.933L566.929 189.311Z" fill="#FFFFA2"/>    <path d="M572.208 183.5C572.319 184.117 572.96 188.491 574.437 188.726C575.938 188.965 576.153 186.539 575.93 185.587C575.743 184.79 575.014 183.946 574.449 183.372C573.494 182.404 573.386 182.404 572.208 182.974V183.504V183.5Z" fill="#FFFFA2"/>    <path d="M567.985 151.8C567.176 150.668 565.524 148.29 566.508 146.625C566.969 145.84 568.223 145.848 568.908 145.538C570.421 147.29 572.244 149.035 572.22 151.541C572.212 152.433 571.838 153.56 570.843 153.879C569.764 154.226 568.57 153.023 567.455 152.855L567.985 151.8V151.8Z" fill="#FFFFA2"/>    <path d="M601.247 188.782C602.362 188.176 605.073 187.125 604.918 185.412C604.834 184.48 604.102 184.141 603.373 184.017C601.809 183.751 599.874 185.511 600.192 187.196L601.247 188.782V188.782Z" fill="#FFFFA2"/>    <path d="M574.318 169.765C574.39 168.267 574.247 166.638 575.903 167.367C576.611 167.678 577.61 168.323 578.036 168.952C579.246 170.725 578.315 171.92 576.428 171.876L574.314 169.761L574.318 169.765Z" fill="#FFFFA2"/>    <path d="M848.087 321.955C848.159 320.457 848.016 318.828 849.672 319.557C850.38 319.868 851.379 320.513 851.805 321.142C853.015 322.915 852.084 324.11 850.197 324.066L848.083 321.951L848.087 321.955Z" fill="#FFFFA2"/>    <path d="M462.918 85.7587C462.866 88.3001 463.419 90.0568 465.509 91.7816C466.349 92.4747 468.14 93.5462 469.279 93.0881C470.067 92.7695 469.948 92.0564 470.429 91.5426C470.792 91.1562 471.217 91.0446 471.631 90.7339C472.463 90.1085 473.403 88.9693 473.514 87.8699C473.642 86.647 472.511 85.1572 471.934 84.1454C470.935 82.4046 468.459 81.2972 466.592 80.8471C465.7 80.632 463.925 79.7756 463.053 79.9907C460.88 80.5284 460.06 83.9343 460.282 85.7587H462.922H462.918Z" fill="#FFFFA2"/>    <path d="M472.42 102.664C472.006 102.059 470.62 100.453 470.366 99.605C472.69 98.7326 474.725 100.394 475.652 102.334C477.041 105.246 473.148 103.867 471.894 102.664H472.424H472.42Z" fill="#FFFFA2"/>    <path d="M400.62 74.1351C401.81 75.7962 403.088 77.3178 404.338 78.8833C404.891 79.5804 406.173 80.8431 407.192 80.4767C409.19 79.7557 408.709 75.362 408.498 73.8682C408.199 71.757 407.033 69.6418 404.855 68.9606C400.906 67.7298 401.631 73.3264 401.675 75.7205L400.62 74.1351V74.1351Z" fill="#FFFFA2"/>    <path d="M397.976 59.3447C397.813 58.5878 396.523 56.138 397.029 55.2218C397.805 53.8197 398.398 55.0745 399.003 55.66C399.987 56.616 400.826 56.7156 401.037 58.297C401.153 59.1455 400.751 60.1892 399.561 59.8705L397.976 59.3407V59.3447Z" fill="#FFFFA2"/>    <path d="M220.58 72.0239C223.558 73.2189 225.628 75.1469 228.287 73.0994C229.783 71.9442 230.297 69.6099 229.851 67.7536C229.469 66.1603 228.979 65.2282 227.984 63.9614C226.977 62.6788 226.368 62.5672 224.831 61.9936C223.08 61.3364 221.34 61.1531 219.505 60.8703C218.136 60.6592 216.854 60.233 215.441 60.3843C213.415 60.5955 212.459 61.6789 211.54 63.2484C210.66 64.7541 211.416 66.2001 212.758 67.2756C214.824 68.9288 217.523 69.4267 219.553 70.9483C220.365 71.5538 220.887 72.4939 221.73 73.0874C223.187 74.1112 224.752 74.6011 226.392 75.2026L220.584 72.0318L220.58 72.0239Z" fill="#FFBDA2"/>    <path d="M234.835 78.3615C234.238 77.4373 233.987 76.4574 234.083 75.4177C235.01 75.1269 235.249 74.2665 236.419 74.7445C237.116 75.0313 238.792 76.7123 238.959 77.4214C239.548 79.8831 235.739 79.4171 234.306 79.4171L234.835 78.3615Z" fill="#FFBDA2"/>    <path style="mix-blend-mode:screen" opacity="0.5" d="M449.65 233.846C436.155 248.127 473.94 256.898 510.435 256.408C533.4 256.101 561.444 252.759 566.205 248.306C573.144 241.817 537.644 227.807 505.233 225.453C480.09 223.629 453.885 229.365 449.65 233.846V233.846Z" fill="url(#paint18_linear_185_67401)"/>    <defs>        <linearGradient id="paint0_linear_185_67401" x1="327.55" y1="480.949" x2="533.454" y2="97.1958" gradientUnits="userSpaceOnUse">            <stop offset="0.47" stop-color="#FC6A7C"/>            <stop offset="1" stop-color="#FFEFA4"/>        </linearGradient>        <linearGradient id="paint1_linear_185_67401" x1="265.821" y1="194.338" x2="265.821" y2="77.8237" gradientUnits="userSpaceOnUse">            <stop stop-color="#D698C7"/>            <stop offset="1" stop-color="#FFDBFF"/>        </linearGradient>        <linearGradient id="paint2_linear_185_67401" x1="501.598" y1="225.457" x2="501.598" y2="95.6017" gradientUnits="userSpaceOnUse">            <stop stop-color="#D698C7"/>            <stop offset="1" stop-color="#FFDBFF"/>        </linearGradient>        <linearGradient id="paint3_linear_185_67401" x1="383.411" y1="51.9993" x2="383.411" y2="131.64" gradientUnits="userSpaceOnUse">            <stop stop-color="#D698C7"/>            <stop offset="1" stop-color="#FFDBFF"/>        </linearGradient>        <linearGradient id="paint4_linear_185_67401" x1="503.457" y1="327.245" x2="643.073" y2="327.245" gradientUnits="userSpaceOnUse">            <stop stop-color="#D698C7"/>            <stop offset="1" stop-color="#FFDBFF"/>        </linearGradient>        <linearGradient id="paint5_linear_185_67401" x1="148.04" y1="352.137" x2="148.04" y2="281.476" gradientUnits="userSpaceOnUse">            <stop stop-color="#D698C7"/>            <stop offset="1" stop-color="#FFDBFF"/>        </linearGradient>        <radialGradient id="paint6_radial_185_67401" cx="0" cy="0" r="1" gradientUnits="userSpaceOnUse" gradientTransform="translate(641.95 207.442) scale(473.955 203.939)">            <stop stop-color="#FD676A"/>            <stop offset="1" stop-color="#A64A8E"/>        </radialGradient>        <linearGradient id="paint7_linear_185_67401" x1="160.487" y1="295.8" x2="528.731" y2="295.8" gradientUnits="userSpaceOnUse">            <stop/>            <stop offset="1" stop-color="#FF3345"/>        </linearGradient>        <linearGradient id="paint8_linear_185_67401" x1="244.974" y1="195.406" x2="427.665" y2="195.406" gradientUnits="userSpaceOnUse">            <stop stop-color="#FF3345"/>            <stop offset="1"/>        </linearGradient>        <linearGradient id="paint9_linear_185_67401" x1="174.822" y1="125.059" x2="195.115" y2="125.059" gradientUnits="userSpaceOnUse">            <stop stop-color="#D698C7"/>            <stop offset="1" stop-color="#FFDBFF"/>        </linearGradient>        <linearGradient id="paint10_linear_185_67401" x1="474.804" y1="190.2" x2="540.729" y2="190.2" gradientUnits="userSpaceOnUse">            <stop stop-color="#D698C7"/>            <stop offset="1" stop-color="#FFDBFF"/>        </linearGradient>        <linearGradient id="paint11_linear_185_67401" x1="466.481" y1="185.352" x2="466.481" y2="99.2345" gradientUnits="userSpaceOnUse">            <stop/>            <stop offset="1" stop-color="#FFCF00"/>        </linearGradient>        <linearGradient id="paint12_linear_185_67401" x1="553.965" y1="236.383" x2="553.965" y2="174.226" gradientUnits="userSpaceOnUse">            <stop/>            <stop offset="1" stop-color="#FFCF00"/>        </linearGradient>        <linearGradient id="paint13_linear_185_67401" x1="225.397" y1="115.455" x2="225.397" y2="76.2064" gradientUnits="userSpaceOnUse">            <stop/>            <stop offset="1" stop-color="#FFCF00"/>        </linearGradient>        <linearGradient id="paint14_linear_185_67401" x1="617.835" y1="344.808" x2="617.835" y2="317.972" gradientUnits="userSpaceOnUse">            <stop/>            <stop offset="1" stop-color="#FFCF00"/>        </linearGradient>        <linearGradient id="paint15_linear_185_67401" x1="717.83" y1="358.543" x2="717.83" y2="235.642" gradientUnits="userSpaceOnUse">            <stop stop-color="#D698C7"/>            <stop offset="1" stop-color="#FFDBFF"/>        </linearGradient>        <linearGradient id="paint16_linear_185_67401" x1="752.259" y1="280.416" x2="832.387" y2="280.416" gradientUnits="userSpaceOnUse">            <stop stop-color="#FFCF00"/>            <stop offset="1"/>        </linearGradient>        <linearGradient id="paint17_linear_185_67401" x1="683.258" y1="355.631" x2="819.103" y2="355.631" gradientUnits="userSpaceOnUse">            <stop/>            <stop offset="1" stop-color="#FF3345"/>        </linearGradient>        <linearGradient id="paint18_linear_185_67401" x1="446.852" y1="240.769" x2="567.081" y2="240.769" gradientUnits="userSpaceOnUse">            <stop/>            <stop offset="1" stop-color="#FF3345"/>        </linearGradient>    </defs></svg>