<svg xmlns="http://www.w3.org/2000/svg" width="1920" height="940" viewBox="0 0 1920 940" fill="none">
    <path d="M1753.95 316.196C1753.66 317.484 1753.39 318.618 1753.17 319.545C1753.15 319.545 1753.15 319.556 1753.15 319.571C1752.75 321.282 1752.47 322.291 1752.47 322.291C1752.47 322.291 1751.81 322.703 1750.47 323.399C1741.87 327.845 1705.6 344.125 1644.67 337.919C1628.9 336.322 1620.54 335.008 1617.05 333.937C1604.95 330.238 1651.24 329.454 1651.24 329.454L1548.69 330.753C1548.69 330.753 1573.01 333.355 1576.97 338.571C1580.91 343.775 1449.01 358.089 1366.72 344.419C1366.72 344.419 1362.66 340.514 1369.57 338.891L1344.59 335.633C1344.59 335.633 1353.95 346.532 1313.02 346.532C1272.09 346.532 1280.98 338.725 1280.98 338.725L1082.33 340.786H1082.3L1068.98 340.926C1068.98 340.926 1091.43 342.137 1089.44 346.3C1088.13 349.072 976.296 348.49 976.296 348.49L977.077 346.311C977.077 346.311 999.644 326.866 1019.36 328.151C1034.33 329.126 1043.85 341.894 1043.85 341.894L1061.84 340.234C1061.84 340.234 1061.59 333.602 1068.98 328.228C1076.39 322.869 1080.58 330.676 1080.58 330.676C1080.58 330.676 1094.46 308.297 1121.09 303.416C1147.71 298.536 1165.78 323.59 1165.78 323.59C1165.78 323.59 1178.61 318.386 1186.81 330.433C1186.81 330.433 1206.21 298.863 1237.76 303.582C1250.49 305.485 1263.01 316.762 1272.59 317.535C1276.76 317.87 1279.83 318.18 1281.12 318.308C1279.81 318.117 1276.79 317.664 1274.18 316.932H1274.16C1271.97 316.313 1270.04 315.5 1269.65 314.484C1268.66 311.882 1281.8 297.891 1281.8 297.891C1281.8 297.891 1233.33 311.061 1240.67 283.191C1250.26 246.792 1322.24 221.086 1322.24 221.086C1322.24 221.086 1349.52 176.167 1378.11 152.242C1406.29 128.678 1394.25 157.241 1393.9 158.091C1394.56 157.344 1415.76 133.537 1428.87 121.505C1428.31 121.593 1419.47 123.091 1417.55 111.725C1415.58 100.013 1452.07 71.2113 1467.34 70.7218C1482.63 70.2323 1460.45 101.96 1460.45 101.96C1460.45 101.96 1495.45 84.7085 1505.97 106.844C1505.97 106.844 1559.21 68.4398 1602.6 84.7122C1645.52 100.804 1596.46 211.141 1595.38 213.552C1595.83 212.856 1602.18 203.154 1608.52 202.535C1614.96 201.891 1610.03 216.912 1609.84 217.494C1610.42 216.89 1648.12 177.161 1669.65 179.104C1691.34 181.047 1695.29 244.186 1685.42 272.822C1685.42 272.822 1709.75 252.648 1726.19 255.906C1742.62 259.152 1726.19 277.383 1726.19 277.383C1726.19 277.383 1741.97 276.738 1752.48 279.985C1760.39 282.432 1756.41 305.08 1753.95 316.199V316.196Z" fill="url(#paint0_linear_185_67605)"/>
    <path d="M976.296 348.494C976.296 348.494 971.467 342.619 1007.68 342.748C1046.79 342.884 1089.45 346.304 1089.45 346.304C1089.45 346.304 1089.45 352.075 1040.56 352.889C1019.53 353.238 1030.04 348.453 1030.04 348.453L976.3 348.494H976.296Z" fill="url(#paint1_linear_185_67605)"/>
    <path style="mix-blend-mode:multiply" opacity="0.5" d="M1471.54 275.196C1471.54 275.196 1478.69 279.009 1498.74 254.275C1518.79 229.541 1502.35 190.161 1502.35 190.161C1502.35 190.161 1519.77 205.782 1521.75 224.984C1521.75 224.984 1524.05 178.445 1503.34 154.686C1503.34 154.686 1498.74 169.332 1489.53 183.326C1489.53 183.326 1498.41 149.478 1493.8 124.744C1489.2 100.009 1480.68 95.9089 1480.68 95.9089C1480.68 95.9089 1500.38 92.1914 1505.97 106.841C1505.97 106.841 1511.55 125.395 1507.94 146.221C1507.94 146.221 1516.16 191.784 1554.61 197.154C1593.07 202.524 1621.26 113.975 1609.5 88.6947C1609.5 88.6947 1623.95 98.2456 1619.34 132.005C1614.74 171.903 1595.37 213.548 1595.37 213.548C1595.37 213.548 1587.15 228.4 1590.11 239.63L1609.84 217.49C1609.84 217.49 1612.79 221.079 1638.42 224.494C1664.06 227.91 1686.31 200.353 1686.31 200.353C1686.31 200.353 1696.42 247.039 1685.42 272.822L1693.64 272.174C1693.64 272.174 1685.75 289.371 1689.2 299.647L1661.3 303.578L1604.4 287.957C1604.4 287.957 1631.03 285.027 1639.9 265.012C1648.78 244.996 1643.35 227.91 1616.73 233.77C1590.11 239.63 1573.84 270.577 1569.65 289.518L1546.72 293.817L1536.37 288.933C1536.37 288.933 1545.24 271.847 1535.87 265.012C1526.5 258.177 1513.7 276.231 1512.7 291.369C1511.71 306.508 1471.53 275.193 1471.53 275.193L1471.54 275.196Z" fill="url(#paint2_linear_185_67605)"/>
    <path style="mix-blend-mode:multiply" opacity="0.5" d="M1393.94 289.717C1393.94 289.717 1382.05 283.566 1387.97 266.97C1393.89 250.374 1450.09 196.142 1450.09 196.142C1450.09 196.142 1430.2 213.478 1418.21 210.445C1406.22 207.412 1418.14 173.38 1418.14 173.38C1418.14 173.38 1393.89 235.235 1363.81 253.3C1333.74 271.361 1343.1 238.165 1351 219.128C1358.88 200.088 1393.9 158.091 1393.9 158.091C1393.9 158.091 1352.04 203.507 1343.14 217.174C1334.23 230.844 1322.24 221.086 1322.24 221.086C1322.24 221.086 1334.23 226.449 1330.78 245.979C1327.33 265.505 1302.84 288.785 1281.8 297.891L1276.73 303.582C1276.73 303.582 1301.25 278.27 1323.88 283.213C1341.13 286.982 1334.73 308.956 1334.73 308.956C1334.73 308.956 1364.01 296.279 1393.94 289.717V289.717Z" fill="url(#paint3_linear_185_67605)"/>
    <path style="mix-blend-mode:multiply" opacity="0.5" d="M1127.15 302.798C1127.15 302.798 1137.02 304.314 1142.2 312.371C1147.38 320.425 1140.1 324.054 1130.29 327.506C1120.47 330.959 1082.3 339.222 1082.3 339.222C1082.3 339.222 1080.49 336.134 1080.57 330.679C1080.57 330.679 1078.35 335.641 1073.75 339.222C1069.15 342.803 1061.84 340.238 1061.84 340.238L1089.44 346.304L1082.3 340.79C1082.3 340.79 1114.27 327.333 1159.25 331.161L1150.01 327.179L1165.78 323.594C1165.78 323.594 1153.27 303.803 1127.16 302.798H1127.15Z" fill="url(#paint4_linear_185_67605)"/>
    <path style="mix-blend-mode:multiply" opacity="0.5" d="M1424.94 285.524C1424.94 285.524 1415.91 281.604 1425.76 263.539C1435.63 245.478 1441.22 238.327 1441.22 238.327C1441.22 238.327 1421.82 264.022 1410.98 276.403C1404.61 283.669 1393.94 289.713 1393.94 289.713L1424.94 285.521L1424.94 285.524Z" fill="url(#paint5_linear_185_67605)"/>
    <path style="mix-blend-mode:screen" d="M1487.56 193.742C1487.56 193.742 1465.87 200.25 1447.13 229.445C1433.59 250.539 1424.13 266.315 1426.75 268.593C1429.38 270.871 1464.22 273.312 1485.59 252.81C1506.95 232.305 1501.36 198.623 1487.56 193.742Z" fill="url(#paint6_linear_185_67605)"/>
    <path d="M1576.97 338.574C1576.97 338.574 1582.88 326.527 1571.7 303.582C1560.53 280.636 1426.31 298.76 1426.31 298.76C1426.31 298.76 1362.89 314.48 1366.72 344.423L1576.97 338.574V338.574Z" fill="url(#paint7_linear_185_67605)"/>
    <path style="mix-blend-mode:screen" opacity="0.5" d="M1622.32 232.839C1622.32 232.839 1596.19 234.451 1576.72 270.073C1576.72 270.073 1576.72 279.657 1599.52 275.752C1622.32 271.847 1634.67 233.969 1634.67 233.969C1634.67 233.969 1631.86 232.228 1622.32 232.835V232.839Z" fill="url(#paint8_linear_185_67605)"/>
    <path style="mix-blend-mode:screen" opacity="0.5" d="M1460.45 101.96C1460.45 101.96 1417.06 127.35 1398.32 162.007C1398.32 162.007 1437.61 173.675 1466.36 158.087C1495.11 142.499 1487.47 104.448 1487.47 104.448C1487.47 104.448 1495.45 93.1704 1460.45 101.96V101.96Z" fill="url(#paint9_linear_185_67605)"/>
    <path style="mix-blend-mode:screen" opacity="0.5" d="M1509.48 104.485C1509.48 104.485 1525.03 118.564 1559.54 114.169C1594.05 109.774 1609.5 88.6984 1609.5 88.6984C1609.5 88.6984 1577.74 65.5099 1509.48 104.485Z" fill="url(#paint10_linear_185_67605)"/>
    <path style="mix-blend-mode:screen" opacity="0.5" d="M1380.11 175.328C1380.11 175.328 1339.16 224.009 1344.09 250.37C1344.09 250.37 1375.75 245.21 1393.94 210.445C1412.13 175.681 1380.11 175.328 1380.11 175.328Z" fill="url(#paint11_linear_185_67605)"/>
    <path style="mix-blend-mode:screen" opacity="0.5" d="M1357.07 173.38C1357.07 173.38 1345.57 187.397 1346.56 193.742C1347.54 200.088 1393.5 160.546 1393.94 150.295C1394.38 140.044 1371.66 155.201 1357.07 173.38V173.38Z" fill="url(#paint12_linear_185_67605)"/>
    <path style="mix-blend-mode:screen" opacity="0.5" d="M1255.35 262.086C1255.35 262.086 1246.61 273.315 1254.68 280.147C1262.75 286.982 1312.05 268.921 1323.88 250.37C1335.71 231.819 1325.31 219.724 1318.71 222.426C1312.11 225.128 1271.44 242.103 1255.35 262.086H1255.35Z" fill="url(#paint13_linear_185_67605)"/>
    <path style="mix-blend-mode:screen" opacity="0.5" d="M1186.81 330.433C1186.81 330.433 1196.68 332.873 1219.36 326.77C1242.04 320.668 1241.18 304.307 1241.18 304.307C1241.18 304.307 1210.73 297.479 1186.82 330.433H1186.81Z" fill="url(#paint14_linear_185_67605)"/>
    <path style="mix-blend-mode:multiply" opacity="0.5" d="M1344.1 254.702C1344.1 254.702 1347.54 262.052 1361.68 264.022C1375.81 265.991 1389.61 259.362 1389.61 259.362C1389.61 259.362 1374.51 282.009 1380.75 292.389L1334.73 308.956C1334.73 308.956 1340.97 297.181 1337.03 283.213C1333.08 269.244 1318.95 276.691 1318.95 276.691C1318.95 276.691 1332.1 263.061 1334.4 247.44C1336.7 231.819 1329.27 224.237 1329.27 224.237C1329.27 224.237 1336.54 224.377 1348.09 210.442C1359.63 196.506 1365.24 190.025 1365.24 190.025C1365.24 190.025 1340.01 226.81 1344.11 254.698L1344.1 254.702Z" fill="url(#paint15_linear_185_67605)"/>
    <path style="mix-blend-mode:screen" opacity="0.5" d="M1080.57 330.676C1080.57 330.676 1076.97 338.508 1099.95 334.091C1122.92 329.674 1135.05 317.02 1135.05 308.956C1135.05 297.722 1103.25 300.899 1080.57 330.676Z" fill="url(#paint16_linear_185_67605)"/>
    <path d="M1753.17 319.549C1753.17 319.549 1753.15 319.56 1753.15 319.575C1752.55 320.745 1751.66 322.033 1750.47 323.402C1741.87 327.849 1705.6 344.129 1644.67 337.923C1628.9 336.325 1620.54 335.011 1617.05 333.94C1604.95 330.241 1651.24 329.457 1651.24 329.457L1548.69 330.757C1548.69 330.757 1573.01 333.359 1576.97 338.574C1580.91 343.779 1449.01 358.093 1366.72 344.423C1366.72 344.423 1362.66 340.518 1369.57 338.895L1344.59 335.637C1344.59 335.637 1353.95 346.536 1313.02 346.536C1272.09 346.536 1280.98 338.729 1280.98 338.729L1082.33 340.79H1082.3C1114.36 322.342 1182.87 333.845 1182.87 333.845C1242.1 324.146 1283.66 325.383 1288.01 325.523C1284.52 325.291 1258.34 323.307 1272.59 317.535C1273.07 317.34 1273.59 317.138 1274.16 316.928H1274.18C1293 310.266 1334.73 308.952 1334.73 308.952C1366.77 289.912 1424.94 285.517 1424.94 285.517C1424.94 285.517 1462.52 264.04 1490.14 264.014C1530.57 263.981 1512.71 291.366 1512.71 291.366C1512.71 291.366 1519.11 283.069 1533.4 283.209C1547.7 283.338 1546.72 293.813 1546.72 293.813L1562.99 291.366C1636.45 270.378 1661.59 281.122 1667.51 286.971C1673.42 292.831 1666.52 298.204 1666.52 298.204C1712.37 300.148 1752.79 307.48 1753.94 316.188C1754.06 317.131 1753.79 318.264 1753.16 319.538L1753.17 319.549Z" fill="url(#paint17_radial_185_67605)"/>
    <path style="mix-blend-mode:multiply" opacity="0.5" d="M1545.99 289.717C1545.99 289.717 1549.86 275.432 1545.99 259.807C1542.12 244.186 1527.66 231.907 1527.66 231.907C1527.66 231.907 1542.78 244.186 1555.27 246.789C1567.76 249.391 1590.84 225.032 1590.84 225.032L1590.11 239.63C1590.11 239.63 1572.2 267.161 1569.65 289.522L1546.72 293.821L1545.99 289.717V289.717Z" fill="url(#paint18_linear_185_67605)"/>
    <path style="mix-blend-mode:screen" opacity="0.5" d="M1414.48 139.614C1414.48 139.614 1402.27 149.32 1404.24 161.035C1406.22 172.751 1413.39 169.795 1426.32 158.091C1439.25 146.39 1437.12 123.901 1414.48 139.614V139.614Z" fill="url(#paint19_linear_185_67605)"/>
    <path style="mix-blend-mode:screen" opacity="0.5" d="M1661.3 180.068C1661.3 180.068 1634.67 190.032 1632.42 205.9C1630.75 217.663 1638.84 216.78 1654.48 208.966C1670.12 201.155 1687.38 170.988 1661.3 180.065V180.068Z" fill="url(#paint20_linear_185_67605)"/>
    <path style="mix-blend-mode:screen" opacity="0.5" d="M1579.16 81.5394C1579.16 81.5394 1553.08 81.3149 1527.64 94.4403C1502.2 107.569 1512.97 122.171 1543.76 121.004C1574.55 119.837 1622.4 84.2042 1579.16 81.5394V81.5394Z" fill="url(#paint21_linear_185_67605)"/>
    <path style="mix-blend-mode:screen" opacity="0.5" d="M1371.6 342.745C1371.6 342.745 1427.08 325.224 1481.65 326.851C1536.21 328.478 1562.99 342.745 1562.99 342.745C1562.99 342.745 1514.33 347.824 1463.06 347.824C1411.78 347.824 1373.9 347.301 1371.6 342.745Z" fill="url(#paint22_linear_185_67605)"/>
    <path d="M1516.34 282.127C1516.34 282.127 1501.03 297.888 1450.09 306.674C1450.09 306.674 1490.2 303.085 1512.71 291.373L1515.81 286.68L1516.34 282.127Z" fill="url(#paint23_linear_185_67605)"/>
    <path d="M1666.53 298.215C1666.53 298.215 1663.4 300.166 1642.7 305.047C1642.7 305.047 1679.84 296.158 1728.85 305.047C1728.85 305.047 1711.73 298.539 1666.53 298.215Z" fill="url(#paint24_linear_185_67605)"/>
    <path d="M1186.81 330.433C1186.81 330.433 1201.96 308.455 1220.22 304.601C1238.47 300.748 1245.73 305.842 1245.73 305.842C1245.73 305.842 1232.39 302.099 1222.7 307.067C1214.4 311.319 1214.78 327.657 1186.82 330.433H1186.81Z" fill="#FFE58B"/>
    <path d="M1240.67 283.191C1240.67 283.191 1238.85 295.665 1254.24 291.966C1281.03 285.532 1311.74 225.286 1311.74 225.286C1311.74 225.286 1247.8 249.604 1240.67 283.191H1240.67Z" fill="#FFE58B"/>
    <path d="M1329.26 210.202C1329.26 210.202 1336.74 204.493 1356.47 184.967C1376.19 165.441 1380.27 150.472 1380.27 150.472C1380.27 150.472 1345.77 183.69 1329.26 210.202V210.202Z" fill="#FFE58B"/>
    <path d="M1080.57 330.676C1080.57 330.676 1079.96 333.988 1084.4 330.911C1088.84 327.834 1107.67 305.934 1131.65 302.971C1131.65 302.971 1101.89 300.07 1080.57 330.672V330.676Z" fill="#FFE58B"/>
    <path d="M985.604 339.999C985.604 339.999 1022.55 321.86 1038.07 336.075C1038.07 336.075 1020.91 315.058 985.604 339.999V339.999Z" fill="#FFE58B"/>
    <path d="M1343.69 246.431L1354.28 222.05C1354.28 222.05 1353.98 218.108 1355.96 210.202C1357.93 202.292 1371.61 186.274 1371.61 186.274C1371.61 186.274 1344.07 212.863 1343.7 246.431H1343.69Z" fill="#FFE58B"/>
    <path d="M1418.14 115.019C1418.14 115.019 1417.93 100.024 1433.7 96.4426C1449.48 92.8613 1469.27 85.3637 1472.69 76.2576C1476.11 67.1515 1460.66 70.5783 1460.66 70.5783C1460.66 70.5783 1402.6 94.8304 1419.14 116.628L1418.14 115.015V115.019Z" fill="#FFFFA2"/>
    <path d="M1505.97 106.844C1505.97 106.844 1507.54 111.107 1508.25 118.258C1508.25 118.258 1525.08 89.7437 1570.77 81.5394C1570.77 81.5394 1533.86 83.0743 1505.97 106.844H1505.97Z" fill="#FFE58B"/>
    <path d="M1477.75 62.2709C1477.59 62.396 1475.54 63.6475 1475.37 64.2879C1475.26 64.6965 1475.69 65.4142 1475.92 65.6792C1477.31 67.2141 1479.52 65.8853 1480.99 65.278C1483.36 64.2953 1485.33 62.5433 1487.34 60.9863C1490.15 58.8073 1492.97 56.6063 1495.52 54.1218C1496.05 53.5991 1497.16 52.7379 1496.78 51.8508C1496.24 50.5846 1493.76 50.5515 1492.68 50.5405C1489.06 50.5073 1485.44 50.6178 1481.99 51.7772C1480.92 52.1379 1480.17 52.6311 1479.39 53.4703C1478.44 54.4972 1477.36 55.5499 1476.62 56.7388C1475.7 58.2221 1475.02 60.2759 1474.53 61.9507C1474.34 62.5911 1474.44 62.9592 1475.11 63.18C1475.89 63.434 1476.36 62.7715 1477.75 62.2709H1477.75Z" fill="#FFFFA2"/>
    <path d="M1470.19 53.4814C1469.72 53.9304 1469.59 54.4016 1469.8 54.9021C1470.47 54.6334 1471.36 53.9083 1471.95 53.4703C1472.25 53.2421 1473.1 52.7195 1472.78 52.2336C1472.63 52.0201 1471.58 52.1379 1471.37 52.2042C1470.63 52.4434 1469.69 53.2348 1469.2 53.8053L1470.19 53.4814V53.4814Z" fill="#FFFFA2"/>
    <path d="M1503.06 47.2978C1503.92 46.6389 1504.7 45.5053 1505.7 46.2377C1505.97 46.4365 1506.18 46.6536 1506.43 46.8929C1507 47.445 1507.12 47.5812 1506.61 48.2584C1505.9 49.1933 1504.99 49.9405 1503.79 49.9148C1502.55 49.889 1502.07 49.0792 1502.07 47.9493L1503.06 47.2978H1503.06Z" fill="#FFFFA2"/>
    <path d="M1475.78 69.7538C1476.13 68.6238 1476.28 68.3588 1477.43 68.1527C1477.89 68.068 1478.4 68.0459 1478.67 68.5171C1479.04 69.1612 1478.27 70.4274 1478.09 71.0457C1477.79 72.0616 1476.98 72.4775 1475.94 72.6579C1474.84 72.8493 1474.24 71.4432 1475.13 70.7292L1475.78 69.7538H1475.78Z" fill="#FFFFA2"/>
    <path d="M1413.33 100.999C1412.6 101.879 1411.68 102.692 1411.43 103.845C1411.34 104.26 1411.16 105.217 1411.41 105.597C1412.02 106.513 1413.89 105.457 1414.49 105.044C1415.95 104.025 1417.41 102.479 1418.11 100.852C1418.85 99.1185 1420.02 96.818 1419.6 94.8636C1419.31 93.5385 1417.65 93.7189 1416.55 93.9103C1414.93 94.1937 1414 95.2464 1412.99 96.4463C1411.61 98.0916 1412.68 100.447 1412.68 102.306L1413.33 101.003L1413.33 100.999Z" fill="#FFFFA2"/>
    <path d="M1408.4 103.278C1408.2 103.432 1405.78 104.746 1406.47 105.582C1406.91 106.108 1407.25 105.714 1407.74 105.471C1408.7 104.989 1408.98 104.43 1408.67 103.333C1408.58 103.314 1408.48 103.296 1408.39 103.278H1408.4Z" fill="#FFFFA2"/>
    <path d="M1369.62 153.398C1368.3 153.99 1366.56 154.465 1365.47 155.466C1364.88 156.011 1364.41 156.979 1363.87 157.631C1363.14 158.51 1361.5 160.461 1361.73 161.757C1363.14 162.692 1365.66 160.564 1366.83 159.902C1368.83 158.775 1370.89 157.609 1372.52 155.989C1373.27 155.246 1374.75 154.222 1373.74 153.262C1372.67 152.242 1370.15 152.629 1368.95 153.074L1369.61 153.398H1369.62Z" fill="#FFFFA2"/>
    <path d="M1356.79 166.417C1356.48 167.109 1356.46 167.778 1356.75 168.426C1357.43 168.592 1359.17 167.355 1359.38 166.744C1359.58 166.188 1359.34 165.846 1358.78 165.739C1358.02 165.599 1357.58 166.277 1357.13 166.744L1356.8 166.42L1356.79 166.417Z" fill="#FFFFA2"/>
    <path d="M1241.68 267.548C1240.86 268.07 1240.38 268.63 1239.49 268.49C1238.91 268.398 1238.02 267.765 1237.7 267.279C1236.38 265.225 1237.56 261.57 1238.8 259.778C1240.55 257.227 1243.53 255.32 1246.12 253.69C1247.52 252.803 1249.28 251.603 1251.01 252.317C1252.8 253.049 1252.88 255.063 1252.72 256.679C1252.5 258.769 1251.83 260.768 1250.5 262.424C1249.76 263.344 1248.88 263.779 1247.88 264.382C1247.11 264.85 1246.4 265.413 1245.63 265.899C1244.29 266.76 1242.89 266.988 1241.68 267.548V267.548Z" fill="#FFFFA2"/>
    <path d="M1238.72 271.21C1238.59 271.556 1237.29 273.82 1238.46 273.93C1239.08 273.989 1241.22 272.708 1241.07 272.071C1240.95 271.563 1240.41 271.696 1239.97 271.7C1238.96 271.703 1238.72 271.7 1237.98 272.432L1238.72 271.21H1238.72Z" fill="#FFFFA2"/>
    <path d="M1257.95 253.392C1258.54 252.659 1259.47 251.739 1259.42 253.149C1259.4 253.767 1259.35 254.098 1258.85 254.522C1258.42 254.875 1257.79 255.39 1257.2 255.357C1256.69 255.328 1256.07 254.864 1256.71 254.371L1257.95 253.395V253.392Z" fill="#FFFFA2"/>
    <path d="M1130.25 298.547C1131.48 299.29 1132.34 299.879 1133.72 300.122C1135.01 300.35 1136.45 300.38 1137.76 300.218C1138.79 300.089 1140.35 299.739 1140.58 298.528C1140.77 297.509 1140.15 296.647 1139.67 295.838C1139.39 295.378 1139.33 294.862 1138.97 294.446C1138.57 293.964 1138 293.703 1137.48 293.368C1136.65 292.838 1136.01 292.33 1135.04 292.087C1133.22 291.627 1131.44 291.671 1129.61 291.899C1128.57 292.028 1127.54 291.98 1126.91 292.923C1126.25 293.916 1126.67 295.477 1127.03 296.548C1127.48 297.906 1128.51 299.286 1130.25 298.55V298.547Z" fill="#FFFFA2"/>
    <path d="M1144.06 302.698C1144.81 301.767 1144.92 301.484 1145.91 301.962C1146.15 302.08 1147.07 302.356 1147.05 302.698C1147.03 302.997 1146.28 303.309 1146.03 303.383C1145.4 303.563 1144.91 303.085 1144.3 303.188L1144.06 302.698Z" fill="#FFFFA2"/>
    <defs>
        <linearGradient id="paint0_linear_185_67605" x1="1432.51" y1="463.741" x2="1292.5" y2="146.161" gradientUnits="userSpaceOnUse">
            <stop offset="0.27" stop-color="#FC6A7C"/>
            <stop offset="1" stop-color="#FFEFA4"/>
        </linearGradient>
        <linearGradient id="paint1_linear_185_67605" x1="976.08" y1="347.828" x2="1089.44" y2="347.828" gradientUnits="userSpaceOnUse">
            <stop stop-color="#E8626A"/>
            <stop offset="1" stop-color="#D14581"/>
        </linearGradient>
        <linearGradient id="paint2_linear_185_67605" x1="1582.59" y1="303.582" x2="1582.59" y2="88.6984" gradientUnits="userSpaceOnUse">
            <stop stop-color="#D698C7"/>
            <stop offset="1" stop-color="#FFDBFF"/>
        </linearGradient>
        <linearGradient id="paint3_linear_185_67605" x1="1363.41" y1="308.956" x2="1363.41" y2="158.091" gradientUnits="userSpaceOnUse">
            <stop stop-color="#D698C7"/>
            <stop offset="1" stop-color="#FFDBFF"/>
        </linearGradient>
        <linearGradient id="paint4_linear_185_67605" x1="1113.81" y1="346.304" x2="1113.81" y2="302.798" gradientUnits="userSpaceOnUse">
            <stop stop-color="#D698C7"/>
            <stop offset="1" stop-color="#FFDBFF"/>
        </linearGradient>
        <linearGradient id="paint5_linear_185_67605" x1="1417.58" y1="289.717" x2="1417.58" y2="238.33" gradientUnits="userSpaceOnUse">
            <stop stop-color="#D698C7"/>
            <stop offset="1" stop-color="#FFDBFF"/>
        </linearGradient>
        <linearGradient id="paint6_linear_185_67605" x1="1463.06" y1="270.076" x2="1463.06" y2="193.742" gradientUnits="userSpaceOnUse">
            <stop/>
            <stop offset="1" stop-color="#FFCF00"/>
        </linearGradient>
        <linearGradient id="paint7_linear_185_67605" x1="1492.53" y1="375.801" x2="1452.46" y2="284.906" gradientUnits="userSpaceOnUse">
            <stop offset="0.47" stop-color="#FC6A7C"/>
            <stop offset="1" stop-color="#FFE286"/>
        </linearGradient>
        <linearGradient id="paint8_linear_185_67605" x1="1605.69" y1="276.691" x2="1605.69" y2="232.714" gradientUnits="userSpaceOnUse">
            <stop/>
            <stop offset="1" stop-color="#FFCF00"/>
        </linearGradient>
        <linearGradient id="paint9_linear_185_67605" x1="1443.36" y1="166.203" x2="1443.36" y2="98.6105" gradientUnits="userSpaceOnUse">
            <stop/>
            <stop offset="1" stop-color="#FFCF00"/>
        </linearGradient>
        <linearGradient id="paint10_linear_185_67605" x1="1559.49" y1="115.019" x2="1559.49" y2="81.8523" gradientUnits="userSpaceOnUse">
            <stop/>
            <stop offset="1" stop-color="#FFCF00"/>
        </linearGradient>
        <linearGradient id="paint11_linear_185_67605" x1="1371.6" y1="250.37" x2="1371.6" y2="175.328" gradientUnits="userSpaceOnUse">
            <stop/>
            <stop offset="1" stop-color="#FFCF00"/>
        </linearGradient>
        <linearGradient id="paint12_linear_185_67605" x1="1370.22" y1="194.427" x2="1370.22" y2="146.979" gradientUnits="userSpaceOnUse">
            <stop/>
            <stop offset="1" stop-color="#FFCF00"/>
        </linearGradient>
        <linearGradient id="paint13_linear_185_67605" x1="1290.26" y1="281.626" x2="1290.26" y2="222.05" gradientUnits="userSpaceOnUse">
            <stop/>
            <stop offset="1" stop-color="#FFCF00"/>
        </linearGradient>
        <linearGradient id="paint14_linear_185_67605" x1="1214" y1="330.915" x2="1214" y2="303.722" gradientUnits="userSpaceOnUse">
            <stop/>
            <stop offset="1" stop-color="#FFCF00"/>
        </linearGradient>
        <linearGradient id="paint15_linear_185_67605" x1="1354.28" y1="308.956" x2="1354.28" y2="190.028" gradientUnits="userSpaceOnUse">
            <stop stop-color="#D698C7"/>
            <stop offset="1" stop-color="#FFDBFF"/>
        </linearGradient>
        <linearGradient id="paint16_linear_185_67605" x1="1107.71" y1="335.442" x2="1107.71" y2="302.975" gradientUnits="userSpaceOnUse">
            <stop/>
            <stop offset="1" stop-color="#FFCF00"/>
        </linearGradient>
        <radialGradient id="paint17_radial_185_67605" cx="0" cy="0" r="1" gradientUnits="userSpaceOnUse" gradientTransform="translate(1465.47 316.781) scale(239.151 101.825)">
            <stop stop-color="#D7586A"/>
            <stop offset="1" stop-color="#A64A8E"/>
        </radialGradient>
        <linearGradient id="paint18_linear_185_67605" x1="1559.25" y1="293.821" x2="1559.25" y2="225.032" gradientUnits="userSpaceOnUse">
            <stop stop-color="#D698C7"/>
            <stop offset="1" stop-color="#FFDBFF"/>
        </linearGradient>
        <linearGradient id="paint19_linear_185_67605" x1="1419.14" y1="168.481" x2="1419.14" y2="134.221" gradientUnits="userSpaceOnUse">
            <stop/>
            <stop offset="1" stop-color="#FFCF00"/>
        </linearGradient>
        <linearGradient id="paint20_linear_185_67605" x1="1647.08" y1="217.692" x2="1658.9" y2="175.109" gradientUnits="userSpaceOnUse">
            <stop/>
            <stop offset="1" stop-color="#FFCF00"/>
        </linearGradient>
        <linearGradient id="paint21_linear_185_67605" x1="1516.58" y1="117.84" x2="1593.68" y2="83.1238" gradientUnits="userSpaceOnUse">
            <stop/>
            <stop offset="1" stop-color="#FFCF00"/>
        </linearGradient>
        <linearGradient id="paint22_linear_185_67605" x1="1371.6" y1="337.286" x2="1562.99" y2="337.286" gradientUnits="userSpaceOnUse">
            <stop/>
            <stop offset="1" stop-color="#FF3345"/>
        </linearGradient>
        <linearGradient id="paint23_linear_185_67605" x1="1487.02" y1="302.857" x2="1482.42" y2="292.421" gradientUnits="userSpaceOnUse">
            <stop offset="0.47" stop-color="#FC6A7C"/>
            <stop offset="1" stop-color="#E47D70"/>
        </linearGradient>
        <linearGradient id="paint24_linear_185_67605" x1="1692.9" y1="320.896" x2="1678.88" y2="289.095" gradientUnits="userSpaceOnUse">
            <stop offset="0.47" stop-color="#FC6A7C"/>
            <stop offset="1" stop-color="#E47D70"/>
        </linearGradient>
    </defs>
</svg>