<svg xmlns="http://www.w3.org/2000/svg" width="1920" height="940" viewBox="0 0 1920 940" fill="none"><g clip-path="url(#clip0_185_56218)">
        <path fill-rule="evenodd" clip-rule="evenodd" d="M1537.39 856.526C1537.39 856.526 1480.8 817.991 1459.93 817.991C1445.67 817.991 1425.35 818.016 1412.96 822.113C1407.22 824.014 1395.38 839.921 1391.86 841.118C1382.65 844.259 1366.44 839.539 1354.06 846.727C1351.48 848.227 1353.53 857.087 1350.89 859.056C1349.74 859.914 1349.84 860.129 1348.99 861.006C1344.12 866.072 1361.76 886.613 1364.96 891.118C1368.59 896.215 1358.73 884.99 1368.98 885.614C1389.86 886.879 1537.39 856.532 1537.39 856.532L1537.39 856.526Z" fill="url(#paint0_linear_185_56218)"/>
        <path fill-rule="evenodd" clip-rule="evenodd" d="M1326.47 908.71L1329.64 924.994H1488.82C1488.82 924.994 1525 906.106 1548.67 893.463C1572.33 880.819 1610.71 847.431 1610.71 847.431C1610.71 847.431 1426.04 860.315 1405.16 866.633C1384.28 872.952 1371.25 872.514 1362.9 867.46C1354.55 862.4 1350.88 859.05 1350.88 859.05C1350.88 859.05 1346.5 863.338 1344.53 867.509C1340.23 876.58 1333.21 895.184 1331.26 898.732C1328.47 903.792 1326.47 908.71 1326.47 908.71H1326.47Z" fill="#312130"/>
        <path fill-rule="evenodd" clip-rule="evenodd" d="M1406.3 866.121C1406.3 866.121 1421.99 882.985 1441.5 887.2C1452.64 889.606 1464.73 878.493 1476.61 881.418C1499.53 887.064 1519.99 893.111 1523.28 897.331C1528.53 904.063 1501.03 910.617 1473.15 910.586C1466.31 910.586 1428.12 923.359 1422.18 923.334C1415.53 923.309 1461.71 900.429 1457.71 900.583C1453.16 900.762 1426.21 905.328 1423.67 905.674C1413.89 907.001 1414.9 913.739 1413.4 911.709C1411.52 909.148 1398.22 905.335 1388.37 901.922C1378.51 898.51 1363.69 884.966 1366.5 885.743C1390.67 892.407 1391.94 899.053 1403.21 899.479C1414.48 899.905 1435.44 890.606 1437.79 890.606C1440.14 890.606 1389.71 879.32 1375.24 871.169C1365.8 871.637 1362.44 863.017 1357.07 871.742C1351.25 868.213 1340.49 872.285 1343.27 868.478C1339.11 868.139 1355.97 868.861 1350.88 859.05C1352.9 859.043 1351.53 847.122 1354.06 846.721C1355.94 852.867 1383.9 862.172 1394.64 861.407C1411.07 860.234 1429.57 862.332 1434.94 860.401C1436.27 859.92 1499.47 854.718 1490.67 855.452C1488.27 855.65 1408.22 852.299 1410.57 851.472C1393.99 848.893 1384.72 844.031 1391.85 841.118C1397.93 838.638 1400.31 831.899 1407.73 825.71C1400.34 835.559 1442.76 834.078 1448.42 833.3C1458.18 831.955 1466.01 831.079 1468.14 830.906C1494.43 828.777 1514.33 855.428 1514.33 855.428C1514.33 855.428 1443.86 865.263 1428.84 865.689C1413.81 866.115 1406.3 866.115 1406.3 866.115V866.121Z" fill="#3E2B3D"/>
        <path fill-rule="evenodd" clip-rule="evenodd" d="M1587.6 780.471C1587.6 780.471 1573.58 775.029 1567.89 775.029C1562.2 775.029 1554.01 773.992 1546.11 777.583C1538.46 781.064 1538.28 774.171 1529.59 778.207C1525.41 782.224 1522.9 786.975 1524.84 788.659C1514.46 790.165 1509.12 798.39 1497.15 800.735C1490.25 807.51 1486.49 818.346 1486.49 818.346C1486.49 818.346 1512.35 830.064 1511.76 833.013C1511.17 835.969 1480.86 833.297 1472.34 838.233C1470.85 839.097 1461.21 846.23 1460.62 848.594C1460.03 850.957 1458.56 869.907 1458.56 869.907L1634.61 853.468C1634.61 853.468 1614.24 811.762 1604.01 798.717C1603.87 798.538 1606.45 788.875 1606.31 788.703C1601.88 783.297 1595.83 779.725 1587.6 780.471Z" fill="url(#paint1_linear_185_56218)"/>
        <path fill-rule="evenodd" clip-rule="evenodd" d="M1579.14 777.485C1579.96 777.485 1592.67 788.604 1603.62 797.23C1613.03 795.972 1613.87 800.581 1617.04 802.167C1616.81 805.258 1614.75 808.041 1617.04 808.775C1621.42 806.437 1633.65 807.06 1634.82 808.775C1636.54 811.299 1634.5 842.793 1634.5 842.793C1634.5 842.793 1631.74 834.025 1599.23 828.823C1591.86 829.712 1559.7 832.933 1553.8 830.273C1547.91 827.614 1528.91 841.676 1522.73 843.151C1493.78 836.993 1484.36 824.473 1484.36 824.473C1484.36 824.473 1485.08 815.847 1492.98 807.844C1493.84 806.974 1499.08 810.262 1499.92 809.429C1504.78 804.61 1518.89 796.798 1520.62 796.07C1518.01 800.439 1508.26 810.645 1508.93 812.564C1509.21 813.372 1508.81 814.804 1517.16 811.626C1517.79 810.571 1529.64 807.726 1535.94 806.906C1547.28 805.419 1556.64 806.548 1563.83 808.633C1558.29 811.114 1547.02 818.87 1544.65 823.893C1543.66 820.08 1584.3 805.764 1596.08 809.442C1596.64 809.719 1583.66 804.08 1580.85 804.567C1575.54 803.388 1574.72 807.313 1570.6 804.653C1566.47 801.994 1543.46 801.013 1543.46 801.013C1543.46 801.013 1546.73 787.209 1569.31 785.037C1587.76 783.266 1583.22 779.774 1579.14 777.479V777.485Z" fill="url(#paint2_linear_185_56218)"/>
        <path fill-rule="evenodd" clip-rule="evenodd" d="M1460.97 854.567C1459.79 858.109 1447 868.87 1447 868.87L1503.37 883.994H1557.96C1557.96 883.994 1615.26 860.731 1604.64 861.472C1602.31 861.632 1624.09 850.371 1634.5 842.787C1630.04 836.259 1641.07 824.288 1637.42 816.532C1636.75 815.119 1635.9 809.411 1634.81 808.769C1627.06 814.212 1621.9 811.034 1620.13 810.312C1618.03 809.454 1619.42 802.697 1617.03 802.161C1612.16 801.068 1602.74 802.722 1595.51 804.758C1593.45 804.499 1595.18 801.568 1604.61 798.094C1607.26 795.305 1606.55 791.344 1606.3 788.697C1596.9 790.677 1591.73 781.162 1580.35 777.806C1587.32 781.952 1582.04 789.758 1573.8 790.153C1573.08 791.473 1581.17 797.996 1580.21 799.217C1564.64 794.886 1544.7 799.791 1543.45 801.019C1560.52 800.007 1572.22 805.406 1572.06 805.456C1594.21 805.011 1608.29 812.971 1606.97 815.205C1601.35 814.181 1582.98 813.878 1584.39 817.235C1572.83 836.882 1525.05 849.822 1513.86 856.597C1512.77 849.069 1552.72 814.693 1551.75 814.779C1544.97 816.445 1537.44 817.828 1528.84 818.525C1525.93 818.759 1525.38 816.766 1522.22 816.822C1500.64 819.561 1504.44 815.341 1503.57 812.459C1499.28 814.582 1493.56 820.629 1488.77 820.24C1481.75 825.942 1517.73 842.102 1511.33 844.169C1502.39 842.318 1477.57 845.225 1473.46 838.894C1463.41 841.701 1463.28 850.488 1460.95 854.579L1460.97 854.567Z" fill="url(#paint3_linear_185_56218)"/>
        <path fill-rule="evenodd" clip-rule="evenodd" d="M1548.49 782.076C1548.49 782.076 1529.7 784.976 1522.92 787.339C1516.13 789.702 1514.71 788.561 1509.11 794.762C1501.17 799.995 1495.84 795.441 1491.28 808.782C1501.64 793.472 1506.76 802.981 1512.37 797.73C1515.53 796.731 1529.51 786.272 1529.23 788.987C1525.25 792.146 1519.66 795.811 1519.23 801.525C1525.16 796.842 1531.27 793.041 1537.23 789.98C1541.33 787.876 1556.24 784.636 1560.09 783.18C1563.48 781.89 1555.87 782.322 1558.91 781.477C1566.29 779.416 1572.4 778.54 1576.16 778.373C1579.99 777.491 1567.91 775.165 1567.91 775.165C1567.91 775.165 1541.1 774.258 1537.86 775.732C1533.02 777.213 1528.75 778.669 1528.75 778.669C1528.75 778.669 1539.06 778.54 1548.49 782.076H1548.49Z" fill="url(#paint4_linear_185_56218)"/>
        <path d="M428.432 504.863L411.637 502.672L403.239 501.576L399.04 501.025L394.854 500.361L378.122 497.713L369.756 496.39L361.422 494.857C350.327 492.755 339.193 490.817 328.174 488.328L311.607 484.775C306.084 483.591 300.613 482.172 295.116 480.88C251.171 470.374 207.783 457.575 165.023 442.971C122.294 428.272 80.1987 411.762 38.7302 393.839C28.3694 389.337 17.9832 384.903 7.74278 380.135L-7.67176 373.105L-15.3727 369.578L-23.0166 365.923C-33.1811 361.003 -43.4153 356.221 -53.5227 351.18L-83.8262 336L-53.4404 350.99C-43.3013 355.962 -33.0355 360.68 -22.8393 365.531L-15.1891 369.16L-7.48178 372.668L7.94544 379.66C18.1922 384.403 28.591 388.817 38.9582 393.288C80.4584 411.116 122.573 427.518 165.308 442.122C208.011 456.815 251.348 469.696 295.249 480.298C300.739 481.602 306.205 483.027 311.721 484.224L328.275 487.809C339.282 490.329 350.409 492.273 361.498 494.42L369.82 496.01L378.173 497.39L394.886 500.145L399.066 500.835L403.258 501.412L411.649 502.564L428.432 504.863Z" fill="#7A5263"/>
        <path d="M429.515 566.173C414.487 564.698 399.439 563.412 384.424 561.784L361.923 559.188C354.418 558.333 346.92 557.484 339.44 556.414L316.996 553.349C313.26 552.823 309.511 552.355 305.78 551.785L294.59 550.037C279.669 547.687 264.73 545.477 249.873 542.754C190.349 532.456 131.224 519.866 72.5865 505.364C13.9682 490.766 -44.1689 474.256 -101.806 456.169C-130.64 447.176 -159.303 437.651 -187.884 427.886C-202.127 422.87 -216.414 417.981 -230.619 412.857L-273.17 397.31L-230.543 412.648C-216.313 417.702 -202 422.522 -187.738 427.468C-159.145 437.176 -130.469 446.657 -101.622 455.599C-43.9662 473.585 14.1835 489.993 72.8018 504.496C131.401 519.094 190.482 531.779 249.974 542.171C264.819 544.92 279.758 547.155 294.666 549.53L305.85 551.297C309.58 551.873 313.323 552.348 317.066 552.88L339.497 555.99C346.964 557.098 354.462 557.978 361.961 558.871L384.449 561.575C399.452 563.273 414.493 564.634 429.515 566.179V566.173Z" fill="#7A5263"/>
        <path d="M441.313 546.921C438.33 546.921 435.259 545.312 433.099 542.564C430.921 539.796 429.888 536.364 429.167 533.368C428.996 532.659 428.837 531.943 428.673 531.228C428.141 528.853 427.583 526.395 426.64 524.16L428.236 523.482C429.243 525.87 429.812 528.397 430.363 530.848C430.522 531.557 430.68 532.26 430.851 532.963C431.529 535.775 432.485 538.986 434.461 541.493C436.481 544.065 439.401 545.47 442.067 545.148C444.353 544.869 446.557 543.431 449.014 540.607C452.383 536.744 455.03 532.14 456.671 527.288L458.317 527.846C456.601 532.912 453.84 537.719 450.325 541.747C448.59 543.735 445.873 546.433 442.282 546.87C441.965 546.908 441.636 546.927 441.32 546.927L441.313 546.921Z" fill="#7A5263"/>
        <path d="M475.594 692.016C469.039 687.197 463.694 679.882 460.122 670.864C456.702 662.207 455.252 653.087 454.283 645.304C451.87 625.849 451.649 606.09 453.612 586.578L455.341 586.755C453.384 606.134 453.612 625.76 456.006 645.089C456.956 652.758 458.381 661.745 461.731 670.224C465.176 678.945 470.325 685.994 476.62 690.617L475.587 692.01L475.594 692.016Z" fill="#7A5263"/>
        <path d="M509.475 631.967C508.088 631.967 506.644 631.162 505.504 629.712C504.358 628.268 503.611 626.406 503.003 624.779C499.501 615.387 497.601 604.855 497.512 594.317L499.247 594.304C499.336 604.646 501.198 614.975 504.631 624.171C505.194 625.678 505.878 627.388 506.872 628.636C507.797 629.807 508.924 630.39 509.83 630.193C511.337 629.883 512.654 627.793 513.737 623.981C516.15 615.52 517.404 606.242 517.36 597.167H519.095C519.139 606.4 517.86 615.837 515.403 624.456C514.573 627.356 513.136 631.283 510.178 631.897C509.944 631.941 509.71 631.967 509.475 631.967Z" fill="#7A5263"/>
        <path d="M436.608 517.859H427.748L426.342 499.265H438.014L436.608 517.859Z" fill="#FFE8CC"/>
        <path d="M522.211 535.097H513.351L511.945 516.497H523.617L522.211 535.097Z" fill="#FFE8CC"/>
        <path d="M437.786 576.281H428.926L427.52 557.681H439.192L437.786 576.281Z" fill="#FFE8CC"/>
        <path d="M523.389 593.513H514.529L513.123 574.919H524.801L523.389 593.513Z" fill="#FFE8CC"/>
        <path d="M419.698 572.791L421.617 580.156L531.729 601.125H524.351L417.488 582.956L414.828 574.26L419.698 572.791Z" fill="#6D3B28"/>
        <path d="M424.942 514.629H419.699L422.321 525.256L524.352 544.692L527.303 542.969L424.942 514.629Z" fill="#6D3B28"/>
        <path d="M479.482 969.82H470.623L471.535 495.775H478.564L479.482 969.82Z" fill="#6D3B28"/>
        <path d="M483.909 969.82H475.049L475.967 495.775H482.991L483.909 969.82Z" fill="#A4613F"/>
        <path d="M419.699 572.791L421.618 580.156L531.73 601.125L532.616 591.676L419.699 572.791Z" fill="#A4613F"/>
        <path d="M424.942 514.629L427.228 523.9L527.303 542.969L529.665 535.813L424.942 514.629Z" fill="#A4613F"/>
        <path d="M489.222 655.355L488.038 711.535H508.411L511.945 709.514L493.947 708.362L494.536 654.405L489.222 655.355Z" fill="#704356"/>
        <path d="M494.536 654.405L493.947 708.362L511.945 709.514L513.123 655.355L494.536 654.405Z" fill="#A07281"/>
        <path d="M510.355 706.012L496.537 705.189V657.603L510.355 658.312V706.012ZM497.404 704.366L509.488 705.088V659.135L497.404 658.515V704.366Z" fill="#704356"/>
        <path d="M489.811 665.183H483.32L483.333 671.827H489.811V665.183Z" fill="#704356"/>
        <path d="M489.811 693.327H483.32L483.333 699.971H489.811V693.327Z" fill="#704356"/>
        <path fill-rule="evenodd" clip-rule="evenodd" d="M587.924 831.407C587.924 831.407 558.897 815.569 540.425 833.696L539.757 855.423C539.757 855.423 565.92 848.792 587.593 856.073L587.924 831.407Z" fill="url(#paint5_linear_185_56218)"/>
        <path fill-rule="evenodd" clip-rule="evenodd" d="M587.593 856.073C587.593 856.073 566.912 872.634 539.757 855.423C539.757 855.423 564.027 837.282 587.593 856.073Z" fill="url(#paint6_linear_185_56218)"/>
        <g style="mix-blend-mode:multiply" opacity="0.3">
            <path d="M579.342 827.74L578.637 827.726L578.19 850.198H572.391L572.384 850.539L560.038 1351.7H563.555V1381.43H564.26V1351H560.761L573.078 850.899H578.88L579.342 827.74Z" fill="#60157A"/>
        </g>
        <path fill-rule="evenodd" clip-rule="evenodd" d="M540.567 1351.36L544.982 853.581C544.982 853.581 565.15 842.91 583.389 855.481L568.605 1351.36H540.567Z" fill="url(#paint7_linear_185_56218)"/>
        <g clip-path="url(#clip1_185_56218)">
            <path fill-rule="evenodd" clip-rule="evenodd" d="M1111.73 818H1168.81C1168.81 818 1194.68 818.601 1193.79 844.822L1200.93 1119.93C1200.93 1119.93 1200.93 1138.01 1218.77 1142.3L2284.7 1138.92C2284.7 1138.92 2291.54 1146.01 2284.7 1156.39L1214.31 1158.18C1214.31 1158.18 1186.06 1155.33 1184.27 1120.79L1176.19 845.49C1176.19 845.49 1175.95 834.59 1163.46 834.396L1114.11 836.867C1114.11 836.867 1106.97 826.18 1111.73 818Z" fill="url(#paint8_linear_185_56218)"/>
            <path fill-rule="evenodd" clip-rule="evenodd" d="M1111.73 845.581H1140.57C1140.57 845.581 1166.43 846.182 1165.55 872.403L1172.68 1147.51C1172.68 1147.51 1172.68 1165.59 1190.52 1169.88L2284.7 1166.5C2284.7 1166.5 2294.59 1177.54 2284.7 1191.99L1186.06 1185.75C1186.06 1185.75 1157.81 1182.9 1156.03 1148.36L1147.95 873.065C1147.95 873.065 1147.7 862.165 1135.21 861.97L1114.1 864.448C1114.1 864.448 1106.96 853.76 1111.72 845.581H1111.73Z" fill="url(#paint9_linear_185_56218)"/>
            <path fill-rule="evenodd" clip-rule="evenodd" d="M1195.2 899.152L1189.63 904.757V937.335L1196.39 944.847L1195.2 899.152Z" fill="#462547"/>
            <path fill-rule="evenodd" clip-rule="evenodd" d="M1185.12 902.358V894.883L1188.41 892.751L1191.11 894.883L1186.36 902.358H1185.12Z" fill="#462547"/>
            <path fill-rule="evenodd" clip-rule="evenodd" d="M1160.21 938.228V931.39L1167.68 926.338V948.035L1164.84 945.199L1163.94 938.817L1160.21 938.228Z" fill="#462547"/>
            <path fill-rule="evenodd" clip-rule="evenodd" d="M1168.81 818H1111.73C1106.97 826.18 1114.11 836.867 1114.11 836.867L1163.46 834.396C1175.95 834.59 1176.19 845.49 1176.19 845.49L1184.27 1120.79C1186.06 1155.33 1214.31 1158.18 1214.31 1158.18L2284.7 1156.39C2291.54 1146.01 2284.7 1138.92 2284.7 1138.92L1218.77 1142.3C1200.93 1138.01 1200.93 1119.93 1200.93 1119.93L1195.2 899.152L1193.79 844.822C1194.68 818.601 1168.81 818 1168.81 818ZM1140.57 845.581H1111.73H1111.72C1106.96 853.76 1114.1 864.448 1114.1 864.448L1135.21 861.97C1147.7 862.165 1147.95 873.065 1147.95 873.065L1156.03 1148.36C1157.26 1172.2 1171.09 1180.94 1179.55 1184.07L1176.26 1186.09L1187.44 1185.76L1223.64 1185.97L1231.59 1186.09L1231.45 1186.01L2284.7 1191.99C2294.59 1177.54 2284.7 1166.5 2284.7 1166.5L1190.52 1169.88C1172.68 1165.59 1172.68 1147.51 1172.68 1147.51L1167.5 947.86L1167.68 948.035V926.338L1166.96 926.825L1165.55 872.403C1166.43 846.182 1140.57 845.581 1140.57 845.581Z" fill="url(#paint10_linear_185_56218)"/>
        </g>
    </g>
    <defs>
        <linearGradient id="paint0_linear_185_56218" x1="1537.39" y1="855.218" x2="1348.14" y2="855.218" gradientUnits="userSpaceOnUse">
            <stop stop-color="#747492"/>
            <stop offset="1" stop-color="#6F747E"/>
        </linearGradient>
        <linearGradient id="paint1_linear_185_56218" x1="1624.87" y1="766.014" x2="1540.33" y2="853.724" gradientUnits="userSpaceOnUse">
            <stop stop-color="#747492"/>
            <stop offset="1" stop-color="#6F747E"/>
        </linearGradient>
        <linearGradient id="paint2_linear_185_56218" x1="1581.49" y1="749.501" x2="1550.94" y2="865.719" gradientUnits="userSpaceOnUse">
            <stop stop-color="#6D6A74"/>
            <stop offset="1" stop-color="#4C626A"/>
        </linearGradient>
        <linearGradient id="paint3_linear_185_56218" x1="1532" y1="778" x2="1556.47" y2="875.009" gradientUnits="userSpaceOnUse">
            <stop stop-color="#4D454C"/>
            <stop offset="1" stop-color="#2F122E"/>
        </linearGradient>
        <linearGradient id="paint4_linear_185_56218" x1="1529.49" y1="781.144" x2="1536.23" y2="799.006" gradientUnits="userSpaceOnUse">
            <stop stop-color="#958D92"/>
            <stop offset="1" stop-color="#6F747E"/>
        </linearGradient>
        <linearGradient id="paint5_linear_185_56218" x1="540.046" y1="839.339" x2="588.561" y2="842.808" gradientUnits="userSpaceOnUse">
            <stop offset="0.02" stop-color="#434280"/>
            <stop offset="1" stop-color="#5778C7"/>
        </linearGradient>
        <linearGradient id="paint6_linear_185_56218" x1="539.905" y1="853.634" x2="587.543" y2="857.04" gradientUnits="userSpaceOnUse">
            <stop stop-color="#352E7A"/>
            <stop offset="0.98" stop-color="#573163"/>
        </linearGradient>
        <linearGradient id="paint7_linear_185_56218" x1="583.386" y1="1100.35" x2="540.564" y2="1100.35" gradientUnits="userSpaceOnUse">
            <stop stop-color="#716CA1"/>
            <stop offset="0.98" stop-color="#825780"/>
        </linearGradient>
        <linearGradient id="paint8_linear_185_56218" x1="1698.91" y1="1158.18" x2="1698.91" y2="818" gradientUnits="userSpaceOnUse">
            <stop offset="0.02" stop-color="#634A6A"/>
            <stop offset="0.13" stop-color="#69516F"/>
            <stop offset="0.36" stop-color="#705875"/>
            <stop offset="1" stop-color="#725A77"/>
        </linearGradient>
        <linearGradient id="paint9_linear_185_56218" x1="1699.59" y1="1192" x2="1699.59" y2="845.581" gradientUnits="userSpaceOnUse">
            <stop offset="0.02" stop-color="#634A6A"/>
            <stop offset="0.13" stop-color="#69516F"/>
            <stop offset="0.36" stop-color="#705875"/>
            <stop offset="1" stop-color="#725A77"/>
        </linearGradient>
        <linearGradient id="paint10_linear_185_56218" x1="1184" y1="1070.5" x2="1160.5" y2="818" gradientUnits="userSpaceOnUse">
            <stop stop-color="#180919"/>
            <stop offset="1" stop-color="#180919" stop-opacity="0"/>
        </linearGradient>
        <clipPath id="clip0_185_56218">
            <rect width="1920" height="940" fill="white"/>
        </clipPath>
        <clipPath id="clip1_185_56218">
            <rect width="1179" height="374" fill="white" transform="translate(1110.09 818)"/>
        </clipPath>
    </defs>
</svg>