<svg xmlns="http://www.w3.org/2000/svg" width="1920" height="940" viewBox="0 0 1920 940" fill="none">
    <g clip-path="url(#clip0_185_68770)">
        <path fill-rule="evenodd" clip-rule="evenodd" d="M996.08 757.283C996.08 757.283 987.658 753.072 981.149 754.599C978.094 754.985 971.199 751.544 971.199 751.544C971.199 751.544 966.575 745.957 962.75 744.045C954.947 741.636 956.048 733.779 951.796 733.779C947.543 733.779 946.704 732.788 940.154 733.063C935.048 731.329 933.645 727.503 926.833 727.503C920.021 727.503 889.443 734.756 889.443 734.756C889.443 734.756 877.526 742.545 865.609 747.733C853.692 752.921 848.586 751.2 839.228 752.054C829.871 752.921 829.018 747.733 823.059 745.999C817.1 744.265 817.1 746.866 811.142 738.21C805.183 729.554 806.036 733.022 800.931 729.554C795.825 726.1 801.784 730.421 794.119 721.765C786.454 713.109 784.761 716.577 779.656 713.109C774.55 709.641 777.949 707.054 772.844 705.32C767.739 703.586 760.073 700.999 753.275 703.586C746.477 706.173 750.743 702.926 742.321 700.242C732.634 702.678 730.253 712.022 720.895 709.421C711.537 706.82 717.592 705.816 704.822 700.614C692.96 691.435 680.712 685.022 673.061 684.155C665.396 683.288 666.469 687.114 654.566 691.449C642.648 695.784 643.502 696.637 634.144 699.238C624.786 701.839 599.424 707.247 584.273 700.229C578.81 697.697 577.379 697.174 569.727 692.963C557.81 692.963 554.136 695.784 536.26 691.449C525.306 688.793 521.453 683.949 512.164 681.197C506.357 680.729 495.568 685.366 488.77 686.701C472.6 684.1 465.1 675.541 455.743 672.94C446.798 674.316 441.871 673.807 435.073 674.674C428.261 675.541 422.22 669.802 417.968 668.935C413.716 668.068 393.294 653.358 389.028 648.156C384.776 642.968 380.523 638.633 376.257 638.633C371.991 638.633 368.592 639.5 364.34 641.234C360.088 642.968 347.317 642.968 342.212 646.422C337.107 649.89 341.359 649.89 334.547 652.477C327.735 655.078 321.777 649.876 319.231 653.344C316.671 656.812 309.02 660.266 299.648 662C290.291 663.734 291.144 662 286.038 667.188C280.933 672.376 263.91 681.899 257.952 686.233C251.993 690.554 247.906 700.875 247.906 700.875C247.906 700.875 243.612 697.655 238.507 697.655C233.401 697.655 222.2 685.366 222.2 685.366C222.2 685.366 219.489 683.632 218.98 681.376C217.604 680.344 216.613 681.087 214.549 682.766C210.296 686.233 206.044 683.632 206.044 683.632C206.044 683.632 202.645 678.444 197.526 678.444C192.407 678.444 189.875 677.578 183.063 677.578C176.251 677.578 180.503 678.444 171.999 673.256C167.306 670.394 165.944 667.105 162.902 664.16C160.439 661.766 155.829 659.399 155.829 659.399C155.829 659.399 149.871 661.133 148.164 664.587C146.458 668.055 141.352 664.587 136.247 664.587C131.141 664.587 131.995 670.642 126.889 673.243C121.784 675.844 116.678 670.642 114.119 674.977C111.559 679.298 110.72 680.165 107.307 681.032C103.908 681.899 88.5778 696.609 80.9265 699.21C75.8165 700.944 70.1422 702.1 63.9038 702.678C54.5461 703.545 51.1332 704.412 43.4819 707.866C35.8169 711.334 39.2297 709.6 25.606 711.334C11.9824 713.068 -7.58619 709.6 -7.58619 709.6C-7.58619 709.6 139.646 807.402 169.439 817.791C199.232 828.167 413.95 871.405 430.959 875.74C447.981 880.061 632.176 881.699 645.8 883.433C659.41 885.167 735.138 871.075 741.097 871.075C747.055 871.075 813.041 845.988 830.903 843.387C848.779 840.786 903.741 815.631 941.186 814.778C978.63 813.911 1055.87 782.672 1069.5 777.484C1083.11 772.296 1089.42 763.365 1089.42 763.365C1089.42 763.365 1047.2 749.866 1036.99 750.733C1026.78 751.599 1001.14 755.508 996.038 757.242L996.08 757.283Z" fill="url(#paint0_linear_185_68770)"/>
        <path fill-rule="evenodd" clip-rule="evenodd" d="M156.669 660.995C157.481 662.247 159.944 665.578 159.944 667.243C159.944 668.908 156.462 671.412 157.288 671.825C158.1 672.238 158.926 670.16 161.389 672.651C163.852 675.156 166.302 678.486 166.302 678.486C166.302 678.486 164.251 674.536 161.802 675.362C159.338 676.188 160.37 674.536 157.508 675.775C154.646 677.027 165.903 692.632 157.962 688.986C156.228 688.187 151.412 687.527 148.082 684.733C149.513 687.238 151.563 689.522 152.375 692.44C153.187 695.357 172.508 707.907 178.687 709.738C172.136 709.38 164.953 709.476 170.678 711.554C176.416 713.632 211.562 722.563 216.888 726.114C209.608 727.201 195.833 725.852 198.696 726.471C201.558 727.104 227.443 735.21 243.447 737.026C242.223 735.568 222.764 731.343 227.801 727.93C224.732 726.884 207.668 718.022 205.012 715.724C202.356 713.439 226.493 720.196 230.993 719.15C235.493 718.105 237.076 716.577 239.333 718.655C241.59 720.733 247.246 719.288 252.571 720.127C257.897 720.967 268.52 713.687 276.103 713.261C283.672 712.848 267.034 725.549 275.222 723.045C283.41 720.54 286.685 719.095 288.736 718.256C290.786 717.416 298.355 714.086 298.355 714.086C298.355 714.086 287.291 722.205 285.86 722.838C284.429 723.458 282.172 724.71 283.204 724.916C284.222 725.123 289.341 727.201 291.805 726.169C294.268 725.123 290.979 728.04 287.305 729.292C283.617 730.545 282.598 729.912 281.979 732.829C281.36 735.746 281.773 736.159 279.117 737.824C276.461 739.49 266.374 741.182 258.681 747.622C269.098 743.398 275.236 742.187 274.617 744.278C273.997 746.356 285.901 732.361 286.713 732.98C287.525 733.613 313.121 717.664 311.277 720.582C309.433 723.499 307.038 734.164 304.575 736.462C302.112 738.746 321.089 729.485 322.933 728.026C324.777 726.568 319.465 735.224 319.465 735.224C319.465 735.224 292.988 756.953 287.456 760.283C281.924 763.613 280.039 763.861 279.02 765.746C278.002 767.618 285.722 768.719 285.722 768.719C285.722 768.719 285.447 789.787 270.874 789.237C267.186 791.727 235.425 777.457 229.7 777.03C223.961 776.618 212.471 765.127 209.608 764.494C206.746 763.875 196.246 758.37 190.934 758.164C185.609 757.957 176.334 756.98 169.783 757.806C163.233 758.645 159.338 758.439 157.907 756.966C156.476 755.508 135.999 742.187 133.137 739.682C130.275 737.178 114.71 731.563 110.61 730.311C106.509 729.059 101.39 726.141 98.5272 723.857C95.6649 721.572 93.6145 718.449 93.6145 718.449C93.6145 718.449 97.5089 729.072 103.44 731.357C109.385 733.641 106.096 728.852 112.247 734.687C118.385 740.522 125.554 742.393 126.986 743.012C128.417 743.645 124.33 740.934 124.33 743.645C124.33 746.356 125.554 746.976 125.554 746.976C125.554 746.976 126.38 751.558 132.93 755.301C139.481 759.044 142.756 760.297 142.756 760.297C142.756 760.297 141.118 761.549 135.187 759.884C129.242 758.219 124.123 757.806 124.123 757.806C124.123 757.806 137.018 768.003 140.1 772.173C143.169 776.342 147.476 777.801 150.751 778.833C154.027 779.879 162.008 784.035 162.008 784.035L213.173 810.801C213.173 810.801 185.237 789.649 178.893 780.76C172.535 771.884 166.701 757.283 169.095 760.517C171.476 763.751 182.058 762.732 190.604 768.113C200.127 768.113 218.76 792.154 230.14 794.686C228.874 792.154 209.884 774.925 209.884 774.925C209.884 774.925 227.938 784.558 231.957 787.544C240.695 798.842 254.236 817.544 265.355 824.011C267.681 825.36 254.305 809.397 253.438 804.181C262.218 807.319 274.562 817.034 276.13 817.626C284.869 816.511 270.53 820.268 303.859 824.314C309.68 825.03 325.547 822.14 331.024 823.021C335.786 822.112 373.161 812.025 393.652 818.768C385.519 818.067 360.776 819.938 351.006 822.966C360.129 822.966 364.23 822.126 369.941 822.773C387.212 824.755 402.239 827.094 402.239 827.094C402.239 827.094 451.848 845.039 440.11 844.585C421.573 843.883 334.217 834.539 307.781 831.787C294.213 830.369 288.502 829.158 276.846 828.112C256.713 826.323 217.177 813.539 193.714 808.475C218.87 830.878 340.905 851.548 335.166 850.956C328.671 850.282 194.636 837.374 182.141 830.809C167.361 823.048 160.508 807.704 150.985 806.094C141.462 804.484 80.321 760.063 70 753.609C59.6791 747.155 22.3586 729.375 16.799 725.343C11.2395 721.311 -38.7829 719.687 -38.7829 719.687C-38.7829 719.687 -10.242 705.458 -6.67782 703.641C-2.09531 703.641 22.7301 700.999 24.5191 701.811C26.308 702.623 42.4086 704.343 45.3811 704.151C48.3673 703.944 55.303 702.54 56.2938 701.921C57.2847 701.316 66.0231 700.71 68.2112 699.293C70.3992 697.875 73.9633 694.242 76.7431 694.449C79.5229 694.655 91.6328 690.609 94.0135 688.793C96.3942 686.976 105.133 682.738 108.903 679.311C112.674 675.885 115.055 672.844 116.444 672.844C117.834 672.844 121.013 672.844 122.995 672.445C124.976 672.045 128.554 670.834 129.353 670.229C130.151 669.623 133.123 665.591 133.123 665.591L136.096 663.981C136.096 663.981 142.054 665.192 143.637 664.587C145.219 663.981 146.224 661.958 147.999 661.559C149.788 661.16 151.577 660.142 152.76 659.743C153.958 659.344 156.132 659.137 156.132 659.137L156.696 660.954L156.669 660.995Z" fill="#759EA2"/>
        <path fill-rule="evenodd" clip-rule="evenodd" d="M219.104 682.49C219.104 682.49 217.411 685.174 215.718 686.522C214.026 687.857 212.512 687.857 212.512 687.857C212.512 687.857 215.333 688.05 219.104 690.926C222.874 693.802 224.567 693.802 224.567 693.802C224.567 693.802 221.746 694.765 217.975 693.417C214.205 692.068 210.062 690.926 206.677 690.733C203.292 690.541 204.599 690.926 201.214 689.963C197.829 688.999 197.264 687.857 197.264 687.857L198.021 686.522L196.329 684.609C196.329 684.609 195.393 687.293 196.521 689.784C197.65 692.274 198.778 691.311 199.342 693.609C199.907 695.907 207.627 698.976 209.333 700.311C211.026 701.646 209.333 700.311 209.526 701.839C209.718 703.366 211.975 703.751 214.232 704.522C216.489 705.293 218.76 703.944 219.695 706.242C220.645 708.54 223.273 709.311 225.159 710.838C227.044 712.366 228.929 713.907 234.585 716.205C240.241 718.504 242.869 718.889 242.869 718.889C242.869 718.889 238.342 719.467 234.007 718.311C229.672 717.155 231.929 718.311 224.016 715.435C216.104 712.559 216.296 709.118 211.576 709.297C206.87 709.49 204.985 708.527 204.985 708.527C204.985 708.527 206.87 711.21 211.012 714.279C215.154 717.348 220.617 718.297 219.874 718.875C219.117 719.453 215.471 719.687 213.599 719.426C207.379 716.935 208.342 717.389 204.2 715.669C200.058 713.949 202.356 711.788 198.957 710.646C195.572 709.49 181.109 705.733 181.109 705.733C181.109 705.733 191.306 704.935 196.948 704.66C192.118 700.628 189.159 700.628 184.866 702.513C180.971 704.219 181.687 702.816 177.352 702.251C173.017 701.673 172.673 704.66 167.774 703.903C161.182 702.871 164.334 702.293 161.224 700.628C157.646 698.715 147.036 683.894 147.036 683.894C147.036 683.894 160.494 692.99 168.613 689.77C170.058 689.192 173.512 689.963 173.512 688.435C173.512 686.908 171.063 683.839 171.999 684.417C172.935 684.995 174.82 686.908 176.526 685.765C178.219 684.609 175.769 683.275 179.168 683.853C182.554 684.431 183.118 683.275 183.875 682.889C184.632 682.504 184.81 680.013 180.489 680.013C176.168 680.013 178.04 680.399 175.398 679.628C172.756 678.857 168.985 677.522 171.256 677.908C173.512 678.293 175.398 677.33 177.847 677.715C180.297 678.1 187.081 677.522 189.902 677.908C192.723 678.293 200.636 679.064 200.636 679.064C200.636 679.064 199.122 679.834 201.2 682.132C203.278 684.431 206.471 684.623 208.356 684.238C210.241 683.853 212.883 683.467 213.819 682.71C214.755 681.94 215.705 681.376 217.026 681.183C218.347 680.99 219.104 682.518 219.104 682.518V682.49Z" fill="url(#paint1_linear_185_68770)"/>
        <path fill-rule="evenodd" clip-rule="evenodd" d="M242.566 697.71C242.566 697.71 246.626 698.481 253.038 700.394C259.451 702.307 262.823 700.325 268.286 700.325C273.749 700.325 272.235 723.705 271.107 724.283C269.979 724.861 257.745 738.086 261.708 736.93C265.671 735.788 285.708 723.031 284.015 725.522C283.327 731.577 274.08 740.302 276.722 738.774C279.364 737.247 291.267 729.485 295.795 728.329C300.322 727.187 313.327 717.568 313.327 717.568C313.327 717.568 310.795 723.582 306.845 725.687C302.896 727.793 303.776 729.21 301.148 732.086C298.506 734.962 299.015 732.127 296.001 736.159C292.988 740.178 289.588 746.315 288.845 747.843C288.088 749.37 266.91 765.787 266.91 765.787C266.91 765.787 242.993 776.686 249.805 777.374C255.02 777.897 280.974 789.154 285.68 787.434C290.387 785.714 307.85 795.319 309.556 796.269C311.249 797.232 376.133 795.058 377.908 795.87C379.697 796.682 387.018 793.571 390.789 799.42C394.56 805.269 402.582 802.282 402.775 802.09C402.968 801.897 418.614 814.571 424.972 817.805C431.33 821.039 514.173 839.314 514.173 839.314C514.173 839.314 536.205 850.543 560.631 846.952C571.97 845.286 594.043 848.851 612.318 849.071C628.612 849.25 655.308 845.121 659.877 843.897C597.828 832.764 540.127 806.438 534.952 804.016C529.792 801.594 530.246 801.594 522.306 795.539C514.365 789.484 512.934 788.576 502.489 780.306C493.352 768.595 503.549 757.407 510.333 767.425C500.907 755.7 475.793 734.054 475.793 734.054L448.394 704.632C448.394 704.632 438.554 692.371 433.793 689.949C423.238 684.582 420.458 681.954 418.903 681.211C412.16 677.977 415.931 676.449 409.573 674.027C403.215 671.605 401.193 671.963 401.193 671.963C401.193 671.963 398.413 668.729 394.05 669.142C389.688 669.541 383.729 666.72 383.729 662.275C383.729 657.83 381.349 659.454 382.931 655.807C384.514 652.174 388.821 649.174 386.44 648.376C384.06 647.564 379.353 638.454 379.353 638.454C379.353 638.454 371.413 638.853 365.454 639.665C359.496 640.477 353.936 642.087 350.771 642.486C347.592 642.885 341.84 644.702 340.643 646.326C339.446 647.936 338.854 648.541 338.07 649.147C337.271 649.752 336.363 652.56 335.372 653.165C334.381 653.771 327.955 652.986 327.955 652.986C327.955 652.986 325.148 651.128 324.143 650.922C323.152 650.716 321.005 650.757 321.005 650.757C321.005 650.757 320.606 652.367 318.226 653.592C315.845 654.803 312.859 657.431 309.295 658.229C305.717 659.041 307.175 659.936 303.997 660.142C300.818 660.348 298.602 656.66 295.437 659.192C294.598 659.867 293.772 660.459 292.588 660.459C291.405 660.459 290.235 662.137 289.258 662.881C287.483 664.229 289.258 664.091 286.671 665.509C284.084 666.926 280.121 672.568 277.341 673.38C274.561 674.192 267.419 678.623 265.424 680.44C263.442 682.256 260.456 683.261 257.483 685.683C254.511 688.105 253.121 688.917 250.341 690.128C247.562 691.339 242.594 697.71 242.594 697.71H242.566Z" fill="#6E9994"/>
        <path fill-rule="evenodd" clip-rule="evenodd" d="M354.363 747.044C352.381 749.067 339.804 777.127 339.804 777.127C339.804 777.127 341.634 782.315 340.436 784.737C339.253 787.159 374.276 811.42 374.276 811.42C374.276 811.42 346.478 815.713 329.083 821.245C315.955 825.415 304.162 827.053 296.029 831.676C284.249 831.621 275.194 827.878 264.502 822.663C267.419 819.47 249.419 787.448 249.419 787.448C249.419 787.448 272.566 784.613 274.947 782.59C277.327 780.567 277.726 780.168 277.726 780.168C277.726 780.168 278.525 778.145 272.965 779.356C267.405 780.567 255.103 777.746 259.066 777.746C263.029 777.746 278.125 778.558 280.905 774.113C283.685 769.668 283.286 766.434 286.066 768.058C288.845 769.682 287.648 772.902 295.589 768.87C303.529 764.838 298.767 764.026 306.708 762.003C314.648 759.98 316.629 757.159 319.808 755.136C322.987 753.113 330.927 748.668 327.749 749.48C324.57 750.292 317.827 752.714 314.249 755.136C310.671 757.558 322.987 749.081 328.932 745.448C334.891 741.815 331.712 743.026 337.67 738.581C343.629 734.136 340.849 735.76 346.01 732.127C351.17 728.494 349.987 730.517 349.987 727.682C349.987 724.848 346.01 726.471 350.785 724.049C355.546 721.627 350.386 722.026 356.345 720.416C362.303 718.806 358.725 718.806 363.101 716.371C367.464 713.949 365.881 714.348 369.844 713.137C373.808 711.926 384.927 708.293 384.927 708.293C384.927 708.293 383.729 710.316 378.184 713.536C372.624 716.77 369.844 719.99 364.684 725.646C361.161 729.513 356.358 745.008 354.377 747.031L354.363 747.044Z" fill="url(#paint2_linear_185_68770)"/>
        <path fill-rule="evenodd" clip-rule="evenodd" d="M344.414 747.856C344.414 747.856 343.616 755.535 345.212 757.544C346.795 759.567 347.194 759.567 347.194 759.567C347.194 759.567 345.212 757.957 339.652 762.388C334.093 766.833 333.308 767.232 335.29 766.42C337.272 765.608 341.648 763.599 340.451 766.021C339.253 768.443 338.469 768.443 338.469 768.443C338.469 768.443 314.538 778.544 309.378 782.177C304.217 785.81 330.529 775.296 324.185 780.952C317.841 786.608 322.602 783.374 317.827 786.608C313.066 789.842 316.63 790.64 313.066 790.241C309.488 789.842 303.612 794.37 302.029 795.581C300.447 796.792 286.754 808.681 286.754 808.681C286.754 808.681 308.153 797.975 313.313 800.397C318.474 802.819 328.946 801.952 334.107 802.365C339.267 802.764 354.349 800.755 361.505 805.186C365.152 807.457 301.616 814.158 307.121 815.961C312.419 817.695 386.881 818.122 390.762 818.122C423.018 825.401 436.202 841.185 440.564 843.607C444.926 846.029 451.587 842.328 457.944 845.149C464.302 847.97 490.517 849.002 495.678 851.025C500.838 853.048 499.256 848.906 504.815 849.318C510.375 849.717 476.784 840.25 483.54 841.461C490.283 842.672 520.104 844.461 520.104 844.461C520.104 844.461 485.233 836.782 470.151 833.149C455.068 829.516 491.329 834.36 498.87 833.149C506.412 831.938 479.797 822.566 494.082 824.988C508.366 827.41 527.04 826.199 525.044 826.599C523.063 826.998 507.967 824.177 499.242 822.966C490.504 821.755 477.403 818.122 465.499 818.122C453.596 818.122 447.128 820.502 436.009 818.892C424.89 817.282 418.161 812.438 422.922 813.25C427.683 814.062 448.49 810.952 452.055 811.764C455.633 812.576 463.944 810.567 463.944 810.567C463.944 810.567 446.922 808.227 435.403 805.805C426.651 803.961 416.041 803.865 434.688 793.654C428.729 791.232 410.289 798.732 402.349 796.31C394.409 793.888 396.39 789.856 396.39 789.856C396.39 789.856 397.973 785.012 391.23 784.613C384.487 784.214 405.693 763.076 411.046 760.998C402.72 762.182 346.905 777.072 342.845 783.952C341.648 785.975 364.684 762.113 365.868 757.269C367.065 752.425 379.106 751.145 380.29 749.136C381.487 747.113 402.996 727.779 400.23 729.802C397.45 731.825 368.496 744.347 371.675 742.338C374.854 740.315 391.175 718.215 391.175 718.215C391.175 718.215 377.881 727.407 375.501 730.641C373.12 733.875 393.211 705.059 391.629 706.669C390.046 708.279 372.514 722.082 376.092 716.439C379.67 710.784 362.262 727.71 362.262 727.71C362.262 727.71 359.083 730.132 361.464 724.077C363.845 718.022 365.427 715.999 365.427 715.999C365.427 715.999 360.666 719.632 358.285 725.288C355.905 730.944 353.923 729.334 351.542 736.6C349.161 743.866 350.345 745.077 347.964 745.476C345.584 745.875 344.386 747.898 344.386 747.898L344.414 747.856Z" fill="url(#paint3_linear_185_68770)"/>
        <path fill-rule="evenodd" clip-rule="evenodd" d="M391.436 677.619C391.436 677.619 385.312 691.752 382.533 693.761C379.753 695.784 378.514 701.247 372.569 702.045C366.611 702.857 368.345 697.036 360.404 701.068C352.464 705.1 351.57 701.013 344.029 704.247C336.487 707.481 326.166 708.692 324.185 711.114C322.203 713.536 316.245 715.559 313.066 718.38C309.887 721.201 300.447 726.375 300.447 726.375C300.447 726.375 309.777 717.554 315.446 712.325C321.804 709.091 324.584 707.481 329.744 704.247C334.905 701.013 325.382 698.591 328.162 698.591C330.942 698.591 336.102 696.981 338.882 695.357C341.662 693.747 345.239 693.334 345.239 693.334C345.239 693.334 338.882 690.912 341.662 690.912C344.441 690.912 346.822 687.678 349.203 686.88C351.583 686.068 351.184 682.435 354.762 680.825C358.34 679.215 361.519 678.004 363.102 678.004C364.684 678.004 366.281 678.004 370.244 675.981C374.207 673.958 386.083 660.431 386.083 660.431C386.083 660.431 375.404 679.614 369.845 680.839C364.285 682.05 359.524 686.082 359.524 686.082C359.524 686.082 367.863 682.848 369.845 684.871C371.826 686.894 378.184 684.871 378.184 684.871C378.184 684.871 391.849 677.605 391.45 677.605L391.436 677.619Z" fill="#74948D"/>
        <path fill-rule="evenodd" clip-rule="evenodd" d="M378.556 638.44C378.556 638.44 374.73 638.688 373.546 643.119C376.092 642.693 379.12 642.238 379.918 644.248C380.716 646.271 380.689 644.936 377.51 647.358C374.331 649.78 369.487 656.88 372.267 654.858C375.046 652.835 380.84 648.899 384.019 646.078C387.198 643.257 385.698 648.913 385.698 648.913C385.698 648.913 387.514 664.078 381.955 667.711C376.395 671.344 374.991 673.133 368.634 675.954C362.276 678.775 344.152 689.866 338.194 695.921C332.235 701.976 354.707 670.298 355.106 666.266C355.505 662.234 357.487 659.812 357.487 659.812C357.487 659.812 330.432 690.417 323.29 692.44C327.088 683.564 330.267 678.486 335.964 672.156C329.607 673.766 327.721 676.972 326.139 678.183C324.556 679.394 324.542 669.114 323.345 672.334C322.148 675.568 306.887 700.366 301.726 704.811C296.566 709.256 287.855 714.719 284.291 718.765C280.713 722.797 263.057 733.448 253.011 733.655C262.672 727.214 261.997 727.022 263.332 722.357C246.819 722.659 250.452 709.16 243.709 708.348C242.278 704.398 236.635 697.146 236.635 697.146C236.635 697.146 246.874 691.187 250.287 690.1C252.571 690.554 267.763 694.944 270.529 694.944C273.295 694.944 251.14 687.692 255.103 687.692C254.786 685.476 268.094 689.853 274.438 688.642C280.795 687.431 266.043 687.293 263.663 683.247C261.282 679.215 281.965 672.844 282.364 669.61C282.763 666.376 296.827 656.179 297.901 658.202C300.281 659.013 292.892 660.376 300.433 663.211C307.974 666.032 303.515 664.862 308.676 664.862C313.836 664.862 315.969 676.504 315.969 672.472C315.969 668.44 311.841 658.835 309.226 658.202C313.121 656.303 320.937 648.913 321.336 651.335C321.735 653.757 322.533 656.991 329.276 658.601C336.033 660.211 336.033 659 336.033 659C336.033 659 338.249 651.101 336.267 653.124C334.286 655.133 334.685 650.592 336.267 647.413C336.267 647.413 343.973 644.055 346.753 642.844C349.533 641.633 359.455 640.821 361.836 639.61C364.216 638.399 366.597 638 368.193 638C369.79 638 378.514 638.399 378.514 638.399L378.556 638.44Z" fill="url(#paint4_linear_185_68770)"/>
        <path fill-rule="evenodd" clip-rule="evenodd" d="M391.959 655.298C391.959 655.298 395.124 666.899 401.867 669.321C408.624 671.743 408.734 675.582 413.496 676.793C418.257 678.004 422.688 681.541 426.665 688.27C429.046 692.302 432.156 696.169 435.335 699.802C438.514 703.435 441.692 709.091 443.674 711.114C445.656 713.137 452.013 716.77 447.637 714.348C443.275 711.926 436.917 705.059 430.959 703.05C425 701.027 427.78 704.261 423.018 700.229C418.257 696.196 419.839 690.94 416.661 695.385C413.482 699.829 415.862 696.995 410.303 699.829C404.743 702.65 407.523 703.861 404.344 705.072C401.165 706.283 402.363 704.673 397.601 706.683C392.84 708.705 389.661 711.127 389.661 711.127C389.661 711.127 394.821 705.072 396.418 703.449C398 701.839 402.775 696.995 398 699.004C393.239 701.027 395.62 695.77 391.643 697.793C387.679 699.816 390.06 695.77 386.482 697.793C382.904 699.816 381.322 700.215 378.941 701.027C376.56 701.839 369.019 706.683 371.001 703.449C372.982 700.215 380.923 698.206 384.101 692.949C387.28 687.706 387.28 683.261 387.28 683.261C387.28 683.261 390.06 678.816 386.482 681.651C382.904 684.472 387.679 684.073 380.923 685.284C374.166 686.495 371.001 685.683 371.001 685.683C371.001 685.683 378.941 684.871 381.322 680.839C383.702 676.807 386.482 675.596 383.702 675.995C380.923 676.394 380.923 673.972 382.904 672.362C384.886 670.752 384.487 669.541 384.487 669.541C384.487 669.541 380.51 669.541 377.73 672.362C374.95 675.183 375.748 675.995 371.771 676.807C367.794 677.619 358.271 678.83 358.271 678.83C358.271 678.83 370.574 675.596 372.955 671.165C375.335 666.72 372.955 666.72 376.533 665.509C380.111 664.298 377.331 665.908 378.129 662.688C378.927 659.454 376.147 661.876 380.111 658.656C384.088 655.422 386.111 647.261 386.111 647.261C386.111 647.261 391.629 650.371 391.918 655.325L391.959 655.298Z" fill="url(#paint5_linear_185_68770)"/>
        <path fill-rule="evenodd" clip-rule="evenodd" d="M438.363 682.697C443.771 691.146 442.298 686.577 445.876 692.233C449.454 697.889 448.436 693.761 455.179 699.004C461.936 704.247 476.275 721.93 476.275 721.93C476.275 721.93 445.656 697.793 441.28 694.16C436.918 690.527 437.881 689.247 434.303 688.435C430.725 687.623 426.982 680.839 423.019 679.215C419.042 677.605 418.766 676.903 423.528 681.348C428.289 685.793 433.326 692.674 434.578 694.229C438.817 699.527 455.427 723.114 455.702 724.38C456.527 728.178 430.546 694.724 424.078 693.43C418.12 688.986 411.115 676.779 405.556 673.545C399.996 670.311 397.216 671.522 395.634 667.49C394.051 663.458 392.854 663.045 392.455 659.013C392.056 654.981 392.455 656.591 390.473 652.559C388.492 648.527 388.492 651.747 384.116 646.504C380.593 640.202 380.304 640.326 378.157 638.027C386.427 640.147 394.423 650.894 395.235 651.761C399.17 656.013 404.097 657.665 407.675 659.688C411.253 661.711 415.023 667.091 419.799 667.49C425.207 670.862 423.074 673.105 428.248 673.903C432.308 676.6 434.661 679.986 438.376 682.683L438.363 682.697Z" fill="url(#paint6_linear_185_68770)"/>
        <path fill-rule="evenodd" clip-rule="evenodd" d="M479.164 687.073C480.761 687.472 501.045 683.866 509.783 682.256C518.522 680.646 502.215 687.417 494.646 691.889C501.389 694.71 506.398 690.114 512.756 690.114C519.114 690.114 527.439 688.903 530.618 689.715C533.797 690.527 540.141 692.949 540.141 692.949C540.141 692.949 548.164 693.651 552.127 695.66C559.393 693.747 569.728 692.976 569.728 692.976C569.728 692.976 555.443 697.614 556.558 702.21C546.636 700.187 535.366 697.793 530.205 697.394C525.045 696.995 546.017 699.664 547.613 705.306C538.668 700.834 531.444 702.898 522.664 701.825C523.462 706.669 539.7 708.568 544.476 710.577C549.237 712.6 563.177 711.981 570.319 715.614C577.461 719.247 574.283 728.054 576.663 729.279C579.044 730.49 594.126 730.889 601.681 734.935C609.222 738.967 618.759 741.389 618.759 741.389C618.759 741.389 619.158 737.756 614.397 734.522C609.635 731.288 612.016 732.1 604.076 726.444C596.135 720.788 589.392 716.343 593.356 717.554C597.333 718.765 605.273 718.765 606.456 717.953C607.654 717.141 598.915 717.141 589.778 712.71C580.64 708.265 579.457 699.389 579.457 699.389C579.457 699.389 605.658 703.421 608.837 703.022C612.016 702.623 635.837 698.99 640.997 696.554C651.373 691.683 656.726 689.371 670.405 684.155C670.405 684.155 672.359 696.155 683.079 698.577C691.116 700.394 672.923 700.807 675.318 703.256C676.116 704.068 698.808 707.109 699.4 708.224C701.781 712.669 701.024 706.779 709.363 712.834C717.703 718.889 706.666 709.572 717.386 714.004C728.106 718.449 744.221 735.719 753.743 740.976C763.266 746.219 764.064 746.219 764.064 746.219C764.064 746.219 752.161 745.407 739.06 740.976C725.959 736.531 727.941 737.343 715.638 735.32C703.336 733.297 698.561 724.421 698.162 729.664C697.763 734.921 701.34 737.742 702.538 740.976C703.735 744.21 705.703 745.82 704.12 744.21C702.538 742.6 695.382 736.545 682.68 733.71C669.979 730.889 671.96 732.499 665.602 728.054C659.245 723.609 652.103 722.398 652.103 722.398C652.103 722.398 646.832 725.178 636.91 723.155C626.988 721.132 640.117 720.224 630.181 719.426C620.259 718.614 622.241 718.517 617.479 715.683C612.718 712.861 607.241 709.875 610.021 711.485C612.8 713.109 618.759 719.563 620.741 721.173C622.722 722.783 630.263 729.65 632.259 730.462C634.24 731.274 647.341 732.485 649.337 734.494C651.318 736.517 663.621 741.361 666.015 743.384C668.396 745.407 666.813 744.595 668.396 745.407C669.979 746.219 667.997 742.985 672.373 748.641C676.735 754.297 681.111 755.907 681.111 755.907C681.111 755.907 666.057 748.159 660.098 748.572C654.139 748.971 658.474 746.219 648.951 743.797C639.428 741.375 641.809 742.586 637.832 740.976C633.855 739.366 621.979 738.857 621.979 738.857C621.979 738.857 626.341 740.439 634.681 749.315C643.02 758.191 640.612 758.329 650.534 761.962C660.456 765.595 617.617 755.398 621.979 759.031C626.341 762.664 665.699 772.929 672.043 776.962C682.501 777.705 698.561 786.994 702.538 788.205C706.501 789.416 698.96 789.415 687.841 785.783C676.722 782.15 677.919 780.939 667.199 779.728C656.479 778.517 638.217 776.906 626.699 768.829C615.181 760.751 609.236 757.118 602.878 754.297C610.75 767.26 624.511 779.783 625.708 782.205C626.906 784.627 592.461 764.975 580.117 748.572C580.86 766.503 598.117 767.92 603.278 773.975C608.438 780.03 608.438 776.095 611.204 780.127C613.984 784.159 620.727 783.76 630.663 796.269C640.584 808.791 665.135 815.011 669.112 817.034C673.075 819.057 687.166 825.277 687.166 825.277C687.166 825.277 661.859 819.167 651.208 816.484C648.717 815.851 623.507 821.41 621.071 820.681C616.516 819.333 644.782 815.947 641.658 814.365C639.662 813.346 628.213 808.131 626.851 807.388C620.053 803.7 580.227 812.039 572.631 808.351C563.507 803.906 595.268 797.658 584.548 795.237C573.828 792.815 580.296 782.205 574.737 785.425C569.177 788.659 553.888 792.374 553.888 792.374C553.888 792.374 567.127 781.338 568.723 778.916C570.306 776.494 566.741 777.306 563.163 774.072C559.585 770.838 564.361 771.251 555.223 768.017C546.086 764.783 536.852 768.677 541.228 768.264C545.59 767.865 558.402 758.329 561.98 756.705C565.558 755.095 542.742 764.136 538.778 761.315C534.815 758.494 539.356 754.324 531.017 751.503C522.678 748.682 522.279 747.416 515.935 744.994C509.577 742.572 514.737 738.939 509.192 734.907C503.632 730.875 497.921 729.127 497.921 729.127C497.921 729.127 505.655 729.65 507.637 727.627C509.618 725.604 538.696 743.109 524.081 731.37C522.678 730.242 559.53 733.944 524.935 722.467C521.893 721.462 522.609 721.737 519.43 719.715C516.251 717.692 512.37 715.517 508.793 716.329C505.215 717.141 497.673 718.352 499.27 716.329C500.852 714.306 506.412 710.673 501.251 711.884C496.091 713.095 476.192 719.549 478.972 715.105C481.752 710.66 469.27 710.178 461.192 703.862C464.123 707.508 488.054 735.292 490.559 740.398C491.357 742.008 472.339 716.921 469.958 718.531C465.403 712.806 460.325 703.586 460.325 703.586C460.325 703.586 449.151 695.674 445.876 692.178C443.495 688.146 443.702 688.876 441.004 686.509C438.541 684.348 439.133 684.94 435.156 681.307C431.193 677.674 426.073 674.055 425.399 672.926C426.995 672.926 449.564 673.945 455.757 672.912C451.972 679.105 455.069 679.793 455.069 679.793C455.069 679.793 450.803 684.816 455.578 688.05C460.339 691.284 469.174 687.362 469.174 687.362C469.174 687.362 479.151 689.44 479.151 687.018L479.164 687.073Z" fill="#6E9C8C"/>
        <path fill-rule="evenodd" clip-rule="evenodd" d="M525.402 773.673C525.402 773.673 536.838 775.847 540.388 782.383C544.751 784.214 547.682 788.177 547.682 788.177C547.682 788.177 547.283 785.438 549.664 789.553C552.044 793.668 551.645 795.044 556.406 796.42C561.168 797.796 574.035 794.273 577.998 796.103C581.975 797.934 576.402 798.677 577.585 801.415C578.782 804.154 576.856 802.709 579.636 805.915C582.415 809.122 593.81 801.801 589.447 805.915C585.085 810.03 589.172 810.112 593.535 812.865C597.897 815.617 606.965 808.599 618.869 814.089C602.521 820.626 611.369 821.397 614.782 821.452C616.736 821.479 637.309 817.2 638.892 817.365C623.369 821.177 601.654 831.883 600.071 832.516C596.218 834.057 644.493 825.718 649.047 826.076C654.456 826.488 659.424 826.543 661.612 827.548C665.644 829.392 662.134 830.644 679.474 832.585C696.813 834.525 716.877 848.341 716.877 848.341C717.097 848.341 702.565 844.034 687.139 842.218C679.969 841.364 675.854 845.162 669.373 845.685C661.942 844.199 640.956 847.832 639.58 847.695C638.093 847.543 654.304 843.222 653.327 843.002C648.208 841.887 646.983 841.64 639.649 842.41C630.91 843.332 632.63 837.952 623.892 837.952C614.534 837.952 605.975 837.016 598.489 837.635C592.929 838.089 593.328 834.883 585.388 837.635C577.448 840.374 552.43 844.502 552.43 844.502C552.43 844.502 567.113 836.727 569.108 834.897C571.09 833.066 567.127 832.612 561.567 832.612C556.007 832.612 557.989 826.199 555.209 828.03C552.429 829.86 556.007 827.121 548.852 828.03C541.709 828.952 525.031 820.709 525.031 820.709C525.031 820.709 526.228 824.823 516.292 819.333C506.371 813.842 490.889 801.952 493.27 803.314C495.65 804.691 516.292 815.672 518.673 813.842C521.054 812.012 513.402 807.484 513.402 807.484C513.402 807.484 551.053 823.543 553.434 824.92C555.815 826.296 530.549 811.296 530.549 811.296C530.549 811.296 518.701 803.328 513.939 800.122C509.178 796.915 508.214 790.86 501.953 781.599C506.315 782.975 523.187 801.938 527.563 801.484C531.925 801.03 541.448 809.383 546.086 806.934C542.109 805.557 505.504 779.7 501.416 778.338C497.839 775.131 489.898 767.535 491.88 767.989C493.862 768.443 540.113 798.746 542.095 797.369C544.076 795.993 546.856 796.915 543.292 795.085C539.714 793.255 544.09 794.163 538.132 791.425C532.173 788.672 538.531 789.14 532.173 786.842C521.494 783.003 496.517 771.361 491.88 767.989C484.339 762.498 477.169 735.843 477.169 735.843C477.169 735.843 511.407 767.411 513.389 770.163C515.37 772.916 520.655 775.861 523.434 777.691C526.214 779.521 537.361 783.787 537.361 783.787C537.361 783.787 531.911 778.613 525.375 773.714L525.402 773.673Z" fill="#759E82"/>
        <path fill-rule="evenodd" clip-rule="evenodd" d="M429.527 702.279C382.684 660.348 461.123 733.737 461.096 733.655C458.715 728.412 461.096 738.499 466.256 742.944C471.417 747.388 471.018 741.333 477.375 751.421C483.733 761.508 512.054 786.581 513.636 789.003C515.219 791.425 493.806 765.429 492.224 760.998C483.623 748.544 498.224 766.296 496.848 762.485C494.839 756.939 477.885 738.182 477.885 738.182C477.885 738.182 487.82 755.783 485.839 753.361C483.857 750.939 469.036 735.843 470.619 735.843C472.201 735.843 451.064 708.43 447.885 708.43C452.44 715.187 463.49 729.65 460.711 726.416C457.931 723.182 456.747 722.384 453.954 720.361C451.174 718.338 429.541 702.32 429.541 702.32L429.527 702.279Z" fill="#729D96"/>
        <path fill-rule="evenodd" clip-rule="evenodd" d="M670.391 684.183C670.391 684.183 670.391 692.605 664.653 693.362C666.634 699.816 663.442 709.903 665.038 715.559C671.547 718.614 673.006 723.87 674.987 725.893C676.969 727.916 701.065 741.623 701.065 741.623C701.065 741.623 671.162 728.192 661.983 731.632C663.125 724.366 650.919 722.825 649.336 722.825C647.754 722.825 651.277 720.981 651.277 719.77C651.277 718.559 646.295 713.261 637.887 713.261C640.57 710.206 628.543 714.114 622.199 712.49C615.841 710.88 635.217 707.137 627.552 707.508C626.025 706.366 629.671 704.825 624.112 704.825C618.552 704.825 609.58 703.903 609.58 703.903C609.58 703.903 633.47 693.32 638.63 693.733C643.79 694.132 643.391 692.123 649.749 690.1C656.107 688.077 670.033 683.357 670.419 684.155L670.391 684.183Z" fill="url(#paint7_linear_185_68770)"/>
        <path fill-rule="evenodd" clip-rule="evenodd" d="M661.997 741.127C661.997 741.127 684.07 751.544 689.492 751.187C694.914 750.815 694.198 750.086 698.161 750.815C702.138 751.544 715.514 751.544 715.514 751.544C715.514 751.544 709.363 749.714 705.758 747.127C702.138 744.554 701.065 741.609 701.065 741.609C701.065 741.609 716.973 749.329 722.024 749.329C727.074 749.329 728.89 744.182 733.225 747.127C737.56 750.072 740.821 752.274 744.798 752.274C748.775 752.274 755.642 754.847 759.619 756.319C763.596 757.792 763.596 761.095 767.216 763.668C770.835 766.241 773.353 766.241 779.862 771.388C786.371 776.535 794.325 780.952 802.995 782.782C811.664 784.626 817.086 784.626 817.086 784.626C817.086 784.626 801.908 778.379 797.201 775.062C792.509 771.76 792.509 775.805 788.174 768.443C783.839 761.095 787.087 761.452 781.665 760.352C776.243 759.251 772.995 758.521 768.647 754.833C764.312 751.159 766.472 750.416 761.78 748.957C757.087 747.485 737.037 729.141 737.037 729.141C737.037 729.141 754.968 736.613 766.472 742.696C774.426 742.696 801.495 754.021 782.614 738.1C799.802 746.315 817.843 748.393 821.82 748.021C825.797 747.65 817.375 743.109 824.242 747.141C831.109 751.187 806.958 749.535 809.49 750.636C812.022 751.737 824.297 757.379 829.362 759.223C834.426 761.067 844.182 760.696 845.985 760.696C847.1 760.902 817.348 767.356 818.82 769.076C819.467 769.847 828.866 767.865 835.898 767.755C848.256 767.562 861.288 768.636 863.214 769.214C877.554 773.439 896.379 777.581 898.636 777.87C903.549 778.503 862.609 760.324 864.467 760.943C867.714 762.044 855.893 757.751 855.893 757.751C855.893 757.751 861.205 763.641 855.054 761.796C848.916 759.952 850.279 758.384 843.412 758.012C836.545 757.641 838.458 756.209 834.839 756.209C831.219 756.209 826.472 751.875 826.472 751.875C826.472 751.875 834.426 752.246 841.65 751.503C848.875 750.774 860.806 748.93 865.512 745.627C870.219 742.324 877.086 738.636 880.691 736.434C884.31 734.233 886.842 733.861 889.732 733.861C892.622 733.861 902.021 738.278 905.269 738.278C908.516 738.278 911.682 738.843 911.682 738.843C911.682 738.843 913.347 742.778 929.64 746.576C931.085 747.127 936.245 749.852 937.374 750.209C938.874 750.691 921.466 746.301 912.59 747.154C908.049 748.971 901.209 750.664 898.484 752.934C911.902 748.847 956.708 753.664 958.552 754.654C955.03 754.544 962.488 757.186 963.396 759.663C951.892 756.044 933.947 756.581 934.677 758.865C941.461 757.255 945.741 758.48 954.424 760.324C943.966 761.122 923.406 761.012 932.805 761.755C937.608 762.127 909.879 759.127 912.934 759.884C915.851 760.599 938.378 766.104 943.222 767.232C924.865 766.599 919.787 769.682 919.787 769.682C919.787 769.682 913.76 776.108 903.645 774.636C914.475 777.87 934.209 784.42 932.255 785.301C921.466 785.934 922.429 780.704 918.782 781.241C911.282 779.645 891.7 776.177 877.636 775.723C866.82 775.379 854.393 773.452 842.779 777.952C844.169 778.888 865.113 780.911 873.15 781.998C874.911 782.232 900.384 788.273 897.81 789.085C889.127 788.659 886.333 788.755 882.824 789.649C869.833 786.594 862.65 787.805 859.017 791.438C863.558 792.347 883.223 800.259 880.196 802.117C850.925 800.012 878.09 804.429 872.792 807.057C862.058 812.383 841.471 809.823 840.921 809.989C826.926 814.131 841.843 799.957 837.357 800.232C834.109 800.424 817.898 801.677 822.618 799.09C828.728 795.732 856.636 788.314 855.109 788.59C848.971 789.691 839.476 782.383 830.806 779.81C822.137 777.237 826.829 777.98 816.343 775.035C805.857 772.09 798.99 768.787 798.99 768.787C798.99 768.787 817.1 779.507 821.793 783.553C826.499 787.599 845.93 788.411 845.93 788.411C845.93 788.411 810.082 788.961 801.399 789.691C792.729 790.42 774.963 785.287 764.105 783.085C753.262 780.883 788.133 787.172 777.647 780.567C767.161 773.948 778.004 777.264 765.358 772.117C752.697 766.971 744.386 758.15 746.918 762.553C749.45 766.971 752.34 769.902 754.142 773.218C755.945 776.521 748.005 767.7 742.941 765.498C737.876 763.296 734.987 758.879 729.207 760.352C723.427 761.824 724.872 760.352 720.166 761.095C715.473 761.824 713.299 760.352 715.831 762.567C718.363 764.769 725.588 771.017 725.588 771.017C725.271 771.842 719.037 766.709 714.744 765.498C710.45 764.287 707.148 766.599 702.813 764.769C698.478 762.925 691.969 757.42 695.216 761.452C698.464 765.498 702.441 768.443 700.996 767.7C699.551 766.971 693.4 765.87 689.423 761.452C685.446 757.035 683.643 756.677 683.643 756.677C683.643 756.677 681.73 758.521 678.469 755.205C675.221 751.902 661.199 742.944 661.928 741.113L661.997 741.127Z" fill="url(#paint8_linear_185_68770)"/>
        <path fill-rule="evenodd" clip-rule="evenodd" d="M889.127 727.118C889.127 727.118 898.416 729.127 894.81 729.857C891.191 730.586 891.191 728.026 890.104 729.485C889.017 730.957 885.576 730.71 885.576 730.71L871.334 737.26C871.168 737.356 878.875 735.678 883.127 734.315C887.324 732.967 897.769 733.572 900.563 735.237C894.879 738.416 892.829 738.65 890.104 742.737C894.164 740.7 912.384 738.87 912.384 738.87C912.384 738.87 935.833 744.416 939.149 750.87C934.03 752.907 923.75 749.164 914.861 757.035C929.227 752.934 954.562 754.709 957.878 755.934C964.14 753.966 972.837 766.833 976.456 768.677C977.351 769.131 974.351 762.058 993.217 761.15C992.474 760.682 970.91 749.508 958.993 750.884C957.741 751.021 941.048 747.554 939.906 746.838C938.778 744.567 933.136 741.856 927.934 739.723C922.704 737.59 917.888 736.035 918.535 736.145C919.567 736.324 923.654 736.82 928.044 737.329C930.053 737.563 932.145 737.797 934.016 738.003C935.227 738.141 941.612 743.012 942.576 742.861C945.424 742.407 964.236 745.696 964.828 745.751C964.374 743.948 947.64 739.627 944.64 739.93C943.154 738.829 940.195 735.444 941.901 735.829C945.163 736.558 945.328 736.517 953.874 734.123C947.034 731.728 939.012 731.838 934.002 733.655C926.723 730.696 914.957 729.113 918.576 729.843C922.168 727.806 931.691 729.127 932.778 728.756C933.865 728.384 920.489 724.71 914.709 725.081C909.397 723.857 907.457 721.847 905.296 721.118C903.122 720.389 900.948 718.792 897.7 719.164C894.453 719.536 888.466 722.811 888.466 722.811L889.168 727.132L889.127 727.118Z" fill="url(#paint9_linear_185_68770)"/>
        <path fill-rule="evenodd" clip-rule="evenodd" d="M756.358 703.022C756.358 703.022 732.771 712.889 742.335 700.256C734.299 700.256 726.07 707.398 719.175 709.366C720.455 710.852 725.423 714.691 715.817 712.778C723.152 717.966 717.606 721.806 715.074 721.434C712.542 721.063 722.092 728.411 722.092 728.411C722.092 728.411 693.786 729.622 687.799 724.393C689.244 728.439 710.987 733.09 718.212 737.136C725.436 741.182 758.147 747.017 760.321 748.475C762.496 749.948 724.542 721.407 732.496 722.879C740.45 724.352 752.519 729.526 759.386 729.168C766.252 728.797 754.968 725.205 760.376 721.09C754.597 720.347 774.028 726.65 779.45 726.292C779.45 725.15 792.468 734.714 801.646 739.31C800.504 731.274 793.995 722.852 784.087 717.898C779.821 713.48 774.427 706.352 774.427 706.352C774.427 706.352 768.275 699.733 756.358 703.049V703.022Z" fill="url(#paint10_linear_185_68770)"/>
        <path fill-rule="evenodd" clip-rule="evenodd" d="M217.604 721.325C217.604 721.325 222.874 724.586 225.117 725.893C227.36 727.201 238.603 731.921 241.493 734.219C244.383 736.503 244.411 739.668 245.044 740.976C245.69 742.283 243.434 742.613 241.507 742.283C239.58 741.953 240.86 740.315 237.654 740.646C234.447 740.976 224.815 741.292 226.411 741.623C228.021 741.953 244.397 745.861 241.177 750.444C237.97 755.012 236.677 755.673 238.603 757.957C240.53 760.242 240.846 757.627 238.92 763.186C236.993 768.746 246.42 776.7 244.507 780.939C240.213 777.471 238.383 776.108 236.14 776.108C233.897 776.108 213.916 765.044 209.595 764.535C214.026 767.453 233.429 787.131 232.136 788.108C230.856 789.085 212.429 779.645 212.429 779.645C212.429 779.645 225.379 793.764 230.429 795.87C233.002 799.792 238.92 807.759 240.778 812.232C245.567 815.383 256.878 824.755 256.837 824.741C263.319 828.443 264.144 825.14 268.713 827.08C278.896 831.401 291.832 830.383 296.002 831.69C272.635 817.667 258.447 801.47 269.965 806.769C274.864 809.025 253.122 786.471 257.608 787.448C262.108 788.425 260.442 786.044 263.016 786.705C265.589 787.351 275.318 787.448 275.318 787.448C275.318 787.448 259.163 782.783 257.236 780.498C255.31 778.214 250.81 777.553 254.346 777.553C257.883 777.553 258.846 775.599 258.846 775.599C258.846 775.599 251.787 773.645 254.03 772.338C256.273 771.03 256.603 771.03 258.846 769.393C261.089 767.755 265.589 766.448 266.869 765.801C268.149 765.154 264.943 766.131 262.053 765.801C259.163 765.471 261.887 764.191 264.461 763.214C267.034 762.237 266.553 761.563 269.126 759.925C271.699 758.287 278.291 751.806 278.291 751.806C278.291 751.806 261.764 763.008 259.273 761.838C256.383 763.145 252.42 764.824 252.42 764.824C252.42 764.824 243.736 770.741 244.067 769.434C244.383 768.127 246.64 763.517 249.53 760.572C252.42 757.627 254.993 755.012 256.589 753.719C258.199 752.411 261.089 751.434 259.796 749.797C258.516 748.159 257.222 750.444 255.296 750.444C253.369 750.444 261.722 745.545 264.612 743.907C267.502 742.269 279.089 737.838 279.089 737.838C279.089 737.838 267.502 740.315 260.126 741.292C252.736 742.269 245.677 740.646 247.603 740.646C249.53 740.646 266.869 738.031 270.722 734.769C274.575 731.508 277.149 728.563 278.429 727.586C279.708 726.609 270.516 731.742 269.47 732.086C270.75 730.448 281.635 720.719 281.635 720.719C281.635 720.719 269.47 728.646 262.41 731.26C255.351 733.875 258.268 732.87 254.085 732.87C249.901 732.87 245.016 733.132 242.457 730.847C239.883 728.563 240.172 730.091 238.246 729.114C236.319 728.137 233.622 727.352 232.342 726.692C231.062 726.031 228.585 725.137 226.975 724.806C225.365 724.476 222.145 723.471 217.576 721.311L217.604 721.325Z" fill="url(#paint11_linear_185_68770)"/>
        <path fill-rule="evenodd" clip-rule="evenodd" d="M115 675.004C115 675.004 111.463 688.394 113.389 690.348C115.316 692.302 118.206 687.086 119.486 693.609C120.766 700.146 122.376 701.453 124.619 702.747C126.862 704.054 163.329 722.687 165.256 729.54C158.609 728.274 148.701 723.967 152.238 727.889C155.774 731.811 157.701 730.503 161.554 737.026C165.407 743.563 169.013 746.824 172.219 750.099C175.425 753.361 186.916 754.998 197.196 760.214C207.475 765.443 229.37 783.058 229.37 783.058C229.37 783.058 197.512 765.113 188.196 763.475C178.879 761.838 174.077 762.87 176.65 763.517C186.6 766.049 192.558 781.489 197.815 797.92C186.159 789.787 166.907 770.397 163.054 768.429C159.201 766.475 158.017 759.884 155.458 756.609C152.884 753.347 135.875 746.81 132.986 741.265C130.096 735.705 129.779 735.389 127.853 733.751C125.926 732.113 123.999 730.49 119.499 729.513C115 728.536 108.903 728.536 105.05 724.283C101.197 720.045 98.3071 716.123 97.0273 716.123C95.7475 716.123 95.4173 718.077 90.9311 715.462C86.4312 712.848 79.9908 708.265 63.0094 710.095C75.3946 709.641 92.9126 733.035 90.986 733.035C89.0595 733.035 55.1654 721.036 49.7022 719.728C44.0876 726.306 17.4046 717.705 4.74417 711.472C24.698 712.545 53.3627 700.008 53.3627 700.008C53.3627 700.008 86.7339 692.275 90.5871 689.674C94.4402 687.059 94.4402 684.775 102.463 680.853C110.486 676.931 114.986 674.977 114.986 674.977L115 675.004Z" fill="url(#paint12_linear_185_68770)"/>
        <path fill-rule="evenodd" clip-rule="evenodd" d="M155.141 659.977C155.141 659.977 150.091 666.623 150.091 676.738C144.71 678.321 144.861 678.265 144.861 683.495C144.861 688.724 146.595 689.949 147.242 692.563C147.889 695.178 154.205 706.793 154.205 706.793C154.205 706.793 145.825 695.577 141.655 693.293C137.485 691.008 135.559 690.348 134.912 686.44C134.265 682.518 131.059 684.486 133.949 681.21C136.838 677.949 137.802 677.288 139.728 673.05C141.655 668.798 142.302 670.435 142.302 668.151C142.302 665.867 141.985 664.89 141.985 664.89C141.985 664.89 145.522 661.945 147.765 661.298C150.008 660.637 155.155 659.99 155.155 659.99L155.141 659.977Z" fill="url(#paint13_linear_185_68770)"/>
        <path fill-rule="evenodd" clip-rule="evenodd" d="M135.545 665.206C135.545 665.206 135.875 674.784 134.595 676.738C133.316 678.692 133.646 683.068 133.646 683.068C133.646 683.068 131.747 686.811 131.43 688.449C131.114 690.086 130.453 690.802 132.696 696.362C138.077 699.21 146.953 715.999 145.659 715.022C144.38 714.045 127.316 698.577 121.935 699.843C121.288 695.274 114.077 693.238 111.187 691.93C108.298 690.623 117.518 678.967 117.518 678.967C117.518 678.967 117.256 673.05 118.536 673.05C119.816 673.05 125.926 672.389 127.522 670.766C129.132 669.128 130.412 666.527 130.412 666.527L135.545 665.22V665.206Z" fill="url(#paint14_linear_185_68770)"/>
        <path fill-rule="evenodd" clip-rule="evenodd" d="M492.581 852.057C492.581 852.057 619.653 864.318 638.671 869.988C657.689 875.644 785.215 864.332 793.568 864.332C801.922 864.332 911.365 832.254 921.108 828.016C930.837 823.777 924.535 782.122 924.535 782.122C924.535 782.122 917.503 782.136 916.773 782.439C916.016 782.755 900.122 775.971 882.164 779.205C900.108 778.228 915.081 786.925 914.021 786.966C903.356 787.448 913.883 790.159 912.039 790.076C878.132 788.576 901.966 790.049 897.535 791.975C896.613 792.374 881.586 793.475 880.788 793.833C879.755 794.287 868.609 792.608 867.783 792.746C872.792 795.677 872.847 799.64 872.077 799.819C866.352 797.824 858.893 805.998 852.026 806.424C844.609 806.892 844.526 815.631 831.082 817.516C817.637 819.401 780.592 820.447 773.174 821.865C765.757 823.282 743.491 825.635 740.243 825.635C736.996 825.635 717.317 828.787 714.537 830.672C711.758 832.557 700.363 826.571 695.726 827.52C691.198 828.442 664.543 829.172 649.832 828.759C639.483 828.456 627.759 831.635 625.626 831.828C624.594 831.924 658.199 835.364 681.565 845.837C685.762 847.722 704.671 843.442 700.776 844.309C684.07 848.052 709.377 853.02 700.969 853.708C689.01 854.685 580.64 855.538 570.484 850.089C562.847 845.988 546.306 841.915 538.888 841.915C531.471 841.915 519.361 843.25 517.049 843.25C514.737 843.25 511.022 853.983 471.43 848.603C454.958 846.36 424.408 847.805 424.408 847.805C424.408 847.805 489.802 856.295 492.581 852.043V852.057Z" fill="url(#paint15_linear_185_68770)"/>
        <path fill-rule="evenodd" clip-rule="evenodd" d="M764.202 702.1C764.202 702.1 770.904 701.261 774.674 706.077C783.715 710.618 802.348 716.453 805.128 719.274C808.94 723.155 826.568 729.444 834.192 731.384C841.816 733.325 852.536 740.646 854.93 740.164C857.311 739.682 871.361 729.444 874.691 727.999C878.022 726.54 881.434 724.586 883.333 724.104C885.232 723.623 896.462 716.783 898.842 719.205C889.939 724.407 891.026 727.407 891.026 727.407C891.026 727.407 899.462 726.554 901.842 728.013C904.223 729.471 910.443 729.21 910.443 729.21C910.443 729.21 898.526 730.407 894.714 732.347C890.902 734.288 890.641 738.76 888.356 742.847C879.618 747.925 882.122 748.6 880.251 749.549C876.439 751.489 896.985 753.457 896.985 753.457C896.985 753.457 863.407 757.008 866.655 759.237C870.164 761.645 886.003 771.374 886.994 772.131C888.893 773.59 846.852 758.398 838.761 757.916C830.669 757.434 832.774 756.113 825.151 750.788C817.527 745.462 813.715 745.944 809.421 741.581C805.128 737.219 806.559 732.857 804.178 734.797C801.798 736.737 798.935 737.701 798.935 737.701C798.935 737.701 797.821 737.123 796.183 731.549C794.545 725.99 791.312 726.554 789.88 723.637C788.449 720.733 790.83 722.178 786.069 719.274C781.307 716.371 776.339 716.811 774.633 713.453C770.518 705.375 764.202 702.086 764.202 702.086V702.1Z" fill="url(#paint16_linear_185_68770)"/>
        <path fill-rule="evenodd" clip-rule="evenodd" d="M701.175 797.177C703.707 804.635 728.629 802.53 732.812 804.897C736.982 807.25 739.308 807.25 739.308 807.25C739.308 807.25 728.423 806.892 722.849 806.892C717.276 806.892 723.537 810.085 718.9 810.553C714.262 811.021 710.093 811.021 707.313 811.502C704.533 811.97 690.758 808.778 688.446 809.259C686.12 809.727 697.116 813.401 698.96 814.805C700.818 816.222 705.813 821.906 703.501 822.387C701.175 822.855 699.964 817.97 688.831 818.906C677.699 819.855 678.731 812.644 667.598 813.112C654.593 806.259 643.832 805.502 643.832 805.502C643.832 805.502 662.974 816.594 669.428 822.979C656.025 823.158 646.447 824.231 625.64 831.841C652.873 833.149 662.823 835.282 664.543 834.773C666.414 834.236 688.859 838.158 692.478 837.58C694.556 837.25 677.355 840.8 674.685 844.695C677.795 844.034 727.68 834.952 728.189 835.034C725.877 837.195 706.652 846.896 710.643 846.607C713.643 846.387 731.973 837.814 735.29 837.401C738.606 836.988 738.455 839.451 739.349 839.768C745.088 841.791 735.84 831.167 738.331 831.993C744.124 833.919 770.918 838.144 773.188 839.796C776.436 842.149 783.853 842.63 786.633 845.933C789.413 849.236 795.44 852.538 795.44 852.538C795.44 852.538 792.192 845.465 786.165 841.213C780.138 836.974 776.89 832.722 776.89 832.722C776.89 832.722 772.252 827.066 775.5 827.066C778.748 827.066 783.853 825.649 785.697 824.713C787.555 823.777 793.582 828.484 797.752 830.369C801.922 832.254 809.807 835.557 809.807 835.557L797.752 827.066C797.752 827.066 793.582 822.814 799.61 822.814C805.637 822.814 805.169 819.979 810.275 821.865C813.99 823.241 813.839 826.392 816.261 827.094C817.155 827.355 819.798 827.52 820.554 828.03C823.334 829.915 828.371 829.887 828.371 829.887C828.371 829.887 820.954 825.167 824.201 822.346C827.449 819.511 826.059 818.576 831.151 818.576C836.242 818.576 832.541 815.273 839.49 818.108C846.453 820.943 853.719 820.543 855.219 820.034C856.719 819.525 856.045 819.057 858.893 818.988C861.756 818.933 856.238 815.933 861.811 816.401C867.37 816.869 866.655 815.273 866.655 815.273C866.655 815.273 875.655 816.222 872.407 815.273C869.159 814.323 870.549 811.021 873.343 811.021C876.136 811.021 875.875 808.791 875.875 808.791L863.421 806.369C863.421 806.369 883.416 803.768 878.778 803.301C874.141 802.833 872.834 804.388 870.054 802.984C867.274 801.567 868.237 800.658 858.508 804.429C848.765 808.2 858.081 801.938 861.783 799.103C865.499 796.269 844.128 803.479 847.375 801.594C850.623 799.709 854.531 798.195 847.568 797.246C840.618 796.31 836.339 798.223 836.339 798.223C836.339 798.223 828.825 799.241 839.958 795.002C851.091 790.764 854.531 795.388 858.412 794.906C852.907 791.507 839.49 791.672 839.49 791.672C839.49 791.672 845.586 790.241 833.986 791.191C822.385 792.14 827.889 787.461 825.096 787.943C822.316 788.411 820.045 786.374 808.912 787.31C797.78 788.259 791.931 781.971 791.931 781.971L777.537 776.466C777.537 776.466 795.399 789.814 800.05 791.232C804.688 792.649 808.857 793.585 808.857 793.585C808.857 793.585 810.247 795.47 800.504 795.938C790.761 796.406 785.67 796.406 788.449 796.406C791.229 796.406 798.151 801.512 803.243 801.512C808.334 801.512 813.591 805.557 812.944 808.31C808.899 806.204 796.775 804.429 788.05 805.557C779.739 806.631 771.757 805.365 769.445 805.365C767.133 805.365 757.844 804.429 757.844 804.429C757.844 804.429 771.124 810.071 775.761 809.603C780.399 809.135 787.569 816.883 787.569 816.883C787.569 816.883 767.587 810.553 759.702 810.553C751.817 810.553 751.817 809.603 748.115 810.553C744.399 811.502 731.877 813.855 731.877 813.855C731.877 813.855 742.074 808.2 746.711 807.25C751.349 806.314 754.129 805.833 751.817 805.833C749.505 805.833 733.267 801.113 737.436 801.113C741.606 801.113 746.244 803.947 755.519 801.113C764.794 798.278 778.885 798.663 778.885 798.663C778.885 798.663 749.491 796.874 742.542 795.925C735.592 794.975 748.665 793.434 754.225 793.434C759.785 793.434 744.386 792.154 744.386 792.154C744.386 792.154 721.336 794.177 722.079 788.204C712.804 790.558 710.065 784.585 702.648 782.232C695.23 779.879 687.882 777.374 681.854 776.425C669.552 766.654 636.676 760.985 636.676 760.985C636.676 760.985 695.217 786.856 691.501 786.856C687.786 786.856 679.625 783.98 672.194 784.929C653.795 780.842 646.24 780.98 646.24 780.98C646.24 780.98 672.07 790.117 680.974 797.191C685.611 798.608 701.148 797.191 701.148 797.191L701.175 797.177Z" fill="url(#paint17_linear_185_68770)"/>
        <path fill-rule="evenodd" clip-rule="evenodd" d="M505.145 871.378C505.145 871.378 628.102 872.396 635.024 872.795C641.946 873.194 614.011 865.02 623.795 865.24C633.566 865.46 677.781 869.713 688.776 869.85C699.771 869.988 740.601 869.781 740.601 869.781C740.601 869.781 718.211 865.708 708.854 864.222C699.496 862.736 682.68 862.378 664.762 862.667C646.845 862.956 644.808 862.254 626.492 861.332C608.176 860.41 601.653 857.094 589.447 856.612C577.227 856.13 567.057 852.208 557.287 853.24C547.516 854.272 532.86 853.529 532.86 853.529C532.86 853.529 555.663 849.621 567.057 848.906C578.452 848.19 595.158 850.461 604.103 850.323C613.061 850.185 664.294 854.259 677.326 855.511C669.868 850.97 651.923 845.507 659.877 846.69C677.285 845.589 676.033 848.3 686.161 850.653C697.748 846.401 720.413 838.185 724.541 837.635C728.051 837.167 716.436 842.52 716.904 844.488C717.165 845.575 698.725 851.548 703.088 850.901C706.721 850.35 729.757 846.084 730.362 846.195C737.518 847.516 734.89 847.956 737.642 847.791C740.904 847.584 764.133 840.773 750.674 845.74C720.441 856.901 758.848 846.401 761.931 846.47C764.862 846.539 776.229 847.75 779.298 848.121C780.77 848.3 767.188 852.167 768.481 852.951C769.981 853.86 777.743 850.433 782.435 849.566C798.288 846.607 835.361 856.612 835.361 856.612C835.361 856.612 775.1 871.144 762.481 873.58C749.862 876.029 693.262 883.708 682.267 883.969C671.271 884.245 651.73 882.566 642.359 883.144C633.001 883.735 583.722 879.346 571.516 878.878C559.296 878.396 514.517 872.905 510.443 873.167C506.37 873.414 487.242 873.373 487.242 873.373C487.242 873.373 503.934 871.089 505.159 871.419L505.145 871.378Z" fill="url(#paint18_linear_185_68770)"/>
        <path fill-rule="evenodd" clip-rule="evenodd" d="M647.162 866.809C647.162 866.809 647.974 866.699 648.428 866.644C648.896 866.589 648.896 866.547 649.24 866.451C649.584 866.355 648.717 865.983 650.162 865.736C651.607 865.488 654.194 865.075 654.194 865.075C654.194 865.075 657.538 865.488 658.061 865.392C658.584 865.295 658.35 865.901 658.061 866.08C657.772 866.245 656.671 866.891 656.671 866.891C656.671 866.891 660.772 866.272 661.694 866.162C662.616 866.052 662.327 865.694 663.015 865.68C663.703 865.653 667.116 865.584 667.749 865.57C668.382 865.543 668.148 865.35 668.148 865.35C668.148 865.35 670.625 865.557 672.125 865.584C673.625 865.625 675.524 865.722 675.524 865.722C675.524 865.722 679.501 865.873 679.845 865.859C680.189 865.859 680.822 865.46 680.657 865.749C680.492 866.038 679.969 866.093 680.547 867.167C681.125 868.24 680.836 867.841 681.235 868.144C681.634 868.46 682.625 868.667 682.68 867.827C682.735 866.974 681.813 867.208 682.735 866.699C683.657 866.19 684.689 865.268 685.68 865.24C686.657 865.213 686.547 867.098 687.235 867.07C687.923 867.043 690.592 864.277 690.592 864.277C690.592 864.277 690.001 865.254 690.689 866.245C691.377 867.222 691.652 866.355 692.065 866.74C692.464 867.125 692.134 868.295 692.946 867.786C693.744 867.277 693.345 866.96 694.033 866.74C694.721 866.52 694.9 866.437 695.533 866.217C696.166 865.997 695.849 867.291 696.606 866.988C697.363 866.685 698.478 864.869 698.478 864.869C698.478 864.869 697.776 866.341 698.491 866.492C698.822 866.561 700.556 865.405 700.845 865.405C701.712 865.378 700.817 867.841 700.817 867.841C700.817 867.841 702.276 866.492 702.799 867.208C702.881 867.332 703.955 866.891 704.56 866.699C705.386 866.451 708.84 866.052 707.189 867.469C706.611 867.979 707.711 869.547 707.822 869.644C707.987 869.795 716.422 870.18 716.422 870.18C716.422 870.18 715.941 870.648 709.9 871.075C706.803 871.295 699.413 870.552 698.574 870.662C698.106 870.717 706.927 872.768 706.225 872.781C703.143 872.85 686.271 871.557 684.593 871.502C682.515 871.446 655.969 870.951 654.469 870.8C652.969 870.648 671.795 869.534 671.795 869.534L672.895 869.176C672.895 869.176 670.873 869.203 666.207 869.231C661.542 869.258 649.46 868.956 648.07 869.011C646.694 869.052 646.653 869.382 643.887 869.341C641.121 869.313 630.249 867.841 630.249 867.841C630.249 867.841 626.616 865.02 626.905 865.02C627.194 865.02 638.038 864.992 638.382 864.979C638.726 864.979 647.189 866.823 647.189 866.823L647.162 866.809Z" fill="url(#paint19_linear_185_68770)"/>
    </g>
    <defs>
        <linearGradient id="paint0_linear_185_68770" x1="-7.54486" y1="761.15" x2="1089.48" y2="761.15" gradientUnits="userSpaceOnUse">
            <stop offset="0.03" stop-color="#6BADB0"/>
            <stop offset="0.46" stop-color="#7BA390"/>
            <stop offset="0.7" stop-color="#859E7D"/>
            <stop offset="0.99" stop-color="#CCAB7D"/>
        </linearGradient>
        <linearGradient id="paint1_linear_185_68770" x1="147.036" y1="698.591" x2="242.856" y2="698.591" gradientUnits="userSpaceOnUse">
            <stop offset="0.03" stop-color="#6BA6A1"/>
            <stop offset="1" stop-color="#6B9C91"/>
        </linearGradient>
        <linearGradient id="paint2_linear_185_68770" x1="321.818" y1="760.145" x2="349.34" y2="811.062" gradientUnits="userSpaceOnUse">
            <stop offset="0.02" stop-color="#63969C"/>
            <stop offset="1" stop-color="#5C968A"/>
        </linearGradient>
        <linearGradient id="paint3_linear_185_68770" x1="286.74" y1="779.081" x2="525.21" y2="779.081" gradientUnits="userSpaceOnUse">
            <stop offset="0.03" stop-color="#6BA3B0"/>
            <stop offset="0.65" stop-color="#6B9A90"/>
            <stop offset="1" stop-color="#6B967D"/>
        </linearGradient>
        <linearGradient id="paint4_linear_185_68770" x1="236.663" y1="685.862" x2="386.069" y2="685.862" gradientUnits="userSpaceOnUse">
            <stop offset="0.02" stop-color="#63969C"/>
            <stop offset="1" stop-color="#7A8C7D"/>
        </linearGradient>
        <linearGradient id="paint5_linear_185_68770" x1="358.313" y1="681.197" x2="449.151" y2="681.197" gradientUnits="userSpaceOnUse">
            <stop offset="0.03" stop-color="#6B8A99"/>
            <stop offset="1" stop-color="#7A8C7D"/>
        </linearGradient>
        <linearGradient id="paint6_linear_185_68770" x1="378.171" y1="681.362" x2="476.289" y2="681.362" gradientUnits="userSpaceOnUse">
            <stop offset="0.02" stop-color="#B3AD80"/>
            <stop offset="0.57" stop-color="#939E89"/>
            <stop offset="1" stop-color="#789191"/>
        </linearGradient>
        <linearGradient id="paint7_linear_185_68770" x1="609.552" y1="712.861" x2="701.065" y2="712.861" gradientUnits="userSpaceOnUse">
            <stop offset="0.02" stop-color="#6B9CB0"/>
            <stop offset="0.65" stop-color="#749290"/>
            <stop offset="1" stop-color="#7A8C7D"/>
        </linearGradient>
        <linearGradient id="paint8_linear_185_68770" x1="661.983" y1="769.984" x2="963.438" y2="769.984" gradientUnits="userSpaceOnUse">
            <stop offset="0.04" stop-color="#A1AD94"/>
            <stop offset="1" stop-color="#B8A87D"/>
        </linearGradient>
        <linearGradient id="paint9_linear_185_68770" x1="930.934" y1="759.87" x2="935.392" y2="724.641" gradientUnits="userSpaceOnUse">
            <stop offset="0.03" stop-color="#BFA680"/>
            <stop offset="1" stop-color="#D1C27D"/>
        </linearGradient>
        <linearGradient id="paint10_linear_185_68770" x1="687.813" y1="724.393" x2="801.674" y2="724.393" gradientUnits="userSpaceOnUse">
            <stop offset="0.04" stop-color="#6B96B0"/>
            <stop offset="0.66" stop-color="#748F90"/>
            <stop offset="1" stop-color="#7A8C7D"/>
        </linearGradient>
        <linearGradient id="paint11_linear_185_68770" x1="209.608" y1="776.205" x2="296.015" y2="776.205" gradientUnits="userSpaceOnUse">
            <stop offset="0.03" stop-color="#6BADB0"/>
            <stop offset="0.65" stop-color="#6E9D90"/>
            <stop offset="1" stop-color="#70947D"/>
        </linearGradient>
        <linearGradient id="paint12_linear_185_68770" x1="4.74417" y1="736.476" x2="229.383" y2="736.476" gradientUnits="userSpaceOnUse">
            <stop offset="0.03" stop-color="#6B9CA8"/>
            <stop offset="1" stop-color="#7A999E"/>
        </linearGradient>
        <linearGradient id="paint13_linear_185_68770" x1="136.192" y1="692.715" x2="152.279" y2="683.123" gradientUnits="userSpaceOnUse">
            <stop offset="0.03" stop-color="#6B99A6"/>
            <stop offset="1" stop-color="#69919C"/>
        </linearGradient>
        <linearGradient id="paint14_linear_185_68770" x1="120.614" y1="704.178" x2="140.086" y2="686.949" gradientUnits="userSpaceOnUse">
            <stop offset="0.03" stop-color="#6B99A6"/>
            <stop offset="1" stop-color="#69919C"/>
        </linearGradient>
        <linearGradient id="paint15_linear_185_68770" x1="424.408" y1="824.947" x2="926.544" y2="824.947" gradientUnits="userSpaceOnUse">
            <stop offset="0.03" stop-color="#6BAD94"/>
            <stop offset="0.41" stop-color="#8AB18B"/>
            <stop offset="1" stop-color="#C2BA7D"/>
        </linearGradient>
        <linearGradient id="paint16_linear_185_68770" x1="764.216" y1="737.136" x2="910.471" y2="737.136" gradientUnits="userSpaceOnUse">
            <stop offset="0.02" stop-color="#B3AD80"/>
            <stop offset="0.57" stop-color="#939B7E"/>
            <stop offset="1" stop-color="#788C7D"/>
        </linearGradient>
        <linearGradient id="paint17_linear_185_68770" x1="773.106" y1="845.231" x2="697.405" y2="743.742" gradientUnits="userSpaceOnUse">
            <stop offset="0.03" stop-color="#94A680"/>
            <stop offset="1" stop-color="#A3A887"/>
        </linearGradient>
        <linearGradient id="paint18_linear_185_68770" x1="661.941" y1="821.534" x2="660.785" y2="900.565" gradientUnits="userSpaceOnUse">
            <stop offset="0.04" stop-color="#9EC98F"/>
            <stop offset="0.66" stop-color="#7EB783"/>
            <stop offset="1" stop-color="#6BAD7D"/>
        </linearGradient>
        <linearGradient id="paint19_linear_185_68770" x1="626.864" y1="868.529" x2="716.436" y2="868.529" gradientUnits="userSpaceOnUse">
            <stop stop-color="#5E9678"/>
            <stop offset="0.54" stop-color="#74B57A"/>
            <stop offset="1" stop-color="#8AD47D"/>
        </linearGradient>
        <clipPath id="clip0_185_68770">
            <rect width="1920" height="940" fill="white"/>
        </clipPath>
    </defs>
</svg>