<svg xmlns="http://www.w3.org/2000/svg" width="1920" height="940" viewBox="0 0 1920 940" fill="none">
    <path fill-rule="evenodd" clip-rule="evenodd" d="M674.415 716.632C674.415 716.632 677.503 716.856 679.354 716.179C681.206 715.498 681.413 717.085 683.057 717.994C684.704 718.899 687.585 720.033 689.644 720.938C691.702 721.844 693.761 721.844 697.26 722.072C700.759 722.296 703.847 721.844 705.494 721.844C707.142 721.844 707.756 723.43 711.463 723.43C715.169 723.43 721.96 723.883 723.811 723.43C725.662 722.977 728.131 723.659 729.161 723.883C730.19 724.111 731.219 726.603 731.219 727.284C731.219 727.965 731.535 729.111 731.726 729.111C731.917 729.111 732.971 728.953 733.066 729.373C733.162 729.796 733.116 732.222 733.403 732.429C733.689 732.641 734.025 732.799 734.025 732.799C734.025 732.799 737.138 733.43 738.861 733.642C740.583 733.854 744.414 733.011 744.991 733.854C745.564 734.697 750.162 734.908 750.162 734.908C750.162 734.908 758.397 734.908 759.738 735.332C761.078 735.751 765.868 735.12 773.912 735.332C781.955 735.544 775.688 733.741 788.277 738.073C800.865 742.404 729.07 772.964 710.894 772.234C705.179 772.005 669.115 777.728 639.8 770.107C599.328 759.584 563.393 735.241 562.837 735.12C561.878 734.908 583.523 733.854 586.972 733.011C590.421 732.168 592.72 729.215 594.443 729.427C596.165 729.639 600.187 731.744 601.723 731.744C603.259 731.744 606.513 731.956 608.426 731.744C610.344 731.532 618.192 726.47 619.728 725.208C621.259 723.941 620.878 723.31 622.027 723.31C623.177 723.31 622.218 724.996 625.09 723.098C627.963 721.2 628.539 719.302 630.644 719.722C632.752 720.145 636.384 717.703 637.534 718.335C638.683 718.966 643.668 724.784 644.05 725.627C644.432 726.47 647.856 726.644 650.346 726.221C652.837 725.801 658.706 723.866 660.046 722.6C661.387 721.333 662.37 720.527 663.329 720.527C664.288 720.527 663.91 718.007 664.678 717.375C665.446 716.744 667.417 713.185 668.185 713.397C668.953 713.609 674.411 716.628 674.411 716.628L674.415 716.632Z" fill="url(#paint0_linear_185_67361)"/>
    <path fill-rule="evenodd" clip-rule="evenodd" d="M668.073 713.368C668.073 713.368 672.066 717.056 672.842 718.75C672.975 719.037 671.153 718.978 671.153 719.19C671.153 720.664 672.153 722.575 673.992 724.265C674.884 724.302 676.943 724.892 679.632 725.831C681.064 726.333 696.384 726.225 698.094 726.898C699.663 727.512 687.601 728.899 689.274 729.61C693.694 730.029 696.015 735.585 699.335 738.343C701.485 740.129 710.624 741.271 711.724 742.857C709.931 741.677 701.875 741.661 699.372 740.847C688.759 737.4 674.345 733.725 674.129 734.452C671.638 733.397 663.022 737.23 660.532 737.442C658.041 737.653 650.662 738.081 650.662 738.081C650.662 738.081 659.382 742.288 669.152 743.766C673.622 745.162 683.194 748.251 688.336 747.296C695.998 746.561 696.293 749.144 697.832 750.892C698.687 750.851 704.403 751.839 710.94 751.179C716.846 750.585 723.541 748.305 725.749 748.816C729.073 749.584 716.394 754.335 716.651 754.526C717.161 754.962 705.44 754.925 698.443 756.358C694.989 757.068 676.441 757.761 675.303 758.301C674.008 759.094 665.89 749.962 655.854 750.934C639.148 752.554 609.667 757.383 607.874 756.461C605.002 754.987 627.203 746.723 631.42 745.668C635.633 744.613 639.845 741.241 640.995 738.077C642.145 734.913 643.295 734.07 644.058 734.07C644.822 734.07 649.421 731.96 651.143 731.96C652.866 731.96 656.892 732.172 656.892 732.172C656.892 732.172 655.169 729.431 653.252 729.219C651.334 729.007 648.653 727.745 646.93 727.11C645.208 726.478 638.887 719.306 637.546 718.252C636.766 719.157 634.865 719.938 634.097 720.993C633.329 722.047 627.203 726.898 626.817 727.953C626.435 729.007 628.348 728.796 629.498 730.693C630.648 732.591 623.754 734.489 622.027 735.544C620.305 736.599 611.493 736.387 609.766 735.332C608.044 734.277 599.614 731.113 599.614 731.113C597.825 730.482 596.037 729.846 594.252 729.215C594.252 729.215 599.614 733.43 599.423 734.485C599.232 735.54 593.293 734.697 591.38 735.328C589.466 735.959 582.763 736.802 582.763 736.802C574.08 736.383 565.397 735.959 556.714 735.536C556.714 735.536 589.985 768.347 600.905 770.456C611.821 772.566 740.973 774.966 756.297 767.798C771.621 760.631 793.071 736.167 793.071 736.167C793.071 736.167 769.242 731.325 768.284 731.325C767.325 731.325 748.183 730.382 747.415 729.958C746.647 729.535 742.285 729.502 741.326 729.502C740.367 729.502 739.342 730.1 739.151 729.049C738.96 727.994 736.196 728.526 735.237 727.683C734.278 726.84 731.771 726.462 731.389 725.619C731.008 724.776 730.24 723.09 729.476 723.09C728.712 723.09 715.111 722.458 713.58 722.458C712.048 722.458 708.599 721.404 707.067 720.561C705.536 719.718 697.683 721.615 695.956 721.192C694.234 720.772 687.336 719.713 686.186 718.239C685.036 716.765 683.696 714.655 682.355 715.075C681.015 715.494 677.565 715.287 676.802 715.287C676.038 715.287 674.693 714.672 673.93 714.02C673.162 713.372 668.92 713.044 668.065 713.356L668.073 713.368Z" fill="url(#paint1_linear_185_67361)"/>
    <path fill-rule="evenodd" clip-rule="evenodd" d="M1192.94 670.595C1192.94 670.595 1158.05 667.559 1154 666.546C1149.96 665.532 1143.39 662.497 1143.39 662.497C1143.39 662.497 1129.74 669.075 1126.2 668.568C1123.44 668.174 1114.52 667.887 1109.67 668.722C1108.3 668.958 1107.54 669.752 1106.98 670.084C1104.46 671.604 1086.25 672.11 1082.72 671.604C1079.17 671.097 1047.32 660.47 1047.32 660.47C1047.32 660.47 1032.16 651.359 1030.13 651.359C1028.11 651.359 1018.5 648.323 1014.46 649.332C1010.41 650.346 1005.86 651.359 1003.84 652.875C1001.82 654.395 992.574 662.688 990.553 661.674C988.531 660.661 980.583 658.946 980.583 658.946C979.309 659.299 978.724 659.88 978.113 660.454C977.985 660.325 977.694 660.42 977.346 660.599C975.756 661.45 974.175 662.326 972.494 662.999C970.904 663.481 969.63 663.863 968.04 664.345C967.525 664.602 966.866 664.992 966.571 665.296C965.222 665.429 964.413 665.773 963.392 666.039C963.392 666.039 940.136 663.003 936.089 661.99C932.043 660.977 928 655.412 924.966 654.399C921.932 653.385 914.855 652.879 912.83 652.372C910.808 651.866 905.753 653.892 903.728 655.408C901.706 656.928 889.57 660.47 889.57 660.47L877.941 675.653C877.941 675.653 864.796 682.737 862.774 685.773C860.753 688.809 827.885 701.462 824.855 703.991C821.821 706.52 809.183 710.063 809.183 710.063L793.51 717.147C793.51 717.147 783.4 725.245 780.366 726.761C777.332 728.281 755.591 733.846 755.591 733.846L726.774 738.908C726.774 738.908 719.191 744.472 714.638 745.992C710.089 747.512 695.931 752.064 692.391 752.57C688.851 753.077 651.774 764.157 646.312 762.637C643.489 761.852 617.756 759.123 599.083 758.692C581.651 758.289 566.173 762.72 566.634 762.72C566.634 762.72 682.239 802.553 817.737 799.518C953.239 796.482 1134.13 789.31 1182.67 768.052C1231.2 746.798 1275.35 688.298 1275.35 688.298C1275.35 688.298 1232.88 676.151 1226.31 673.622C1219.73 671.093 1192.94 670.586 1192.94 670.586V670.595Z" fill="url(#paint2_linear_185_67361)"/>
    <path fill-rule="evenodd" clip-rule="evenodd" d="M831.297 738.808C831.297 738.808 843.242 727.965 846.019 727.13C848.796 726.296 848.796 723.796 849.908 724.352C851.021 724.909 857.13 725.743 858.242 726.578C859.355 727.413 861.853 725.187 860.463 726.578C859.073 727.969 856.574 729.639 852.963 732.139C849.352 734.643 847.41 735.473 848.796 735.473C850.182 735.473 857.13 733.526 863.518 728.8C869.905 724.074 877.63 714.145 882.627 711.919C887.628 709.693 886.346 705.984 888.57 705.706C890.795 705.428 898.702 700.245 903.981 699.689C909.261 699.132 910.801 696.794 913.855 695.964C916.91 695.129 923.8 692.654 923.8 692.654C923.8 692.654 924.12 691.495 926.896 688.713C929.673 685.931 930.283 684.61 934.446 681.828C938.613 679.049 945.777 674.647 948.002 674.647C949.193 674.647 919.396 697.122 903.658 708.613C900.819 710.685 896.855 715.664 890.318 719.738C882.079 724.875 867.693 729.68 868.287 729.298C868.474 729.178 881.294 727.134 890.438 722.409C901.773 716.549 914.121 706.744 921.198 702.317C934.11 694.244 947.578 683.937 952.783 680.424C956.979 677.592 962.508 669.772 962.682 669.573C965.181 666.795 967.127 665.125 967.127 665.125C967.127 665.125 963.238 666.238 961.296 665.96C959.353 665.682 938.796 662.625 936.853 662.069C934.907 661.512 929.632 658.178 927.685 656.508C925.742 654.839 923.518 653.452 920.185 652.895C916.852 652.339 911.851 652.061 911.851 652.061C911.851 652.061 907.596 654.677 904.264 656.342C900.931 658.011 897.029 658.344 895.917 659.178C895.232 659.693 891.924 659.843 890.376 660.308C889.417 660.599 890.052 661.193 889.629 661.512C888.516 662.347 893.24 661.791 897.963 662.625C902.686 663.46 910.738 663.46 910.738 663.46C910.738 663.46 904.907 668.186 905.459 670.69C906.015 673.194 904.625 676.807 904.625 676.807L897.959 682.089C897.959 682.089 894.904 685.98 894.07 687.65C893.236 689.319 886.014 692.654 882.959 693.767C879.904 694.88 868.793 700.44 867.959 700.997C867.125 701.553 871.848 700.162 873.79 700.719C875.733 701.275 872.678 706.001 869.067 709.062C865.456 712.122 860.181 714.066 859.068 714.9C857.956 715.735 865.456 714.9 864.622 717.126C863.788 719.352 856.288 720.183 854.623 720.183C852.959 720.183 845.455 722.965 843.79 724.909C842.122 726.856 832.679 732.695 836.568 728.8C840.457 724.909 845.733 722.126 846.845 717.4C847.957 712.674 849.622 708.501 849.622 708.501C849.622 708.501 846.289 716.009 844.62 717.957C842.952 719.904 837.398 725.743 835.452 727.13C833.505 728.521 834.34 730.187 832.953 732.691C831.563 735.195 829.342 737.417 827.952 738.53C826.561 739.643 825.237 741.486 820.174 741.59C815.11 741.694 800.467 743.808 800.816 744.277C800.816 744.277 819.618 743.538 824.059 742.425C828.504 741.312 829.616 740.756 834.057 741.868C838.503 742.981 852.544 748.617 852.544 748.617C852.544 748.617 835.726 739.921 831.281 738.812L831.297 738.808Z" fill="url(#paint3_linear_185_67361)"/>
    <path fill-rule="evenodd" clip-rule="evenodd" d="M752.968 736.582C755.189 737.138 781.856 742.421 784.911 742.977C787.966 743.534 792.133 739.086 797.964 741.586C803.8 744.086 810.188 751.038 817.966 752.151C825.744 753.264 835.576 758.268 838.353 759.381C841.13 760.494 874.608 766.768 874.608 766.768C874.608 766.768 841.678 763.035 838.345 761.922C835.012 760.809 823.519 757.927 817.683 755.979C811.852 754.032 794.631 746.038 796.852 748.26C799.072 750.485 799.35 752.151 804.352 754.098C809.353 756.046 795.183 752.707 789.63 749.651C787.907 748.704 786.243 749.065 784.923 748.529C784.106 748.197 758.775 750.328 750.084 754.783C759.642 747.201 782.022 745.323 780.827 745.98C779.577 745.585 778.307 745.191 776.855 744.647C772.409 742.977 759.634 738.808 758.244 739.086C756.853 739.364 752.134 741.59 750.187 740.755C748.241 739.921 745.464 738.812 744.356 738.251C743.244 737.695 727.687 738.808 727.687 738.808C727.687 738.808 743.518 735.747 745.742 735.747C747.967 735.747 752.964 734.356 752.964 736.582H752.968Z" fill="url(#paint4_linear_185_67361)"/>
    <path fill-rule="evenodd" clip-rule="evenodd" d="M780.465 727.13C780.465 727.13 781.856 726.296 787.131 724.352C792.411 722.405 789.912 722.405 797.134 721.017C804.356 719.626 812.412 719.07 812.964 717.957C813.52 716.844 808.797 715.731 814.911 715.731C821.024 715.731 824.353 711.562 824.075 711.283C823.797 711.005 827.13 709.057 828.798 707.945C830.467 706.832 844.907 700.715 843.798 702.106C842.686 703.497 829.355 710.723 827.408 714.34C825.466 717.953 813.798 724.626 813.798 724.626C813.798 724.626 825.187 718.787 828.798 716.84C832.409 714.892 839.909 705.719 842.13 705.44C843.558 705.262 845.098 705.768 847.418 704.834C848.709 704.311 840.922 716.4 842.811 714.61C843.985 713.497 854.59 699.128 855.881 697.766C860.38 693.024 864.908 687.646 864.908 687.646C864.908 687.646 867.685 684.589 867.133 685.698C866.577 686.811 871.856 682.085 872.964 682.085C874.072 682.085 873.798 681.25 879.352 682.085C884.905 682.92 892.405 684.589 890.463 683.755C888.52 682.92 883.241 679.307 880.742 678.751C878.244 678.194 876.853 678.472 879.356 676.803C881.855 675.133 882.133 676.525 885.188 676.803C888.242 677.081 888.242 674.577 890.189 671.799C892.131 669.016 896.02 666.516 894.078 666.516C892.135 666.516 891.857 666.238 890.745 664.569C889.633 662.899 889.077 660.956 889.077 660.956C889.077 660.956 879.074 674.025 877.409 675.694C875.741 677.363 871.022 678.198 868.519 680.142C866.02 682.089 861.575 686.259 859.35 687.093C857.13 687.928 841.018 695.71 839.905 696.267C838.793 696.823 822.963 703.775 821.85 704.61C820.738 705.445 812.13 707.945 812.13 707.945C812.13 707.945 794.353 714.896 794.075 716.009C793.797 717.122 781.852 724.074 781.852 724.074C781.852 724.074 774.605 726.657 772.683 727.691C771.758 728.189 766.337 728.443 761.908 729.95C757.177 731.561 751.723 735.345 751.578 735.382C751.578 735.382 777.685 729.356 780.183 729.082C782.682 728.804 788.517 727.969 785.741 727.413C782.964 726.856 780.461 727.135 780.461 727.135L780.465 727.13Z" fill="url(#paint5_linear_185_67361)"/>
    <path fill-rule="evenodd" clip-rule="evenodd" d="M980.575 658.996C980.575 658.996 980.737 662.069 978.516 663.738C976.296 665.408 975.74 665.408 975.74 665.408C975.74 665.408 979.073 666.242 982.684 666.242C986.295 666.242 987.407 665.408 987.407 665.408C987.407 665.408 984.63 667.634 985.743 669.577C986.855 671.525 987.133 672.359 987.133 672.359C987.133 672.359 982.41 680.981 979.911 683.202C977.412 685.428 968.244 697.106 967.688 700.162C967.132 703.219 967.132 710.727 959.91 715.174C952.688 719.622 948.799 724.352 942.689 727.687C936.58 731.021 913.179 742.276 915.399 742.276C917.62 742.276 929.785 735.714 931.454 738.214C931.889 738.866 930.213 739.315 927.876 740.843C927.324 741.204 906.447 747.379 887.192 750.174C875.218 751.91 865.149 750.71 864.725 750.959C864.157 751.287 874.791 753.243 886.395 752.005C903.886 750.141 924.941 744.751 923.983 745.274C917.537 748.791 899.922 754.202 897.332 754.277C900.15 756.769 927.971 748.538 921.306 752.429C914.64 756.324 886.582 760.215 884.362 760.494C882.141 760.772 914.64 763.828 926.029 761.328C937.418 758.824 967.696 758.546 975.196 757.159C982.696 755.768 998.979 754.368 998.979 754.368C998.979 754.368 1017.29 759.75 1022.84 758.637C1028.4 757.525 1059.29 760.809 1069.84 754.971C1080.4 749.132 1088.46 739.9 1094.57 738.509C1100.67 737.118 1104.92 719.344 1104.92 719.344C1104.92 719.344 1175.47 700.993 1186.03 697.38C1196.58 693.763 1222.41 671.52 1222.41 671.52C1222.41 671.52 1165.47 667.908 1162.97 666.795C1160.47 665.682 1145.47 662.069 1144.08 662.069C1142.69 662.069 1141.68 663.805 1136.12 666.026C1130.57 668.252 1128.8 668.464 1127.69 668.464C1126.58 668.464 1111.3 668.186 1109.64 668.742C1112.38 669.789 1110.93 671.587 1113.7 671.587C1116.48 671.587 1118.25 672.355 1120.75 672.633C1123.25 672.912 1123.8 672.912 1123.8 672.912C1123.8 672.912 1118.24 674.025 1115.47 674.025C1112.69 674.025 1106.3 673.746 1103.52 673.468C1100.75 673.19 1084.63 673.468 1082.13 672.355C1079.64 671.242 1055.75 662.625 1054.35 662.069C1052.96 661.512 1036.3 654.282 1035.19 653.452C1034.08 652.617 1030.46 650.948 1029.36 650.669C1028.24 650.391 1014.91 649 1014.91 649C1014.91 649 1008.52 653.169 1007.97 654.561C1007.41 655.952 1005.19 657.065 1003.25 657.065C1001.3 657.065 997.692 660.125 996.58 660.404C995.467 660.682 992.379 661.255 991.661 661.662C992.774 661.94 984.078 659.291 984.078 659.291C982.617 659.311 982.352 659.133 980.583 658.996H980.575Z" fill="url(#paint6_linear_185_67361)"/>
    <path fill-rule="evenodd" clip-rule="evenodd" d="M1030.18 658.178C1030.18 658.178 1026.02 660.404 1023.79 659.569C1021.57 658.734 1023.79 660.96 1024.35 663.46C1024.9 665.96 1022.4 668.186 1023.51 669.299C1024.62 670.412 1026.01 672.633 1028.79 675.138C1031.56 677.642 1030.73 677.085 1032.12 677.642C1033.51 678.198 1045.21 685.22 1047.98 686.612C1050.76 688.003 1052.06 690.042 1056.23 691.433C1060.39 692.824 1065.22 698.19 1072.16 699.581C1073.24 699.734 1072.3 699.257 1070.01 701.848C1062.86 704.784 1059.63 713.052 1059.63 713.052C1059.63 713.052 1093.27 715.897 1098.27 715.897C1103.27 715.897 1111.79 711.371 1118.18 712.758C1124.57 714.149 1134.49 711.877 1139.21 714.66C1143.93 717.438 1144.62 704.614 1144.62 704.614C1149.66 690.565 1171.78 703.015 1185.15 701.009C1186.37 700.827 1151.4 683.248 1193.76 683.248C1195.15 683.248 1164.88 682.206 1156.82 682.206C1153.59 682.206 1145.92 685.204 1143.2 685.233C1139.15 685.274 1140.48 680.619 1138.66 680.121C1135.6 679.286 1117.28 685.05 1117.28 685.05C1117.28 685.05 1126.57 677.372 1134.63 676.815C1142.68 676.259 1142.95 674.868 1142.95 674.868C1142.95 674.868 1127.16 672.92 1125.21 672.364C1124.45 672.148 1125.04 674.34 1122.96 674.689C1119.71 675.233 1112.87 674.349 1111.56 675.146C1094.88 685.279 1108.79 675.266 1106.4 675.262C1101.26 675.25 1094.19 675.059 1092.67 674.868C1090.45 674.589 1079.89 672.363 1077.39 670.976C1074.9 669.585 1049.34 659.299 1047.67 658.464C1046 657.629 1036.56 654.017 1035.17 652.904C1033.78 651.791 1027.39 650.956 1025.45 650.121C1023.51 649.287 1014.9 649.008 1014.9 649.008C1014.9 649.008 1024.06 652.065 1024.62 653.734C1025.17 655.404 1022.95 654.291 1024.34 655.125C1025.73 655.96 1032.12 657.629 1030.17 658.182L1030.18 658.178Z" fill="url(#paint7_linear_185_67361)"/>
    <path fill-rule="evenodd" clip-rule="evenodd" d="M1143.51 662.347C1143.51 662.347 1143.23 664.573 1146.57 666.238C1149.9 667.908 1151.29 668.742 1151.29 668.742C1151.29 668.742 1144.35 668.464 1142.12 668.186C1139.9 667.908 1138.79 667.629 1138.79 667.629C1138.79 667.629 1142.12 669.299 1145.45 669.855C1148.79 670.412 1145.84 675.009 1156.42 674.452C1166.99 673.892 1174.33 681.417 1182.66 681.973C1191 682.529 1206.56 677.92 1209.9 678.476C1213.23 679.033 1222.96 671.803 1222.96 671.803C1222.96 671.803 1198.24 670.416 1185.18 669.859C1179.14 669.602 1172.5 666.894 1168.26 666.255C1163.34 665.511 1160.39 665.985 1159.35 665.686C1157.4 665.129 1151.29 663.738 1149.9 663.186C1148.51 662.629 1143.52 662.351 1143.52 662.351L1143.51 662.347Z" fill="url(#paint8_linear_185_67361)"/>
    <path fill-rule="evenodd" clip-rule="evenodd" d="M991.981 661.953C991.981 661.953 991.018 663.734 994.073 663.734C997.127 663.734 996.849 662.899 999.074 662.899C1001.3 662.899 1002.41 661.23 1001.85 663.178C1001.29 665.125 1001.29 668.182 1002.96 669.573C1004.63 670.964 1008.24 674.855 1008.79 675.968C1009.35 677.081 1013.52 682.363 1013.52 686.255C1013.52 690.146 1011.3 688.759 1014.07 692.372C1016.85 695.985 1017.68 697.098 1017.68 697.098C1017.68 697.098 1017.13 699.045 1019.63 701.267C1022.13 703.489 1022.68 706.549 1026.29 708.775C1029.9 711.001 1036.85 717.396 1036.85 717.396C1036.85 717.396 1024.35 711.557 1022.68 709.888C1021.01 708.219 1021.85 708.219 1019.63 707.94C1017.41 707.662 1015.74 703.771 1014.35 702.102C1012.96 700.432 1012.41 700.154 1008.52 695.706C1004.63 691.259 1002.68 686.807 1002.68 686.807C1002.68 686.807 1000.46 695.15 1001.02 697.928C1001.58 700.706 1002.13 702.376 1002.13 702.376C1002.13 702.376 1000.19 708.215 999.634 709.606C999.078 710.997 999.078 705.158 999.078 702.932C999.078 700.706 996.301 701.819 996.579 697.372C996.858 692.924 999.356 686.529 997.97 682.359C996.579 678.19 996.858 677.077 994.637 674.016C992.416 670.956 991.582 672.625 991.86 675.408C992.138 678.19 990.748 681.246 988.527 682.638C986.307 684.029 984.917 683.472 984.917 683.472C984.917 683.472 983.526 687.085 982.14 687.92C980.749 688.755 980.749 687.085 977.695 689.589C974.64 692.093 969.917 695.985 969.36 697.654C968.804 699.323 967.418 700.989 967.418 700.989C967.418 700.989 971.029 691.537 972.975 690.146C974.918 688.755 973.254 688.476 977.143 685.142C981.032 681.807 980.882 676.13 981.99 674.187C983.103 672.239 987.419 670.686 987.971 669.295C988.527 667.904 988.918 667.758 987.809 667.758C986.797 667.758 988.59 666.23 987.353 665.516C987.473 665.636 984.398 666.45 984.053 666.222C984.394 665.844 985.888 664.739 985.581 664.681C985.02 664.577 984.705 664.585 983.808 663.688C984.053 662.036 980.637 658.946 980.637 658.946C980.637 658.946 989.495 659.453 991.993 661.957L991.981 661.953Z" fill="url(#paint9_linear_185_67361)"/>
    <path fill-rule="evenodd" clip-rule="evenodd" d="M926.016 655.117C926.016 655.117 929.349 658.456 931.296 659.843C933.242 661.234 937.683 662.069 936.297 662.347C934.907 662.625 927.963 664.295 926.298 665.96C924.63 667.629 922.131 667.351 922.131 667.351C922.131 667.351 920.463 667.073 918.52 667.629C916.574 668.186 912.411 669.021 914.909 668.186C917.408 667.351 914.075 666.238 916.3 665.129C918.52 664.016 918.246 664.295 917.69 662.903C917.134 661.512 920.467 659.012 920.745 657.621C921.023 656.23 921.579 655.952 919.911 655.117C918.246 654.282 917.968 652.613 917.968 652.613C917.968 652.613 924.912 653.448 926.024 655.117H926.016Z" fill="url(#paint10_linear_185_67361)"/>
    <path fill-rule="evenodd" clip-rule="evenodd" d="M1049.07 659.286C1049.07 659.286 1062.88 662.704 1075.72 668.933C1084.73 673.306 1092.64 680.644 1097.68 682.363C1109.91 686.533 1116.57 689.95 1120.46 690.229C1124.35 690.507 1130.18 692.65 1137.96 693.206C1145.74 693.763 1166.01 694.041 1162.68 695.71C1159.35 697.38 1153.79 701.271 1153.79 701.271C1153.79 701.271 1155.4 699.946 1144.28 699.668C1136.31 699.469 1111.56 701.865 1106.35 701.204C1104.3 700.943 1157.02 718.293 1153.96 718.293C1152.17 718.293 1124.47 709.091 1122.96 709.024C1115.26 708.684 1104.08 703.086 1102.68 704.713C1101.34 706.279 1100.27 705.311 1097.21 705.64C1096.47 705.718 1071.92 710.889 1070.72 711.271C1067.84 712.188 1089.73 704.884 1087 704.14C1083.92 703.302 1081.13 702.101 1079.07 702.101C1075.18 702.101 1074.34 700.71 1071.57 702.101C1068.79 703.493 1063.47 705.785 1063.47 705.785C1063.47 705.785 1068.79 700.154 1071.85 699.876C1074.9 699.597 1077.12 699.597 1083.23 697.65C1089.34 695.702 1091.85 696.537 1091.57 693.758C1091.29 690.98 1089.35 689.311 1088.24 689.311C1087.12 689.311 1095.18 687.92 1096.57 687.92C1097.96 687.92 1099.9 686.807 1097.13 686.528C1094.35 686.25 1064.91 675.407 1069.07 677.907C1073.24 680.411 1084.89 692.733 1081.41 692.521C1078.25 689.199 1065.18 681.803 1059.07 674.573C1052.96 667.343 1046.29 665.399 1041.02 663.452C1035.74 661.504 1035.19 662.617 1034.08 660.669C1032.96 658.721 1026.85 660.669 1025.19 660.113C1023.52 659.556 1022.97 659.278 1022.97 659.278C1022.97 659.278 1027.69 659.278 1030.19 657.887C1032.69 656.496 1032.69 656.217 1031.02 655.383C1029.36 654.548 1032.14 655.661 1028.8 653.157C1025.47 650.653 1023.81 649.822 1023.81 649.822C1023.81 649.822 1030.19 649.544 1033.53 651.492C1036.86 653.439 1048.53 659 1049.08 659.278L1049.07 659.286Z" fill="url(#paint11_linear_185_67361)"/>
    <path fill-rule="evenodd" clip-rule="evenodd" d="M967.696 726.728C967.696 726.728 958.1 738.825 954.9 740.249C951.7 741.673 948.5 744.165 947.79 745.585C947.08 747.01 939.261 750.922 941.037 751.279C942.813 751.636 940.68 750.922 948.147 751.279C955.61 751.636 958.1 750.211 966.272 749.501C974.449 748.791 973.382 748.077 978.002 746.657C982.621 745.232 989.374 739.543 995.064 736.694C1000.75 733.85 1004.31 731.715 1012.13 730.291C1019.95 728.866 1024.32 727.446 1024.32 727.446C1024.32 727.446 1025.99 727.089 1032.74 726.736C1039.5 726.379 1045.9 723.891 1045.9 723.891C1045.9 723.891 1035.59 728.87 1030.26 729.585C1024.92 730.295 1022.79 731.719 1019.95 733.144C1017.11 734.564 1014.97 736.345 1007.51 739.904C1000.05 743.463 996.139 743.816 998.983 743.816C1001.83 743.816 1003.25 742.039 1011.78 740.967C1020.31 739.9 1028.48 737.766 1037.01 736.698C1045.54 735.631 1052.3 732.786 1057.99 730.652C1063.67 728.517 1079.08 730.378 1086.19 730.021C1093.3 729.664 1110.95 718.555 1110.95 718.555C1110.95 718.555 1096.23 735.054 1093.74 736.831C1092.35 737.824 1072.02 742.558 1053.37 746.599C1049.35 747.466 1040.93 751.108 1030.29 755.187C1022.84 758.044 1100.11 740.83 1095.97 753.679C1091.39 754.962 1000.07 769.082 995.533 770.137C975.308 774.833 886.848 786.307 885.748 786.374C884.42 786.457 968.26 767.703 984.734 762.034C997.381 757.682 1010.52 753.92 1007.72 754.252C998.559 755.34 988.336 756.706 985.834 757.333C982.061 758.276 957.436 764.414 938.995 765.452C937.355 765.544 887.736 778.33 846.488 785.979C827.562 789.493 792.241 792.703 781.653 789.219C788.962 790.14 821.024 788.288 835.012 784.962C872.74 775.996 922.659 763.093 917.993 764.601C902.537 765.66 886.653 768.006 884.175 768.006C880.975 768.006 874.222 768.077 870.312 768.43C866.402 768.787 847.438 774.335 847.438 774.335C847.438 774.335 845.077 774.767 830.147 776.187C811.989 780.149 740.355 784.447 742.131 784.447C743.908 784.447 825.171 774.41 830.5 773.342C835.834 772.275 856.802 768.363 852.892 767.296C851.037 766.789 843.255 766.146 836.66 764.144C835.622 763.828 824.461 761.794 814.454 762.487C807.693 762.956 801.754 764.887 801.11 764.688C800.732 764.572 808.042 761.449 813.74 760.664C822.216 759.493 830.293 760.523 829.795 760.365C826.08 759.198 823.577 758.355 824.042 758.355C825.466 758.355 853.623 764.734 858.956 764.024C864.285 763.313 897.681 761.603 905.5 761.603C913.32 761.603 912.61 759.468 916.163 760.178C919.716 760.888 952.816 755.697 951.04 755.697C949.263 755.697 936.426 755.552 933.583 754.838C930.74 754.128 932.873 753.455 926.473 754.169C920.073 754.879 922.248 754.211 917.628 754.925C915.686 755.224 910.713 756.947 904.994 757.994C897.116 759.439 888.292 760.261 888.292 760.261C888.222 760.261 898.411 758.035 906.945 755.29C913.544 753.168 918.653 750.481 920.43 749.858C924.339 748.434 928.959 748.081 931.449 746.3C933.935 744.522 915.038 748.372 919.301 746.947C922.318 745.942 901.607 754.011 890.214 751.121C904.147 750.693 919.222 740.76 926.124 737.803C935.064 733.97 944.22 727.11 944.22 727.11C944.22 727.11 934.4 734.427 932.89 737.384C931.628 739.85 938.493 737.986 939.622 738.472C942.108 739.539 946.375 736.337 946.375 736.337C946.375 736.337 950.994 735.98 954.194 732.425C957.394 728.866 958.814 728.156 961.657 723.177C964.5 718.198 963.79 715.349 965.567 711.08C967.343 706.811 968.41 696.848 968.41 698.626C968.41 700.403 969.477 712.5 966.986 717.126C964.496 721.752 963.433 726.732 961.653 729.223C959.876 731.715 954.543 737.761 954.543 737.761C954.543 737.761 966.625 728.509 967.696 726.732V726.728Z" fill="url(#paint12_linear_185_67361)"/>
    <path fill-rule="evenodd" clip-rule="evenodd" d="M789.622 768.355C789.622 768.355 785.861 765.153 782.512 764.796C780.237 764.555 778.282 764.642 776.805 764.501C775.643 763.276 749.087 765.764 743.335 768.097C747.141 764.057 770.99 760.851 770.87 762.882C765.026 761.395 754.342 759.202 745.547 759.464C733.461 759.821 725.288 759.107 723.865 759.464C722.445 759.821 713.202 759.107 711.069 759.107C708.935 759.107 702.182 758.039 693.296 757.682C684.41 757.329 657.747 762.08 657.747 762.08C657.747 762.08 684.057 754.123 686.9 754.123C689.743 754.123 695.786 754.123 705.739 755.548C715.692 756.972 730.265 758.039 725.998 757.682C721.731 757.329 716.402 754.838 712.845 754.48C709.292 754.123 708.225 753.413 708.225 753.413C708.225 753.413 712.845 751.989 721.379 753.413C729.908 754.838 741.994 757.325 749.457 757.682C756.92 758.039 761.186 759.107 765.453 759.817C769.72 760.527 775.759 761.951 775.759 761.951C775.759 761.951 789.978 764.443 792.465 765.153C794.955 765.863 802.418 769.065 805.614 769.065C808.81 769.065 817.343 773.691 819.476 773.691C821.61 773.691 834.406 771.914 836.182 771.914C837.959 771.914 841.159 771.204 841.159 771.204C841.159 771.204 814.5 776.897 811.657 776.897C808.814 776.897 805.971 778.322 790.688 779.742C780.719 780.672 775.713 782.366 768.433 781.694C767.213 781.581 747.979 784.052 746.585 783.874C745.892 783.787 763.291 779.85 762.544 779.742C760.008 779.376 757.123 778.911 753.724 778.322C735.241 775.12 717.112 771.561 717.112 771.561C717.112 771.561 740.571 772.628 751.59 774.053C762.61 775.477 762.61 776.897 769.363 775.83C776.116 774.763 779.316 773.695 782.159 773.695C785.002 773.695 791.045 774.405 792.469 774.763C793.892 775.12 798.512 774.405 796.379 773.338C794.245 772.271 789.626 768.359 789.626 768.359L789.622 768.355Z" fill="url(#paint13_linear_185_67361)"/>
    <path fill-rule="evenodd" clip-rule="evenodd" d="M1114.52 718.542C1114.52 718.542 1094.05 712.575 1080.31 712.575C1066.57 712.575 1062.42 711.018 1061.64 711.279C1060.87 711.537 1066.83 709.722 1066.57 708.165C1066.31 706.607 1066.05 705.312 1066.05 705.312C1066.05 705.312 1066.05 702.716 1068.13 702.197C1070.2 701.678 1071.5 700.121 1071.5 700.121C1071.5 700.121 1066.05 701.159 1064.24 703.493C1062.42 705.827 1055.73 708.638 1055.73 708.638C1055.73 708.638 1053.09 705.831 1052.57 704.531C1052.05 703.235 1059.57 707.126 1050.24 702.455C1040.91 697.783 1039.35 694.93 1033.39 691.039C1027.43 687.147 1027.43 679.88 1024.06 677.546C1020.69 675.212 1019.65 670.279 1018.88 669.245C1018.1 668.207 1019.65 667.168 1022.25 669.245C1024.84 671.321 1025.62 672.359 1028.73 674.693C1031.84 677.027 1038.32 679.103 1037.03 678.584C1035.73 678.065 1026.96 670.021 1026.19 667.688C1025.41 665.354 1023.81 660.424 1022.51 660.424C1021.22 660.424 1016.55 663.02 1015 662.239C1013.44 661.463 1012.41 660.163 1011.37 659.905C1010.33 659.648 1008.52 655.752 1007.48 655.752C1006.44 655.752 1003.85 659.386 1002.55 661.201C1001.26 663.016 1003.07 663.535 998.144 665.092C993.217 666.649 990.885 666.388 991.922 666.907C992.96 667.426 994.516 667.945 997.625 667.683C1000.73 667.426 1002.29 667.422 1003.33 667.683C1004.37 667.941 1011.11 674.947 1012.66 676.246C1014.21 677.542 1019.92 682.733 1020.44 684.029C1020.96 685.324 1022.51 686.882 1022.51 686.882C1022.51 686.882 1022.25 683.767 1020.7 681.433C1019.14 679.099 1018.62 678.061 1018.62 678.061C1018.62 678.061 1024.58 684.029 1025.62 686.624C1026.66 689.22 1026.66 693.892 1026.66 695.445C1026.66 696.998 1025.36 698.559 1028.21 700.374C1031.07 702.189 1032.36 702.708 1033.4 704.784C1034.44 706.861 1035.99 708.418 1035.99 708.418C1035.99 708.418 1035.73 705.046 1034.44 702.712C1033.14 700.378 1034.44 702.712 1032.36 699.34C1030.29 695.968 1030.03 695.187 1030.03 695.187C1030.03 695.187 1034.96 699.078 1037.55 700.636C1040.14 702.193 1040.65 700.378 1042.73 701.674C1044.8 702.969 1048.17 702.455 1046.36 703.493C1044.55 704.531 1039.86 707.87 1039.08 709.946C1038.31 712.023 1043.25 705.569 1045.84 706.088C1048.44 706.607 1046.88 705.831 1049.73 707.384C1052.58 708.941 1058.44 708.572 1058.34 709.452C1055.84 711.063 1054.08 712.637 1052.79 714.971C1051.49 717.305 1047.95 719.311 1045.1 721.387C1042.25 723.463 1045.07 723.729 1040.66 726.067C1036.25 728.401 1027.18 729.958 1028.21 729.958C1029.25 729.958 1036.51 729.958 1045.58 727.882C1054.65 725.806 1063.73 720.1 1068.91 720.619C1074.09 721.138 1079.48 724.091 1081.3 724.871C1083.11 725.652 1095.49 728.447 1100.68 728.708C1105.86 728.97 1114.53 718.547 1114.53 718.547L1114.52 718.542Z" fill="url(#paint14_linear_185_67361)"/>
    <path fill-rule="evenodd" clip-rule="evenodd" d="M866.68 729.219C866.68 729.219 886.848 719.522 892.127 717.579C897.407 715.631 875.675 722.126 874.309 721.275C882.606 715.32 890.762 711.69 891.318 710.577C891.874 709.464 893.858 706.275 899.968 706.275C906.077 706.275 910.103 706.263 909.825 705.984C909.547 705.706 912.88 703.759 914.548 702.65C916.217 701.537 930.661 695.42 929.548 696.811C928.436 698.202 915.105 705.432 913.158 709.045C912.278 710.677 910.747 713.879 907.974 717.517C906.131 719.938 889.683 726.782 878.082 733.43C868.531 738.908 863.298 744.593 863.298 744.593C863.298 744.593 870.976 740.797 878.397 737.57C889.226 732.861 901.91 727.753 909.265 724.128C911.257 723.148 915.466 719.269 915.964 718.999C919.575 717.052 925.655 701.807 927.88 701.533C929.905 701.279 932.163 701.259 936.546 697.467C936.799 697.247 932.267 704.174 929.677 710.357C927.95 714.481 927.764 718.754 927.946 718.58C928.407 718.144 929.669 713.53 931.981 709.057C935.654 701.952 943.175 695.964 943.996 695.474C948.604 692.741 951.115 689.743 951.115 689.743C951.115 689.743 953.891 686.682 953.335 687.795C952.779 688.908 958.058 684.182 959.171 684.182C960.283 684.182 960.005 683.348 965.558 684.182C971.112 685.017 966.384 684.145 964.442 683.31C962.499 682.476 969.447 681.404 966.949 680.848C964.446 680.291 963.06 680.569 965.558 678.9C968.057 677.231 974.565 673.771 977.62 674.05C976.292 672.019 968.908 673.672 969.933 672.276C971.876 669.494 972.536 669.07 970.593 669.07C968.651 669.07 972.755 666.022 976.719 661.811C980.683 657.605 965.596 668.356 965.596 668.356C965.596 668.356 961.362 671.957 959.698 673.626C958.029 675.295 954.925 676.13 952.426 678.074C949.928 680.021 947.325 680.956 945.105 681.79C942.884 682.625 926.772 690.407 925.659 690.964C924.547 691.52 908.717 698.472 907.605 699.307C906.492 700.141 897.884 702.641 897.884 702.641C897.884 702.641 884.988 706.94 884.71 708.053C884.432 709.165 868.067 726.159 868.067 726.159C868.067 726.159 863.659 729.817 861.438 730.926C859.218 732.039 847.144 737.076 847.144 737.076C847.144 737.076 863.9 731.441 866.398 731.163C868.897 730.884 874.732 730.05 871.951 729.493C869.175 728.937 866.676 729.215 866.676 729.215L866.68 729.219Z" fill="url(#paint15_linear_185_67361)"/>
    <path fill-rule="evenodd" clip-rule="evenodd" d="M578.279 738.261C578.998 739.341 593.927 742.925 617.224 747.377C618.203 746.845 623.4 746.143 634.536 745.786C636.848 745.711 608.807 758.726 611.359 758.672C613.775 758.618 649.909 747.061 652.478 747.024C679.851 746.637 713.89 745.94 719.829 749.341C726.225 748.469 652.279 751.347 667.69 756.106C732.331 766.247 817.483 775.885 871.726 770.678C935.648 764.544 986.422 759.154 1014.46 754.532C1028.74 752.177 1038.28 748.182 1038.28 748.182C1087.18 740.907 1123.49 761.475 1100.45 770.142C1039.09 793.219 817.931 827.808 752.108 824.921C661.564 820.951 497 707.165 497 707.165C497 707.165 563.753 735.612 578.292 738.257L578.279 738.261Z" fill="url(#paint16_linear_185_67361)"/>
    <path fill-rule="evenodd" clip-rule="evenodd" d="M1030.66 761.023C1018.75 762.248 971.106 759.519 951.748 761.899C916.825 766.193 880.097 775.138 856.547 776.5C782.44 780.777 701.969 776.405 638.47 766.355C694.631 782.833 830.851 787.389 812.929 787.85C768.079 789.008 705.551 788.448 660.887 779.274C583.563 763.398 518.134 719.736 518.134 719.736C518.134 719.736 601.41 775.304 633.793 787.875C666.175 800.445 753.415 805.736 790.425 803.09C826.946 806.849 1010.79 784.669 1030.66 761.023H1030.66Z" fill="url(#paint17_linear_185_67361)"/>
    <path fill-rule="evenodd" clip-rule="evenodd" d="M1081.89 764.062C1081.89 764.062 995.312 752.817 935.167 773.988C875.026 795.158 788.446 797.804 762.011 800.449C753.365 801.313 726.059 804.324 707.776 803.667C670.16 802.318 635.777 795.815 635.777 795.815C626.691 802.143 794.987 852.948 849.682 847.737C904.382 842.525 1127.49 782.584 1138.73 778.618C1149.96 774.648 1081.89 764.062 1081.89 764.062V764.062Z" fill="url(#paint18_linear_185_67361)"/>
    <path fill-rule="evenodd" clip-rule="evenodd" d="M1075.94 762.738C1075.94 762.738 988.04 766.708 934.507 778.614C880.973 790.524 773.284 808.746 734.289 809.407C695.295 810.067 670.803 806.396 670.803 806.396C670.803 806.396 751.431 819.627 815.54 814.336C879.649 809.041 930.539 788.535 930.539 788.535C930.539 788.535 884.277 810.366 848.587 817.642C812.896 824.917 717.011 827.081 717.011 827.081C717.011 827.081 795.493 854.738 882.073 846.138C968.649 837.537 1130.8 769.349 1130.8 769.349L1075.94 762.734V762.738Z" fill="url(#paint19_linear_185_67361)"/>
    <defs>
        <linearGradient id="paint0_linear_185_67361" x1="678.329" y1="764.497" x2="674.253" y2="710.337" gradientUnits="userSpaceOnUse">
            <stop stop-color="#E8BAA6"/>
            <stop offset="0.68" stop-color="#FDC2A1"/>
            <stop offset="1" stop-color="#F7D39E"/>
        </linearGradient>
        <linearGradient id="paint1_linear_185_67361" x1="670.435" y1="717.259" x2="681.42" y2="763.016" gradientUnits="userSpaceOnUse">
            <stop offset="0.02" stop-color="#E3B8BF"/>
            <stop offset="0.41" stop-color="#E0B8B0"/>
            <stop offset="1" stop-color="#E8BAA6"/>
        </linearGradient>
        <linearGradient id="paint2_linear_185_67361" x1="944.2" y1="786.71" x2="892.003" y2="649.251" gradientUnits="userSpaceOnUse">
            <stop stop-color="#96919C"/>
            <stop offset="1" stop-color="#D6ABA8"/>
        </linearGradient>
        <linearGradient id="paint3_linear_185_67361" x1="898.71" y1="729.643" x2="877.347" y2="693.507" gradientUnits="userSpaceOnUse">
            <stop stop-color="#A896C2"/>
            <stop offset="1" stop-color="#C7A3B3"/>
        </linearGradient>
        <linearGradient id="paint4_linear_185_67361" x1="874.612" y1="751.042" x2="727.687" y2="751.042" gradientUnits="userSpaceOnUse">
            <stop stop-color="#A891A6"/>
            <stop offset="1" stop-color="#BFA399"/>
        </linearGradient>
        <linearGradient id="paint5_linear_185_67361" x1="832.061" y1="717.434" x2="820.218" y2="695.82" gradientUnits="userSpaceOnUse">
            <stop stop-color="#D5A6B0"/>
            <stop offset="0.68" stop-color="#FDBCA9"/>
            <stop offset="1" stop-color="#FFD3A5"/>
        </linearGradient>
        <linearGradient id="paint6_linear_185_67361" x1="1056.38" y1="751.283" x2="1023.28" y2="648.126" gradientUnits="userSpaceOnUse">
            <stop stop-color="#9C85A1"/>
            <stop offset="1" stop-color="#BAA6A1"/>
        </linearGradient>
        <linearGradient id="paint7_linear_185_67361" x1="1193.81" y1="682.446" x2="1014.9" y2="682.446" gradientUnits="userSpaceOnUse">
            <stop stop-color="#A891A6"/>
            <stop offset="1" stop-color="#B3969E"/>
        </linearGradient>
        <linearGradient id="paint8_linear_185_67361" x1="1187" y1="682.571" x2="1172.81" y2="652.822" gradientUnits="userSpaceOnUse">
            <stop stop-color="#857DA6"/>
            <stop offset="1" stop-color="#B3949E"/>
        </linearGradient>
        <linearGradient id="paint9_linear_185_67361" x1="1026.32" y1="704.041" x2="993.234" y2="686.261" gradientUnits="userSpaceOnUse">
            <stop stop-color="#A891A6"/>
            <stop offset="1" stop-color="#BFA399"/>
        </linearGradient>
        <linearGradient id="paint10_linear_185_67361" x1="936.559" y1="660.578" x2="914.129" y2="660.578" gradientUnits="userSpaceOnUse">
            <stop stop-color="#A891A6"/>
            <stop offset="1" stop-color="#B8969E"/>
        </linearGradient>
        <linearGradient id="paint11_linear_185_67361" x1="1092.01" y1="702.724" x2="1093.4" y2="667.131" gradientUnits="userSpaceOnUse">
            <stop stop-color="#A187A6"/>
            <stop offset="1" stop-color="#B3949E"/>
        </linearGradient>
        <linearGradient id="paint12_linear_185_67361" x1="938.8" y1="788.907" x2="919.901" y2="731.41" gradientUnits="userSpaceOnUse">
            <stop offset="0.01" stop-color="#9191A6"/>
            <stop offset="0.16" stop-color="#A891A6"/>
            <stop offset="1" stop-color="#BDAB99"/>
        </linearGradient>
        <linearGradient id="paint13_linear_185_67361" x1="756.235" y1="787.449" x2="743.908" y2="749.663" gradientUnits="userSpaceOnUse">
            <stop stop-color="#A891A6"/>
            <stop offset="1" stop-color="#BFA399"/>
        </linearGradient>
        <linearGradient id="paint14_linear_185_67361" x1="1097.51" y1="686.209" x2="1009.68" y2="698.434" gradientUnits="userSpaceOnUse">
            <stop stop-color="#A88CA1"/>
            <stop offset="1" stop-color="#C4A196"/>
        </linearGradient>
        <linearGradient id="paint15_linear_185_67361" x1="920.604" y1="713.767" x2="909.276" y2="693.697" gradientUnits="userSpaceOnUse">
            <stop stop-color="#D5A6B0"/>
            <stop offset="0.68" stop-color="#FDBCA9"/>
            <stop offset="1" stop-color="#FFD3A5"/>
        </linearGradient>
        <linearGradient id="paint16_linear_185_67361" x1="822.737" y1="759.715" x2="774.485" y2="700.011" gradientUnits="userSpaceOnUse">
            <stop stop-color="#9491A6"/>
            <stop offset="1" stop-color="#C4B5A8"/>
        </linearGradient>
        <linearGradient id="paint17_linear_185_67361" x1="1030.66" y1="761.745" x2="518.138" y2="761.745" gradientUnits="userSpaceOnUse">
            <stop stop-color="#8F8F96"/>
            <stop offset="1" stop-color="#E3D1B3"/>
        </linearGradient>
        <linearGradient id="paint18_linear_185_67361" x1="1139.98" y1="804.594" x2="635.424" y2="804.594" gradientUnits="userSpaceOnUse">
            <stop stop-color="#998C8A"/>
            <stop offset="1" stop-color="#CCADA1"/>
        </linearGradient>
        <linearGradient id="paint19_linear_185_67361" x1="1130.8" y1="805.27" x2="670.807" y2="805.27" gradientUnits="userSpaceOnUse">
            <stop stop-color="#7D8CB8"/>
            <stop offset="1" stop-color="#BFA399"/>
        </linearGradient>
    </defs>
</svg>