<svg xmlns="http://www.w3.org/2000/svg" width="1920" height="940" viewBox="0 0 1920 940" fill="none">
    <path d="M518.371 782.58L517.415 780.572L440.746 780L399.725 781.672L398.952 784.147L400.708 785.819H404.505C404.924 786.524 405.685 787 406.563 787C407.441 787 408.202 786.524 408.622 785.819H410.872C411.292 786.524 412.053 787 412.931 787C413.65 787 414.289 786.679 414.729 786.179C415.17 786.679 415.808 787 416.527 787C417.405 787 418.166 786.524 418.586 785.819H420.836C421.256 786.524 422.017 787 422.895 787C423.773 787 424.534 786.524 424.954 785.819H521.895C522.314 786.524 523.075 787 523.953 787C524.831 787 525.592 786.524 526.012 785.819H528.262C528.682 786.524 529.443 787 530.321 787C531.04 787 531.679 786.679 532.119 786.179C532.56 786.679 533.198 787 533.917 787C534.795 787 535.556 786.524 535.976 785.819H538.226C538.646 786.524 539.407 787 540.285 787C541.163 787 541.924 786.524 542.344 785.819H554.621L556.76 784.213L522.116 779.664L518.356 782.577L518.371 782.58Z" fill="#526180"/>
    <path d="M679.97 782.58L679.014 780.572L602.345 780L561.324 781.672L560.551 784.147L562.307 785.819H566.104C566.523 786.524 567.284 787 568.162 787C569.04 787 569.802 786.524 570.221 785.819H572.472C572.891 786.524 573.652 787 574.53 787C575.249 787 575.888 786.679 576.328 786.179C576.769 786.679 577.407 787 578.126 787C579.004 787 579.765 786.524 580.185 785.819H582.435C582.855 786.524 583.616 787 584.494 787C585.372 787 586.133 786.524 586.553 785.819H683.491C683.91 786.524 684.671 787 685.552 787C686.433 787 687.192 786.524 687.614 785.819H689.865C690.284 786.524 691.045 787 691.923 787C692.642 787 693.281 786.679 693.721 786.179C694.162 786.679 694.8 787 695.519 787C696.4 787 697.158 786.524 697.578 785.819H699.828C700.248 786.524 701.009 787 701.887 787C702.765 787 703.526 786.524 703.946 785.819H716.223L718.363 784.213L683.718 779.664L679.958 782.577L679.97 782.58Z" fill="#526180"/>
    <path d="M1027.43 783.209L1024.2 782.769C1023.78 782.412 1023.24 782.187 1022.64 782.187C1022.28 782.187 1021.94 782.274 1021.63 782.418L1009.78 780.803L915.795 780L876.728 781.672L876.123 783.71L845.33 779.667L841.569 782.58L840.613 780.572L763.944 780L722.923 781.672L722.15 784.147L723.906 785.819H727.703C728.122 786.524 728.884 787 729.762 787C730.64 787 731.401 786.524 731.82 785.819H734.071C734.49 786.524 735.251 787 736.129 787C736.849 787 737.487 786.679 737.927 786.179C738.368 786.679 739.006 787 739.725 787C740.603 787 741.365 786.524 741.787 785.819H744.038C744.457 786.524 745.218 787 746.096 787C746.974 787 747.735 786.524 748.158 785.819H845.099C845.518 786.524 846.28 787 847.158 787C848.036 787 848.797 786.524 849.219 785.819H851.47C851.889 786.524 852.65 787 853.528 787C854.248 787 854.886 786.679 855.326 786.179C855.767 786.679 856.405 787 857.124 787C858.002 787 858.763 786.524 859.186 785.819H861.436C861.856 786.524 862.617 787 863.495 787C864.373 787 865.134 786.524 865.554 785.819H885.068C885.487 786.524 886.249 787 887.127 787C888.005 787 888.766 786.524 889.188 785.819H891.439C891.858 786.524 892.619 787 893.5 787C894.22 787 894.858 786.679 895.298 786.179C895.739 786.679 896.377 787 897.096 787C897.974 787 898.736 786.524 899.155 785.819H901.405C901.825 786.524 902.586 787 903.464 787C904.342 787 905.103 786.524 905.523 785.819H1000.72C1001.14 786.524 1001.9 787 1002.78 787C1003.66 787 1004.42 786.524 1004.84 785.819H1007.09C1007.51 786.524 1008.27 787 1009.15 787C1010.03 787 1010.79 786.524 1011.21 785.819H1014.21C1014.63 786.524 1015.39 787 1016.27 787C1017.15 787 1017.91 786.524 1018.33 785.819H1020.58C1021 786.524 1021.76 787 1022.64 787C1023.62 787 1024.46 786.41 1024.84 785.565L1027.43 783.212L1027.43 783.209Z" fill="#526180"/>
    <path d="M990.304 769.008H995.125C995.674 769.008 996.12 769.455 996.12 770.003V782.73C996.12 783.278 995.674 783.725 995.125 783.725H990.304C989.755 783.725 989.309 783.278 989.309 782.73V770C989.309 769.452 989.755 769.005 990.304 769.005V769.008Z" fill="#EFEFEF"/>
    <path d="M1030.43 780.89C1030.2 779.985 1029.49 778.846 1028.42 777.591C1027.21 776.158 1025.52 774.57 1023.56 773.018H1023.55C1021.29 771.232 1018.65 769.482 1015.9 768.049C1015.31 767.738 1014.72 767.45 1014.12 767.171C1010.78 765.625 1007.36 764.615 1004.34 764.615H1002.14L1000.53 763H991.385L989.977 764.615H966.13L964.991 763.476H956.358L955.363 764.615H914.486L913.35 763.476H904.711L903.722 764.615H881.223H853.873L852.737 763.479H844.101L843.112 764.615H796.419L795.28 763.479H786.647L785.658 764.615H738.539L737.4 763.479H728.767L727.778 764.615H692.274L691.135 763.479H682.502L681.51 764.615H634.819L633.681 763.479H625.047L624.059 764.615H576.94L575.801 763.479H567.168L566.179 764.615H530.675L529.536 763.479H520.903L519.911 764.615H473.217L472.079 763.479H463.445L462.456 764.615H415.34L414.202 763.479H405.568L404.579 764.615H389V784.818H403.282V783.719C403.282 783.008 403.86 782.43 404.567 782.43H412.718C413.432 782.43 414.007 783.008 414.007 783.719V784.818H520.678V783.719C520.678 783.008 521.256 782.43 521.966 782.43H530.117C530.827 782.43 531.403 783.008 531.403 783.719V784.818H564.881V783.719C564.881 783.008 565.459 782.43 566.167 782.43H574.318C575.031 782.43 575.606 783.008 575.606 783.719V784.818H682.277V783.719C682.277 783.008 682.855 782.43 683.566 782.43H691.716C692.43 782.43 693.002 783.008 693.002 783.719V784.818H726.48V783.719C726.48 783.008 727.059 782.43 727.766 782.43H735.917C736.63 782.43 737.202 783.008 737.202 783.719V784.818H843.873V783.719C843.873 783.008 844.452 782.43 845.159 782.43H853.31C854.02 782.43 854.595 783.008 854.595 783.719V784.818H883.959V783.716C883.959 783.011 884.538 782.433 885.248 782.433H893.399C894.109 782.433 894.681 783.011 894.681 783.716V784.818H999.186V783.716C999.186 783.011 999.758 782.433 1000.47 782.433H1008.62C1009.33 782.433 1009.91 783.011 1009.91 783.716V784.818H1025.43C1025.43 784.818 1031.44 784.818 1030.42 780.893L1030.43 780.89Z" fill="url(#paint0_linear_185_55706)"/>
    <path style="mix-blend-mode:overlay" d="M1013.02 766.716C1010.03 765.448 1007.03 764.645 1004.34 764.645H1002.14L1000.53 763.03H991.385L989.977 764.645H966.13L964.991 763.506H956.358L955.363 764.645H914.486L913.35 763.506H904.711L903.722 764.645H881.223H853.873L852.737 763.509H844.101L843.112 764.645H796.419L795.28 763.509H786.647L785.658 764.645H738.539L737.4 763.509H728.767L727.778 764.645H692.274L691.135 763.509H682.502L681.51 764.645H634.819L633.681 763.509H625.047L624.059 764.645H576.94L575.801 763.509H567.168L566.179 764.645H530.675L529.536 763.509H520.903L519.911 764.645H473.217L472.079 763.509H463.445L462.456 764.645H415.34L414.202 763.509H405.568L404.579 764.645H389V766.716H1013.02Z" fill="url(#paint1_linear_185_55706)"/>
    <path style="mix-blend-mode:multiply" d="M544.51 777.591H389V770.935H544.51V777.591ZM706.109 770.935H550.599V777.591H706.109V770.935ZM867.708 770.935H712.198V777.591H867.708V770.935ZM1006.19 773.227L1001.28 768.049H986.564L984.089 770.938H873.135V777.594H1012.05L1006.19 773.227Z" fill="url(#paint2_linear_185_55706)"/>
    <path d="M1023.56 773.018H1023.55C1021.29 771.232 1018.65 769.482 1015.9 768.049H1000.67C999.401 768.049 998.499 768.478 999.239 769.521C999.266 769.56 999.293 769.596 999.326 769.635C1000.08 770.614 1001.16 771.933 1002.5 773.32C1003.05 773.893 1003.64 774.477 1004.27 775.049C1007.06 777.585 1011.65 777.597 1011.65 777.597H1028.42C1027.2 776.164 1025.52 774.576 1023.56 773.024V773.018ZM481.527 772.757V777.591H499.381V772.757H481.527ZM504.739 772.757V777.591H522.593V772.757H504.739ZM458.378 772.757V777.591H476.232V772.757H458.378ZM435.223 772.757V777.591H453.077V772.757H435.223ZM412.074 772.757V777.591H429.928V772.757H412.074ZM643.123 772.757V777.591H660.977V772.757H643.123ZM666.335 772.757V777.591H684.189V772.757H666.335ZM619.974 772.757V777.591H637.828V772.757H619.974ZM596.822 772.757V777.591H614.676V772.757H596.822ZM573.673 772.757V777.591H591.527V772.757H573.673ZM804.722 772.757V777.591H822.576V772.757H804.722ZM827.934 772.757V777.591H845.788V772.757H827.934ZM781.573 772.757V777.591H799.427V772.757H781.573ZM758.418 772.757V777.591H776.272V772.757H758.418ZM735.269 772.757V777.591H753.123V772.757H735.269ZM961.827 772.757V777.591H979.68V772.757H961.827ZM938.675 772.757V777.591H956.531V772.757H938.675ZM915.526 772.757V777.591H933.38V772.757H915.526ZM892.377 772.757V777.591H910.231V772.757H892.377Z" fill="url(#paint3_linear_185_55706)"/>
    <g style="mix-blend-mode:multiply">
        <path d="M410.39 763.479L411.526 764.615H415.337L414.202 763.479H410.39Z" fill="#638A99"/>
    </g>
    <g style="mix-blend-mode:multiply">
        <path d="M468.27 763.479L469.406 764.615H473.217L472.081 763.479H468.27Z" fill="#638A99"/>
    </g>
    <g style="mix-blend-mode:multiply">
        <path d="M525.721 763.479L526.86 764.615H530.672L529.536 763.479H525.721Z" fill="#638A99"/>
    </g>
    <g style="mix-blend-mode:multiply">
        <path d="M571.989 763.479L573.125 764.615H576.936L575.801 763.479H571.989Z" fill="#638A99"/>
    </g>
    <g style="mix-blend-mode:multiply">
        <path d="M629.869 763.479L631.005 764.615H634.816L633.681 763.479H629.869Z" fill="#638A99"/>
    </g>
    <g style="mix-blend-mode:multiply">
        <path d="M687.32 763.479L688.459 764.615H692.271L691.135 763.479H687.32Z" fill="#638A99"/>
    </g>
    <g style="mix-blend-mode:multiply">
        <path d="M733.588 763.479L734.724 764.615H738.536L737.4 763.479H733.588Z" fill="#638A99"/>
    </g>
    <g style="mix-blend-mode:multiply">
        <path d="M791.465 763.479L792.604 764.615H796.416L795.28 763.479H791.465Z" fill="#638A99"/>
    </g>
    <g style="mix-blend-mode:multiply">
        <path d="M848.92 763.479L850.058 764.615H853.87L852.734 763.479H848.92Z" fill="#638A99"/>
    </g>
    <g style="mix-blend-mode:multiply">
        <path d="M550.599 764.615H544.51V784.818H550.599V764.615Z" fill="#638A99"/>
    </g>
    <g style="mix-blend-mode:multiply">
        <path d="M712.198 764.615H706.109V784.818H712.198V764.615Z" fill="#638A99"/>
    </g>
    <g style="mix-blend-mode:multiply">
        <path d="M873.132 764.615H867.708V784.818H873.132V764.615Z" fill="#638A99"/>
    </g>
    <g style="mix-blend-mode:multiply">
        <path d="M1030.43 780.89C1030.2 779.985 1029.49 778.846 1028.42 777.591C1027.21 776.158 1025.52 774.57 1023.56 773.018H1023.55C1021.29 771.232 1018.65 769.482 1015.9 768.049C1015.31 767.738 1014.72 767.45 1014.12 767.171C1010.78 765.625 1007.36 764.615 1004.34 764.615H1002.14L1000.53 763H998.706L999.62 764.615H997.621C996.525 764.615 996.387 764.915 997.247 765.173C997.274 765.179 997.301 765.188 997.337 765.2C997.4 765.209 997.466 765.232 997.534 765.247C999.264 765.697 1001.04 766.359 1002.8 767.171C1003.4 767.45 1003.99 767.738 1004.58 768.049C1007.4 769.521 1010.11 771.322 1012.42 773.162C1014.31 774.669 1015.92 776.2 1017.11 777.591C1018.17 778.846 1018.88 779.988 1019.11 780.89C1020.14 784.815 1014.12 784.815 1014.12 784.815H1025.44C1025.44 784.815 1031.45 784.815 1030.44 780.89H1030.43Z" fill="#638A99"/>
    </g>
    <g style="mix-blend-mode:multiply">
        <path d="M961.173 763.479L962.312 764.615H966.124L964.985 763.479H961.173Z" fill="#638A99"/>
    </g>
    <g style="mix-blend-mode:multiply">
        <path d="M909.532 763.479L910.671 764.615H914.483L913.344 763.479H909.532Z" fill="#638A99"/>
    </g>
    <g style="mix-blend-mode:multiply">
        <path d="M538.957 770.078H535.97C535.086 770.078 534.364 770.8 534.364 771.684V780.851C534.364 781.735 535.083 782.457 535.97 782.457H538.957C539.841 782.457 540.564 781.735 540.564 780.851V771.684C540.564 770.797 539.841 770.078 538.957 770.078ZM540.027 780.851C540.027 781.441 539.548 781.921 538.957 781.921H535.97C535.379 781.921 534.9 781.441 534.9 780.851V771.684C534.9 771.094 535.379 770.611 535.97 770.611H538.957C539.548 770.611 540.027 771.091 540.027 771.684V780.851Z" fill="#E3CFA6"/>
        <path d="M397.918 770.078H394.93C394.046 770.078 393.324 770.8 393.324 771.684V780.851C393.324 781.735 394.043 782.457 394.93 782.457H397.918C398.802 782.457 399.524 781.735 399.524 780.851V771.684C399.524 770.797 398.805 770.078 397.918 770.078ZM398.988 780.851C398.988 781.441 398.508 781.921 397.918 781.921H394.93C394.34 781.921 393.861 781.441 393.861 780.851V771.684C393.861 771.094 394.34 770.611 394.93 770.611H397.918C398.508 770.611 398.988 771.091 398.988 771.684V780.851Z" fill="#E3CFA6"/>
        <path d="M700.556 770.078H697.569C696.682 770.078 695.963 770.8 695.963 771.684V780.851C695.963 781.735 696.682 782.457 697.569 782.457H700.556C701.44 782.457 702.163 781.735 702.163 780.851V771.684C702.163 770.797 701.44 770.078 700.556 770.078ZM701.626 780.851C701.626 781.441 701.147 781.921 700.556 781.921H697.569C696.978 781.921 696.499 781.441 696.499 780.851V771.684C696.499 771.094 696.978 770.611 697.569 770.611H700.556C701.147 770.611 701.626 771.091 701.626 771.684V780.851Z" fill="#E3CFA6"/>
        <path d="M559.517 770.078H556.53C555.646 770.078 554.923 770.8 554.923 771.684V780.851C554.923 781.735 555.643 782.457 556.53 782.457H559.517C560.401 782.457 561.123 781.735 561.123 780.851V771.684C561.123 770.797 560.404 770.078 559.517 770.078ZM560.587 780.851C560.587 781.441 560.108 781.921 559.517 781.921H556.53C555.939 781.921 555.46 781.441 555.46 780.851V771.684C555.46 771.094 555.939 770.611 556.53 770.611H559.517C560.108 770.611 560.587 771.091 560.587 771.684V780.851Z" fill="#E3CFA6"/>
        <path d="M862.156 770.078H859.168C858.284 770.078 857.562 770.8 857.562 771.684V780.851C857.562 781.735 858.284 782.457 859.168 782.457H862.156C863.04 782.457 863.759 781.735 863.759 780.851V771.684C863.759 770.797 863.04 770.078 862.156 770.078ZM863.225 780.851C863.225 781.441 862.746 781.921 862.156 781.921H859.168C858.578 781.921 858.098 781.441 858.098 780.851V771.684C858.098 771.094 858.578 770.611 859.168 770.611H862.156C862.746 770.611 863.225 771.091 863.225 771.684V780.851Z" fill="#E3CFA6"/>
        <path d="M721.116 770.078H718.129C717.245 770.078 716.522 770.8 716.522 771.684V780.851C716.522 781.735 717.242 782.457 718.129 782.457H721.116C722 782.457 722.723 781.735 722.723 780.851V771.684C722.723 770.797 722.003 770.078 721.116 770.078ZM722.186 780.851C722.186 781.441 721.707 781.921 721.116 781.921H718.129C717.538 781.921 717.059 781.441 717.059 780.851V771.684C717.059 771.094 717.538 770.611 718.129 770.611H721.116C721.707 770.611 722.186 771.091 722.186 771.684V780.851Z" fill="#E3CFA6"/>
        <path d="M880.519 770.078H877.531C876.644 770.078 875.925 770.8 875.925 771.684V780.851C875.925 781.735 876.644 782.457 877.531 782.457H880.519C881.403 782.457 882.125 781.735 882.125 780.851V771.684C882.125 770.797 881.403 770.078 880.519 770.078ZM881.589 780.851C881.589 781.441 881.109 781.921 880.519 781.921H877.531C876.941 781.921 876.462 781.441 876.462 780.851V771.684C876.462 771.094 876.941 770.611 877.531 770.611H880.519C881.109 770.611 881.589 771.091 881.589 771.684V780.851Z" fill="#E3CFA6"/>
        <path d="M993.285 770.078H990.298C989.411 770.078 988.691 770.8 988.691 771.684V780.851C988.691 781.735 989.411 782.457 990.298 782.457H993.285C994.172 782.457 994.891 781.735 994.891 780.851V771.684C994.891 770.797 994.172 770.078 993.285 770.078ZM994.355 780.851C994.355 781.441 993.876 781.921 993.285 781.921H990.298C989.707 781.921 989.228 781.441 989.228 780.851V771.684C989.228 771.094 989.707 770.611 990.298 770.611H993.285C993.876 770.611 994.355 771.091 994.355 771.684V780.851Z" fill="#E3CFA6"/>
    </g>
    <defs>
        <linearGradient id="paint0_linear_185_55706" x1="389" y1="773.908" x2="1030.55" y2="773.908" gradientUnits="userSpaceOnUse">
            <stop offset="0.02" stop-color="#FFE8CF"/>
            <stop offset="0.28" stop-color="#FFEEDD"/>
            <stop offset="0.61" stop-color="#FFF3E7"/>
            <stop offset="1" stop-color="#FFF5EB"/>
        </linearGradient>
        <linearGradient id="paint1_linear_185_55706" x1="389" y1="764.873" x2="1030.55" y2="764.873" gradientUnits="userSpaceOnUse">
            <stop offset="0.02" stop-color="#FFA3DE"/>
            <stop offset="0.58" stop-color="#FFC8DA"/>
            <stop offset="1" stop-color="#FFE0D9"/>
        </linearGradient>
        <linearGradient id="paint2_linear_185_55706" x1="389" y1="772.82" x2="1012.05" y2="772.82" gradientUnits="userSpaceOnUse">
            <stop stop-color="#FFCF94"/>
            <stop offset="0.51" stop-color="#EFCFB5"/>
            <stop offset="1" stop-color="#E3CFD1"/>
        </linearGradient>
        <linearGradient id="paint3_linear_185_55706" x1="412.077" y1="772.82" x2="1028.42" y2="772.82" gradientUnits="userSpaceOnUse">
            <stop stop-color="#75A89C"/>
            <stop offset="0.29" stop-color="#7CADB3"/>
            <stop offset="0.73" stop-color="#86B5D2"/>
            <stop offset="0.98" stop-color="#8AB8DE"/>
        </linearGradient>
    </defs>
</svg>