<svg xmlns="http://www.w3.org/2000/svg" width="1920" height="1080" viewBox="0 0 1920 1080" fill="none">
    <path d="M314.649 1055.84C314.649 1056.74 314.382 1057.62 313.881 1058.37C313.38 1059.12 312.668 1059.7 311.835 1060.05C311.002 1060.39 310.085 1060.48 309.2 1060.31C308.316 1060.13 307.504 1059.7 306.866 1059.06C306.228 1058.42 305.794 1057.61 305.618 1056.73C305.442 1055.85 305.532 1054.93 305.877 1054.1C306.222 1053.27 306.807 1052.56 307.557 1052.06C308.307 1051.56 309.188 1051.29 310.09 1051.29C311.299 1051.29 312.458 1051.77 313.313 1052.62C314.168 1053.48 314.649 1054.63 314.649 1055.84Z" fill="#95BBF9"/>
    <path d="M305.004 1075.45C305.003 1076.35 304.736 1077.23 304.235 1077.97C303.734 1078.72 303.022 1079.31 302.188 1079.65C301.355 1079.99 300.439 1080.08 299.555 1079.91C298.67 1079.73 297.858 1079.3 297.22 1078.66C296.583 1078.03 296.149 1077.22 295.973 1076.33C295.797 1075.45 295.887 1074.53 296.232 1073.7C296.576 1072.87 297.162 1072.16 297.911 1071.66C298.661 1071.16 299.542 1070.89 300.443 1070.89C301.042 1070.89 301.635 1071.01 302.188 1071.24C302.742 1071.47 303.245 1071.8 303.668 1072.23C304.092 1072.65 304.428 1073.15 304.657 1073.7C304.886 1074.26 305.004 1074.85 305.004 1075.45Z" fill="#95BBF9"/>
    <path d="M244.625 846.106C244.625 847.007 244.357 847.887 243.857 848.635C243.356 849.384 242.643 849.968 241.81 850.312C240.977 850.657 240.06 850.747 239.176 850.571C238.291 850.396 237.479 849.962 236.841 849.326C236.204 848.689 235.77 847.878 235.594 846.995C235.417 846.112 235.508 845.197 235.853 844.365C236.198 843.533 236.782 842.822 237.532 842.322C238.281 841.822 239.162 841.554 240.064 841.554C240.663 841.554 241.256 841.672 241.809 841.9C242.362 842.129 242.865 842.464 243.289 842.887C243.712 843.31 244.048 843.812 244.277 844.364C244.507 844.917 244.625 845.509 244.625 846.106Z" fill="#95BBF9"/>
    <path d="M294.867 811.358C294.867 812.258 294.6 813.139 294.099 813.887C293.599 814.636 292.886 815.22 292.053 815.564C291.22 815.909 290.303 815.999 289.419 815.824C288.534 815.648 287.722 815.215 287.084 814.578C286.447 813.942 286.012 813.13 285.836 812.247C285.66 811.364 285.75 810.449 286.095 809.617C286.44 808.785 287.025 808.074 287.774 807.574C288.524 807.074 289.406 806.807 290.308 806.807C291.517 806.807 292.677 807.286 293.532 808.14C294.387 808.993 294.867 810.151 294.867 811.358Z" fill="#95BBF9"/>
    <path d="M274.09 813.818C274.09 814.718 273.823 815.599 273.322 816.347C272.821 817.096 272.109 817.679 271.275 818.024C270.442 818.368 269.526 818.458 268.641 818.283C267.757 818.107 266.945 817.673 266.307 817.036C265.669 816.4 265.235 815.589 265.059 814.705C264.883 813.822 264.974 812.907 265.319 812.075C265.665 811.243 266.249 810.533 266.999 810.032C267.749 809.532 268.63 809.265 269.532 809.266C270.741 809.266 271.9 809.746 272.755 810.599C273.61 811.453 274.09 812.611 274.09 813.818Z" fill="#95BBF9"/>
    <path d="M206.274 865.228C206.274 865.847 206.09 866.453 205.745 866.968C205.401 867.483 204.911 867.885 204.338 868.122C203.764 868.359 203.134 868.421 202.525 868.3C201.916 868.179 201.358 867.881 200.919 867.443C200.48 867.005 200.181 866.447 200.06 865.839C199.939 865.231 200.001 864.602 200.239 864.029C200.476 863.457 200.879 862.968 201.394 862.624C201.91 862.279 202.516 862.096 203.137 862.096C203.969 862.096 204.767 862.426 205.356 863.013C205.944 863.601 206.274 864.397 206.274 865.228Z" fill="#95BBF9"/>
    <path d="M311.903 831.222C311.903 831.841 311.719 832.447 311.374 832.963C311.03 833.478 310.539 833.88 309.966 834.117C309.392 834.354 308.762 834.417 308.153 834.296C307.544 834.175 306.985 833.877 306.546 833.438C306.107 833 305.808 832.442 305.686 831.834C305.565 831.226 305.627 830.596 305.865 830.024C306.102 829.451 306.504 828.962 307.021 828.617C307.537 828.273 308.143 828.089 308.764 828.089C309.596 828.089 310.394 828.419 310.983 829.007C311.571 829.594 311.903 830.391 311.903 831.222Z" fill="#95BBF9"/>
    <path d="M300.444 674.132C300.444 674.752 300.26 675.357 299.915 675.872C299.571 676.388 299.081 676.789 298.508 677.026C297.935 677.263 297.304 677.325 296.695 677.204C296.087 677.083 295.528 676.785 295.089 676.347C294.65 675.909 294.352 675.351 294.231 674.743C294.109 674.136 294.171 673.506 294.409 672.934C294.646 672.361 295.048 671.872 295.564 671.528C296.08 671.184 296.686 671 297.307 671C298.139 671 298.937 671.33 299.525 671.917C300.113 672.505 300.444 673.302 300.444 674.132Z" fill="#95BBF9"/>
    <path d="M272.67 851.614C272.67 852.234 272.486 852.839 272.141 853.354C271.797 853.869 271.307 854.271 270.734 854.508C270.16 854.745 269.53 854.807 268.921 854.686C268.312 854.565 267.754 854.267 267.315 853.829C266.876 853.391 266.577 852.833 266.456 852.225C266.335 851.618 266.397 850.988 266.635 850.416C266.872 849.843 267.274 849.354 267.789 849.01C268.305 848.666 268.912 848.482 269.533 848.482C270.365 848.482 271.162 848.812 271.751 849.399C272.339 849.987 272.67 850.783 272.67 851.614Z" fill="#95BBF9"/>
    <path d="M264.646 819.981C264.646 820.601 264.462 821.207 264.118 821.722C263.773 822.237 263.282 822.638 262.709 822.875C262.136 823.112 261.506 823.174 260.897 823.054C260.289 822.933 259.73 822.634 259.291 822.196C258.852 821.758 258.553 821.2 258.432 820.593C258.311 819.985 258.373 819.355 258.611 818.783C258.848 818.21 259.25 817.721 259.766 817.377C260.282 817.033 260.889 816.849 261.509 816.849C262.341 816.849 263.139 817.179 263.727 817.767C264.315 818.354 264.646 819.151 264.646 819.981Z" fill="#95BBF9"/>
    <path d="M269.53 793.649C269.53 794.269 269.347 794.875 269.002 795.39C268.657 795.905 268.167 796.306 267.593 796.543C267.02 796.78 266.39 796.842 265.782 796.722C265.173 796.601 264.614 796.302 264.175 795.864C263.737 795.426 263.437 794.868 263.316 794.261C263.195 793.653 263.258 793.023 263.495 792.451C263.733 791.878 264.134 791.389 264.65 791.045C265.166 790.701 265.773 790.517 266.393 790.517C266.805 790.517 267.213 790.598 267.593 790.756C267.974 790.913 268.32 791.144 268.611 791.434C268.903 791.725 269.134 792.071 269.292 792.451C269.449 792.831 269.53 793.238 269.53 793.649Z" fill="#95BBF9"/>
    <path d="M279.346 695.578C279.346 696.198 279.162 696.803 278.817 697.318C278.473 697.833 277.983 698.235 277.41 698.472C276.837 698.709 276.206 698.771 275.597 698.65C274.989 698.529 274.429 698.231 273.99 697.793C273.551 697.354 273.254 696.796 273.133 696.188C273.012 695.581 273.073 694.951 273.311 694.379C273.548 693.806 273.951 693.317 274.467 692.973C274.983 692.629 275.589 692.446 276.21 692.446C276.622 692.446 277.03 692.527 277.411 692.684C277.792 692.842 278.137 693.072 278.428 693.363C278.719 693.654 278.951 693.999 279.108 694.379C279.266 694.759 279.346 695.167 279.346 695.578Z" fill="#95BBF9"/>
    <path d="M247.937 695.578C247.937 696.198 247.753 696.803 247.408 697.318C247.063 697.833 246.574 698.235 246 698.472C245.427 698.709 244.796 698.771 244.188 698.65C243.579 698.529 243.02 698.231 242.581 697.793C242.143 697.355 241.844 696.797 241.723 696.189C241.602 695.581 241.664 694.952 241.901 694.379C242.139 693.807 242.541 693.318 243.057 692.974C243.573 692.629 244.179 692.446 244.799 692.446C245.631 692.446 246.429 692.776 247.017 693.364C247.606 693.951 247.937 694.747 247.937 695.578Z" fill="#95BBF9"/>
</svg>