<svg xmlns="http://www.w3.org/2000/svg" width="1920" height="1080" viewBox="0 0 1920 1080" fill="none">
    <path d="M1684.29 520.293C1684.29 521.32 1683.99 522.323 1683.42 523.177C1682.86 524.03 1682.05 524.695 1681.11 525.088C1680.16 525.481 1679.12 525.584 1678.12 525.383C1677.12 525.183 1676.2 524.689 1675.48 523.963C1674.75 523.237 1674.26 522.312 1674.06 521.306C1673.86 520.299 1673.97 519.256 1674.36 518.307C1674.75 517.359 1675.41 516.548 1676.26 515.978C1677.11 515.408 1678.11 515.104 1679.13 515.104C1679.81 515.103 1680.48 515.238 1681.11 515.498C1681.73 515.759 1682.3 516.141 1682.78 516.623C1683.26 517.105 1683.64 517.677 1683.9 518.307C1684.16 518.937 1684.3 519.612 1684.29 520.293Z" fill="#95BBF9"/>
    <path d="M1692.29 574.892C1692.29 575.919 1691.99 576.922 1691.42 577.776C1690.86 578.629 1690.05 579.294 1689.11 579.687C1688.16 580.08 1687.12 580.183 1686.12 579.982C1685.12 579.782 1684.2 579.288 1683.48 578.562C1682.75 577.836 1682.26 576.912 1682.06 575.905C1681.86 574.898 1681.97 573.855 1682.36 572.906C1682.75 571.958 1683.41 571.148 1684.26 570.577C1685.11 570.007 1686.11 569.703 1687.13 569.703C1688.5 569.703 1689.81 570.249 1690.78 571.223C1691.75 572.196 1692.29 573.516 1692.29 574.892Z" fill="#95BBF9"/>
    <path d="M1483.27 989.011C1483.27 990.037 1482.97 991.04 1482.4 991.894C1481.83 992.747 1481.03 993.412 1480.08 993.805C1479.14 994.198 1478.1 994.3 1477.1 994.1C1476.1 993.9 1475.18 993.406 1474.46 992.68C1473.73 991.954 1473.24 991.03 1473.04 990.023C1472.84 989.017 1472.95 987.974 1473.34 987.025C1473.73 986.077 1474.39 985.267 1475.24 984.697C1476.09 984.127 1477.09 983.822 1478.11 983.822C1479.48 983.822 1480.79 984.369 1481.76 985.342C1482.73 986.315 1483.27 987.635 1483.27 989.011Z" fill="#95BBF9"/>
    <path d="M1600.46 633.618C1600.46 634.644 1600.16 635.648 1599.59 636.501C1599.02 637.355 1598.21 638.02 1597.27 638.413C1596.33 638.806 1595.29 638.909 1594.29 638.709C1593.28 638.509 1592.36 638.015 1591.64 637.289C1590.92 636.563 1590.43 635.639 1590.23 634.632C1590.03 633.625 1590.13 632.582 1590.52 631.633C1590.91 630.685 1591.57 629.874 1592.42 629.304C1593.27 628.734 1594.27 628.429 1595.29 628.429C1596.66 628.429 1597.98 628.976 1598.94 629.949C1599.91 630.922 1600.46 632.242 1600.46 633.618Z" fill="#95BBF9"/>
    <path d="M1675.91 565.954C1675.91 566.66 1675.7 567.35 1675.31 567.937C1674.92 568.524 1674.36 568.982 1673.71 569.252C1673.06 569.522 1672.35 569.592 1671.66 569.454C1670.97 569.317 1670.34 568.977 1669.84 568.477C1669.34 567.978 1669.01 567.342 1668.87 566.649C1668.73 565.957 1668.8 565.239 1669.07 564.587C1669.34 563.935 1669.8 563.377 1670.38 562.985C1670.96 562.593 1671.65 562.383 1672.35 562.383C1672.82 562.383 1673.28 562.476 1673.71 562.655C1674.15 562.835 1674.54 563.098 1674.87 563.429C1675.2 563.761 1675.46 564.155 1675.64 564.588C1675.82 565.021 1675.91 565.485 1675.91 565.954Z" fill="#95BBF9"/>
    <path d="M1486.83 974.065C1486.83 974.771 1486.62 975.462 1486.23 976.049C1485.84 976.636 1485.28 977.094 1484.63 977.364C1483.98 977.634 1483.27 977.705 1482.58 977.567C1481.89 977.43 1481.26 977.089 1480.76 976.59C1480.26 976.091 1479.92 975.455 1479.79 974.762C1479.65 974.069 1479.72 973.351 1479.99 972.699C1480.26 972.046 1480.71 971.488 1481.3 971.096C1481.88 970.704 1482.57 970.494 1483.27 970.494C1483.74 970.494 1484.2 970.586 1484.63 970.766C1485.06 970.945 1485.46 971.208 1485.79 971.54C1486.12 971.872 1486.38 972.265 1486.56 972.699C1486.73 973.132 1486.83 973.596 1486.83 974.065Z" fill="#95BBF9"/>
    <path d="M1489.11 1080C1491.07 1080 1492.67 1078.4 1492.67 1076.43C1492.67 1074.46 1491.07 1072.86 1489.11 1072.86C1487.15 1072.86 1485.56 1074.46 1485.56 1076.43C1485.56 1078.4 1487.15 1080 1489.11 1080Z" fill="#95BBF9"/>
    <path d="M1464.57 942.515C1464.57 942.969 1464.44 943.412 1464.18 943.79C1463.93 944.167 1463.58 944.462 1463.16 944.635C1462.74 944.809 1462.28 944.855 1461.84 944.766C1461.4 944.678 1460.99 944.459 1460.67 944.138C1460.35 943.817 1460.13 943.408 1460.04 942.963C1459.96 942.518 1460 942.056 1460.17 941.637C1460.35 941.217 1460.64 940.859 1461.01 940.606C1461.39 940.354 1461.83 940.219 1462.28 940.219C1462.58 940.219 1462.88 940.278 1463.16 940.393C1463.44 940.509 1463.69 940.678 1463.9 940.891C1464.11 941.104 1464.28 941.357 1464.4 941.636C1464.51 941.914 1464.57 942.213 1464.57 942.515Z" fill="#95BBF9"/>
    <path d="M1478.8 1039.53C1478.8 1039.99 1478.67 1040.43 1478.42 1040.81C1478.17 1041.19 1477.81 1041.48 1477.39 1041.66C1476.98 1041.83 1476.52 1041.87 1476.07 1041.79C1475.63 1041.7 1475.22 1041.48 1474.9 1041.16C1474.58 1040.84 1474.37 1040.43 1474.28 1039.98C1474.19 1039.54 1474.23 1039.08 1474.41 1038.66C1474.58 1038.24 1474.87 1037.88 1475.25 1037.63C1475.62 1037.37 1476.07 1037.24 1476.52 1037.24C1477.12 1037.24 1477.71 1037.48 1478.13 1037.91C1478.56 1038.34 1478.8 1038.93 1478.8 1039.53Z" fill="#95BBF9"/>
    <path d="M1489.11 1002.34C1489.11 1002.8 1488.98 1003.24 1488.73 1003.62C1488.47 1004 1488.12 1004.29 1487.7 1004.47C1487.28 1004.64 1486.82 1004.69 1486.38 1004.6C1485.94 1004.51 1485.53 1004.29 1485.21 1003.97C1484.89 1003.65 1484.67 1003.24 1484.58 1002.79C1484.5 1002.35 1484.54 1001.89 1484.72 1001.47C1484.89 1001.05 1485.18 1000.69 1485.56 1000.44C1485.93 1000.18 1486.37 1000.05 1486.83 1000.05C1487.43 1000.05 1488.01 1000.29 1488.44 1000.72C1488.87 1001.15 1489.11 1001.74 1489.11 1002.34Z" fill="#95BBF9"/>
    <path d="M1525.82 838.932C1525.82 839.386 1525.69 839.83 1525.43 840.207C1525.18 840.585 1524.83 840.879 1524.41 841.052C1523.99 841.226 1523.53 841.272 1523.09 841.183C1522.65 841.094 1522.24 840.876 1521.92 840.555C1521.6 840.234 1521.38 839.825 1521.29 839.38C1521.21 838.934 1521.25 838.473 1521.42 838.053C1521.6 837.634 1521.89 837.275 1522.27 837.023C1522.64 836.771 1523.08 836.636 1523.53 836.636C1524.14 836.636 1524.72 836.878 1525.15 837.308C1525.58 837.739 1525.82 838.323 1525.82 838.932Z" fill="#95BBF9"/>
    <path d="M1489.11 775.934C1489.11 776.388 1488.98 776.832 1488.73 777.209C1488.47 777.587 1488.12 777.881 1487.7 778.055C1487.28 778.228 1486.82 778.273 1486.38 778.185C1485.94 778.096 1485.53 777.877 1485.21 777.556C1484.89 777.235 1484.67 776.826 1484.58 776.381C1484.5 775.936 1484.54 775.474 1484.72 775.055C1484.89 774.635 1485.18 774.277 1485.56 774.025C1485.93 773.772 1486.37 773.638 1486.83 773.638C1487.13 773.638 1487.42 773.697 1487.7 773.812C1487.98 773.928 1488.23 774.097 1488.44 774.31C1488.65 774.524 1488.82 774.777 1488.94 775.056C1489.05 775.334 1489.11 775.633 1489.11 775.934Z" fill="#95BBF9"/>
    <path d="M1602.74 580.081C1605.18 580.081 1607.15 578.098 1607.15 575.652C1607.15 573.206 1605.18 571.223 1602.74 571.223C1600.31 571.223 1598.33 573.206 1598.33 575.652C1598.33 578.098 1600.31 580.081 1602.74 580.081Z" fill="#95BBF9"/>
</svg>