<svg xmlns="http://www.w3.org/2000/svg" width="1920" height="1080" viewBox="0 0 1920 1080" fill="none">
    <path d="M1186 897.477C1186 898.534 1186.33 899.568 1186.94 900.448C1187.55 901.327 1188.43 902.012 1189.44 902.417C1190.46 902.822 1191.59 902.928 1192.67 902.721C1193.75 902.515 1194.75 902.006 1195.53 901.258C1196.31 900.51 1196.84 899.557 1197.05 898.52C1197.27 897.483 1197.16 896.408 1196.73 895.431C1196.31 894.454 1195.6 893.619 1194.68 893.031C1193.76 892.444 1192.68 892.13 1191.58 892.13C1190.85 892.13 1190.12 892.268 1189.44 892.537C1188.77 892.805 1188.15 893.199 1187.63 893.696C1187.12 894.192 1186.71 894.782 1186.42 895.431C1186.14 896.079 1186 896.775 1186 897.477Z" fill="#95BBF9"/>
    <path d="M1206.84 913.954C1206.84 915.012 1207.17 916.045 1207.78 916.925C1208.39 917.804 1209.27 918.49 1210.29 918.894C1211.3 919.299 1212.43 919.405 1213.51 919.199C1214.59 918.992 1215.59 918.483 1216.37 917.735C1217.15 916.987 1217.68 916.034 1217.89 914.997C1218.11 913.96 1218 912.885 1217.58 911.908C1217.15 910.931 1216.44 910.096 1215.52 909.508C1214.6 908.921 1213.52 908.607 1212.42 908.607C1210.94 908.607 1209.52 909.17 1208.47 910.173C1207.43 911.176 1206.84 912.536 1206.84 913.954Z" fill="#95BBF9"/>
    <path d="M1186 969.286C1186 970.344 1186.33 971.377 1186.94 972.257C1187.55 973.136 1188.43 973.821 1189.44 974.226C1190.46 974.631 1191.59 974.737 1192.67 974.53C1193.75 974.324 1194.75 973.815 1195.53 973.067C1196.31 972.319 1196.84 971.366 1197.05 970.329C1197.27 969.292 1197.16 968.217 1196.73 967.24C1196.31 966.263 1195.6 965.428 1194.68 964.84C1193.76 964.252 1192.68 963.939 1191.58 963.939C1190.1 963.939 1188.68 964.502 1187.63 965.505C1186.59 966.508 1186 967.868 1186 969.286Z" fill="#95BBF9"/>
    <path d="M1209.95 935.083C1209.95 935.551 1210.1 936.008 1210.37 936.397C1210.64 936.786 1211.03 937.089 1211.48 937.268C1211.93 937.447 1212.42 937.494 1212.9 937.403C1213.38 937.312 1213.82 937.086 1214.17 936.756C1214.51 936.425 1214.75 936.003 1214.84 935.545C1214.94 935.086 1214.89 934.61 1214.7 934.178C1214.51 933.746 1214.2 933.376 1213.79 933.116C1213.39 932.857 1212.91 932.718 1212.42 932.718C1212.1 932.718 1211.78 932.779 1211.48 932.898C1211.18 933.016 1210.9 933.191 1210.67 933.41C1210.45 933.63 1210.26 933.891 1210.14 934.178C1210.02 934.465 1209.95 934.772 1209.95 935.083Z" fill="#95BBF9"/>
    <path d="M1193.2 1077.63C1193.2 1078.1 1193.34 1078.56 1193.62 1078.95C1193.89 1079.34 1194.27 1079.64 1194.72 1079.82C1195.17 1080 1195.67 1080.05 1196.15 1079.95C1196.63 1079.86 1197.07 1079.64 1197.41 1079.31C1197.76 1078.98 1197.99 1078.55 1198.09 1078.1C1198.18 1077.64 1198.13 1077.16 1197.95 1076.73C1197.76 1076.3 1197.44 1075.93 1197.04 1075.67C1196.63 1075.41 1196.16 1075.27 1195.67 1075.27C1195.01 1075.27 1194.38 1075.52 1193.92 1075.96C1193.46 1076.41 1193.2 1077.01 1193.2 1077.63Z" fill="#95BBF9"/>
    <path d="M1208.65 742.365C1208.65 742.833 1208.8 743.291 1209.07 743.68C1209.34 744.07 1209.73 744.373 1210.18 744.552C1210.63 744.732 1211.12 744.779 1211.6 744.687C1212.08 744.596 1212.52 744.371 1212.87 744.04C1213.21 743.709 1213.45 743.287 1213.54 742.828C1213.64 742.369 1213.59 741.893 1213.4 741.46C1213.22 741.028 1212.9 740.658 1212.49 740.398C1212.09 740.138 1211.61 740 1211.12 740C1210.47 740 1209.84 740.249 1209.38 740.693C1208.91 741.136 1208.65 741.738 1208.65 742.365Z" fill="#95BBF9"/>
</svg>