<svg xmlns="http://www.w3.org/2000/svg" width="1920" height="1080" viewBox="0 0 1920 1080" fill="none">
    <g clip-path="url(#clip0_215_64805)">
        <path d="M560 851.5L0 921V1080H1920V914L1733.75 901L1391.5 870.5L1380.69 869.809C1336.31 866.969 1274.27 863 1268 863C1261.2 863 1143.75 860 1095.75 860L560 851.5Z" fill="#0F45B8"/>
        <path d="M-10.542 1023.73L264.013 1013.01L287.908 1003.4H328.554L486.207 956.605L794.125 914.728L1425.97 946.751L1445.68 952.91L1751.7 994.528L1939.61 990.475V957.218L1858.6 969.228L1721.88 978.466L1447.99 948.906L1429.51 942.44L795.971 908.569L481.28 946.748L331.632 987.393L282.365 984.314L255.265 997.862L74.21 1007.1L-10.5439 999.709L-10.542 1023.73Z" fill="url(#paint0_linear_215_64805)"/>
        <path d="M1141.68 988.01L1134.29 997.863L1298.72 1023.73L1737.2 1046.51L1771.68 1057.6L1811.73 1080H1881.69L1782.37 1055.7L1745.47 1034.01L1298.26 1021.19L1141.68 988.01Z" fill="url(#paint1_linear_215_64805)"/>
        <path d="M1939.61 899.944L1678.47 908.566L1657.53 904.255L1454.3 882.701L1254.55 876.919L1267.81 865.59L1455.84 878.698L1658.45 899.636L1680.01 901.791L1939.61 892.091L1939.61 899.944Z" fill="url(#paint2_linear_215_64805)"/>
        <path d="M780.345 961.836L771.954 954.677L583.508 966.147L391.62 1039.76L367.349 1034L237.408 1039.76L50.8081 1080H197.685L235.559 1059.68L240.485 1047.13L368.579 1046.82L395.679 1045.59L584.124 974.46L780.345 961.836Z" fill="url(#paint3_linear_215_64805)"/>
        <path d="M-10.542 886.935L302.072 908.566L399.989 897.75H443.098L607.526 882.239L943.157 865.304L1193.5 871.304L1183.33 865.304L945.621 861.147L602.6 873.464L438.634 894.71L425.855 895.172L396.911 894.71L284.828 902.41L-10.542 881.472V886.935Z" fill="url(#paint4_linear_215_64805)"/>
        <g style="mix-blend-mode:multiply">
            <path d="M1737.2 1046.51L1745.48 1034L1410.58 1023.73V1029.54L1737.2 1046.51Z" fill="#808CD3"/>
        </g>
        <g style="mix-blend-mode:multiply">
            <path d="M1782.37 1055.7L1780.85 1062.72L1811.73 1080H1881.69L1782.37 1055.7Z" fill="#808CD3"/>
        </g>
        <g style="mix-blend-mode:multiply">
            <path d="M583.505 966.147L584.121 974.461L780.342 961.836L771.951 954.677L583.505 966.147Z" fill="#808CD3"/>
        </g>
        <g style="mix-blend-mode:multiply">
            <path d="M391.621 1039.76L395.679 1045.59L240.488 1047.13L237.409 1039.76L367.351 1034L391.621 1039.76Z" fill="#808CD3"/>
        </g>
        <g style="mix-blend-mode:multiply">
            <path d="M235.564 1059.68L214.626 1044.67L50.814 1080H197.691L235.564 1059.68Z" fill="#808CD3"/>
        </g>
        <g style="mix-blend-mode:multiply">
            <path d="M331.632 987.393L328.553 1003.4H287.907L282.365 984.314L331.632 987.393Z" fill="#808CD3"/>
        </g>
        <g style="mix-blend-mode:multiply">
            <path d="M255.268 997.862L264.013 1013.01L27.155 1022.26L74.2129 1007.1L255.268 997.862Z" fill="#808CD3"/>
        </g>
        <g style="mix-blend-mode:multiply" opacity="0.6">
            <path d="M794.12 914.728L795.967 908.57L1429.51 942.441L1425.97 946.752L794.12 914.728Z" fill="#808CD3"/>
        </g>
        <g style="mix-blend-mode:multiply">
            <path d="M1447.99 948.904L1445.68 952.904L1751.7 994.523L1726.5 978.149L1447.99 948.904Z" fill="#808CD3"/>
        </g>
        <g style="mix-blend-mode:multiply" opacity="0.6">
            <path d="M601.39 882.818L602.599 873.463L942.699 861.146L943.161 865.303L601.39 882.818Z" fill="#808CD3"/>
        </g>
        <path d="M1211.81 990.112L1292.58 993.912L1408.69 985.625L1424.26 921.68H1416.27L1418.79 903.31L1322.03 875.477L1181.91 941.264L1189.1 959.264L1207.61 956.6L1209.21 963.992L1198.15 968.51L1211.81 990.112Z" fill="url(#paint5_linear_215_64805)"/>
        <path d="M1181.91 941.264L1330.44 935.983L1418.79 903.309L1322.03 875.476L1181.91 941.264Z" fill="#066BD3"/>
        <path d="M1198.16 968.508L1275.76 980.566L1343.49 958.275L1209.21 963.99L1198.16 968.508Z" fill="#066BD3"/>
        <path d="M1424.26 921.68L1358.63 944.465L1416.27 921.68H1424.26Z" fill="#066BD3"/>
        <g style="mix-blend-mode:multiply" opacity="0.8">
            <path d="M1207.61 956.597L1291.87 960.471L1209.22 963.989L1207.61 956.597Z" fill="#808CD3"/>
        </g>
        <g style="mix-blend-mode:multiply" opacity="0.8">
            <path d="M1275.76 980.565L1292.59 993.912L1408.7 985.625L1424.26 921.68L1358.63 944.465L1416.27 921.68L1418.79 903.31L1332.37 936.589L1333.6 959.067L1275.76 980.565Z" fill="#808CD3"/>
        </g>
        <g style="mix-blend-mode:soft-light">
            <path d="M1332.37 936.586L1377.72 920.414L1338.48 912.347L1226.75 927.656L1198.16 941.262L1332.37 936.586Z" fill="#8CA2D1"/>
        </g>
        <g style="mix-blend-mode:soft-light">
            <path d="M1313.27 905.402L1321.9 897.93L1346.38 893.222L1313.27 905.402Z" fill="#8CA2D1"/>
        </g>
        <g style="mix-blend-mode:soft-light">
            <path d="M1275.76 980.565L1309.62 969.42H1237.83L1228.55 973.23L1275.76 980.565Z" fill="#8CA2D1"/>
        </g>
        <path d="M1332.13 997.684L1317.63 965.984L1414 963.825L1586.23 985.625V1000.54L1455.4 1011.58L1332.13 997.684Z" fill="url(#paint6_linear_215_64805)"/>
        <path d="M1317.63 965.988L1448.52 1004.14L1586.23 985.625L1414 963.825L1317.63 965.988Z" fill="#066BD3"/>
        <g style="mix-blend-mode:multiply" opacity="0.8">
            <path d="M1448.52 1004.14L1455.39 1011.58L1586.23 1000.54V985.624L1448.52 1004.14Z" fill="#808CD3"/>
        </g>
        <g style="mix-blend-mode:soft-light">
            <path d="M1448.52 1004.13L1382.93 985.018L1416.01 974.991L1528.8 985.004L1544.07 991.29L1448.52 1004.13Z" fill="#8CA2D1"/>
        </g>
        <g style="mix-blend-mode:soft-light">
            <path d="M1382.93 980.004L1372.7 974.992L1382.93 969.419H1405.65L1382.93 980.004Z" fill="#8CA2D1"/>
        </g>
        <g style="mix-blend-mode:multiply" opacity="0.2">
            <path d="M643.563 1080L736.844 1050.04L1005.3 1059.37L1025.89 1080H643.563Z" fill="#808CD3"/>
            <path d="M1014.04 1034.01L1038.1 1050.04H1096.5L1034.3 1035.12L1014.04 1034.01Z" fill="#808CD3"/>
            <path d="M904.016 929.544L925.726 954.144L1105.13 956.602V941.264L904.016 929.544Z" fill="#808CD3"/>
            <path d="M859.911 930.598L794.126 943.071L711.854 925.915L794.126 914.726L855.921 930.598H859.911Z" fill="#808CD3"/>
            <path d="M1031.38 887.078L1055.28 908.566L1211.51 905.401L1181.91 894.709L1031.38 887.078Z" fill="#808CD3"/>
            <path d="M1017.64 884.857L1028.61 894.71H1014.04L1004.57 887.078L1017.64 884.857Z" fill="#808CD3"/>
            <path d="M601.386 902.156H526.54L505.525 926.063L607.369 914.109L601.386 902.156Z" fill="#808CD3"/>
            <path d="M607.372 894.857L611.067 897.823L623.076 893.223L607.372 894.857Z" fill="#808CD3"/>
            <path d="M520.926 861.642L560.726 851.403L635.319 858.38L520.926 861.642Z" fill="#808CD3"/>
        </g>
        <g style="mix-blend-mode:soft-light">
            <path d="M566.266 1061.12C571.079 1063.15 572.91 1064.21 579.066 1063.99C582.574 1063.92 586.067 1063.52 589.504 1062.82C591.798 1062.32 595.324 1061.07 593.416 1059.52C592.538 1058.81 588.17 1058.06 586.574 1057.82C581.489 1057.06 573.226 1058.73 569.689 1060.55L566.266 1061.12Z" fill="#ABBBDD"/>
            <path d="M389.847 998.893C394.66 1000.93 396.491 1001.98 402.647 1001.77C406.156 1001.69 409.65 1001.3 413.089 1000.6C415.383 1000.09 418.909 998.844 417.002 997.303C416.124 996.593 411.755 995.835 410.158 995.597C405.073 994.838 396.811 996.513 393.274 998.325L389.847 998.893Z" fill="#ABBBDD"/>
            <path d="M1101.28 1034.29C1106.09 1036.33 1107.92 1037.39 1114.08 1037.17C1117.59 1037.09 1121.08 1036.7 1124.52 1036C1126.82 1035.49 1130.34 1034.24 1128.44 1032.7C1127.56 1031.99 1123.19 1031.23 1121.59 1031C1116.51 1030.24 1108.24 1031.91 1104.71 1033.72L1101.28 1034.29Z" fill="#ABBBDD"/>
            <path d="M601.641 1065.1C606.253 1064.36 611.885 1063.2 616.531 1064.64C619.231 1065.48 619.37 1067.15 617.631 1068.23C614.571 1070.13 602.953 1069.04 602.787 1066.23L601.641 1065.1Z" fill="#ABBBDD"/>
            <path d="M61.2471 1045.66C65.8591 1044.92 71.491 1043.76 76.136 1045.21C78.836 1046.05 78.9751 1047.71 77.2361 1048.79C74.1761 1050.69 62.5581 1049.6 62.3921 1046.79L61.2471 1045.66Z" fill="#ABBBDD"/>
            <path d="M617.742 950.472C622.354 949.732 627.986 948.572 632.631 950.016C635.331 950.856 635.47 952.523 633.726 953.604C630.666 955.504 619.048 954.414 618.883 951.609L617.742 950.472Z" fill="#ABBBDD"/>
            <path d="M756.834 1063.96C754.718 1065.33 750.328 1067.02 753.034 1068.73C758.122 1071.95 770.934 1071.9 778.117 1071.97C788.596 1072.07 800.217 1072 810.186 1070.08C813.499 1069.45 819.809 1068.28 819.799 1066.08C819.789 1063.86 812.793 1061.95 809.284 1061.32C804.394 1060.5 799.463 1059.95 794.513 1059.66C788.237 1059.26 781.941 1059.26 775.664 1059.66C767.685 1060.18 762.722 1061.17 756.834 1063.96Z" fill="#7791C8"/>
            <path d="M1355.28 1047.83C1351.27 1050.05 1342.94 1052.78 1348.07 1055.55C1357.72 1060.75 1382.02 1060.66 1395.65 1060.78C1415.52 1060.95 1437.57 1060.82 1456.47 1057.73C1462.76 1056.7 1474.72 1054.82 1474.7 1051.28C1474.68 1047.69 1461.42 1044.59 1454.76 1043.58C1445.86 1042.23 1436.09 1041.42 1426.75 1040.9C1414.84 1040.24 1402.9 1040.24 1390.99 1040.89C1375.86 1041.73 1366.45 1043.32 1355.28 1047.83Z" fill="#7791C8"/>
            <path d="M916.884 953.197C915.745 953.936 913.384 954.846 914.838 955.768C917.578 957.502 924.477 957.473 928.347 957.512C933.991 957.569 940.252 957.527 945.62 956.496C947.405 956.153 950.803 955.526 950.797 954.344C950.791 953.162 947.024 952.117 945.135 951.78C942.501 951.336 939.845 951.036 937.178 950.88C933.798 950.661 930.406 950.661 927.026 950.88C923.521 950.937 920.066 951.726 916.884 953.197Z" fill="#7791C8"/>
            <path d="M834.431 1069.65C836.94 1069.38 846.847 1067.21 849.119 1069.63C850.119 1070.69 847.39 1071.51 845.896 1071.92C843.268 1072.57 840.541 1072.73 837.854 1072.39C835.497 1071.95 831.816 1070.16 831.007 1069.08L834.431 1069.65Z" fill="#ABBBDD"/>
            <path d="M1543.11 1065.98C1545.62 1065.72 1555.52 1063.55 1557.8 1065.97C1558.8 1067.03 1556.07 1067.85 1554.57 1068.26C1551.95 1068.91 1549.22 1069.07 1546.53 1068.73C1544.18 1068.29 1540.49 1066.5 1539.69 1065.41L1543.11 1065.98Z" fill="#ABBBDD"/>
            <path d="M1095.54 889.865C1098.05 889.735 1107.96 888.647 1110.23 889.858C1111.23 890.388 1108.5 890.799 1107.01 891.001C1104.34 891.33 1101.65 891.409 1098.97 891.237C1097.69 891.235 1096.47 890.743 1095.54 889.864V889.865Z" fill="#ABBBDD"/>
            <path d="M878.934 1059.98C876.378 1060.06 873.863 1060.66 871.548 1061.74C872.248 1063.51 876.19 1063.88 878.975 1063.13C881.739 1062.38 881.737 1060.06 877.793 1060.55L878.934 1059.98Z" fill="#ABBBDD"/>
            <path d="M739.119 896.063C732.634 896.116 726.164 896.691 719.772 897.782C721.593 899.508 731.929 899.873 739.225 899.135C746.467 898.403 746.459 896.135 736.125 896.617L739.119 896.063Z" fill="#ABBBDD"/>
            <path d="M1134.98 883.14C1128.5 883.192 1122.03 883.767 1115.64 884.859C1117.46 886.585 1127.79 886.95 1135.09 886.212C1142.33 885.48 1142.32 883.212 1131.99 883.694L1134.98 883.14Z" fill="#ABBBDD"/>
            <path d="M665.213 912.35C662.656 912.425 660.143 913.025 657.827 914.112C658.522 915.88 662.468 916.254 665.253 915.499C668.019 914.749 668.015 912.426 664.071 912.919L665.213 912.35Z" fill="#ABBBDD"/>
            <path d="M858.62 964.635C856.064 964.71 853.55 965.31 851.235 966.397C851.935 968.165 855.876 968.539 858.661 967.784C861.426 967.034 861.422 964.711 857.48 965.204L858.62 964.635Z" fill="#ABBBDD"/>
            <path d="M430.222 836.532C427.666 836.607 425.152 837.206 422.837 838.293C423.537 840.061 427.478 840.435 430.263 839.68C433.028 838.929 433.025 836.607 429.081 837.1L430.222 836.532Z" fill="#ABBBDD"/>
            <path d="M887.422 1066.53C886.514 1066.6 885.629 1066.85 884.822 1067.27C884.491 1067.47 883.122 1068.21 883.104 1068.71C883.067 1069.99 885.658 1069.61 886.44 1069.61C887.705 1069.57 888.971 1069.65 890.221 1069.85C892.848 1070.19 895.52 1069.78 897.921 1068.66C899.559 1067.95 902.1 1066.88 902.696 1064.98C903.343 1062.9 900.465 1062.79 899.111 1062.82C896.754 1062.86 894.477 1062.89 892.134 1063.17C891.038 1063.3 889.96 1063.55 888.921 1063.92C887.31 1064.49 886.442 1065.3 887.422 1066.53Z" fill="#ABBBDD"/>
            <path d="M908.67 1064.99C909.795 1064.83 913.57 1063.9 914.178 1065.61C914.423 1066.29 913.621 1067.36 913.1 1067.72C912.813 1067.92 912.483 1068.04 912.139 1068.07C911.795 1068.1 911.448 1068.05 911.129 1067.92C910.629 1067.73 908.966 1066.81 909.007 1066.28L909.285 1066.22L908.67 1064.99Z" fill="#ABBBDD"/>
            <path d="M1709.99 1019.19C1711.11 1019.04 1714.88 1018.11 1715.49 1019.81C1715.74 1020.49 1714.94 1021.56 1714.41 1021.93C1714.13 1022.12 1713.8 1022.24 1713.45 1022.27C1713.11 1022.31 1712.76 1022.25 1712.44 1022.12C1711.94 1021.93 1710.28 1021.01 1710.32 1020.48L1710.6 1020.42L1709.99 1019.19Z" fill="#ABBBDD"/>
            <path d="M455.418 910.317C456.543 910.16 460.318 909.23 460.926 910.934C461.172 911.616 460.37 912.689 459.848 913.053C459.562 913.247 459.231 913.365 458.887 913.399C458.543 913.432 458.196 913.38 457.878 913.245C457.378 913.057 455.714 912.137 455.755 911.609L456.033 911.549L455.418 910.317Z" fill="#ABBBDD"/>
            <path d="M97.9719 1050.52C99.0969 1050.36 102.872 1049.43 103.48 1051.13C103.725 1051.82 102.923 1052.89 102.402 1053.25C102.115 1053.45 101.785 1053.56 101.441 1053.6C101.097 1053.63 100.75 1053.58 100.431 1053.44C99.9312 1053.26 98.2681 1052.34 98.3091 1051.81L98.5872 1051.75L97.9719 1050.52Z" fill="#ABBBDD"/>
            <path d="M711.853 893.509C712.978 893.352 716.753 892.423 717.362 894.126C717.608 894.809 716.805 895.881 716.283 896.246C715.997 896.439 715.666 896.558 715.322 896.591C714.978 896.624 714.631 896.572 714.313 896.437C713.813 896.249 712.15 895.329 712.191 894.801L712.469 894.742L711.853 893.509Z" fill="#ABBBDD"/>
            <path d="M709.076 979.217C710.201 979.06 713.976 978.13 714.584 979.834C714.83 980.516 714.027 981.589 713.506 981.953C713.22 982.146 712.889 982.265 712.545 982.298C712.201 982.332 711.855 982.279 711.536 982.145C711.036 981.957 709.373 981.037 709.413 980.509L709.692 980.449L709.076 979.217Z" fill="#ABBBDD"/>
            <path d="M918.524 1066.84C918.941 1067.16 919.85 1068.18 920.457 1068.17C920.597 1068.17 920.92 1067.91 921.052 1067.85C921.574 1067.6 922.428 1067.4 922.528 1066.68C922.718 1065.32 920.22 1065.61 919.448 1065.6L918.524 1066.84Z" fill="#ABBBDD"/>
            <path d="M1760.55 1011.3C1762.06 1011.63 1765.37 1012.65 1767.58 1012.64C1768.09 1012.64 1769.27 1012.37 1769.74 1012.31C1771.64 1012.07 1774.75 1011.86 1775.11 1011.15C1775.8 1009.79 1766.71 1010.08 1763.91 1010.07L1760.55 1011.3Z" fill="#ABBBDD"/>
            <path d="M1026.6 914.683C1027.01 915.004 1027.92 916.03 1028.53 916.021C1028.67 916.021 1028.99 915.754 1029.13 915.692C1029.65 915.447 1030.51 915.244 1030.61 914.525C1030.8 913.166 1028.3 913.456 1027.53 913.451L1026.6 914.683Z" fill="#ABBBDD"/>
            <path d="M1890.02 1050.57C1890.44 1050.89 1891.34 1051.92 1891.95 1051.91C1892.09 1051.91 1892.42 1051.64 1892.55 1051.58C1893.07 1051.34 1893.92 1051.13 1894.02 1050.42C1894.21 1049.06 1891.71 1049.35 1890.94 1049.34L1890.02 1050.57Z" fill="#ABBBDD"/>
            <path d="M616.769 946.706C617.185 947.027 618.095 948.053 618.702 948.044C618.843 948.044 619.166 947.777 619.302 947.716C619.823 947.471 620.678 947.268 620.779 946.549C620.968 945.19 618.47 945.48 617.698 945.474L616.769 946.706Z" fill="#ABBBDD"/>
        </g>
        <path d="M532.856 914.72L526.544 902.151L562.801 887.841L631.852 896.592L630.235 913.4L610.144 920.41L532.856 914.72Z" fill="url(#paint7_linear_215_64805)"/>
        <path d="M526.544 902.155L579.198 910.875H620.783L617.741 912.349L580.429 914.724L611.991 917.187L628.003 909.671L631.852 896.596L562.801 887.845L526.544 902.155Z" fill="#0626AA"/>
        <path d="M1177.32 903.705L1173.17 889.871L1190.93 881.338L1227.04 884.918L1238.56 891.418L1233.62 904.889L1177.32 903.705Z" fill="url(#paint8_linear_215_64805)"/>
        <path d="M1173.17 889.871L1223.56 892.522L1238.56 891.422L1227.04 884.922L1190.92 881.342L1173.17 889.871Z" fill="#0626AA"/>
        <path d="M1204.17 901.154L1215.02 898.893H1235.13L1223.56 901.962L1204.17 901.154Z" fill="#0626AA"/>
        <path d="M-10.542 106.055L367.347 197.045L362.09 209.501L762.064 204.432L681.337 343.554L632.97 358.292L592.214 366.374L595.629 399.633L551.465 502.276L564.965 499.645L601.391 529.558L390.462 808.9L380.299 822.874L416.31 878.985L372.486 914.097L350.196 926.319L345.901 932.111L398.267 916.55L449.677 928.512L302.814 954.882L192.024 980.105L-10.542 977.526V106.055Z" fill="url(#paint9_linear_215_64805)"/>
        <path d="M380.298 822.874L141.423 845.095L281.093 904.295L416.308 878.987L380.298 822.874Z" fill="#066BD3"/>
        <path d="M398.267 916.549L307.56 942.539L449.676 928.513L398.267 916.549Z" fill="#066BD3"/>
        <path d="M266.824 943.715L230.131 944.776L197.806 948.976L264.406 951.946L266.824 943.715Z" fill="#066BD3"/>
        <path d="M107.276 855.371L175.481 898.864L167.206 949.792L33.332 867.554L107.276 855.371Z" fill="#066BD3"/>
        <path d="M81.1089 906.517L130.264 936.304L101.325 938.955L81.1089 906.517Z" fill="#066BD3"/>
        <path d="M564.964 499.645L305.716 469.103L601.391 529.558L564.964 499.645Z" fill="#066BD3"/>
        <path d="M595.629 399.633L459.642 415.133L447.562 398.075L592.214 366.375L595.629 399.633Z" fill="#066BD3"/>
        <path d="M-10.542 687.636L138.902 681.536L394.022 760.949L414.37 776.999L250.077 797.635L-10.541 721.662L-10.542 687.636Z" fill="#066BD3"/>
        <path d="M762.067 204.432L498.561 299.61L198.198 273.754L362.098 209.5L762.067 204.432Z" fill="#066BD3"/>
        <path d="M201.913 285.248L333.876 307.538L367.351 338.796L201.913 285.248Z" fill="#066BD3"/>
        <path d="M-10.542 908.411L144.127 975.468L69.8152 968.923L-10.542 925.26V908.411Z" fill="#066BD3"/>
        <path d="M12.6289 942.761L49.613 966.907L27.9019 967.255L12.6289 942.761Z" fill="#066BD3"/>
        <path d="M181.021 899.969L232.042 916.003L217.561 905.881L181.021 899.969Z" fill="#066BD3"/>
        <path d="M-10.542 810.455L141.424 845.095L54.082 852.414L-10.542 830.369V810.455Z" fill="#066BD3"/>
        <path d="M-7.50391 850.463L13.907 856.543L27.156 872.221L-7.50391 850.463Z" fill="#066BD3"/>
        <path d="M192.023 980.106L169.433 951.206L189.77 949.189L223.089 974.764L192.023 980.106Z" fill="#066BD3"/>
        <path d="M67.8679 900.192L84.616 919.055L43.8799 901.771L67.8679 900.192Z" fill="#066BD3"/>
        <path d="M-10.542 930.27L12.6292 942.762L-10.542 936.955V930.27Z" fill="#066BD3"/>
        <path d="M283.794 555.181L367.351 591.927L324.792 560.65L283.794 555.181Z" fill="#066BD3"/>
        <path d="M-10.542 305.745L124.612 287.44L305.712 469.103L3.64697 442.011L-6.94482 412.883L-10.542 305.745Z" fill="#066BD3"/>
        <path d="M-10.542 452.911L13.1021 454.751L71.415 483.424L-10.542 472.335V452.911Z" fill="#066BD3"/>
        <path d="M439.644 394.601L333.875 376.679V393.638L439.644 394.601Z" fill="#066BD3"/>
        <g style="mix-blend-mode:soft-light">
            <path d="M498.561 299.61L510.779 374.104L681.337 343.553L762.067 204.431L498.561 299.61Z" fill="#808CD3"/>
        </g>
        <g style="mix-blend-mode:soft-light">
            <path d="M459.642 415.13V490.181L551.465 502.275L595.63 399.632L459.642 415.13Z" fill="#808CD3"/>
        </g>
        <g style="mix-blend-mode:soft-light">
            <path d="M250.076 797.633L260.195 834.046L380.295 822.874L414.364 776.997L250.076 797.633Z" fill="#808CD3"/>
        </g>
        <g style="mix-blend-mode:soft-light">
            <path d="M281.093 904.293L266.823 943.714L307.559 942.537L345.899 932.111L372.484 914.097L416.308 878.985L281.093 904.293Z" fill="#808CD3"/>
        </g>
        <path d="M105.682 258.351L175.482 319.981L260.193 340.92L144.127 258.351H105.682Z" fill="#066BD3"/>
        <path d="M212.159 334.145L239.259 340.919L260.195 371.709L212.159 334.145Z" fill="#066BD3"/>
        <path d="M367.35 328.998L498.561 352.928L511.761 366.373L435.337 371.711L354.724 334.145L367.35 328.998Z" fill="#066BD3"/>
        <path d="M130.259 513.97L266.823 549.899L274.974 541.788L193.183 513.97H130.259Z" fill="#066BD3"/>
        <path d="M367.347 197.045L114.547 231.588L-10.542 220.605V106.055L367.347 197.045Z" fill="#066BD3"/>
        <g style="mix-blend-mode:multiply" opacity="0.6">
            <path d="M33.334 867.554L38.199 929.543L23.7141 923.263L27.155 872.22L33.334 867.554Z" fill="#808CD3"/>
            <path d="M169.433 954.677L156.58 978.526L169.433 951.207V954.677Z" fill="#808CD3"/>
            <path d="M250.076 797.633L223.09 837.498L135.912 843.838L-10.541 810.454V721.664L250.076 797.633Z" fill="#808CD3"/>
            <path d="M130.26 513.97L138.902 681.534L123.84 682.149L130.26 513.97Z" fill="#808CD3"/>
            <path d="M13.1021 454.751L16.4751 443.161L3.64917 442.011L-6.94287 412.883L-10.543 452.911L13.1021 454.751Z" fill="#808CD3"/>
            <path d="M54.082 852.416L50.811 864.677L33.335 867.556L27.155 872.222L13.906 856.544L-10.542 850.464V830.369L54.082 852.416Z" fill="#808CD3"/>
            <path d="M141.423 845.095L140.48 876.543L175.48 898.864L217.557 905.882L232.038 916.004L235.557 944.618L266.82 943.718L281.09 904.297L141.423 845.095Z" fill="#808CD3"/>
            <path d="M69.8152 968.923L67.8882 978.523L49.613 978.297V966.908L12.6292 942.762L-10.542 930.27V925.26L69.8152 968.923Z" fill="#808CD3"/>
            <path d="M27.9021 967.257L29.6362 978.04L15.4812 977.86L12.6292 942.76L27.9021 967.257Z" fill="#808CD3"/>
            <path d="M84.616 919.055V950.097L96.1719 954.677L101.321 938.954L81.105 906.516L77.7749 911.349L84.616 919.055Z" fill="#808CD3"/>
            <path d="M198.198 273.755L194.76 294.37L144.128 258.351L114.55 231.587L367.35 197.044L362.093 209.5L198.198 273.755Z" fill="#808CD3"/>
            <path d="M175.484 319.981V338.795L124.612 287.44L100.748 290.672L105.682 258.351L175.484 319.981Z" fill="#808CD3"/>
            <path d="M360.046 331.976L357.182 287.44L331.711 285.248L333.874 307.538L360.046 331.976Z" fill="#808CD3"/>
            <path d="M435.34 371.712L439.645 394.601L333.876 376.679L322.048 324.132L367.348 338.795L435.34 371.712Z" fill="#808CD3"/>
            <path d="M333.875 393.633L338.019 472.904V394.601L333.875 393.633Z" fill="#808CD3"/>
            <path d="M212.16 334.146L208.624 371.712L203.303 366.374V328.999L229.856 333.421V338.57L212.16 334.146Z" fill="#808CD3"/>
            <path d="M283.793 555.181L250.076 716.14L281.094 588.178L283.793 555.181Z" fill="#808CD3"/>
            <path d="M187.978 902.154L169.434 951.205L175.484 898.862L187.978 902.154Z" fill="#808CD3"/>
            <path d="M197.806 948.976L201.69 959.153L189.771 949.19L197.806 948.976Z" fill="#808CD3"/>
            <path d="M459.642 415.13V487.237L447.562 485.814V398.073L459.642 415.13Z" fill="#808CD3"/>
        </g>
        <g style="mix-blend-mode:multiply" opacity="0.5">
            <path d="M305.716 469.103L480.133 518.126L509.301 513.969L518.847 518.126L527.636 529.558L586.589 536.601L601.389 529.558L305.716 469.103Z" fill="#808CD3"/>
        </g>
        <g style="mix-blend-mode:multiply" opacity="0.5">
            <path d="M357.183 287.44L480.132 308.612L486.516 298.574L501.231 315.881L516.382 308.612L527.64 298.573L661.071 245.707L667.883 261.168L690.053 266.249L737.627 223.295H743.169L762.069 204.432L498.561 299.61L357.183 287.44Z" fill="#808CD3"/>
        </g>
        <g style="mix-blend-mode:multiply" opacity="0.5">
            <path d="M84.7239 449.283L164.124 469.103L188.758 468.167L212.158 466.088L246.953 468.167L250.075 483.423H279.284L305.714 469.102L84.7239 449.283Z" fill="#808CD3"/>
        </g>
        <g style="mix-blend-mode:multiply" opacity="0.5">
            <path d="M71.415 483.424H-10.542V472.335L71.415 483.424Z" fill="#808CD3"/>
        </g>
        <g style="mix-blend-mode:multiply" opacity="0.5">
            <path d="M-10.542 721.664L42.804 760.77H54.0811L65.4402 750.917L73.5962 751.841L80.062 755.841L95.4622 756.457L107.471 767.234L131.371 773.393H154.579L162.893 776.999L190.606 802.645H224.169L232.79 797.635L242.644 802.645H250.077L262.351 797.635H306.999L327.746 787.879L375.764 781.848L250.077 797.635L-10.542 721.664Z" fill="#808CD3"/>
        </g>
        <g style="mix-blend-mode:multiply" opacity="0.5">
            <path d="M141.423 845.095L151.499 861.147L182.609 878.985L193.183 872.71L195.729 878.985V882.243L203.844 887.016L212.466 878.989L214.621 882.243H217.701L244.801 892.712L266.825 906.131V926.431L271.573 930.602L307.561 906.522L316.545 904.298V909.628L326.398 905.492L328.246 898.553L368.97 887.853L372.587 892.716L391.37 887.853L416.311 878.992L281.093 904.293L141.423 845.095Z" fill="#808CD3"/>
        </g>
        <g style="mix-blend-mode:multiply" opacity="0.5">
            <path d="M-10.542 830.369L-10.4648 834.513H-7.50488L-4.30493 837.284L0.930176 835.59L4.54712 835.516L33.332 850.461L51.27 853.761L52.134 859.708L64.51 852.417H67.127L80.9832 851.298L109.311 850.466L113.622 853.766L130.095 848.839L141.419 845.104L54.0771 852.423L-10.542 830.369Z" fill="#808CD3"/>
        </g>
        <g style="mix-blend-mode:multiply" opacity="0.5">
            <path d="M79.5249 895.929L88.0679 909.624H92.687L94.843 911.338L107.622 916.004L113.697 916.92L128.097 931.815L135.91 933.662L139.028 936.516L140.479 949.792L154.424 957.063L162.276 951.892L165.356 954.676L167.209 949.791L79.5249 895.929Z" fill="#808CD3"/>
        </g>
        <path d="M253.729 546.454L271.709 545.038L265.121 555.182L253.729 546.454Z" fill="#0650BB"/>
        <path d="M475.022 297.583L517.961 292.602L500.599 312.021L475.022 297.583Z" fill="#0650BB"/>
        <path d="M427.522 367.927L443.093 371.17L436.573 378.27L427.522 367.927Z" fill="#0650BB"/>
        <path d="M86.158 229.094L119.871 230.861L114.549 237.613L86.158 229.094Z" fill="#0650BB"/>
        <path d="M166.469 312.021L182.939 321.821L175.484 326.599L166.469 312.021Z" fill="#0650BB"/>
        <path d="M235.561 793.402L268.861 795.274L247.261 807.574L235.561 793.402Z" fill="#0650BB"/>
        <path d="M98.0591 933.72L108.547 938.292L99.467 944.617L98.0591 933.72Z" fill="#0650BB"/>
        <path d="M66.6299 967.192L75.7229 969.443L68.9509 973.229L66.6299 967.192Z" fill="#0650BB"/>
        <path d="M25.843 963.951L31.896 967.19L28.689 972.144L25.843 963.951Z" fill="#0650BB"/>
        <path d="M-3.94214 421.137L46.687 445.869L3.64697 442.009L-3.94214 421.137Z" fill="#0650BB"/>
        <g style="mix-blend-mode:soft-light">
            <path d="M79.5251 730.436L235.561 793.402L268.861 795.274L341.569 786.141L182.613 726.279L79.5251 730.436Z" fill="#8CA2D1"/>
            <path d="M193.185 716.14L232.316 735.978H286.831L210.789 716.14H193.185Z" fill="#8CA2D1"/>
            <path d="M218.011 859.704L232.311 871.104L294.678 884.86L286.826 843.842H193.18L214.619 859.704H218.011Z" fill="#8CA2D1"/>
            <path d="M286.829 902.039L232.041 882.239V876.539L332.222 892.705L336.256 893.965L286.829 902.039Z" fill="#8CA2D1"/>
            <path d="M305.715 469.102L163.652 326.602L42.188 338.794L71.4141 421.138H84.7239L79.7539 399.632L119.87 408.507L138.115 454.751L305.715 469.102Z" fill="#8CA2D1"/>
            <path d="M46.688 393.637L30.437 359.366L12.0129 366.373L34.1831 394.6L46.688 393.637Z" fill="#8CA2D1"/>
            <path d="M765.796 204.432L551.835 277.332L357.181 237.613L270.046 252.021L362.09 209.501L765.796 204.432Z" fill="#8CA2D1"/>
            <path d="M465.268 277.334L419.696 267.479L367.351 281.029H439.645L465.268 277.334Z" fill="#8CA2D1"/>
            <path d="M357.183 198.433L78.5229 155.398L46.688 176.915L147.588 214.515L266.937 210.762L357.183 198.433Z" fill="#8CA2D1"/>
            <path d="M100.747 204.432L-10.542 149.395V192.811L56.3582 204.432H100.747Z" fill="#8CA2D1"/>
            <path d="M351.393 784.906L235.561 742.29L240.007 739.582L338.217 743.575L394.017 760.945L416.305 776.995L351.393 784.906Z" fill="#8CA2D1"/>
            <path d="M294.683 845.094L311.618 863.583H332.223L304.843 841.44L294.683 845.094Z" fill="#8CA2D1"/>
            <path d="M33.334 867.553L119.767 920.653L135.911 911.353L98.0579 882.243L105.682 876.543L127.174 889.291L165.831 892.708L107.276 855.37L33.334 867.553Z" fill="#8CA2D1"/>
            <path d="M141.423 925.26L156.58 930.27V925.036L140.48 919.056L141.423 925.26Z" fill="#8CA2D1"/>
            <path d="M21.1331 922.143L5.54712 925.034L54.082 951.944L101.321 956.908L21.1331 922.143Z" fill="#8CA2D1"/>
            <path d="M37.2632 701.953L69.2871 712.114L85.6072 707.033L50.197 698.257L37.2632 701.953Z" fill="#8CA2D1"/>
            <path d="M173.952 279.568H147.587L178.404 308.612L229.855 319.312L173.952 279.568Z" fill="#8CA2D1"/>
            <path d="M260.195 258.351L295.606 267.481L262.813 274.255L229.857 266.303L260.195 258.351Z" fill="#8CA2D1"/>
        </g>
        <g style="mix-blend-mode:soft-light">
            <path d="M119.768 698.262L130.26 705.19L151.501 701.726L119.768 698.262Z" fill="#B3C8FF"/>
            <path d="M375.762 682.149L384.747 672.24L414.368 660.231L375.762 695.796V682.149Z" fill="#B3C8FF"/>
            <path d="M489.594 573.554L497.908 569.24L489.594 581.249V573.554Z" fill="#B3C8FF"/>
            <path d="M334.095 847.906L343.025 859.706L352.57 861.149L334.095 847.906Z" fill="#B3C8FF"/>
            <path d="M110.942 219.062L119.871 230.862L129.417 232.305L110.942 219.062Z" fill="#B3C8FF"/>
            <path d="M401.529 882.24L395.066 869.769L401.529 871.235L412.329 879.735L401.529 882.24Z" fill="#B3C8FF"/>
            <path d="M144.128 907.987L137.413 902.04L141.424 897.451L154.271 906.517L144.128 907.987Z" fill="#B3C8FF"/>
            <path d="M516.247 238.622L509.532 232.675L513.543 228.086L526.391 237.153L516.247 238.622Z" fill="#B3C8FF"/>
            <path d="M148.531 897.451L154.271 898.34V894.857L148.531 897.451Z" fill="#B3C8FF"/>
            <path d="M21.1331 822.874L35.415 831.434H43.8801L21.1331 822.874Z" fill="#B3C8FF"/>
            <path d="M9.82715 825.429L17.5571 829.129L9.82715 830.374V825.429Z" fill="#B3C8FF"/>
            <path d="M38.199 939.527L47.116 942.762C45.263 947.057 38.199 939.527 38.199 939.527Z" fill="#B3C8FF"/>
            <path d="M284.15 929.543L298.378 926.426L289.448 933.721L284.15 929.543Z" fill="#B3C8FF"/>
            <path d="M35.0752 148.865L49.303 145.747L40.373 153.047L35.0752 148.865Z" fill="#B3C8FF"/>
            <path d="M631.853 236.189L646.081 233.071L637.151 240.366L631.853 236.189Z" fill="#B3C8FF"/>
            <path d="M111.547 364.168L117.09 371.712L123.84 373.867L114.55 364.167L111.547 364.168Z" fill="#B3C8FF"/>
            <path d="M-2.30493 326.601L2.96606 340.919H7.8562L0.927979 328.997L-2.30493 326.601Z" fill="#B3C8FF"/>
        </g>
        <path d="M354.726 479.124L386.761 525.363L392.6 536.602L387.366 592.464L453.602 660.232L459.643 668.084L475.867 695.797L479.104 691.509L461.42 667.969L454.377 660.232L399.529 594.645L395.488 572.821L393.525 536.602L357.644 479.721L363.038 475.857L403.686 450.957L403.994 438.994L419.082 428.525L447.563 410.358L413.385 430.219L401.376 439.303L403.051 448.521L400.395 452.043L354.726 479.124Z" fill="#001B7A"/>
        <path d="M629.389 250.909L677.578 289.272L709.878 294.372L713.899 287.442L690.818 289.272L678.039 287.038L633.18 253.372L630.314 250.592L631.852 211.284L646.08 205.9L629.389 211.438V250.909Z" fill="#001B7A"/>
        <path d="M266.823 943.714L320.546 933.72L325.934 925.035L378.617 908.411V909.183L328.474 924.77L326.126 925.655L320.126 934.508L297.84 941.051L294.684 939.819L266.823 943.714Z" fill="#001B7A"/>
        <path d="M130.259 513.97L123.84 598.06L105.682 607.423L93.9221 631.44L90.322 633.326L21.1331 669.623L-10.542 678.245L-11.312 676.397L17.9021 669.353L28.5251 663.464L87.9922 633.981L94.4922 628.823L105.711 605.267L120.087 599.089L122.743 595.567L130.259 513.97Z" fill="#001B7A"/>
        <path d="M390.598 584.483L388.904 590.333L397.526 600.34L399.219 597.569L395.065 581.249L390.598 584.483Z" fill="#0650BB"/>
        <path d="M391.214 575.861V560.003L394.062 556.154L392.638 574.937L391.214 575.861Z" fill="#0650BB"/>
        <path d="M37.2629 821.352L65.4419 819.994L84.6169 793.403L119.768 759.648V753.993H210.546L266.935 765.54L303.457 790.481L323.01 809.11L343.333 810.456L350.415 824.968L356.222 825.115L351.877 824.429L349.01 821.429L343.669 810.315L325.858 809.015L320.719 806.503L304.378 790.814L269.431 766.614L267.314 764.42L264.927 764.613L210.544 753.605H124.478L118.012 752.527L113.012 756.527L104.512 755.193L80.5288 794.323L65.4458 818.032L37.2629 821.352Z" fill="#001B7A"/>
        <path d="M115.416 758.264L113.916 756.647L117.726 753.414L118.826 754.165V759.371L115.416 758.264Z" fill="#0650BB"/>
        <path d="M118.103 752.774L119.146 753.665H122.493L118.103 752.774Z" fill="#0650BB"/>
        <path d="M295.909 938.303L298.377 940.893L305.254 938.874L303.608 936.874L295.909 938.303Z" fill="#0650BB"/>
        <path d="M1580.32 942.941L1532.38 812.656L1610.32 769.347L1600.9 769.098L1607.53 750.865L1567.53 519.965L1595.8 517.89L1540.48 505.718L1533.94 467.362L1551.19 452.093L1490.37 438.593L1438.81 371.393L1445.06 363.216L1425.21 334.669L1691.1 236.853L1728.87 138.769L1783.34 329.002L1939.3 251.038L1939.55 252.493L1941.17 945.236L1861.43 948.21L1796.05 944.383L1795.56 937.747L1699.42 938.003L1699.24 945.236L1580.32 942.941Z" fill="url(#paint10_linear_215_64805)"/>
        <path d="M1796.15 945.811L1795.84 941.479L1825.9 886.817L1882.96 866.617L1868.16 928.617L1861.43 948.217L1796.15 945.811Z" fill="#066BD3"/>
        <g style="mix-blend-mode:soft-light">
            <path d="M1615.53 256.859L1636.36 324.159L1445.07 363.213L1425.21 334.666L1615.53 256.859Z" fill="#808CD3"/>
        </g>
        <g style="mix-blend-mode:soft-light">
            <path d="M1641.73 344.093L1650.16 408.793L1747.95 455.611L1786.18 457.552L1490.38 438.593L1438.82 371.393L1641.73 344.093Z" fill="#808CD3"/>
        </g>
        <g style="mix-blend-mode:soft-light">
            <path d="M1664.58 462.51L1674.61 525.427L1540.48 505.717L1533.94 467.362L1664.58 462.51Z" fill="#808CD3"/>
        </g>
        <g style="mix-blend-mode:soft-light">
            <path d="M1607.53 750.865L1622.78 760.676L1732.93 763.762L1776.54 573.067L1567.54 519.967L1607.53 750.865Z" fill="#808CD3"/>
        </g>
        <g style="mix-blend-mode:soft-light">
            <path d="M1655.28 790.738L1652.19 767.376L1629.74 766.443L1610.32 769.343L1655.28 790.738Z" fill="#808CD3"/>
        </g>
        <g style="mix-blend-mode:soft-light">
            <path d="M1666.98 815.178L1637.74 925.13L1658.59 933.962L1699.24 945.236L1580.32 942.942L1532.38 812.656L1666.98 815.178Z" fill="#808CD3"/>
        </g>
        <path d="M1691.1 236.85L1728.87 138.769L1445.24 285.757L1425.21 334.669L1691.1 236.85Z" fill="#066BD3"/>
        <path d="M1641.73 344.094L1691.68 337.255L1636.36 324.155L1445.07 363.212L1438.81 371.389L1641.73 344.094Z" fill="#066BD3"/>
        <path d="M1551.19 452.093L1533.95 467.36L1667.73 482.269L1786.18 457.549L1551.19 452.093Z" fill="#066BD3"/>
        <path d="M1595.8 517.889L1567.54 519.964L1776.54 573.064L1842.86 526.771L1674.62 525.427L1595.8 517.889Z" fill="#066BD3"/>
        <path d="M1606.51 771.464L1532.38 812.656L1666.98 815.178L1744.25 781.22L1656.22 782.667L1606.51 771.464Z" fill="#066BD3"/>
        <path d="M1783.34 583.834L1812.66 558.989L1843.95 551.669L1814.58 689.954L1783.34 583.834Z" fill="#066BD3"/>
        <path d="M1672.89 861.313L1772.94 775.806L1945.71 720.942L1791.4 880.872L1672.89 861.313Z" fill="#066BD3"/>
        <path d="M1673.67 871.638L1729.97 879.586L1701.34 883.953L1673.67 871.638Z" fill="#066BD3"/>
        <path d="M1665.08 822.296L1695.31 810.289L1673.08 831.469L1663.33 831.314L1665.08 822.296Z" fill="#066BD3"/>
        <path d="M1744.48 479.925L1823.99 472.373L1840.73 477.947L1765.54 487.99L1744.48 479.925Z" fill="#066BD3"/>
        <path d="M1776.55 398.166L1901.4 409.648L1865.5 375.953L1776.55 398.166Z" fill="#066BD3"/>
        <path d="M1940.05 467.414L1843.95 551.67L1940.11 488.914L1940.05 467.414Z" fill="#066BD3"/>
        <path d="M1939.3 251.038L1655.7 396.087L1860.3 377.428L1939.55 357.316L1939.3 251.038Z" fill="#066BD3"/>
        <path d="M1700.29 336.154L1757.46 321.854L1733.49 334.235L1700.29 336.154Z" fill="#066BD3"/>
        <path d="M1868.16 928.609L1883.94 899.609L1933.3 885.528L1906.17 907.177L1868.16 928.609Z" fill="#066BD3"/>
        <path d="M1694.95 937.89L1734.81 920.566L1770.91 915.826L1724.69 933.944L1694.95 937.89Z" fill="#066BD3"/>
        <path d="M1691.22 926.606L1703.99 918.721L1716.39 918.783L1696.92 925.983L1691.22 926.606Z" fill="#066BD3"/>
        <path d="M1817.58 872.924L1848.55 834.263L1909.29 803.663L1909.56 819.729L1817.58 872.924Z" fill="#066BD3"/>
        <path d="M1913.83 819.805L1940.61 809.511L1940.57 793.311L1913.83 819.805Z" fill="#066BD3"/>
        <path d="M1874.44 938.709L1902.42 918.862L1940.83 903.928L1940.87 922.672L1874.44 938.709Z" fill="#066BD3"/>
        <path d="M1919.95 876.358L1933.19 867.124L1938.73 871.859L1919.95 876.358Z" fill="#066BD3"/>
        <path d="M1791.82 886.569L1814.97 872.899L1819.33 870.748L1774.07 907.863L1791.82 886.569Z" fill="#066BD3"/>
        <path d="M1849.72 717.395L1864.6 675.934L1917.6 579.2L1878.58 718.461L1849.72 717.395Z" fill="#066BD3"/>
        <path d="M1838.95 722.679L1810.91 729.719L1804.67 735.795L1830.15 732.095L1838.95 722.679Z" fill="#066BD3"/>
        <path d="M1586.23 898.364L1636.44 883.511L1632.58 891.047L1588.63 912.347L1586.23 898.364Z" fill="#066BD3"/>
        <g style="mix-blend-mode:multiply" opacity="0.6">
            <path d="M1691.68 337.255V377.681L1700.28 371.39L1695.98 336.155L1691.68 337.255Z" fill="#808CD3"/>
            <path d="M1691.1 236.85L1705.2 334.666L1757.46 321.851L1733.49 334.232L1732.28 356.918L1783.34 329.003L1728.87 138.769L1691.1 236.85Z" fill="#808CD3"/>
            <path d="M1901.4 409.644L1883.66 517.889L1940.05 467.413L1939.55 357.313L1865.5 375.948L1901.4 409.644Z" fill="#808CD3"/>
            <path d="M1840.73 477.948L1834.58 525.428L1842.86 526.775L1840.73 477.948Z" fill="#808CD3"/>
            <path d="M1744.48 479.925L1747.75 526.012L1737.22 525.426L1728.87 472.372L1786.17 457.55L1783.34 476.232L1744.48 479.925Z" fill="#808CD3"/>
            <path d="M1814.58 689.954L1817.12 728.16L1838.95 722.678L1843.95 551.669L1814.58 689.954Z" fill="#808CD3"/>
            <path d="M1878.58 718.461V742.261L1894.76 737.124L1917.61 579.203L1878.58 718.461Z" fill="#808CD3"/>
            <path d="M1673.08 831.468L1677.54 857.337L1689.24 847.337L1695.31 810.286L1673.08 831.468Z" fill="#808CD3"/>
            <path d="M1791.4 880.873L1791.82 886.573L1819.32 870.752L1848.55 834.266L1909.29 803.666L1909.56 819.732L1898.09 895.582L1905.88 893.359L1913.83 819.812L1940.57 793.321L1939.6 727.275L1791.4 880.873Z" fill="#808CD3"/>
            <path d="M1882.96 866.614L1883.94 899.614L1868.16 928.614L1882.96 866.614Z" fill="#808CD3"/>
            <path d="M1906.17 907.181L1905.94 917.496L1940.84 903.928L1939.61 885.528H1933.31L1906.17 907.181Z" fill="#808CD3"/>
            <path d="M1874.44 938.709L1871.78 947.824L1861.43 948.21L1868.16 928.61L1890.83 915.829L1891.5 926.606L1874.44 938.709Z" fill="#808CD3"/>
            <path d="M1770.9 915.828V937.812L1776.54 937.797L1770.9 915.828Z" fill="#808CD3"/>
            <path d="M1716.39 918.782V926.86L1720.92 926.605L1716.39 918.782Z" fill="#808CD3"/>
            <path d="M1729.96 879.586L1729.63 922.821L1734.81 920.569L1737.13 871.916L1685.55 863.402V872.922L1729.96 879.586Z" fill="#808CD3"/>
            <path d="M1673.66 871.638V900.501H1661.89L1637.73 925.13L1655.28 859.158L1673.66 871.638Z" fill="#808CD3"/>
            <path d="M1632.58 891.048L1630.98 930.675L1634.89 926.861L1636.44 883.512L1632.58 891.048Z" fill="#808CD3"/>
            <path d="M1724.69 933.947L1727.12 937.813L1744.88 926.03L1724.69 933.947Z" fill="#808CD3"/>
        </g>
        <path d="M1613.35 943.579L1648.43 947.824L1683.07 900.584L1661.9 900.502L1613.35 943.579Z" fill="#066BD3"/>
        <g style="mix-blend-mode:multiply" opacity="0.5">
            <path d="M1567.54 519.964L1612.49 558.155L1632.58 548.302L1652.91 551.669L1665.84 565.853L1705.2 562.466L1738.51 573.066L1763.76 582.788L1772.11 592.462L1786.18 569.856L1813.65 551.669L1842.86 526.769L1776.54 573.062L1567.54 519.964Z" fill="#808CD3"/>
        </g>
        <g style="mix-blend-mode:multiply" opacity="0.5">
            <path d="M1533.95 467.362L1546.37 472.372H1560.53L1604.28 480.18L1632.59 497.187L1653.22 487.987H1665.84L1669.25 491.779L1674.61 483.944L1688.01 480.178H1691.68L1705.2 478.093L1712.77 472.87L1667.74 482.27L1533.95 467.362Z" fill="#808CD3"/>
        </g>
        <g style="mix-blend-mode:multiply" opacity="0.5">
            <path d="M1438.81 371.389L1641.73 344.089L1691.68 337.25L1677.23 344.094L1666.57 343.383L1665.3 344.094L1664.73 345.808L1649.25 346.501L1643.71 344.884L1640.71 345.462L1600.87 356.918L1586.32 354.318L1550.53 364.856L1508.96 379.636L1481.71 373.863L1473.16 371.386H1438.81V371.389Z" fill="#808CD3"/>
        </g>
        <g style="mix-blend-mode:multiply" opacity="0.5">
            <path d="M1425.21 334.669L1691.1 236.853L1714.03 177.311L1728.87 138.769L1722.11 175.026L1716.57 191.192V195.58L1708.95 202.508L1705.02 213.824L1700.29 216.364L1702.02 222.83L1694.43 259.973L1660.61 253.314L1647.98 256.856L1633.82 275.484L1608.57 277.639L1588.86 281.026L1495.56 312.434L1425.21 334.669Z" fill="#808CD3"/>
        </g>
        <g style="mix-blend-mode:multiply" opacity="0.5">
            <path d="M1575.93 813.473L1666.98 815.179L1744.25 781.221L1718.81 794.945L1704.03 800.907L1700.18 805.568L1677.55 812.819L1666.23 817.979L1663.33 831.313L1630.13 819.425L1621.5 816.225L1615.81 818.505L1575.93 813.473Z" fill="#808CD3"/>
        </g>
        <g style="mix-blend-mode:multiply" opacity="0.5">
            <path d="M1776.55 398.165L1813.65 414.049L1834.58 409.643L1859.52 420.053L1865.5 414.51L1901.4 409.642L1776.55 398.165Z" fill="#808CD3"/>
        </g>
        <path d="M1672.04 243.861L1695.98 224.168L1692.11 243.861H1672.04Z" fill="#0650BB"/>
        <path d="M1643.95 479.621L1683.19 477.948L1669.25 491.783L1643.95 479.621Z" fill="#0650BB"/>
        <path d="M1765.44 570.245L1788.89 564.451L1773.3 586.792L1765.44 570.245Z" fill="#0650BB"/>
        <path d="M1760.84 486.189L1771.15 487.989L1765.43 497.189L1760.84 486.189Z" fill="#0650BB"/>
        <path d="M1650.54 815.178L1679.32 809.416L1665.09 822.294L1650.54 815.178Z" fill="#0650BB"/>
        <path d="M1668.61 831.312L1676.56 828.15L1673.66 834.842L1668.61 831.312Z" fill="#0650BB"/>
        <path d="M1780.85 878.948L1801.17 870.748L1791.82 886.569L1780.85 878.948Z" fill="#0650BB"/>
        <path d="M1694.42 880.873L1707.86 882.958L1701.14 889.306L1694.42 880.873Z" fill="#0650BB"/>
        <g style="mix-blend-mode:soft-light">
            <path d="M1735.74 852.149L1770.9 790.734L1834.58 778.587L1786.18 831.587L1735.74 852.149Z" fill="#8CA2D1"/>
            <path d="M1753.29 852.149L1780.85 839.623H1817.58L1777.16 859.159L1753.29 852.149Z" fill="#8CA2D1"/>
            <path d="M1679.32 809.417L1703.8 781.217L1656.22 782.664L1597.08 809.413L1679.32 809.417Z" fill="#8CA2D1"/>
            <path d="M1627.54 776.205L1579.16 812.236L1532.38 812.657L1606.51 771.465L1627.54 776.205Z" fill="#8CA2D1"/>
            <path d="M1702.6 554.28L1737.22 525.426H1674.61L1630.27 521.185L1616.54 532.413L1702.6 554.28Z" fill="#8CA2D1"/>
            <path d="M1717.88 549.226L1737.22 533.826H1760.84L1742.21 547.374L1717.88 549.226Z" fill="#8CA2D1"/>
            <path d="M1739.36 563.619L1777.16 549.226L1783.34 551.67L1757.52 568.235L1739.36 563.619Z" fill="#8CA2D1"/>
            <path d="M1596.19 474.299L1627.54 453.867L1570.08 452.094L1548.85 469.024L1596.19 474.299Z" fill="#8CA2D1"/>
            <path d="M1614.11 467.414L1650.44 457.551L1674.61 463.196L1653.83 472.373L1614.11 467.414Z" fill="#8CA2D1"/>
            <path d="M1806.63 318.894L1771.15 375.951L1825.2 380.628L1860.3 377.428L1921.49 259.945L1806.63 318.894Z" fill="#8CA2D1"/>
            <path d="M1901.4 324.159L1921.49 295.347L1939.4 292.109L1920.4 320.284L1901.4 324.159Z" fill="#8CA2D1"/>
            <path d="M1513.54 302.171L1591.64 236.718L1588.21 211.674L1446.4 285.16L1425.21 334.665L1513.54 302.171Z" fill="#8CA2D1"/>
            <path d="M1583.78 256.859L1636.36 219.138L1695.98 199.277L1687.71 220.062L1583.78 256.859Z" fill="#8CA2D1"/>
            <path d="M1580.39 263.015L1583.78 258.858L1610.72 251.037L1608.41 254.547L1580.39 263.015Z" fill="#8CA2D1"/>
            <path d="M1539.21 344.094L1524.89 350.311L1519.12 354.006L1559.53 351.928L1583.78 341.998L1539.21 344.094Z" fill="#8CA2D1"/>
            <path d="M1890.93 738.337L1865.99 771.465L1849.72 811.422L1865.9 803.66L1933.83 724.713L1890.93 738.337Z" fill="#8CA2D1"/>
        </g>
        <g style="mix-blend-mode:soft-light">
            <path d="M1813.56 589.939L1819.92 586.639L1813.56 595.828V589.939Z" fill="#B3C8FF"/>
            <path d="M1758.37 723.095L1765.2 732.123L1772.5 733.223L1758.37 723.095Z" fill="#B3C8FF"/>
            <path d="M1523.81 318.683L1530.65 327.711L1537.95 328.811L1523.81 318.683Z" fill="#B3C8FF"/>
            <path d="M1842.29 768.533L1837.34 758.99L1842.29 760.112L1850.55 766.612L1842.29 768.533Z" fill="#B3C8FF"/>
            <path d="M1549.21 845.845L1544.07 841.294L1547.14 837.783L1556.97 844.721L1549.21 845.845Z" fill="#B3C8FF"/>
            <path d="M1743.57 375.421L1738.43 370.87L1741.5 367.359L1751.33 374.297L1743.57 375.421Z" fill="#B3C8FF"/>
            <path d="M1552.58 837.783L1556.97 838.463V835.798L1552.58 837.783Z" fill="#B3C8FF"/>
            <path d="M1677 718.805L1689.64 717.221L1694.74 713.226L1677 718.805Z" fill="#B3C8FF"/>
            <path d="M1671.39 725.681L1677.79 724.258L1673.72 728.658L1671.39 725.681Z" fill="#B3C8FF"/>
            <path d="M1641.11 834.436L1652 832.051L1645.16 837.633L1641.11 834.436Z" fill="#B3C8FF"/>
            <path d="M1471.21 283.135L1482.09 280.749L1475.26 286.331L1471.21 283.135Z" fill="#B3C8FF"/>
            <path d="M1912.16 429.31L1923.05 426.925L1916.22 432.507L1912.16 429.31Z" fill="#B3C8FF"/>
            <path d="M1524.28 429.716L1528.52 435.488L1533.69 437.138L1526.58 429.716H1524.28Z" fill="#B3C8FF"/>
            <path d="M1449.8 330.675L1453.83 341.631H1457.57L1452.27 332.509L1449.8 330.675Z" fill="#B3C8FF"/>
        </g>
        <path d="M1842.86 526.775L1853.28 543.491L1865.99 535.133L1873.38 558.733L1863.57 600.189H1858.12L1842.86 638.314L1864.6 675.937L1888.38 683.48L1898.21 713.229L1906.63 723.097L1939.61 733.229V727.27L1936.5 730.9L1908.02 720.944L1899.4 711.344L1888.62 682.554L1868.76 676.554L1864.83 673.244L1849.71 646.725L1846.05 632.907L1858.28 600.739L1864.72 600.479L1868.36 583.159L1874.77 558.102L1867.42 536.358L1865.45 532.829L1856.6 540.455L1852.83 541.225L1842.86 526.775Z" fill="#001B7A"/>
        <path d="M1843.33 638.291L1848.53 647.384L1849.19 646.662L1845.76 634.393L1843.33 638.291Z" fill="#0650BB"/>
        <path d="M1906.86 722.661L1907.13 720.621L1908.25 721.352L1911.6 722.661L1912.1 724.713L1906.86 722.661Z" fill="#0650BB"/>
        <path d="M1519.12 247.472L1572.85 266.557L1569.15 269.02L1568.84 275.794H1585.23L1577.03 297.964L1560.62 339.625L1571.85 346.884L1577.04 352.798L1565.25 429.719V443.393L1575.01 452.093L1566.35 443.148L1566 431.832L1577.04 362.088L1583.78 351.888L1578.01 349.782L1572.24 344.998L1562.3 338.532L1588.5 274.59L1574.48 275.139L1570.73 273.169L1569.81 269.369L1574.31 266.02L1519.12 247.472Z" fill="#001B7A"/>
        <path d="M1576.7 349.782L1577.58 354.005L1577.04 359.586L1582.67 352.386L1576.7 349.782Z" fill="#0650BB"/>
        <path d="M1567.63 793.067L1599.72 806.267L1601.33 812.819L1611.33 821.012L1605.26 861.147L1593.02 877.796L1579.96 883.953L1565.82 903.534L1567.13 907.092L1577.83 887.704L1580.02 884.504L1593.25 878.95L1604.01 863.316L1606.06 861.844L1611.33 822.084L1612.34 819.929L1603.14 813.987L1601.52 806.766L1594.41 800.884L1567.63 793.067Z" fill="#001B7A"/>
        <path d="M1593.91 801.013L1586.87 799.368L1586.41 799.916L1596.28 804.333H1597.08L1593.91 801.013Z" fill="#0650BB"/>
    </g>
    <defs>
        <linearGradient id="paint0_linear_215_64805" x1="964.531" y1="1023.73" x2="964.531" y2="908.569" gradientUnits="userSpaceOnUse">
            <stop offset="0.006" stop-color="#003BAE"/>
            <stop offset="0.992" stop-color="#12228F"/>
        </linearGradient>
        <linearGradient id="paint1_linear_215_64805" x1="1507.99" y1="1080" x2="1507.99" y2="988.01" gradientUnits="userSpaceOnUse">
            <stop offset="0.006" stop-color="#0057AE"/>
            <stop offset="0.992" stop-color="#12318F"/>
        </linearGradient>
        <linearGradient id="paint2_linear_215_64805" x1="1597.08" y1="908.566" x2="1597.08" y2="865.59" gradientUnits="userSpaceOnUse">
            <stop stop-color="#1B009F"/>
            <stop offset="0.992" stop-color="#12138F"/>
        </linearGradient>
        <linearGradient id="paint3_linear_215_64805" x1="415.577" y1="1080" x2="415.577" y2="954.677" gradientUnits="userSpaceOnUse">
            <stop offset="0.006" stop-color="#0057AE"/>
            <stop offset="0.992" stop-color="#12318F"/>
        </linearGradient>
        <linearGradient id="paint4_linear_215_64805" x1="591.477" y1="908.566" x2="591.477" y2="861.147" gradientUnits="userSpaceOnUse">
            <stop stop-color="#1B009F"/>
            <stop offset="0.992" stop-color="#12138F"/>
        </linearGradient>
        <linearGradient id="paint5_linear_215_64805" x1="1303.09" y1="993.912" x2="1303.09" y2="875.477" gradientUnits="userSpaceOnUse">
            <stop stop-color="#0E57BC"/>
            <stop offset="0.171" stop-color="#0E49B4"/>
            <stop offset="0.71" stop-color="#11229F"/>
            <stop offset="0.992" stop-color="#121498"/>
        </linearGradient>
        <linearGradient id="paint6_linear_215_64805" x1="1317.63" y1="987.704" x2="1586.23" y2="987.704" gradientUnits="userSpaceOnUse">
            <stop stop-color="#0E57BC"/>
            <stop offset="0.171" stop-color="#0E49B4"/>
            <stop offset="0.71" stop-color="#11229F"/>
            <stop offset="0.992" stop-color="#121498"/>
        </linearGradient>
        <linearGradient id="paint7_linear_215_64805" x1="579.198" y1="920.41" x2="579.198" y2="887.841" gradientUnits="userSpaceOnUse">
            <stop stop-color="#0A1B87"/>
            <stop offset="0.307" stop-color="#0C1289"/>
            <stop offset="0.992" stop-color="#12048D"/>
        </linearGradient>
        <linearGradient id="paint8_linear_215_64805" x1="1205.86" y1="904.889" x2="1205.86" y2="881.338" gradientUnits="userSpaceOnUse">
            <stop stop-color="#0A1B87"/>
            <stop offset="0.307" stop-color="#0C1289"/>
            <stop offset="0.992" stop-color="#12048D"/>
        </linearGradient>
        <linearGradient id="paint9_linear_215_64805" x1="375.761" y1="980.105" x2="375.761" y2="106.055" gradientUnits="userSpaceOnUse">
            <stop stop-color="#0E4CBC"/>
            <stop offset="0.039" stop-color="#0E49BA"/>
            <stop offset="0.664" stop-color="#1022A1"/>
            <stop offset="0.992" stop-color="#121498"/>
        </linearGradient>
        <linearGradient id="paint10_linear_215_64805" x1="1683.19" y1="948.21" x2="1683.19" y2="138.769" gradientUnits="userSpaceOnUse">
            <stop stop-color="#0E4CBC"/>
            <stop offset="0.039" stop-color="#0E49BA"/>
            <stop offset="0.664" stop-color="#1022A1"/>
            <stop offset="0.992" stop-color="#121498"/>
        </linearGradient>
        <clipPath id="clip0_215_64805">
            <rect width="1920" height="1080" fill="white"/>
        </clipPath>
    </defs>
</svg>