<svg xmlns="http://www.w3.org/2000/svg" width="45" height="41" viewBox="0 0 45 41" fill="none">
    <g clip-path="url(#clip0_397_75319)">
        <path d="M4.36359 15.8793C4.36359 15.8793 6.32667 7.15448 12.419 4.26857C18.4436 1.44978 21.6251 0.443068 25.6867 1.24844C28.3267 1.78535 33.539 4.53703 34.3513 6.28199C35.1636 7.95985 36.3144 11.584 33.3359 15.8122C33.3359 15.8122 31.9144 16.2149 27.9882 13.1276C24.0621 10.0404 17.8344 7.28871 11.3359 9.50347C4.83744 11.7182 4.2959 15.8793 4.2959 15.8793H4.36359Z" fill="url(#paint0_linear_397_75319)"/>
        <path d="M12.7573 37.1543C12.7573 37.1543 18.105 41.5167 25.8896 40.9798C33.6742 40.4429 37.6681 35.812 38.4804 34.5369C39.2927 33.2617 43.0835 26.2147 42.0004 24.4026C40.9173 22.5905 38.8866 20.3758 34.7573 20.4429C34.7573 20.4429 32.8619 27.4899 30.2219 30.7114C27.5819 33.9328 23.1819 36.7516 19.2558 37.7583C15.2619 38.6979 12.825 37.2214 12.825 37.2214L12.7573 37.1543Z" fill="url(#paint1_linear_397_75319)"/>
        <path d="M5.17609 14.6039C5.17609 14.6039 7.7484 8.96633 9.64378 7.02002C9.64378 7.02002 7.13917 11.7851 6.8684 13.0603C6.8684 13.0603 5.64994 14.671 5.1084 14.6039H5.17609Z" fill="url(#paint2_linear_397_75319)"/>
        <path d="M7.95117 12.3893C7.95117 12.3893 9.23733 8.36242 11.1327 6.01343C11.1327 6.01343 9.03425 10.5101 8.6281 12.0537L7.95117 12.4564V12.3893Z" fill="url(#paint3_linear_397_75319)"/>
        <path d="M9.37287 11.7181C9.37287 11.7181 10.9298 7.55707 12.0129 5.40942C12.0129 5.40942 10.3883 10.443 10.3883 11.3155L9.30518 11.7181H9.37287Z" fill="url(#paint4_linear_397_75319)"/>
        <path d="M11.2007 11.0469C11.2007 11.0469 11.8099 7.28854 13.4345 4.53687C13.4345 4.53687 11.9453 9.30197 12.013 10.8456L11.2684 11.0469H11.2007Z" fill="url(#paint5_linear_397_75319)"/>
        <path d="M12.7573 10.6443C12.7573 10.6443 13.2989 6.75168 15.7358 3.32886C15.7358 3.32886 13.8404 8.09396 13.6373 10.443L12.825 10.6443H12.7573Z" fill="url(#paint6_linear_397_75319)"/>
        <path d="M14.3823 10.2415C14.3823 10.2415 15.2623 6.01335 17.97 2.4563C17.97 2.4563 15.4654 7.62408 15.2623 10.2415H14.3823Z" fill="url(#paint7_linear_397_75319)"/>
        <path d="M16.0742 10.2416C16.0742 10.2416 17.5635 5.07377 20.5419 1.85229C20.5419 1.85229 17.2927 7.75834 17.0219 10.3087H16.0742V10.2416Z" fill="url(#paint8_linear_397_75319)"/>
        <path d="M17.8345 10.4429C17.8345 10.4429 19.3914 5.61066 22.6406 1.78516C22.6406 1.78516 19.1883 8.02677 18.8499 10.5771L17.9022 10.3758L17.8345 10.4429Z" fill="url(#paint9_linear_397_75319)"/>
        <path d="M19.73 10.8458C19.73 10.8458 21.5577 5.67797 25.0777 2.32227C25.0777 2.32227 21.2869 7.89273 20.6777 11.1142L19.73 10.8458Z" fill="url(#paint10_linear_397_75319)"/>
        <path d="M21.4222 11.3155C21.4222 11.3155 23.1145 6.41613 27.1083 3.396C27.1083 3.396 22.7083 9.10069 22.5053 11.7181L21.3545 11.3826L21.4222 11.3155Z" fill="url(#paint11_linear_397_75319)"/>
        <path d="M23.25 11.9194C23.25 11.9194 25.4162 6.68449 29.0715 5.14087C29.0715 5.14087 24.7392 8.96637 24.13 12.3221L23.25 11.9194Z" fill="url(#paint12_linear_397_75319)"/>
        <path d="M24.6714 12.5907C24.6714 12.5907 26.2283 9.03364 30.4929 6.88599C30.4929 6.88599 26.0929 10.6444 25.3483 12.9934L24.6714 12.5907Z" fill="url(#paint13_linear_397_75319)"/>
        <path d="M25.9573 13.396C25.9573 13.396 27.3112 10.1074 31.7789 8.76514C31.7789 8.76514 26.905 11.7853 26.6343 13.9329L25.8896 13.396H25.9573Z" fill="url(#paint14_linear_397_75319)"/>
        <path d="M27.3789 14.537C27.3789 14.537 28.8681 11.8524 32.9974 10.8457C32.9974 10.8457 28.3943 13.3289 27.9881 15.0739L27.3789 14.537Z" fill="url(#paint15_linear_397_75319)"/>
        <path d="M28.3945 15.5437C28.3945 15.5437 30.5607 13.0605 33.6745 12.3223C33.6745 12.3223 29.3422 14.6713 28.9361 16.0807L28.3945 15.5437Z" fill="url(#paint16_linear_397_75319)"/>
        <path d="M29.3423 16.4833C29.3423 16.4833 31.2377 14.0672 33.8777 14.2014C33.8777 14.2014 31.1023 15.0739 29.7484 16.9531L29.3423 16.5504V16.4833Z" fill="url(#paint17_linear_397_75319)"/>
        <path d="M15.6006 38.3625C15.6006 38.3625 21.4221 40.5773 24.1975 40.5773C24.1975 40.5773 19.0529 38.9665 17.9021 38.2283C17.9021 38.2283 15.8714 37.9598 15.6006 38.3625Z" fill="url(#paint18_linear_397_75319)"/>
        <path d="M19.1206 38.0268C19.1206 38.0268 22.9114 39.9731 25.9575 40.3087C25.9575 40.3087 21.2868 38.6308 19.8652 37.8254L19.1206 38.0268Z" fill="url(#paint19_linear_397_75319)"/>
        <path d="M20.6777 37.4898C20.6777 37.4898 24.7393 39.369 27.0408 40.1073C27.0408 40.1073 22.3024 37.6912 21.6931 37.02L20.6777 37.4898Z" fill="url(#paint20_linear_397_75319)"/>
        <path d="M22.4375 36.6847C22.4375 36.6847 25.5513 38.8994 28.6652 39.7719C28.6652 39.7719 24.2652 37.49 23.1144 36.282L22.4375 36.6847Z" fill="url(#paint21_linear_397_75319)"/>
        <path d="M23.7915 35.8792C23.7915 35.8792 26.973 38.2282 31.1023 38.9665C31.1023 38.9665 26.3638 36.953 24.5361 35.4094L23.7915 35.8792Z" fill="url(#paint22_linear_397_75319)"/>
        <path d="M25.2127 35.0738C25.2127 35.0738 28.8004 37.4227 33.2681 38.0268C33.2681 38.0268 27.785 36.1476 25.7542 34.4697L25.145 35.0738H25.2127Z" fill="url(#paint23_linear_397_75319)"/>
        <path d="M26.3638 33.8657C26.3638 33.8657 31.1022 36.4832 35.5022 36.6845C35.5022 36.6845 29.0038 34.8053 26.973 33.1946L26.3638 33.8657Z" fill="url(#paint24_linear_397_75319)"/>
        <path d="M27.5146 32.4565C27.5146 32.4565 32.05 34.8055 37.0593 35.2082C37.0593 35.2082 30.1546 33.1947 28.0562 31.6511L27.5146 32.4565Z" fill="url(#paint25_linear_397_75319)"/>
        <path d="M28.5977 30.9128C28.5977 30.9128 33.6069 33.2618 38.4807 33.1946C38.4807 33.1946 31.8469 31.9195 29.0715 30.0403L28.5977 30.9128Z" fill="url(#paint26_linear_397_75319)"/>
        <path d="M29.4775 29.3021C29.4775 29.3021 34.216 31.584 39.1575 30.9128C39.1575 30.9128 31.9822 29.9732 30.0191 28.2283L29.4775 29.235V29.3021Z" fill="url(#paint27_linear_397_75319)"/>
        <path d="M30.29 27.6242C30.29 27.6242 35.5023 29.839 39.2254 28.3624C39.2254 28.3624 33.4039 28.698 30.6285 26.7517L30.29 27.6242Z" fill="url(#paint28_linear_397_75319)"/>
        <path d="M30.8315 26.1477C30.8315 26.1477 34.4192 27.5571 39.0223 26.1477C39.0223 26.1477 33.2685 26.5504 31.0346 25.4766L30.8315 26.2148V26.1477Z" fill="url(#paint29_linear_397_75319)"/>
        <path d="M31.1697 24.6711C31.1697 24.6711 34.4867 26.0133 38.5482 23.7986C38.5482 23.7986 32.9297 25.0738 31.2374 23.7986L31.1021 24.6711H31.1697Z" fill="url(#paint30_linear_397_75319)"/>
        <path d="M31.373 22.8591C31.373 22.8591 34.3515 23.6645 38.0069 21.5168C38.0069 21.5168 32.9977 22.9934 31.4407 22.0538V22.8591H31.373Z" fill="url(#paint31_linear_397_75319)"/>
        <path d="M43.7609 21.7852C43.4224 21.651 37.3978 19.3691 36.3147 19.1678C35.1639 18.8993 33.0655 16.7516 35.1639 14.604C37.0593 12.6577 38.4808 10.3087 38.6839 9.90601C38.6839 9.90601 46.5362 11.2483 43.6932 21.8523L43.7609 21.7852Z" fill="url(#paint32_linear_397_75319)"/>
        <path d="M35.0285 19.235C35.0285 19.235 42.4747 19.9732 43.7608 19.9061C43.7608 19.9061 38.2101 18.7652 34.5547 18.8994C34.5547 18.8994 34.8255 19.1007 35.0285 19.235Z" fill="url(#paint33_linear_397_75319)"/>
        <path d="M34.216 18.8322C34.216 18.8322 41.5268 19.0336 43.896 18.8322C43.896 18.8322 38.6837 17.9598 33.7422 18.2953L34.216 18.7651V18.8322Z" fill="url(#paint34_linear_397_75319)"/>
        <path d="M34.7574 18.1611C34.7574 18.1611 42.3389 18.1611 43.5574 17.9598C43.5574 17.9598 37.8712 17.4229 34.2158 17.8255C34.2158 17.8255 34.4866 18.0269 34.7574 18.094V18.1611Z" fill="url(#paint35_linear_397_75319)"/>
        <path d="M33.9453 17.8254C33.9453 17.8254 41.3238 17.2885 43.6253 16.8858C43.6253 16.8858 38.3453 16.4831 33.4038 17.4227L33.9453 17.8254Z" fill="url(#paint36_linear_397_75319)"/>
        <path d="M34.3514 17.4898C34.3514 17.4898 41.7299 16.1476 42.8806 15.7449C42.8806 15.7449 37.2622 16.1476 33.7422 17.2885C33.7422 17.2885 34.013 17.4227 34.2837 17.4898H34.3514Z" fill="url(#paint37_linear_397_75319)"/>
        <path d="M33.6747 17.8256C33.6747 17.8256 40.5116 15.141 42.5424 14.1343C42.5424 14.1343 37.3977 15.3423 33.0654 17.6242L33.6747 17.8927V17.8256Z" fill="url(#paint38_linear_397_75319)"/>
        <path d="M34.0804 17.1543C34.0804 17.1543 40.8497 13.8657 41.9327 13.1946C41.9327 13.1946 36.585 15.1409 33.4712 17.0872C33.4712 17.0872 33.8097 17.0872 34.0804 17.0872V17.1543Z" fill="url(#paint39_linear_397_75319)"/>
        <path d="M33.2005 17.0873C33.2005 17.0873 39.6313 13.4632 41.5944 12.188C41.5944 12.188 36.6528 14.0672 32.5913 16.9531L33.2005 17.0873Z" fill="url(#paint40_linear_397_75319)"/>
        <path d="M33.336 16.953C33.336 16.953 39.2252 12.2551 40.1052 11.3826C40.1052 11.3826 35.3667 14.4698 32.7944 17.0873C32.7944 17.0873 33.1329 17.0873 33.4037 17.0202L33.336 16.953Z" fill="url(#paint41_linear_397_75319)"/>
        <path d="M32.4562 17.2214C32.4562 17.2214 37.8716 12.255 39.4285 10.51C39.4285 10.51 35.0285 13.5301 31.7793 17.2214H32.4562Z" fill="url(#paint42_linear_397_75319)"/>
        <path d="M43.7607 21.7853C43.3545 21.6511 37.4653 20.1746 36.3145 20.5101C35.1638 20.8457 33.8776 27.8927 31.4407 31.3155C27.9884 36.2148 20.4745 39.6376 16.3453 38.8994C14.0438 38.4967 11.133 37.6242 7.74838 35.2081C7.74838 35.2081 5.31146 32.792 4.22838 32.0537C3.1453 31.3155 1.79146 32.3222 1.31761 32.0537C0.843763 31.8524 0.708379 30.8457 1.45299 30.6444C2.19761 30.443 2.53607 30.1746 2.19761 30.1074C1.85915 30.1074 0.843763 30.3088 0.708379 29.839C0.505302 29.3692 0.572994 29.1007 1.18222 28.8994C1.79146 28.698 1.85915 27.3558 1.85915 27.3558C1.85915 27.3558 2.19761 20.9128 3.21299 17.6242C3.75453 15.8792 4.43146 13.3289 6.73299 11.1141C9.03453 8.89938 12.6899 8.09401 15.8715 7.95978C18.8499 7.89267 22.573 8.22824 27.2438 11.2484C31.9822 14.2685 31.9822 14.7383 32.9976 14.7383C34.013 14.7383 36.3145 12.8591 38.6838 9.83898C38.4807 10.2417 37.0592 12.5907 35.1638 14.537C33.0653 16.6846 35.1638 18.8994 36.3145 19.1007C37.3976 19.3692 43.4222 21.5839 43.7607 21.7182V21.7853Z" fill="url(#paint43_linear_397_75319)"/>
        <path d="M11.742 24.6711C11.742 24.6711 14.382 29.2349 11.742 31.4497C9.10201 33.6644 6.86816 33.3289 6.86816 33.3289C6.86816 33.3289 13.9082 31.3826 11.6743 24.6711H11.742Z" fill="url(#paint44_linear_397_75319)"/>
        <path d="M8.42514 26.4161C6.32667 27.8255 3.4836 27.3557 2.06206 25.2752C0.640521 23.1947 1.11437 20.3759 3.21283 18.9665C5.31129 17.5571 8.15437 18.0269 9.57591 20.1074C10.9974 22.188 10.5236 25.0067 8.42514 26.4161Z" fill="url(#paint45_linear_397_75319)"/>
        <path d="M9.30507 20.0403C10.5912 21.8524 10.1174 24.4027 8.28969 25.6779C6.462 26.9531 3.88969 26.4833 2.60354 24.6712C1.31738 22.8591 1.79123 20.3088 3.61892 19.0336C5.44661 17.7584 8.01892 18.2282 9.30507 20.0403Z" fill="#FFE4D5"/>
        <path d="M7.88348 25.3423C6.52963 26.2819 4.63425 25.9463 3.68656 24.604C2.73887 23.2617 3.07733 21.3825 4.43117 20.4429C5.78502 19.5034 7.6804 19.8389 8.6281 21.1812C9.57579 22.5235 9.23733 24.4027 7.88348 25.3423Z" fill="url(#paint46_linear_397_75319)"/>
        <path d="M8.4927 20.98C9.3727 22.2551 9.03424 23.933 7.81578 24.8055C6.52963 25.6779 4.83732 25.3424 3.95732 24.1343C3.07732 22.8591 3.41578 21.1813 4.63424 20.3088C5.9204 19.4363 7.6127 19.7719 8.4927 20.98Z" fill="black"/>
        <path d="M7.81608 22.9261C7.81608 22.9261 7.95146 23.5972 7.6807 23.7986C7.40993 23.9999 7.00377 23.9328 6.8007 23.6644C6.59762 23.3959 6.66531 22.9932 6.93608 22.7919C7.20685 22.5905 7.613 22.6576 7.81608 22.9261Z" fill="white"/>
        <path d="M6.46216 23.3289C6.46216 23.3289 6.46216 23.6645 6.39446 23.7987C6.25908 23.8658 6.056 23.7987 5.92062 23.7316C5.85292 23.5974 5.92062 23.396 5.98831 23.2618C6.056 23.1276 6.32677 23.2618 6.46216 23.3289Z" fill="white"/>
        <path d="M10.2529 17.2214C10.2529 17.2214 4.36365 12.7248 0.4375 18.5637C0.4375 18.5637 4.16058 11.2483 10.2529 17.2214Z" fill="black"/>
        <path d="M12.1482 27.5571C12.1482 27.5571 12.2159 30.3759 9.10205 32.3222C9.10205 32.3222 11.6744 29.839 12.1482 27.5571Z" fill="#EABD4E"/>
        <path d="M13.3666 28.4294C13.3666 28.4294 13.7728 31.4496 10.1851 32.859C10.1851 32.859 14.382 32.4563 13.3666 28.4294Z" fill="#EABD4E"/>
        <path d="M10.1175 36.0134C10.1175 36.0134 15.8713 39.4362 21.4221 37.557C27.0406 35.6107 31.576 30.6443 32.659 27.2214C32.659 27.2214 29.5452 34.5369 21.016 36.8859C21.016 36.8859 15.6006 38.4295 10.0498 36.0134H10.1175Z" fill="#EABD4E"/>
        <path d="M27.9207 14.3355C27.9207 14.3355 23.0468 11.1812 18.3084 10.8456C13.5699 10.51 6.39453 13.7315 6.39453 13.7315C6.39453 13.7315 9.37299 11.4496 11.6745 10.7785C13.9761 10.1073 18.3084 8.29525 22.9791 11.2483C27.6499 14.1342 27.9207 14.3355 27.9207 14.3355Z" fill="#F7E0B0"/>
        <path d="M34.1484 23.0604C34.1484 23.0604 34.8254 20.5772 35.4346 20.3087C36.0438 20.0402 37.2623 20.1745 37.2623 20.1745C37.2623 20.1745 36.5854 19.6376 35.57 19.9731C34.5546 20.3087 34.1484 23.0604 34.1484 23.0604Z" fill="#EABD4E"/>
        <path d="M33.6743 15.4766C33.6743 15.4766 32.7943 16.7517 30.7635 15.745L28.665 14.8054C28.665 14.8054 30.4927 16.0135 31.3727 16.4162C32.2527 16.8188 33.945 18.6309 34.0127 19.7047C34.0127 20.7115 34.0804 21.1141 34.0804 21.1141C34.0804 21.1141 34.4866 19.3692 33.8773 18.0269C33.2681 16.6846 33.6743 15.4766 33.6743 15.4766Z" fill="#EABD4E"/>
        <path d="M5.98844 32.9262C5.98844 32.9262 4.49921 31.4497 3.55152 31.4497C2.60383 31.4497 1.9269 31.9866 1.65614 31.7853C1.38537 31.5839 1.18229 31.3155 1.45306 31.047C1.72383 30.7785 2.26537 30.7114 2.26537 30.7114C2.26537 30.7114 1.45306 31.1812 1.72383 31.3155C1.9946 31.5168 2.19767 31.5168 2.8746 31.3155C3.55152 31.1141 4.09306 30.9799 4.5669 31.3155C5.04075 31.7181 5.98844 32.8591 5.98844 32.8591V32.9262Z" fill="#EABD4E"/>
        <path d="M13.4346 26.4161C13.4346 26.4161 16.413 25.5436 18.4438 26.0134C20.5423 26.4832 19.933 29.7047 18.5792 29.906C17.2253 30.1074 14.45 28.2282 14.45 28.2282C14.45 28.2282 15.4653 26.953 13.4346 26.4161Z" fill="url(#paint47_linear_397_75319)"/>
        <path d="M13.6377 26.4831C13.6377 26.4831 16.4131 25.7448 18.7823 26.1475C18.7823 26.1475 16.0746 26.0133 14.0438 26.6173L13.6377 26.4831Z" fill="url(#paint48_linear_397_75319)"/>
        <path d="M14.3145 26.7516C14.3145 26.7516 15.8714 26.2147 19.3237 26.416C19.3237 26.416 16.1421 26.6174 14.5175 26.8858L14.3145 26.7516Z" fill="url(#paint49_linear_397_75319)"/>
        <path d="M14.5854 27.0201C14.5854 27.0201 18.1731 26.6845 19.6624 26.8859C19.6624 26.8859 16.9547 27.1543 14.7208 27.1543V26.953L14.5854 27.0201Z" fill="url(#paint50_linear_397_75319)"/>
        <path d="M14.6528 27.2886C14.6528 27.2886 18.6467 27.2886 19.7298 27.4228C19.7298 27.4228 17.0898 27.8255 14.6528 27.4228V27.2886Z" fill="url(#paint51_linear_397_75319)"/>
        <path d="M14.7205 27.6243C14.7205 27.6243 18.2405 27.8256 19.7974 28.2283C19.7974 28.2283 16.9544 28.2283 14.6528 27.8256V27.6914L14.7205 27.6243Z" fill="url(#paint52_linear_397_75319)"/>
        <path d="M14.6531 27.8926C14.6531 27.8926 17.767 28.2953 19.6624 28.8322C19.6624 28.8322 17.4285 28.8322 14.5854 28.0268V27.8926H14.6531Z" fill="url(#paint53_linear_397_75319)"/>
        <path d="M14.5856 28.0269L19.2563 29.5034C19.2563 29.5034 16.481 29.0336 14.4502 28.2282L14.5856 28.0269Z" fill="url(#paint54_linear_397_75319)"/>
    </g>
    <defs>
        <linearGradient id="paint0_linear_397_75319" x1="18.7957" y1="19.6137" x2="21.8153" y2="1.70694" gradientUnits="userSpaceOnUse">
            <stop stop-color="#DF56AC"/>
            <stop offset="0.27" stop-color="#E4729A"/>
            <stop offset="0.85" stop-color="#F4BA6E"/>
            <stop offset="1" stop-color="#F8CE63"/>
        </linearGradient>
        <linearGradient id="paint1_linear_397_75319" x1="25.2818" y1="28.6449" x2="35.058" y2="37.3944" gradientUnits="userSpaceOnUse">
            <stop stop-color="#DF56AC"/>
            <stop offset="0.27" stop-color="#E4729A"/>
            <stop offset="0.85" stop-color="#F4BA6E"/>
            <stop offset="1" stop-color="#F8CE63"/>
        </linearGradient>
        <linearGradient id="paint2_linear_397_75319" x1="5.96652" y1="10.8384" x2="9.02142" y2="4.54937" gradientUnits="userSpaceOnUse">
            <stop offset="0.02" stop-color="#EF7B2C"/>
            <stop offset="0.3" stop-color="#F18433"/>
            <stop offset="0.75" stop-color="#F99D47"/>
            <stop offset="1" stop-color="#FFAE55"/>
        </linearGradient>
        <linearGradient id="paint3_linear_397_75319" x1="7.34019" y1="10.704" x2="10.4198" y2="4.26702" gradientUnits="userSpaceOnUse">
            <stop offset="0.02" stop-color="#EF7B2C"/>
            <stop offset="0.3" stop-color="#F18433"/>
            <stop offset="0.75" stop-color="#F99D47"/>
            <stop offset="1" stop-color="#FFAE55"/>
        </linearGradient>
        <linearGradient id="paint4_linear_397_75319" x1="8.67486" y1="10.4411" x2="11.7544" y2="4.00412" gradientUnits="userSpaceOnUse">
            <stop offset="0.02" stop-color="#EF7B2C"/>
            <stop offset="0.3" stop-color="#F18433"/>
            <stop offset="0.75" stop-color="#F99D47"/>
            <stop offset="1" stop-color="#FFAE55"/>
        </linearGradient>
        <linearGradient id="paint5_linear_397_75319" x1="9.60433" y1="10.9319" x2="12.7086" y2="4.34706" gradientUnits="userSpaceOnUse">
            <stop offset="0.02" stop-color="#EF7B2C"/>
            <stop offset="0.3" stop-color="#F18433"/>
            <stop offset="0.75" stop-color="#F99D47"/>
            <stop offset="1" stop-color="#FFAE55"/>
        </linearGradient>
        <linearGradient id="paint6_linear_397_75319" x1="11.0372" y1="10.9901" x2="14.1168" y2="4.55311" gradientUnits="userSpaceOnUse">
            <stop offset="0.02" stop-color="#EF7B2C"/>
            <stop offset="0.34" stop-color="#EF7E2E"/>
            <stop offset="0.58" stop-color="#F38736"/>
            <stop offset="0.8" stop-color="#F89843"/>
            <stop offset="1" stop-color="#FFAE55"/>
        </linearGradient>
        <linearGradient id="paint7_linear_397_75319" x1="13.3458" y1="9.52071" x2="16.4254" y2="3.08377" gradientUnits="userSpaceOnUse">
            <stop offset="0.02" stop-color="#EF7B2C"/>
            <stop offset="0.34" stop-color="#EF7E2E"/>
            <stop offset="0.58" stop-color="#F38736"/>
            <stop offset="0.8" stop-color="#F89843"/>
            <stop offset="1" stop-color="#FFAE55"/>
        </linearGradient>
        <linearGradient id="paint8_linear_397_75319" x1="14.511" y1="9.16854" x2="20.3409" y2="1.58613" gradientUnits="userSpaceOnUse">
            <stop offset="0.02" stop-color="#EF7B2C"/>
            <stop offset="0.34" stop-color="#EF7E2E"/>
            <stop offset="0.58" stop-color="#F38736"/>
            <stop offset="0.8" stop-color="#F89843"/>
            <stop offset="1" stop-color="#FFAE55"/>
        </linearGradient>
        <linearGradient id="paint9_linear_397_75319" x1="16.6795" y1="9.77624" x2="21.3992" y2="2.26192" gradientUnits="userSpaceOnUse">
            <stop offset="0.02" stop-color="#EF7B2C"/>
            <stop offset="0.34" stop-color="#EF7E2E"/>
            <stop offset="0.58" stop-color="#F38736"/>
            <stop offset="0.8" stop-color="#F89843"/>
            <stop offset="1" stop-color="#FFAE55"/>
        </linearGradient>
        <linearGradient id="paint10_linear_397_75319" x1="18.4199" y1="10.3732" x2="23.7676" y2="2.38088" gradientUnits="userSpaceOnUse">
            <stop offset="0.02" stop-color="#EF7B2C"/>
            <stop offset="0.34" stop-color="#EF7E2E"/>
            <stop offset="0.58" stop-color="#F38736"/>
            <stop offset="0.8" stop-color="#F89843"/>
            <stop offset="1" stop-color="#FFAE55"/>
        </linearGradient>
        <linearGradient id="paint11_linear_397_75319" x1="20.1348" y1="11.1177" x2="25.0785" y2="4.09402" gradientUnits="userSpaceOnUse">
            <stop offset="0.02" stop-color="#EF7B2C"/>
            <stop offset="0.34" stop-color="#EF7E2E"/>
            <stop offset="0.58" stop-color="#F38736"/>
            <stop offset="0.8" stop-color="#F89843"/>
            <stop offset="1" stop-color="#FFAE55"/>
        </linearGradient>
        <linearGradient id="paint12_linear_397_75319" x1="21.9486" y1="12.1833" x2="27.1967" y2="3.87181" gradientUnits="userSpaceOnUse">
            <stop offset="0.02" stop-color="#EF7B2C"/>
            <stop offset="0.34" stop-color="#EF7E2E"/>
            <stop offset="0.58" stop-color="#F38736"/>
            <stop offset="0.8" stop-color="#F89843"/>
            <stop offset="1" stop-color="#FFAE55"/>
        </linearGradient>
        <linearGradient id="paint13_linear_397_75319" x1="20.6171" y1="13.1471" x2="30.0277" y2="6.56341" gradientUnits="userSpaceOnUse">
            <stop offset="0.02" stop-color="#EF7B2C"/>
            <stop offset="0.34" stop-color="#EF7E2E"/>
            <stop offset="0.58" stop-color="#F38736"/>
            <stop offset="0.8" stop-color="#F89843"/>
            <stop offset="1" stop-color="#FFAE55"/>
        </linearGradient>
        <linearGradient id="paint14_linear_397_75319" x1="21.5185" y1="14.6988" x2="30.9292" y2="8.11514" gradientUnits="userSpaceOnUse">
            <stop offset="0.02" stop-color="#EF7B2C"/>
            <stop offset="0.34" stop-color="#EF7E2E"/>
            <stop offset="0.58" stop-color="#F38736"/>
            <stop offset="0.8" stop-color="#F89843"/>
            <stop offset="1" stop-color="#FFAE55"/>
        </linearGradient>
        <linearGradient id="paint15_linear_397_75319" x1="22.5694" y1="16.2757" x2="31.8712" y2="9.79632" gradientUnits="userSpaceOnUse">
            <stop offset="0.02" stop-color="#EF7B2C"/>
            <stop offset="0.34" stop-color="#EF7E2E"/>
            <stop offset="0.58" stop-color="#F38736"/>
            <stop offset="0.8" stop-color="#F89843"/>
            <stop offset="1" stop-color="#FFAE55"/>
        </linearGradient>
        <linearGradient id="paint16_linear_397_75319" x1="23.3473" y1="17.6545" x2="32.6286" y2="11.1108" gradientUnits="userSpaceOnUse">
            <stop offset="0.02" stop-color="#EF7B2C"/>
            <stop offset="0.34" stop-color="#EF7E2E"/>
            <stop offset="0.58" stop-color="#F38736"/>
            <stop offset="0.8" stop-color="#F89843"/>
            <stop offset="1" stop-color="#FFAE55"/>
        </linearGradient>
        <linearGradient id="paint17_linear_397_75319" x1="24.4401" y1="18.4468" x2="32.7892" y2="12.5446" gradientUnits="userSpaceOnUse">
            <stop offset="0.02" stop-color="#EF7B2C"/>
            <stop offset="0.34" stop-color="#EF7E2E"/>
            <stop offset="0.58" stop-color="#F38736"/>
            <stop offset="0.8" stop-color="#F89843"/>
            <stop offset="1" stop-color="#FFAE55"/>
        </linearGradient>
        <linearGradient id="paint18_linear_397_75319" x1="18.7006" y1="38.9677" x2="25.3218" y2="41.3518" gradientUnits="userSpaceOnUse">
            <stop offset="0.02" stop-color="#EF7B2C"/>
            <stop offset="0.3" stop-color="#F18433"/>
            <stop offset="0.75" stop-color="#F99D47"/>
            <stop offset="1" stop-color="#FFAE55"/>
        </linearGradient>
        <linearGradient id="paint19_linear_397_75319" x1="19.7995" y1="38.1581" x2="26.5122" y2="40.5703" gradientUnits="userSpaceOnUse">
            <stop offset="0.02" stop-color="#EF7B2C"/>
            <stop offset="0.3" stop-color="#F18433"/>
            <stop offset="0.75" stop-color="#F99D47"/>
            <stop offset="1" stop-color="#FFAE55"/>
        </linearGradient>
        <linearGradient id="paint20_linear_397_75319" x1="20.8986" y1="37.3486" x2="27.7027" y2="39.7888" gradientUnits="userSpaceOnUse">
            <stop offset="0.02" stop-color="#EF7B2C"/>
            <stop offset="0.3" stop-color="#F18433"/>
            <stop offset="0.75" stop-color="#F99D47"/>
            <stop offset="1" stop-color="#FFAE55"/>
        </linearGradient>
        <linearGradient id="paint21_linear_397_75319" x1="21.2367" y1="36.4092" x2="28.0408" y2="38.8494" gradientUnits="userSpaceOnUse">
            <stop offset="0.02" stop-color="#EF7B2C"/>
            <stop offset="0.3" stop-color="#F18433"/>
            <stop offset="0.75" stop-color="#F99D47"/>
            <stop offset="1" stop-color="#FFAE55"/>
        </linearGradient>
        <linearGradient id="paint22_linear_397_75319" x1="22.2083" y1="35.3628" x2="28.9811" y2="37.7431" gradientUnits="userSpaceOnUse">
            <stop offset="0.02" stop-color="#EF7B2C"/>
            <stop offset="0.34" stop-color="#EF7E2E"/>
            <stop offset="0.58" stop-color="#F38736"/>
            <stop offset="0.8" stop-color="#F89843"/>
            <stop offset="1" stop-color="#FFAE55"/>
        </linearGradient>
        <linearGradient id="paint23_linear_397_75319" x1="24.8877" y1="34.782" x2="31.6004" y2="37.1942" gradientUnits="userSpaceOnUse">
            <stop offset="0.02" stop-color="#EF7B2C"/>
            <stop offset="0.34" stop-color="#EF7E2E"/>
            <stop offset="0.58" stop-color="#F38736"/>
            <stop offset="0.8" stop-color="#F89843"/>
            <stop offset="1" stop-color="#FFAE55"/>
        </linearGradient>
        <linearGradient id="paint24_linear_397_75319" x1="25.9033" y1="34.245" x2="35.5014" y2="35.4242" gradientUnits="userSpaceOnUse">
            <stop offset="0.02" stop-color="#EF7B2C"/>
            <stop offset="0.34" stop-color="#EF7E2E"/>
            <stop offset="0.58" stop-color="#F38736"/>
            <stop offset="0.8" stop-color="#F89843"/>
            <stop offset="1" stop-color="#FFAE55"/>
        </linearGradient>
        <linearGradient id="paint25_linear_397_75319" x1="26.9703" y1="32.2355" x2="35.7073" y2="34.2608" gradientUnits="userSpaceOnUse">
            <stop offset="0.02" stop-color="#EF7B2C"/>
            <stop offset="0.34" stop-color="#EF7E2E"/>
            <stop offset="0.58" stop-color="#F38736"/>
            <stop offset="0.8" stop-color="#F89843"/>
            <stop offset="1" stop-color="#FFAE55"/>
        </linearGradient>
        <linearGradient id="paint26_linear_397_75319" x1="27.866" y1="30.6206" x2="37.3571" y2="32.4737" gradientUnits="userSpaceOnUse">
            <stop offset="0.02" stop-color="#EF7B2C"/>
            <stop offset="0.34" stop-color="#EF7E2E"/>
            <stop offset="0.58" stop-color="#F38736"/>
            <stop offset="0.8" stop-color="#F89843"/>
            <stop offset="1" stop-color="#FFAE55"/>
        </linearGradient>
        <linearGradient id="paint27_linear_397_75319" x1="28.455" y1="28.8638" x2="37.0598" y2="30.3439" gradientUnits="userSpaceOnUse">
            <stop offset="0.02" stop-color="#EF7B2C"/>
            <stop offset="0.34" stop-color="#EF7E2E"/>
            <stop offset="0.58" stop-color="#F38736"/>
            <stop offset="0.8" stop-color="#F89843"/>
            <stop offset="1" stop-color="#FFAE55"/>
        </linearGradient>
        <linearGradient id="paint28_linear_397_75319" x1="29.0084" y1="26.8976" x2="38.6855" y2="28.9592" gradientUnits="userSpaceOnUse">
            <stop offset="0.02" stop-color="#EF7B2C"/>
            <stop offset="0.34" stop-color="#EF7E2E"/>
            <stop offset="0.58" stop-color="#F38736"/>
            <stop offset="0.8" stop-color="#F89843"/>
            <stop offset="1" stop-color="#FFAE55"/>
        </linearGradient>
        <linearGradient id="paint29_linear_397_75319" x1="27.3479" y1="27.0913" x2="38.7335" y2="24.9865" gradientUnits="userSpaceOnUse">
            <stop offset="0.02" stop-color="#EF7B2C"/>
            <stop offset="0.34" stop-color="#EF7E2E"/>
            <stop offset="0.58" stop-color="#F38736"/>
            <stop offset="0.8" stop-color="#F89843"/>
            <stop offset="1" stop-color="#FFAE55"/>
        </linearGradient>
        <linearGradient id="paint30_linear_397_75319" x1="26.9691" y1="25.3897" x2="38.2033" y2="23.289" gradientUnits="userSpaceOnUse">
            <stop offset="0.02" stop-color="#EF7B2C"/>
            <stop offset="0.34" stop-color="#EF7E2E"/>
            <stop offset="0.58" stop-color="#F38736"/>
            <stop offset="0.8" stop-color="#F89843"/>
            <stop offset="1" stop-color="#FFAE55"/>
        </linearGradient>
        <linearGradient id="paint31_linear_397_75319" x1="26.4953" y1="23.5107" x2="37.6699" y2="21.4421" gradientUnits="userSpaceOnUse">
            <stop offset="0.02" stop-color="#EF7B2C"/>
            <stop offset="0.34" stop-color="#EF7E2E"/>
            <stop offset="0.58" stop-color="#F38736"/>
            <stop offset="0.8" stop-color="#F89843"/>
            <stop offset="1" stop-color="#FFAE55"/>
        </linearGradient>
        <linearGradient id="paint32_linear_397_75319" x1="44.0912" y1="14.7416" x2="34.9218" y2="18.5743" gradientUnits="userSpaceOnUse">
            <stop stop-color="#F8CE63"/>
            <stop offset="0.15" stop-color="#F4BA6E"/>
            <stop offset="0.73" stop-color="#E4729A"/>
            <stop offset="1" stop-color="#DF56AC"/>
        </linearGradient>
        <linearGradient id="paint33_linear_397_75319" x1="32.2217" y1="21.9175" x2="43.0926" y2="18.3489" gradientUnits="userSpaceOnUse">
            <stop offset="0.02" stop-color="#EF7B2C"/>
            <stop offset="0.34" stop-color="#EF7E2E"/>
            <stop offset="0.58" stop-color="#F38736"/>
            <stop offset="0.8" stop-color="#F89843"/>
            <stop offset="1" stop-color="#FFAE55"/>
        </linearGradient>
        <linearGradient id="paint34_linear_397_75319" x1="-12.7199" y1="17.1852" x2="-1.90725" y2="13.3891" gradientUnits="userSpaceOnUse">
            <stop offset="0.02" stop-color="#EF7B2C"/>
            <stop offset="0.34" stop-color="#EF7E2E"/>
            <stop offset="0.58" stop-color="#F38736"/>
            <stop offset="0.8" stop-color="#F89843"/>
            <stop offset="1" stop-color="#FFAE55"/>
        </linearGradient>
        <linearGradient id="paint35_linear_397_75319" x1="32.7331" y1="20.963" x2="43.208" y2="16.1387" gradientUnits="userSpaceOnUse">
            <stop offset="0.02" stop-color="#EF7B2C"/>
            <stop offset="0.34" stop-color="#EF7E2E"/>
            <stop offset="0.58" stop-color="#F38736"/>
            <stop offset="0.8" stop-color="#F89843"/>
            <stop offset="1" stop-color="#FFAE55"/>
        </linearGradient>
        <linearGradient id="paint36_linear_397_75319" x1="-12.703" y1="21.9684" x2="-2.31291" y2="16.924" gradientUnits="userSpaceOnUse">
            <stop offset="0.02" stop-color="#EF7B2C"/>
            <stop offset="0.34" stop-color="#EF7E2E"/>
            <stop offset="0.58" stop-color="#F38736"/>
            <stop offset="0.8" stop-color="#F89843"/>
            <stop offset="1" stop-color="#FFAE55"/>
        </linearGradient>
        <linearGradient id="paint37_linear_397_75319" x1="34.6354" y1="19.2245" x2="44.063" y2="12.7796" gradientUnits="userSpaceOnUse">
            <stop offset="0.02" stop-color="#EF7B2C"/>
            <stop offset="0.34" stop-color="#EF7E2E"/>
            <stop offset="0.58" stop-color="#F38736"/>
            <stop offset="0.8" stop-color="#F89843"/>
            <stop offset="1" stop-color="#FFAE55"/>
        </linearGradient>
        <linearGradient id="paint38_linear_397_75319" x1="-15.4674" y1="35.8457" x2="-7.12481" y2="28.0279" gradientUnits="userSpaceOnUse">
            <stop offset="0.02" stop-color="#EF7B2C"/>
            <stop offset="0.34" stop-color="#EF7E2E"/>
            <stop offset="0.58" stop-color="#F38736"/>
            <stop offset="0.8" stop-color="#F89843"/>
            <stop offset="1" stop-color="#FFAE55"/>
        </linearGradient>
        <linearGradient id="paint39_linear_397_75319" x1="33.303" y1="18.6952" x2="40.6038" y2="9.82169" gradientUnits="userSpaceOnUse">
            <stop offset="0.02" stop-color="#EF7B2C"/>
            <stop offset="0.34" stop-color="#EF7E2E"/>
            <stop offset="0.58" stop-color="#F38736"/>
            <stop offset="0.8" stop-color="#F89843"/>
            <stop offset="1" stop-color="#FFAE55"/>
        </linearGradient>
        <linearGradient id="paint40_linear_397_75319" x1="-10.6454" y1="42.4149" x2="-3.4268" y2="33.4515" gradientUnits="userSpaceOnUse">
            <stop offset="0.02" stop-color="#EF7B2C"/>
            <stop offset="0.34" stop-color="#EF7E2E"/>
            <stop offset="0.58" stop-color="#F38736"/>
            <stop offset="0.8" stop-color="#F89843"/>
            <stop offset="1" stop-color="#FFAE55"/>
        </linearGradient>
        <linearGradient id="paint41_linear_397_75319" x1="34.1456" y1="20.0203" x2="39.3665" y2="9.81453" gradientUnits="userSpaceOnUse">
            <stop offset="0.02" stop-color="#EF7B2C"/>
            <stop offset="0.34" stop-color="#EF7E2E"/>
            <stop offset="0.58" stop-color="#F38736"/>
            <stop offset="0.8" stop-color="#F89843"/>
            <stop offset="1" stop-color="#FFAE55"/>
        </linearGradient>
        <linearGradient id="paint42_linear_397_75319" x1="-7.57924" y1="52.2314" x2="-2.56064" y2="41.906" gradientUnits="userSpaceOnUse">
            <stop offset="0.02" stop-color="#EF7B2C"/>
            <stop offset="0.34" stop-color="#EF7E2E"/>
            <stop offset="0.58" stop-color="#F38736"/>
            <stop offset="0.8" stop-color="#F89843"/>
            <stop offset="1" stop-color="#FFAE55"/>
        </linearGradient>
        <linearGradient id="paint43_linear_397_75319" x1="24.6241" y1="40.394" x2="19.6294" y2="9.12144" gradientUnits="userSpaceOnUse">
            <stop stop-color="#DF56AC"/>
            <stop offset="0.27" stop-color="#E4729A"/>
            <stop offset="0.85" stop-color="#F4BA6E"/>
            <stop offset="1" stop-color="#F8CE63"/>
        </linearGradient>
        <linearGradient id="paint44_linear_397_75319" x1="9.87797" y1="29.3075" x2="13.2941" y2="31.0464" gradientUnits="userSpaceOnUse">
            <stop stop-color="#DF56AC"/>
            <stop offset="0.27" stop-color="#E4729A"/>
            <stop offset="0.85" stop-color="#F4BA6E"/>
            <stop offset="1" stop-color="#F8CE63"/>
        </linearGradient>
        <linearGradient id="paint45_linear_397_75319" x1="2.84929" y1="26.1656" x2="8.31169" y2="19.8571" gradientUnits="userSpaceOnUse">
            <stop stop-color="#DF56AC"/>
            <stop offset="0.27" stop-color="#E4729A"/>
            <stop offset="0.85" stop-color="#F4BA6E"/>
            <stop offset="1" stop-color="#F8CE63"/>
        </linearGradient>
        <linearGradient id="paint46_linear_397_75319" x1="3.65337" y1="24.6182" x2="8.57946" y2="21.1791" gradientUnits="userSpaceOnUse">
            <stop stop-color="#4D4D4D"/>
            <stop offset="1" stop-color="#FFE4D5"/>
        </linearGradient>
        <linearGradient id="paint47_linear_397_75319" x1="35.1869" y1="28.8413" x2="41.2201" y2="27.8927" gradientUnits="userSpaceOnUse">
            <stop stop-color="#DF56AC"/>
            <stop offset="0.27" stop-color="#E4729A"/>
            <stop offset="0.85" stop-color="#F4BA6E"/>
            <stop offset="1" stop-color="#F8CE63"/>
        </linearGradient>
        <linearGradient id="paint48_linear_397_75319" x1="35.1062" y1="27.0985" x2="40.1967" y2="26.2981" gradientUnits="userSpaceOnUse">
            <stop offset="0.02" stop-color="#EF7B2C"/>
            <stop offset="0.33" stop-color="#F5903D"/>
            <stop offset="0.74" stop-color="#FCA64E"/>
            <stop offset="1" stop-color="#FFAE55"/>
        </linearGradient>
        <linearGradient id="paint49_linear_397_75319" x1="35.7286" y1="27.3718" x2="40.6305" y2="26.6011" gradientUnits="userSpaceOnUse">
            <stop offset="0.02" stop-color="#EF7B2C"/>
            <stop offset="0.33" stop-color="#F5903D"/>
            <stop offset="0.74" stop-color="#FCA64E"/>
            <stop offset="1" stop-color="#FFAE55"/>
        </linearGradient>
        <linearGradient id="paint50_linear_397_75319" x1="36.0826" y1="27.779" x2="40.9846" y2="27.0083" gradientUnits="userSpaceOnUse">
            <stop offset="0.02" stop-color="#EF7B2C"/>
            <stop offset="0.33" stop-color="#F5903D"/>
            <stop offset="0.74" stop-color="#FCA64E"/>
            <stop offset="1" stop-color="#FFAE55"/>
        </linearGradient>
        <linearGradient id="paint51_linear_397_75319" x1="36.139" y1="28.1398" x2="41.1353" y2="27.3543" gradientUnits="userSpaceOnUse">
            <stop offset="0.02" stop-color="#EF7B2C"/>
            <stop offset="0.33" stop-color="#F5903D"/>
            <stop offset="0.74" stop-color="#FCA64E"/>
            <stop offset="1" stop-color="#FFAE55"/>
        </linearGradient>
        <linearGradient id="paint52_linear_397_75319" x1="36.2241" y1="28.681" x2="41.1261" y2="27.9103" gradientUnits="userSpaceOnUse">
            <stop offset="0.02" stop-color="#EF7B2C"/>
            <stop offset="0.33" stop-color="#F5903D"/>
            <stop offset="0.74" stop-color="#FCA64E"/>
            <stop offset="1" stop-color="#FFAE55"/>
        </linearGradient>
        <linearGradient id="paint53_linear_397_75319" x1="36.0925" y1="29.0708" x2="40.9002" y2="28.3149" gradientUnits="userSpaceOnUse">
            <stop offset="0.02" stop-color="#EF7B2C"/>
            <stop offset="0.33" stop-color="#F5903D"/>
            <stop offset="0.74" stop-color="#FCA64E"/>
            <stop offset="1" stop-color="#FFAE55"/>
        </linearGradient>
        <linearGradient id="paint54_linear_397_75319" x1="35.8991" y1="28.4541" x2="39.7271" y2="29.9324" gradientUnits="userSpaceOnUse">
            <stop offset="0.02" stop-color="#EF7B2C"/>
            <stop offset="0.33" stop-color="#F5903D"/>
            <stop offset="0.74" stop-color="#FCA64E"/>
            <stop offset="1" stop-color="#FFAE55"/>
        </linearGradient>
        <clipPath id="clip0_397_75319">
            <rect width="44" height="40" fill="white" transform="translate(0.4375 0.97998)"/>
        </clipPath>
    </defs>
</svg>