<svg xmlns="http://www.w3.org/2000/svg" width="1920" height="86" viewBox="0 0 1920 86" fill="none">
    <g clip-path="url(#clip0_358_65616)">
        <path fill-rule="evenodd" clip-rule="evenodd" d="M-29.3445 41.3078C-20.934 41.3078 -13.9611 28.4387 -0.597193 35.6657C12.7667 42.8927 15.0027 29.5887 57.989 29.5887C123.286 28.5579 176.378 36.6237 233.68 17.3311C259.845 8.8459 248.632 5.07347 272.929 5.07347C297.226 5.07347 295.358 0.360697 324.328 3.18836C353.299 6.01824 350.496 -1.52441 372.924 4.13313C395.353 9.78846 411.239 5.07568 425.257 11.6736C439.276 18.2737 438.341 13.5587 459.835 22.0439C481.33 30.5291 498.151 32.4164 513.103 32.4164C528.055 32.4164 523.382 24.8738 546.745 23.9312C570.107 22.9887 559.828 22.0461 581.323 20.1588C602.817 18.2737 616.835 0.360698 643.003 7.90335C669.168 15.446 667.299 16.3886 686.923 24.8738C737.919 49.868 735.215 25.9951 778.508 39.0121C804.673 49.3868 798.131 45.6144 821.496 52.2145C844.859 58.8146 842.056 49.3868 869.158 46.557C896.258 43.7293 894.389 39.0143 924.294 39.0143C954.199 39.0143 963.543 25.8141 987.84 37.1292C1012.14 48.4421 1003.73 51.2719 1028.96 61.6423C1054.19 72.0126 1071.01 68.2424 1099.98 66.3572C1128.95 64.4699 1134.56 64.4699 1155.12 59.7572C1175.68 55.0422 1182.22 39.9591 1222.41 44.6718C1262.59 49.3868 1274.74 39.0165 1307.45 38.0718C1340.16 37.1292 1338.29 43.7293 1365.39 34.3015C1392.49 24.8738 1397.16 18.2737 1423.33 18.2737C1449.5 18.2737 1450.43 11.6736 1483.14 22.9887C1515.84 34.3037 1518.65 23.929 1530.8 34.3037C1542.95 44.6741 1556.03 46.5592 1569.11 52.2167C1602.71 61.1875 1677.45 61.3398 1713.96 44.6718C1733.59 39.0165 1727.05 35.2441 1750.41 27.7014C1773.77 20.1588 1771.9 14.5012 1791.53 13.5587C1834.67 8.62737 1845.21 -4.07395 1884.98 1.30105C1907.64 5.17501 1949.51 8.33158 1956 40.9016C1956 40.9016 1954.05 126.078 1954.05 126.078L1901.8 248.323L1008.29 358.781C938.509 346.568 -30.8497 278.77 -56 223.864L-29.3401 41.3034L-29.3445 41.3078Z" fill="white"/>
    </g>
    <defs>
        <clipPath id="clip0_358_65616">
            <rect width="1920" height="86" fill="white"/>
        </clipPath>
    </defs>
</svg>