<svg xmlns="http://www.w3.org/2000/svg" width="1920" height="1080" viewBox="0 0 1920 1080" fill="none">
    <path d="M898 897.477C898 898.534 897.672 899.568 897.059 900.447C896.446 901.327 895.575 902.012 894.555 902.417C893.536 902.822 892.414 902.928 891.332 902.721C890.249 902.515 889.255 902.006 888.475 901.258C887.694 900.51 887.163 899.557 886.947 898.52C886.732 897.483 886.843 896.408 887.265 895.43C887.688 894.453 888.403 893.618 889.32 893.031C890.238 892.443 891.316 892.13 892.42 892.13C893.153 892.13 893.878 892.268 894.555 892.536C895.232 892.805 895.848 893.199 896.366 893.696C896.884 894.192 897.295 894.782 897.575 895.43C897.855 896.079 898 896.774 898 897.477Z" fill="#95BBF9"/>
    <path d="M877.159 913.954C877.159 915.012 876.832 916.045 876.219 916.925C875.606 917.804 874.734 918.49 873.715 918.894C872.695 919.299 871.573 919.405 870.491 919.199C869.409 918.992 868.415 918.483 867.634 917.735C866.854 916.987 866.323 916.034 866.107 914.997C865.892 913.96 866.002 912.885 866.425 911.908C866.847 910.931 867.562 910.096 868.479 909.508C869.397 908.921 870.476 908.607 871.58 908.607C873.06 908.607 874.479 909.17 875.525 910.173C876.571 911.176 877.159 912.536 877.159 913.954Z" fill="#95BBF9"/>
    <path d="M898 969.286C898 970.344 897.672 971.377 897.059 972.257C896.446 973.136 895.575 973.821 894.555 974.226C893.536 974.631 892.414 974.737 891.332 974.53C890.249 974.324 889.255 973.815 888.475 973.067C887.694 972.319 887.163 971.366 886.947 970.329C886.732 969.292 886.843 968.217 887.265 967.24C887.688 966.263 888.403 965.428 889.32 964.84C890.238 964.252 891.316 963.939 892.42 963.939C893.9 963.939 895.319 964.502 896.366 965.505C897.412 966.508 898 967.868 898 969.286Z" fill="#95BBF9"/>
    <path d="M874.047 935.083C874.047 935.551 873.903 936.008 873.632 936.397C873.36 936.786 872.975 937.089 872.524 937.268C872.073 937.447 871.576 937.494 871.097 937.403C870.619 937.312 870.179 937.086 869.834 936.756C869.489 936.425 869.254 936.003 869.158 935.545C869.063 935.086 869.112 934.61 869.299 934.178C869.486 933.746 869.802 933.376 870.208 933.116C870.614 932.857 871.091 932.718 871.579 932.718C871.903 932.718 872.224 932.779 872.524 932.898C872.823 933.016 873.096 933.191 873.325 933.41C873.554 933.63 873.736 933.891 873.86 934.178C873.984 934.465 874.047 934.772 874.047 935.083Z" fill="#95BBF9"/>
    <path d="M890.801 1077.63C890.801 1078.1 890.656 1078.56 890.385 1078.95C890.113 1079.34 889.728 1079.64 889.277 1079.82C888.826 1080 888.33 1080.05 887.851 1079.95C887.372 1079.86 886.932 1079.64 886.587 1079.31C886.242 1078.98 886.007 1078.56 885.911 1078.1C885.816 1077.64 885.865 1077.16 886.052 1076.73C886.239 1076.3 886.555 1075.93 886.961 1075.67C887.367 1075.41 887.844 1075.27 888.332 1075.27C888.987 1075.27 889.615 1075.52 890.078 1075.96C890.541 1076.41 890.801 1077.01 890.801 1077.63Z" fill="#95BBF9"/>
    <path d="M875.347 742.365C875.347 742.833 875.202 743.291 874.931 743.68C874.66 744.07 874.274 744.373 873.823 744.552C873.372 744.732 872.876 744.779 872.396 744.687C871.917 744.596 871.477 744.371 871.132 744.04C870.786 743.709 870.551 743.287 870.456 742.828C870.361 742.369 870.409 741.893 870.596 741.46C870.784 741.028 871.1 740.658 871.506 740.398C871.913 740.138 872.39 740 872.879 740C873.533 740 874.161 740.249 874.624 740.693C875.087 741.136 875.347 741.738 875.347 742.365Z" fill="#95BBF9"/>
</svg>