<svg xmlns="http://www.w3.org/2000/svg" width="1920" height="1080" viewBox="0 0 1920 1080" fill="none">
    <path d="M1574.65 678.84C1574.65 679.741 1574.38 680.621 1573.88 681.37C1573.38 682.118 1572.67 682.702 1571.84 683.046C1571 683.391 1570.08 683.481 1569.2 683.305C1568.32 683.13 1567.5 682.696 1566.87 682.059C1566.23 681.423 1565.79 680.612 1565.62 679.729C1565.44 678.845 1565.53 677.93 1565.88 677.098C1566.22 676.267 1566.81 675.555 1567.56 675.055C1568.31 674.555 1569.19 674.288 1570.09 674.288C1571.3 674.288 1572.46 674.768 1573.31 675.622C1574.17 676.475 1574.65 677.633 1574.65 678.84Z" fill="#95BBF9"/>
    <path d="M1565 698.445C1565 699.346 1564.74 700.226 1564.24 700.974C1563.73 701.723 1563.02 702.306 1562.19 702.65C1561.36 702.995 1560.44 703.085 1559.55 702.909C1558.67 702.733 1557.86 702.3 1557.22 701.663C1556.58 701.027 1556.15 700.216 1555.97 699.333C1555.8 698.45 1555.89 697.534 1556.23 696.703C1556.58 695.871 1557.16 695.16 1557.91 694.66C1558.66 694.159 1559.54 693.892 1560.44 693.892C1561.04 693.892 1561.64 694.01 1562.19 694.239C1562.74 694.467 1563.24 694.803 1563.67 695.226C1564.09 695.648 1564.43 696.15 1564.66 696.703C1564.89 697.255 1565 697.847 1565 698.445Z" fill="#95BBF9"/>
    <path d="M1504.62 469.106C1504.62 470.006 1504.36 470.887 1503.86 471.635C1503.36 472.384 1502.64 472.967 1501.81 473.312C1500.98 473.656 1500.06 473.747 1499.18 473.571C1498.29 473.395 1497.48 472.962 1496.84 472.326C1496.2 471.689 1495.77 470.878 1495.59 469.995C1495.42 469.112 1495.51 468.197 1495.85 467.365C1496.2 466.533 1496.78 465.822 1497.53 465.322C1498.28 464.821 1499.16 464.554 1500.06 464.554C1500.66 464.554 1501.26 464.671 1501.81 464.9C1502.36 465.129 1502.87 465.464 1503.29 465.887C1503.71 466.31 1504.05 466.812 1504.28 467.364C1504.51 467.916 1504.62 468.508 1504.62 469.106Z" fill="#95BBF9"/>
    <path d="M1554.87 434.358C1554.87 435.259 1554.6 436.139 1554.1 436.888C1553.6 437.636 1552.89 438.22 1552.05 438.565C1551.22 438.909 1550.3 439 1549.42 438.824C1548.53 438.648 1547.72 438.215 1547.08 437.578C1546.45 436.942 1546.01 436.131 1545.84 435.248C1545.66 434.364 1545.75 433.449 1546.09 432.617C1546.44 431.785 1547.02 431.074 1547.77 430.574C1548.52 430.074 1549.41 429.807 1550.31 429.807C1551.52 429.807 1552.68 430.286 1553.53 431.14C1554.39 431.993 1554.87 433.151 1554.87 434.358Z" fill="#95BBF9"/>
    <path d="M1534.09 436.818C1534.09 437.718 1533.82 438.599 1533.32 439.347C1532.82 440.096 1532.11 440.679 1531.28 441.024C1530.44 441.368 1529.53 441.458 1528.64 441.283C1527.76 441.107 1526.94 440.673 1526.31 440.036C1525.67 439.4 1525.23 438.589 1525.06 437.705C1524.88 436.822 1524.97 435.907 1525.32 435.075C1525.66 434.243 1526.25 433.533 1527 433.032C1527.75 432.532 1528.63 432.265 1529.53 432.266C1530.74 432.266 1531.9 432.746 1532.76 433.599C1533.61 434.453 1534.09 435.611 1534.09 436.818Z" fill="#95BBF9"/>
    <path d="M1466.27 488.228C1466.27 488.847 1466.09 489.453 1465.75 489.968C1465.4 490.483 1464.91 490.885 1464.34 491.122C1463.76 491.359 1463.13 491.421 1462.52 491.3C1461.92 491.179 1461.36 490.881 1460.92 490.443C1460.48 490.005 1460.18 489.447 1460.06 488.839C1459.94 488.231 1460 487.602 1460.24 487.029C1460.48 486.457 1460.88 485.968 1461.39 485.624C1461.91 485.279 1462.52 485.096 1463.14 485.096C1463.97 485.096 1464.77 485.426 1465.36 486.013C1465.94 486.601 1466.27 487.397 1466.27 488.228Z" fill="#95BBF9"/>
    <path d="M1571.9 454.221C1571.9 454.841 1571.72 455.447 1571.37 455.962C1571.03 456.478 1570.54 456.879 1569.97 457.117C1569.39 457.354 1568.76 457.416 1568.15 457.295C1567.54 457.175 1566.98 456.876 1566.55 456.438C1566.11 456 1565.81 455.442 1565.69 454.834C1565.57 454.226 1565.63 453.596 1565.86 453.023C1566.1 452.451 1566.5 451.962 1567.02 451.617C1567.54 451.273 1568.14 451.089 1568.76 451.089C1569.6 451.089 1570.39 451.419 1570.98 452.006C1571.57 452.594 1571.9 453.391 1571.9 454.221Z" fill="#95BBF9"/>
    <path d="M1560.44 297.132C1560.44 297.752 1560.26 298.357 1559.92 298.872C1559.57 299.388 1559.08 299.789 1558.51 300.026C1557.93 300.263 1557.3 300.325 1556.7 300.204C1556.09 300.083 1555.53 299.785 1555.09 299.347C1554.65 298.909 1554.35 298.351 1554.23 297.743C1554.11 297.136 1554.17 296.506 1554.41 295.934C1554.65 295.361 1555.05 294.872 1555.56 294.528C1556.08 294.184 1556.69 294 1557.31 294C1558.14 294 1558.94 294.33 1559.53 294.917C1560.11 295.505 1560.44 296.302 1560.44 297.132Z" fill="#95BBF9"/>
    <path d="M1532.67 474.614C1532.67 475.234 1532.49 475.839 1532.14 476.354C1531.8 476.869 1531.31 477.271 1530.73 477.508C1530.16 477.745 1529.53 477.807 1528.92 477.686C1528.31 477.565 1527.75 477.267 1527.31 476.829C1526.88 476.391 1526.58 475.833 1526.46 475.225C1526.34 474.618 1526.4 473.988 1526.63 473.416C1526.87 472.843 1527.27 472.354 1527.79 472.01C1528.31 471.666 1528.91 471.482 1529.53 471.482C1530.36 471.482 1531.16 471.812 1531.75 472.399C1532.34 472.987 1532.67 473.783 1532.67 474.614Z" fill="#95BBF9"/>
    <path d="M1524.65 442.981C1524.65 443.601 1524.46 444.207 1524.12 444.722C1523.77 445.237 1523.28 445.638 1522.71 445.875C1522.14 446.112 1521.51 446.174 1520.9 446.054C1520.29 445.933 1519.73 445.634 1519.29 445.196C1518.85 444.758 1518.55 444.2 1518.43 443.593C1518.31 442.985 1518.37 442.355 1518.61 441.783C1518.85 441.21 1519.25 440.721 1519.77 440.377C1520.28 440.033 1520.89 439.849 1521.51 439.849C1522.34 439.849 1523.14 440.179 1523.73 440.767C1524.32 441.354 1524.65 442.151 1524.65 442.981Z" fill="#95BBF9"/>
    <path d="M1529.53 416.65C1529.53 417.269 1529.35 417.875 1529 418.39C1528.66 418.905 1528.17 419.306 1527.59 419.543C1527.02 419.78 1526.39 419.843 1525.78 419.722C1525.17 419.601 1524.61 419.302 1524.18 418.864C1523.74 418.426 1523.44 417.868 1523.32 417.261C1523.19 416.653 1523.26 416.023 1523.5 415.451C1523.73 414.879 1524.13 414.389 1524.65 414.045C1525.17 413.701 1525.77 413.517 1526.39 413.517C1526.81 413.517 1527.21 413.598 1527.59 413.756C1527.97 413.913 1528.32 414.144 1528.61 414.435C1528.9 414.726 1529.13 415.071 1529.29 415.451C1529.45 415.831 1529.53 416.238 1529.53 416.65Z" fill="#95BBF9"/>
    <path d="M1539.35 318.578C1539.35 319.197 1539.16 319.803 1538.82 320.318C1538.47 320.833 1537.98 321.235 1537.41 321.472C1536.84 321.709 1536.21 321.771 1535.6 321.65C1534.99 321.529 1534.43 321.23 1533.99 320.792C1533.55 320.354 1533.25 319.796 1533.13 319.188C1533.01 318.581 1533.07 317.951 1533.31 317.378C1533.55 316.806 1533.95 316.317 1534.47 315.973C1534.98 315.629 1535.59 315.445 1536.21 315.446C1536.62 315.446 1537.03 315.527 1537.41 315.684C1537.79 315.841 1538.14 316.072 1538.43 316.363C1538.72 316.654 1538.95 316.999 1539.11 317.379C1539.27 317.759 1539.35 318.167 1539.35 318.578Z" fill="#95BBF9"/>
    <path d="M1507.94 318.578C1507.94 319.197 1507.75 319.803 1507.41 320.318C1507.06 320.833 1506.57 321.235 1506 321.472C1505.43 321.709 1504.8 321.771 1504.19 321.65C1503.58 321.529 1503.02 321.231 1502.58 320.793C1502.14 320.355 1501.84 319.796 1501.72 319.189C1501.6 318.581 1501.66 317.952 1501.9 317.379C1502.14 316.807 1502.54 316.318 1503.06 315.973C1503.57 315.629 1504.18 315.446 1504.8 315.446C1505.63 315.446 1506.43 315.776 1507.02 316.363C1507.61 316.951 1507.94 317.747 1507.94 318.578Z" fill="#95BBF9"/>
    <path d="M1650.44 1000.18C1650.44 1001.08 1650.17 1001.96 1649.67 1002.71C1649.17 1003.46 1648.46 1004.04 1647.62 1004.39C1646.79 1004.73 1645.87 1004.82 1644.99 1004.65C1644.1 1004.47 1643.29 1004.04 1642.65 1003.4C1642.02 1002.76 1641.58 1001.95 1641.41 1001.07C1641.23 1000.19 1641.32 999.273 1641.67 998.441C1642.01 997.609 1642.59 996.898 1643.34 996.398C1644.09 995.897 1644.98 995.63 1645.88 995.63C1647.09 995.63 1648.25 996.11 1649.1 996.964C1649.96 997.818 1650.44 998.975 1650.44 1000.18Z" fill="#95BBF9"/>
    <path d="M1653.58 987.068C1653.58 987.688 1653.39 988.294 1653.05 988.809C1652.7 989.324 1652.21 989.726 1651.64 989.964C1651.07 990.201 1650.44 990.263 1649.83 990.142C1649.22 990.021 1648.66 989.723 1648.22 989.285C1647.78 988.847 1647.48 988.288 1647.36 987.681C1647.24 987.073 1647.3 986.443 1647.54 985.87C1647.78 985.298 1648.18 984.808 1648.69 984.464C1649.21 984.119 1649.82 983.936 1650.44 983.936C1651.27 983.936 1652.07 984.266 1652.66 984.853C1653.25 985.441 1653.58 986.237 1653.58 987.068Z" fill="#95BBF9"/>
    <path d="M1658.73 1076.87C1658.73 1077.49 1658.55 1078.09 1658.2 1078.61C1657.86 1079.12 1657.37 1079.52 1656.79 1079.76C1656.22 1080 1655.59 1080.06 1654.98 1079.94C1654.37 1079.82 1653.81 1079.52 1653.38 1079.08C1652.94 1078.64 1652.64 1078.09 1652.52 1077.48C1652.4 1076.87 1652.46 1076.24 1652.7 1075.67C1652.93 1075.1 1653.33 1074.61 1653.85 1074.26C1654.37 1073.92 1654.97 1073.74 1655.59 1073.74C1656.43 1073.74 1657.22 1074.07 1657.81 1074.65C1658.4 1075.24 1658.73 1076.04 1658.73 1076.87Z" fill="#95BBF9"/>
    <path d="M1633.93 959.395C1633.93 959.793 1633.81 960.182 1633.59 960.513C1633.37 960.844 1633.05 961.102 1632.68 961.255C1632.31 961.407 1631.91 961.447 1631.52 961.369C1631.13 961.292 1630.77 961.1 1630.48 960.818C1630.2 960.537 1630.01 960.178 1629.93 959.787C1629.85 959.397 1629.9 958.992 1630.05 958.624C1630.2 958.256 1630.46 957.942 1630.79 957.72C1631.12 957.499 1631.51 957.381 1631.91 957.381C1632.45 957.381 1632.96 957.593 1633.34 957.971C1633.72 958.348 1633.93 958.861 1633.93 959.395Z" fill="#95BBF9"/>
    <path d="M1646.49 1044.5C1646.49 1044.9 1646.38 1045.29 1646.15 1045.62C1645.93 1045.95 1645.62 1046.21 1645.25 1046.36C1644.88 1046.52 1644.47 1046.56 1644.08 1046.48C1643.69 1046.4 1643.33 1046.21 1643.05 1045.93C1642.77 1045.64 1642.58 1045.29 1642.5 1044.89C1642.42 1044.5 1642.46 1044.1 1642.61 1043.73C1642.77 1043.36 1643.02 1043.05 1643.36 1042.83C1643.69 1042.61 1644.08 1042.49 1644.48 1042.49C1645.01 1042.49 1645.53 1042.7 1645.9 1043.08C1646.28 1043.46 1646.49 1043.97 1646.49 1044.5Z" fill="#95BBF9"/>
    <path d="M1655.59 1011.88C1655.59 1012.28 1655.47 1012.67 1655.25 1013C1655.03 1013.33 1654.72 1013.59 1654.35 1013.74C1653.98 1013.89 1653.57 1013.93 1653.18 1013.86C1652.79 1013.78 1652.43 1013.59 1652.15 1013.3C1651.87 1013.02 1651.67 1012.66 1651.6 1012.27C1651.52 1011.88 1651.56 1011.48 1651.71 1011.11C1651.86 1010.74 1652.12 1010.43 1652.45 1010.21C1652.79 1009.98 1653.18 1009.87 1653.57 1009.87C1653.84 1009.87 1654.1 1009.92 1654.35 1010.02C1654.59 1010.12 1654.81 1010.27 1655 1010.46C1655.19 1010.64 1655.34 1010.86 1655.44 1011.11C1655.54 1011.35 1655.59 1011.61 1655.59 1011.88Z" fill="#95BBF9"/>
    <path d="M1688 868.528C1688 868.926 1687.88 869.316 1687.66 869.647C1687.44 869.979 1687.12 870.237 1686.76 870.39C1686.39 870.542 1685.98 870.582 1685.59 870.505C1685.2 870.427 1684.84 870.235 1684.56 869.954C1684.27 869.672 1684.08 869.313 1684 868.922C1683.93 868.531 1683.97 868.126 1684.12 867.758C1684.27 867.39 1684.53 867.075 1684.86 866.854C1685.19 866.633 1685.58 866.514 1685.98 866.514C1686.52 866.514 1687.03 866.727 1687.41 867.104C1687.79 867.482 1688 867.994 1688 868.528Z" fill="#95BBF9"/>
    <path d="M1655.59 813.264C1655.59 813.662 1655.47 814.052 1655.25 814.383C1655.03 814.715 1654.72 814.973 1654.35 815.126C1653.98 815.278 1653.57 815.319 1653.18 815.241C1652.79 815.163 1652.43 814.971 1652.15 814.69C1651.87 814.408 1651.67 814.049 1651.6 813.658C1651.52 813.267 1651.56 812.862 1651.71 812.494C1651.86 812.126 1652.12 811.811 1652.45 811.59C1652.79 811.369 1653.18 811.25 1653.57 811.25C1653.84 811.25 1654.1 811.302 1654.35 811.403C1654.59 811.505 1654.81 811.653 1655 811.84C1655.19 812.027 1655.34 812.249 1655.44 812.493C1655.54 812.738 1655.59 812.999 1655.59 813.264Z" fill="#95BBF9"/>
</svg>