<svg xmlns="http://www.w3.org/2000/svg" viewBox="0 0 1920 1080">
    <g class="layer">
        <title>Layer 1</title>
        <path d="m1139.49,1029.82c-4.06,-15.92 -4.06,-15.92 -18.86,-19.1c-17.04,-30.83 0,0 0,0c1.81,-11.5 0,-20.87 -8.33,-23.54l0,-14.12c3.6,-0.88 6.78,-2.87 9.03,-5.63c2.27,-2.74 3.5,-6.14 3.52,-9.62l0,-22c-0.02,-3.48 -1.25,-6.86 -3.5,-9.62c-2.27,-2.76 -5.45,-4.75 -9.05,-5.63l0,-14.51c3.6,-0.9 6.78,-2.87 9.05,-5.63c2.25,-2.76 3.48,-6.14 3.5,-9.62l0,-22c-0.02,-3.48 -1.25,-6.86 -3.52,-9.62c-2.25,-2.76 -5.43,-4.73 -9.03,-5.63l0,-14.51c3.6,-0.9 6.78,-2.87 9.03,-5.63c2.27,-2.76 3.5,-6.14 3.52,-9.62l0,-22c-0.02,-3.48 -1.25,-6.86 -3.52,-9.62c-2.25,-2.76 -5.43,-4.73 -9.03,-5.63l0,-14.51c3.6,-0.9 6.78,-2.87 9.03,-5.63c2.27,-2.76 3.5,-6.14 3.52,-9.62l0,-22c-0.02,-3.48 -1.25,-6.88 -3.52,-9.62c-2.25,-2.76 -5.43,-4.75 -9.03,-5.63l0,-14.51c3.6,-0.9 6.78,-2.87 9.03,-5.63c2.27,-2.76 3.5,-6.14 3.52,-9.62l0,-22c-0.02,-3.48 -1.25,-6.88 -3.52,-9.62c-2.25,-2.76 -5.43,-4.75 -9.03,-5.63l0,-14.51c3.6,-0.9 6.78,-2.87 9.03,-5.63c2.27,-2.76 3.5,-6.14 3.52,-9.62l0,-22c-0.02,-3.48 -1.25,-6.88 -3.52,-9.64c-2.25,-2.74 -5.43,-4.73 -9.03,-5.61l0,-14.53c3.6,-0.88 6.78,-2.87 9.03,-5.61c2.27,-2.76 3.5,-6.16 3.52,-9.62l0,-22.02c-0.02,-3.47 -1.25,-6.86 -3.52,-9.62c-2.25,-2.74 -5.43,-4.73 -9.03,-5.61l0,-14.53c3.6,-0.88 6.78,-2.87 9.03,-5.61c2.27,-2.76 3.5,-6.16 3.52,-9.62l0,-22.02c-0.02,-3.47 -1.25,-6.86 -3.52,-9.62c-2.25,-2.74 -5.43,-4.73 -9.03,-5.61l0,-14.53c3.6,-0.88 6.78,-2.87 9.03,-5.61c2.27,-2.76 3.5,-6.16 3.52,-9.64l0,-22c-0.02,-3.48 -1.25,-6.86 -3.52,-9.62c-2.25,-2.76 -5.43,-4.73 -9.03,-5.61l0,-14.53c3.6,-0.88 6.78,-2.87 9.03,-5.63c2.27,-2.74 3.5,-6.14 3.52,-9.62l0,-22c-0.02,-3.48 -1.25,-6.86 -3.5,-9.62c-2.27,-2.76 -5.45,-4.73 -9.05,-5.61l0,-14.53c3.6,-0.88 6.78,-2.87 9.03,-5.63c2.27,-2.74 3.5,-6.14 3.52,-9.62l0,-22c-0.02,-3.48 -1.25,-6.86 -3.5,-9.62c-2.27,-2.76 -5.45,-4.73 -9.05,-5.61l0,-14.53c3.6,-0.88 6.78,-2.87 9.03,-5.61c2.27,-2.76 3.5,-6.16 3.52,-9.64l0,-22c-0.02,-3.48 -1.25,-6.86 -3.52,-9.62c-2.25,-2.76 -5.43,-4.73 -9.03,-5.63l0,-14.51c3.6,-0.88 6.78,-2.87 9.03,-5.63c2.27,-2.76 3.5,-6.14 3.52,-9.62l0,-22c-0.02,-3.48 -1.25,-6.86 -3.52,-9.62c-2.25,-2.76 -5.43,-4.73 -9.03,-5.63l0,-14.51c3.6,-0.9 6.78,-2.87 9.03,-5.63c2.27,-2.76 3.5,-6.14 3.52,-9.62l0,-22c-0.02,-3.48 -1.25,-6.86 -3.52,-9.62c-2.25,-2.76 -5.43,-4.73 -9.03,-5.63l0,-14.51c3.6,-0.9 6.78,-2.87 9.05,-5.63c2.25,-2.76 3.48,-6.14 3.5,-9.62l0,-6.97l-9.64,0l0,6.97c0,1.05 -0.27,2.09 -0.77,3.01c-0.5,0.94 -1.23,1.75 -2.14,2.38l0,-5.09c0,-0.6 -0.12,-1.17 -0.37,-1.73c-0.23,-0.54 -0.6,-1.05 -1.04,-1.46c-0.44,-0.42 -0.98,-0.76 -1.56,-0.97c-0.6,-0.23 -1.21,-0.34 -1.85,-0.34c-0.19,0 -0.38,0.02 -0.58,0.05c-0.58,0.05 -1.14,0.23 -1.66,0.49l-0.04,0.02c-0.23,0.11 -0.46,0.25 -0.67,0.4c-0.02,0.02 -0.06,0.05 -0.1,0.07c-0.17,0.14 -0.35,0.29 -0.52,0.45c-0.04,0.05 -0.1,0.13 -0.13,0.18c-0.13,0.14 -0.27,0.29 -0.37,0.45c-0.08,0.11 -0.13,0.2 -0.19,0.31c-0.08,0.14 -0.15,0.27 -0.21,0.42c-0.06,0.16 -0.12,0.32 -0.15,0.49c-0.04,0.11 -0.1,0.22 -0.12,0.32c-0.06,0.29 -0.1,0.58 -0.1,0.87l0,4.19c-1.17,-1.25 -1.83,-2.83 -1.83,-4.49l0,-6.97l-9.64,0l0,6.97c0,0.54 0.04,1.07 0.08,1.59c0.02,0.2 0.08,0.38 0.1,0.58c0.06,0.32 0.1,0.65 0.15,0.97c0.06,0.23 0.13,0.47 0.19,0.72c0.08,0.23 0.13,0.51 0.21,0.76c0.1,0.27 0.21,0.54 0.31,0.81c0.1,0.2 0.15,0.42 0.25,0.61c0.13,0.29 0.29,0.58 0.42,0.87c0.1,0.16 0.17,0.32 0.25,0.47c0.17,0.32 0.38,0.63 0.58,0.92c0.08,0.13 0.15,0.25 0.23,0.36c0.23,0.32 0.48,0.65 0.73,0.96c0.06,0.07 0.12,0.16 0.19,0.23c0.29,0.32 0.58,0.65 0.89,0.96c0.06,0.05 0.1,0.09 0.15,0.14c0.33,0.32 0.67,0.63 1.04,0.94c0.04,0.02 0.06,0.04 0.08,0.05c0.38,0.32 0.79,0.61 1.21,0.88l0.02,0.02c1.35,0.9 2.83,1.62 4.39,2.11l0,15.11c-1.54,0.49 -2.98,1.17 -4.31,2.06c-0.5,0.32 -0.98,0.69 -1.44,1.07l-0.19,0.16c-0.42,0.36 -0.81,0.72 -1.19,1.12c-0.06,0.05 -0.12,0.13 -0.17,0.18c-0.4,0.43 -0.79,0.88 -1.15,1.37l-0.02,0.02c-0.37,0.51 -0.71,1.03 -1.02,1.57c-0.02,0.02 -0.02,0.05 -0.04,0.09c-0.27,0.47 -0.5,0.97 -0.73,1.46c-0.06,0.16 -0.12,0.32 -0.17,0.47c-0.15,0.4 -0.29,0.79 -0.4,1.21c-0.06,0.18 -0.12,0.38 -0.15,0.56c-0.12,0.42 -0.19,0.83 -0.25,1.25c-0.04,0.18 -0.08,0.36 -0.1,0.54c-0.08,0.6 -0.12,1.21 -0.12,1.82l0,22c0,0.52 0.04,1.05 0.08,1.59c0.02,0.18 0.08,0.38 0.1,0.58c0.06,0.32 0.1,0.65 0.15,0.96c0.06,0.25 0.13,0.49 0.19,0.72c0.08,0.25 0.13,0.52 0.21,0.78c0.1,0.25 0.19,0.54 0.31,0.81c0.08,0.2 0.15,0.4 0.25,0.61c0.13,0.29 0.27,0.58 0.42,0.85c0.1,0.18 0.17,0.34 0.25,0.49c0.17,0.32 0.38,0.61 0.58,0.9c0.08,0.13 0.15,0.25 0.23,0.36c0.23,0.32 0.48,0.65 0.73,0.96c0.08,0.07 0.13,0.16 0.19,0.23c0.29,0.32 0.58,0.65 0.89,0.96c0.06,0.04 0.1,0.09 0.15,0.14c0.33,0.32 0.67,0.63 1.04,0.92c0.04,0.04 0.06,0.05 0.1,0.09c0.38,0.31 0.79,0.6 1.19,0.87l0.02,0.02c1.35,0.9 2.83,1.62 4.39,2.11l0,15.11c-1.52,0.49 -2.98,1.17 -4.31,2.06c-0.5,0.32 -0.98,0.69 -1.46,1.08c-0.06,0.04 -0.12,0.09 -0.19,0.14c-0.4,0.36 -0.79,0.72 -1.17,1.12c-0.06,0.05 -0.12,0.13 -0.17,0.18c-0.4,0.43 -0.79,0.88 -1.15,1.35l-0.02,0.04c-0.37,0.51 -0.71,1.03 -1.02,1.57c-0.02,0.02 -0.02,0.07 -0.04,0.09c-0.27,0.49 -0.52,0.97 -0.73,1.46c-0.06,0.16 -0.12,0.32 -0.19,0.47c-0.13,0.4 -0.29,0.79 -0.4,1.21c-0.06,0.18 -0.1,0.38 -0.15,0.56c-0.1,0.42 -0.17,0.83 -0.25,1.25c-0.02,0.18 -0.06,0.36 -0.08,0.54c-0.08,0.6 -0.12,1.21 -0.13,1.82l0,22c0,0.52 0.04,1.05 0.1,1.59c0.02,0.18 0.06,0.36 0.1,0.56c0.04,0.32 0.08,0.65 0.15,0.97c0.06,0.23 0.12,0.47 0.19,0.7c0.08,0.27 0.13,0.52 0.21,0.78c0.08,0.27 0.19,0.54 0.31,0.79c0.08,0.22 0.15,0.43 0.23,0.63c0.13,0.29 0.29,0.58 0.42,0.85c0.1,0.16 0.17,0.34 0.27,0.51c0.17,0.31 0.37,0.6 0.56,0.9c0.08,0.13 0.15,0.25 0.25,0.38c0.21,0.32 0.46,0.61 0.71,0.92c0.08,0.09 0.13,0.18 0.21,0.27c0.27,0.32 0.58,0.63 0.87,0.92c0.06,0.07 0.12,0.13 0.17,0.18c0.33,0.31 0.67,0.61 1.02,0.9l0.1,0.09c0.38,0.31 0.77,0.6 1.19,0.87l0.04,0.04c1.35,0.9 2.83,1.61 4.39,2.09l0,15.11c-1.54,0.49 -2.98,1.17 -4.31,2.06c-0.52,0.34 -1,0.7 -1.46,1.08l-0.19,0.16c-0.4,0.34 -0.81,0.72 -1.17,1.12c-0.06,0.05 -0.12,0.11 -0.17,0.18c-0.42,0.43 -0.81,0.88 -1.15,1.37l-0.02,0.02c-0.37,0.51 -0.71,1.03 -1.02,1.57c-0.02,0.02 -0.04,0.05 -0.06,0.09c-0.27,0.47 -0.5,0.96 -0.71,1.46c-0.08,0.16 -0.13,0.32 -0.19,0.47c-0.15,0.4 -0.29,0.79 -0.4,1.21c-0.06,0.18 -0.1,0.38 -0.15,0.56c-0.1,0.42 -0.17,0.83 -0.25,1.25c-0.02,0.18 -0.06,0.36 -0.08,0.54c-0.08,0.6 -0.12,1.21 -0.13,1.81l0,22.02c0,0.52 0.04,1.05 0.1,1.59c0.02,0.18 0.06,0.36 0.08,0.54c0.06,0.32 0.1,0.67 0.17,0.99c0.04,0.22 0.12,0.45 0.17,0.67c0.08,0.27 0.13,0.54 0.23,0.81c0.08,0.27 0.19,0.51 0.29,0.76c0.08,0.23 0.15,0.45 0.25,0.67c0.13,0.27 0.27,0.54 0.4,0.81c0.1,0.18 0.19,0.36 0.29,0.54c0.15,0.29 0.35,0.58 0.54,0.85c0.08,0.14 0.17,0.29 0.27,0.42c0.21,0.31 0.44,0.61 0.67,0.9c0.1,0.09 0.17,0.2 0.25,0.29c0.27,0.32 0.56,0.61 0.85,0.9c0.06,0.07 0.12,0.14 0.19,0.22c0.31,0.29 0.64,0.6 0.98,0.87c0.06,0.05 0.1,0.09 0.15,0.13c0.37,0.31 0.75,0.58 1.14,0.85l0.08,0.05c0.42,0.27 0.85,0.54 1.29,0.78l0.04,0.02c0.96,0.52 2,0.96 3.06,1.3l0,15.11c-1.54,0.49 -2.98,1.17 -4.31,2.04c-0.52,0.34 -1,0.7 -1.46,1.1l-0.19,0.16c-0.4,0.34 -0.81,0.72 -1.17,1.1c-0.06,0.07 -0.13,0.13 -0.17,0.18c-0.42,0.45 -0.81,0.9 -1.15,1.39l0,0c-0.38,0.51 -0.73,1.05 -1.04,1.59c-0.02,0.02 -0.02,0.05 -0.04,0.07c-0.27,0.49 -0.5,0.97 -0.73,1.48c-0.06,0.16 -0.12,0.31 -0.17,0.47c-0.15,0.4 -0.29,0.79 -0.4,1.21c-0.06,0.18 -0.12,0.36 -0.15,0.56c-0.12,0.42 -0.19,0.81 -0.25,1.25c-0.04,0.18 -0.08,0.34 -0.1,0.52c-0.08,0.61 -0.12,1.23 -0.12,1.82l0,22c0,0.54 0.04,1.07 0.08,1.59c0.02,0.2 0.08,0.38 0.1,0.58c0.06,0.32 0.1,0.65 0.15,0.97c0.06,0.23 0.13,0.47 0.19,0.7c0.08,0.25 0.13,0.52 0.23,0.78c0.08,0.25 0.19,0.52 0.29,0.79c0.1,0.22 0.15,0.43 0.25,0.63c0.13,0.29 0.29,0.56 0.42,0.85c0.1,0.16 0.17,0.34 0.27,0.51c0.17,0.31 0.37,0.6 0.56,0.88c0.08,0.13 0.15,0.25 0.25,0.38c0.21,0.32 0.46,0.63 0.69,0.92c0.08,0.09 0.15,0.18 0.23,0.27c0.27,0.32 0.56,0.63 0.87,0.94c0.06,0.05 0.1,0.11 0.15,0.18c0.33,0.31 0.67,0.61 1.02,0.9l0.12,0.09c0.38,0.31 0.77,0.58 1.17,0.87l0.06,0.04c0.42,0.29 0.87,0.54 1.31,0.79c0.98,0.52 2,0.96 3.06,1.3l0,15.11c-1.52,0.49 -2.98,1.17 -4.31,2.04c-0.5,0.34 -1,0.7 -1.46,1.1c-0.06,0.05 -0.12,0.11 -0.17,0.14c-0.42,0.36 -0.81,0.74 -1.19,1.14l-0.17,0.18c-0.85,0.9 -1.58,1.9 -2.19,2.96c0,0.04 -0.02,0.05 -0.02,0.07c-0.29,0.49 -0.52,0.99 -0.73,1.5c-0.08,0.14 -0.13,0.31 -0.19,0.45c-0.15,0.4 -0.29,0.79 -0.4,1.21c-0.06,0.18 -0.12,0.38 -0.15,0.56c-0.1,0.42 -0.19,0.83 -0.25,1.25c-0.04,0.18 -0.06,0.36 -0.1,0.54c-0.08,0.61 -0.12,1.21 -0.12,1.82l0,22c0,0.52 0.04,1.07 0.1,1.59c0.02,0.2 0.06,0.38 0.08,0.56c0.06,0.34 0.1,0.67 0.17,0.99c0.04,0.23 0.12,0.47 0.19,0.7c0.06,0.25 0.12,0.52 0.21,0.78c0.08,0.25 0.19,0.52 0.29,0.79c0.1,0.2 0.17,0.42 0.25,0.63c0.13,0.29 0.29,0.56 0.42,0.85c0.1,0.16 0.17,0.32 0.27,0.51c0.17,0.31 0.37,0.6 0.56,0.88c0.08,0.13 0.15,0.25 0.25,0.38c0.21,0.32 0.46,0.63 0.71,0.92c0.06,0.09 0.13,0.18 0.21,0.27c0.27,0.32 0.56,0.63 0.87,0.92c0.06,0.05 0.1,0.13 0.15,0.18c0.33,0.31 0.67,0.61 1.04,0.9l0.1,0.09c0.38,0.31 0.77,0.6 1.17,0.87l0.06,0.04c0.42,0.29 0.87,0.54 1.31,0.79c0.98,0.52 2,0.96 3.08,1.3l0,15.11c-1.54,0.49 -3,1.17 -4.31,2.06c-0.52,0.32 -1,0.7 -1.48,1.08l-0.17,0.16c-0.4,0.34 -0.81,0.72 -1.17,1.1c-0.06,0.07 -0.13,0.13 -0.19,0.18c-0.4,0.45 -0.79,0.9 -1.15,1.39l0,0.02c-0.38,0.51 -0.71,1.03 -1.04,1.57c0,0.02 -0.02,0.05 -0.04,0.09c-0.27,0.47 -0.5,0.96 -0.71,1.46c-0.08,0.16 -0.13,0.31 -0.19,0.47c-0.15,0.4 -0.29,0.79 -0.4,1.19c-0.06,0.18 -0.12,0.38 -0.15,0.58c-0.1,0.42 -0.17,0.81 -0.25,1.25c-0.02,0.18 -0.06,0.36 -0.1,0.54c-0.08,0.6 -0.12,1.21 -0.12,1.81l0,22c0,0.54 0.04,1.07 0.1,1.59c0.02,0.2 0.06,0.4 0.08,0.58c0.06,0.32 0.1,0.65 0.17,0.97c0.04,0.25 0.12,0.49 0.19,0.72c0.06,0.23 0.12,0.52 0.21,0.76c0.08,0.25 0.19,0.54 0.31,0.81c0.08,0.22 0.15,0.42 0.23,0.61c0.13,0.31 0.29,0.6 0.44,0.87c0.08,0.16 0.15,0.32 0.25,0.49c0.17,0.31 0.38,0.61 0.58,0.92c0.08,0.11 0.13,0.23 0.21,0.36c0.23,0.32 0.48,0.63 0.73,0.94c0.08,0.09 0.13,0.16 0.19,0.25c0.29,0.32 0.58,0.63 0.9,0.94c0.04,0.05 0.08,0.11 0.13,0.14c0.33,0.32 0.67,0.63 1.04,0.94l0.1,0.07c0.38,0.31 0.79,0.6 1.19,0.88l0.04,0.02c1.35,0.9 2.81,1.61 4.39,2.11l0,15.13c-1.54,0.49 -2.98,1.17 -4.31,2.06c-0.52,0.34 -1,0.7 -1.46,1.08l-0.19,0.16c-0.4,0.34 -0.81,0.72 -1.17,1.12l-0.17,0.18c-0.42,0.43 -0.81,0.9 -1.15,1.39c-0.38,0.51 -0.73,1.03 -1.04,1.57c-0.02,0.02 -0.02,0.05 -0.04,0.07c-0.27,0.49 -0.52,0.97 -0.73,1.5c-0.06,0.14 -0.12,0.29 -0.17,0.45c-0.15,0.4 -0.29,0.79 -0.4,1.21c-0.06,0.18 -0.12,0.38 -0.15,0.56c-0.12,0.42 -0.19,0.83 -0.25,1.25c-0.04,0.18 -0.08,0.36 -0.1,0.54c-0.08,0.6 -0.12,1.21 -0.12,1.82l0,22c0,0.52 0.02,1.07 0.08,1.59c0.02,0.2 0.08,0.4 0.1,0.6c0.06,0.31 0.1,0.63 0.15,0.94c0.06,0.25 0.13,0.51 0.19,0.74c0.06,0.25 0.13,0.51 0.21,0.76c0.1,0.27 0.21,0.54 0.31,0.83c0.08,0.2 0.15,0.4 0.23,0.58c0.13,0.31 0.31,0.61 0.46,0.9c0.08,0.16 0.13,0.31 0.23,0.45c0.19,0.32 0.38,0.65 0.6,0.96c0.06,0.11 0.13,0.22 0.21,0.32c0.23,0.32 0.48,0.65 0.75,0.97c0.06,0.05 0.1,0.14 0.17,0.22c0.29,0.32 0.6,0.65 0.9,0.97l0.12,0.11c0.35,0.34 0.71,0.65 1.08,0.96c0.02,0.02 0.04,0.04 0.06,0.05c1.66,1.34 3.56,2.35 5.62,3.01l0,15.11c-1.54,0.47 -2.98,1.17 -4.31,2.04c-0.5,0.34 -1,0.7 -1.46,1.08l-0.19,0.16c-0.4,0.34 -0.81,0.72 -1.17,1.12l-0.17,0.18c-0.42,0.43 -0.81,0.88 -1.15,1.35l-0.02,0.04c-0.38,0.49 -0.71,1.01 -1.02,1.57c-0.02,0.02 -0.04,0.05 -0.06,0.09c-0.27,0.47 -0.5,0.96 -0.71,1.46c-0.06,0.16 -0.12,0.31 -0.17,0.47c-0.15,0.4 -0.31,0.79 -0.42,1.19c-0.06,0.18 -0.1,0.38 -0.15,0.58c-0.1,0.42 -0.17,0.83 -0.25,1.25c-0.02,0.18 -0.06,0.36 -0.08,0.54c-0.08,0.6 -0.12,1.21 -0.13,1.81l0,22c0.02,0.54 0.04,1.07 0.1,1.61c0.02,0.18 0.06,0.38 0.1,0.58c0.04,0.32 0.08,0.65 0.15,0.96c0.06,0.25 0.13,0.49 0.19,0.74c0.06,0.25 0.12,0.51 0.21,0.74c0.08,0.29 0.19,0.56 0.31,0.85c0.08,0.18 0.15,0.38 0.23,0.58c0.13,0.31 0.29,0.6 0.44,0.9c0.08,0.14 0.15,0.31 0.23,0.45c0.19,0.32 0.38,0.63 0.6,0.94c0.08,0.11 0.13,0.22 0.21,0.32c0.23,0.34 0.5,0.67 0.75,0.97c0.06,0.07 0.12,0.14 0.17,0.22c0.29,0.34 0.6,0.67 0.92,0.97c0.04,0.04 0.08,0.09 0.12,0.13c0.33,0.32 0.69,0.65 1.06,0.96l0.08,0.04c1.64,1.34 3.54,2.36 5.62,3.01l0,15.11c-1.54,0.49 -3,1.17 -4.31,2.06c-0.52,0.32 -1,0.7 -1.46,1.08l-0.19,0.16c-0.4,0.34 -0.81,0.72 -1.17,1.12c-0.06,0.05 -0.12,0.11 -0.17,0.18c-0.42,0.43 -0.81,0.9 -1.15,1.37c-0.38,0.51 -0.73,1.03 -1.04,1.59c-0.02,0.02 -0.02,0.05 -0.04,0.07c-0.27,0.49 -0.52,0.97 -0.73,1.48c-0.06,0.16 -0.12,0.31 -0.17,0.47c-0.15,0.4 -0.29,0.79 -0.4,1.21c-0.06,0.18 -0.12,0.36 -0.15,0.56c-0.12,0.4 -0.19,0.81 -0.25,1.25c-0.04,0.18 -0.08,0.36 -0.1,0.54c-0.08,0.6 -0.12,1.21 -0.12,1.81l0,22.02c0,0.52 0.04,1.05 0.08,1.59c0.02,0.18 0.08,0.38 0.1,0.58c0.06,0.32 0.1,0.65 0.15,0.96c0.06,0.25 0.13,0.49 0.19,0.72c0.08,0.25 0.13,0.52 0.21,0.78c0.1,0.23 0.19,0.52 0.31,0.81c0.1,0.2 0.15,0.4 0.25,0.6c0.13,0.31 0.29,0.6 0.42,0.88c0.1,0.14 0.17,0.31 0.25,0.47c0.19,0.32 0.38,0.61 0.58,0.92c0.08,0.11 0.15,0.23 0.23,0.36c0.23,0.32 0.48,0.63 0.73,0.94c0.08,0.09 0.13,0.16 0.19,0.25c0.29,0.32 0.58,0.65 0.9,0.96c0.04,0.04 0.08,0.09 0.13,0.14c0.33,0.32 0.69,0.63 1.06,0.92l0.08,0.07c0.38,0.31 0.79,0.61 1.19,0.88l0.02,0.02c1.35,0.9 2.83,1.61 4.39,2.11l0,15.09c-1.52,0.49 -2.98,1.19 -4.31,2.06c-0.5,0.34 -0.98,0.7 -1.44,1.08l-0.19,0.16c-0.42,0.34 -0.81,0.72 -1.17,1.1c-0.06,0.07 -0.13,0.13 -0.19,0.18c-0.4,0.45 -0.79,0.9 -1.15,1.37l-0.02,0.02c-0.37,0.51 -0.71,1.03 -1.02,1.57c-0.02,0.04 -0.02,0.07 -0.04,0.11c-0.27,0.47 -0.52,0.96 -0.73,1.46c-0.06,0.14 -0.12,0.31 -0.19,0.47c-0.15,0.4 -0.29,0.79 -0.4,1.19c-0.06,0.18 -0.12,0.38 -0.15,0.58c-0.1,0.4 -0.17,0.81 -0.25,1.25c-0.02,0.16 -0.06,0.36 -0.1,0.52c-0.08,0.61 -0.12,1.21 -0.12,1.82l0,22c0,0.54 0.04,1.07 0.1,1.59c0.02,0.2 0.06,0.38 0.08,0.58c0.06,0.32 0.1,0.65 0.17,0.97c0.04,0.23 0.12,0.45 0.19,0.69c0.06,0.27 0.12,0.54 0.21,0.79c0.08,0.27 0.19,0.52 0.29,0.78c0.1,0.22 0.17,0.43 0.25,0.65c0.13,0.29 0.29,0.56 0.42,0.83c0.1,0.18 0.17,0.36 0.27,0.52c0.17,0.31 0.37,0.6 0.56,0.88c0.08,0.13 0.15,0.25 0.25,0.38c0.21,0.32 0.46,0.61 0.69,0.9c0.08,0.11 0.15,0.2 0.23,0.29c0.27,0.32 0.56,0.61 0.85,0.92c0.06,0.05 0.12,0.13 0.19,0.18c0.31,0.31 0.65,0.6 1,0.9c0.04,0.04 0.08,0.07 0.13,0.11c0.37,0.29 0.75,0.58 1.15,0.85l0.06,0.05c0.42,0.27 0.85,0.54 1.31,0.78l0.02,0.02c0.96,0.52 2,0.96 3.06,1.3l0,15.11c-1.54,0.49 -2.98,1.17 -4.31,2.04c-0.52,0.34 -1,0.7 -1.46,1.08l-0.17,0.16c-0.42,0.36 -0.83,0.74 -1.19,1.12l-0.17,0.18c-0.85,0.9 -1.58,1.91 -2.19,2.98c-0.02,0.02 -0.02,0.04 -0.04,0.07c-0.27,0.47 -0.52,0.97 -0.73,1.48c-0.06,0.14 -0.12,0.31 -0.17,0.47c-0.15,0.4 -0.29,0.79 -0.4,1.21c-0.06,0.16 -0.12,0.36 -0.15,0.56c-0.12,0.4 -0.19,0.81 -0.25,1.25c-0.04,0.16 -0.08,0.36 -0.1,0.54c-0.08,0.6 -0.12,1.19 -0.12,1.81l0,22.02c0,0.54 0.02,1.07 0.08,1.59c0.02,0.2 0.08,0.38 0.1,0.58c0.06,0.32 0.1,0.65 0.15,0.97c0.06,0.23 0.13,0.47 0.19,0.72c0.08,0.23 0.13,0.51 0.21,0.76c0.1,0.25 0.19,0.54 0.31,0.81c0.08,0.2 0.15,0.42 0.25,0.61c0.12,0.29 0.27,0.58 0.42,0.87c0.08,0.16 0.15,0.32 0.25,0.49c0.17,0.31 0.38,0.61 0.58,0.9c0.08,0.13 0.15,0.25 0.23,0.36c0.23,0.32 0.48,0.63 0.73,0.94c0.06,0.09 0.13,0.16 0.19,0.25c0.29,0.32 0.58,0.63 0.89,0.94c0.06,0.05 0.1,0.11 0.13,0.16c0.35,0.32 0.69,0.63 1.06,0.92l0.08,0.07c0.38,0.31 0.79,0.61 1.21,0.88l0.02,0.02c1.35,0.9 2.83,1.61 4.39,2.11l0,15.09c-1.54,0.49 -2.98,1.19 -4.31,2.06c-0.02,0.02 -0.02,0.04 -0.04,0.04c-0.5,0.32 -0.96,0.69 -1.42,1.05l-0.19,0.18c-0.4,0.34 -0.79,0.7 -1.15,1.08c-0.08,0.07 -0.13,0.14 -0.19,0.2c-0.4,0.43 -0.79,0.88 -1.14,1.35l-0.04,0.04c-0.37,0.51 -0.71,1.03 -1.02,1.57c-0.02,0.04 -0.02,0.07 -0.04,0.09c-0.27,0.49 -0.5,0.97 -0.71,1.48c-0.08,0.14 -0.13,0.31 -0.19,0.47c-0.15,0.38 -0.29,0.78 -0.42,1.19c-0.06,0.18 -0.1,0.38 -0.15,0.58c-0.1,0.4 -0.17,0.81 -0.25,1.23c-0.02,0.18 -0.06,0.36 -0.08,0.54c-0.08,0.61 -0.12,1.21 -0.13,1.82l0,22c0.02,0.52 0.04,1.07 0.1,1.59c0.02,0.2 0.06,0.38 0.1,0.56c0.04,0.32 0.08,0.67 0.15,0.99c0.06,0.23 0.12,0.45 0.19,0.69c0.08,0.27 0.13,0.54 0.21,0.79c0.1,0.25 0.19,0.52 0.31,0.78c0.08,0.22 0.15,0.43 0.25,0.65c0.12,0.29 0.27,0.56 0.4,0.83c0.1,0.18 0.17,0.34 0.27,0.52c0.17,0.29 0.37,0.6 0.56,0.88c0.08,0.13 0.15,0.25 0.25,0.38c0.23,0.31 0.46,0.61 0.71,0.92c0.08,0.09 0.13,0.18 0.21,0.27c0.27,0.32 0.56,0.61 0.87,0.92c0.06,0.05 0.12,0.11 0.17,0.18c0.33,0.31 0.65,0.61 1.02,0.9l0.12,0.09c0.38,0.31 0.77,0.6 1.15,0.87l0.06,0.04c0.42,0.29 0.87,0.54 1.33,0.79c0.96,0.52 2,0.97 3.06,1.3l0,15.11c-1.54,0.49 -2.98,1.17 -4.31,2.06c-0.52,0.32 -1,0.69 -1.46,1.08l-0.19,0.14c-0.4,0.36 -0.81,0.74 -1.17,1.12c-0.06,0.07 -0.13,0.13 -0.19,0.18c-0.4,0.43 -0.79,0.9 -1.15,1.37l0,0.02c-0.38,0.51 -0.71,1.03 -1.04,1.57c0,0.04 -0.02,0.05 -0.04,0.09c-0.27,0.49 -0.5,0.97 -0.71,1.48c-0.08,0.14 -0.13,0.31 -0.19,0.47c-0.15,0.4 -0.29,0.79 -0.4,1.19c-0.06,0.18 -0.12,0.38 -0.15,0.58c-0.1,0.4 -0.17,0.81 -0.25,1.23c-0.02,0.18 -0.06,0.36 -0.08,0.54c-0.08,0.61 -0.13,1.21 -0.13,1.82l0,22c0,0.52 0.04,1.07 0.1,1.59c0.02,0.2 0.06,0.38 0.08,0.58c0.06,0.32 0.1,0.65 0.17,0.96c0.04,0.25 0.12,0.49 0.19,0.72c0.06,0.25 0.12,0.52 0.21,0.78c0.08,0.25 0.19,0.54 0.31,0.81c0.08,0.2 0.15,0.42 0.23,0.61c0.13,0.29 0.29,0.58 0.44,0.87c0.08,0.16 0.15,0.32 0.25,0.47c0.17,0.32 0.38,0.63 0.58,0.92c0.08,0.13 0.13,0.25 0.23,0.36c0.21,0.32 0.46,0.63 0.71,0.96c0.08,0.07 0.13,0.16 0.19,0.23c0.29,0.32 0.58,0.65 0.89,0.96c0.06,0.04 0.1,0.09 0.15,0.14c0.33,0.32 0.67,0.63 1.04,0.92c0.04,0.04 0.06,0.05 0.1,0.07c0.38,0.32 0.79,0.61 1.19,0.88l0.04,0.02c1.33,0.9 2.81,1.62 4.39,2.11l0,15.11c-1.54,0.49 -3,1.17 -4.31,2.06c-0.52,0.32 -1,0.69 -1.46,1.08l-0.19,0.14c-0.42,0.36 -0.81,0.72 -1.17,1.12c-0.08,0.05 -0.13,0.13 -0.19,0.18c-0.4,0.43 -0.79,0.9 -1.15,1.37l0,0.02c-0.38,0.51 -0.73,1.03 -1.04,1.57c0,0.02 -0.02,0.05 -0.04,0.09c-0.27,0.47 -0.5,0.97 -0.71,1.48c-0.08,0.14 -0.13,0.31 -0.19,0.45c-0.15,0.4 -0.29,0.79 -0.4,1.21c-0.06,0.18 -0.12,0.38 -0.15,0.56c-0.12,0.42 -0.19,0.83 -0.25,1.25c-0.04,0.18 -0.08,0.36 -0.1,0.54c-0.08,0.61 -0.12,1.21 -0.12,1.82l0,22c0,0.52 0.04,1.07 0.1,1.59c0.02,0.2 0.06,0.38 0.08,0.58c0.06,0.32 0.1,0.65 0.15,0.97c0.06,0.23 0.13,0.47 0.19,0.72c0.08,0.23 0.13,0.51 0.21,0.76c0.1,0.25 0.21,0.54 0.31,0.81c0.1,0.2 0.15,0.42 0.25,0.61c0.13,0.29 0.29,0.58 0.42,0.87c0.1,0.16 0.17,0.32 0.25,0.47c0.19,0.32 0.38,0.63 0.58,0.92c0.08,0.13 0.15,0.25 0.23,0.36c0.23,0.32 0.48,0.65 0.73,0.96c0.08,0.07 0.13,0.16 0.19,0.23c0.29,0.32 0.58,0.65 0.89,0.96c0.06,0.04 0.1,0.09 0.15,0.14c0.33,0.32 0.67,0.63 1.04,0.92c0.04,0.04 0.06,0.05 0.1,0.07c0.38,0.32 0.77,0.61 1.19,0.88l0.02,0.02c1.35,0.9 2.83,1.62 4.41,2.11l0,14.03c-9.12,1.7 -13.01,9.69 -9.01,25.65c4.06,16.14 20.04,16.39 19.36,32.24c-0.04,2.26 -0.73,4.44 -2,6.35c-1.27,1.91 -3.06,3.48 -5.2,4.51c-2.12,1.05 -4.5,1.53 -6.91,1.41c-2.41,-0.13 -4.72,-0.85 -6.72,-2.09c-9.01,-6.3 -2.14,-11.82 -7.08,-13.16c-4.95,-1.34 -10.32,8.97 -7.06,17.71c6.16,16.5 24.89,20.67 39.56,16.64c16,-4.39 23.95,-19.3 20.06,-34.5l1.83,-11.73zm-36.84,-105.74c0,-1.66 0.65,-3.25 1.83,-4.48l0,4.17c0,0.6 0.12,1.17 0.37,1.73c0.25,0.54 0.6,1.05 1.04,1.46c0.46,0.42 0.98,0.76 1.58,0.97c0.58,0.23 1.21,0.34 1.85,0.34c0.35,0 0.67,-0.04 1.02,-0.11c0.06,0 0.12,-0.04 0.17,-0.04c0.27,-0.07 0.54,-0.16 0.79,-0.27c0.04,0 0.08,-0.02 0.1,-0.04c0.29,-0.13 0.56,-0.29 0.79,-0.45c0.27,-0.2 0.52,-0.42 0.73,-0.65c0.77,-0.81 1.21,-1.86 1.21,-2.96l0,-5.09c0.89,0.63 1.62,1.44 2.12,2.38c0.52,0.94 0.77,1.97 0.77,3.01l0,22c0,1.05 -0.25,2.09 -0.77,3.03c-0.5,0.92 -1.23,1.75 -2.12,2.36l0,-5.25c0,-0.6 -0.13,-1.19 -0.37,-1.73c-0.25,-0.56 -0.6,-1.05 -1.06,-1.48c-0.44,-0.42 -0.96,-0.74 -1.56,-0.97c-0.58,-0.22 -1.21,-0.34 -1.85,-0.34c-0.19,0 -0.38,0.02 -0.58,0.05c-0.29,0.04 -0.58,0.09 -0.87,0.18c-0.25,0.07 -0.52,0.18 -0.77,0.31l-0.04,0.02c-0.23,0.13 -0.44,0.25 -0.65,0.4c-0.04,0.04 -0.08,0.05 -0.12,0.09c-0.17,0.13 -0.35,0.29 -0.5,0.43c-0.06,0.07 -0.12,0.13 -0.15,0.18c-0.13,0.14 -0.25,0.31 -0.37,0.45c-0.08,0.11 -0.12,0.22 -0.17,0.32c-0.1,0.13 -0.15,0.27 -0.23,0.42c-0.06,0.14 -0.12,0.31 -0.15,0.47c-0.04,0.11 -0.08,0.22 -0.1,0.32c-0.08,0.29 -0.1,0.6 -0.1,0.88l0,4.35c-1.19,-1.23 -1.85,-2.83 -1.85,-4.49l0,-22zm0,-67.02c0,-1.66 0.65,-3.25 1.83,-4.48l0,4.17c0,1.21 0.5,2.35 1.41,3.2c0.9,0.85 2.14,1.34 3.43,1.34c0.35,0 0.67,-0.04 1.02,-0.11c0.06,-0.02 0.12,-0.04 0.17,-0.05c0.27,-0.07 0.54,-0.16 0.79,-0.25c0.04,-0.02 0.08,-0.04 0.1,-0.05c0.29,-0.13 0.54,-0.29 0.79,-0.45c0.27,-0.2 0.52,-0.4 0.73,-0.63c0.77,-0.83 1.19,-1.88 1.21,-2.96l0,-5.09c0.89,0.61 1.62,1.43 2.12,2.36c0.52,0.94 0.77,1.99 0.77,3.03l0,22c0,1.05 -0.27,2.08 -0.77,3.01c-0.5,0.94 -1.23,1.75 -2.12,2.38l0,-5.09c0,-0.6 -0.13,-1.17 -0.37,-1.73c-0.25,-0.54 -0.6,-1.05 -1.06,-1.46c-0.44,-0.43 -0.98,-0.76 -1.56,-0.99c-0.58,-0.22 -1.21,-0.34 -1.85,-0.32c-0.19,0 -0.38,0.02 -0.58,0.04c-0.29,0.04 -0.58,0.11 -0.87,0.2c-0.25,0.07 -0.52,0.18 -0.77,0.29l-0.04,0.04c-0.23,0.11 -0.44,0.23 -0.65,0.4c-0.04,0.02 -0.08,0.05 -0.12,0.07c-0.17,0.14 -0.35,0.29 -0.5,0.45c-0.06,0.05 -0.12,0.13 -0.15,0.18c-0.13,0.14 -0.25,0.29 -0.37,0.45c-0.08,0.09 -0.12,0.2 -0.17,0.31c-0.1,0.13 -0.15,0.27 -0.23,0.42c-0.06,0.16 -0.12,0.32 -0.15,0.49c-0.04,0.11 -0.08,0.2 -0.1,0.32c-0.08,0.29 -0.1,0.58 -0.1,0.87l0,4.17c-1.19,-1.23 -1.85,-2.82 -1.85,-4.48l0,-22.02zm0,-67.02c0,-1.66 0.65,-3.25 1.83,-4.49l0,4.19c0,0.6 0.12,1.17 0.37,1.73c0.25,0.54 0.6,1.05 1.04,1.46c0.46,0.42 0.98,0.76 1.58,0.97c0.58,0.23 1.21,0.34 1.85,0.34c0.35,0 0.67,-0.04 1.02,-0.11c0.06,-0.02 0.12,-0.04 0.19,-0.05c0.27,-0.05 0.54,-0.14 0.79,-0.25c0.04,-0.02 0.06,-0.04 0.1,-0.05c0.27,-0.13 0.54,-0.27 0.79,-0.45c0.27,-0.18 0.5,-0.4 0.73,-0.63c0.77,-0.81 1.19,-1.86 1.19,-2.96l0,-5.09c0.9,0.63 1.64,1.44 2.14,2.38c0.5,0.94 0.77,1.97 0.77,3.01l0,22.02c0,1.05 -0.27,2.08 -0.77,3.01c-0.5,0.94 -1.23,1.75 -2.14,2.36l0,-5.09c0,-0.6 -0.12,-1.17 -0.37,-1.73c-0.23,-0.54 -0.6,-1.05 -1.04,-1.46c-0.44,-0.42 -0.98,-0.76 -1.56,-0.97c-0.6,-0.23 -1.21,-0.34 -1.85,-0.34c-0.19,0 -0.38,0.02 -0.58,0.05c-0.31,0.04 -0.6,0.09 -0.87,0.18c-0.27,0.07 -0.52,0.18 -0.77,0.29l-0.04,0.04c-0.23,0.11 -0.46,0.25 -0.67,0.4c-0.02,0.02 -0.06,0.05 -0.1,0.07c-0.17,0.14 -0.35,0.29 -0.52,0.45c-0.04,0.05 -0.1,0.11 -0.13,0.18c-0.13,0.14 -0.27,0.29 -0.37,0.45c-0.08,0.09 -0.13,0.2 -0.17,0.31c-0.1,0.13 -0.17,0.27 -0.23,0.42c-0.06,0.16 -0.12,0.31 -0.15,0.47c-0.04,0.11 -0.08,0.22 -0.12,0.34c-0.06,0.29 -0.1,0.58 -0.1,0.87l0,4.19c-1.17,-1.25 -1.83,-2.83 -1.83,-4.49l-0.02,-22zm0,-67.02c0,-1.66 0.65,-3.25 1.83,-4.49l0,4.19c0,1.19 0.5,2.35 1.41,3.2c0.9,0.85 2.14,1.32 3.43,1.32c0.35,0 0.67,-0.04 1.02,-0.11c0.06,0 0.12,-0.04 0.17,-0.05c0.27,-0.05 0.54,-0.14 0.79,-0.25l0.1,-0.04c0.29,-0.13 0.54,-0.29 0.79,-0.45c0.27,-0.2 0.52,-0.42 0.73,-0.65c0.77,-0.81 1.19,-1.86 1.19,-2.96l0,-5.09c0.9,0.63 1.64,1.44 2.14,2.38c0.5,0.94 0.77,1.97 0.77,3.01l0,22c0,1.05 -0.27,2.08 -0.77,3.01c-0.5,0.94 -1.23,1.75 -2.14,2.38l0,-5.09c0.02,-0.6 -0.12,-1.17 -0.35,-1.73c-0.25,-0.54 -0.6,-1.05 -1.06,-1.46c-0.44,-0.43 -0.98,-0.76 -1.56,-0.99c-0.58,-0.22 -1.21,-0.34 -1.85,-0.32c-0.79,0 -1.56,0.18 -2.23,0.54l-0.04,0c-0.23,0.13 -0.46,0.25 -0.67,0.42c-0.02,0.02 -0.06,0.04 -0.08,0.07c-0.19,0.14 -0.37,0.29 -0.54,0.45c-0.04,0.05 -0.1,0.11 -0.13,0.16c-0.13,0.14 -0.27,0.31 -0.37,0.47c-0.08,0.09 -0.13,0.2 -0.19,0.31c-0.08,0.13 -0.15,0.27 -0.21,0.42c-0.06,0.16 -0.12,0.31 -0.15,0.49c-0.04,0.11 -0.1,0.22 -0.12,0.32c-0.06,0.29 -0.1,0.58 -0.1,0.87l0,4.19c-1.17,-1.25 -1.83,-2.83 -1.83,-4.49l0.02,-22zm0,-67.02c0,-1.66 0.65,-3.25 1.83,-4.49l0,4.17c0,0.6 0.12,1.19 0.37,1.73c0.25,0.54 0.6,1.05 1.04,1.46c0.46,0.43 0.98,0.76 1.58,0.99c0.58,0.22 1.21,0.34 1.85,0.34c0.35,0 0.67,-0.04 1.02,-0.11c0.06,-0.02 0.12,-0.04 0.17,-0.05c0.27,-0.07 0.54,-0.16 0.79,-0.27c0.04,0 0.08,-0.02 0.1,-0.04c0.29,-0.13 0.56,-0.29 0.79,-0.45l0.02,0c0.27,-0.2 0.5,-0.42 0.73,-0.65c0.77,-0.81 1.19,-1.86 1.19,-2.94l0,-5.09c0.9,0.61 1.64,1.44 2.14,2.36c0.5,0.94 0.77,1.99 0.77,3.03l0,22c0,1.05 -0.27,2.08 -0.77,3.01c-0.5,0.94 -1.23,1.75 -2.14,2.38l0,-5.09c0,-0.6 -0.12,-1.17 -0.37,-1.73c-0.25,-0.54 -0.6,-1.05 -1.04,-1.46c-0.46,-0.43 -0.98,-0.76 -1.58,-0.99c-0.58,-0.22 -1.21,-0.34 -1.83,-0.34c-0.19,0.02 -0.38,0.04 -0.58,0.07c-0.31,0.02 -0.58,0.09 -0.87,0.16l-0.02,0c-0.25,0.09 -0.52,0.18 -0.77,0.31l-0.04,0.04c-0.23,0.11 -0.46,0.23 -0.65,0.4c-0.04,0.02 -0.08,0.05 -0.12,0.07c-0.17,0.14 -0.35,0.29 -0.5,0.45c-0.06,0.05 -0.12,0.13 -0.17,0.18c-0.12,0.14 -0.25,0.29 -0.35,0.45c-0.08,0.09 -0.13,0.2 -0.19,0.31c-0.08,0.13 -0.15,0.27 -0.21,0.42c-0.06,0.16 -0.12,0.32 -0.15,0.49c-0.04,0.11 -0.08,0.22 -0.12,0.32c-0.06,0.29 -0.08,0.58 -0.08,0.87l0,4.17c-1.19,-1.23 -1.85,-2.82 -1.85,-4.48l0,-22zm0,-67.02c0,-1.66 0.65,-3.27 1.83,-4.49l0,4.17c0,1.21 0.5,2.36 1.41,3.2c0.9,0.87 2.14,1.34 3.43,1.34c0.35,0 0.67,-0.04 1.02,-0.11c0.06,-0.02 0.12,-0.04 0.19,-0.05c0.27,-0.05 0.54,-0.14 0.79,-0.25c0.04,-0.02 0.06,-0.04 0.1,-0.05c0.27,-0.13 0.54,-0.27 0.79,-0.45l0.02,0c0.25,-0.2 0.5,-0.4 0.71,-0.63c0.77,-0.83 1.19,-1.88 1.19,-2.96l0,-5.09c0.9,0.61 1.64,1.43 2.14,2.36c0.5,0.94 0.77,1.99 0.77,3.03l0,22c0,1.05 -0.27,2.08 -0.77,3.01c-0.5,0.94 -1.23,1.75 -2.14,2.38l0,-5.09c0,-0.6 -0.12,-1.17 -0.37,-1.73c-0.23,-0.54 -0.6,-1.05 -1.04,-1.46c-0.44,-0.43 -0.98,-0.76 -1.56,-0.99c-0.6,-0.22 -1.21,-0.34 -1.85,-0.32c-0.19,0 -0.38,0.02 -0.58,0.05c-0.29,0.04 -0.58,0.09 -0.87,0.18c-0.27,0.07 -0.52,0.18 -0.77,0.29l-0.04,0.04c-0.23,0.11 -0.46,0.23 -0.65,0.4c-0.04,0.02 -0.08,0.05 -0.12,0.07c-0.17,0.14 -0.35,0.29 -0.5,0.45c-0.06,0.05 -0.12,0.13 -0.17,0.18c-0.12,0.14 -0.25,0.29 -0.35,0.45c-0.08,0.11 -0.13,0.2 -0.19,0.31c-0.08,0.14 -0.15,0.27 -0.21,0.42c-0.06,0.16 -0.12,0.32 -0.15,0.49c-0.04,0.11 -0.08,0.22 -0.12,0.32c-0.06,0.29 -0.08,0.58 -0.1,0.87l0,4.19c-1.17,-1.23 -1.83,-2.83 -1.83,-4.49l-0.02,-22zm0,-67.04c0,-1.64 0.65,-3.25 1.83,-4.48l0,4.17c0,1.21 0.5,2.36 1.41,3.2c0.9,0.87 2.14,1.34 3.43,1.34c0.35,0 0.67,-0.04 1.02,-0.11c0.06,-0.02 0.12,-0.04 0.19,-0.05c0.27,-0.07 0.54,-0.14 0.79,-0.25c0.04,-0.02 0.06,-0.04 0.1,-0.05c0.27,-0.13 0.54,-0.27 0.79,-0.45l0,-0.02c0.27,-0.18 0.52,-0.4 0.73,-0.63c0.77,-0.81 1.19,-1.86 1.19,-2.96l0,-5.07c0.9,0.61 1.64,1.43 2.14,2.36c0.5,0.94 0.77,1.97 0.77,3.01l0,22.02c0,1.05 -0.27,2.08 -0.77,3.01c-0.5,0.94 -1.23,1.75 -2.14,2.38l0,-5.09c0,-0.6 -0.12,-1.19 -0.37,-1.73c-0.23,-0.56 -0.6,-1.05 -1.04,-1.46c-0.44,-0.43 -0.98,-0.76 -1.56,-0.99c-0.6,-0.22 -1.21,-0.34 -1.85,-0.34c-0.19,0.02 -0.38,0.04 -0.58,0.05c-0.29,0.04 -0.58,0.11 -0.87,0.18c-0.27,0.09 -0.52,0.18 -0.77,0.31l-0.04,0.04c-0.23,0.11 -0.46,0.23 -0.65,0.4l-0.12,0.07c-0.17,0.14 -0.35,0.29 -0.52,0.45c-0.04,0.05 -0.1,0.11 -0.15,0.18c-0.12,0.14 -0.25,0.29 -0.35,0.45c-0.08,0.09 -0.13,0.2 -0.19,0.31c-0.08,0.14 -0.15,0.27 -0.21,0.42c-0.06,0.16 -0.12,0.32 -0.15,0.49c-0.04,0.11 -0.1,0.22 -0.12,0.32c-0.06,0.29 -0.1,0.58 -0.1,0.87l0,4.19c-1.17,-1.25 -1.83,-2.83 -1.83,-4.49l-0.02,-22.02zm0,-67.02c0,-1.64 0.65,-3.25 1.83,-4.48l0,4.17c0,1.21 0.5,2.35 1.41,3.2c0.9,0.85 2.14,1.34 3.43,1.34c0.35,0 0.67,-0.04 1.02,-0.11c0.06,-0.02 0.12,-0.04 0.17,-0.05c0.27,-0.07 0.54,-0.16 0.79,-0.25c0.04,-0.02 0.08,-0.04 0.1,-0.05c0.29,-0.13 0.54,-0.27 0.79,-0.45l0.02,-0.02c0.27,-0.18 0.5,-0.4 0.71,-0.63c0.77,-0.81 1.21,-1.86 1.21,-2.96l0,-5.07c0.89,0.61 1.62,1.43 2.14,2.36c0.5,0.94 0.75,1.97 0.75,3.01l0,22.02c0,1.05 -0.25,2.08 -0.75,3.01c-0.52,0.94 -1.25,1.75 -2.14,2.38l0,-5.09c0,-0.6 -0.13,-1.19 -0.37,-1.73c-0.25,-0.54 -0.6,-1.05 -1.06,-1.46c-0.44,-0.43 -0.96,-0.76 -1.56,-0.99c-0.58,-0.22 -1.21,-0.34 -1.85,-0.34c-0.77,0 -1.54,0.2 -2.23,0.54l-0.02,0.02c-0.25,0.11 -0.46,0.25 -0.67,0.4c-0.04,0.04 -0.08,0.05 -0.1,0.07c-0.19,0.14 -0.37,0.31 -0.52,0.47c-0.06,0.05 -0.1,0.11 -0.15,0.16c-0.13,0.14 -0.25,0.29 -0.37,0.45c-0.08,0.11 -0.12,0.22 -0.17,0.31c-0.1,0.14 -0.15,0.29 -0.23,0.42c-0.06,0.16 -0.12,0.32 -0.15,0.49c-0.04,0.11 -0.08,0.22 -0.12,0.32c-0.06,0.29 -0.08,0.6 -0.08,0.88l0,4.17c-1.19,-1.23 -1.85,-2.83 -1.85,-4.48l0.02,-22.02zm0,-67.02c0,-1.64 0.65,-3.25 1.83,-4.48l0,4.17c0,1.21 0.5,2.35 1.41,3.2c0.9,0.85 2.14,1.34 3.43,1.34c0.35,0 0.67,-0.04 1.02,-0.11c0.06,-0.02 0.12,-0.04 0.19,-0.05c0.27,-0.07 0.54,-0.14 0.79,-0.25c0.04,-0.02 0.06,-0.04 0.1,-0.05c0.27,-0.13 0.54,-0.27 0.79,-0.45c0.6,-0.42 1.08,-0.97 1.42,-1.59c0.33,-0.63 0.5,-1.32 0.5,-2.02l0,-5.09c0.9,0.63 1.62,1.44 2.14,2.38c0.5,0.94 0.75,1.97 0.75,3.01l0,22c0,1.05 -0.25,2.09 -0.75,3.03c-0.52,0.94 -1.23,1.75 -2.14,2.36l0,-5.09c0,-0.58 -0.12,-1.17 -0.37,-1.71c-0.25,-0.56 -0.6,-1.07 -1.04,-1.48c-0.46,-0.42 -0.98,-0.74 -1.58,-0.97c-0.58,-0.23 -1.21,-0.34 -1.85,-0.34c-0.19,0 -0.38,0.02 -0.58,0.05c-0.29,0.04 -0.58,0.09 -0.85,0.18c-0.27,0.09 -0.54,0.18 -0.77,0.31l-0.06,0.02c-0.23,0.13 -0.44,0.25 -0.65,0.4c-0.04,0.04 -0.08,0.05 -0.12,0.09c-0.17,0.13 -0.35,0.29 -0.5,0.43c-0.06,0.07 -0.12,0.13 -0.15,0.18c-0.13,0.14 -0.25,0.31 -0.37,0.45c-0.08,0.11 -0.12,0.22 -0.17,0.32c-0.1,0.13 -0.15,0.27 -0.23,0.4c-0.06,0.16 -0.12,0.32 -0.15,0.49c-0.04,0.11 -0.08,0.22 -0.1,0.32c-0.08,0.29 -0.1,0.58 -0.1,0.88l0,4.17c-1.19,-1.23 -1.85,-2.83 -1.85,-4.48l0,-22.02zm0,-67.02c0,-1.66 0.65,-3.25 1.83,-4.48l0,4.17c0,1.19 0.5,2.35 1.41,3.2c0.9,0.85 2.14,1.34 3.43,1.34c0.35,-0.02 0.67,-0.05 1.02,-0.11c0.06,-0.02 0.12,-0.05 0.19,-0.05c0.27,-0.07 0.54,-0.16 0.79,-0.27c0.04,0 0.06,-0.02 0.1,-0.04c0.27,-0.13 0.54,-0.27 0.79,-0.45l0,-0.02c0.27,-0.18 0.52,-0.4 0.73,-0.63c0.77,-0.81 1.19,-1.88 1.19,-2.96l0,-5.09c0.9,0.63 1.64,1.44 2.14,2.38c0.5,0.94 0.77,1.97 0.77,3.01l0,22c0,1.05 -0.27,2.09 -0.77,3.03c-0.5,0.94 -1.23,1.75 -2.14,2.36l0,-5.07c0.02,-0.6 -0.12,-1.19 -0.35,-1.73c-0.25,-0.56 -0.6,-1.05 -1.06,-1.48c-0.44,-0.42 -0.98,-0.74 -1.56,-0.97c-0.58,-0.23 -1.21,-0.34 -1.85,-0.34c-0.19,0 -0.38,0.02 -0.58,0.05c-0.29,0.04 -0.58,0.09 -0.87,0.18c-0.27,0.07 -0.52,0.18 -0.77,0.31l-0.06,0.02c-0.23,0.13 -0.44,0.25 -0.65,0.4c-0.04,0.04 -0.06,0.05 -0.1,0.09c-0.19,0.13 -0.37,0.29 -0.52,0.45c-0.06,0.05 -0.1,0.11 -0.15,0.16c-0.13,0.14 -0.25,0.31 -0.37,0.47c-0.06,0.09 -0.12,0.2 -0.17,0.29c-0.08,0.14 -0.15,0.29 -0.23,0.43c-0.06,0.14 -0.1,0.31 -0.15,0.47c-0.02,0.11 -0.08,0.22 -0.1,0.32c-0.06,0.29 -0.1,0.6 -0.1,0.88l0,4.17c-1.17,-1.23 -1.83,-2.83 -1.83,-4.48l-0.02,-22.02zm0,-67.02c0,-1.66 0.65,-3.25 1.83,-4.48l0,4.17c0,1.19 0.5,2.35 1.41,3.2c0.9,0.85 2.14,1.32 3.43,1.32c0.35,0 0.67,-0.04 1.02,-0.11c0.06,0 0.12,-0.04 0.19,-0.04c0.27,-0.07 0.54,-0.16 0.79,-0.27c0.04,-0.02 0.06,-0.04 0.1,-0.04c0.27,-0.13 0.54,-0.29 0.79,-0.45c0.6,-0.43 1.08,-0.97 1.41,-1.59c0.35,-0.63 0.52,-1.32 0.52,-2.02l0,-5.09c0.9,0.63 1.62,1.44 2.14,2.38c0.5,0.94 0.75,1.97 0.75,3.01l0,22c0,1.05 -0.25,2.09 -0.75,3.03c-0.52,0.92 -1.23,1.75 -2.14,2.36l0,-5.09c0,-0.6 -0.12,-1.17 -0.37,-1.73c-0.25,-0.54 -0.6,-1.05 -1.04,-1.46c-0.46,-0.42 -0.98,-0.76 -1.58,-0.97c-0.58,-0.23 -1.21,-0.34 -1.85,-0.34c-0.19,0 -0.38,0.02 -0.58,0.05c-0.29,0.04 -0.58,0.09 -0.87,0.18c-0.27,0.07 -0.52,0.18 -0.77,0.31l-0.04,0.02c-0.23,0.11 -0.46,0.25 -0.67,0.4c-0.02,0.02 -0.06,0.05 -0.1,0.07c-0.17,0.14 -0.35,0.29 -0.52,0.45c-0.06,0.05 -0.1,0.13 -0.15,0.18c-0.12,0.14 -0.25,0.29 -0.37,0.45c-0.06,0.11 -0.12,0.2 -0.17,0.31c-0.08,0.14 -0.15,0.27 -0.21,0.42c-0.08,0.16 -0.12,0.32 -0.17,0.47c-0.02,0.13 -0.08,0.23 -0.1,0.34c-0.06,0.29 -0.1,0.58 -0.1,0.88l0,4.17c-1.17,-1.23 -1.83,-2.83 -1.83,-4.49l0,-22zm0,-67.02c0,-1.66 0.65,-3.25 1.83,-4.48l0,4.17c0,1.19 0.5,2.35 1.41,3.2c0.9,0.85 2.14,1.32 3.43,1.32c0.35,0 0.67,-0.04 1.02,-0.11c0.06,-0.02 0.12,-0.04 0.19,-0.05c0.27,-0.05 0.54,-0.14 0.79,-0.25c0.02,-0.02 0.06,-0.04 0.1,-0.05c0.27,-0.13 0.54,-0.27 0.79,-0.43l0,0c0.27,-0.2 0.52,-0.42 0.73,-0.65c0.77,-0.81 1.19,-1.86 1.19,-2.96l0,-5.09c0.9,0.63 1.64,1.44 2.14,2.38c0.5,0.94 0.77,1.97 0.77,3.01l0,22c0,1.07 -0.27,2.09 -0.77,3.03c-0.5,0.94 -1.23,1.75 -2.14,2.36l0,-5.07c0,-0.6 -0.12,-1.19 -0.37,-1.73c-0.23,-0.56 -0.6,-1.05 -1.04,-1.48c-0.44,-0.42 -0.98,-0.74 -1.56,-0.97c-0.6,-0.22 -1.21,-0.34 -1.85,-0.34c-0.19,0.02 -0.38,0.04 -0.58,0.05c-0.29,0.04 -0.58,0.09 -0.87,0.18c-0.27,0.09 -0.52,0.18 -0.77,0.31l-0.04,0.02c-0.23,0.13 -0.46,0.25 -0.67,0.4c-0.02,0.04 -0.06,0.05 -0.1,0.09c-0.17,0.13 -0.35,0.29 -0.52,0.45c-0.04,0.05 -0.1,0.11 -0.13,0.18c-0.13,0.14 -0.27,0.29 -0.37,0.45c-0.08,0.09 -0.12,0.2 -0.17,0.31c-0.1,0.13 -0.17,0.27 -0.23,0.42c-0.06,0.16 -0.12,0.32 -0.15,0.47c-0.04,0.11 -0.08,0.22 -0.12,0.34c-0.06,0.29 -0.08,0.58 -0.1,0.87l0,4.19c-1.17,-1.25 -1.83,-2.83 -1.83,-4.49l-0.02,-22.02zm0,-67.02c0,-1.66 0.65,-3.25 1.83,-4.48l0,4.17c0,1.19 0.5,2.35 1.41,3.2c0.9,0.85 2.14,1.32 3.43,1.32c0.35,0 0.67,-0.04 1.02,-0.11c0.06,0 0.12,-0.04 0.19,-0.05c0.27,-0.05 0.54,-0.14 0.79,-0.25c0.04,-0.02 0.06,-0.04 0.1,-0.05c0.27,-0.11 0.54,-0.27 0.79,-0.43l0,-0.02c0.27,-0.18 0.52,-0.4 0.73,-0.63c0.77,-0.81 1.19,-1.88 1.19,-2.96l0,-5.09c0.9,0.63 1.64,1.44 2.14,2.38c0.5,0.94 0.77,1.97 0.77,3.01l0,22c0,1.05 -0.27,2.09 -0.77,3.03c-0.5,0.92 -1.23,1.75 -2.14,2.36l0,-5.09c0.02,-0.58 -0.12,-1.17 -0.37,-1.73c-0.23,-0.54 -0.6,-1.05 -1.04,-1.46c-0.44,-0.42 -0.98,-0.74 -1.56,-0.97c-0.6,-0.23 -1.21,-0.34 -1.85,-0.34c-0.19,0 -0.38,0.02 -0.58,0.05l-0.02,0c-0.29,0.04 -0.56,0.09 -0.83,0.16l-0.04,0.02c-0.25,0.07 -0.52,0.18 -0.75,0.29l-0.08,0.04c-0.21,0.11 -0.42,0.25 -0.64,0.4c-0.04,0.02 -0.08,0.05 -0.12,0.09c-0.17,0.13 -0.35,0.27 -0.5,0.43c-0.06,0.05 -0.12,0.13 -0.17,0.2c-0.12,0.13 -0.23,0.27 -0.35,0.43c-0.08,0.11 -0.13,0.22 -0.19,0.32c-0.08,0.13 -0.15,0.25 -0.21,0.4c-0.06,0.16 -0.12,0.32 -0.17,0.49c-0.02,0.11 -0.06,0.22 -0.1,0.32c-0.06,0.29 -0.08,0.58 -0.1,0.88l0,4.15c-1.17,-1.23 -1.83,-2.83 -1.83,-4.48l0,-22zm0,-67.02c0,-1.66 0.65,-3.25 1.83,-4.49l0,4.19c0,0.6 0.12,1.17 0.37,1.73c0.25,0.54 0.6,1.05 1.04,1.46c0.46,0.42 0.98,0.76 1.58,0.97c0.58,0.23 1.21,0.34 1.85,0.34c0.35,0 0.67,-0.04 1.02,-0.11c0.06,0 0.12,-0.04 0.17,-0.05c0.29,-0.05 0.54,-0.14 0.81,-0.25c0.02,-0.02 0.06,-0.04 0.1,-0.05c0.27,-0.13 0.54,-0.27 0.79,-0.43l0,0c0.27,-0.2 0.52,-0.42 0.73,-0.65c0.77,-0.81 1.19,-1.86 1.19,-2.96l0,-5.09c0.9,0.63 1.64,1.44 2.14,2.38c0.5,0.94 0.77,1.97 0.77,3.01l0,22c0,1.07 -0.27,2.09 -0.77,3.03c-0.5,0.94 -1.23,1.75 -2.14,2.36l0,-5.07c0,-0.6 -0.12,-1.19 -0.37,-1.73c-0.23,-0.56 -0.6,-1.05 -1.04,-1.48c-0.44,-0.42 -0.98,-0.74 -1.56,-0.97c-0.6,-0.23 -1.21,-0.34 -1.85,-0.34c-0.19,0 -0.38,0.02 -0.58,0.05c-0.29,0.04 -0.58,0.09 -0.87,0.18c-0.27,0.07 -0.52,0.18 -0.77,0.31l-0.06,0.02c-0.21,0.13 -0.44,0.25 -0.65,0.4c-0.02,0.02 -0.06,0.05 -0.1,0.09c-0.17,0.13 -0.35,0.27 -0.52,0.43c-0.04,0.07 -0.1,0.13 -0.15,0.18c-0.12,0.14 -0.25,0.31 -0.35,0.45c-0.08,0.11 -0.13,0.22 -0.19,0.31c-0.08,0.14 -0.15,0.27 -0.21,0.42c-0.06,0.16 -0.12,0.32 -0.15,0.49c-0.04,0.11 -0.1,0.22 -0.12,0.32c-0.06,0.29 -0.1,0.6 -0.1,0.88l0,4.17c-1.17,-1.23 -1.83,-2.83 -1.83,-4.48l-0.02,-22.02z" fill="#180919" id="svg_1"/>
    </g>
</svg>