<svg xmlns="http://www.w3.org/2000/svg" width="1920" height="1080" viewBox="0 0 1920 1080" fill="none">
    <g style="mix-blend-mode:multiply" opacity="0.44">
        <path d="M1446.22 858.547C1447.03 857.885 1447.93 857.32 1448.75 856.655C1450.82 854.967 1452.94 853.355 1455.05 851.655C1456.73 850.281 1458.79 848.931 1459.79 846.892C1462.03 842.283 1455.39 836.592 1452.39 834.002C1449.99 831.956 1448.24 831.102 1444.91 831.567C1442.89 831.825 1439.51 833.277 1438.61 835.295C1438.28 834.206 1439.98 832.505 1440.71 831.818C1441.98 830.825 1443.4 830.051 1444.93 829.527C1448.92 827.967 1452.97 829.062 1456.65 830.892C1462.19 833.606 1466.9 837.136 1472.48 839.822C1472.73 839.947 1473.01 840.051 1473.28 840.18C1474.34 839.88 1475.5 839.427 1476.29 839.123C1478.33 838.295 1480.32 837.429 1482.32 836.566C1488.53 833.93 1495.14 832.337 1501.87 831.85C1506.21 831.467 1510.1 830.987 1514.47 831.718C1516.43 832.044 1518.41 832.218 1520.37 832.433C1521.32 832.555 1523.95 832.499 1524.5 833.465C1526.79 833.632 1529.06 834.022 1531.28 834.629C1536.13 835.966 1540.38 838.729 1544.26 841.843C1548.13 844.957 1552.12 848.093 1555.06 852.123C1555.55 852.757 1556.15 853.303 1556.06 854.147C1555.98 854.938 1555.26 855.195 1555.05 855.825C1554.86 856.337 1555.22 856.839 1554.86 857.504C1554.31 858.504 1552.94 859.063 1552.07 859.75C1548.71 862.375 1544.74 864.105 1540.53 864.777C1535.14 865.666 1529.69 866.068 1524.23 865.977C1521.72 866.106 1519.19 866.049 1516.68 865.805C1514.05 865.405 1511.45 864.694 1508.87 864.255C1506.75 863.883 1504.65 863.368 1502.6 862.711C1502.46 862.764 1502.29 862.818 1502.13 862.862C1499.56 863.492 1496.94 863.863 1494.31 863.97C1491.13 864.095 1487.95 863.985 1484.79 863.64C1481.81 863.409 1478.87 862.809 1476.04 861.852C1475.38 861.582 1473.04 860.823 1473.51 859.734C1473.95 858.68 1476.03 859.696 1476.79 859.492C1478.49 859.028 1477.27 858.51 1477.25 857.336C1477.28 856.898 1477.43 856.477 1477.68 856.116C1477.93 855.755 1478.27 855.468 1478.67 855.284C1479.21 854.959 1479.81 854.74 1480.44 854.638C1476.02 853.445 1471.35 853.524 1466.98 854.864C1461.51 856.722 1456.89 860.515 1451.01 861.256C1447.65 861.673 1444.03 862.342 1440.69 862.056C1442.62 861.022 1444.46 859.849 1446.22 858.547ZM1353.3 816.254C1356.63 816.546 1360.25 815.88 1363.6 815.46C1369.5 814.726 1374.11 810.926 1379.58 809.072C1383.96 807.727 1388.62 807.649 1393.04 808.846C1392.42 808.947 1391.82 809.164 1391.27 809.486C1390.87 809.672 1390.53 809.96 1390.28 810.321C1390.03 810.682 1389.88 811.103 1389.85 811.541C1389.87 812.711 1391.1 813.235 1389.39 813.7C1388.63 813.9 1386.55 812.887 1386.11 813.942C1385.64 815.028 1387.98 815.79 1388.64 816.057C1391.47 817.017 1394.41 817.618 1397.39 817.846C1400.55 818.191 1403.73 818.302 1406.91 818.179C1409.55 818.069 1412.17 817.698 1414.73 817.072C1414.89 817.028 1415.06 816.972 1415.2 816.921C1417.26 817.578 1419.35 818.092 1421.47 818.459C1424.06 818.902 1426.65 819.62 1429.28 820.012C1431.79 820.257 1434.32 820.315 1436.84 820.184C1442.29 820.275 1447.74 819.873 1453.13 818.984C1457.34 818.31 1461.31 816.58 1464.67 813.957C1465.54 813.273 1466.91 812.714 1467.46 811.704C1467.82 811.042 1467.46 810.546 1467.65 810.032C1467.87 809.401 1468.59 809.138 1468.66 808.35C1468.76 807.509 1468.15 806.957 1467.66 806.323C1464.72 802.297 1460.74 799.15 1456.87 796.05C1452.98 792.937 1448.73 790.17 1443.89 788.836C1441.67 788.228 1439.39 787.837 1437.1 787.669C1436.56 786.702 1433.92 786.762 1432.98 786.637C1431.01 786.424 1429.04 786.248 1427.07 785.921C1422.71 785.19 1418.81 785.67 1414.47 786.056C1407.74 786.543 1401.14 788.135 1394.93 790.769C1392.92 791.632 1390.94 792.501 1388.9 793.326C1388.1 793.633 1386.94 794.082 1385.88 794.383C1385.62 794.254 1385.34 794.151 1385.08 794.025C1379.5 791.339 1374.8 787.815 1369.25 785.098C1365.58 783.269 1361.52 782.17 1357.53 783.733C1356 784.255 1354.58 785.029 1353.31 786.024C1352.58 786.711 1350.88 788.415 1351.21 789.501C1352.11 787.484 1355.5 786.028 1357.52 785.77C1360.84 785.306 1362.59 786.162 1364.99 788.208C1368 790.791 1374.64 796.486 1372.4 801.101C1371.41 803.134 1369.34 804.484 1367.65 805.861C1365.54 807.555 1363.43 809.178 1361.36 810.861C1360.54 811.529 1359.64 812.088 1358.82 812.761C1357.07 814.06 1355.22 815.227 1353.3 816.254ZM1325.01 885.084C1328.33 885.373 1331.96 884.71 1335.31 884.284C1341.2 883.55 1345.82 879.753 1351.28 877.896C1355.66 876.555 1360.33 876.477 1364.75 877.67C1364.12 877.773 1363.52 877.991 1362.97 878.313C1362.57 878.497 1362.23 878.784 1361.98 879.145C1361.73 879.506 1361.58 879.927 1361.55 880.365C1361.58 881.545 1362.8 882.065 1361.09 882.524C1360.34 882.731 1358.25 881.714 1357.81 882.769C1357.34 883.855 1359.68 884.617 1360.34 884.881C1363.17 885.843 1366.11 886.444 1369.09 886.67C1372.25 887.02 1375.43 887.133 1378.61 887.006C1381.25 886.896 1383.87 886.524 1386.43 885.895C1386.59 885.855 1386.75 885.805 1386.91 885.745C1388.96 886.402 1391.05 886.919 1393.17 887.292C1395.76 887.725 1398.35 888.447 1400.99 888.839C1403.5 889.086 1406.02 889.144 1408.54 889.012C1414 889.1 1419.45 888.698 1424.84 887.812C1429.05 887.135 1433.02 885.404 1436.38 882.779C1437.25 882.095 1438.62 881.537 1439.17 880.532C1439.52 879.87 1439.16 879.368 1439.36 878.853C1439.56 878.225 1440.29 877.962 1440.37 877.174C1440.46 876.33 1439.85 875.784 1439.37 875.144C1436.43 871.121 1432.44 867.974 1428.57 864.874C1424.7 861.774 1420.43 858.994 1415.59 857.66C1413.38 857.05 1411.1 856.66 1408.81 856.493C1408.26 855.53 1405.63 855.583 1404.68 855.461C1402.71 855.242 1400.74 855.072 1398.78 854.742C1394.42 854.014 1390.53 854.494 1386.18 854.88C1379.45 855.368 1372.85 856.959 1366.63 859.59C1364.63 860.456 1362.64 861.319 1360.61 862.151C1359.82 862.458 1358.65 862.904 1357.59 863.208C1357.33 863.079 1357.05 862.976 1356.79 862.847C1351.21 860.164 1346.5 856.637 1340.96 853.923C1337.28 852.094 1333.23 850.996 1329.24 852.552C1327.71 853.076 1326.29 853.852 1325.02 854.846C1324.29 855.536 1322.59 857.237 1322.91 858.323C1323.82 856.309 1327.2 854.849 1329.22 854.595C1332.55 854.131 1334.3 854.984 1336.7 857.03C1339.7 859.612 1346.35 865.307 1344.11 869.923C1343.11 871.959 1341.05 873.309 1339.36 874.683C1337.25 876.383 1335.14 878.003 1333.07 879.683C1332.25 880.348 1331.35 880.913 1330.53 881.575C1328.78 882.876 1326.93 884.049 1325.01 885.084ZM1211.51 823.439C1214.73 824.324 1218.41 824.339 1221.78 824.525C1227.7 824.87 1232.94 821.962 1238.65 821.133C1243.2 820.607 1247.8 821.376 1251.94 823.351C1251.3 823.333 1250.66 823.44 1250.06 823.665C1249.64 823.773 1249.25 823.993 1248.94 824.301C1248.63 824.61 1248.41 824.996 1248.31 825.419C1248.13 826.58 1249.22 827.319 1247.45 827.462C1246.68 827.518 1244.82 826.153 1244.19 827.104C1243.52 828.086 1245.69 829.263 1246.3 829.643C1248.91 831.1 1251.7 832.225 1254.58 832.994C1257.63 833.898 1260.73 834.58 1263.87 835.034C1266.49 835.4 1269.13 835.508 1271.77 835.357C1271.94 835.348 1272.11 835.316 1272.26 835.297C1274.16 836.314 1276.13 837.201 1278.14 837.952C1280.6 838.852 1283.02 840.026 1285.54 840.883C1287.97 841.581 1290.45 842.098 1292.95 842.43C1298.3 843.508 1303.73 844.101 1309.18 844.2C1313.45 844.294 1317.67 843.306 1321.46 841.329C1322.42 840.815 1323.87 840.517 1324.59 839.629C1325.08 839.048 1324.81 838.481 1325.09 838.016C1325.42 837.433 1326.17 837.316 1326.39 836.541C1326.63 835.735 1326.14 835.101 1325.78 834.382C1323.62 829.882 1320.25 826.067 1317.02 822.32C1313.77 818.548 1310.07 815.056 1305.56 812.872C1303.49 811.873 1301.32 811.077 1299.1 810.494C1298.73 809.452 1296.13 809.029 1295.22 808.731C1293.34 808.169 1291.42 807.636 1289.54 806.971C1285.39 805.459 1281.48 805.226 1277.14 804.812C1270.43 804.074 1263.64 804.446 1257.05 805.912C1254.93 806.399 1252.82 806.891 1250.67 807.34C1249.83 807.497 1248.61 807.732 1247.51 807.833C1247.27 807.657 1247.01 807.51 1246.79 807.325C1241.79 803.679 1237.8 799.361 1232.84 795.693C1229.55 793.23 1225.77 791.413 1221.55 792.219C1219.96 792.463 1218.42 792.964 1217 793.703C1216.15 794.258 1214.17 795.627 1214.3 796.756C1215.54 794.936 1219.14 794.101 1221.17 794.233C1224.52 794.371 1226.09 795.533 1228.08 797.98C1230.58 801.061 1236.08 807.867 1233.03 811.997C1231.69 813.817 1229.41 814.768 1227.49 815.812C1225.13 817.102 1222.74 818.312 1220.42 819.603C1219.48 820.108 1218.49 820.497 1217.57 821.003C1215.61 821.966 1213.59 822.78 1211.51 823.439ZM1237.7 892.712C1239.96 893.528 1242.31 894.118 1244.7 894.475C1248.76 895.303 1252.66 893.807 1256.68 893.807C1259.87 893.893 1262.97 894.881 1265.63 896.656C1265.19 896.587 1264.75 896.597 1264.32 896.684C1264.01 896.718 1263.72 896.834 1263.47 897.02C1263.22 897.205 1263.03 897.453 1262.91 897.738C1262.68 898.5 1263.36 899.125 1262.12 899.046C1261.59 899.002 1260.43 897.885 1259.91 898.487C1259.36 899.087 1260.73 900.131 1261.12 900.439C1262.78 901.706 1264.58 902.762 1266.5 903.583C1268.52 904.498 1270.59 905.277 1272.71 905.915C1274.48 906.434 1276.3 906.769 1278.14 906.915C1278.25 906.926 1278.37 906.928 1278.48 906.921C1279.69 907.813 1280.97 908.623 1282.29 909.346C1283.89 910.206 1285.46 911.263 1287.1 912.107C1288.71 912.828 1290.37 913.43 1292.06 913.907C1295.65 915.179 1299.34 916.125 1303.1 916.734C1306.03 917.226 1309.05 916.966 1311.86 915.978C1312.68 915.828 1313.48 915.538 1314.2 915.122C1314.58 914.748 1314.47 914.344 1314.69 914.043C1314.97 913.676 1315.52 913.679 1315.74 913.143C1315.99 912.619 1315.72 912.13 1315.54 911.609C1314.34 908.339 1312.7 905.242 1310.68 902.4C1308.9 899.397 1306.53 896.791 1303.7 894.744C1302.37 893.847 1300.95 893.083 1299.47 892.463C1299.33 891.704 1297.57 891.151 1296.99 890.856C1295.73 890.276 1294.46 889.72 1293.24 889.083C1290.59 887.804 1287.78 886.887 1284.88 886.356C1280.32 885.18 1275.6 884.762 1270.9 885.12C1269.38 885.249 1267.87 885.383 1266.36 885.478C1265.75 885.497 1264.88 885.535 1264.11 885.497C1263.97 885.359 1263.81 885.221 1263.67 885.077C1260.58 882.062 1258.26 878.689 1255.2 875.664C1253.17 873.643 1250.74 872.015 1247.75 872.146C1246.63 872.153 1245.51 872.345 1244.45 872.714C1243.8 873.009 1242.31 873.753 1242.28 874.553C1243.32 873.429 1245.88 873.204 1247.27 873.489C1248.22 873.624 1249.12 873.995 1249.89 874.568C1250.66 875.141 1251.27 875.897 1251.67 876.768C1253.1 879.137 1256.22 884.39 1253.7 886.944C1252.61 888.058 1250.93 888.507 1249.5 889.025C1247.74 889.684 1245.98 890.271 1244.25 890.939C1243.55 891.197 1242.82 891.372 1242.14 891.633C1240.69 892.096 1239.2 892.456 1237.69 892.711L1237.7 892.712ZM1346.49 925.912C1348.2 925.701 1349.87 925.317 1351.49 924.767C1354.33 924.005 1356.33 921.814 1358.87 920.512C1360.92 919.539 1363.2 919.166 1365.45 919.436C1365.16 919.53 1364.88 919.679 1364.64 919.875C1364.45 919.992 1364.31 920.156 1364.21 920.35C1364.12 920.543 1364.07 920.759 1364.09 920.975C1364.2 921.543 1364.81 921.715 1364.01 922.083C1363.64 922.212 1362.57 921.883 1362.42 922.422C1362.27 922.996 1363.46 923.216 1363.82 923.285C1365.28 923.552 1366.76 923.639 1368.24 923.543C1369.81 923.478 1371.38 923.302 1372.94 923.016C1374.22 922.78 1375.48 922.412 1376.69 921.916C1376.77 921.887 1376.84 921.85 1376.92 921.806C1377.97 921.988 1379.04 922.092 1380.11 922.117C1381.4 922.158 1382.72 922.327 1384.04 922.336C1385.29 922.261 1386.53 922.107 1387.75 921.875C1390.43 921.528 1393.08 920.943 1395.65 920.127C1397.67 919.49 1399.5 918.359 1400.97 916.835C1401.35 916.421 1401.96 916.047 1402.18 915.52C1402.3 915.159 1402.11 914.943 1402.14 914.685C1402.21 914.362 1402.56 914.195 1402.53 913.775C1402.51 913.375 1402.17 913.147 1401.91 912.875C1400.09 911.189 1398.06 909.75 1395.86 908.595C1393.77 907.266 1391.42 906.381 1388.96 905.995C1387.84 905.849 1386.69 905.815 1385.56 905.895C1385.22 905.465 1383.94 905.672 1383.47 905.666C1382.48 905.713 1381.5 905.776 1380.52 905.757C1378.43 905.8 1376.35 906.122 1374.34 906.714C1371.07 907.441 1367.95 908.69 1365.09 910.414C1364.18 910.988 1363.26 911.553 1362.33 912.127C1361.95 912.312 1361.41 912.619 1360.9 912.852C1360.79 912.805 1360.63 912.761 1360.49 912.711C1357.56 911.798 1355.02 910.401 1352.1 909.485C1350.81 908.91 1349.36 908.752 1347.97 909.034C1346.58 909.315 1345.32 910.023 1344.35 911.057C1344.03 911.457 1343.32 912.416 1343.55 912.927C1343.86 911.876 1345.41 910.909 1346.37 910.64C1347.02 910.42 1347.71 910.366 1348.38 910.483C1349.05 910.6 1349.69 910.883 1350.22 911.308C1351.89 912.356 1355.55 914.687 1354.78 917.1C1354.32 918.123 1353.63 919.033 1352.78 919.77C1351.88 920.755 1350.94 921.693 1350.05 922.67C1349.71 923.07 1349.3 923.404 1348.96 923.784C1348.19 924.547 1347.36 925.257 1346.49 925.909L1346.49 925.912ZM1172.51 756.303C1174.17 756.72 1175.87 756.965 1177.58 757.034C1180.5 757.342 1183.17 756.008 1186 755.719C1188.26 755.541 1190.53 756.011 1192.53 757.074C1192.22 757.062 1191.91 757.099 1191.61 757.184C1191.4 757.23 1191.2 757.332 1191.04 757.482C1190.88 757.631 1190.76 757.821 1190.7 758.031C1190.6 758.593 1191.12 758.982 1190.23 759.031C1189.85 759.021 1188.96 758.331 1188.63 758.786C1188.28 759.266 1189.31 759.897 1189.63 760.079C1190.89 760.858 1192.24 761.478 1193.66 761.924C1195.15 762.419 1196.68 762.817 1198.22 763.116C1199.51 763.352 1200.81 763.46 1202.11 763.436C1202.2 763.433 1202.29 763.422 1202.37 763.405C1203.28 763.963 1204.24 764.445 1205.23 764.848C1206.43 765.348 1207.6 765.987 1208.83 766.461C1210.01 766.846 1211.22 767.151 1212.45 767.374C1215.08 768.011 1217.76 768.419 1220.47 768.592C1222.58 768.712 1224.69 768.312 1226.61 767.428C1227.18 767.245 1227.72 766.975 1228.2 766.628C1228.44 766.336 1228.35 766.069 1228.46 765.844C1228.64 765.565 1229.04 765.536 1229.16 765.144C1229.29 764.752 1229.07 764.422 1228.91 764.061C1227.81 761.842 1226.44 759.772 1224.82 757.901C1223.33 755.909 1221.46 754.242 1219.3 753.001C1218.31 752.45 1217.25 752.006 1216.16 751.677C1216.01 751.153 1214.73 750.893 1214.29 750.717C1213.36 750.403 1212.42 750.117 1211.51 749.735C1209.54 749.023 1207.48 748.576 1205.39 748.404C1202.09 747.909 1198.72 747.952 1195.43 748.533C1194.38 748.756 1193.32 748.944 1192.25 749.145C1191.83 749.174 1191.21 749.268 1190.65 749.308C1190.55 749.21 1190.44 749.117 1190.33 749.032C1187.91 747.121 1186.04 744.9 1183.65 743.001C1182.92 742.301 1182.05 741.765 1181.1 741.427C1180.15 741.089 1179.14 740.957 1178.13 741.04C1177.35 741.125 1176.58 741.338 1175.86 741.671C1175.4 741.941 1174.41 742.581 1174.43 743.133C1175.09 742.261 1176.9 741.925 1177.89 742.033C1178.57 742.059 1179.24 742.255 1179.82 742.605C1180.41 742.954 1180.9 743.445 1181.25 744.033C1182.44 745.611 1184.99 749.101 1183.42 751.074C1182.61 751.859 1181.65 752.462 1180.58 752.844C1179.4 753.453 1178.18 753.986 1176.99 754.567C1176.53 754.821 1176.03 754.997 1175.57 755.213C1174.58 755.648 1173.55 756.012 1172.51 756.303ZM1070.43 754.678C1071.88 755.593 1073.42 756.361 1075.02 756.969C1077.7 758.18 1080.65 757.747 1083.43 758.359C1085.63 758.905 1087.63 760.064 1089.2 761.701C1088.91 761.583 1088.6 761.521 1088.29 761.519C1088.07 761.491 1087.85 761.525 1087.66 761.615C1087.46 761.705 1087.29 761.849 1087.17 762.03C1086.9 762.538 1087.27 763.069 1086.4 762.821C1086.04 762.705 1085.41 761.764 1084.96 762.096C1084.47 762.435 1085.27 763.37 1085.5 763.634C1086.46 764.769 1087.55 765.781 1088.76 766.646C1090.02 767.593 1091.34 768.453 1092.71 769.222C1093.86 769.842 1095.07 770.351 1096.31 770.741C1096.4 770.788 1096.49 770.766 1096.56 770.788C1097.26 771.599 1098.01 772.358 1098.82 773.06C1099.81 773.917 1100.72 774.874 1101.74 775.712C1102.75 776.452 1103.8 777.123 1104.9 777.72C1107.2 779.154 1109.62 780.384 1112.13 781.397C1114.1 782.162 1116.22 782.443 1118.32 782.216C1118.92 782.214 1119.51 782.126 1120.09 781.956C1120.4 781.749 1120.41 781.466 1120.59 781.284C1120.83 781.077 1121.21 781.168 1121.46 780.836C1121.71 780.504 1121.59 780.117 1121.56 779.722C1121.21 777.273 1120.55 774.879 1119.6 772.599C1118.82 770.238 1117.56 768.063 1115.9 766.21C1115.13 765.376 1114.27 764.626 1113.34 763.973C1113.36 763.44 1112.23 762.784 1111.86 762.473C1111.08 761.873 1110.28 761.328 1109.53 760.673C1107.89 759.373 1106.07 758.305 1104.14 757.497C1101.16 755.977 1097.95 754.959 1094.64 754.485C1093.57 754.366 1092.51 754.218 1091.43 754.068C1091.02 753.968 1090.4 753.855 1089.86 753.716C1089.8 753.609 1089.72 753.474 1089.65 753.361C1087.94 750.791 1086.87 748.083 1085.2 745.532C1084.72 744.64 1084.06 743.859 1083.27 743.241C1082.47 742.622 1081.55 742.181 1080.57 741.945C1079.79 741.782 1078.99 741.743 1078.2 741.829C1077.69 741.942 1076.55 742.237 1076.4 742.761C1077.3 742.152 1079.12 742.4 1080.03 742.808C1080.67 743.046 1081.24 743.44 1081.69 743.955C1082.13 744.47 1082.45 745.09 1082.59 745.757C1083.22 747.637 1084.56 751.744 1082.45 753.134C1081.43 753.622 1080.33 753.888 1079.2 753.915C1077.88 754.115 1076.56 754.245 1075.26 754.427C1074.73 754.521 1074.19 754.527 1073.7 754.587C1072.61 754.703 1071.52 754.734 1070.43 754.678ZM1148.43 878.47C1149.88 879.383 1151.42 880.152 1153.03 880.764C1155.7 881.975 1158.66 881.539 1161.43 882.151C1163.63 882.697 1165.64 883.853 1167.21 885.486C1166.92 885.372 1166.61 885.311 1166.3 885.307C1166.08 885.28 1165.86 885.314 1165.66 885.405C1165.46 885.496 1165.29 885.641 1165.17 885.822C1164.92 886.327 1165.27 886.861 1164.41 886.616C1164.05 886.497 1163.42 885.555 1162.96 885.888C1162.48 886.23 1163.27 887.162 1163.51 887.425C1164.46 888.559 1165.56 889.571 1166.76 890.44C1168.02 891.383 1169.34 892.241 1170.72 893.01C1171.87 893.633 1173.07 894.142 1174.32 894.532C1174.41 894.576 1174.5 894.557 1174.56 894.582C1175.26 895.391 1176.02 896.15 1176.82 896.851C1177.82 897.711 1178.72 898.665 1179.74 899.502C1180.75 900.242 1181.81 900.914 1182.9 901.513C1185.2 902.942 1187.62 904.171 1190.14 905.187C1192.1 905.954 1194.23 906.234 1196.32 906.003C1196.92 906.006 1197.52 905.92 1198.09 905.746C1198.4 905.532 1198.42 905.253 1198.6 905.074C1198.84 904.864 1199.22 904.958 1199.47 904.625C1199.73 904.292 1199.59 903.907 1199.57 903.511C1199.22 901.062 1198.56 898.668 1197.6 896.388C1196.83 894.027 1195.57 891.853 1193.91 890C1193.14 889.166 1192.28 888.416 1191.34 887.763C1191.37 887.23 1190.24 886.571 1189.87 886.263C1189.09 885.663 1188.28 885.118 1187.54 884.463C1185.89 883.163 1184.08 882.094 1182.15 881.285C1179.16 879.77 1175.95 878.752 1172.64 878.273C1171.57 878.157 1170.51 878.01 1169.44 877.859C1169.02 877.752 1168.4 877.649 1167.86 877.505C1167.81 877.405 1167.72 877.267 1167.65 877.151C1165.95 874.588 1164.87 871.876 1163.2 869.325C1162.73 868.434 1162.07 867.653 1161.27 867.036C1160.47 866.418 1159.55 865.977 1158.57 865.742C1157.79 865.576 1156.99 865.534 1156.2 865.62C1155.69 865.736 1154.55 866.028 1154.4 866.555C1155.3 865.949 1157.12 866.197 1158.03 866.602C1158.67 866.839 1159.24 867.233 1159.69 867.748C1160.14 868.262 1160.45 868.881 1160.6 869.548C1161.23 871.431 1162.56 875.532 1160.45 876.928C1159.44 877.42 1158.33 877.686 1157.2 877.706C1155.89 877.906 1154.57 878.035 1153.25 878.224C1152.72 878.315 1152.19 878.324 1151.7 878.384C1150.61 878.498 1149.52 878.526 1148.43 878.469L1148.43 878.47ZM1089.99 673.791C1091.06 674.461 1092.2 675.022 1093.38 675.467C1095.35 676.367 1097.53 676.048 1099.57 676.506C1101.2 676.903 1102.67 677.752 1103.83 678.954C1103.62 678.875 1103.39 678.835 1103.16 678.835C1103 678.814 1102.84 678.839 1102.69 678.908C1102.55 678.976 1102.42 679.085 1102.33 679.221C1102.14 679.591 1102.4 679.974 1101.77 679.786C1101.5 679.717 1101.04 679.011 1100.7 679.256C1100.35 679.501 1100.93 680.207 1101.11 680.385C1101.81 681.231 1102.61 681.981 1103.51 682.613C1104.43 683.312 1105.41 683.947 1106.42 684.513C1107.27 684.965 1108.15 685.338 1109.07 685.627C1109.13 685.671 1109.2 685.649 1109.25 685.668C1109.76 686.269 1110.31 686.828 1110.91 687.34C1111.66 687.977 1112.32 688.683 1113.07 689.288C1113.8 689.843 1114.58 690.34 1115.4 690.772C1117.09 691.837 1118.87 692.741 1120.73 693.472C1122.18 694.042 1123.74 694.252 1125.29 694.084C1125.73 694.091 1126.17 694.027 1126.59 693.896C1126.82 693.742 1126.83 693.529 1126.96 693.406C1127.14 693.249 1127.42 693.312 1127.6 693.064C1127.78 692.832 1127.69 692.537 1127.67 692.242C1127.42 690.439 1126.93 688.676 1126.23 686.996C1125.66 685.254 1124.73 683.651 1123.5 682.289C1122.93 681.671 1122.3 681.116 1121.62 680.632C1121.62 680.249 1120.8 679.763 1120.53 679.537C1119.95 679.101 1119.36 678.696 1118.81 678.206C1117.6 677.25 1116.27 676.464 1114.84 675.872C1112.64 674.75 1110.27 674 1107.83 673.653C1107.04 673.553 1106.25 673.453 1105.46 673.353C1105.16 673.271 1104.7 673.184 1104.31 673.08C1104.26 673.011 1104.2 672.898 1104.14 672.82C1102.89 670.92 1102.09 668.939 1100.87 667.05C1100.52 666.392 1100.04 665.816 1099.45 665.361C1098.86 664.906 1098.18 664.582 1097.45 664.411C1096.89 664.287 1096.3 664.256 1095.72 664.32C1095.33 664.408 1094.5 664.62 1094.38 665.004C1094.81 664.827 1095.26 664.74 1095.72 664.747C1096.18 664.755 1096.63 664.857 1097.05 665.048C1097.52 665.221 1097.95 665.511 1098.28 665.892C1098.61 666.273 1098.84 666.731 1098.95 667.225C1099.41 668.603 1100.39 671.625 1098.83 672.653C1098.09 673.02 1097.27 673.218 1096.44 673.234C1095.47 673.372 1094.5 673.475 1093.54 673.614C1093.14 673.686 1092.76 673.689 1092.39 673.73C1091.59 673.812 1090.79 673.833 1089.99 673.791ZM1037.93 616.654C1038.9 617.475 1039.94 618.201 1041.05 618.819C1042.86 620.019 1045.06 620.011 1047.02 620.764C1048.56 621.408 1049.89 622.467 1050.86 623.823C1050.66 623.711 1050.44 623.638 1050.22 623.61C1050.06 623.568 1049.9 623.569 1049.74 623.612C1049.59 623.656 1049.45 623.741 1049.34 623.858C1049.09 624.194 1049.29 624.627 1048.7 624.338C1048.44 624.238 1048.09 623.46 1047.72 623.66C1047.34 623.855 1047.8 624.629 1047.96 624.837C1048.53 625.77 1049.21 626.628 1049.99 627.391C1050.8 628.22 1051.67 628.992 1052.59 629.701C1053.36 630.28 1054.18 630.785 1055.04 631.21C1055.11 631.251 1055.16 631.241 1055.21 631.267C1055.62 631.941 1056.09 632.577 1056.61 633.167C1057.24 633.908 1057.79 634.714 1058.44 635.433C1059.09 636.089 1059.79 636.693 1060.53 637.24C1062.04 638.544 1063.67 639.706 1065.39 640.71C1066.74 641.487 1068.26 641.924 1069.82 641.984C1070.25 642.065 1070.7 642.069 1071.13 641.994C1071.38 641.881 1071.42 641.664 1071.57 641.564C1071.77 641.435 1072.04 641.552 1072.26 641.316C1072.47 641.116 1072.42 640.823 1072.45 640.528C1072.46 638.708 1072.25 636.894 1071.81 635.128C1071.5 633.32 1070.82 631.597 1069.81 630.067C1069.34 629.37 1068.8 628.725 1068.2 628.143C1068.25 627.76 1067.51 627.164 1067.28 626.907C1066.76 626.38 1066.24 625.884 1065.78 625.316C1064.72 624.192 1063.52 623.218 1062.2 622.423C1060.19 620.98 1057.96 619.885 1055.59 619.185C1054.84 618.962 1054.08 618.752 1053.32 618.539C1053.02 618.401 1052.58 618.257 1052.21 618.087C1052.17 618.027 1052.13 617.892 1052.09 617.798C1051.13 615.752 1050.64 613.672 1049.71 611.623C1049.46 610.921 1049.07 610.279 1048.56 609.74C1048.04 609.2 1047.42 608.776 1046.73 608.495C1046.19 608.293 1045.61 608.176 1045.03 608.147C1044.64 608.178 1043.77 608.269 1043.61 608.627C1044.05 608.517 1044.52 608.499 1044.97 608.574C1045.42 608.65 1045.85 608.817 1046.24 609.066C1046.68 609.308 1047.05 609.657 1047.32 610.082C1047.6 610.506 1047.76 610.992 1047.79 611.494C1048.04 612.941 1048.55 616.069 1046.86 616.847C1046.07 617.105 1045.23 617.181 1044.41 617.067C1043.42 617.061 1042.45 617.026 1041.49 617.017C1041.1 617.017 1040.69 616.97 1040.34 616.96C1039.53 616.919 1038.73 616.816 1037.93 616.654ZM1136.13 656.598C1137.09 657.42 1138.14 658.147 1139.24 658.769C1141.05 659.969 1143.25 659.958 1145.21 660.715C1146.76 661.358 1148.09 662.416 1149.06 663.771C1148.86 663.662 1148.64 663.591 1148.42 663.561C1148.26 663.518 1148.1 663.518 1147.94 663.562C1147.79 663.606 1147.65 663.691 1147.54 663.809C1147.29 664.142 1147.49 664.575 1146.9 664.283C1146.64 664.183 1146.29 663.408 1145.92 663.608C1145.54 663.808 1146 664.578 1146.15 664.782C1146.72 665.716 1147.4 666.576 1148.18 667.342C1149 668.169 1149.87 668.94 1150.79 669.648C1151.56 670.228 1152.38 670.733 1153.24 671.157C1153.31 671.201 1153.36 671.192 1153.41 671.214C1153.82 671.889 1154.29 672.525 1154.82 673.114C1155.45 673.854 1155.99 674.661 1156.65 675.376C1157.3 676.034 1158 676.638 1158.75 677.184C1160.25 678.49 1161.88 679.653 1163.6 680.658C1164.95 681.434 1166.47 681.87 1168.03 681.929C1168.46 682.01 1168.91 682.01 1169.34 681.929C1169.59 681.819 1169.63 681.609 1169.77 681.508C1169.98 681.379 1170.25 681.492 1170.47 681.26C1170.67 681.06 1170.63 680.767 1170.66 680.472C1170.67 678.652 1170.46 676.838 1170.02 675.072C1169.71 673.264 1169.03 671.54 1168.02 670.011C1167.55 669.315 1167.01 668.669 1166.41 668.084C1166.45 667.704 1165.72 667.105 1165.48 666.848C1164.97 666.321 1164.45 665.831 1163.98 665.264C1162.93 664.138 1161.73 663.165 1160.41 662.373C1158.4 660.929 1156.17 659.834 1153.8 659.132C1153.05 658.906 1152.28 658.696 1151.52 658.486C1151.23 658.348 1150.78 658.207 1150.41 658.031C1150.38 657.974 1150.34 657.84 1150.29 657.752C1149.34 655.7 1148.84 653.619 1147.91 651.571C1147.67 650.868 1147.27 650.226 1146.76 649.687C1146.25 649.148 1145.62 648.725 1144.93 648.446C1144.39 648.242 1143.82 648.125 1143.23 648.101C1142.84 648.123 1141.97 648.22 1141.81 648.575C1142.25 648.465 1142.72 648.447 1143.17 648.522C1143.62 648.597 1144.05 648.763 1144.44 649.011C1144.88 649.255 1145.25 649.605 1145.52 650.03C1145.79 650.455 1145.95 650.941 1145.99 651.443C1146.23 652.89 1146.76 656.018 1145.06 656.796C1144.27 657.055 1143.43 657.129 1142.6 657.013C1141.62 657.013 1140.65 656.975 1139.68 656.963C1139.29 656.972 1138.88 656.922 1138.54 656.907C1137.73 656.87 1136.92 656.767 1136.13 656.599V656.598ZM1125.85 718.434C1126.82 719.25 1127.86 719.976 1128.96 720.602C1130.78 721.794 1132.97 721.785 1134.93 722.541C1136.47 723.184 1137.81 724.243 1138.78 725.6C1138.58 725.488 1138.36 725.417 1138.13 725.39C1137.97 725.346 1137.81 725.346 1137.66 725.39C1137.51 725.433 1137.37 725.518 1137.26 725.635C1137.01 725.968 1137.2 726.404 1136.61 726.115C1136.35 726.015 1136 725.24 1135.64 725.437C1135.25 725.637 1135.72 726.406 1135.87 726.61C1136.44 727.544 1137.12 728.403 1137.9 729.167C1138.71 729.997 1139.59 730.77 1140.51 731.48C1141.27 732.059 1142.1 732.564 1142.96 732.986C1143.03 733.033 1143.08 733.02 1143.12 733.042C1143.53 733.718 1144 734.354 1144.53 734.942C1145.16 735.683 1145.71 736.489 1146.36 737.208C1147.01 737.863 1147.71 738.465 1148.46 739.008C1149.97 740.317 1151.59 741.481 1153.32 742.485C1154.67 743.26 1156.19 743.696 1157.74 743.756C1158.18 743.838 1158.62 743.84 1159.06 743.762C1159.31 743.652 1159.34 743.439 1159.49 743.338C1159.69 743.209 1159.96 743.322 1160.18 743.09C1160.38 742.89 1160.35 742.597 1160.37 742.302C1160.39 740.48 1160.17 738.664 1159.73 736.896C1159.42 735.089 1158.74 733.365 1157.73 731.834C1157.26 731.139 1156.72 730.495 1156.12 729.911C1156.17 729.531 1155.43 728.938 1155.2 728.675C1154.69 728.151 1154.16 727.658 1153.7 727.087C1152.64 725.964 1151.44 724.99 1150.12 724.194C1148.11 722.75 1145.88 721.657 1143.51 720.959C1142.76 720.733 1142 720.523 1141.23 720.306C1140.94 720.171 1140.49 720.03 1140.13 719.857C1140.09 719.8 1140.05 719.662 1140 719.575C1139.05 717.52 1138.55 715.443 1137.63 713.394C1137.38 712.691 1136.99 712.048 1136.47 711.509C1135.96 710.97 1135.33 710.547 1134.64 710.269C1134.1 710.065 1133.53 709.948 1132.95 709.921C1132.56 709.952 1131.69 710.04 1131.52 710.398C1131.97 710.288 1132.43 710.271 1132.88 710.346C1133.33 710.422 1133.77 710.589 1134.15 710.837C1134.59 711.08 1134.97 711.43 1135.24 711.855C1135.51 712.28 1135.67 712.766 1135.7 713.269C1135.95 714.712 1136.46 717.841 1134.78 718.619C1133.99 718.878 1133.14 718.952 1132.32 718.836C1131.34 718.836 1130.37 718.802 1129.41 718.789C1129.01 718.795 1128.61 718.745 1128.26 718.729C1127.45 718.692 1126.64 718.594 1125.85 718.436L1125.85 718.434ZM1101.68 638.618C1102.27 639.11 1102.9 639.546 1103.57 639.918C1104.65 640.64 1105.98 640.64 1107.16 641.088C1108.08 641.478 1108.88 642.116 1109.47 642.933C1109.35 642.871 1109.22 642.831 1109.09 642.814C1108.99 642.786 1108.89 642.784 1108.8 642.809C1108.71 642.834 1108.62 642.884 1108.55 642.955C1108.42 643.155 1108.52 643.429 1108.17 643.244C1108.01 643.175 1107.8 642.708 1107.59 642.83C1107.35 642.953 1107.62 643.42 1107.72 643.542C1108.07 644.105 1108.48 644.625 1108.95 645.089C1109.43 645.587 1109.96 646.048 1110.52 646.47C1110.98 646.821 1111.47 647.129 1111.99 647.392C1112.03 647.417 1112.07 647.402 1112.09 647.427C1112.34 647.831 1112.63 648.215 1112.95 648.575C1113.32 649.008 1113.64 649.498 1114.04 649.93C1114.44 650.326 1114.86 650.694 1115.31 651.03C1116.22 651.815 1117.2 652.514 1118.24 653.117C1119.05 653.583 1119.96 653.845 1120.9 653.882C1121.16 653.933 1121.43 653.933 1121.7 653.882C1121.84 653.825 1121.87 653.694 1121.96 653.624C1122.09 653.549 1122.24 653.618 1122.38 653.483C1122.51 653.364 1122.47 653.194 1122.49 653C1122.5 651.905 1122.37 650.813 1122.1 649.752C1121.92 648.659 1121.51 647.617 1120.9 646.693C1120.62 646.277 1120.3 645.894 1119.93 645.548C1119.96 645.3 1119.51 644.958 1119.38 644.795C1119.07 644.478 1118.76 644.18 1118.46 643.835C1117.83 643.157 1117.11 642.569 1116.32 642.087C1115.1 641.222 1113.76 640.565 1112.33 640.142C1111.88 640.007 1111.42 639.872 1110.96 639.742C1110.78 639.67 1110.51 639.579 1110.27 639.472C1110.27 639.441 1110.23 639.359 1110.22 639.303C1109.64 638.067 1109.35 636.815 1108.78 635.569C1108.63 635.149 1108.39 634.766 1108.08 634.444C1107.77 634.122 1107.4 633.868 1106.98 633.699C1106.66 633.577 1106.32 633.504 1105.97 633.483C1105.72 633.505 1105.2 633.565 1105.1 633.775C1105.37 633.707 1105.65 633.695 1105.92 633.739C1106.19 633.784 1106.45 633.883 1106.68 634.032C1106.95 634.181 1107.17 634.392 1107.33 634.648C1107.5 634.903 1107.6 635.195 1107.62 635.497C1107.77 636.379 1108.08 638.252 1107.06 638.735C1106.59 638.878 1106.08 638.921 1105.59 638.863C1105 638.854 1104.41 638.835 1103.82 638.829C1103.59 638.829 1103.36 638.814 1103.14 638.785C1102.65 638.762 1102.16 638.707 1101.68 638.62L1101.68 638.618ZM1053.74 667.618C1054.32 668.096 1054.94 668.525 1055.59 668.898C1056.67 669.613 1057.98 669.607 1059.14 670.05C1060.05 670.438 1060.83 671.066 1061.41 671.865C1061.29 671.795 1061.17 671.751 1061.04 671.736C1060.94 671.711 1060.85 671.713 1060.75 671.74C1060.66 671.767 1060.58 671.819 1060.52 671.89C1060.38 672.09 1060.48 672.351 1060.14 672.166C1059.98 672.094 1059.76 671.642 1059.56 671.755C1059.32 671.874 1059.6 672.339 1059.7 672.464C1060.03 673.021 1060.43 673.533 1060.9 673.989C1061.38 674.477 1061.9 674.932 1062.45 675.351C1062.91 675.692 1063.39 675.993 1063.9 676.251C1063.95 676.27 1063.98 676.263 1064 676.285C1064.25 676.682 1064.53 677.061 1064.84 677.418C1065.21 677.842 1065.53 678.328 1065.92 678.755C1066.31 679.146 1066.73 679.509 1067.18 679.841C1068.07 680.606 1069.03 681.29 1070.05 681.887C1070.85 682.348 1071.75 682.609 1072.68 682.647C1072.92 682.647 1073.24 682.747 1073.45 682.647C1073.6 682.594 1073.64 682.468 1073.71 682.393C1073.84 682.315 1074 682.384 1074.14 682.252C1074.27 682.12 1074.23 681.982 1074.24 681.788C1074.25 680.709 1074.12 679.632 1073.85 678.588C1073.68 677.51 1073.28 676.481 1072.68 675.573C1072.4 675.16 1072.08 674.778 1071.72 674.434C1071.76 674.199 1071.31 673.857 1071.18 673.697C1070.88 673.389 1070.57 673.092 1070.28 672.749C1069.66 672.079 1068.94 671.501 1068.16 671.033C1066.97 670.175 1065.65 669.527 1064.24 669.116C1063.79 668.975 1063.34 668.852 1062.89 668.727C1062.7 668.658 1062.46 668.567 1062.22 668.46C1062.21 668.422 1062.18 668.344 1062.17 668.29C1061.59 667.076 1061.31 665.833 1060.74 664.613C1060.59 664.199 1060.36 663.82 1060.05 663.503C1059.75 663.186 1059.38 662.938 1058.97 662.774C1058.65 662.655 1058.32 662.582 1057.98 662.558C1057.73 662.58 1057.22 662.64 1057.11 662.853C1057.38 662.782 1057.65 662.768 1057.92 662.812C1058.19 662.856 1058.45 662.958 1058.67 663.11C1058.93 663.255 1059.15 663.461 1059.31 663.711C1059.48 663.96 1059.57 664.245 1059.6 664.541C1059.75 665.42 1060.05 667.258 1059.04 667.732C1058.57 667.878 1058.08 667.92 1057.59 667.857C1057.03 667.857 1056.43 667.832 1055.86 667.816C1055.63 667.823 1055.4 667.813 1055.18 667.785C1054.7 667.756 1054.22 667.699 1053.74 667.616L1053.74 667.618ZM1040.72 582.141C1041.31 582.631 1041.94 583.066 1042.61 583.441C1043.69 584.163 1045.02 584.16 1046.2 584.612C1047.12 585 1047.92 585.638 1048.51 586.454C1048.39 586.391 1048.26 586.35 1048.12 586.332C1048.03 586.306 1047.93 586.305 1047.84 586.33C1047.74 586.355 1047.66 586.404 1047.59 586.473C1047.46 586.673 1047.57 586.95 1047.2 586.765C1047.05 586.693 1046.84 586.228 1046.63 586.351C1046.39 586.47 1046.66 586.934 1046.76 587.06C1047.11 587.624 1047.52 588.145 1047.98 588.61C1048.47 589.106 1049 589.567 1049.55 589.991C1050.02 590.34 1050.51 590.649 1051.03 590.914C1051.07 590.936 1051.11 590.926 1051.13 590.948C1051.39 591.349 1051.68 591.733 1051.99 592.096C1052.36 592.526 1052.69 593.019 1053.09 593.448C1053.48 593.846 1053.91 594.214 1054.36 594.548C1055.26 595.336 1056.24 596.036 1057.28 596.638C1058.09 597.106 1059.01 597.369 1059.94 597.404C1060.21 597.454 1060.48 597.454 1060.74 597.404C1060.89 597.344 1060.91 597.209 1061 597.144C1061.13 597.066 1061.28 597.138 1061.42 597.006C1061.55 596.874 1061.52 596.714 1061.53 596.52C1061.54 595.424 1061.41 594.331 1061.14 593.269C1060.96 592.178 1060.55 591.138 1059.94 590.216C1059.66 589.797 1059.34 589.41 1058.97 589.064C1058.99 588.816 1058.55 588.471 1058.41 588.314C1058.11 587.994 1057.8 587.696 1057.51 587.354C1056.88 586.673 1056.15 586.085 1055.35 585.606C1054.14 584.743 1052.79 584.086 1051.37 583.661C1050.92 583.523 1050.46 583.394 1050 583.261C1049.82 583.195 1049.55 583.094 1049.32 582.994C1049.29 582.939 1049.28 582.883 1049.26 582.825C1048.68 581.592 1048.39 580.334 1047.82 579.088C1047.67 578.668 1047.43 578.285 1047.12 577.964C1046.81 577.642 1046.43 577.389 1046.02 577.221C1045.7 577.1 1045.36 577.027 1045.01 577.004C1044.76 577.023 1044.24 577.079 1044.14 577.299C1044.41 577.231 1044.69 577.218 1044.96 577.262C1045.23 577.306 1045.49 577.405 1045.72 577.553C1045.99 577.702 1046.21 577.913 1046.37 578.168C1046.54 578.423 1046.64 578.713 1046.66 579.015C1046.81 579.897 1047.12 581.773 1046.1 582.25C1045.63 582.4 1045.12 582.446 1044.63 582.385C1044.04 582.375 1043.44 582.357 1042.85 582.35C1042.62 582.356 1042.39 582.319 1042.17 582.306C1041.69 582.279 1041.2 582.223 1040.72 582.139L1040.72 582.141ZM1056.06 696.203C1056.97 696.96 1057.95 697.63 1058.98 698.203C1060.66 699.329 1062.72 699.323 1064.54 700.032C1065.98 700.632 1067.23 701.62 1068.14 702.887C1067.95 702.791 1067.74 702.73 1067.53 702.705C1067.39 702.663 1067.24 702.661 1067.1 702.699C1066.95 702.737 1066.82 702.814 1066.72 702.922C1066.5 703.245 1066.68 703.65 1066.12 703.371C1065.87 703.258 1065.56 702.546 1065.23 702.731C1064.85 702.919 1065.28 703.631 1065.44 703.831C1065.96 704.705 1066.6 705.509 1067.32 706.222C1068.09 706.997 1068.9 707.719 1069.76 708.384C1070.48 708.92 1071.25 709.392 1072.05 709.796C1072.12 709.843 1072.17 709.821 1072.2 709.855C1072.61 710.479 1073.05 711.076 1073.54 711.641C1074.12 712.303 1074.62 713.062 1075.24 713.746C1075.86 714.357 1076.52 714.924 1077.21 715.446C1078.62 716.662 1080.14 717.746 1081.74 718.684C1083.01 719.403 1084.42 719.807 1085.87 719.861C1086.29 719.939 1086.71 719.939 1087.12 719.861C1087.35 719.773 1087.38 719.572 1087.53 719.472C1087.72 719.353 1087.95 719.453 1088.17 719.246C1088.36 719.058 1088.31 718.797 1088.34 718.502C1088.36 716.802 1088.16 715.107 1087.74 713.46C1087.46 711.763 1086.82 710.146 1085.87 708.716C1085.44 708.061 1084.94 707.46 1084.37 706.928C1084.42 706.545 1083.72 706.009 1083.52 705.754C1083.04 705.267 1082.55 704.809 1082.1 704.289C1081.12 703.227 1080 702.31 1078.76 701.565C1076.88 700.218 1074.79 699.2 1072.58 698.556C1071.88 698.324 1071.16 698.136 1070.45 697.935C1070.18 697.835 1069.76 697.678 1069.39 697.502C1069.36 697.424 1069.33 697.341 1069.31 697.257C1068.41 695.324 1067.96 693.382 1067.08 691.457C1066.84 690.808 1066.47 690.215 1065.98 689.715C1065.5 689.215 1064.93 688.819 1064.29 688.551C1063.78 688.366 1063.25 688.253 1062.71 688.215C1062.32 688.243 1061.52 688.337 1061.36 688.67C1061.78 688.567 1062.21 688.549 1062.63 688.618C1063.05 688.687 1063.46 688.84 1063.82 689.07C1064.23 689.301 1064.57 689.628 1064.83 690.024C1065.08 690.419 1065.24 690.87 1065.28 691.339C1065.5 692.707 1065.99 695.609 1064.4 696.35C1063.66 696.58 1062.89 696.653 1062.12 696.563C1061.22 696.55 1060.28 696.525 1059.37 696.503C1059 696.522 1058.63 696.459 1058.31 696.446C1057.55 696.405 1056.8 696.323 1056.06 696.201V696.203ZM1155.95 814.94C1157.05 815.378 1158.18 815.712 1159.35 815.94C1161.29 816.495 1163.25 815.855 1165.2 815.965C1166.76 816.111 1168.24 816.679 1169.5 817.606C1169.29 817.573 1169.07 817.573 1168.87 817.606C1168.57 817.669 1168.27 817.766 1168.16 818.067C1168.05 818.447 1168.33 818.767 1167.72 818.685C1167.45 818.644 1166.94 818.067 1166.67 818.34C1166.37 818.632 1167 819.178 1167.21 819.332C1167.98 820.002 1168.83 820.571 1169.74 821.026C1170.7 821.535 1171.7 821.974 1172.73 822.341C1173.57 822.629 1174.44 822.843 1175.33 822.981C1175.41 823.016 1175.44 822.981 1175.49 823.006C1176.07 823.467 1176.68 823.895 1177.32 824.29C1178.07 824.738 1178.77 825.322 1179.56 825.771C1180.34 826.157 1181.15 826.497 1181.96 826.791C1183.68 827.514 1185.46 828.079 1187.29 828.479C1188.71 828.78 1190.18 828.733 1191.58 828.344C1191.99 828.293 1192.4 828.164 1192.76 827.964C1192.95 827.807 1192.92 827.616 1193.02 827.472C1193.17 827.302 1193.42 827.318 1193.56 827.051C1193.69 826.812 1193.56 826.59 1193.51 826.304C1193.01 824.675 1192.29 823.121 1191.37 821.682C1190.6 820.146 1189.5 818.798 1188.14 817.732C1187.55 817.236 1186.89 816.819 1186.18 816.492C1186.11 816.119 1185.27 815.814 1185.01 815.632C1184.42 815.321 1183.8 815.032 1183.22 814.663C1181.96 813.966 1180.61 813.44 1179.21 813.1C1177.01 812.394 1174.71 812.064 1172.4 812.124C1171.66 812.118 1170.91 812.152 1170.18 812.177C1169.8 812.175 1169.41 812.148 1169.03 812.095C1168.98 812.032 1168.93 811.965 1168.88 811.895C1167.45 810.335 1166.42 808.619 1164.99 807.06C1164.56 806.513 1164.03 806.06 1163.42 805.73C1162.81 805.4 1162.14 805.2 1161.45 805.143C1160.91 805.118 1160.37 805.172 1159.85 805.303C1159.48 805.447 1158.75 805.786 1158.69 806.147C1159.06 805.921 1159.46 805.773 1159.89 805.71C1160.32 805.648 1160.75 805.673 1161.17 805.783C1161.63 805.879 1162.05 806.086 1162.42 806.385C1162.78 806.684 1163.06 807.066 1163.24 807.499C1163.87 808.735 1165.23 811.34 1163.95 812.548C1163.31 812.979 1162.58 813.282 1161.82 813.439C1160.96 813.703 1160.07 813.972 1159.2 814.217C1158.86 814.349 1158.49 814.399 1158.17 814.49C1157.44 814.682 1156.7 814.832 1155.95 814.938V814.94ZM1187.05 854.351C1188.15 854.789 1189.28 855.124 1190.45 855.351C1192.39 855.909 1194.35 855.269 1196.31 855.379C1197.86 855.527 1199.35 856.096 1200.61 857.023C1200.4 856.989 1200.18 856.989 1199.97 857.023C1199.67 857.083 1199.37 857.183 1199.27 857.481C1199.15 857.861 1199.44 858.181 1198.82 858.099C1198.56 858.061 1198.04 857.474 1197.78 857.76C1197.48 858.046 1198.11 858.595 1198.31 858.745C1199.08 859.416 1199.93 859.985 1200.84 860.439C1201.8 860.95 1202.8 861.39 1203.83 861.754C1204.68 862.043 1205.55 862.257 1206.43 862.394C1206.52 862.429 1206.55 862.394 1206.59 862.419C1207.18 862.882 1207.79 863.311 1208.42 863.705C1209.17 864.151 1209.87 864.737 1210.67 865.186C1211.45 865.568 1212.25 865.909 1213.07 866.206C1214.79 866.928 1216.57 867.492 1218.39 867.891C1219.81 868.191 1221.28 868.146 1222.68 867.759C1223.1 867.713 1223.5 867.583 1223.87 867.376C1224.05 867.219 1224.01 867.031 1224.12 866.883C1224.27 866.72 1224.52 866.729 1224.67 866.466C1224.79 866.231 1224.67 866.002 1224.61 865.719C1224.11 864.089 1223.39 862.534 1222.48 861.094C1221.7 859.559 1220.6 858.213 1219.25 857.15C1218.65 856.652 1218 856.233 1217.29 855.904C1217.21 855.534 1216.39 855.229 1216.11 855.047C1215.52 854.733 1214.9 854.447 1214.32 854.074C1213.06 853.379 1211.71 852.856 1210.31 852.518C1208.12 851.807 1205.82 851.476 1203.51 851.539C1202.76 851.533 1202.02 851.567 1201.29 851.592C1200.9 851.588 1200.52 851.561 1200.14 851.51C1200.09 851.446 1200.04 851.379 1199.99 851.31C1198.55 849.744 1197.53 848.034 1196.09 846.475C1195.67 845.927 1195.13 845.474 1194.52 845.144C1193.91 844.814 1193.24 844.615 1192.55 844.558C1192.02 844.532 1191.48 844.585 1190.95 844.718C1190.58 844.863 1189.84 845.201 1189.79 845.562C1190.16 845.335 1190.57 845.186 1190.99 845.123C1191.42 845.061 1191.85 845.088 1192.27 845.201C1192.73 845.294 1193.15 845.499 1193.52 845.798C1193.88 846.097 1194.16 846.48 1194.34 846.914C1194.96 848.15 1196.33 850.755 1195.05 851.959C1194.41 852.394 1193.68 852.698 1192.92 852.854C1192.06 853.111 1191.17 853.381 1190.3 853.632C1189.96 853.739 1189.62 853.829 1189.27 853.902C1188.54 854.097 1187.79 854.246 1187.04 854.349L1187.05 854.351ZM1102.11 807.568C1102.93 808.421 1103.82 809.198 1104.78 809.89C1106.31 811.208 1108.36 811.44 1110.09 812.369C1111.44 813.149 1112.55 814.286 1113.29 815.654C1113.11 815.54 1112.92 815.45 1112.72 815.387C1112.58 815.334 1112.43 815.317 1112.29 815.34C1112.14 815.362 1112 815.421 1111.88 815.513C1111.62 815.813 1111.75 816.225 1111.23 815.889C1111.02 815.742 1110.77 814.995 1110.43 815.133C1110.03 815.278 1110.37 816.033 1110.5 816.26C1110.92 817.187 1111.45 818.06 1112.08 818.86C1112.75 819.722 1113.48 820.54 1114.25 821.31C1114.9 821.924 1115.6 822.482 1116.35 822.979C1116.4 823.035 1116.46 823.026 1116.48 823.073C1116.81 823.707 1117.17 824.331 1117.61 825C1118.11 825.719 1118.49 826.547 1119.03 827.281C1119.57 827.96 1120.15 828.604 1120.77 829.208C1122.03 830.585 1123.41 831.846 1124.9 832.979C1126.06 833.846 1127.42 834.42 1128.86 834.651C1129.26 834.781 1129.68 834.831 1130.1 834.798C1130.32 834.732 1130.39 834.547 1130.53 834.469C1130.73 834.381 1130.96 834.497 1131.2 834.306C1131.42 834.14 1131.38 833.879 1131.47 833.606C1131.69 831.913 1131.69 830.198 1131.46 828.506C1131.4 826.792 1130.97 825.113 1130.2 823.58C1129.85 822.879 1129.42 822.222 1128.92 821.625C1129.02 821.255 1128.39 820.625 1128.21 820.354C1127.81 819.83 1127.38 819.3 1127 818.732C1126.15 817.565 1125.14 816.522 1124 815.632C1122.31 814.066 1120.36 812.802 1118.25 811.895C1117.57 811.572 1116.88 811.295 1116.21 811.013C1115.94 810.878 1115.55 810.68 1115.2 810.464C1115.17 810.382 1115.15 810.298 1115.13 810.213C1114.5 808.189 1114.27 806.203 1113.63 804.182C1113.48 803.509 1113.18 802.877 1112.76 802.325C1112.35 801.773 1111.82 801.313 1111.22 800.975C1110.74 800.715 1110.23 800.533 1109.7 800.435C1109.3 800.416 1108.49 800.407 1108.3 800.708C1108.72 800.661 1109.15 800.701 1109.56 800.825C1109.97 800.948 1110.35 801.153 1110.68 801.427C1111.06 801.701 1111.37 802.067 1111.57 802.49C1111.78 802.913 1111.87 803.38 1111.85 803.849C1111.91 805.236 1112.06 808.167 1110.39 808.722C1109.63 808.85 1108.84 808.829 1108.09 808.659C1107.19 808.524 1106.27 808.402 1105.37 808.259C1105.02 808.223 1104.67 808.162 1104.33 808.077C1103.58 807.945 1102.84 807.776 1102.11 807.568ZM1126.07 756.199C1126.88 757.058 1127.78 757.838 1128.74 758.527C1130.27 759.842 1132.32 760.074 1134.05 761.006C1135.4 761.786 1136.51 762.923 1137.25 764.291C1137.07 764.178 1136.88 764.088 1136.68 764.024C1136.54 763.97 1136.39 763.953 1136.25 763.974C1136.1 763.996 1135.96 764.055 1135.85 764.147C1135.58 764.447 1135.71 764.856 1135.19 764.526C1134.98 764.376 1134.74 763.626 1134.39 763.77C1133.99 763.914 1134.33 764.67 1134.47 764.9C1134.89 765.827 1135.41 766.7 1136.04 767.5C1136.71 768.362 1137.43 769.18 1138.21 769.947C1138.86 770.561 1139.56 771.12 1140.31 771.62C1140.36 771.676 1140.42 771.667 1140.44 771.714C1140.77 772.345 1141.13 772.969 1141.56 773.641C1142.06 774.353 1142.45 775.185 1142.98 775.922C1143.53 776.6 1144.11 777.244 1144.74 777.852C1145.99 779.227 1147.37 780.486 1148.86 781.614C1150.02 782.483 1151.38 783.058 1152.82 783.29C1153.22 783.421 1153.64 783.473 1154.06 783.441C1154.29 783.375 1154.34 783.184 1154.49 783.105C1154.69 783.023 1154.92 783.133 1155.16 782.948C1155.38 782.785 1155.35 782.521 1155.43 782.242C1155.65 780.552 1155.65 778.839 1155.43 777.149C1155.36 775.434 1154.93 773.753 1154.16 772.219C1153.81 771.519 1153.38 770.863 1152.88 770.268C1152.98 769.894 1152.35 769.268 1152.17 769C1151.77 768.473 1151.34 767.939 1150.96 767.368C1150.11 766.202 1149.1 765.159 1147.96 764.268C1146.27 762.704 1144.32 761.442 1142.21 760.537C1141.53 760.214 1140.83 759.937 1140.16 759.655C1139.9 759.514 1139.5 759.319 1139.16 759.1C1139.14 759.056 1139.12 758.943 1139.09 758.852C1138.46 756.825 1138.24 754.842 1137.59 752.815C1137.43 752.143 1137.14 751.512 1136.72 750.962C1136.31 750.411 1135.78 749.952 1135.18 749.615C1134.7 749.355 1134.18 749.172 1133.65 749.075C1133.26 749.059 1132.45 749.05 1132.25 749.351C1132.68 749.305 1133.11 749.345 1133.52 749.468C1133.93 749.592 1134.31 749.796 1134.64 750.07C1135.02 750.346 1135.32 750.712 1135.53 751.134C1135.73 751.557 1135.82 752.024 1135.8 752.492C1135.87 753.879 1136 756.813 1134.34 757.365C1133.58 757.488 1132.79 757.467 1132.03 757.305C1131.15 757.167 1130.23 757.041 1129.33 756.897C1128.97 756.861 1128.62 756.8 1128.28 756.715C1127.54 756.581 1126.8 756.409 1126.08 756.199H1126.07ZM1008 582.56C1008.44 583.03 1008.93 583.459 1009.45 583.84C1010.27 584.549 1011.4 584.678 1012.34 585.186C1013.07 585.607 1013.67 586.223 1014.08 586.965C1013.98 586.901 1013.87 586.852 1013.76 586.821C1013.68 586.794 1013.6 586.786 1013.52 586.798C1013.45 586.81 1013.37 586.842 1013.31 586.89C1013.17 587.041 1013.25 587.282 1012.96 587.1C1012.83 587.018 1012.7 586.607 1012.51 586.686C1012.29 586.761 1012.49 587.169 1012.56 587.304C1012.79 587.807 1013.08 588.28 1013.42 588.713C1013.78 589.178 1014.18 589.619 1014.6 590.034C1014.95 590.371 1015.33 590.679 1015.73 590.953C1015.77 590.984 1015.8 590.975 1015.81 590.997C1015.99 591.348 1016.19 591.684 1016.42 592.039C1016.7 592.439 1016.9 592.883 1017.2 593.288C1017.49 593.66 1017.81 594.01 1018.15 594.336C1018.83 595.082 1019.58 595.767 1020.39 596.382C1021.02 596.859 1021.76 597.172 1022.54 597.292C1022.75 597.363 1022.98 597.392 1023.21 597.377C1023.34 597.333 1023.36 597.242 1023.44 597.185C1023.56 597.144 1023.68 597.201 1023.8 597.103C1023.92 597.005 1023.9 596.865 1023.95 596.73C1024.07 595.806 1024.07 594.871 1023.95 593.947C1023.92 593.014 1023.68 592.101 1023.25 591.27C1023.07 590.887 1022.83 590.532 1022.55 590.216C1022.62 590.016 1022.27 589.67 1022.17 589.516C1021.96 589.234 1021.72 588.948 1021.52 588.647C1021.06 588.009 1020.51 587.439 1019.89 586.956C1018.97 586.105 1017.91 585.417 1016.75 584.923C1016.4 584.747 1016.01 584.597 1015.65 584.437C1015.46 584.357 1015.28 584.259 1015.11 584.145C1015.1 584.117 1015.08 584.054 1015.07 583.998C1014.73 582.912 1014.61 581.833 1014.26 580.725C1014.17 580.36 1014.01 580.017 1013.78 579.717C1013.55 579.418 1013.27 579.168 1012.94 578.984C1012.68 578.844 1012.41 578.744 1012.12 578.689C1011.9 578.689 1011.46 578.673 1011.35 578.839C1011.58 578.815 1011.82 578.838 1012.04 578.907C1012.27 578.976 1012.48 579.089 1012.66 579.239C1012.86 579.389 1013.03 579.588 1013.14 579.817C1013.25 580.046 1013.3 580.3 1013.29 580.554C1013.31 581.31 1013.4 582.898 1012.49 583.202C1012.07 583.264 1011.64 583.252 1011.23 583.164C1010.76 583.089 1010.25 583.026 1009.77 582.945C1009.58 582.928 1009.39 582.895 1009.2 582.845C1008.8 582.776 1008.4 582.681 1008 582.56ZM1012.86 638.218C1013.78 638.706 1014.73 639.12 1015.72 639.457C1017.33 640.157 1019.14 639.793 1020.82 640.085C1022.16 640.381 1023.39 641.041 1024.37 641.993C1024.19 641.934 1024.01 641.904 1023.82 641.905C1023.7 641.904 1023.57 641.932 1023.46 641.986C1023.35 642.041 1023.25 642.12 1023.17 642.219C1023.02 642.545 1023.26 642.887 1022.72 642.724C1022.48 642.674 1022.09 642.115 1021.83 642.324C1021.53 642.544 1022.03 643.061 1022.22 643.253C1022.82 643.913 1023.5 644.494 1024.24 644.979C1025.03 645.518 1025.85 646.002 1026.7 646.429C1027.41 646.778 1028.15 647.068 1028.9 647.295C1028.97 647.317 1029.01 647.295 1029.03 647.317C1029.49 647.784 1029.98 648.222 1030.49 648.629C1031.12 649.09 1031.65 649.683 1032.31 650.154C1032.94 650.583 1033.6 650.967 1034.28 651.302C1035.71 652.115 1037.2 652.794 1038.75 653.329C1039.95 653.752 1041.23 653.869 1042.49 653.671C1042.85 653.675 1043.21 653.602 1043.54 653.458C1043.75 653.348 1043.74 653.179 1043.84 653.078C1043.99 652.931 1044.21 652.968 1044.37 652.748C1044.48 652.548 1044.38 652.328 1044.4 652.092C1044.13 650.616 1043.66 649.183 1043.02 647.828C1042.51 646.41 1041.7 645.122 1040.63 644.057C1040.16 643.563 1039.62 643.132 1039.03 642.777C1039.05 642.438 1038.33 642.056 1038.08 641.899C1037.62 641.566 1037.13 641.246 1036.66 640.882C1035.65 640.126 1034.53 639.521 1033.34 639.087C1031.49 638.235 1029.5 637.701 1027.48 637.509C1026.87 637.409 1026.18 637.368 1025.55 637.293C1025.22 637.264 1024.89 637.215 1024.57 637.146C1024.55 637.069 1024.51 636.996 1024.47 636.929C1023.39 635.42 1022.67 633.829 1021.6 632.276C1021.28 631.762 1020.85 631.318 1020.36 630.97C1019.86 630.623 1019.29 630.38 1018.7 630.255C1018.23 630.174 1017.76 630.164 1017.29 630.227C1016.95 630.315 1016.25 630.527 1016.19 630.836C1016.53 630.682 1016.9 630.598 1017.28 630.59C1017.65 630.583 1018.03 630.651 1018.38 630.792C1018.77 630.927 1019.12 631.152 1019.41 631.45C1019.69 631.748 1019.91 632.109 1020.02 632.505C1020.42 633.647 1021.34 636.069 1020.11 636.976C1019.49 637.264 1018.82 637.45 1018.14 637.525C1017.39 637.651 1016.56 637.811 1015.79 637.925C1015.48 637.989 1015.18 638.035 1014.87 638.063C1014.2 638.151 1013.53 638.203 1012.86 638.218ZM1072.83 603.718C1073.3 604.357 1073.82 604.955 1074.39 605.507C1075.31 606.486 1076.66 606.831 1077.73 607.565C1078.56 608.192 1079.2 609.037 1079.58 610.006C1079.49 609.912 1079.37 609.84 1079.24 609.792C1079.15 609.747 1079.06 609.724 1078.96 609.724C1078.86 609.724 1078.76 609.747 1078.67 609.792C1078.46 609.971 1078.54 610.275 1078.2 609.999C1078.07 609.886 1077.96 609.39 1077.73 609.444C1077.45 609.51 1077.63 610.024 1077.7 610.21C1077.89 610.856 1078.17 611.473 1078.53 612.045C1078.9 612.673 1079.32 613.272 1079.78 613.837C1080.17 614.298 1080.59 614.732 1081.03 615.137C1081.05 615.159 1081.1 615.184 1081.11 615.197C1081.28 615.659 1081.48 616.111 1081.7 616.552C1081.99 617.076 1082.17 617.652 1082.46 618.196C1082.76 618.688 1083.09 619.158 1083.46 619.605C1084.18 620.626 1085 621.575 1085.91 622.438C1086.6 623.122 1087.45 623.618 1088.38 623.881C1088.64 623.991 1088.9 624.058 1089.18 624.081C1089.37 624.046 1089.41 623.924 1089.52 623.881C1089.67 623.847 1089.8 623.916 1089.98 623.828C1090.14 623.743 1090.12 623.564 1090.2 623.395C1090.49 622.293 1090.62 621.157 1090.6 620.019C1090.72 618.871 1090.56 617.713 1090.15 616.636C1089.99 616.138 1089.76 615.666 1089.46 615.236C1089.58 615.004 1089.22 614.508 1089.09 614.329C1088.89 613.946 1088.66 613.567 1088.44 613.159C1087.97 612.316 1087.39 611.544 1086.71 610.865C1085.7 609.686 1084.49 608.684 1083.15 607.9C1082.78 607.636 1082.31 607.385 1081.9 607.14C1081.68 607.019 1081.47 606.882 1081.28 606.729C1081.27 606.685 1081.28 606.591 1081.26 606.538C1081 605.17 1080.99 603.817 1080.76 602.421C1080.71 601.961 1080.56 601.517 1080.33 601.118C1080.09 600.719 1079.78 600.374 1079.4 600.105C1079.11 599.881 1078.78 599.715 1078.43 599.619C1078.18 599.559 1077.63 599.484 1077.5 599.688C1077.78 599.687 1078.06 599.745 1078.32 599.857C1078.58 599.97 1078.82 600.136 1079.01 600.344C1079.24 600.561 1079.41 600.831 1079.51 601.129C1079.61 601.428 1079.64 601.746 1079.59 602.057C1079.5 602.976 1079.35 604.947 1078.23 605.182C1077.7 605.18 1077.18 605.097 1076.67 604.934C1076.15 604.78 1075.52 604.617 1074.94 604.451C1074.69 604.426 1074.47 604.3 1074.26 604.263C1073.77 604.111 1073.29 603.93 1072.83 603.721V603.718ZM1255.06 789.795C1257.53 790.309 1260.06 790.562 1262.59 790.551C1266.93 790.774 1270.75 788.628 1274.91 787.991C1278.23 787.58 1281.6 788.12 1284.63 789.547C1284.17 789.543 1283.71 789.619 1283.28 789.773C1282.96 789.852 1282.68 790.015 1282.45 790.245C1282.22 790.475 1282.06 790.763 1281.99 791.078C1281.85 791.919 1282.67 792.459 1281.37 792.565C1280.81 792.628 1279.44 791.605 1278.99 792.333C1278.5 793.033 1280.11 793.893 1280.53 794.166C1282.45 795.221 1284.49 796.034 1286.6 796.588C1288.84 797.241 1291.12 797.724 1293.43 798.035C1295.34 798.292 1297.27 798.359 1299.2 798.235C1299.32 798.226 1299.44 798.207 1299.55 798.179C1300.95 798.919 1302.39 799.562 1303.88 800.105C1305.66 800.745 1307.45 801.599 1309.28 802.22C1311.06 802.703 1312.88 803.068 1314.71 803.312C1318.62 804.072 1322.6 804.477 1326.59 804.523C1329.71 804.571 1332.79 803.831 1335.55 802.37C1336.27 801.984 1337.31 801.758 1337.83 801.102C1338.17 800.678 1337.99 800.258 1338.18 799.913C1338.42 799.499 1338.99 799.392 1339.13 798.856C1339.31 798.256 1338.95 797.783 1338.66 797.262C1336.91 794.056 1334.74 791.1 1332.21 788.473C1329.89 785.645 1327.03 783.313 1323.79 781.617C1322.27 780.897 1320.69 780.334 1319.06 779.935C1318.79 779.166 1316.89 778.849 1316.22 778.648C1314.82 778.24 1313.43 777.87 1312.05 777.39C1309.11 776.475 1306.05 775.968 1302.97 775.884C1298.06 775.375 1293.11 775.67 1288.3 776.756C1286.73 777.132 1285.2 777.503 1283.63 777.839C1283.02 777.964 1282.12 778.134 1281.33 778.215C1281.14 778.086 1280.97 777.986 1280.79 777.87C1277.13 775.209 1274.18 772.07 1270.53 769.401C1268.13 767.612 1265.36 766.31 1262.29 766.925C1261.12 767.106 1259.99 767.483 1258.95 768.039C1258.33 768.439 1256.89 769.448 1256.98 770.267C1257.88 768.94 1260.51 768.322 1262.01 768.394C1264.45 768.485 1265.62 769.332 1267.08 771.108C1268.91 773.355 1272.96 778.3 1270.77 781.328C1269.78 782.668 1268.13 783.368 1266.73 784.149C1265.01 785.093 1263.28 786.006 1261.57 786.957C1260.89 787.308 1260.17 787.613 1259.49 787.999C1258.06 788.703 1256.58 789.304 1255.06 789.795Z" fill="#06091D"/>
    </g>
</svg>