<svg xmlns="http://www.w3.org/2000/svg" width="1920" height="1080" viewBox="0 0 1920 1080" fill="none">
    <path d="M917.977 658.878C917.977 658.878 925.912 647.215 939.748 649.965C937.251 653.265 933.913 655.834 930.083 657.402C926.253 658.97 922.072 659.48 917.977 658.878Z" fill="#131DA6"/>
    <path d="M878.745 594.144C878.745 594.144 886.681 582.481 900.516 585.23C898.019 588.53 894.681 591.099 890.851 592.667C887.021 594.236 882.84 594.745 878.745 594.144Z" fill="#131DA6"/>
    <path d="M909.96 670.04C909.96 670.04 919.509 659.658 932.797 664.393C929.846 667.295 926.169 669.35 922.152 670.343C918.134 671.336 913.923 671.232 909.96 670.04Z" fill="#131DA6"/>
    <path d="M889.182 650.014C889.182 650.014 898.731 639.632 912.019 644.367C909.068 647.268 905.391 649.323 901.374 650.316C897.356 651.31 893.145 651.205 889.182 650.014Z" fill="#131DA6"/>
    <path d="M906.547 686.583C906.547 686.583 911.653 673.433 925.752 672.997C924.062 676.775 921.388 680.029 918.009 682.419C914.631 684.809 910.672 686.247 906.547 686.583Z" fill="#131DA6"/>
    <path d="M969.78 705.718C969.78 705.718 979.329 695.336 992.617 700.071C989.666 702.972 985.989 705.027 981.972 706.021C977.954 707.014 973.744 706.909 969.78 705.718Z" fill="#131DA6"/>
    <path d="M969.639 634.1C969.639 634.1 977.575 622.436 991.41 625.186C988.912 628.486 985.574 631.055 981.744 632.623C977.914 634.191 973.733 634.701 969.639 634.1Z" fill="#131DA6"/>
    <path d="M862.618 653.388C862.618 653.388 870.554 641.725 884.389 644.474C881.892 647.774 878.553 650.342 874.724 651.91C870.894 653.478 866.713 653.989 862.618 653.388Z" fill="#131DA6"/>
    <path d="M889.045 737.031C889.045 737.031 896.98 725.368 910.816 728.117C908.319 731.417 904.981 733.986 901.151 735.554C897.321 737.123 893.14 737.632 889.045 737.031Z" fill="#131DA6"/>
    <path d="M939.405 672.236C939.405 672.236 947.341 660.573 961.176 663.322C958.679 666.622 955.341 669.191 951.511 670.759C947.681 672.327 943.499 672.838 939.405 672.236Z" fill="#131DA6"/>
    <path d="M918.144 634.878C918.144 634.878 926.08 623.215 939.915 625.964C937.418 629.265 934.08 631.833 930.25 633.402C926.42 634.97 922.239 635.48 918.144 634.878Z" fill="#131DA6"/>
    <path d="M880.689 638.776C880.689 638.776 885.598 625.551 899.689 624.904C898.055 628.707 895.43 632 892.088 634.441C888.745 636.881 884.808 638.378 880.689 638.776Z" fill="#131DA6"/>
    <path d="M941.095 705.546C941.095 705.546 944.695 691.909 958.662 689.898C957.404 693.841 955.11 697.373 952.02 700.126C948.929 702.879 945.156 704.751 941.095 705.546Z" fill="#131DA6"/>
    <path d="M983.691 717.898C983.691 717.898 987.291 704.26 1001.26 702.251C1000 706.194 997.706 709.726 994.616 712.479C991.526 715.232 987.752 717.103 983.691 717.898Z" fill="#131DA6"/>
    <path d="M942.646 647.026C942.646 647.026 946.347 641.586 952.802 642.868C951.637 644.408 950.08 645.606 948.293 646.337C946.507 647.069 944.556 647.307 942.646 647.026Z" fill="#131DA6"/>
    <path d="M958.565 644.576C958.565 644.576 966.5 632.913 980.336 635.663C977.839 638.963 974.5 641.532 970.67 643.1C966.84 644.668 962.66 645.178 958.565 644.576Z" fill="#131DA6"/>
    <path d="M919.334 579.842C919.334 579.842 927.268 568.179 941.105 570.928C938.608 574.228 935.269 576.797 931.439 578.365C927.609 579.933 923.429 580.444 919.334 579.842Z" fill="#131DA6"/>
    <path d="M950.545 655.738C950.545 655.738 960.096 645.356 973.383 650.091C970.431 652.992 966.755 655.048 962.737 656.041C958.719 657.034 954.508 656.93 950.545 655.738Z" fill="#131DA6"/>
    <path d="M929.768 635.712C929.768 635.712 939.318 625.33 952.605 630.065C949.654 632.967 945.978 635.022 941.96 636.015C937.942 637.009 933.731 636.904 929.768 635.712Z" fill="#131DA6"/>
    <path d="M947.13 672.281C947.13 672.281 952.236 659.131 966.336 658.695C964.646 662.473 961.972 665.727 958.593 668.117C955.214 670.507 951.255 671.946 947.13 672.281Z" fill="#131DA6"/>
    <path d="M1010.37 691.416C1010.37 691.416 1019.92 681.034 1033.21 685.769C1030.26 688.67 1026.58 690.725 1022.56 691.719C1018.54 692.712 1014.33 692.608 1010.37 691.416Z" fill="#131DA6"/>
    <path d="M903.206 639.086C903.206 639.086 911.141 627.423 924.977 630.172C922.48 633.472 919.142 636.041 915.312 637.61C911.481 639.178 907.301 639.688 903.206 639.086Z" fill="#131DA6"/>
    <path d="M929.637 722.729C929.637 722.729 937.573 711.066 951.408 713.815C948.91 717.115 945.572 719.683 941.742 721.251C937.912 722.819 933.731 723.33 929.637 722.729Z" fill="#131DA6"/>
    <path d="M979.993 657.934C979.993 657.934 987.929 646.271 1001.76 649.02C999.267 652.32 995.929 654.889 992.099 656.457C988.269 658.025 984.088 658.535 979.993 657.934Z" fill="#131DA6"/>
    <path d="M958.732 620.572C958.732 620.572 966.667 608.909 980.503 611.658C978.006 614.958 974.667 617.527 970.837 619.095C967.007 620.663 962.827 621.173 958.732 620.572Z" fill="#131DA6"/>
    <path d="M921.277 624.474C921.277 624.474 926.185 611.249 940.277 610.602C938.644 614.405 936.018 617.699 932.676 620.139C929.333 622.58 925.396 624.077 921.277 624.474Z" fill="#131DA6"/>
    <path d="M981.683 691.243C981.683 691.243 985.283 677.605 999.249 675.596C997.992 679.539 995.698 683.071 992.608 685.824C989.518 688.576 985.744 690.448 981.683 691.243Z" fill="#131DA6"/>
    <path d="M983.235 632.724C983.235 632.724 986.935 627.284 993.391 628.566C992.226 630.105 990.668 631.304 988.882 632.035C987.095 632.767 985.145 633.004 983.235 632.724Z" fill="#131DA6"/>
    <path d="M877.65 659.181C877.65 659.181 889.413 651.395 901.175 659.181C897.613 661.289 893.551 662.402 889.413 662.402C885.274 662.402 881.211 661.289 877.65 659.181Z" fill="#131DA6"/>
    <path d="M1032.42 615.497C1032.42 615.497 1037.28 602.256 1051.37 601.56C1049.75 605.368 1047.14 608.671 1043.8 611.123C1040.47 613.575 1036.54 615.086 1032.42 615.497Z" fill="#131DA6"/>
    <path d="M865.873 584.408C865.873 584.408 877.636 576.622 889.398 584.408C885.837 586.516 881.774 587.628 877.636 587.628C873.497 587.628 869.434 586.516 865.873 584.408Z" fill="#131DA6"/>
    <path d="M687.056 622.697C687.056 622.697 698.819 614.911 710.581 622.697C707.019 624.805 702.957 625.917 698.818 625.917C694.68 625.917 690.617 624.805 687.056 622.697Z" fill="#131DA6"/>
    <path d="M866.002 666.471C866.002 666.471 878.773 660.481 889.276 669.899C885.445 671.466 881.264 671.974 877.169 671.371C873.075 670.768 869.218 669.076 866.002 666.471Z" fill="#131DA6"/>
    <path d="M854.362 640.067C854.362 640.067 867.133 634.078 877.635 643.495C873.804 645.062 869.623 645.57 865.529 644.967C861.435 644.364 857.578 642.672 854.362 640.067Z" fill="#131DA6"/>
    <path d="M856.575 680.488C856.575 680.488 866.283 670.254 879.497 675.188C876.502 678.044 872.794 680.043 868.762 680.976C864.729 681.908 860.52 681.74 856.575 680.488Z" fill="#131DA6"/>
    <path d="M907.845 722.157C907.845 722.157 920.616 716.168 931.118 725.585C927.288 727.151 923.106 727.66 919.012 727.057C914.918 726.454 911.061 724.761 907.845 722.157Z" fill="#131DA6"/>
    <path d="M913.602 540.407C913.602 540.407 926.373 534.418 936.875 543.835C933.045 545.401 928.863 545.91 924.769 545.307C920.675 544.704 916.818 543.011 913.602 540.407Z" fill="#131DA6"/>
    <path d="M934.849 655.825C934.849 655.825 946.612 648.038 958.373 655.825C954.811 657.933 950.749 659.045 946.611 659.045C942.472 659.045 938.41 657.933 934.849 655.825Z" fill="#131DA6"/>
    <path d="M828.5 633.124C828.5 633.124 840.263 625.337 852.025 633.124C848.463 635.232 844.401 636.344 840.263 636.344C836.124 636.344 832.061 635.232 828.5 633.124Z" fill="#131DA6"/>
    <path d="M752.622 710.196C752.622 710.196 762.032 699.688 775.382 704.246C772.469 707.186 768.82 709.29 764.816 710.337C760.812 711.383 756.601 711.335 752.622 710.196Z" fill="#131DA6"/>
    <path d="M718.227 707.348C718.227 707.348 727.637 696.84 740.987 701.398C738.075 704.338 734.425 706.442 730.421 707.489C726.417 708.535 722.206 708.487 718.227 707.348Z" fill="#131DA6"/>
    <path d="M635.512 674.714C635.512 674.714 644.923 664.206 658.272 668.764C655.36 671.704 651.711 673.808 647.707 674.855C643.703 675.902 639.491 675.853 635.512 674.714Z" fill="#131DA6"/>
    <path d="M1103.48 681.228C1103.48 681.228 1115.24 673.441 1127 681.228C1123.44 683.336 1119.38 684.448 1115.24 684.448C1111.1 684.448 1107.04 683.336 1103.48 681.228Z" fill="#131DA6"/>
    <path d="M821.266 720.545C821.266 720.545 833.029 712.759 844.791 720.545C841.23 722.653 837.167 723.765 833.029 723.765C828.89 723.765 824.828 722.653 821.266 720.545Z" fill="#131DA6"/>
    <path d="M880.691 786.383C880.691 786.383 892.454 778.597 904.216 786.383C900.654 788.491 896.592 789.604 892.454 789.604C888.315 789.604 884.252 788.491 880.691 786.383Z" fill="#130B86"/>
    <path d="M953.775 910.109C953.775 910.109 962.62 899.12 976.191 902.97C973.437 906.06 969.904 908.352 965.96 909.608C962.017 910.864 957.808 911.037 953.775 910.109Z" fill="#130B86"/>
    <path d="M833.269 777.5C833.269 777.5 843.311 767.594 856.353 772.968C853.264 775.723 849.493 777.597 845.432 778.394C841.371 779.191 837.17 778.882 833.269 777.5Z" fill="#130B86"/>
    <path d="M611.448 778.028C611.448 778.028 621.49 768.121 634.532 773.496C631.444 776.251 627.671 778.125 623.61 778.922C619.549 779.719 615.349 779.41 611.448 778.028Z" fill="#130B86"/>
    <path d="M440.148 797.881C440.148 797.881 446.803 791.316 455.448 794.881C453.401 796.707 450.901 797.948 448.209 798.476C445.517 799.004 442.733 798.798 440.148 797.881Z" fill="#130B86"/>
    <path d="M892.42 679.662C892.42 679.662 904.182 671.876 915.944 679.662C912.383 681.77 908.32 682.882 904.182 682.882C900.043 682.882 895.981 681.77 892.42 679.662Z" fill="#131DA6"/>
    <path d="M779.57 712.603C779.57 712.603 791.333 704.816 803.095 712.603C799.533 714.711 795.471 715.823 791.333 715.823C787.194 715.823 783.131 714.711 779.57 712.603Z" fill="#131DA6"/>
    <path d="M803.035 816.627C803.035 816.627 814.797 808.84 826.56 816.627C822.998 818.735 818.936 819.847 814.797 819.847C810.659 819.847 806.596 818.735 803.035 816.627Z" fill="#130B86"/>
    <path d="M791.333 655.825C791.333 655.825 803.095 648.038 814.858 655.825C811.296 657.933 807.234 659.045 803.095 659.045C798.957 659.045 794.894 657.933 791.333 655.825Z" fill="#131DA6"/>
    <path d="M582.032 734.084C582.032 734.084 593.795 726.298 605.557 734.084C601.996 736.192 597.933 737.304 593.794 737.304C589.656 737.304 585.593 736.192 582.032 734.084Z" fill="#131DA6"/>
    <path d="M886.899 637.033C886.899 637.033 898.661 629.247 910.424 637.033C906.862 639.141 902.8 640.253 898.661 640.253C894.523 640.253 890.46 639.141 886.899 637.033Z" fill="#131DA6"/>
    <path d="M850.76 626.448C850.76 626.448 860.313 616.07 873.599 620.81C870.647 623.71 866.97 625.764 862.952 626.756C858.934 627.747 854.723 627.641 850.76 626.448Z" fill="#131DA6"/>
    <path d="M1041.84 688.331C1041.84 688.331 1053.6 680.545 1065.36 688.331C1061.8 690.439 1057.74 691.551 1053.6 691.551C1049.46 691.551 1045.4 690.439 1041.84 688.331Z" fill="#131DA6"/>
    <path d="M1038.99 736.327C1038.99 736.327 1050.76 728.541 1062.52 736.327C1058.96 738.435 1054.89 739.548 1050.76 739.548C1046.62 739.548 1042.55 738.435 1038.99 736.327Z" fill="#130B86"/>
    <path d="M1260.08 714.702C1260.08 714.702 1265.79 701.802 1279.89 702.016C1278.03 705.712 1275.21 708.839 1271.72 711.071C1268.24 713.303 1264.21 714.557 1260.08 714.702Z" fill="#130B86"/>
    <path d="M899.596 844.633C899.596 844.633 908.441 833.644 922.012 837.494C919.258 840.584 915.724 842.876 911.781 844.132C907.837 845.388 903.629 845.561 899.596 844.633Z" fill="#130B86"/>
    <path d="M856.273 812.366C856.273 812.366 862.155 808.473 868.036 812.366C866.255 813.42 864.224 813.976 862.154 813.976C860.085 813.976 858.054 813.42 856.273 812.366Z" fill="#130B86"/>
    <path d="M881.361 711.127C881.361 711.127 889.861 699.872 903.547 703.303C900.889 706.476 897.428 708.876 893.525 710.252C889.622 711.629 885.421 711.931 881.361 711.127Z" fill="#131DA6"/>
    <path d="M916.101 738.699C916.101 738.699 924.601 727.443 938.287 730.875C935.629 734.048 932.168 736.448 928.265 737.824C924.362 739.2 920.161 739.503 916.101 738.699Z" fill="#131DA6"/>
    <path d="M990.721 637.026C990.721 637.026 999.221 625.77 1012.91 629.201C1010.25 632.374 1006.79 634.774 1002.89 636.151C998.982 637.527 994.781 637.83 990.721 637.026Z" fill="#131DA6"/>
    <path d="M999.14 594.081C999.14 594.081 1007.64 582.825 1021.33 586.256C1018.67 589.429 1015.21 591.829 1011.3 593.206C1007.4 594.582 1003.2 594.885 999.14 594.081Z" fill="#131DA6"/>
    <path d="M1081.94 565.889C1081.94 565.889 1082.38 551.789 1095.54 546.689C1095.2 550.814 1093.76 554.773 1091.36 558.151C1088.97 561.529 1085.71 564.201 1081.94 565.889Z" fill="#131DA6"/>
    <path d="M904.972 657.559C904.972 657.559 910.459 653.927 915.946 657.559C914.285 658.542 912.39 659.061 910.459 659.061C908.528 659.061 906.634 658.542 904.972 657.559Z" fill="#131DA6"/>
    <path d="M920.63 661.325C920.63 661.325 932.394 653.539 944.155 661.325C940.594 663.433 936.531 664.545 932.393 664.545C928.254 664.545 924.191 663.433 920.63 661.325Z" fill="#131DA6"/>
    <path d="M908.855 586.552C908.855 586.552 920.617 578.765 932.38 586.552C928.818 588.66 924.756 589.772 920.618 589.772C916.479 589.772 912.416 588.66 908.855 586.552Z" fill="#131DA6"/>
    <path d="M908.979 668.615C908.979 668.615 921.751 662.626 932.252 672.043C928.422 673.61 924.24 674.118 920.146 673.515C916.052 672.912 912.195 671.22 908.979 668.615Z" fill="#131DA6"/>
    <path d="M897.342 642.211C897.342 642.211 910.113 636.222 920.615 645.638C916.784 647.205 912.604 647.713 908.509 647.11C904.415 646.508 900.558 644.815 897.342 642.211Z" fill="#131DA6"/>
    <path d="M899.556 682.633C899.556 682.633 909.264 672.398 922.476 677.333C919.481 680.189 915.774 682.188 911.742 683.121C907.71 684.053 903.501 683.885 899.556 682.633Z" fill="#131DA6"/>
    <path d="M950.826 724.302C950.826 724.302 963.597 718.313 974.099 727.73C970.269 729.296 966.087 729.805 961.993 729.202C957.899 728.599 954.042 726.906 950.826 724.302Z" fill="#131DA6"/>
    <path d="M977.831 657.968C977.831 657.968 989.594 650.182 1001.36 657.968C997.795 660.076 993.732 661.188 989.593 661.188C985.455 661.188 981.392 660.076 977.831 657.968Z" fill="#131DA6"/>
    <path d="M871.481 635.267C871.481 635.267 883.244 627.481 895.006 635.267C891.444 637.375 887.382 638.487 883.244 638.487C879.105 638.487 875.042 637.375 871.481 635.267Z" fill="#131DA6"/>
    <path d="M864.247 722.688C864.247 722.688 876.01 714.902 887.771 722.688C884.21 724.796 880.148 725.908 876.009 725.908C871.871 725.908 867.808 724.796 864.247 722.688Z" fill="#131DA6"/>
    <path d="M905.478 795.294C905.478 795.294 914.323 784.305 927.894 788.155C925.14 791.245 921.607 793.537 917.663 794.793C913.72 796.049 909.511 796.222 905.478 795.294Z" fill="#130B86"/>
    <path d="M876.25 779.647C876.25 779.647 886.292 769.74 899.334 775.115C896.245 777.87 892.474 779.744 888.413 780.541C884.352 781.338 880.151 781.029 876.25 779.647Z" fill="#130B86"/>
    <path d="M935.4 681.806C935.4 681.806 947.162 674.019 958.924 681.806C955.363 683.914 951.3 685.026 947.162 685.026C943.023 685.026 938.961 683.914 935.4 681.806Z" fill="#131DA6"/>
    <path d="M846.015 818.77C846.015 818.77 857.778 810.984 869.54 818.77C865.978 820.878 861.916 821.99 857.777 821.99C853.639 821.99 849.576 820.878 846.015 818.77Z" fill="#130B86"/>
    <path d="M929.88 639.178C929.88 639.178 941.642 631.392 953.405 639.178C949.843 641.286 945.781 642.398 941.643 642.398C937.504 642.398 933.441 641.286 929.88 639.178Z" fill="#131DA6"/>
    <path d="M893.74 628.592C893.74 628.592 903.294 618.213 916.579 622.953C913.627 625.853 909.95 627.907 905.932 628.899C901.914 629.891 897.703 629.785 893.74 628.592Z" fill="#131DA6"/>
    <path d="M941.2 833.631C941.2 833.631 950.045 822.642 963.616 826.491C960.862 829.581 957.329 831.873 953.385 833.129C949.442 834.385 945.233 834.559 941.2 833.631Z" fill="#130B86"/>
    <path d="M1080.73 840.151C1080.73 840.151 1082.86 826.207 1096.52 822.716C1095.7 826.771 1093.79 830.528 1091.01 833.596C1088.24 836.663 1084.68 838.927 1080.73 840.151Z" fill="#130B86"/>
    <path d="M1000.99 810.765C1000.99 810.765 1003.11 796.82 1016.78 793.329C1015.95 797.384 1014.05 801.142 1011.27 804.209C1008.49 807.277 1004.94 809.541 1000.99 810.765Z" fill="#130B86"/>
    <path d="M981.282 765.151C981.282 765.151 983.408 751.206 997.075 747.715C996.246 751.77 994.344 755.528 991.565 758.595C988.787 761.662 985.235 763.927 981.282 765.151Z" fill="#130B86"/>
    <path d="M1080.73 773.874C1080.73 773.874 1082.86 759.929 1096.52 756.439C1095.7 760.494 1093.79 764.251 1091.01 767.318C1088.24 770.386 1084.68 772.65 1080.73 773.874Z" fill="#130B86"/>
    <path d="M899.254 814.51C899.254 814.51 905.134 810.616 911.016 814.51C909.235 815.564 907.204 816.12 905.135 816.12C903.066 816.12 901.035 815.564 899.254 814.51Z" fill="#130B86"/>
    <path d="M924.342 713.272C924.342 713.272 932.842 702.016 946.527 705.447C943.869 708.62 940.408 711.02 936.505 712.396C932.603 713.773 928.402 714.075 924.342 713.272Z" fill="#131DA6"/>
    <path d="M959.082 740.844C959.082 740.844 967.582 729.588 981.268 733.019C978.61 736.192 975.149 738.592 971.246 739.968C967.343 741.345 963.142 741.647 959.082 740.844Z" fill="#131DA6"/>
    <path d="M947.952 659.704C947.952 659.704 953.438 656.071 958.925 659.704C957.264 660.687 955.368 661.206 953.438 661.206C951.508 661.206 949.613 660.687 947.952 659.704Z" fill="#131DA6"/>
    <path d="M1074.78 585.917C1074.78 585.917 1080.27 582.285 1085.75 585.917C1084.09 586.9 1082.2 587.419 1080.27 587.419C1078.33 587.419 1076.44 586.9 1074.78 585.917Z" fill="#131DA6"/>
    <path d="M969.337 558.587C969.337 558.587 974.824 554.954 980.311 558.587C978.65 559.57 976.754 560.089 974.824 560.089C972.893 560.089 970.998 559.57 969.337 558.587Z" fill="#131DA6"/>
    <path d="M967.457 682.962C967.457 682.962 972.944 679.33 978.43 682.962C976.768 683.945 974.874 684.464 972.943 684.464C971.013 684.464 969.118 683.945 967.457 682.962Z" fill="#131DA6"/>
    <path d="M973.211 660.031C973.211 660.031 977.545 646.607 991.596 645.353C990.128 649.223 987.647 652.627 984.413 655.209C981.179 657.791 977.31 659.456 973.211 660.031Z" fill="#131890"/>
    <path d="M903.503 714.781C903.503 714.781 907.836 701.357 921.888 700.104C920.42 703.973 917.938 707.377 914.704 709.959C911.47 712.541 907.601 714.206 903.503 714.781Z" fill="#131890"/>
    <path d="M909.329 620.381C909.329 620.381 917.264 608.718 931.1 611.467C928.603 614.768 925.265 617.336 921.435 618.905C917.605 620.473 913.424 620.983 909.329 620.381Z" fill="#1372EC"/>
    <path d="M972.6 694.091C972.6 694.091 974.243 680.08 987.782 676.12C987.094 680.201 985.322 684.022 982.651 687.184C979.98 690.345 976.508 692.731 972.6 694.091Z" fill="#135BE5"/>
    <path d="M957.639 582.318C957.639 582.318 963.75 573.337 974.404 575.453C972.481 577.995 969.91 579.973 966.961 581.181C964.012 582.388 960.792 582.781 957.639 582.318Z" fill="#1397EC"/>
    <path d="M997.898 680.642C997.898 680.642 999.713 672.488 1007.93 670.974C1007.28 673.336 1006 675.48 1004.24 677.181C1002.47 678.882 1000.28 680.077 997.898 680.642Z" fill="#2798EC"/>
    <path d="M935.426 598.348C935.426 598.348 938.482 593.858 943.808 594.917C942.847 596.188 941.562 597.177 940.087 597.78C938.612 598.384 937.002 598.58 935.426 598.348Z" fill="#1372EC"/>
    <path d="M885.055 689.093C885.055 689.093 888.11 684.602 893.437 685.661C892.476 686.932 891.19 687.921 889.716 688.525C888.241 689.128 886.632 689.325 885.055 689.093Z" fill="#1372EC"/>
    <path d="M938.056 660.351C938.056 660.351 941.111 655.86 946.438 656.919C945.477 658.19 944.191 659.179 942.717 659.782C941.242 660.386 939.632 660.583 938.056 660.351Z" fill="#1372EC"/>
    <path d="M944.091 700.478C944.091 700.478 948.425 687.055 962.475 685.801C961.007 689.67 958.526 693.074 955.292 695.656C952.058 698.238 948.189 699.904 944.091 700.478Z" fill="#131890"/>
    <path d="M949.914 606.079C949.914 606.079 957.849 594.416 971.685 597.165C969.187 600.465 965.85 603.034 962.02 604.602C958.19 606.17 954.008 606.681 949.914 606.079Z" fill="#1372EC"/>
    <path d="M1013.19 679.789C1013.19 679.789 1014.83 665.778 1028.37 661.817C1027.68 665.898 1025.91 669.719 1023.24 672.881C1020.57 676.043 1017.1 678.429 1013.19 679.789Z" fill="#1372EC"/>
    <path d="M976.016 584.046C976.016 584.046 979.072 579.556 984.399 580.614C983.437 581.885 982.153 582.874 980.678 583.478C979.203 584.082 977.593 584.278 976.016 584.046Z" fill="#1372EC"/>
    <path d="M925.643 674.791C925.643 674.791 928.698 670.301 934.026 671.359C933.065 672.63 931.779 673.619 930.305 674.223C928.83 674.826 927.22 675.023 925.643 674.791Z" fill="#1372EC"/>
    <path d="M978.64 646.049C978.64 646.049 981.695 641.558 987.022 642.617C986.061 643.888 984.775 644.877 983.301 645.48C981.826 646.084 980.217 646.28 978.64 646.049Z" fill="#1372EC"/>
    <path d="M928.329 681.175C928.329 681.175 937.429 670.394 950.904 674.558C948.079 677.582 944.493 679.792 940.522 680.956C936.551 682.12 932.34 682.196 928.329 681.175Z" fill="#131890"/>
    <path d="M803.51 748.007C803.51 748.007 812.61 737.227 826.085 741.39C823.26 744.415 819.675 746.625 815.703 747.789C811.732 748.953 807.52 749.028 803.51 748.007Z" fill="#131890"/>
    <path d="M843.073 705.43C843.073 705.43 852.173 694.649 865.648 698.813C862.823 701.838 859.238 704.048 855.266 705.212C851.295 706.376 847.083 706.451 843.073 705.43Z" fill="#131890"/>
    <path d="M884.232 620.275C884.232 620.275 895.994 612.489 907.756 620.275C904.195 622.383 900.132 623.496 895.994 623.496C891.855 623.496 887.793 622.383 884.232 620.275Z" fill="#1372EC"/>
    <path d="M1032.42 566.217C1032.42 566.217 1044.18 558.43 1055.94 566.217C1052.38 568.325 1048.32 569.437 1044.18 569.437C1040.04 569.437 1035.98 568.325 1032.42 566.217Z" fill="#1372EC"/>
    <path d="M1082.15 463.239C1082.15 463.239 1093.08 472.147 1089.16 485.696C1086.08 482.924 1083.81 479.378 1082.58 475.427C1081.34 471.476 1081.2 467.267 1082.15 463.239Z" fill="#1381EC"/>
    <path d="M914.857 712.464C914.857 712.464 921.685 700.121 935.715 701.585C933.532 705.101 930.445 707.966 926.775 709.88C923.106 711.794 918.989 712.686 914.857 712.464Z" fill="#1372EC"/>
    <path d="M994.246 668.215C994.246 668.215 1003.09 657.226 1016.66 661.076C1013.91 664.165 1010.37 666.458 1006.43 667.714C1002.49 668.97 998.279 669.143 994.246 668.215Z" fill="#135BE5"/>
    <path d="M1146.8 606.944C1146.8 606.944 1155.64 595.955 1169.21 599.806C1166.46 602.895 1162.93 605.188 1158.98 606.443C1155.04 607.699 1150.83 607.872 1146.8 606.944Z" fill="#1372EC"/>
    <path d="M977.811 654.896C977.811 654.896 986.656 643.908 1000.23 647.758C997.473 650.847 993.94 653.14 989.996 654.395C986.053 655.651 981.844 655.824 977.811 654.896Z" fill="#135BE5"/>
    <path d="M1042.02 627.146C1042.02 627.146 1045.62 613.506 1059.58 611.49C1058.32 615.434 1056.03 618.968 1052.94 621.722C1049.85 624.476 1046.08 626.35 1042.02 627.146Z" fill="#135BE5"/>
    <path d="M1134.85 531.677C1134.85 531.677 1138.46 518.037 1152.42 516.022C1151.16 519.966 1148.87 523.499 1145.78 526.253C1142.69 529.007 1138.92 530.881 1134.85 531.677Z" fill="#1372EC"/>
    <path d="M943.365 603.356C943.365 603.356 952.423 597.356 961.481 603.356C958.738 604.979 955.61 605.836 952.423 605.836C949.236 605.836 946.107 604.979 943.365 603.356Z" fill="#1397EC"/>
    <path d="M867.997 742.087C867.997 742.087 877.055 736.087 886.112 742.087C883.37 743.71 880.242 744.567 877.055 744.567C873.868 744.567 870.739 743.71 867.997 742.087Z" fill="#1397EC"/>
    <path d="M1008.46 614.976C1008.46 614.976 1013.23 608.119 1021.41 609.83C1019.91 611.769 1017.91 613.27 1015.64 614.176C1013.36 615.081 1010.88 615.357 1008.46 614.976Z" fill="#2798EC"/>
    <path d="M943.365 709.604C943.365 709.604 948.135 702.746 956.312 704.458C954.813 706.397 952.821 707.898 950.543 708.803C948.265 709.709 945.786 709.985 943.365 709.604Z" fill="#2798EC"/>
    <path d="M1014.93 704.087C1014.93 704.087 1019.7 697.23 1027.88 698.941C1026.38 700.88 1024.39 702.381 1022.11 703.286C1019.83 704.191 1017.35 704.468 1014.93 704.087Z" fill="#2798EC"/>
    <path d="M855.706 825.297C855.706 825.297 860.476 818.44 868.652 820.151C867.153 822.09 865.161 823.591 862.883 824.497C860.606 825.402 858.127 825.678 855.706 825.297Z" fill="#2798EC"/>
    <path d="M1065.05 598.924C1065.05 598.924 1066.08 592.741 1072.17 591.273C1071.78 593.069 1070.91 594.727 1069.66 596.073C1068.4 597.419 1066.81 598.404 1065.05 598.924Z" fill="#63C7EC"/>
    <path d="M1095.91 506.343C1095.91 506.343 1092.09 501.374 1095.17 495.917C1096.22 497.429 1096.84 499.195 1096.97 501.029C1097.1 502.863 1096.73 504.699 1095.91 506.343Z" fill="#63C7EC"/>
    <path d="M916.733 609.776C916.733 609.776 921.262 606.776 925.791 609.776C924.42 610.588 922.856 611.016 921.262 611.016C919.669 611.016 918.104 610.588 916.733 609.776Z" fill="#1372EC"/>
    <path d="M798.567 616.854C798.567 616.854 803.095 613.854 807.625 616.854C806.254 617.666 804.69 618.094 803.096 618.094C801.503 618.094 799.938 617.666 798.567 616.854Z" fill="#1372EC"/>
    <path d="M835.734 674.668C835.734 674.668 840.263 671.668 844.792 674.668C843.421 675.48 841.856 675.908 840.263 675.908C838.669 675.908 837.105 675.48 835.734 674.668Z" fill="#1372EC"/>
    <path d="M895.67 668.15C895.67 668.15 900.198 665.15 904.728 668.15C903.357 668.962 901.793 669.39 900.199 669.39C898.606 669.39 897.041 668.962 895.67 668.15Z" fill="#1372EC"/>
    <path d="M935.056 765.093C935.056 765.093 939.585 762.093 944.115 765.093C942.744 765.905 941.179 766.333 939.585 766.333C937.992 766.333 936.428 765.905 935.056 765.093Z" fill="#1372EC"/>
    <path d="M932.347 538.57C932.347 538.57 936.875 535.57 941.404 538.57C940.033 539.382 938.469 539.81 936.875 539.81C935.282 539.81 933.718 539.382 932.347 538.57Z" fill="#1372EC"/>
    <path d="M1065.47 556.882C1065.47 556.882 1064.28 542.826 1076.75 536.239C1076.89 540.375 1075.92 544.473 1073.94 548.105C1071.95 551.736 1069.03 554.768 1065.47 556.882Z" fill="#1334BD"/>
    <path d="M1073.61 524.133C1073.61 524.133 1063.47 514.333 1068.52 501.165C1071.35 504.186 1073.32 507.912 1074.21 511.952C1075.11 515.993 1074.9 520.2 1073.61 524.133Z" fill="#1334BD"/>
    <path d="M971.31 683.32C971.31 683.32 980.41 672.539 993.885 676.703C991.06 679.728 987.474 681.937 983.503 683.101C979.532 684.266 975.321 684.341 971.31 683.32Z" fill="#131890"/>
    <path d="M846.49 750.152C846.49 750.152 855.59 739.371 869.065 743.534C866.24 746.559 862.655 748.769 858.683 749.933C854.712 751.097 850.5 751.173 846.49 750.152Z" fill="#131890"/>
    <path d="M886.054 707.573C886.054 707.573 895.154 696.793 908.629 700.956C905.804 703.981 902.219 706.191 898.247 707.355C894.276 708.519 890.064 708.595 886.054 707.573Z" fill="#131890"/>
    <path d="M927.211 622.42C927.211 622.42 938.973 614.634 950.736 622.42C947.174 624.528 943.112 625.64 938.973 625.64C934.835 625.64 930.772 624.528 927.211 622.42Z" fill="#1372EC"/>
    <path d="M957.838 714.608C957.838 714.608 964.666 702.264 978.696 703.729C976.513 707.245 973.426 710.11 969.756 712.023C966.087 713.937 961.97 714.83 957.838 714.608Z" fill="#1372EC"/>
    <path d="M986.346 605.499C986.346 605.499 995.404 599.499 1004.46 605.499C1001.72 607.122 998.591 607.979 995.404 607.979C992.217 607.979 989.088 607.122 986.346 605.499Z" fill="#1397EC"/>
    <path d="M910.978 744.232C910.978 744.232 920.036 738.232 929.093 744.232C926.351 745.855 923.222 746.712 920.036 746.712C916.849 746.712 913.72 745.855 910.978 744.232Z" fill="#1397EC"/>
    <path d="M986.346 711.748C986.346 711.748 991.117 704.89 999.293 706.602C997.794 708.541 995.801 710.042 993.523 710.947C991.246 711.852 988.767 712.129 986.346 711.748Z" fill="#2798EC"/>
    <path d="M898.687 827.442C898.687 827.442 903.457 820.584 911.634 822.296C910.135 824.235 908.142 825.736 905.865 826.641C903.587 827.547 901.108 827.823 898.687 827.442Z" fill="#2798EC"/>
    <path d="M959.714 611.92C959.714 611.92 964.243 608.92 968.772 611.92C967.401 612.732 965.837 613.16 964.243 613.16C962.65 613.16 961.086 612.732 959.714 611.92Z" fill="#1372EC"/>
    <path d="M878.714 676.814C878.714 676.814 883.243 673.814 887.772 676.814C886.401 677.626 884.836 678.054 883.243 678.054C881.649 678.054 880.085 677.626 878.714 676.814Z" fill="#1372EC"/>
    <path d="M938.65 670.294C938.65 670.294 943.179 667.294 947.708 670.294C946.337 671.106 944.773 671.534 943.179 671.534C941.586 671.534 940.021 671.106 938.65 670.294Z" fill="#1372EC"/>
    <path d="M978.039 767.236C978.039 767.236 982.568 764.236 987.098 767.236C985.727 768.048 984.162 768.476 982.568 768.476C980.975 768.476 979.411 768.048 978.039 767.236Z" fill="#1372EC"/>
    <path d="M1016.88 633.791C1016.88 633.791 1020.73 628.451 1027.14 629.903C1025.94 631.411 1024.35 632.568 1022.54 633.252C1020.74 633.936 1018.78 634.122 1016.88 633.791Z" fill="#1334BD"/>
    <path d="M1042.44 556.233C1042.44 556.233 1040.77 549.868 1045.97 545.844C1046.37 547.733 1046.25 549.695 1045.63 551.522C1045.01 553.35 1043.91 554.977 1042.44 556.233Z" fill="#1334BD"/>
    <path d="M1001.81 650.998C1001.81 650.998 1008.01 642.081 1018.65 644.307C1016.7 646.828 1014.11 648.78 1011.15 649.957C1008.18 651.134 1004.96 651.494 1001.81 650.998Z" fill="#279FEC"/>
    <path d="M1028.97 634.797C1028.97 634.797 1030 628.614 1036.09 627.146C1035.7 628.942 1034.83 630.6 1033.58 631.946C1032.33 633.292 1030.73 634.277 1028.97 634.797Z" fill="#279FEC"/>
    <path d="M1062.83 621.302C1062.83 621.302 1059.73 610.89 1068.11 603.972C1068.86 607.069 1068.77 610.311 1067.84 613.359C1066.91 616.408 1065.18 619.151 1062.83 621.302Z" fill="#279FEC"/>
    <path d="M901.367 521.346C901.367 521.346 910.425 515.346 919.482 521.346C916.74 522.969 913.612 523.826 910.425 523.826C907.238 523.826 904.11 522.969 901.367 521.346Z" fill="#27C7EC"/>
    <path d="M972.022 568.148C972.022 568.148 982.595 565.655 989.022 574.414C985.887 574.989 982.655 574.711 979.664 573.608C976.673 572.506 974.034 570.62 972.022 568.148Z" fill="#27C7EC"/>
    <path d="M1003.85 538.747C1003.85 538.747 1012.82 532.617 1021.96 538.479C1019.25 540.143 1016.13 541.045 1012.94 541.092C1009.76 541.139 1006.62 540.329 1003.85 538.747Z" fill="#27C7EC"/>
    <path d="M1080.27 619.684C1080.27 619.684 1086.47 610.766 1097.1 612.993C1095.16 615.514 1092.56 617.466 1089.6 618.643C1086.64 619.82 1083.42 620.18 1080.27 619.684Z" fill="#27C7EC"/>
    <path d="M1081.46 556.94C1081.46 556.94 1076 547.553 1082.5 538.855C1083.97 541.686 1084.64 544.858 1084.46 548.04C1084.28 551.221 1083.24 554.295 1081.46 556.94Z" fill="#27C7EC"/>
    <path d="M1094.18 584.304C1094.18 584.304 1087.36 575.849 1092.48 566.268C1094.35 568.846 1095.5 571.88 1095.8 575.053C1096.1 578.226 1095.54 581.421 1094.18 584.304Z" fill="#27C7EC"/>
    <path d="M1055.01 593.699C1055.01 593.699 1054.46 582.851 1064.22 578.099C1064.23 581.286 1063.37 584.416 1061.75 587.161C1060.13 589.905 1057.8 592.163 1055.01 593.699Z" fill="#27C7EC"/>
    <path d="M1071.9 607.283C1071.9 607.283 1068.04 597.128 1075.88 589.612C1076.86 592.644 1077.01 595.884 1076.31 598.993C1075.61 602.102 1074.09 604.965 1071.9 607.283Z" fill="#27C7EC"/>
    <path d="M1015.09 656.189C1015.09 656.189 1016.12 650.006 1022.21 648.538C1021.82 650.334 1020.95 651.992 1019.7 653.338C1018.44 654.684 1016.85 655.669 1015.09 656.189Z" fill="#27C7EC"/>
    <path d="M1123.44 571.646C1123.44 571.646 1124.47 565.463 1130.56 563.995C1130.17 565.791 1129.3 567.449 1128.05 568.795C1126.8 570.141 1125.21 571.126 1123.44 571.646Z" fill="#27C7EC"/>
    <path d="M1037.65 595.098C1037.65 595.098 1035.67 589.151 1040.37 585.007C1040.86 586.779 1040.87 588.65 1040.39 590.426C1039.91 592.201 1038.96 593.815 1037.65 595.098Z" fill="#27C7EC"/>
    <path d="M1071.61 583.603C1071.61 583.603 1068.52 573.192 1076.89 566.274C1077.65 569.37 1077.55 572.612 1076.63 575.661C1075.7 578.709 1073.97 581.452 1071.61 583.603Z" fill="#27C7EC"/>
    <path d="M1144.19 504.581C1144.19 504.581 1141.09 494.17 1149.47 487.252C1150.23 490.348 1150.13 493.59 1149.21 496.639C1148.28 499.688 1146.55 502.431 1144.19 504.581Z" fill="#27C7EC"/>
    <path d="M980.602 682.967C980.602 682.967 986.802 674.05 997.436 676.276C995.487 678.797 992.897 680.749 989.935 681.926C986.974 683.103 983.75 683.462 980.602 682.967Z" fill="#27C7EC"/>
    <path d="M1056.44 648.679C1056.44 648.679 1064.24 641.117 1074.24 645.34C1071.85 647.44 1068.93 648.858 1065.8 649.445C1062.67 650.033 1059.44 649.768 1056.44 648.679Z" fill="#27C7EC"/>
    <path d="M897.872 553.75C897.872 553.75 903.344 544.366 914.119 545.736C912.378 548.405 909.951 550.557 907.093 551.967C904.235 553.377 901.05 553.993 897.872 553.75Z" fill="#27C7EC"/>
    <path d="M981.943 564.467C981.943 564.467 990.322 557.554 999.959 562.567C997.402 564.469 994.38 565.649 991.211 565.983C988.042 566.317 984.841 565.794 981.943 564.467Z" fill="#27C7EC"/>
    <path d="M997.482 524.018C997.482 524.018 1002.81 514.554 1013.61 515.764C1011.91 518.459 1009.51 520.646 1006.67 522.099C1003.84 523.551 1000.66 524.214 997.482 524.018Z" fill="#27C7EC"/>
    <path d="M1101.81 562.803C1101.81 562.803 1103.43 552.062 1113.95 549.355C1113.32 552.479 1111.86 555.375 1109.72 557.741C1107.59 560.106 1104.86 561.855 1101.81 562.803Z" fill="#27C7EC"/>
    <path d="M1067.67 550.668C1067.67 550.668 1062.37 541.184 1069.03 532.604C1070.44 535.461 1071.06 538.645 1070.82 541.823C1070.58 545.001 1069.49 548.055 1067.67 550.668Z" fill="#27C7EC"/>
    <path d="M1059.51 624.372C1059.51 624.372 1057.7 618.372 1062.51 614.36C1062.96 616.145 1062.91 618.015 1062.38 619.777C1061.86 621.538 1060.86 623.125 1059.51 624.372Z" fill="#27C7EC"/>
    <path d="M1065 448.691C1065 448.691 1059.33 446.015 1059.58 439.753C1061.2 440.621 1062.56 441.908 1063.51 443.48C1064.47 445.053 1064.98 446.852 1065 448.691Z" fill="#27C7EC"/>
    <path d="M1015.12 690.454C1015.12 690.454 1016.11 684.264 1022.19 682.748C1021.81 684.548 1020.95 686.212 1019.71 687.568C1018.47 688.924 1016.88 689.92 1015.12 690.454Z" fill="#27C7EC"/>
    <path d="M1119.29 500.618C1119.29 500.618 1117.48 494.618 1122.29 490.605C1122.73 492.39 1122.69 494.261 1122.16 496.022C1121.63 497.784 1120.64 499.371 1119.29 500.618Z" fill="#27C7EC"/>
    <path d="M1052.72 559.603C1052.72 559.603 1048.32 555.145 1050.7 549.348C1051.92 550.719 1052.76 552.395 1053.11 554.199C1053.47 556.003 1053.33 557.87 1052.72 559.603Z" fill="#27C7EC"/>
    <path d="M1078.1 534.269C1078.1 534.269 1070.71 526.301 1075.16 516.392C1077.21 518.836 1078.56 521.784 1079.08 524.929C1079.59 528.074 1079.26 531.3 1078.1 534.269Z" fill="#27C7EC"/>
    <path d="M1057.7 484.713C1057.7 484.713 1048.09 479.649 1049 468.824C1051.74 470.45 1053.99 472.782 1055.52 475.578C1057.05 478.373 1057.81 481.528 1057.7 484.713Z" fill="#27C7EC"/>
    <path d="M1108.23 431.292C1108.23 431.292 1100.85 423.324 1105.3 413.416C1107.34 415.859 1108.69 418.808 1109.21 421.952C1109.73 425.097 1109.39 428.323 1108.23 431.292Z" fill="#27C7EC"/>
    <path d="M1040.43 663.644C1040.43 663.644 1042.05 652.903 1052.57 650.196C1051.94 653.32 1050.48 656.216 1048.34 658.582C1046.21 660.947 1043.47 662.696 1040.43 663.644Z" fill="#27C7EC"/>
    <path d="M1093.28 599.342C1093.28 599.342 1096.92 589.11 1107.77 588.471C1106.55 591.415 1104.56 593.978 1102.01 595.89C1099.46 597.803 1096.44 598.995 1093.28 599.342Z" fill="#27C7EC"/>
</svg>