<svg xmlns="http://www.w3.org/2000/svg" width="1920" height="1080" viewBox="0 0 1920 1080" fill="none">
    <path d="M288.295 520.293C288.295 521.32 287.992 522.323 287.425 523.177C286.857 524.03 286.05 524.695 285.107 525.088C284.163 525.481 283.124 525.584 282.122 525.384C281.12 525.183 280.2 524.689 279.477 523.963C278.755 523.237 278.263 522.313 278.064 521.306C277.864 520.299 277.966 519.256 278.357 518.308C278.748 517.359 279.411 516.549 280.26 515.978C281.11 515.408 282.108 515.104 283.13 515.104C283.808 515.104 284.48 515.238 285.107 515.499C285.733 515.759 286.303 516.142 286.782 516.624C287.262 517.105 287.642 517.678 287.902 518.307C288.162 518.937 288.295 519.612 288.295 520.293Z" fill="#95BBF9"/>
    <path d="M296.295 574.892C296.295 575.919 295.992 576.922 295.424 577.776C294.857 578.629 294.05 579.294 293.106 579.687C292.162 580.08 291.124 580.183 290.122 579.982C289.12 579.782 288.199 579.288 287.477 578.562C286.755 577.836 286.263 576.912 286.063 575.905C285.864 574.898 285.967 573.855 286.357 572.906C286.748 571.958 287.41 571.148 288.26 570.577C289.109 570.007 290.108 569.703 291.13 569.703C292.5 569.703 293.813 570.249 294.782 571.223C295.751 572.196 296.295 573.516 296.295 574.892Z" fill="#95BBF9"/>
    <path d="M87.2719 989.011C87.2719 990.037 86.969 991.041 86.4015 991.894C85.8341 992.747 85.0277 993.412 84.0841 993.805C83.1404 994.198 82.1017 994.301 81.0999 994.1C80.0981 993.9 79.1781 993.406 78.4559 992.68C77.7336 991.955 77.2419 991.03 77.0426 990.023C76.8434 989.017 76.9454 987.974 77.3363 987.026C77.7272 986.078 78.3894 985.267 79.2387 984.697C80.0879 984.127 81.0863 983.823 82.1077 983.823C83.4774 983.823 84.791 984.369 85.7595 985.342C86.728 986.315 87.2719 987.635 87.2719 989.011Z" fill="#95BBF9"/>
    <path d="M204.457 633.618C204.457 634.644 204.155 635.648 203.587 636.501C203.02 637.355 202.213 638.02 201.269 638.413C200.326 638.806 199.287 638.909 198.285 638.709C197.283 638.509 196.362 638.015 195.64 637.289C194.917 636.563 194.425 635.639 194.226 634.632C194.027 633.625 194.129 632.582 194.52 631.633C194.911 630.685 195.573 629.874 196.422 629.304C197.272 628.734 198.27 628.429 199.292 628.429C200.662 628.429 201.975 628.976 202.944 629.949C203.913 630.922 204.457 632.242 204.457 633.618Z" fill="#95BBF9"/>
    <path d="M279.907 565.955C279.907 566.661 279.698 567.351 279.308 567.938C278.917 568.525 278.362 568.982 277.713 569.252C277.064 569.522 276.35 569.593 275.66 569.455C274.971 569.317 274.338 568.977 273.841 568.478C273.344 567.978 273.006 567.342 272.869 566.65C272.732 565.957 272.803 565.239 273.071 564.587C273.34 563.935 273.796 563.377 274.38 562.985C274.965 562.593 275.651 562.384 276.354 562.384C276.821 562.384 277.283 562.476 277.714 562.655C278.145 562.835 278.537 563.098 278.867 563.43C279.197 563.761 279.458 564.155 279.637 564.588C279.815 565.021 279.907 565.486 279.907 565.955Z" fill="#95BBF9"/>
    <path d="M90.8261 974.065C90.8261 974.772 90.6176 975.462 90.2271 976.049C89.8365 976.637 89.2814 977.094 88.632 977.364C87.9825 977.635 87.2681 977.705 86.5786 977.568C85.8892 977.43 85.2556 977.09 84.7585 976.59C84.2615 976.091 83.9232 975.455 83.7861 974.762C83.6489 974.069 83.7193 973.351 83.9883 972.699C84.2573 972.046 84.713 971.489 85.2975 971.096C85.882 970.704 86.569 970.494 87.272 970.494C87.7387 970.494 88.2007 970.587 88.632 970.766C89.0632 970.946 89.4553 971.209 89.7854 971.54C90.1154 971.872 90.377 972.266 90.5556 972.699C90.7342 973.132 90.8261 973.596 90.8261 974.065Z" fill="#95BBF9"/>
    <path d="M93.112 1080C95.075 1080 96.6662 1078.4 96.6662 1076.43C96.6662 1074.46 95.075 1072.86 93.112 1072.86C91.1491 1072.86 89.5579 1074.46 89.5579 1076.43C89.5579 1078.4 91.1491 1080 93.112 1080Z" fill="#95BBF9"/>
    <path d="M384 364.219C384 364.925 383.791 365.616 383.401 366.203C383.01 366.79 382.456 367.248 381.806 367.518C381.157 367.788 380.442 367.859 379.752 367.721C379.063 367.584 378.43 367.243 377.933 366.744C377.436 366.245 377.097 365.608 376.96 364.916C376.823 364.223 376.893 363.505 377.162 362.852C377.431 362.2 377.887 361.642 378.471 361.25C379.056 360.857 379.743 360.648 380.446 360.648C381.388 360.648 382.293 361.024 382.959 361.694C383.626 362.363 384 363.272 384 364.219Z" fill="#95BBF9"/>
    <path d="M356.168 292.315C356.168 293.021 355.96 293.711 355.569 294.299C355.179 294.886 354.623 295.344 353.974 295.614C353.325 295.884 352.61 295.955 351.921 295.817C351.231 295.679 350.598 295.339 350.101 294.84C349.604 294.34 349.265 293.704 349.128 293.011C348.991 292.319 349.061 291.601 349.33 290.948C349.599 290.296 350.055 289.738 350.64 289.345C351.224 288.953 351.911 288.744 352.614 288.744C353.557 288.744 354.461 289.12 355.127 289.79C355.794 290.459 356.168 291.368 356.168 292.315Z" fill="#95BBF9"/>
    <path d="M378.297 300.268C379.559 300.268 380.582 299.24 380.582 297.972C380.582 296.704 379.559 295.677 378.297 295.677C377.035 295.677 376.012 296.704 376.012 297.972C376.012 299.24 377.035 300.268 378.297 300.268Z" fill="#95BBF9"/>
    <path d="M68.5696 942.515C68.5696 942.969 68.4355 943.413 68.1845 943.79C67.9335 944.168 67.5767 944.462 67.1593 944.636C66.7418 944.81 66.2826 944.855 65.8394 944.767C65.3962 944.678 64.9892 944.46 64.6696 944.139C64.35 943.818 64.1323 943.409 64.044 942.964C63.9557 942.518 64.0009 942.057 64.1737 941.637C64.3465 941.218 64.6389 940.859 65.0145 940.607C65.3902 940.354 65.8317 940.219 66.2836 940.219C66.5837 940.219 66.881 940.278 67.1583 940.394C67.4357 940.509 67.6877 940.678 67.9 940.891C68.1123 941.104 68.2805 941.358 68.3954 941.636C68.5103 941.915 68.5696 942.214 68.5696 942.515Z" fill="#95BBF9"/>
    <path d="M82.8034 1039.53C82.8034 1039.99 82.6693 1040.43 82.4182 1040.81C82.1672 1041.19 81.8101 1041.48 81.3925 1041.66C80.975 1041.83 80.5159 1041.87 80.0727 1041.79C79.6295 1041.7 79.2219 1041.48 78.9024 1041.16C78.5828 1040.84 78.3654 1040.43 78.2773 1039.98C78.1891 1039.54 78.2345 1039.08 78.4074 1038.66C78.5804 1038.24 78.873 1037.88 79.2488 1037.63C79.6245 1037.37 80.0664 1037.24 80.5183 1037.24C81.1243 1037.24 81.7053 1037.48 82.1338 1037.91C82.5623 1038.34 82.8034 1038.93 82.8034 1039.53Z" fill="#95BBF9"/>
    <path d="M93.111 1002.35C93.111 1002.8 92.9769 1003.24 92.7259 1003.62C92.4748 1004 92.1177 1004.29 91.7002 1004.47C91.2827 1004.64 90.8236 1004.69 90.3803 1004.6C89.9371 1004.51 89.53 1004.29 89.2105 1003.97C88.8909 1003.65 88.6731 1003.24 88.5849 1002.79C88.4967 1002.35 88.5421 1001.89 88.715 1001.47C88.888 1001.05 89.1806 1000.69 89.5564 1000.44C89.9321 1000.18 90.374 1000.05 90.8259 1000.05C91.4319 1000.05 92.0134 1000.29 92.4419 1000.72C92.8704 1001.15 93.111 1001.74 93.111 1002.35Z" fill="#95BBF9"/>
    <path d="M370.816 222.296C370.816 222.75 370.682 223.194 370.431 223.571C370.18 223.949 369.823 224.243 369.405 224.417C368.987 224.59 368.528 224.636 368.085 224.547C367.642 224.459 367.235 224.24 366.915 223.919C366.596 223.598 366.378 223.189 366.29 222.744C366.202 222.298 366.247 221.837 366.42 221.417C366.593 220.998 366.885 220.639 367.261 220.387C367.637 220.135 368.079 220 368.531 220C368.831 220 369.128 220.059 369.405 220.175C369.683 220.29 369.934 220.459 370.147 220.672C370.359 220.885 370.527 221.138 370.642 221.417C370.757 221.696 370.816 221.994 370.816 222.296Z" fill="#95BBF9"/>
    <path d="M129.82 838.933C129.82 839.387 129.686 839.83 129.434 840.208C129.183 840.585 128.827 840.879 128.409 841.053C127.992 841.226 127.533 841.272 127.089 841.183C126.646 841.095 126.239 840.876 125.92 840.555C125.6 840.234 125.383 839.825 125.294 839.38C125.206 838.935 125.251 838.473 125.424 838.053C125.597 837.634 125.889 837.275 126.265 837.023C126.641 836.771 127.082 836.636 127.534 836.636C128.14 836.636 128.722 836.878 129.15 837.309C129.579 837.739 129.82 838.323 129.82 838.933Z" fill="#95BBF9"/>
    <path d="M93.1109 775.934C93.1107 776.388 92.9765 776.832 92.7253 777.209C92.4742 777.587 92.1172 777.881 91.6997 778.055C91.2821 778.228 90.823 778.273 90.3798 778.185C89.9366 778.096 89.5294 777.877 89.2099 777.556C88.8905 777.235 88.6729 776.826 88.5849 776.381C88.4968 775.936 88.542 775.474 88.715 775.055C88.888 774.635 89.1811 774.277 89.5568 774.025C89.9326 773.772 90.374 773.638 90.8259 773.638C91.126 773.638 91.4233 773.697 91.7006 773.812C91.9779 773.928 92.2296 774.097 92.4418 774.31C92.654 774.524 92.8225 774.777 92.9373 775.056C93.052 775.334 93.1111 775.633 93.1109 775.934Z" fill="#95BBF9"/>
    <path d="M206.742 580.081C209.176 580.081 211.15 578.098 211.15 575.652C211.15 573.206 209.176 571.223 206.742 571.223C204.307 571.223 202.333 573.206 202.333 575.652C202.333 578.098 204.307 580.081 206.742 580.081Z" fill="#95BBF9"/>
</svg>