<svg xmlns="http://www.w3.org/2000/svg" width="1920" height="1080" viewBox="0 0 1920 1080" fill="none">
    <g clip-path="url(#clip0_215_58712)">
        <g opacity="0.1">
            <path d="M2451.95 215.304C2429.96 219.05 2406.31 217.384 2383.46 215.579C2363.66 214.012 2344.46 212.591 2324.1 212.146C2280.48 211.186 2237.8 217.003 2195.83 219.962C2175.14 221.424 2155.03 222.961 2134.9 225.163C2110.74 227.796 2086.98 231.546 2061.48 232.422C2041.61 233.102 2022.09 231.615 2002.16 232.35C2000.55 232.404 1998.95 232.484 1997.34 232.563C1986.05 231.75 1974.9 230.743 1963.88 229.544C1943.16 227.28 1923.25 224.173 1903.55 220.914C1909.4 219.963 1914.02 218.411 1904.63 218.417C1899.37 218.417 1894.1 218.446 1888.82 218.464C1875.09 216.159 1861.37 213.867 1847.45 211.809C1809.25 206.17 1770.75 203.415 1728.99 202.702C1685.05 201.953 1643.38 205.115 1600.2 207.111C1557.13 209.104 1513.63 210.029 1470.19 210.478C1426.31 210.933 1381.31 211.361 1337.68 209.559C1293.79 207.747 1251.09 203.58 1208.08 200.292C1185.62 198.582 1162.96 197.153 1140.06 196.267C1113.22 195.229 1086.92 195.855 1060.04 196.003C1034.43 196.137 1008.85 195.46 983.24 195.536C971.427 195.573 960.047 195.872 948.433 196.549C935.868 197.28 922.296 198.625 909.361 198.965C909.434 198.944 909.508 198.927 909.582 198.914C947.808 189.449 992.066 178.855 1039.25 174.039C1051.74 174.588 1064.22 174.928 1076.63 174.831C1078.02 174.821 1084.49 173.637 1080.94 173.294C1075.87 172.814 1070.68 172.397 1065.46 172.018C1069.16 171.823 1072.88 171.672 1076.62 171.566C1096.61 172.878 1116.84 173.765 1137.17 174.206L1137.27 174.216C1137.81 174.268 1138.35 174.28 1138.89 174.253C1149.85 174.477 1160.84 174.571 1171.84 174.535C1218.16 174.361 1262.95 170.347 1309.38 170.716C1356.57 171.1 1403.27 173.776 1450.54 173.87C1495.37 173.966 1540.02 172.119 1584.38 170.17C1629.2 168.203 1670.73 170.477 1715.07 172.456C1734.47 173.32 1754.15 173.801 1773.71 173.349C1794.07 172.886 1813.93 170.586 1833.08 168.412C1844.08 167.164 1854.82 166.107 1865.58 165.27C1891.53 165.006 1917.4 164.501 1942.81 164.015C1944.38 163.904 1945.95 163.68 1947.49 163.342C1974.49 163.899 2001.39 165.053 2028.44 165.386C2035.01 165.462 2049.19 161.523 2037.72 161.176C1991.37 159.773 1945.07 157.455 1898.45 158.67C1878.97 159.172 1860.53 161.071 1842.19 163.088C1805.46 163.287 1769.64 162.588 1733.4 160.531C1661.11 156.416 1590.1 150.006 1520.47 142.418C1491.82 139.297 1463.13 136.255 1436.38 131.589C1412.73 127.47 1389.93 122.814 1366.1 118.797C1365.77 118.746 1365.46 118.692 1365.14 118.637C1367.19 118.525 1369.25 118.402 1371.25 118.253C1396.67 116.344 1418.71 111.946 1445.04 111.088C1471.8 110.216 1498.68 111.504 1525.41 110.839C1588.02 109.276 1649.83 107.07 1712.75 108.188C1774.86 109.291 1835.66 114.615 1897.76 115.042C1913.1 115.146 1928.39 115.205 1943.68 115.602C1957.1 115.953 1970.69 117.44 1983.77 118.442C2008.06 120.304 2030.48 120.369 2054.22 117.787C2058.47 117.327 2060.77 116.195 2054.61 116.666C2031.68 118.417 2010.17 117.059 1987.8 115.262C1964.22 113.368 1941.7 112.702 1917.45 112.536C1870.46 112.218 1825.08 108.684 1778.54 106.814C1733.27 104.999 1688.14 104.749 1642.63 105.154C1596.38 105.574 1550.74 108.138 1504.43 107.78C1485.3 107.628 1466.18 107.628 1447.16 108.394C1428.88 109.132 1412.15 111.425 1395.23 113.711C1380.97 115.632 1365.1 116.135 1349.37 116.174C1315.21 111.215 1278.83 108.63 1243.96 113.197C1227.66 112.285 1212.24 111.305 1195.51 110.891C1172.05 110.315 1148.34 111.195 1124.8 110.869C1102.52 110.552 1080.65 108.706 1058.32 108.24C1037.29 107.802 1016.14 108.24 995.222 108.942C962.63 110.031 930.377 112.008 897.855 113.271C864.855 114.556 831.672 115.232 798.651 116.429C767.052 117.568 736.001 119.413 705.454 122.339C690.098 123.814 674.152 124.607 658.415 125.489C642.397 126.382 626.949 127.638 610.585 127.337C595.882 127.077 581.394 125.948 566.746 125.471C554.453 125.073 541.838 125.268 529.493 125.189C498.238 124.986 469.81 125.691 440.029 128.979C423.317 130.826 407.015 132.968 389.894 134.389C380.49 135.17 370.317 135.022 360.744 135.503C348.738 136.096 334.185 137.351 327.473 141.051C326.807 141.41 330.337 140.763 330.753 140.596C339.903 136.958 362.801 137.96 375.46 137.591C394.827 137.034 413.96 134.115 432.175 132.054C477.254 126.947 529.877 127.591 576.494 130.054C617.024 132.195 660.829 129.118 699.995 125.363C747.263 120.828 796.504 119.569 845.317 118.09C889.524 116.752 933.157 114.248 977.205 112.51C999.286 111.631 1021.44 111.329 1043.67 111.602C1067.84 111.942 1091.33 113.921 1115.51 114.236C1137.18 114.524 1158.87 113.795 1180.54 114.113C1202.55 114.442 1224.32 116.207 1246.07 117.277C1267.31 118.326 1288.99 118.822 1310.43 119.154C1322.38 119.346 1335.22 119.502 1347.77 119.263C1360.33 121.28 1372.37 123.494 1383.59 125.578C1404.55 129.466 1425.08 133.628 1446.92 136.967C1476 141.405 1508.14 144.305 1538.63 147.477C1603.24 154.2 1669.26 159.683 1736.17 163.22C1763.93 164.689 1792.33 165.293 1820.87 165.416C1807.11 166.862 1793.2 168.11 1778.75 168.628C1736.31 170.143 1692.54 165.51 1650.36 164.465C1606.15 163.373 1561.69 166.849 1517.78 168.158C1469.78 169.59 1422.63 168.734 1374.77 167.218C1328.3 165.742 1284.06 165.489 1237.91 167.998C1192.89 170.317 1147.78 170.221 1102.77 167.71C1057.43 165.294 1014.45 159.888 970.623 155.558C927.927 151.344 885.701 150.115 841.504 149.048C795.445 147.93 749.343 146.95 703.142 147.493C659.621 147.865 616.147 150.464 572.892 155.28C527.87 160.42 483.659 166.319 437.01 169.7C390.928 173.042 343.183 171.386 296.426 172.029C275.42 172.318 255.543 173.932 234.916 175.147C214.394 176.358 193.667 177.415 174.792 180.478C159.137 183.021 145.307 186.652 130.44 189.636C111.506 193.438 91.1878 196.584 70.9051 199.492C27.2395 205.753 -16.8189 210.32 -64.672 210.345C-101.589 210.37 -138.747 207.752 -175.58 208.313C-196.098 208.628 -221.321 210.726 -236.446 215.612C-240.338 216.874 -235.842 217.876 -232.2 216.882C-203.537 209.045 -157.297 212.397 -124.258 213.478C-79.6626 214.943 -36.2814 215.344 7.07399 211.142C46.9967 207.275 85.9994 202.006 122.515 195.398C137.892 192.613 152.273 189.443 167.062 186.334C186.841 182.182 209.255 181.097 231.91 179.774C254.808 178.438 276.75 177.003 300.068 176.775C313.765 176.645 327.468 176.679 341.165 176.703C340.446 176.789 339.657 177.047 339.942 177.213C349.817 183.036 368.529 184.896 387.051 186.381C410.6 188.272 435.002 189.655 458.746 191.253C519.953 195.365 587.076 193.004 646.981 187.885C714.488 182.113 779.605 173.443 848.713 169.809C885.857 167.852 922.976 168.185 960.192 169.672C981.043 170.514 1002.2 172.048 1023.41 173.234C1002.31 176.052 982.269 179.643 964.539 183.158C936.014 188.818 909.195 195.394 882.699 202.038C849.486 210.37 811.406 216.357 772.152 220.808C733.908 225.149 693.951 227.775 653.874 229.362C612.838 230.99 571.763 230.599 530.583 231.218C486.425 231.89 442.931 234.303 399.519 236.929C357.752 239.456 315.288 242.278 272.661 240.921C251.278 240.249 229.849 238.082 208.684 236.827C183.931 235.362 159.015 234.271 133.936 233.553C83.7049 232.071 32.4172 232.244 -17.1176 235.615C-74.5589 239.517 -130.17 246.212 -187.915 249.673C-210.752 251.043 -238.391 252.512 -260.409 249.557C-278.082 247.185 -291.582 245.864 -309.175 249.051C-312.415 249.641 -320.13 252.853 -311.761 251.655C-295.722 249.35 -282.104 252.96 -267.554 254.722C-250.349 256.813 -227.888 255.387 -210.312 254.646C-163.073 252.657 -116.421 247.366 -70.4712 243.358C-27.1322 239.578 14.9026 236.956 59.861 236.764C102.097 236.587 144.38 238.045 186.039 240.255C224.29 242.284 260.422 245.857 299.559 245.021C341.158 244.128 381.773 240.978 422.818 238.764C470.501 236.203 517.422 234.648 565.785 234.59C603.722 234.539 641.712 233.48 679.097 231.342C759.024 226.755 831.615 217.186 897.452 201.821C897.824 201.846 898.255 201.865 898.816 201.861C918.82 201.988 938.987 199.423 958.994 199.061C982.496 198.645 1006.13 199.231 1029.63 199.488C1053.06 199.74 1076.37 199.047 1099.77 199.199C1123.26 199.347 1146.7 200.509 1169.73 201.969C1212.42 204.675 1254.17 208.78 1296.83 211.543C1339.66 214.317 1382.93 214.424 1426.42 214.339C1469.86 214.252 1513.21 213.53 1556.48 212.173C1601.05 210.78 1644.85 207.04 1689.51 206.27C1737.27 205.449 1783.58 207.923 1827.62 214.032C1837.87 215.453 1847.94 217.009 1857.96 218.61C1782.86 219.146 1707.83 220.915 1633.3 224.089C1597.24 225.626 1562.01 228.487 1526.49 230.867C1529.13 230.111 1530.01 229.341 1525.37 229.222C1481.16 228.097 1437.56 232.217 1393.35 231.088C1350.89 230.003 1308.83 225.124 1267.16 222.36C1247.08 221.029 1226.98 220.009 1206.48 220.035C1183.79 220.064 1161.13 221.363 1138.78 222.559C1093.72 224.968 1047.91 225.746 1003.03 228.495C981.753 229.79 962.625 232.885 941.946 234.814C918.415 237.005 893.557 237.345 869.267 237.263C824.965 237.107 780.963 235.032 736.604 235.501C695.677 235.943 654.37 237.939 613.902 239.903C569.963 242.037 526.366 244.919 483.486 248.772C446.888 252.052 410.774 256.15 376.264 261.369C338.204 267.123 301.342 273.567 258.477 273.698C255.84 273.706 248.104 275.796 252.578 275.922C291.668 277.008 328.312 271.625 363.099 266.367C402.304 260.439 442.567 255.694 484.195 252.001C526.921 248.21 570.516 245.524 614.25 243.392C661.904 241.07 710.589 238.944 758.808 239.345C801.713 239.699 844.297 241.511 887.279 240.893C906.968 240.605 926.514 239.541 945.482 237.772C969.062 235.563 990.471 232.383 1015 231.15C1059.15 228.933 1103.65 227.717 1147.79 225.399C1171.29 224.166 1195.72 223.066 1219.48 223.996C1243.08 224.911 1266.38 226.589 1289.51 228.361C1323.85 230.987 1359.42 234.64 1394.85 234.882C1430.32 235.121 1465.34 232.915 1500.71 232.459C1499.01 232.555 1497.33 232.668 1495.62 232.755C1449.32 235.253 1402.76 236.962 1355.93 237.884C1309.42 238.759 1262.71 238.89 1216.65 241.428C1174.42 243.761 1134.73 248.39 1095.5 253.971C1082.91 255.768 1070.42 257.439 1057.9 258.991C1050.91 259.505 1042.74 260.047 1036.7 259.306C1034.59 259.042 1028.18 260.394 1030.84 260.966C1032.35 261.276 1033.88 261.501 1035.41 261.638C1011.17 264.327 986.534 266.525 960.529 268.061C916.405 270.673 871.688 272.018 827.412 274.268C775.461 276.908 724.598 280.655 671.989 281.834C648.208 282.373 625.249 281.867 601.559 281.574C593.513 281.472 578.344 281.95 571.594 283.939C568.636 283.74 565.678 283.539 562.721 283.335C516.406 280.243 469.29 277.599 422.171 276.293C377.63 275.056 332.794 276.684 288.477 278.106C197.866 281.028 103.635 281.82 14.9237 274.011C-12.1992 271.625 -37.6202 267.935 -63.8066 264.662C-86.6431 261.813 -113.37 259.335 -137.788 261.176C-139.285 261.292 -143.477 262.145 -143.043 262.809C-141.481 265.21 -138.736 265.662 -131.842 266.385C-131.111 266.465 -128.626 265.809 -129.292 265.666C-132.934 264.849 -134.851 264.237 -135.603 263.221C-117.494 263.731 -101.326 264.642 -83.612 266.693C-63.582 269.007 -44.446 272.125 -24.6186 274.628C13.7991 279.474 55.5179 281.623 96.257 282.888C139.998 284.244 184.241 284.136 228.062 283.281C273.648 282.388 318.912 280.2 364.587 279.766C411.377 279.325 458.013 281.741 504.053 284.254C551.143 286.823 597.797 290.126 644.015 294.164C680.649 297.311 716.559 303.032 753.646 306.208C740.141 306.581 726.716 307.318 713.98 308.064C679.245 310.104 644.611 312.682 611.891 317.092C574.026 322.202 537.146 327.997 497.703 331.7C454.421 335.766 408.607 338.861 363.991 340.721C272.845 344.533 180.642 340.124 89.3926 339.136C43.0032 338.637 -3.44188 339.162 -49.2877 341.664C-85.4772 343.646 -120.592 347.19 -156.507 349.603C-182.568 351.354 -211.636 352.807 -237.254 349.675C-239.098 349.447 -240.616 352.268 -237.895 352.604C-206.744 356.412 -170.844 353.62 -139.628 351.285C-102.298 348.489 -65.7593 345.166 -27.718 343.505C64.0389 339.501 156.806 343.769 248.698 344.865C335.223 345.831 421.737 342.071 507.853 333.603C546.913 329.776 583.508 323.679 621.303 318.734C655.695 314.232 694.043 311.866 730.555 310.065C757.951 308.705 788.277 307.927 814.444 311.516C816.173 311.755 817.787 308.955 815.081 308.59C814.854 308.557 814.622 308.532 814.38 308.5C845.742 308.232 876.288 306.149 907.653 304.645C951.416 302.551 996.741 305.245 1039.45 308.341C1080.75 311.328 1122.34 314.685 1163.04 318.479C1204.53 322.352 1245.25 327.051 1288.19 328.892C1333.76 330.848 1380.82 328.451 1425.68 331.901C1468.62 335.203 1508.15 342.206 1550.28 346.386C1570.46 348.386 1591.23 350.115 1610.54 352.958C1627.76 355.493 1643.18 358.687 1661.86 360.003C1680.54 361.32 1700.43 360.772 1719.04 359.656C1742.5 358.253 1766 356.205 1788.89 353.989C1809.78 351.972 1830.31 349.559 1850.85 347.19C1875.67 344.16 1900.66 342.6 1925.67 342.521C1960.81 342.467 1995.57 342.883 2030.72 342.318C2041.94 342.001 2053.18 342.284 2064.37 343.168C2070.24 343.711 2076.1 344.32 2082.21 344.491C2094.54 344.85 2105.07 344.126 2115.28 341.802C2120.89 340.522 2102.34 340.026 2098.3 340.895C2087.85 343.14 2078.18 340.544 2067.51 340.117C2058.58 339.766 2049.7 339.556 2040.7 339.614C2018.4 339.766 1996.17 340.323 1973.84 340.208C1931.14 339.997 1891.18 339.376 1850.23 344.05C1804.85 349.236 1759.66 354.586 1712.27 357.417C1689.21 358.752 1666.08 357.376 1643.34 353.319C1623.47 349.933 1603.17 347.556 1581.8 345.409C1539.27 341.126 1499 335.014 1456.64 330.624C1414.26 326.23 1371.29 327.535 1327.59 326.721C1290.2 326.019 1254.53 323.043 1218.95 319.603C1230.34 319.26 1241.64 318.608 1251.76 318.225C1293.81 316.638 1333.04 310.337 1372.46 305.65C1414.61 300.634 1455.37 294.46 1497.94 289.819C1540.83 285.143 1585.77 283.49 1630.34 281.544C1634.66 281.902 1638.99 282.249 1643.35 282.556C1687.77 285.71 1734 285.735 1779.15 284.889C1825.67 284.014 1871.92 281.97 1918.54 281.595C1964.1 281.222 2012.13 279.743 2056.02 284.618C2074.36 286.658 2091.73 288.344 2111.13 288.94C2132.58 289.598 2157.36 288.727 2175.12 293.592C2179.64 294.821 2196.53 292.764 2191.74 291.287C2180.22 287.733 2166.1 287.041 2151.18 286.111C2130.41 284.82 2109.61 285.439 2088.85 283.474C2069.75 281.677 2052.29 279.304 2032.47 278.35C2010.93 277.301 1988.83 277.522 1967.13 277.692C1921.27 278.05 1875.92 278.712 1830.2 280.035C1781.82 281.434 1734.14 282.036 1685.72 280.433C1680.17 280.248 1674.64 280.005 1669.14 279.702C1678.76 279.222 1688.38 278.776 1698.05 278.418C1715.34 277.789 1732.77 277.347 1749.82 276.125C1764.81 275.054 1778.96 273.42 1792.65 271.131C1811.52 267.981 1826.73 262.935 1843.28 258.685C1876.88 250.066 1914.11 243.933 1954.26 239.495C1966.17 238.186 1978.62 236.814 1991.25 236.077C2016.51 237.74 2042.33 238.478 2068.1 238.507C2095.22 238.536 2122.4 239.084 2149.56 239.433C2176.74 239.788 2203.58 239.241 2230.79 239.227C2242.34 239.227 2241.7 236.113 2230.4 236.07C2183.93 235.9 2137.58 234.179 2091.09 235.021C2084.4 235.14 2077.72 235.198 2071.04 235.195C2072.92 235.086 2074.8 234.974 2076.69 234.848C2111.03 232.515 2143.06 226.902 2177.45 224.345C2212.32 221.752 2247.12 218.331 2282.32 216.334C2316.72 214.384 2347.97 217.115 2381.22 219.599C2409.53 221.722 2437.26 221.574 2463.2 216.926C2474.15 214.954 2457.51 214.357 2451.95 215.304ZM1255.91 113.829C1253.15 113.692 1250.39 113.548 1247.65 113.398C1273.16 111.087 1299.74 112.773 1325.09 115.991C1302.02 115.706 1278.73 114.965 1255.91 113.829ZM982.935 167.961C947.993 166.283 912.557 165.382 877.33 166.568C810.875 168.807 747.882 176.345 684.331 182.717C618.112 189.354 550.938 193.202 481.598 190.785C457.091 189.931 433.072 187.584 408.752 186.209C386.95 184.976 355.568 183.313 342.07 176.738C342.025 176.723 341.979 176.712 341.932 176.705C351.977 176.723 362.013 176.738 372.057 176.668C416.366 176.368 458.209 172.86 500.093 168.266C545.397 163.297 589.126 156.866 636.448 154.284C683 151.738 730.698 151.998 777.65 152.776C823.442 153.536 871.165 153.818 916.204 156.748C960.001 159.597 1001.59 165.254 1044.6 169.099C1047.63 169.367 1050.69 169.609 1053.74 169.859C1050.75 170.123 1047.75 170.408 1044.78 170.713C1024.16 169.607 1003.08 168.928 982.935 167.961ZM1493.51 287.144C1437.01 293.34 1381.89 301.427 1326.57 308.7C1300.38 312.144 1274.23 314.655 1246.42 316.136C1232.29 316.884 1216.2 317.941 1200.8 317.807C1198.63 317.594 1196.46 317.377 1194.29 317.156C1153.42 313.076 1111.54 309.901 1070.05 306.566C1029.6 303.315 988.331 300.714 946.565 300.725C905.711 300.733 866.176 304.961 825.292 305.231C781.732 305.519 741.733 299.672 701.299 295.057C661.778 290.551 620.927 287.339 580.004 284.511C580.14 284.458 580.272 284.393 580.398 284.319C582.56 284.134 584.734 283.975 586.814 283.913C595.689 283.631 605.31 284.308 614.11 284.651C634.146 285.44 654.939 284.893 675.008 284.503C717.523 283.668 759.08 281.053 800.904 278.571C890.549 273.258 982.393 272.633 1067.47 260.95C1081.4 260.328 1094.94 259.844 1109.27 259.606C1131.09 259.247 1152.69 257.895 1174.31 256.98C1198.25 255.96 1222.18 256.115 1246.25 256.173C1341.26 256.408 1433.15 259.342 1523.26 269.811C1550.58 272.99 1577.61 276.423 1605.25 279.219C1567.39 280.971 1530.02 283.136 1493.51 287.144ZM1946.12 237.168C1912.49 240.763 1879.1 246.297 1846.12 253.743C1830.44 257.352 1816.29 261.551 1801.35 265.46C1785.12 269.714 1765.92 271.923 1745.77 273.092C1711.12 275.089 1675.59 276.249 1640.55 277.67C1613.27 275.365 1586.63 272.086 1560.36 268.904C1518.84 263.873 1477.33 259.533 1433.86 256.751C1391.19 254.024 1347.63 252.99 1304.24 252.585C1257.68 252.151 1211.1 251.912 1164.95 254.205C1142.74 255.308 1120.45 255.702 1098.28 256.545C1132.53 251.723 1167.25 247.397 1204.16 245.238C1249.95 242.569 1296.26 242.233 1342.57 241.396C1389.14 240.557 1435.44 238.84 1481.53 236.489C1527.66 234.137 1572.85 230.073 1619.06 227.728C1704.02 223.421 1790.77 221.884 1876.75 221.659C1896.94 224.965 1917.1 228.286 1938.07 230.987C1948.88 232.376 1959.91 233.544 1971.09 234.517C1962.7 235.338 1954.38 236.255 1946.12 237.168Z" fill="#1CBECA" style="mix-blend-mode:screen"/>
        </g>
        <g opacity="0.17">
            <path fill-rule="evenodd" clip-rule="evenodd" d="M807.695 41.0093H820.332C820.928 41.5892 821.593 42.2624 822.313 43.0343C826.039 42.7426 829.783 42.7426 833.509 43.0343C868.529 41.8779 942.123 41.3486 1054.29 41.4461C1188.6 41.7352 1267.61 42.6986 1291.31 44.3362C1292.16 43.2749 1293.06 42.1681 1294.02 41.0093H1306.66V41.7356C1306.66 48.667 1300.71 54.9264 1288.79 60.5136C1278.08 65.3269 1260.99 70.3822 1237.52 75.6796C1241.01 79.1486 1242.75 81.7012 1242.75 83.3374C1242.75 88.0567 1237.82 92.4872 1227.95 96.6291C1227.65 96.7038 1227.35 96.7994 1227.05 96.9152C1240.77 97.9769 1255.51 98.8915 1271.28 99.659C1289.69 101.104 1298.9 103.754 1298.89 107.607C1298.89 108.856 1298.05 110.065 1296.37 111.216C1293.6 113.049 1289.21 114.109 1283.19 114.397L1279.4 114.686C1302.27 117.189 1326.7 119.26 1352.69 120.9C1367.26 122.247 1374.54 124.558 1374.53 127.832C1375.14 128.411 1374.84 129.032 1373.63 129.709C1371.22 131.155 1366.05 132.07 1358.11 132.456H1347.1C1345.17 132.456 1341.26 132.792 1335.36 133.464C1329.23 134.332 1325.8 134.765 1325.07 134.765C1311.47 135.726 1304.19 136.256 1303.23 136.358C1303.36 136.647 1305.88 137.803 1310.81 139.827C1314.91 141.656 1316.95 143.679 1316.95 145.897C1316.95 150.327 1307.75 154.661 1289.33 158.9C1283.68 160.153 1277.66 161.26 1271.28 162.222C1266.3 164.246 1261.17 165.888 1255.94 167.133C1247.87 169.06 1241.55 170.6 1236.98 171.754C1244.08 172.043 1254.49 172.188 1268.21 172.188C1291.56 172.188 1310.81 167.998 1325.98 159.618C1329.71 157.499 1334.82 154.514 1341.32 150.662C1346.86 148.133 1352.9 146.85 1359.01 146.906C1373.09 146.906 1381.88 148.254 1385.37 150.951C1387.17 152.298 1387.59 153.839 1386.63 155.573C1368.58 174.931 1352.09 185.235 1337.17 186.483C1322.12 187.835 1313.88 189.858 1312.44 192.554C1312.1 193.982 1311.86 195.431 1311.71 196.89C1310.98 199.043 1309.52 200.881 1307.56 202.094C1298.6 208.43 1287.73 211.635 1276.69 211.193C1270.31 210.711 1265.5 210.374 1262.25 210.181C1257.13 209.855 1251.99 210.049 1246.91 210.761C1242.71 212.855 1238.08 213.991 1233.37 214.084C1224.82 214.084 1218.08 213.168 1213.14 211.337C1207.86 209.602 1204 208.735 1201.59 208.735C1198.59 208.735 1190.23 209.168 1176.5 210.036C1162.78 210.903 1146.54 211.337 1127.76 211.337C1110.07 211.337 1098.34 212.588 1092.56 215.092C1089.31 216.635 1087.33 219.476 1086.6 223.616C1086.35 225.496 1085.58 227.273 1084.37 228.752C1083.16 230.231 1081.56 231.353 1079.74 231.997C1073.24 234.401 1060.6 235.604 1041.83 235.605C1034.73 235.605 1030.34 234.353 1028.65 231.849V227.803C1028.65 225.975 1029.98 223.086 1032.62 219.136C1030.82 217.789 1024.8 216.297 1014.57 214.658C1005.47 212.918 996.226 211.953 986.953 211.772L977.747 212.78C977.692 212.689 977.612 212.614 977.517 212.563C977.422 212.512 977.314 212.487 977.206 212.491C976.96 212.491 976.844 213.214 976.844 214.659C976.844 214.948 980.935 218.657 989.117 225.784C997.419 233.295 1001.57 238.061 1001.57 240.084C1001.57 243.357 999.648 245.428 995.796 246.296C984.725 248.803 977.143 250.777 973.051 252.22C974.894 255.466 977.006 258.559 979.366 261.466C981.056 263.489 981.96 264.982 982.076 265.944C1000.97 267.967 1013.91 271.676 1020.88 277.068C1027.02 281.592 1028.23 286.985 1024.49 293.247C1024.32 293.476 1024.06 293.631 1023.77 293.681C1023.41 294.159 1023.35 294.497 1023.59 294.689L1032.62 293.533C1032.13 293.052 1031.71 292.618 1031.36 292.232C1030.8 291.266 1030.55 290.159 1030.63 289.052C1030.63 286.068 1032.74 283.709 1036.95 281.977C1042.49 279.568 1051.15 278.364 1062.94 278.365C1069.69 278.365 1082.44 286.166 1101.21 301.769C1101.21 303.888 1098.45 306.39 1092.91 309.276C1086.41 312.745 1082.56 315.442 1081.36 317.367C1078.23 321.703 1065.6 324.883 1043.45 326.907C1021.06 328.16 1008.67 329.027 1006.26 329.509L1002.65 330.235C1003.61 331.195 1012.7 333.649 1029.91 337.599C1045.68 341.452 1054.16 345.642 1055.36 350.169C1057.89 358.353 1063.91 363.362 1073.41 365.196C1084.85 367.311 1091.53 369.38 1093.46 371.405C1090.21 374.197 1086.48 376.399 1082.44 377.91C1084.78 380.501 1087.32 382.915 1090.03 385.132C1093.64 388.504 1095.44 391.153 1095.44 393.08C1095.44 398.473 1084.01 405.407 1061.15 413.883C1038.04 422.452 1026.49 427.266 1026.49 428.326C1033.83 442.002 1037.5 448.984 1037.5 449.272C1037.5 454.085 1032.14 458.178 1021.43 461.551C1009.04 465.309 1001.15 470.655 997.785 477.587C997.061 479.224 996.397 484.713 995.795 494.055C994.353 502.529 990.983 506.768 985.685 506.771C983.726 506.821 981.778 506.46 979.973 505.712C978.168 504.964 976.546 503.847 975.218 502.434L972.69 498.098C972.69 496.845 973.411 494.726 974.852 491.742C976.178 488.563 976.842 486.347 976.842 485.097C976.842 473.638 969.803 466.512 955.724 463.718C948.742 462.562 943.988 461.743 941.461 461.261C937.01 460.489 934.783 459.093 934.783 457.072C934.783 455.431 941.704 451.241 955.547 444.502C970.831 437.183 979.013 432.994 980.093 431.937C978.527 430.969 973.171 428.466 964.025 424.426C959.217 422.209 956.81 419.704 956.805 416.91C956.805 415.37 958.191 413.011 960.961 409.831C964.205 406.463 967.273 404.393 970.167 403.621V402.609C959.455 400.2 952.775 399.527 950.128 400.588C946.151 402.417 942.841 403.332 940.198 403.332C931.779 403.332 926.665 402.417 924.855 400.588V397.987C924.855 393.557 933.64 390.139 951.211 387.732C969.264 385.324 979.073 380.267 980.639 372.563C959.696 361.586 945.555 356.097 938.216 356.095C936.767 356.095 933.696 356.913 929.002 358.548C924.311 360.378 920.762 361.292 918.356 361.292C908.243 361.292 901.624 360.427 898.5 358.696C898.001 358.464 897.581 358.095 897.292 357.633C897.002 357.171 896.857 356.636 896.872 356.094C896.872 353.878 898.919 352.143 903.014 350.891C906.02 349.927 911.855 348.867 920.521 347.711L926.296 346.703C919.671 345.213 912.86 344.678 906.078 345.115C901.386 346.172 898.86 346.701 898.5 346.703L883.874 346.414C883.274 346.32 882.975 345.117 882.975 342.805C882.975 339.722 886.646 336.542 893.987 333.265C898.701 331.237 903.596 329.642 908.61 328.5C904.875 325.998 903.009 324.456 903.014 323.875C903.014 321.47 910.717 317.234 926.122 311.166C933.946 308.178 942.312 305.048 951.22 301.777C949.239 300.445 947.422 298.893 945.803 297.152C945.125 295.861 944.813 294.416 944.9 292.967C944.9 290.461 945.141 288.918 945.624 288.338C946.706 286.893 950.077 284.533 955.734 281.259C953.085 279.814 950.619 278.467 948.336 277.218C943.277 277.022 937.981 276.924 932.447 276.924C905.493 276.924 888.945 277.745 882.804 279.386C875.557 281.239 868.087 282.114 860.6 281.988C850.848 281.988 845.07 280.639 843.266 277.942V273.464C843.266 271.151 844.711 269.369 847.601 268.116C854.533 265.376 861.084 261.785 867.094 257.429C862.913 252.846 857.893 249.072 852.293 246.304C847.6 243.802 845.254 241.973 845.253 240.818C845.253 236.576 848.984 233.494 856.445 231.572C868.489 228.528 880.079 223.962 890.924 217.989C889.725 215.581 888.27 214.381 886.593 214.381C873.836 215.148 860.537 215.533 846.697 215.536C805.419 214.764 782.674 214.186 778.46 213.802L774.837 211.326C774.113 210.942 773.692 210.558 773.571 210.17C773.402 209.167 773.341 208.15 773.388 207.135C773.388 203.377 777.119 200.679 784.58 199.043C798.182 196.059 825.563 194.327 866.724 193.846C866.724 192.883 867.806 192.16 869.971 191.678L870.516 191.389C840.427 185.996 817.258 183.877 801.009 185.033C798.214 185.591 795.378 185.929 792.528 186.045C791.683 185.854 791.262 184.695 791.262 182.576C791.262 178.143 793.731 175.061 798.67 173.331C804.808 171.114 816.842 170.006 834.773 170.008C871.72 170.008 900.122 170.249 919.98 170.731C923.592 170.633 925.82 170.055 926.663 168.996C927.146 168.225 928.59 166.346 930.994 163.359C939.949 155.218 950.351 148.755 961.683 144.291C978.888 137.453 987.552 133.984 987.676 133.884C963.369 135.329 949.59 136.052 946.337 136.052C937.43 136.052 931.473 134.703 928.466 132.006C927.813 130.555 927.27 129.058 926.842 127.528C926.842 122.809 929.669 119.246 935.323 116.84C945.432 112.696 965.351 110.624 995.079 110.623C1001.09 110.623 1005.31 111.346 1007.72 112.791C1009.06 113.613 1010.52 114.245 1012.04 114.669C1015.66 114.669 1030.46 112.694 1056.45 108.746C1082.94 104.602 1098.76 101.761 1103.93 100.222L1104.48 99.066C1103.27 98.7769 1098.64 98.2952 1090.57 97.621C1082.64 96.8491 1077.4 96.4639 1074.87 96.4654C1049.72 96.4654 1033.41 98.7282 1025.95 103.254C1023.06 105.47 1021.01 107.012 1019.81 107.879C1018.12 109.32 1015.54 110.043 1012.05 110.048C969.203 110.048 940.619 109.614 926.297 108.747C907.765 107.685 896.514 105.325 892.542 101.668C890.257 99.5488 890.377 96.3226 892.9 91.9893C872.445 90.0625 859.388 88.7617 853.73 88.0867C847.833 87.3192 844.042 86.2604 842.355 84.9104C835.373 84.2368 829.838 82.9851 825.75 81.1552C821.536 79.4207 819.43 77.5904 819.43 75.6644C819.43 72.1044 826.409 69.8889 840.368 69.0181L837.662 68.875C837.304 69.0668 837.12 68.0077 837.12 65.6944C837.096 64.4224 837.279 63.1548 837.662 61.9392C824.784 61.2656 816.179 59.8708 811.848 57.7547C809.92 56.787 808.956 55.7268 808.958 54.5741C809.117 53.9559 809.238 53.3289 809.32 52.6965C809.306 51.5957 809.554 50.5068 810.046 49.5169C808.736 46.8465 807.94 43.9626 807.695 41.0093ZM1423.82 42.1681C1424.67 42.3588 1425.41 42.8466 1425.91 43.5384C1426.41 44.2303 1426.63 45.078 1426.53 45.92C1426.53 47.6545 1423.7 49.1487 1418.05 50.4026C1409.74 52.6155 1397.04 53.7231 1379.95 53.7252C1347.81 53.7252 1331.75 50.5956 1331.75 44.3362C1331.75 41.9275 1332.72 40.6266 1334.64 40.4336C1337.05 40.1445 1350.46 40 1374.9 40C1401.13 40.0007 1417.44 40.7238 1423.82 42.1692L1423.82 42.1681ZM1544.59 105.872C1525.45 109.63 1486.88 111.509 1428.87 111.509C1412.39 111.509 1402.58 110.786 1399.45 109.341V106.455C1399.45 101.541 1425.93 97.7359 1478.88 95.0409C1531.71 92.1501 1558.13 93.1619 1558.13 98.0763C1558.13 101.445 1553.61 104.043 1544.59 105.872ZM1458.48 65.135C1458.54 67.3658 1458.78 69.5882 1459.2 71.7813C1458.84 73.7045 1456.37 75.1972 1451.8 76.2596C1441.09 78.6684 1408.84 79.8713 1355.04 79.8684C1322.19 79.8684 1300.58 78.6178 1290.23 76.1165C1285.9 74.9601 1283.73 73.3218 1283.73 71.2014C1283.73 68.3105 1295.65 66.3376 1319.48 65.2824C1370.75 62.7761 1405.23 60.8493 1422.92 59.5022C1446.63 56.8036 1458.48 58.6812 1458.48 65.135ZM1443.32 139.098C1443.32 136.501 1450.48 135.297 1464.8 135.485C1479.12 135.774 1486.29 137.026 1486.29 139.241C1486.29 141.265 1484.48 142.613 1480.87 143.287C1476.65 144.25 1468.29 144.733 1455.78 144.736C1450.12 144.736 1446.27 143.725 1444.22 141.701L1443.32 139.098ZM1295.47 238.628C1276.58 239.11 1251.48 240.506 1220.19 242.817C1220.05 242.799 1219.92 242.816 1219.79 242.867C1219.66 242.917 1219.55 243 1219.47 243.106C1220.55 243.533 1221.48 244.274 1222.12 245.229C1222.77 246.184 1223.1 247.308 1223.08 248.454C1223.08 251.148 1210.02 256.926 1183.91 265.787C1157.07 274.743 1138.35 279.221 1127.76 279.221C1103.93 279.895 1091.11 280.232 1089.31 280.234C1089.31 279.462 1087.39 277.535 1083.54 274.454C1082.84 274.133 1082.17 273.746 1081.55 273.298C1081.15 272.965 1080.84 272.539 1080.65 272.06C1080.46 271.581 1080.4 271.064 1080.47 270.554C1118.37 258.708 1148.7 250.425 1171.45 245.706C1167.72 245.804 1164.53 245.853 1161.88 245.853C1127.58 245.853 1107.12 245.034 1100.5 243.395C1098.45 242.914 1097.79 242.336 1098.51 241.661C1099.13 241.195 1099.79 240.806 1100.5 240.501C1100.5 235.587 1111.64 232.024 1133.9 229.813C1163.5 226.825 1223.26 224.465 1313.16 222.734C1327.85 221.677 1340.6 222.255 1351.43 224.469C1358.17 225.812 1363.23 227.402 1366.59 229.239C1363.83 232.99 1355.94 235.494 1342.95 236.75C1336.33 237.422 1320.5 238.048 1295.47 238.628ZM1343.12 253.075C1352.83 251.538 1362.75 251.783 1372.37 253.798C1378.63 254.954 1383.38 256.4 1386.63 258.134C1384.47 260.736 1381.21 262.564 1376.89 263.621C1370.38 265.164 1359.13 265.935 1343.12 265.935C1326.28 265.935 1315.99 264.875 1312.26 262.756C1311.9 260.637 1311.71 259.529 1311.71 259.433C1311.63 258.761 1311.79 258.083 1312.15 257.507C1312.51 256.93 1313.06 256.489 1313.7 256.253C1317.43 255.098 1327.24 254.038 1343.12 253.074L1343.12 253.075ZM1233.55 289.187C1206.23 295.931 1179.99 299.301 1154.84 299.299C1145.09 299.299 1139.08 298.24 1136.79 296.123C1136.55 294.004 1136.43 292.896 1136.43 292.8C1136.43 292.323 1143.29 290.205 1157 286.449C1172.77 282.113 1188 278.403 1202.68 275.321C1246.85 266.271 1268.93 266.8 1268.93 276.909C1268.93 279.414 1257.14 283.506 1233.55 289.186L1233.55 289.187ZM1446.74 204.537C1435.19 206.08 1415.64 206.852 1388.07 206.852C1381.1 206.852 1376.58 205.985 1374.53 204.25C1373.84 203.395 1373.52 202.307 1373.64 201.221C1373.64 198.041 1382.6 194.91 1400.53 191.828C1422.92 187.979 1448.13 188.412 1476.17 193.129C1470.51 198.904 1460.71 202.706 1446.75 204.536L1446.74 204.537ZM1396.56 356.075C1396.56 357.712 1394.28 359.492 1389.7 361.418C1385.73 363.21 1381.43 364.193 1377.06 364.308C1369.03 364.355 1361.02 363.384 1353.23 361.418C1344.45 361.32 1338.85 361.079 1336.44 360.695C1336.08 360.789 1335.9 359.73 1335.9 357.519C1335.93 356.904 1336.13 356.31 1336.48 355.801C1336.83 355.291 1337.32 354.886 1337.89 354.628C1338.01 350.775 1347.82 349.137 1367.31 349.713C1386.81 350.199 1396.56 352.319 1396.56 356.074V356.075ZM1326.34 360.844C1335.96 363.346 1340.78 365.804 1340.78 368.216C1340.76 369.437 1340.57 370.649 1340.24 371.825C1338.79 372.692 1336.45 373.126 1333.2 373.126C1327.59 373.204 1322.07 371.699 1317.31 368.79C1313.58 366.477 1311.71 364.742 1311.71 363.586C1311.71 359.344 1316.59 358.429 1326.34 360.842L1326.34 360.844ZM1303.05 343.075C1303.05 346.348 1297.81 348.661 1287.34 350.013C1280.12 350.976 1269.17 351.458 1254.49 351.458L1246.54 350.731C1246.18 350.829 1246 349.673 1246.01 347.262C1246.01 340.331 1255.51 336.672 1274.53 336.285C1293.54 335.899 1303.05 338.161 1303.05 343.072V343.075ZM1210.62 363.735C1197.14 363.156 1187.82 362.867 1182.64 362.867C1159.89 362.867 1145.57 362.386 1139.68 361.422C1136.18 360.94 1134.44 359.639 1134.44 357.52C1134.44 352.993 1145.87 349.524 1168.74 347.113C1194.25 344.414 1216.33 347.016 1234.99 354.918C1230.42 360.311 1222.3 363.249 1210.62 363.732V363.735ZM1252.5 418.48C1245.28 419.925 1225.67 420.648 1193.66 420.648C1163.92 420.648 1145.81 419.83 1139.32 418.194C1137.15 417.521 1136.31 416.847 1136.79 416.174C1137.75 415.594 1138.23 415.259 1138.23 415.161C1138.23 408.223 1158.08 404.899 1197.8 405.188C1237.27 405.477 1257.01 408.079 1257.01 412.993C1257.01 416.073 1255.51 417.9 1252.5 418.475V418.48ZM932.435 268.244H933.873C933.823 268.212 933.781 268.17 933.75 268.119C933.719 268.069 933.7 268.013 933.694 267.955L932.435 268.244ZM1187.69 317.648C1183.9 319.094 1179.85 319.782 1175.78 319.673C1172.77 319.673 1170.6 318.806 1169.28 317.071C1168.59 316.203 1168.21 315.137 1168.19 314.036C1168.19 311.632 1170.42 310.042 1174.87 309.266C1178.36 308.784 1184.14 308.784 1192.2 309.266C1192.23 309.63 1192.35 309.98 1192.57 310.279C1192.93 310.471 1193.11 311.29 1193.11 312.736C1193.11 314.758 1191.3 316.396 1187.69 317.648ZM804.442 85.5055C810.942 88.2981 814.191 90.9937 814.19 93.5926C814.19 98.6992 807.692 101.252 794.696 101.251L734.582 100.962C733.982 100.384 733.681 98.9384 733.678 96.6258C733.675 94.3131 736.141 91.3753 741.077 87.8124C746.803 83.712 753.885 81.8563 760.934 82.6089C779.711 80.3028 794.214 81.2683 804.442 85.5055ZM814.19 148.923C814.19 151.332 813.895 152.826 813.286 153.401C811.001 155.328 805.467 156.293 796.683 156.296C785.487 156.296 778.567 155.187 775.923 152.969C775.44 152.682 775.199 151.38 775.199 149.066C775.199 145.502 781.698 143.287 794.697 142.421C807.698 141.747 814.196 143.914 814.19 148.92V148.923ZM811.301 132.744C811.301 124.078 827.489 120.804 859.864 122.923C870.989 123.713 882.034 125.355 892.898 127.834C903.012 130.146 908.067 132.409 908.062 134.622C908.062 137.606 906.498 139.725 903.37 140.978C897.836 143.481 886.585 144.734 869.616 144.737C852.521 144.737 837.898 143.003 825.748 139.534C816.122 136.931 811.306 134.667 811.301 132.741V132.744ZM747.946 72.074C740.632 73.4629 733.188 74.0922 725.738 73.9516C717.795 74.6252 713.281 74.8662 712.197 74.6747C709.908 73.5184 705.216 71.2057 698.121 67.7367C697.759 68.7001 697.579 68.0251 697.579 65.7117C697.579 60.7973 707.389 58.631 727.008 59.2128C746.623 59.6941 756.429 62.3912 756.427 67.3042C756.425 69.0379 753.597 70.6275 747.943 72.073L747.946 72.074ZM655.152 69.6165C622.539 69.6165 601.839 68.5577 593.052 66.4402C589.684 65.5729 588 63.7427 588.001 60.9494C588.001 55.7459 605.09 52.9046 639.267 52.4255C673.567 51.9434 690.716 54.1589 690.713 59.0718C690.713 61.0954 688.186 63.1663 683.131 65.2846C676.393 68.1689 667.065 69.6121 655.149 69.6143L655.152 69.6165ZM748.484 174.346C745.876 176.696 742.457 177.987 738.915 177.959C715.449 177.959 700.707 176.996 694.689 175.069C692.641 174.491 691.617 173.046 691.617 170.733C691.617 165.241 701.785 162.014 722.123 161.054C742.35 160.09 752.46 162.545 752.454 168.418C752.453 170.351 751.128 172.326 748.481 174.344L748.484 174.346ZM773.582 449.539C773.582 439.717 795.364 435.769 838.927 437.692C853.936 438.194 868.894 439.69 883.698 442.171C897.3 444.387 904.1 446.7 904.1 449.109C904.1 452.481 901.933 454.309 897.599 454.595H863.656C830.439 456.908 812.207 458.064 808.959 458.064C794.153 458.064 783.985 457.054 778.453 455.035C775.198 453.679 773.572 451.848 773.573 449.542L773.582 449.539ZM863.29 478.137C863.29 475.831 864.31 474.431 866.359 473.949C868.524 473.467 875.263 472.553 886.577 471.205C914.015 469.47 932.128 469.711 940.916 471.928C944.289 472.7 945.966 474.145 945.966 476.264C945.966 479.155 944.101 481.179 940.371 482.335C933.751 484.547 920.151 485.653 899.572 485.653C898.847 485.653 895.178 485.172 888.564 484.208C881.223 483.249 873.098 482.625 864.19 482.335C863.59 481.85 863.29 480.451 863.29 478.137ZM1142.74 383.089C1139.96 383.026 1137.18 382.736 1134.44 382.222C1130.97 381.546 1127.59 380.529 1124.33 379.187C1126.62 374.272 1131.91 371.577 1140.21 371.1C1146.31 370.709 1152.42 371.393 1158.27 373.12C1158.4 373.438 1158.58 373.731 1158.81 373.988C1159.11 374.87 1159.23 375.803 1159.17 376.731C1159.2 377.759 1158.91 378.772 1158.33 379.627C1157.75 380.483 1156.91 381.138 1155.93 381.501C1153.28 382.56 1148.88 383.089 1142.74 383.089ZM1095.81 425.704C1111.09 425.704 1120.78 426.475 1124.87 428.018C1125.65 428.243 1126.33 428.724 1126.79 429.382C1127.25 430.039 1127.47 430.832 1127.4 431.627C1127.4 433.17 1125.78 434.807 1122.53 436.538C1119.35 438.379 1115.74 439.375 1112.06 439.428C1087.75 439.428 1073.24 438.175 1068.55 435.668C1067.11 434.995 1066.62 434.133 1067.11 433.072C1067.65 432.651 1068.13 432.166 1068.55 431.627C1068.55 428.255 1069.57 426.376 1071.62 425.99C1072.82 425.798 1080.89 425.702 1095.81 425.7L1095.81 425.704ZM936.042 416.744C936.042 418.189 929.544 420.452 916.548 423.532C914.137 421.993 912.631 421.03 912.03 420.642C911.691 420.388 911.416 420.06 911.228 419.684C911.04 419.307 910.944 418.893 910.948 418.474C910.948 413.567 919.012 411.931 935.139 413.568C935.209 413.786 935.333 413.984 935.5 414.143C935.863 414.434 936.042 415.299 936.042 416.744ZM549.725 85.5055C540.944 85.0242 529.453 84.446 515.251 83.771C515.191 83.3701 515.069 82.9805 514.889 82.6154C514.31 81.8188 514.052 80.8404 514.164 79.8684C514.164 76.4066 526.981 74.6743 552.614 74.6714C566.459 74.6714 574.883 75.2496 577.888 76.4059C578.612 76.695 578.974 77.6096 578.974 79.1497C579.035 80.1894 578.726 81.2177 578.102 82.06C577.477 82.9023 576.574 83.5068 575.547 83.771C571.808 84.9259 563.201 85.5041 549.725 85.5055ZM551.533 111.215C547.913 113.275 543.806 114.372 539.621 114.396C519.882 114.396 507.727 113.432 503.156 111.506C502.553 111.313 502.251 110.255 502.253 108.329C502.253 104.092 511.399 101.49 529.691 100.524C547.861 99.4631 556.947 101.388 556.95 106.3C556.947 107.748 555.141 109.387 551.53 111.216L551.533 111.215ZM519.762 72.6464C512.927 72.4955 506.234 70.7092 500.264 67.4429C494.851 64.0708 492.143 62.4826 492.141 62.6785C492.141 60.0767 500.025 58.4868 515.794 57.9086C531.437 57.3305 539.259 59.065 539.26 63.1121C539.26 64.5575 537.033 66.4832 532.578 68.8891C527.882 71.3969 523.611 72.6493 519.762 72.6464ZM438.165 96.9152C444.297 97.7825 447.365 99.517 447.369 102.119C447.369 106.066 442.917 108.716 434.013 110.067C420.29 111.989 390.383 112.951 344.292 112.953C337.189 112.953 332.495 112.086 330.212 110.351L328.762 107.749C328.762 106.018 331.231 103.756 336.17 100.961C343.39 97.0135 352.777 95.279 364.332 95.7575C401.995 94.8938 426.606 95.2801 438.165 96.9163V96.9152Z" fill="#DAEBF1" fill-opacity="0.1" style="mix-blend-mode:screen"/>
        </g>
        <g opacity="0.15">
            <path d="M708.324 84.1804H1234.92C1236.83 85.4846 1237.77 86.8549 1237.77 88.2882C1237.77 97.6684 1231.11 105.097 1217.8 110.574C1209.08 114.095 1187.93 119.698 1154.33 127.385C1160.83 130.123 1164.07 133.644 1164.07 137.947C1164.07 142.511 1159 145.836 1148.86 147.923C1135.23 151.177 1111.69 152.805 1078.25 152.807C1049.57 152.807 1034.83 150.527 1034.03 145.968C1039.1 140.882 1042.11 137.429 1043.07 135.609L1044.73 134.435C1013.23 133.692 981.719 134.8 950.351 137.755C930.062 139.837 916.429 141.922 909.452 144.009C908.026 146.357 907.313 149.94 907.313 154.76C907.472 155.933 905.571 156.911 901.61 157.694C893.999 159.259 877.911 160.041 853.346 160.041C816.417 160.041 791.693 156.651 779.174 149.87C773.624 146.875 770.85 142.706 770.851 137.362C770.851 133.191 773.307 128.76 778.22 124.071C783.462 118.716 790.026 114.867 797.237 112.921C759.517 111.748 734.318 109.403 721.639 105.888C711.654 103.281 706.662 99.0435 706.664 93.1763C706.601 90.0949 707.166 87.0332 708.324 84.1804ZM1553.26 169.611C1533.76 169.351 1519.49 168.895 1510.46 168.24C1502.54 167.589 1496.12 167.068 1491.21 166.676C1490.1 168.241 1489.55 167.004 1489.54 162.963C1489.54 160.225 1500.56 158.986 1522.6 159.246C1544.47 159.637 1555.41 161.529 1555.4 164.92C1555.4 168.959 1554.68 170.522 1553.26 169.611ZM1534.95 273.024C1534.48 271.575 1534.32 270.043 1534.47 268.527C1534.47 264.615 1536.22 262.205 1539.7 261.296C1547.47 259.214 1565.22 259.279 1592.96 261.49L1593.91 261.881C1594.38 261.881 1594.63 262.992 1594.63 265.207C1594.63 266.638 1592.65 268.594 1588.69 271.075C1585.2 273.423 1582.98 274.594 1582.02 274.589L1536.14 274.203C1535.34 273.675 1534.95 273.294 1534.95 273.024ZM1447.23 138.525C1426 138.721 1404.79 137.417 1383.74 134.62C1367.59 132.429 1351.23 132.099 1335 133.637L1324.31 133.25C1323.74 132.646 1323.33 131.907 1323.12 131.101C1322.89 129.482 1322.81 127.845 1322.88 126.211C1322.88 118.778 1344.04 117.213 1386.35 121.517C1428.52 125.953 1449.6 130.061 1449.6 133.84C1449.61 137.873 1448.81 139.436 1447.23 138.524L1447.23 138.525ZM1363.78 255.042C1359.23 258.601 1353.6 260.467 1347.84 260.323L1324.32 259.932C1323.52 259.412 1323.12 259.025 1323.12 258.758C1322.89 257.272 1322.81 255.765 1322.88 254.262C1322.88 248.135 1330.65 243.117 1346.18 239.207C1361.56 235.428 1369.24 237.971 1369.24 246.836C1369.24 249.308 1367.42 252.043 1363.77 255.041L1363.78 255.042ZM1509.75 224.541L1483.12 223.954C1483.12 223.694 1482.65 223.175 1481.7 222.39C1480.59 221.608 1480.03 219.978 1480.03 217.501L1481.7 214.374C1489.23 214.254 1496.73 213.269 1504.04 211.44C1506.42 211.307 1511.81 214.303 1520.21 220.429C1519.56 221.643 1518.67 222.708 1517.59 223.557C1515.06 224.347 1512.4 224.68 1509.75 224.539L1509.75 224.541ZM1147.2 248.982C1158.76 250.673 1166.06 253.669 1169.07 257.97C1170.02 259.407 1170.49 262.666 1170.5 267.748C1170.5 274.262 1161.14 279.735 1142.44 284.167C1108.84 292.117 1048.93 296.092 962.71 296.094C947.812 296.094 924.75 293.943 893.523 289.639C856.758 284.554 838.372 279.471 838.366 274.391C838.366 269.441 843.835 265.663 854.772 263.055C866.182 260.448 888.532 257.971 921.821 255.625C917.693 253.669 905.17 249.107 884.254 241.94C872.838 237.902 867.132 233.403 867.136 228.443C867.136 221.01 882.43 212.865 913.019 204.008C948.205 193.711 989.413 187.781 1036.64 186.219C1187.85 182.827 1263.45 193.97 1263.45 219.647C1263.45 224.341 1252.51 229.098 1230.64 233.917C1212.89 238.347 1185.63 243.104 1148.86 248.187L1147.2 248.982ZM1182.62 409.671C1183.09 409.937 1183.34 410.981 1183.34 412.803C1183.34 414.885 1179.69 417.035 1172.39 419.251C1162.72 422.505 1149.97 424.135 1134.12 424.141L1109.87 423.753C1108.92 422.842 1108.44 420.822 1108.44 417.693C1108.44 413.781 1112.17 411.564 1119.62 411.041C1126.28 410.776 1147.04 409.994 1181.9 408.694C1181.9 408.825 1182.14 409.152 1182.62 409.671ZM1164.55 353.957C1136.97 352.919 1115.73 352.723 1100.83 353.371C1092.27 353.896 1086.57 352.202 1083.71 348.289L1083.24 345.554C1082.76 344.871 1082.51 344.047 1082.53 343.207L1082.05 343.013V340.466C1082.07 340.033 1082.24 339.619 1082.53 339.3C1082.73 338.878 1083.03 338.513 1083.4 338.238C1083.77 337.964 1084.21 337.789 1084.67 337.73C1085.14 337.73 1086.42 337.862 1088.47 338.122C1090.92 337.84 1093.38 337.709 1095.84 337.73C1112.8 337.339 1159.08 339.229 1234.69 343.399C1235.32 344.449 1235.62 345.672 1235.53 346.898C1235.44 348.125 1234.98 349.294 1234.21 350.244C1232.46 352.068 1230.23 353.355 1227.79 353.956C1224.89 355.008 1221.82 355.473 1218.75 355.326C1214.72 355.734 1210.68 355.93 1206.63 355.913C1192.53 355.261 1178.5 354.61 1164.55 353.957ZM1444.13 298.437L1398.25 297.85C1397.13 299.54 1396.58 298.437 1396.58 294.525C1396.58 292.309 1398.72 290.875 1403 290.222C1410.46 288.918 1427.58 288.073 1454.36 287.685L1455.31 288.073C1455.79 288.073 1456.02 289.246 1456.02 291.593C1456.02 296.159 1452.05 298.44 1444.13 298.436V298.437ZM1354.03 375.851C1359.21 376.394 1364.31 377.509 1369.24 379.177V382.698C1369.09 382.698 1369.64 383.024 1370.91 383.677C1371.55 384.202 1370.27 384.456 1367.11 384.456C1363.46 384.456 1355.61 383.869 1343.57 382.695C1342.7 380.177 1342.22 377.542 1342.14 374.879C1346.12 374.952 1350.09 375.278 1354.03 375.851ZM1147.91 507.414C1147.84 509.259 1147.6 511.094 1147.19 512.894C1140.42 514.606 1133.49 515.589 1126.51 515.828C1104.8 515.828 1091.01 514.721 1085.14 512.508C1083.36 510.495 1081.27 508.778 1078.96 507.42C1081.5 505.597 1082.13 504.1 1080.86 502.928C1081.5 502.796 1092.43 502.731 1113.67 502.734C1132.85 502.734 1143.71 503.125 1146.24 503.908L1147.19 503.321C1147.67 503.582 1147.91 504.947 1147.91 507.414ZM807.939 272.631C798.426 275.238 784.241 276.542 765.385 276.542C760.942 276.542 744.933 275.89 717.356 274.586C688.673 273.288 671.794 272.377 666.719 271.852C665.765 271.46 665.294 271.2 665.294 271.073C665.029 269.787 664.95 268.47 665.057 267.161C665.057 261.293 675.756 257.513 697.152 255.82C724.892 253.218 768.239 254.587 827.193 259.927C823.703 265.92 817.286 270.154 807.939 272.631ZM801.995 202.447C801.785 201.689 801.463 200.966 801.04 200.304C800.102 198.858 799.682 197.133 799.851 195.414C799.851 187.59 810.313 184.265 831.237 185.438C852.002 186.742 862.383 191.304 862.381 199.123V203.231C861.989 203.772 861.67 204.364 861.434 204.991C858.253 205.25 853.971 205.381 848.586 205.383C838.606 204.601 823.076 203.623 801.995 202.447ZM945.113 334.017C944.312 332.522 943.979 330.817 944.159 329.128C944.159 325.607 948.122 323.13 956.047 321.697C964.764 320.006 973.084 322.093 981.006 327.957C977.885 331.158 974.058 333.571 969.836 334.999C967.107 336.084 964.21 336.68 961.277 336.759L945.825 335.586C945.698 335.019 945.455 334.484 945.113 334.017ZM827.667 362.949C768.392 362.949 731.859 361.775 718.067 359.428C713.477 358.649 711.333 357.667 711.651 356.494C712.605 355.449 713.077 354.67 713.077 354.147C713.077 350.102 720.684 346.193 735.898 342.418C752.45 338.447 769.319 335.961 786.306 334.987C834.795 331.466 859.045 336.289 859.054 349.455C859.054 351.797 856.121 354.532 850.254 357.659C843.258 361.229 835.51 363.045 827.668 362.95L827.667 362.949ZM839.554 420.42C838.763 419.641 838.364 418.073 838.364 415.736C838.364 413.399 842.407 411.697 850.494 410.653C860.161 409.088 873.237 409.152 889.721 410.846L890.669 409.868C890.982 409.736 891.147 410.846 891.147 413.193C891.147 415.276 889.245 417.491 885.44 419.839C882.55 421.57 879.289 422.576 875.932 422.773L840.509 422.186C840.316 421.538 839.991 420.937 839.556 420.422L839.554 420.42ZM776.316 396.383L737.33 395.985C736.216 397.549 735.663 396.383 735.663 392.464C735.663 389.995 739.942 387.779 748.5 385.819C758.967 383.471 774.976 381.777 796.528 380.737L797.477 381.522C797.949 381.913 798.189 383.282 798.189 385.629C798.189 388.11 795.731 390.52 790.814 392.86C786.291 395.076 781.345 396.277 776.317 396.378L776.316 396.383ZM809.369 459.523V458.744C809.369 451.833 825.772 449.616 858.577 452.092C868.243 452.874 876.486 453.721 883.306 454.633C887.85 454.906 892.333 455.829 896.619 457.373C896.936 457.373 897.095 457.434 897.095 457.567C903.905 459.39 907.311 461.477 907.315 463.827C907.315 467.739 904.067 470.801 897.571 473.013C896.167 474.419 894.564 475.605 892.813 476.534C886.002 480.447 874.984 482.403 859.759 482.403C854.845 482.403 842.563 481.816 822.911 480.642C801.038 479.468 785.347 478.295 775.837 477.121C774.579 476.67 773.442 475.932 772.514 474.966C771.4 474.184 770.845 472.49 770.847 469.884C770.847 466.755 773.303 464.672 778.216 463.636C781.865 462.977 792.247 461.606 809.362 459.523H809.369ZM944.164 443.103C944.164 436.585 953.041 433.131 970.796 432.74C988.387 432.221 997.182 435.546 997.182 442.716C997.182 444.804 995.36 446.694 991.716 448.385C987.731 450.383 983.33 451.389 978.88 451.319C960.972 451.319 949.954 450.341 945.826 448.385C944.718 447.733 944.159 445.964 944.159 443.103H944.164ZM1095.85 376.833C1096.32 377.225 1096.56 378.523 1096.56 380.738C1096.57 382.962 1096.73 385.182 1097.04 387.384C1096.56 388.688 1094.58 389.339 1091.09 389.339C1068.74 389.339 1056.14 388.883 1053.29 387.969C1053.29 386.796 1052.26 385.622 1050.2 384.448C1051.15 383.638 1051.9 382.617 1052.4 381.465C1052.89 380.313 1053.12 379.062 1053.06 377.808C1056.22 376.244 1070.17 375.72 1094.9 376.239L1095.85 376.833ZM728.299 121.715C731.468 123.671 736.778 124.974 744.227 125.626C745.211 126.366 745.989 127.349 746.489 128.479C746.988 129.609 747.192 130.849 747.08 132.081C747.08 135.602 746.051 137.558 743.993 137.949C742.086 138.474 736.379 138.8 726.873 138.926C696.6 139.971 677.185 139.124 668.629 136.385C666.09 135.341 664.663 134.298 664.347 133.259C664.539 132.616 664.697 131.963 664.819 131.303C664.819 128.956 666.721 127.391 670.527 126.609C675.283 125.564 686.219 124.52 703.334 123.477C711.601 122.275 719.943 121.686 728.295 121.713L728.299 121.715ZM616.561 158.077C614.31 159.625 611.673 160.505 608.949 160.618C584.543 160.618 569.885 159.444 564.975 157.097C563.39 156.445 562.915 155.663 563.55 154.749C564.498 153.97 564.975 153.511 564.975 153.379C564.975 148.293 574.404 145.623 593.263 145.369C611.972 144.978 621.324 147.127 621.321 151.817C621.313 154.037 619.725 156.123 616.556 158.075L616.561 158.077ZM659.351 208.321C659.351 204.8 663.316 202.519 671.245 201.476C679.168 200.559 700.642 199.907 735.668 199.521C735.668 199.78 735.904 200.107 736.386 200.498C736.827 201.615 736.988 202.824 736.858 204.019C736.858 206.361 731.232 209.423 719.98 213.205C708.406 217.243 698.421 219.264 690.025 219.265C677.496 219.265 668.619 217.442 663.393 213.796C660.698 212.099 659.35 210.274 659.348 208.32L659.351 208.321ZM639.614 229.429C639.614 230.994 638.585 232.428 636.527 233.732C633.032 235.815 627.326 236.857 619.407 236.858L605.622 236.467C605.577 235.917 605.414 235.383 605.145 234.903C604.366 233.759 604.027 232.369 604.191 230.992C604.191 228.389 607.281 226.499 613.462 225.323C619.643 224.146 627.962 224.017 638.421 224.936C638.49 225.463 638.745 225.947 639.139 226.3C639.461 226.563 639.614 227.601 639.614 229.429ZM458.458 109.007C449.586 119.951 421.374 125.424 373.824 125.426L365.977 124.454C365.505 123.669 365.259 121.647 365.259 118.387C365.259 114.216 374.295 110.438 392.369 107.052C413.444 103.007 435.474 103.659 458.457 109.007H458.458ZM536.677 255.234C537.154 255.626 537.391 256.799 537.389 258.755C537.389 259.929 536.278 261.364 534.056 263.06C532.307 264.879 529.918 265.933 527.405 265.994L513.614 265.407C512.819 265.269 512.424 263.646 512.424 260.517C512.424 257.65 515.04 255.694 520.271 254.649C525.439 253.592 530.751 253.46 535.964 254.257C535.962 254.516 536.198 254.843 536.677 255.234ZM761.58 484.936C761.58 485.062 761.899 485.394 762.533 485.915C763.004 486.306 763.24 487.414 763.241 489.24C763.241 490.805 761.737 492.695 758.727 494.909C755.688 497.175 752.043 498.469 748.265 498.622L736.855 498.035C736.066 497.253 735.669 495.297 735.666 492.167C735.666 489.173 736.931 487.339 739.465 486.692C741.845 486.045 749.215 485.459 761.577 484.936H761.58ZM651.268 624.516C655.709 624.125 661.017 623.865 667.191 623.737C667.191 623.865 667.438 624.129 667.91 624.516H706.666L707.614 625.301C708.091 625.561 708.327 626.925 708.327 629.409C708.327 636.451 698.895 639.971 680.032 639.971L631.298 639.586C630.344 641.016 629.868 640.038 629.872 636.652C626.863 635.221 625.358 634.243 625.358 633.717C625.358 629.933 629.48 627.326 637.724 625.895C640.729 625.497 645.243 625.037 651.265 624.516H651.268ZM958.666 575.061C951.415 580.133 942.774 582.8 933.948 582.689C903.357 582.689 883.068 581.516 873.082 579.169C869.197 577.274 865.012 576.082 860.717 575.648C862.456 570.3 865.23 566.779 869.04 565.085C876.334 562.223 893.689 559.358 921.103 556.49C921.103 546.584 929.027 543.978 944.874 548.672C960.406 553.488 968.172 558.114 968.172 562.548C968.175 566.327 965.005 570.499 958.663 575.064L958.666 575.061ZM932.985 519.143C932.985 522.408 932.191 524.494 930.604 525.403C926.168 528.533 915.393 530.097 898.279 530.097C889.311 529.917 880.387 528.802 871.647 526.772C862.928 524.949 858.254 523.711 857.626 523.059C864.44 507.41 878.862 500.633 900.89 502.728C908.68 503.286 916.28 505.413 923.239 508.982C929.737 512.242 932.985 515.629 932.985 519.143ZM775.122 506.835C779.31 505.677 783.713 505.542 787.963 506.443C787.963 506.703 788.199 507.03 788.675 507.416C789.116 508.533 789.28 509.741 789.153 510.937C789.063 511.859 788.758 512.748 788.262 513.529C787.767 514.311 787.095 514.963 786.301 515.433C783.543 517.243 780.316 518.195 777.025 518.168C772.583 516.212 769.729 514.908 768.464 514.256C767.521 513.609 767.039 513.018 767.039 512.496C767.043 509.765 769.739 507.878 775.127 506.835H775.122ZM778.926 601.845C776.234 599.629 774.88 597.8 774.88 596.364C774.88 591.806 779.873 589.526 789.86 589.524C793.606 589.536 797.343 589.863 801.034 590.503C801.155 591.013 801.403 591.485 801.754 591.873C802.337 593.017 802.584 594.305 802.466 595.586C802.377 598.039 801.451 600.386 799.845 602.232C799.07 603.428 798.013 604.412 796.767 605.095C795.522 605.777 794.128 606.138 792.71 606.143C787.765 606.332 782.903 604.815 778.929 601.845H778.926ZM838.36 638.394C844.546 633.71 849.778 631.496 854.058 631.755C856.751 632.146 861.664 632.862 868.797 633.904C873.756 633.573 878.683 632.854 883.531 631.755C889.826 630.63 896.175 629.846 902.552 629.407L903.5 629.799C903.97 631.113 904.136 632.518 903.984 633.907C903.984 642.64 892.493 647.005 869.511 647C852.711 647 842.964 645.959 840.269 643.878C840.335 641.875 839.656 639.919 838.364 638.394H838.36Z" fill="#1CBECA" style="mix-blend-mode:screen"/>
        </g>
    </g>
    <defs>
        <clipPath id="clip0_215_58712">
            <rect width="1920" height="1080" fill="white"/>
        </clipPath>
    </defs>
</svg>