<svg xmlns="http://www.w3.org/2000/svg" width="1920" height="1080" viewBox="0 0 1920 1080" fill="none">
    <path d="M1198.28 871.21L1338.24 861.724V849.884L1350.16 845.469L1332.28 762.452L1411.45 741.239V732.035H1378.17V714.646L1411.45 708.743L1406.63 702.475L1266.72 620.758L1230.06 605.307L1269.4 599.025L1264.04 588.377L1253.3 584.465L1170.85 435.602L1422.87 408.655L1455.05 415.609L1502.73 523.401L1474.13 434.735L1516.94 419.957L1662.76 451.252L1639.81 871.986L1198.28 871.21Z" fill="url(#paint0_linear_215_68197)"/>
    <path d="M1455.05 415.611L1340.92 493.511L1271.8 485.662L1170.85 435.604L1422.86 408.656L1455.05 415.611Z" fill="#0626AA"/>
    <path d="M1230.07 605.312L1308.59 610.929L1441.88 553.784L1269.4 599.027L1230.07 605.312Z" fill="#0626AA"/>
    <path d="M1378.17 714.646L1422.78 722.834L1580.12 695.857L1577.39 691.919L1411.45 708.755L1378.17 714.646Z" fill="#0626AA"/>
    <path d="M1332.28 762.456L1408.22 775.348L1567.6 730.612L1411.45 741.245L1332.28 762.456Z" fill="#0626AA"/>
    <path d="M1338.24 849.884L1367.3 867.439H1419.14L1350.16 845.472L1338.24 849.884Z" fill="#0626AA"/>
    <path d="M1338.24 861.724L1353.35 867.434L1239.39 868.418L1338.24 861.724Z" fill="#0626AA"/>
    <path d="M1419.14 845.337L1489.86 847.601L1467.79 855.635L1419.14 845.337Z" fill="#0626AA"/>
    <path d="M1502.73 523.402L1455.05 548.114L1567.5 531.823L1502.73 523.402Z" fill="#0626AA"/>
    <path d="M1474.12 434.735L1662.76 451.252L1516.95 419.957L1474.12 434.735Z" fill="#0626AA"/>
    <path d="M1313.34 511.263L1382.46 483.766L1364.27 505.032L1313.34 511.263Z" fill="#0626AA"/>
    <path d="M1472.67 781.977L1553.13 743.973L1599.21 737.741L1472.67 781.977Z" fill="#0626AA"/>
    <path d="M1472.67 861.724L1512.81 845.337L1567.6 844.196L1504.02 856.455L1472.67 861.724Z" fill="#0626AA"/>
    <path d="M1506.75 864.572L1527.97 860.163L1530.4 865.074L1506.75 864.572Z" fill="#0626AA"/>
    <path d="M1511.27 792.863L1546.46 785.251L1528.87 797.206L1511.27 792.863Z" fill="#0626AA"/>
    <g style="mix-blend-mode:multiply" opacity="0.7">
        <path d="M1441.87 553.785L1468.56 702.952H1479.14L1455.05 548.118L1502.73 523.406L1455.05 415.615L1340.92 493.514L1343.81 499.144L1382.45 483.768L1364.27 505.034L1382.45 567.023L1441.87 553.785Z" fill="#808CD3"/>
        <path d="M1422.77 722.833L1426.71 730.611L1411.44 732.031V741.243L1567.59 730.61L1580.11 695.85L1422.77 722.833Z" fill="#808CD3"/>
        <path d="M1408.22 775.348L1404 862.619L1421.83 867.443H1367.3V870.908L1506.75 871.756V864.572L1527.97 860.163L1530.4 865.074V871.987H1563.74L1565.54 844.594L1472.67 861.725L1492.18 853.761L1489.86 847.601L1467.79 855.635L1419.14 845.339L1467.79 846.896L1472.67 781.978L1553.13 743.975L1551.85 735.027L1408.22 775.348Z" fill="#808CD3"/>
        <path d="M1313.34 511.264L1326.37 582.904L1305.45 508.198L1313.34 511.264Z" fill="#808CD3"/>
        <path d="M1264.03 588.379H1312.95L1269.4 599.027L1264.03 588.379Z" fill="#808CD3"/>
    </g>
    <g style="mix-blend-mode:soft-light">
        <path d="M1271.8 485.663L1403.07 445.424L1416.81 441.719L1335.97 493.517L1271.8 485.663Z" fill="#8CA2D1"/>
        <path d="M1181.79 434.435L1219.36 451.252L1344.3 441.718L1367.29 414.6L1181.79 434.435Z" fill="#8CA2D1"/>
        <path d="M1367.3 432.926L1378.17 424.526H1391.55L1382.45 432.926H1367.3Z" fill="#8CA2D1"/>
        <path d="M1407.87 720.097L1421.83 707.373L1487.77 702.95L1472.67 714.272L1422.78 722.829L1407.87 720.097Z" fill="#8CA2D1"/>
        <path d="M1511.27 698.618V702.95H1535.94L1549.77 694.713L1511.27 698.618Z" fill="#8CA2D1"/>
        <path d="M1502.73 437.241L1514.2 432.896L1590.17 435.068L1616.34 447.188L1502.73 437.241Z" fill="#8CA2D1"/>
        <path d="M1308.58 610.93L1348.75 593.707L1326.37 582.905L1269.4 599.032L1230.06 605.313L1308.58 610.93Z" fill="#8CA2D1"/>
        <path d="M1354 591.458L1351.61 582.904L1363.2 576.863L1393.35 574.589L1354 591.458Z" fill="#8CA2D1"/>
        <path d="M1254.98 451.255L1259.07 456.133L1267.94 453.694L1283.39 451.087L1254.98 451.255Z" fill="#8CA2D1"/>
        <path d="M1332.28 762.456L1379.93 749.688L1416.8 751.254L1405.72 764.441L1387.53 761.713L1362.63 767.61L1332.28 762.456Z" fill="#8CA2D1"/>
        <path d="M1378.17 770.248L1383.67 767.611L1400.27 768.93V773.998L1378.17 770.248Z" fill="#8CA2D1"/>
        <path d="M1457.24 736.088L1441.88 765.903L1492.69 751.639L1508.2 734.656L1457.24 736.088Z" fill="#8CA2D1"/>
    </g>
    <path d="M33.7266 956.613L60.4075 974.878H47.065L33.7266 956.613Z" fill="#066BD3"/>
    <path d="M707.077 855.67L698.816 813.599L713.368 810.908V806.929L707.077 788.74L717.005 782.677V785.434L683.052 767.244V741.169L716.112 744.345L661.225 551.418L733.983 521.102L672.745 514.471L666.075 494.463L763.693 485.936L1012.25 540.352L940.664 571.425L924.972 572.032L912.845 685.057L905.57 685.663L904.357 730.253L959.999 765.708L883.743 820.296H877.68L875.255 835.425L888.417 842.701L883.138 855.669L707.077 855.67Z" fill="url(#paint1_linear_215_68197)"/>
    <path d="M666.076 494.463L752.211 512.008L1012.25 540.353L770.714 478.173L666.076 494.463Z" fill="#0626AA"/>
    <path d="M661.225 551.422L793.439 600.534L894.694 608.933L733.982 521.098L661.225 551.422Z" fill="#0626AA"/>
    <path d="M683.052 741.172L784.345 767.699L716.116 744.349L683.052 741.172Z" fill="#0626AA"/>
    <path d="M960 765.711L805.23 762.997L729.782 722.981L904.363 730.256L960 765.711Z" fill="#0626AA"/>
    <path d="M717.005 782.677L825.573 813.746L811.022 839.161L707.077 788.741L717.005 782.677Z" fill="#0626AA"/>
    <path d="M713.368 810.908L760.666 828.757L721.896 829.052L702.493 813.745L713.368 810.908Z" fill="#0626AA"/>
    <path d="M720.075 608.929L770.714 633.119H751.604L720.075 608.929Z" fill="#0626AA"/>
    <path d="M825.574 837.848L855.284 828.757L888.415 842.702L825.574 837.848Z" fill="#0626AA"/>
    <g style="mix-blend-mode:multiply" opacity="0.7">
        <path d="M793.439 600.531L810.44 726.343L778.661 725.019L770.714 633.121L720.076 608.931L736.195 723.249L729.778 722.981L731.58 749.639L716.113 744.346L661.226 551.419L793.439 600.531Z" fill="#808CD3"/>
        <path d="M666.076 494.463L672.746 514.471L733.984 521.102L779.756 546.117L752.211 512.008L666.076 494.463Z" fill="#808CD3"/>
        <path d="M805.229 762.996L810.447 809.414L717.014 782.675L683.061 767.24V741.172L788.59 767.696L750.866 756.236L745.395 731.261L805.229 762.996Z" fill="#808CD3"/>
        <path d="M811.023 839.161L814.585 855.671H766.326L760.665 828.758L735.832 819.386L731.579 800.625L811.023 839.161Z" fill="#808CD3"/>
        <path d="M721.894 829.053L723.638 855.67H707.078L698.817 813.599L721.894 829.053Z" fill="#808CD3"/>
        <path d="M877.68 820.298L828.453 815.191L875.254 835.426L877.68 820.298Z" fill="#808CD3"/>
        <path d="M940.664 571.426L799.806 533.479L924.973 572.031L940.664 571.426Z" fill="#808CD3"/>
        <path d="M894.695 608.928L882.568 690.82L898.025 613.514L894.695 608.928Z" fill="#808CD3"/>
    </g>
    <g style="mix-blend-mode:soft-light">
        <path d="M805.225 762.997L760.666 739.363L764.337 729.7L855.967 733.343L925.087 765.715L805.225 762.997Z" fill="#8CA2D1"/>
        <path d="M870.518 737.885L880.295 741.17H917.357L898.03 732.656L870.518 737.885Z" fill="#8CA2D1"/>
        <path d="M770.716 540.406L733.697 561.218L739.78 577.134L793.437 600.528L849.218 591.989V583.045L770.716 540.406Z" fill="#8CA2D1"/>
        <path d="M820.708 602.792L823.604 600L841.793 595.63L872.731 607.108L820.708 602.792Z" fill="#8CA2D1"/>
        <path d="M787.82 515.889L810.441 488.401L899.028 511.207L879.325 525.863L787.82 515.889Z" fill="#8CA2D1"/>
        <path d="M753.877 494.463H670.205L729.776 508.307L770.713 496.4L753.877 494.463Z" fill="#8CA2D1"/>
        <path d="M731.578 786.847L720.075 793.321L766.326 806.777L752.739 809.414L759.773 814.3L801.083 806.736L731.578 786.847Z" fill="#8CA2D1"/>
        <path d="M788.318 828.148L799.578 816.583L822.004 819.98L811.022 839.16L788.318 828.148Z" fill="#8CA2D1"/>
        <path d="M722.916 543.551L729.777 533.482L719.091 538.068L710.906 540.407L722.916 543.551Z" fill="#8CA2D1"/>
        <path d="M760.665 505.06L764.111 501.385L777.962 503.223L770.716 508.307L760.665 505.06Z" fill="#8CA2D1"/>
        <path d="M907.353 754.433L925.086 758.121L930.088 756.277L907.353 754.433Z" fill="#8CA2D1"/>
    </g>
    <path d="M602.651 791.819L686.983 816.047L686.261 830.626L681.269 833.11L680.999 838.561L688.456 838.931L692.579 852.007L480.843 856.201L478.728 850.664L489.789 837.963L488.388 824.883L602.651 791.819Z" fill="url(#paint2_linear_215_68197)"/>
    <path d="M602.65 791.819L686.984 816.047L589.356 835.949L488.388 824.885L602.65 791.819Z" fill="#0626AA"/>
    <path d="M489.79 837.965L544.81 840.694L478.729 850.666L489.79 837.965Z" fill="#0626AA"/>
    <path d="M688.457 838.933L653.66 850.411L599.53 841.12L680.999 838.56L688.457 838.933Z" fill="#0626AA"/>
    <g style="mix-blend-mode:multiply" opacity="0.8">
        <path d="M589.356 835.95V854.054L544.809 854.94V840.693L489.79 837.964L488.387 824.885L589.356 835.95Z" fill="#808CD3"/>
    </g>
    <g style="mix-blend-mode:soft-light">
        <path d="M536.362 829.053L554.248 815.191L634.055 813.599L635.874 817.919L610.079 831.725L589.355 835.95L536.362 829.053Z" fill="#8CA2D1"/>
    </g>
    <g style="mix-blend-mode:soft-light">
        <path d="M533.784 824.774L538.871 816.583L529.464 815.19L508.092 820.297L533.784 824.774Z" fill="#8CA2D1"/>
    </g>
    <g style="mix-blend-mode:soft-light">
        <path d="M594.947 806.778L599.53 800.624L612 800.574L606.093 803.676L594.947 806.778Z" fill="#8CA2D1"/>
    </g>
    <path d="M904.083 861.274L909.123 834.076L904.112 829.778L907.352 798.498L1035.91 798.928L1110.14 824.069L1110.63 833.914L1102.81 835.214L1102.1 844.693L1130.8 858.861L1131.07 864.312L904.083 861.274Z" fill="url(#paint3_linear_215_68197)"/>
    <path d="M907.352 798.498L988.872 830.102L1110.14 824.066L1035.91 798.926L907.352 798.498Z" fill="#0626AA"/>
    <path d="M1102.1 844.689L943.903 832.344L1033.35 854.838L1130.8 858.857L1102.1 844.689Z" fill="#0626AA"/>
    <g style="mix-blend-mode:multiply" opacity="0.8">
        <path d="M943.905 832.344V861.805L904.081 861.273L909.121 834.075L904.109 829.777L988.868 830.105V835.421L943.905 832.344Z" fill="#808CD3"/>
    </g>
    <g style="mix-blend-mode:multiply" opacity="0.8">
        <path d="M1102.81 835.209L1006.99 837.266L1102.1 844.689L1102.81 835.209Z" fill="#808CD3"/>
    </g>
    <g style="mix-blend-mode:soft-light">
        <path d="M988.871 798.498V818.147L1021.72 825.309H1075.98L1017.58 800.579L988.871 798.498Z" fill="#8CA2D1"/>
    </g>
    <g style="mix-blend-mode:soft-light">
        <path d="M1020.41 851.581L1029.3 844.689L1080.53 845.792L1093.56 857.322L1033.36 854.839L1020.41 851.581Z" fill="#8CA2D1"/>
    </g>
    <g style="mix-blend-mode:soft-light">
        <path d="M1014.44 844.689L1017.58 842.703L1006.99 837.267V842.703L1014.44 844.689Z" fill="#8CA2D1"/>
    </g>
    <defs>
        <linearGradient id="paint0_linear_215_68197" x1="1416.8" y1="871.986" x2="1416.8" y2="408.655" gradientUnits="userSpaceOnUse">
            <stop stop-color="#0A1B87"/>
            <stop offset="0.307" stop-color="#0C1289"/>
            <stop offset="0.992" stop-color="#12048D"/>
        </linearGradient>
        <linearGradient id="paint1_linear_215_68197" x1="836.736" y1="855.67" x2="836.736" y2="485.936" gradientUnits="userSpaceOnUse">
            <stop stop-color="#0A1B87"/>
            <stop offset="0.307" stop-color="#0C1289"/>
            <stop offset="0.992" stop-color="#12048D"/>
        </linearGradient>
        <linearGradient id="paint2_linear_215_68197" x1="582.232" y1="746.88" x2="582.232" y2="676.575" gradientUnits="userSpaceOnUse">
            <stop stop-color="#0A1B87"/>
            <stop offset="0.307" stop-color="#0C1289"/>
            <stop offset="0.992" stop-color="#12048D"/>
        </linearGradient>
        <linearGradient id="paint3_linear_215_68197" x1="1013.72" y1="1000.28" x2="1013.72" y2="923.412" gradientUnits="userSpaceOnUse">
            <stop stop-color="#0A1B87"/>
            <stop offset="0.307" stop-color="#0C1289"/>
            <stop offset="0.992" stop-color="#12048D"/>
        </linearGradient>
    </defs>
</svg>