<svg xmlns="http://www.w3.org/2000/svg" width="1920" height="940" viewBox="0 0 1920 940" fill="none">
    <path d="M396.005 460.055H551.692C551.692 460.055 526.361 461.013 524.507 465.357C522.653 469.697 803.759 462.706 803.759 462.706L944 463.418C944 463.418 909.404 453.966 892.104 455.51C874.804 457.054 868.628 458.594 868.628 458.594C868.628 458.594 853.801 427.746 832.178 425.9C810.555 424.049 807.155 437.928 807.155 437.928C807.155 437.928 802.52 434.844 798.812 435.77C795.104 436.696 794.797 446.254 794.797 446.254C794.797 446.254 782.751 429.909 759.274 436.696C759.274 436.696 746.097 367.293 706.969 354.544C667.841 341.794 670.002 381.689 670.002 381.689C670.002 381.689 660.425 375.107 656.308 377.163C652.19 379.219 653.834 382.921 653.834 382.921C653.834 382.921 634.89 374.284 616.765 378.81C598.641 383.335 595.347 394.029 595.347 394.029C595.347 394.029 582.291 313.072 535.687 313.244C489.082 313.416 492.79 390.015 492.79 390.015C492.79 390.015 484.555 390.326 480.847 394.443C477.139 398.555 483.32 415.006 483.32 415.006C483.32 415.006 475.085 415.416 464.786 420.765C454.487 426.109 461.903 454.901 461.903 454.901C461.903 454.901 450.369 443.798 447.486 455.724C447.486 455.724 435.128 435.57 419.067 435.984C403.006 436.393 396 460.064 396 460.064L396.005 460.055Z" fill="url(#paint0_linear_185_67653)"/>
    <path style="mix-blend-mode:multiply" opacity="0.5" d="M412.126 437.728C412.126 437.728 402.377 450.059 406.849 454.068C411.316 458.078 461.907 454.892 461.907 454.892C461.907 454.892 456.085 432.374 462.499 422.658C462.499 422.658 470.096 438.761 489.092 446.78C508.087 454.799 518.335 444.766 518.335 444.766C518.335 444.766 488.682 425.281 483.325 414.997C483.325 414.997 501.45 434.923 510.92 432.57C520.394 430.216 492.795 390.005 492.795 390.005C492.795 390.005 492.408 338.762 510.104 324.44C510.104 324.44 496.503 377.047 519.979 409.797C543.456 442.547 575.583 424.7 583.818 413.267C592.054 401.834 593.205 383.856 593.205 383.856L595.352 394.015C595.352 394.015 590 424.881 595.352 426.104C600.704 427.328 653.839 420.174 655.898 413.267C657.957 406.355 653.839 382.912 653.839 382.912C653.839 382.912 655.898 400.596 663.723 405.532C671.549 410.467 670.002 381.679 670.002 381.679L670.617 373.302L681.433 394.378C681.433 394.378 665.684 417.309 666.192 422.653C666.704 427.998 697.685 437.035 697.685 437.035L687.61 402.09C687.61 402.09 708.203 436.793 723.03 440.905C737.857 445.017 759.274 436.691 759.274 436.691C759.274 436.691 748.566 446.073 751.449 446.78C754.332 447.487 792.226 451.189 792.226 451.189L794.802 446.249C794.802 446.249 802.525 445.431 832.178 449.952C861.831 454.478 863.709 450.096 863.709 450.096L868.632 458.585H623.356L522.034 456.529L396.005 460.055C396.005 460.055 403.537 442.361 412.126 437.728Z" fill="url(#paint1_linear_185_67653)"/>
    <path d="M396.005 460.055C396.005 460.055 407.948 457.361 457.785 454.892C507.622 452.422 505.148 454.892 505.148 454.892L540.568 453.794C540.568 453.794 507.617 447.077 511.325 436.793C515.033 426.509 585.873 436.793 585.873 436.793C585.873 436.793 606.876 422.397 664.128 427.746C721.376 433.091 690.898 449.957 690.898 449.957C690.898 449.957 796.544 452.012 832.583 455.301C868.623 458.589 939.677 463.39 939.677 463.39C939.677 463.39 535.626 469.297 526.976 465.999C518.326 462.701 540.983 459.413 540.983 459.413L396.005 460.055Z" fill="url(#paint2_radial_185_67653)"/>
    <path d="M672.676 365.846C672.676 365.846 682.896 355.451 710.169 363.014C737.447 370.581 757.961 430.853 757.961 430.853C757.961 430.853 752.916 388.331 723.971 364.646C695.021 340.966 677.921 356.172 672.676 365.842V365.846Z" fill="#FFE58B"/>
    <path d="M755.194 440.533C755.194 440.533 765.456 436.589 778.839 438.026C792.226 439.463 794.797 446.25 794.797 446.25C794.797 446.25 777.674 424.323 755.189 440.533H755.194Z" fill="#FFE58B"/>
    <path d="M795.645 440.408C795.645 440.408 801.905 436.384 807.155 437.924C807.155 437.924 796.591 430.649 795.645 440.408Z" fill="#FFE58B"/>
    <path d="M810.234 432.57C810.234 432.57 830.883 428.37 843.781 434.566C856.684 440.761 864.887 452.139 864.887 452.139C864.887 452.139 854.36 430.482 833.859 426.114C817.659 422.658 810.229 432.575 810.229 432.575L810.234 432.57Z" fill="#FFE58B"/>
    <path d="M499.502 341.999C499.502 341.999 507.901 316.937 536.557 321.635C565.214 326.333 588.686 368.181 588.686 368.181C588.686 368.181 578.49 318.719 539.408 313.407C506.904 308.988 499.507 341.999 499.507 341.999H499.502Z" fill="#FFE58B"/>
    <defs>
        <linearGradient id="paint0_linear_185_67653" x1="670.002" y1="466.776" x2="670.002" y2="313.24" gradientUnits="userSpaceOnUse">
            <stop stop-color="#FF8B90"/>
            <stop offset="1" stop-color="#FFEFA4"/>
        </linearGradient>
        <linearGradient id="paint1_linear_185_67653" x1="632.318" y1="460.055" x2="632.318" y2="324.445" gradientUnits="userSpaceOnUse">
            <stop stop-color="#D698C7"/>
            <stop offset="1" stop-color="#FFDBFF"/>
        </linearGradient>
        <radialGradient id="paint2_radial_185_67653" cx="0" cy="0" r="1" gradientUnits="userSpaceOnUse" gradientTransform="translate(724.87 430.184) scale(257.89 110.732)">
            <stop stop-color="#E4626A"/>
            <stop offset="1" stop-color="#C75B7D"/>
        </radialGradient>
    </defs>
</svg>