<svg xmlns="http://www.w3.org/2000/svg" width="65" height="49" viewBox="0 0 65 49" fill="none">
    <g clip-path="url(#clip0_397_75238)">
        <path d="M15.517 12.311C15.517 12.311 18.717 6.53324 23.539 4.35546C28.3609 2.17768 31.9992 0.799902 37.0403 0.444346C42.0814 0.0887909 49.2266 1.33324 51.7691 5.24435C54.3116 9.11101 52.9965 15.911 53.6979 22.2666C54.1801 26.5777 52.5143 27.2888 51.5938 27.5555C50.6732 27.8221 49.402 27.6443 48.9636 26.7555C48.5253 25.8666 44.9307 17.3777 40.2842 14.3555C35.5938 11.3332 32.0869 9.68879 28.4924 9.5999C24.854 9.51101 20.9088 9.77768 18.3664 11.511C15.7801 13.2443 15.6047 12.3555 15.6047 12.3555L15.517 12.311Z" fill="url(#paint0_linear_397_75238)"/>
        <path d="M29.8078 43.4221C29.8078 43.4221 36.9968 49.6443 44.7119 48.1777C52.427 46.711 50.805 40.7554 51.8133 35.4665C52.1639 33.511 51.3311 32.5777 50.7174 32.311C50.1475 32.0888 49.2708 31.0665 47.7804 33.6443C46.29 36.2221 43.1776 38.311 40.5913 40.1332C37.9612 41.9554 33.3585 42.6221 31.5174 42.6665C29.6763 42.711 29.8516 43.4221 29.8516 43.4221H29.8078Z" fill="url(#paint1_linear_397_75238)"/>
        <path d="M16.5693 12.4445C16.5693 12.4445 21.5227 5.91112 24.5474 3.95557C24.5474 3.95557 19.9885 9.42223 19.2433 10.9778C19.2433 10.9778 17.183 12.7556 16.5693 12.4445Z" fill="url(#paint2_linear_397_75238)"/>
        <path d="M20.6897 10.3556C20.6897 10.3556 23.539 5.55555 26.6514 3.02222C26.6514 3.02222 22.6185 8.17777 21.6979 10.0889L20.7336 10.3556H20.6897Z" fill="url(#paint3_linear_397_75238)"/>
        <path d="M22.7939 9.86655C22.7939 9.86655 26.0378 4.93321 28.0542 2.48877C28.0542 2.48877 24.5035 8.48877 24.2405 9.68877L22.7939 9.86655Z" fill="url(#paint4_linear_397_75238)"/>
        <path d="M25.2488 9.59981C25.2488 9.59981 27.1337 4.93314 30.0269 1.77759C30.0269 1.77759 26.6953 7.46648 26.3008 9.55537H25.2488V9.59981Z" fill="url(#paint5_linear_397_75238)"/>
        <path d="M27.3527 9.55556C27.3527 9.55556 29.2376 4.71112 33.2705 0.977783C33.2705 0.977783 29.413 6.57778 28.4486 9.60001H27.3527V9.55556Z" fill="url(#paint6_linear_397_75238)"/>
        <path d="M29.5006 9.51099C29.5006 9.51099 31.8677 4.26655 36.3828 0.48877C36.3828 0.48877 31.6486 6.44432 30.5527 9.77766L29.4568 9.46655L29.5006 9.51099Z" fill="url(#paint7_linear_397_75238)"/>
        <path d="M31.6488 10.0443C31.6488 10.0443 35.1118 3.77766 39.8022 0.48877C39.8022 0.48877 33.9283 7.19988 32.7885 10.3999L31.6488 10.0443Z" fill="url(#paint8_linear_397_75238)"/>
        <path d="M33.8845 10.8C33.8845 10.8 37.3037 4.97777 42.564 1.02222C42.564 1.02222 36.2955 8.08888 35.0681 11.3333L33.8845 10.8Z" fill="url(#paint9_linear_397_75238)"/>
        <path d="M36.12 11.8666C36.12 11.8666 40.0214 5.73324 45.457 2.3999C45.457 2.3999 38.9694 8.48879 37.2598 12.4888L36.12 11.8666Z" fill="url(#paint10_linear_397_75238)"/>
        <path d="M38.1803 13.0221C38.1803 13.0221 41.8186 7.15545 47.7803 4.44434C47.7803 4.44434 40.5036 10.4888 39.4953 13.8666L38.1803 13.0666V13.0221Z" fill="url(#paint11_linear_397_75238)"/>
        <path d="M40.2404 14.3111C40.2404 14.3111 44.5363 8.17772 49.665 7.24438C49.665 7.24438 43.002 10.8888 41.2486 15.0666L40.2404 14.3111Z" fill="url(#paint12_linear_397_75238)"/>
        <path d="M41.8626 15.6C41.8626 15.6 44.8872 11.4667 50.9365 10C50.9365 10 44.2735 13.5111 42.5639 16.3556L41.8187 15.6H41.8626Z" fill="url(#paint13_linear_397_75238)"/>
        <path d="M43.3091 17.1109C43.3091 17.1109 46.0269 13.2887 52.0762 12.8887C52.0762 12.8887 44.9748 15.3776 44.0543 17.9998L43.3091 17.0665V17.1109Z" fill="url(#paint14_linear_397_75238)"/>
        <path d="M44.7115 18.9778C44.7115 18.9778 47.4293 15.9556 52.9526 15.9111C52.9526 15.9111 46.3773 17.7334 45.3252 19.8667L44.7115 18.9334V18.9778Z" fill="url(#paint15_linear_397_75238)"/>
        <path d="M45.7638 20.5778C45.7638 20.5778 49.2707 18 53.4351 18C53.4351 18 47.2104 19.7333 46.3337 21.4667L45.8077 20.5778H45.7638Z" fill="url(#paint16_linear_397_75238)"/>
        <path d="M46.6406 22.0887C46.6406 22.0887 49.7091 19.5554 53.0845 20.4887C53.0845 20.4887 49.2708 20.7554 47.0352 22.7554L46.6406 22.0887Z" fill="url(#paint17_linear_397_75238)"/>
        <path d="M47.3857 23.4665C47.3857 23.4665 49.9282 22.3999 53.6104 22.7554C53.6104 22.7554 49.2706 23.1999 47.7364 24.1776L47.3857 23.4665Z" fill="url(#paint18_linear_397_75238)"/>
        <path d="M48.0873 24.9332C48.0873 24.9332 50.8051 23.9998 53.3037 24.5776C53.3037 24.5776 49.3147 25.0221 48.4818 25.7776L48.0873 24.9776V24.9332Z" fill="url(#paint19_linear_397_75238)"/>
        <path d="M48.7444 26.2666C48.7444 26.2666 50.717 25.6444 52.9526 25.9555C52.9526 25.9555 49.2704 26.4444 49.1389 27.0222L48.7444 26.2666Z" fill="url(#paint20_linear_397_75238)"/>
        <path d="M30.7283 42.7554C30.7283 42.7554 34.5858 46.7998 40.9858 48.3554C40.9858 48.3554 34.0598 45.8665 31.868 42.6665L30.7283 42.7554Z" fill="url(#paint21_linear_397_75238)"/>
        <path d="M32.7448 42.5777C32.7448 42.5777 38.1804 47.6888 43.9229 48.311C43.9229 48.311 37.479 46.3999 33.9283 42.3999L32.7448 42.5777Z" fill="url(#paint22_linear_397_75238)"/>
        <path d="M35.2873 42.1331C35.2873 42.1331 39.3201 46.222 45.1064 48.0887C45.1064 48.0887 38.9256 45.2887 36.4708 41.8665L35.2873 42.1776V42.1331Z" fill="url(#paint23_linear_397_75238)"/>
        <path d="M37.6104 41.5111C37.6104 41.5111 42.0817 45.8666 46.4214 47.6889C46.4214 47.6889 41.5118 44.5777 38.5748 41.1555L37.6104 41.5111Z" fill="url(#paint24_linear_397_75238)"/>
        <path d="M39.7147 40.6222C39.7147 40.6222 43.7037 45.2444 47.6489 47.0666C47.6489 47.0666 43.3092 43.9111 40.5476 40.1333L39.7147 40.6222Z" fill="url(#paint25_linear_397_75238)"/>
        <path d="M41.2487 39.6C41.2487 39.6 43.7912 44.1778 49.3145 45.7778C49.3145 45.7778 43.6597 43.3333 42.0816 39.0222L41.2487 39.6Z" fill="url(#paint26_linear_397_75238)"/>
        <path d="M42.1692 38.2221C42.1692 38.2221 44.8432 43.4221 49.8843 44.0443C49.8843 44.0443 44.5802 42.4443 43.0021 37.5999L42.213 38.2221H42.1692Z" fill="url(#paint27_linear_397_75238)"/>
        <path d="M43.0458 36.6222C43.0458 36.6222 44.4047 41.2445 50.2349 41.7778C50.2349 41.7778 44.1417 39.8222 43.8349 35.9556L43.0458 36.6222Z" fill="url(#paint28_linear_397_75238)"/>
        <path d="M44.0543 35.6444C44.0543 35.6444 45.6762 38.6222 50.542 40.5333C50.542 40.5333 45.5009 37.4666 44.405 35.2888L44.0543 35.6444Z" fill="url(#paint29_linear_397_75238)"/>
        <path d="M44.7993 34.5777C44.7993 34.5777 47.3856 37.7333 50.8486 38.5333C50.8486 38.5333 46.5966 36.2222 45.1062 34.1777L44.7993 34.5333V34.5777Z" fill="url(#paint30_linear_397_75238)"/>
        <path d="M45.6763 34.2221C45.6763 34.2221 48.3941 36.6665 51.3311 37.3776C51.3311 37.3776 46.9475 34.8443 46.1585 33.5554L45.6763 34.2221Z" fill="url(#paint31_linear_397_75238)"/>
        <path d="M46.5529 32.4443L51.2871 35.2888C51.2871 35.2888 49.0077 33.4221 48.5255 32.5777L46.5529 32.4888V32.4443Z" fill="url(#paint32_linear_397_75238)"/>
        <path d="M3.98813 29.6442C3.98813 29.6442 3.37443 29.7331 3.68128 30.4442C3.98813 31.1553 6.92511 30.1776 8.81005 30.0442C10.695 29.9109 13.0183 32.1331 14.8155 34.3998C16.1744 36.0887 18.2347 38.5331 20.4703 40.1331C20.7333 40.3109 20.9525 40.4887 21.2155 40.622C21.7416 40.9331 22.3114 41.2442 22.8813 41.4664C23.1443 41.5553 23.4073 41.6887 23.6703 41.7776C25.3799 42.3109 27.4402 43.3331 30.2018 43.5553C31.6922 43.6887 33.358 43.5553 35.2868 43.1553C36.1635 42.9776 37.084 42.6664 38.0922 42.3109C39.9772 41.6442 41.5553 40.7553 42.9142 39.822C45.2813 38.1776 46.9032 36.3553 48.0429 35.022C48.9635 33.9998 49.5772 33.2442 50.1032 33.1553C50.8922 33.022 51.5498 33.3776 52.2073 33.9109C52.8648 34.4887 53.5224 35.2887 54.1361 36.0887C54.3553 36.3553 54.6183 36.7998 54.9251 37.2887C56.3717 39.7331 58.6073 44.1331 58.695 44.3109C66.5854 36.2664 64.4813 25.4664 64.4813 25.4664C62.6402 25.2442 60.2731 25.822 57.9059 26.4442C56.5032 26.7998 55.1005 27.1998 53.8292 27.4664C53.7854 27.4664 53.7416 27.4664 53.6977 27.4664C50.2785 28.1331 49.7525 26.0887 48.7881 24.4442C48.6128 24.1331 48.3498 23.5998 48.0429 22.9331C47.1224 21.022 45.4566 17.9109 42.695 15.022C41.3361 13.5998 39.758 12.2664 37.8292 11.1109C37.5662 10.9776 37.347 10.8442 37.084 10.6664C35.9005 10.0442 34.6731 9.51089 33.4018 9.15534C31.1224 8.48867 28.7114 8.222 26.4758 8.26645C25.2484 8.26645 24.0648 8.39978 22.9251 8.622C19.5936 9.19978 16.832 10.5331 15.5169 12.2664C12.4922 16.2664 12.2731 19.7776 11.0018 22.2664C9.68676 24.8442 7.49498 25.422 7.49498 25.422C3.33059 25.822 0.656621 26.622 0.788128 28.1776C0.963471 29.7331 4.03196 29.5998 4.03196 29.5998L3.98813 29.6442Z" fill="url(#paint33_linear_397_75238)"/>
        <path d="M58.7828 44.2666C66.5856 36.2666 64.4815 25.4666 64.4815 25.4666C58.8267 26.8443 55.8458 29.8221 55.7143 32.6221C55.5828 35.3777 58.739 43.9999 58.8267 44.2666H58.7828Z" fill="url(#paint34_linear_397_75238)"/>
        <path d="M57.6433 28.8444C57.6433 28.8444 63.7364 28.1333 64.7446 28.1778C64.7446 28.1778 60.2296 29.4222 57.2487 29.2444C57.2487 29.2444 57.4679 29.0222 57.6433 28.8444Z" fill="url(#paint35_linear_397_75238)"/>
        <path d="M56.8542 29.7331C56.8542 29.7331 62.8159 29.422 64.7446 29.5998C64.7446 29.5998 60.4926 30.7109 56.5035 30.3109L56.8981 29.7776L56.8542 29.7331Z" fill="url(#paint36_linear_397_75238)"/>
        <path d="M56.2403 30.7554C56.2403 30.7554 63.2102 30.8443 64.6567 31.2887C64.6567 31.2887 60.1417 32.1331 55.9773 31.3331C55.9773 31.3331 56.065 30.7554 56.2403 30.7554Z" fill="url(#paint37_linear_397_75238)"/>
        <path d="M55.8456 31.689C55.8456 31.689 61.9826 32.2667 64.3936 32.9779C64.3936 32.9779 57.862 32.9779 55.7141 32.2223C55.7141 32.2223 55.5388 32.0445 55.8456 31.689Z" fill="url(#paint38_linear_397_75238)"/>
        <path d="M55.7147 32.6221C55.7147 32.6221 61.4133 33.511 64.0435 34.7998C64.0435 34.7998 58.301 34.311 55.7585 33.2887C55.7585 33.2887 55.6709 33.0221 55.7585 32.6221H55.7147Z" fill="url(#paint39_linear_397_75238)"/>
        <path d="M55.7582 33.7776C55.7582 33.7776 60.6678 35.2443 63.5171 36.5776C63.5171 36.5776 58.8705 35.9109 55.8897 34.5331C55.8897 34.5331 55.802 34.2665 55.7582 33.7776Z" fill="url(#paint40_linear_397_75238)"/>
        <path d="M56.0214 35.1111C56.0214 35.1111 60.4488 36.5778 62.6406 38.7111C62.6406 38.7111 58.3447 37.5111 56.153 35.7778C56.153 35.7778 56.0653 35.4666 56.0214 35.1111Z" fill="url(#paint41_linear_397_75238)"/>
        <path d="M56.372 36.7109C56.372 36.7109 59.8788 38.222 61.9829 39.9554C61.9829 39.9554 58.3446 38.9332 56.5473 37.422L56.372 36.7109Z" fill="url(#paint42_linear_397_75238)"/>
        <path d="M56.7667 38.1333C56.7667 38.1333 58.8708 39.0222 61.2817 41.1555C61.2817 41.1555 58.1256 40 56.9858 38.8444L56.7667 38.1333Z" fill="url(#paint43_linear_397_75238)"/>
        <path d="M57.2925 39.7778C57.2925 39.7778 59.1336 40.8889 60.4048 42.4001C60.4048 42.4001 58.6952 42.0001 57.5116 40.4445L57.2925 39.7778Z" fill="url(#paint44_linear_397_75238)"/>
        <path d="M57.8187 41.511L59.7036 43.2443L58.1255 42.4443L57.8187 41.511Z" fill="url(#paint45_linear_397_75238)"/>
        <path d="M22.2242 17.3333C22.2242 17.3333 24.9858 26.1333 17.6215 30.0444C17.6215 30.0444 22.8379 25.7333 22.2242 17.3333Z" fill="#FFBC48"/>
        <path d="M2.41029 27.5999C2.41029 27.5999 3.19933 26.4888 5.87331 25.9555C8.54728 25.4666 9.59933 25.4666 11.4404 22.3555C11.4404 22.3555 11.1774 24.8444 7.80207 25.8666C4.42673 26.8888 4.03221 27.5555 3.287 27.7777C2.5418 27.9555 2.45413 28.0444 2.41029 27.5999Z" fill="white"/>
        <path d="M12.624 31.2444C12.624 31.2444 15.4295 34.0444 17.4459 36.4888C19.5062 38.9777 22.5747 40.5777 22.5747 40.5777C22.5747 40.5777 19.5062 38.7555 16.9637 35.111C14.4213 31.4666 12.6679 30.9777 12.5802 31.2444H12.624Z" fill="white"/>
        <path d="M55.364 37.3332L57.4243 41.1999C57.4243 41.1999 55.8901 36.4888 55.7147 35.3777C55.7147 35.3777 55.8901 36.7555 56.1531 37.6444C56.4161 38.5332 55.364 37.2888 55.364 37.2888V37.3332Z" fill="white"/>
        <path d="M20.5144 40.1332C20.7774 40.311 20.9966 40.4888 21.2596 40.6221C21.7856 40.9332 22.3555 41.2443 22.9254 41.4666C23.1884 41.5554 23.4514 41.6888 23.7144 41.7777C25.424 34.8888 27.3966 23.5999 26.476 8.44434C25.2487 8.44434 24.0651 8.57767 22.9254 8.75545C23.4514 13.6888 23.9774 24.9777 20.5144 40.1777V40.1332Z" fill="url(#paint46_linear_397_75238)"/>
        <path d="M30.246 43.4666C31.7364 43.5999 33.4022 43.4666 35.3309 43.0666C39.7583 32.2222 38.6624 17.8222 37.8296 11.1999C37.5665 11.0666 37.3474 10.9333 37.0843 10.7555C35.9008 10.1333 34.6734 9.59994 33.4022 9.24438C35.5063 28.0888 31.9117 39.4222 30.246 43.4666Z" fill="url(#paint47_linear_397_75238)"/>
        <path d="M42.9583 39.7777C45.3255 38.1333 46.9474 36.3111 48.0871 34.9778C48.4378 32.1778 48.5693 28.2222 48.0871 23.0222C47.1666 21.1111 45.5008 18 42.7392 15.1111C43.9227 19.2444 45.5008 27.9111 42.9583 39.7777Z" fill="url(#paint48_linear_397_75238)"/>
        <path d="M52.2953 33.8666C52.9528 34.4443 53.6104 35.2443 54.2241 36.0443C54.4432 36.311 54.7062 36.7554 55.0131 37.2443C53.698 32.1777 56.1967 28.3554 57.9062 26.4443C56.5035 26.7999 55.1008 27.1999 53.8295 27.4666C52.6021 29.4666 52.2953 31.9999 52.2515 33.8221L52.2953 33.8666Z" fill="url(#paint49_linear_397_75238)"/>
        <path d="M46.6845 23.0222C46.6845 23.0222 48.4379 27.7333 50.6297 28.8C52.8215 29.8667 59.1338 26.9778 59.1338 26.9778C59.1338 26.9778 58.4763 26.3111 56.5475 27.4667C54.5749 28.6222 52.0324 29.0222 50.9804 28.4C49.9283 27.7778 48.0872 26.1333 46.6845 23.0222Z" fill="white"/>
        <path d="M47.1226 34.5776C47.1226 34.5776 40.8541 43.2887 30.465 42.311C30.465 42.311 40.1965 41.6887 47.1226 34.5776Z" fill="white"/>
        <path d="M20.1637 9.99982C20.1637 9.99982 26.9143 7.68871 33.2705 10.4887C33.2705 10.4887 25.4239 8.79982 20.7335 10.7554C20.7335 10.7554 19.2431 10.8887 20.1637 9.99982Z" fill="white"/>
        <path d="M22.9253 16.9333C22.9253 16.9333 24.1527 21.1556 23.3198 23.7333C23.3198 23.7333 25.7746 17.7333 22.9253 16.9333Z" fill="white"/>
        <path d="M14.4651 25.0222C17.3144 25.6444 20.1637 23.8222 20.7774 20.8889C21.3911 18 19.5939 15.1111 16.7007 14.4889C13.8076 13.8667 11.0021 15.6889 10.3884 18.6222C9.7747 21.5111 11.572 24.4 14.4651 25.0222Z" fill="url(#paint50_linear_397_75238)"/>
        <path d="M10.7388 18.3988C10.1689 20.9766 11.7908 23.5544 14.3771 24.0877C16.9196 24.6655 19.462 23.021 19.9881 20.3988C20.5579 17.821 18.936 15.2433 16.3497 14.7099C13.8073 14.1321 11.2648 15.821 10.7388 18.3988Z" fill="#FFE4D5"/>
        <path d="M14.6397 23.5988C16.5246 23.9988 18.4096 22.7988 18.8041 20.8877C19.1986 18.9766 18.0151 17.0655 16.1301 16.6655C14.2452 16.2655 12.3603 17.4655 11.9657 19.3766C11.5712 21.2877 12.7548 23.1988 14.6397 23.5988Z" fill="url(#paint51_linear_397_75238)"/>
        <path d="M12.0104 19.1112C11.6159 20.889 12.7556 22.6223 14.4652 22.9779C16.2186 23.3779 17.9282 22.2223 18.2789 20.489C18.6296 18.7557 17.5337 16.9779 15.8241 16.6223C14.0707 16.2223 12.3611 17.3779 12.0104 19.1112Z" fill="black"/>
        <path d="M13.6324 20.8889C13.5447 21.2889 13.8077 21.6445 14.1584 21.7334C14.553 21.8223 14.9036 21.5556 14.9913 21.2001C15.079 20.8001 14.816 20.4445 14.4653 20.3556C14.0708 20.2667 13.7201 20.5334 13.6324 20.8889Z" fill="white"/>
        <path d="M15.2104 20.7557C15.2104 20.7557 15.298 21.1557 15.5172 21.2001C15.7364 21.2001 15.9117 21.1112 15.9556 20.889C15.9556 20.6668 15.8679 20.489 15.6487 20.4446C15.4295 20.4001 15.2542 20.5334 15.2104 20.7557Z" fill="white"/>
        <path d="M8.45939 15.7776C8.45939 15.7776 12.7553 8.22209 19.5498 12.8443C19.5498 12.8443 12.2731 6.48876 8.45939 15.7776Z" fill="black"/>
    </g>
    <defs>
        <linearGradient id="paint0_linear_397_75238" x1="35.1052" y1="17.6012" x2="42.3418" y2="1.34857" gradientUnits="userSpaceOnUse">
            <stop offset="0.02" stop-color="#EF7B2C"/>
            <stop offset="0.23" stop-color="#F49135"/>
            <stop offset="0.51" stop-color="#FAA83F"/>
            <stop offset="0.78" stop-color="#FDB745"/>
            <stop offset="1" stop-color="#FFBC48"/>
        </linearGradient>
        <linearGradient id="paint1_linear_397_75238" x1="40.4543" y1="37.8231" x2="47.0563" y2="50.6824" gradientUnits="userSpaceOnUse">
            <stop offset="0.02" stop-color="#EF7B2C"/>
            <stop offset="0.09" stop-color="#F0802E"/>
            <stop offset="0.69" stop-color="#FAAB40"/>
            <stop offset="1" stop-color="#FFBC48"/>
        </linearGradient>
        <linearGradient id="paint2_linear_397_75238" x1="19.7652" y1="9.31187" x2="25.6316" y2="2.14843" gradientUnits="userSpaceOnUse">
            <stop offset="0.02" stop-color="#EF7B2C"/>
            <stop offset="0.3" stop-color="#F18433"/>
            <stop offset="0.75" stop-color="#F99D47"/>
            <stop offset="1" stop-color="#FFAE55"/>
        </linearGradient>
        <linearGradient id="paint3_linear_397_75238" x1="21.5348" y1="9.50603" x2="27.4842" y2="2.24921" gradientUnits="userSpaceOnUse">
            <stop offset="0.02" stop-color="#EF7B2C"/>
            <stop offset="0.3" stop-color="#F18433"/>
            <stop offset="0.75" stop-color="#F99D47"/>
            <stop offset="1" stop-color="#FFAE55"/>
        </linearGradient>
        <linearGradient id="paint4_linear_397_75238" x1="23.2989" y1="9.61139" x2="29.2459" y2="2.31008" gradientUnits="userSpaceOnUse">
            <stop offset="0.02" stop-color="#EF7B2C"/>
            <stop offset="0.3" stop-color="#F18433"/>
            <stop offset="0.75" stop-color="#F99D47"/>
            <stop offset="1" stop-color="#FFAE55"/>
        </linearGradient>
        <linearGradient id="paint5_linear_397_75238" x1="24.3215" y1="10.4787" x2="30.3515" y2="3.08402" gradientUnits="userSpaceOnUse">
            <stop offset="0.02" stop-color="#EF7B2C"/>
            <stop offset="0.3" stop-color="#F18433"/>
            <stop offset="0.75" stop-color="#F99D47"/>
            <stop offset="1" stop-color="#FFAE55"/>
        </linearGradient>
        <linearGradient id="paint6_linear_397_75238" x1="26.114" y1="11.0279" x2="32.1025" y2="3.67987" gradientUnits="userSpaceOnUse">
            <stop offset="0.02" stop-color="#EF7B2C"/>
            <stop offset="0.34" stop-color="#EF7E2E"/>
            <stop offset="0.58" stop-color="#F38736"/>
            <stop offset="0.8" stop-color="#F89843"/>
            <stop offset="1" stop-color="#FFAE55"/>
        </linearGradient>
        <linearGradient id="paint7_linear_397_75238" x1="29.5036" y1="9.77807" x2="35.4506" y2="2.47676" gradientUnits="userSpaceOnUse">
            <stop offset="0.02" stop-color="#EF7B2C"/>
            <stop offset="0.34" stop-color="#EF7E2E"/>
            <stop offset="0.58" stop-color="#F38736"/>
            <stop offset="0.8" stop-color="#F89843"/>
            <stop offset="1" stop-color="#FFAE55"/>
        </linearGradient>
        <linearGradient id="paint8_linear_397_75238" x1="31.0348" y1="9.67633" x2="40.9471" y2="1.80917" gradientUnits="userSpaceOnUse">
            <stop offset="0.02" stop-color="#EF7B2C"/>
            <stop offset="0.34" stop-color="#EF7E2E"/>
            <stop offset="0.58" stop-color="#F38736"/>
            <stop offset="0.8" stop-color="#F89843"/>
            <stop offset="1" stop-color="#FFAE55"/>
        </linearGradient>
        <linearGradient id="paint9_linear_397_75238" x1="33.5905" y1="11.1546" x2="42.0404" y2="2.96718" gradientUnits="userSpaceOnUse">
            <stop offset="0.02" stop-color="#EF7B2C"/>
            <stop offset="0.34" stop-color="#EF7E2E"/>
            <stop offset="0.58" stop-color="#F38736"/>
            <stop offset="0.8" stop-color="#F89843"/>
            <stop offset="1" stop-color="#FFAE55"/>
        </linearGradient>
        <linearGradient id="paint10_linear_397_75238" x1="35.6943" y1="12.44" x2="45.0888" y2="3.84649" gradientUnits="userSpaceOnUse">
            <stop offset="0.02" stop-color="#EF7B2C"/>
            <stop offset="0.34" stop-color="#EF7E2E"/>
            <stop offset="0.58" stop-color="#F38736"/>
            <stop offset="0.8" stop-color="#F89843"/>
            <stop offset="1" stop-color="#FFAE55"/>
        </linearGradient>
        <linearGradient id="paint11_linear_397_75238" x1="37.5937" y1="13.9617" x2="46.1665" y2="6.47889" gradientUnits="userSpaceOnUse">
            <stop offset="0.02" stop-color="#EF7B2C"/>
            <stop offset="0.34" stop-color="#EF7E2E"/>
            <stop offset="0.58" stop-color="#F38736"/>
            <stop offset="0.8" stop-color="#F89843"/>
            <stop offset="1" stop-color="#FFAE55"/>
        </linearGradient>
        <linearGradient id="paint12_linear_397_75238" x1="39.5597" y1="15.8354" x2="48.9365" y2="6.88716" gradientUnits="userSpaceOnUse">
            <stop offset="0.02" stop-color="#EF7B2C"/>
            <stop offset="0.34" stop-color="#EF7E2E"/>
            <stop offset="0.58" stop-color="#F38736"/>
            <stop offset="0.8" stop-color="#F89843"/>
            <stop offset="1" stop-color="#FFAE55"/>
        </linearGradient>
        <linearGradient id="paint13_linear_397_75238" x1="37.5966" y1="16.7231" x2="51.6529" y2="11.2919" gradientUnits="userSpaceOnUse">
            <stop offset="0.02" stop-color="#EF7B2C"/>
            <stop offset="0.34" stop-color="#EF7E2E"/>
            <stop offset="0.58" stop-color="#F38736"/>
            <stop offset="0.8" stop-color="#F89843"/>
            <stop offset="1" stop-color="#FFAE55"/>
        </linearGradient>
        <linearGradient id="paint14_linear_397_75238" x1="38.3143" y1="18.9912" x2="52.2832" y2="13.5656" gradientUnits="userSpaceOnUse">
            <stop offset="0.02" stop-color="#EF7B2C"/>
            <stop offset="0.34" stop-color="#EF7E2E"/>
            <stop offset="0.58" stop-color="#F38736"/>
            <stop offset="0.8" stop-color="#F89843"/>
            <stop offset="1" stop-color="#FFAE55"/>
        </linearGradient>
        <linearGradient id="paint15_linear_397_75238" x1="39.1278" y1="21.3871" x2="52.9679" y2="16.0133" gradientUnits="userSpaceOnUse">
            <stop offset="0.02" stop-color="#EF7B2C"/>
            <stop offset="0.34" stop-color="#EF7E2E"/>
            <stop offset="0.58" stop-color="#F38736"/>
            <stop offset="0.8" stop-color="#F89843"/>
            <stop offset="1" stop-color="#FFAE55"/>
        </linearGradient>
        <linearGradient id="paint16_linear_397_75238" x1="39.7382" y1="23.3508" x2="53.5346" y2="17.9797" gradientUnits="userSpaceOnUse">
            <stop offset="0.02" stop-color="#EF7B2C"/>
            <stop offset="0.34" stop-color="#EF7E2E"/>
            <stop offset="0.58" stop-color="#F38736"/>
            <stop offset="0.8" stop-color="#F89843"/>
            <stop offset="1" stop-color="#FFAE55"/>
        </linearGradient>
        <linearGradient id="paint17_linear_397_75238" x1="40.8361" y1="24.703" x2="53.344" y2="19.8501" gradientUnits="userSpaceOnUse">
            <stop offset="0.02" stop-color="#EF7B2C"/>
            <stop offset="0.34" stop-color="#EF7E2E"/>
            <stop offset="0.58" stop-color="#F38736"/>
            <stop offset="0.8" stop-color="#F89843"/>
            <stop offset="1" stop-color="#FFAE55"/>
        </linearGradient>
        <linearGradient id="paint18_linear_397_75238" x1="40.9765" y1="26.8761" x2="54.5588" y2="21.6059" gradientUnits="userSpaceOnUse">
            <stop offset="0.02" stop-color="#EF7B2C"/>
            <stop offset="0.27" stop-color="#F48B39"/>
            <stop offset="0.73" stop-color="#FCA44D"/>
            <stop offset="1" stop-color="#FFAE55"/>
        </linearGradient>
        <linearGradient id="paint19_linear_397_75238" x1="41.4707" y1="28.4022" x2="55.0094" y2="23.1347" gradientUnits="userSpaceOnUse">
            <stop offset="0.02" stop-color="#EF7B2C"/>
            <stop offset="0.27" stop-color="#F48B39"/>
            <stop offset="0.73" stop-color="#FCA44D"/>
            <stop offset="1" stop-color="#FFAE55"/>
        </linearGradient>
        <linearGradient id="paint20_linear_397_75238" x1="41.8596" y1="29.6681" x2="55.3983" y2="24.4006" gradientUnits="userSpaceOnUse">
            <stop offset="0.02" stop-color="#EF7B2C"/>
            <stop offset="0.27" stop-color="#F48B39"/>
            <stop offset="0.73" stop-color="#FCA44D"/>
            <stop offset="1" stop-color="#FFAE55"/>
        </linearGradient>
        <linearGradient id="paint21_linear_397_75238" x1="32.2858" y1="43.9779" x2="38.7492" y2="46.386" gradientUnits="userSpaceOnUse">
            <stop offset="0.02" stop-color="#EF7B2C"/>
            <stop offset="0.34" stop-color="#EF7E2E"/>
            <stop offset="0.58" stop-color="#F38736"/>
            <stop offset="0.8" stop-color="#F89843"/>
            <stop offset="1" stop-color="#FFAE55"/>
        </linearGradient>
        <linearGradient id="paint22_linear_397_75238" x1="34.6042" y1="43.8239" x2="40.7297" y2="46.3865" gradientUnits="userSpaceOnUse">
            <stop offset="0.02" stop-color="#EF7B2C"/>
            <stop offset="0.34" stop-color="#EF7E2E"/>
            <stop offset="0.58" stop-color="#F38736"/>
            <stop offset="0.8" stop-color="#F89843"/>
            <stop offset="1" stop-color="#FFAE55"/>
        </linearGradient>
        <linearGradient id="paint23_linear_397_75238" x1="36.8444" y1="43.1404" x2="43.4668" y2="46.4154" gradientUnits="userSpaceOnUse">
            <stop offset="0.02" stop-color="#EF7B2C"/>
            <stop offset="0.34" stop-color="#EF7E2E"/>
            <stop offset="0.58" stop-color="#F38736"/>
            <stop offset="0.8" stop-color="#F89843"/>
            <stop offset="1" stop-color="#FFAE55"/>
        </linearGradient>
        <linearGradient id="paint24_linear_397_75238" x1="38.7782" y1="42.4776" x2="44.8636" y2="45.6144" gradientUnits="userSpaceOnUse">
            <stop offset="0.02" stop-color="#EF7B2C"/>
            <stop offset="0.34" stop-color="#EF7E2E"/>
            <stop offset="0.58" stop-color="#F38736"/>
            <stop offset="0.8" stop-color="#F89843"/>
            <stop offset="1" stop-color="#FFAE55"/>
        </linearGradient>
        <linearGradient id="paint25_linear_397_75238" x1="40.9167" y1="41.5783" x2="46.2838" y2="45.0318" gradientUnits="userSpaceOnUse">
            <stop offset="0.02" stop-color="#EF7B2C"/>
            <stop offset="0.34" stop-color="#EF7E2E"/>
            <stop offset="0.58" stop-color="#F38736"/>
            <stop offset="0.8" stop-color="#F89843"/>
            <stop offset="1" stop-color="#FFAE55"/>
        </linearGradient>
        <linearGradient id="paint26_linear_397_75238" x1="42.4862" y1="40.7169" x2="48.4774" y2="44.3015" gradientUnits="userSpaceOnUse">
            <stop offset="0.02" stop-color="#EF7B2C"/>
            <stop offset="0.34" stop-color="#EF7E2E"/>
            <stop offset="0.58" stop-color="#F38736"/>
            <stop offset="0.8" stop-color="#F89843"/>
            <stop offset="1" stop-color="#FFAE55"/>
        </linearGradient>
        <linearGradient id="paint27_linear_397_75238" x1="43.237" y1="39.4197" x2="49.3333" y2="42.6879" gradientUnits="userSpaceOnUse">
            <stop offset="0.02" stop-color="#EF7B2C"/>
            <stop offset="0.34" stop-color="#EF7E2E"/>
            <stop offset="0.58" stop-color="#F38736"/>
            <stop offset="0.8" stop-color="#F89843"/>
            <stop offset="1" stop-color="#FFAE55"/>
        </linearGradient>
        <linearGradient id="paint28_linear_397_75238" x1="43.8629" y1="37.5521" x2="49.4186" y2="40.6385" gradientUnits="userSpaceOnUse">
            <stop offset="0.02" stop-color="#EF7B2C"/>
            <stop offset="0.34" stop-color="#EF7E2E"/>
            <stop offset="0.58" stop-color="#F38736"/>
            <stop offset="0.8" stop-color="#F89843"/>
            <stop offset="1" stop-color="#FFAE55"/>
        </linearGradient>
        <linearGradient id="paint29_linear_397_75238" x1="45.0364" y1="36.6724" x2="49.5651" y2="38.9944" gradientUnits="userSpaceOnUse">
            <stop offset="0.02" stop-color="#EF7B2C"/>
            <stop offset="0.34" stop-color="#EF7E2E"/>
            <stop offset="0.58" stop-color="#F38736"/>
            <stop offset="0.8" stop-color="#F89843"/>
            <stop offset="1" stop-color="#FFAE55"/>
        </linearGradient>
        <linearGradient id="paint30_linear_397_75238" x1="45.8773" y1="35.4139" x2="50.3588" y2="37.6953" gradientUnits="userSpaceOnUse">
            <stop offset="0.02" stop-color="#EF7B2C"/>
            <stop offset="0.34" stop-color="#EF7E2E"/>
            <stop offset="0.58" stop-color="#F38736"/>
            <stop offset="0.8" stop-color="#F89843"/>
            <stop offset="1" stop-color="#FFAE55"/>
        </linearGradient>
        <linearGradient id="paint31_linear_397_75238" x1="46.8378" y1="34.6374" x2="50.8584" y2="36.6431" gradientUnits="userSpaceOnUse">
            <stop offset="0.02" stop-color="#EF7B2C"/>
            <stop offset="0.34" stop-color="#EF7E2E"/>
            <stop offset="0.58" stop-color="#F38736"/>
            <stop offset="0.8" stop-color="#F89843"/>
            <stop offset="1" stop-color="#FFAE55"/>
        </linearGradient>
        <linearGradient id="paint32_linear_397_75238" x1="47.6272" y1="32.5807" x2="51.0093" y2="34.8089" gradientUnits="userSpaceOnUse">
            <stop offset="0.02" stop-color="#EF7B2C"/>
            <stop offset="0.34" stop-color="#EF7E2E"/>
            <stop offset="0.58" stop-color="#F38736"/>
            <stop offset="0.8" stop-color="#F89843"/>
            <stop offset="1" stop-color="#FFAE55"/>
        </linearGradient>
        <linearGradient id="paint33_linear_397_75238" x1="29.6221" y1="44.912" x2="36.7894" y2="10.9045" gradientUnits="userSpaceOnUse">
            <stop stop-color="#BFC9CA"/>
            <stop offset="0.36" stop-color="#D8E2E4"/>
            <stop offset="1" stop-color="#F1F1F1"/>
        </linearGradient>
        <linearGradient id="paint34_linear_397_75238" x1="55.4123" y1="32.7314" x2="64.5148" y2="35.7929" gradientUnits="userSpaceOnUse">
            <stop offset="0.25" stop-color="#EF7B2C"/>
            <stop offset="0.46" stop-color="#F28831"/>
            <stop offset="0.85" stop-color="#FBAC41"/>
            <stop offset="1" stop-color="#FFBC48"/>
        </linearGradient>
        <linearGradient id="paint35_linear_397_75238" x1="56.3513" y1="27.5471" x2="65.6567" y2="29.8532" gradientUnits="userSpaceOnUse">
            <stop offset="0.02" stop-color="#EF7B2C"/>
            <stop offset="0.34" stop-color="#EF7E2E"/>
            <stop offset="0.58" stop-color="#F38736"/>
            <stop offset="0.8" stop-color="#F89843"/>
            <stop offset="1" stop-color="#FFAE55"/>
        </linearGradient>
        <linearGradient id="paint36_linear_397_75238" x1="56.1225" y1="28.7646" x2="65.4313" y2="31.1141" gradientUnits="userSpaceOnUse">
            <stop offset="0.02" stop-color="#EF7B2C"/>
            <stop offset="0.34" stop-color="#EF7E2E"/>
            <stop offset="0.58" stop-color="#F38736"/>
            <stop offset="0.8" stop-color="#F89843"/>
            <stop offset="1" stop-color="#FFAE55"/>
        </linearGradient>
        <linearGradient id="paint37_linear_397_75238" x1="55.8146" y1="30.1213" x2="65.2141" y2="32.5083" gradientUnits="userSpaceOnUse">
            <stop offset="0.02" stop-color="#EF7B2C"/>
            <stop offset="0.34" stop-color="#EF7E2E"/>
            <stop offset="0.58" stop-color="#F38736"/>
            <stop offset="0.8" stop-color="#F89843"/>
            <stop offset="1" stop-color="#FFAE55"/>
        </linearGradient>
        <linearGradient id="paint38_linear_397_75238" x1="55.5477" y1="31.4309" x2="64.9908" y2="33.8151" gradientUnits="userSpaceOnUse">
            <stop offset="0.02" stop-color="#EF7B2C"/>
            <stop offset="0.34" stop-color="#EF7E2E"/>
            <stop offset="0.58" stop-color="#F38736"/>
            <stop offset="0.8" stop-color="#F89843"/>
            <stop offset="1" stop-color="#FFAE55"/>
        </linearGradient>
        <linearGradient id="paint39_linear_397_75238" x1="55.2377" y1="32.743" x2="64.8152" y2="35.1619" gradientUnits="userSpaceOnUse">
            <stop offset="0.02" stop-color="#EF7B2C"/>
            <stop offset="0.34" stop-color="#EF7E2E"/>
            <stop offset="0.58" stop-color="#F38736"/>
            <stop offset="0.8" stop-color="#F89843"/>
            <stop offset="1" stop-color="#FFAE55"/>
        </linearGradient>
        <linearGradient id="paint40_linear_397_75238" x1="54.9706" y1="34.0523" x2="64.5917" y2="36.4684" gradientUnits="userSpaceOnUse">
            <stop offset="0.02" stop-color="#EF7B2C"/>
            <stop offset="0.34" stop-color="#EF7E2E"/>
            <stop offset="0.58" stop-color="#F38736"/>
            <stop offset="0.8" stop-color="#F89843"/>
            <stop offset="1" stop-color="#FFAE55"/>
        </linearGradient>
        <linearGradient id="paint41_linear_397_75238" x1="54.6395" y1="35.7225" x2="64.3513" y2="38.1761" gradientUnits="userSpaceOnUse">
            <stop offset="0.02" stop-color="#EF7B2C"/>
            <stop offset="0.34" stop-color="#EF7E2E"/>
            <stop offset="0.58" stop-color="#F38736"/>
            <stop offset="0.8" stop-color="#F89843"/>
            <stop offset="1" stop-color="#FFAE55"/>
        </linearGradient>
        <linearGradient id="paint42_linear_397_75238" x1="54.3754" y1="37.0761" x2="64.1342" y2="39.5702" gradientUnits="userSpaceOnUse">
            <stop offset="0.02" stop-color="#EF7B2C"/>
            <stop offset="0.34" stop-color="#EF7E2E"/>
            <stop offset="0.58" stop-color="#F38736"/>
            <stop offset="0.8" stop-color="#F89843"/>
            <stop offset="1" stop-color="#FFAE55"/>
        </linearGradient>
        <linearGradient id="paint43_linear_397_75238" x1="54.1088" y1="38.3856" x2="63.9113" y2="40.8768" gradientUnits="userSpaceOnUse">
            <stop offset="0.02" stop-color="#EF7B2C"/>
            <stop offset="0.34" stop-color="#EF7E2E"/>
            <stop offset="0.58" stop-color="#F38736"/>
            <stop offset="0.8" stop-color="#F89843"/>
            <stop offset="1" stop-color="#FFAE55"/>
        </linearGradient>
        <linearGradient id="paint44_linear_397_75238" x1="53.8038" y1="39.7867" x2="63.6935" y2="42.2721" gradientUnits="userSpaceOnUse">
            <stop offset="0.02" stop-color="#EF7B2C"/>
            <stop offset="0.34" stop-color="#EF7E2E"/>
            <stop offset="0.58" stop-color="#F38736"/>
            <stop offset="0.8" stop-color="#F89843"/>
            <stop offset="1" stop-color="#FFAE55"/>
        </linearGradient>
        <linearGradient id="paint45_linear_397_75238" x1="53.578" y1="41.0486" x2="63.4678" y2="43.5341" gradientUnits="userSpaceOnUse">
            <stop offset="0.02" stop-color="#EF7B2C"/>
            <stop offset="0.34" stop-color="#EF7E2E"/>
            <stop offset="0.58" stop-color="#F38736"/>
            <stop offset="0.8" stop-color="#F89843"/>
            <stop offset="1" stop-color="#FFAE55"/>
        </linearGradient>
        <linearGradient id="paint46_linear_397_75238" x1="25.4106" y1="8.98113" x2="22.0898" y2="41.2108" gradientUnits="userSpaceOnUse">
            <stop stop-color="#FFCB5C"/>
            <stop offset="0.99" stop-color="#F39F3C"/>
        </linearGradient>
        <linearGradient id="paint47_linear_397_75238" x1="37.492" y1="11.0289" x2="31.583" y2="42.9611" gradientUnits="userSpaceOnUse">
            <stop stop-color="#FFCB5C"/>
            <stop offset="0.99" stop-color="#F39F3C"/>
        </linearGradient>
        <linearGradient id="paint48_linear_397_75238" x1="45.8148" y1="20.8536" x2="44.2602" y2="36.1825" gradientUnits="userSpaceOnUse">
            <stop stop-color="#FFCB5C"/>
            <stop offset="0.99" stop-color="#F39F3C"/>
        </linearGradient>
        <linearGradient id="paint49_linear_397_75238" x1="55.5668" y1="27.6436" x2="53.2662" y2="35.7488" gradientUnits="userSpaceOnUse">
            <stop stop-color="#FFCB5C"/>
            <stop offset="0.99" stop-color="#F39F3C"/>
        </linearGradient>
        <linearGradient id="paint50_linear_397_75238" x1="20.4268" y1="22.1778" x2="11.6569" y2="17.9181" gradientUnits="userSpaceOnUse">
            <stop stop-color="#FFCB5C"/>
            <stop offset="0.99" stop-color="#F39F3C"/>
        </linearGradient>
        <linearGradient id="paint51_linear_397_75238" x1="18.7547" y1="20.8774" x2="11.9335" y2="19.4253" gradientUnits="userSpaceOnUse">
            <stop stop-color="#4D4D4D"/>
            <stop offset="1" stop-color="#FFE4D5"/>
        </linearGradient>
        <clipPath id="clip0_397_75238">
            <rect width="64" height="48" fill="white" transform="matrix(-1 0 0 1 64.7446 0.399902)"/>
        </clipPath>
    </defs>
</svg>