<svg xmlns="http://www.w3.org/2000/svg" width="1920" height="940" viewBox="0 0 1920 940" fill="none"><g clip-path="url(#clip0_192_60757)">
        <path fill-rule="evenodd" clip-rule="evenodd" d="M1588.99 756.353L1589.4 758.037V758.064L1604.59 820.197L1604.82 821.139L1668.16 883.052L1665.29 927.668L1770.38 932.004L1780.69 928.771L1793.42 924.795L1816.68 923.552L1836.08 922.503L1846.69 921.922L1851.05 921.589H1851.25L1874.7 919.878L1875.01 919.851L1886.47 919.022L1901.5 917.919L1912.25 917.118L1914.55 900.155L1942.61 899.38L1990.32 898.083L2003.28 897.75L2043.42 896.647L2066.93 896.012L2074.91 895.791L2096.87 895.21L2098.61 895.157H2098.86L2109.63 894.855L2113.58 894.742H2113.8L2139.41 894.054L2177.54 893.032L2210.05 892.149C2210.11 892.176 2210.17 892.149 2210.22 892.149L2221.52 891.848L2261.44 890.772L2261.8 890.745L2280 890.277L2351.53 891.633L2354.24 891.66L2370.15 891.966L2377.5 892.106L2411.81 892.768L2504.83 894.511L2508.89 894.592L2539.37 889.314L2585.25 881.357L2650 870.091L2648.56 844.73L2562.17 844.176L2555.43 838.705L2539.16 825.47L2428.29 812.515L2429.2 805.526L2432.6 779.39L2412.46 773.644L2409.45 756.267L2392.29 657.033L2125.97 691.567L2107.27 690.131L2106.91 690.986C2106.83 691.153 2106.74 691.347 2106.66 691.567L2106 693.278L2097.29 715.046L2097.15 715.347L2094.89 721.012L2094.03 723.137L2093.89 723.525L2092.84 726.123L2091.79 726.204L2047.84 730.212L2044.72 730.486L2041.02 730.82H2040.99L2040.82 730.847L2028.75 731.95L2024.61 732.31L2007.65 733.886H2007.62L2001.76 734.414L1999.52 734.607H1999.5L1998.59 734.688L1997.65 734.769H1997.62L1985.16 735.931L1982.01 736.205L1981.96 736.065V736.038L1981.79 735.651L1980.38 731.95L1957.06 671.559L1956.01 671.366L1887.5 659.734L1886.97 659.653L1880.87 658.604L1874.54 657.528L1870.45 656.84L1856.11 654.408L1806.55 645.983L1779.42 641.34L1779.4 641.507L1767.52 685.822L1757.43 687.258L1755.94 703.005L1754.56 708.864L1745.56 711.737L1737.77 714.223L1728.01 717.343L1692.65 728.641L1682.57 731.874L1663.26 762.788L1662.73 763.643L1660.96 766.435L1643.06 763.923L1629.47 762.018L1588.99 756.353H1588.99Z" fill="url(#paint0_linear_192_60757)"/>
        <path style="mix-blend-mode:multiply" opacity="0.4" fill-rule="evenodd" clip-rule="evenodd" d="M1589.4 757.596V758.064L1604.1 819.697L1604.59 820.192L1604.82 821.134L1668.16 883.046L1665.29 927.663L1770.38 931.999L1780.69 928.765L1787.59 897.712C1787.59 897.685 1787.62 897.632 1787.62 897.572L1787.65 897.432C1787.43 897.352 1785.11 896.523 1781.35 895.167C1777.43 893.731 1771.93 891.74 1765.57 889.449C1763.86 888.841 1762.07 888.179 1760.22 887.517C1754.16 885.306 1747.59 882.901 1741.04 880.502C1718.19 872.104 1695.51 863.592 1695.51 862.877C1695.51 862.323 1695.98 856.717 1696.53 850.169C1697.17 842.707 1697.92 834.035 1698.22 830.253C1698.33 829.037 1698.38 828.348 1698.38 828.348L1691.2 826.912V862.882H1689.77L1689.24 860.892V860.865L1681.86 832.41L1679.68 824.039L1665.37 813.483L1652.52 804.036L1591.24 758.946L1589.39 757.591L1589.4 757.596Z" fill="url(#paint1_linear_192_60757)"/>
        <path style="mix-blend-mode:multiply" opacity="0.4" fill-rule="evenodd" clip-rule="evenodd" d="M1643.06 763.923L1721.57 800.001L1755.38 815.555L1767.51 821.134L1765.03 835.998L1764.61 838.43L1770.69 854.011L1780.28 878.57L1784.03 888.157L1787.65 897.438L1787.63 897.578C1787.63 897.631 1787.6 897.691 1787.6 897.718L1780.69 928.771L1793.43 924.795L1816.69 923.552L1836.08 922.503L1846.69 921.922L1851.06 921.589H1851.25L1874.71 919.878L1882.66 896.007L1861.03 876.311L1851.08 874.654L1850.89 874.627H1850.86L1842.83 873.271H1842.8L1840.92 872.97L1841.89 871.533L1852.45 855.705L1872.61 858.578L1895.24 851.504L1895.63 851.391L1895.6 851.197L1895.55 850.422L1892.51 820.117L1891.32 808.184L1918.15 806.027L1927.32 805.306L1927.85 804.725L1929.64 802.68L1960.42 767.872L1920.2 746.933L1923.1 746.438L1926.72 745.803L1934.4 744.48L1935.03 744.367L1948.13 742.102L1950.73 741.634L1962.47 739.616L1962.61 739.589L1965.48 739.094L1965.7 739.067L1976.64 737.163H1976.67L1977.03 737.082L1977.44 737.028L1977.86 736.948L1978.96 736.754L1982.03 736.227L1981.97 736.06L1981.81 735.673L1980.4 731.971L1957.08 671.581L1956.03 671.387L1887.52 659.756L1886.99 659.675L1880.88 658.626L1874.56 657.55L1870.47 656.861L1856.13 654.429L1806.57 646.004L1779.44 641.362L1779.41 641.528L1767.53 685.843L1757.45 687.28L1755.96 703.027L1754.58 708.886L1745.57 711.759L1737.78 714.244L1728.03 717.364L1692.67 728.662L1682.58 731.896L1663.27 762.809L1662.75 763.665L1660.98 766.457L1643.07 763.944L1643.06 763.923Z" fill="url(#paint2_linear_192_60757)"/>
        <path style="mix-blend-mode:multiply" opacity="0.4" fill-rule="evenodd" clip-rule="evenodd" d="M1662.53 764.197L1737.01 804.59L1756.55 815.199L1767.51 821.139L1765.03 835.998L1764.61 838.43L1770.86 838.21L1770.99 837.494L1780.47 790.914L1872.6 789.478L1874.1 786.686L1882.58 771.051L1881.23 769.835L1856.75 747.735L1858.65 723.751L1852.41 715.105L1851.55 713.943L1851 713.174L1856.03 712.453L1861.09 711.737L1861.17 710.742L1864.43 669.988L1856.97 666.895L1840.89 660.213L1831.5 656.318L1806.55 645.983L1789.64 638.941L1779.03 641.399L1779.39 641.507L1767.51 685.822L1757.43 687.258L1755.94 703.005L1744.47 704.523L1736.21 708.17L1721.9 714.497L1721.35 714.744L1691.29 728.033L1682.56 731.874L1663.25 762.788L1662.81 763.675L1662.53 764.197Z" fill="url(#paint3_linear_192_60757)"/>
        <path style="mix-blend-mode:multiply" opacity="0.4" fill-rule="evenodd" clip-rule="evenodd" d="M1802.06 824.028L1796.29 858.578L1780.46 878.732L1764.62 864.335L1793.42 815.388L1802.06 824.028Z" fill="url(#paint4_linear_192_60757)"/>
        <path style="mix-blend-mode:multiply" opacity="0.4" fill-rule="evenodd" clip-rule="evenodd" d="M1858.2 894.565L1851.09 922.256L1850.36 903.146L1845.21 885.871L1851 874.411L1858.2 894.565Z" fill="url(#paint5_linear_192_60757)"/>
        <path style="mix-blend-mode:multiply" opacity="0.4" fill-rule="evenodd" clip-rule="evenodd" d="M1845.24 904.647L1838.04 921.922L1793.42 924.8L1799.17 883.052L1845.24 904.647Z" fill="url(#paint6_linear_192_60757)"/>
        <path style="mix-blend-mode:multiply" opacity="0.4" fill-rule="evenodd" clip-rule="evenodd" d="M1665.29 927.668L1770.38 932.004L1770.22 899.321V899.1L1769.86 898.96L1769.81 898.933H1769.75L1761.08 895.286L1686.87 864.346L1665.29 927.668Z" fill="url(#paint7_linear_192_60757)"/>
        <path style="mix-blend-mode:multiply" opacity="0.4" fill-rule="evenodd" clip-rule="evenodd" d="M1588.99 756.353L1589.4 758.037V758.064L1604.1 819.702L1604.59 820.197L1668.16 883.052L1658.08 835.53L1591.25 758.952L1588.99 756.353Z" fill="url(#paint8_linear_192_60757)"/>
        <path fill-rule="evenodd" clip-rule="evenodd" d="M1891.31 792.356L1794.86 760.679L1760.31 750.602L1678.25 764.999L1780.46 790.914L1891.31 792.356Z" fill="url(#paint9_linear_192_60757)"/>
        <path fill-rule="evenodd" clip-rule="evenodd" d="M1779.04 641.399L1779.39 641.507L1837.55 660.982L1855.97 667.148L1864.43 669.988L1884.29 670.322L1889.9 670.435L1918.05 670.903L1956.15 671.538L1957.06 671.565L1936.98 662.865L1935.76 662.311L1935.54 662.225L1933.08 661.149L1912.75 652.337L1905.45 649.189L1876.47 636.616L1847.58 625.512L1807.79 634.739L1806 635.153L1789.64 638.941L1779.04 641.399Z" fill="url(#paint10_linear_192_60757)"/>
        <path fill-rule="evenodd" clip-rule="evenodd" d="M1842.36 812.509C1839.48 812.509 1793.42 815.388 1793.42 815.388L1802.06 824.028L1859.64 828.348L1842.37 812.515L1842.36 812.509Z" fill="url(#paint11_linear_192_60757)"/>
        <path fill-rule="evenodd" clip-rule="evenodd" d="M1842.36 871.533H1810.69L1799.17 883.052L1845.24 904.647H1851L1842.36 871.533Z" fill="url(#paint12_linear_192_60757)"/>
        <path fill-rule="evenodd" clip-rule="evenodd" d="M1859.64 874.411H1851L1858.2 894.565L1882.67 896.007L1859.64 874.411Z" fill="url(#paint13_linear_192_60757)"/>
        <path fill-rule="evenodd" clip-rule="evenodd" d="M1588.99 756.353L1591.25 758.952L1658.08 835.53L1681.87 832.41L1691.21 831.167L1698.22 830.253L1767.51 821.139L1753.12 792.351L1662.81 763.675L1662.73 763.648L1630.73 753.48L1588.99 756.353Z" fill="url(#paint14_linear_192_60757)"/>
        <path fill-rule="evenodd" clip-rule="evenodd" d="M1786.22 841.303C1774.7 838.425 1740.15 829.785 1740.15 829.785L1708.48 832.663L1686.88 864.335L1768.94 898.885C1768.94 898.885 1787.66 900.327 1787.66 897.443C1787.66 894.56 1786.22 841.298 1786.22 841.298V841.303Z" fill="url(#paint15_linear_192_60757)"/>
        <path fill-rule="evenodd" clip-rule="evenodd" d="M1940.26 730.449C1938.82 730.449 1849.56 714.61 1849.56 714.61L1862.52 710.29L1940.26 730.443V730.449Z" fill="url(#paint16_linear_192_60757)"/>
        <path fill-rule="evenodd" clip-rule="evenodd" d="M1682.56 731.874C1682.56 731.874 1693.5 733.725 1710.19 736.625C1741.21 742.01 1792.08 750.963 1829.01 758.145C1850.36 762.314 1867.08 765.908 1872.6 767.872C1874.92 768.7 1877.83 769.335 1881.22 769.835C1907.36 773.537 1960.4 767.872 1960.4 767.872L1943.14 753.48L1923.08 746.438L1908.43 741.273L1898.46 737.765L1858.65 723.756L1755.93 703.011L1744.47 704.528L1736.21 708.176L1721.9 714.502L1721.35 714.75L1691.29 728.038L1682.56 731.88L1682.56 731.874Z" fill="url(#paint17_linear_192_60757)"/>
        <path fill-rule="evenodd" clip-rule="evenodd" d="M1859.64 828.343L1852.44 854.258L1796.29 858.578L1802.06 824.028L1859.64 828.343Z" fill="url(#paint18_linear_192_60757)"/>
        <g style="mix-blend-mode:soft-light">
            <path fill-rule="evenodd" clip-rule="evenodd" d="M1690.82 727.812L1691.29 728.033L1692.64 728.641L1710.19 736.625L1711.04 737.012L1831.25 759.059L1829.01 758.15L1743.03 723.256L1728 717.343L1721.34 714.744L1720.95 714.578C1720.95 714.578 1721.29 714.551 1721.89 714.497C1725.15 714.196 1735.96 713.281 1736.79 713.835C1736.84 713.862 1737.17 714.002 1737.75 714.223C1749.11 718.532 1856.74 756.353 1856.74 756.353L1866.88 757.956L1745.54 711.737L1736.21 708.175L1735.68 707.982L1690.81 727.818L1690.82 727.812Z" fill="#9B9193"/>
        </g>
        <g style="mix-blend-mode:soft-light">
            <path fill-rule="evenodd" clip-rule="evenodd" d="M1737.01 804.59L1758.87 811.084L1756.55 815.199L1756.27 815.667L1755.39 815.554L1728.65 812.515L1748.79 818.261L1738.71 819.697L1652.54 804.031L1627.87 799.554L1630.57 803.53C1630.57 803.53 1646.96 808.254 1665.38 813.478C1687.84 819.832 1713.31 826.906 1715.69 826.906L1767.52 821.134L1753.13 792.345L1662.82 763.67L1662.74 763.643L1630.74 753.475L1607.79 755.379L1629.47 761.981V762.008L1627.87 772.203L1721.58 799.996L1737.02 804.579L1737.01 804.59Z" fill="#9B9193"/>
        </g>
        <g style="mix-blend-mode:soft-light">
            <path fill-rule="evenodd" clip-rule="evenodd" d="M1850.36 903.146C1852.44 901.769 1823.65 880.173 1823.65 880.173C1823.65 880.173 1830.84 880.173 1829.4 878.732C1827.96 877.29 1810.69 871.533 1810.69 871.533H1842.36L1850.35 903.146H1850.36Z" fill="#9B9193"/>
        </g>
        <g style="mix-blend-mode:soft-light">
            <path fill-rule="evenodd" clip-rule="evenodd" d="M1817.28 653.935L1917.99 670.844L1944.58 703.097L1965.77 739.213L1961.85 737.652C1961.85 737.652 1947.46 710.301 1940.26 704.539C1933.06 698.777 1889.87 674.309 1889.87 674.309L1915.14 722.04L1915.78 723.256L1880.5 671.215L1864.43 669.988L1817.28 653.94V653.935Z" fill="#9B9193"/>
        </g>
        <g style="mix-blend-mode:soft-light">
            <path fill-rule="evenodd" clip-rule="evenodd" d="M1803.48 636.864L1856.11 654.408L1865.92 657.668L1872.6 659.906L1875.5 660.401H1875.53L1880.53 661.23L1887.63 662.419L1889.87 662.779L1887.58 662.004V661.978L1883.35 660.541L1879.21 659.132L1874.54 657.528L1871.74 656.587L1807.79 634.733L1806.98 634.459L1805.99 635.148L1803.48 636.858L1803.48 636.864Z" fill="#9B9193"/>
        </g>
        <g style="mix-blend-mode:soft-light">
            <path fill-rule="evenodd" clip-rule="evenodd" d="M1787.66 897.449L1777.58 929.121L1770.38 931.999L1769.86 898.96L1709.58 873.739L1758.87 890.25L1760.31 887.372L1704.44 839.555L1709.92 831.221L1771.82 896.007L1780.46 897.449L1787.66 878.732V897.449Z" fill="#9B9193"/>
        </g>
        <path fill-rule="evenodd" clip-rule="evenodd" d="M1787.66 897.449C1784.78 900.327 1776.14 901.769 1776.14 901.769L1760.3 895.243L1787.65 897.449H1787.66Z" fill="#928693"/>
        <path fill-rule="evenodd" clip-rule="evenodd" d="M1837.13 663.635C1837.25 662.499 1837.38 661.617 1837.55 660.982C1837.55 660.929 1837.55 660.902 1837.57 660.842C1837.71 660.288 1837.88 659.96 1838.04 659.901C1838.87 660.068 1839.81 660.175 1840.89 660.208C1843.79 660.374 1847.46 660.181 1851.66 659.713H1851.75C1856.05 659.271 1860.92 658.524 1865.92 657.668C1867.41 657.394 1868.93 657.114 1870.45 656.84C1870.89 656.759 1871.33 656.673 1871.74 656.592C1885.59 653.967 1899.42 650.653 1905.45 649.189C1906.11 648.996 1906.69 648.856 1907.16 648.748C1908.07 648.528 1908.57 648.388 1908.57 648.388L1915.78 537.549C1915.78 537.549 1941.99 536.694 1972.47 536C1972.49 536 1972.52 536.027 1972.55 536.054C1972.57 536.072 1972.58 536.09 1972.6 536.108C1972.6 536.134 1972.63 536.161 1972.66 536.188C1973.54 537.679 1975.94 548.482 1978.65 561.189C1982.57 579.562 1987.16 601.883 1988.73 605.832C1988.9 606.22 1989 606.44 1989.12 606.44C1991.46 606.386 1993.95 606.359 1996.52 606.3H1996.57C1999.5 606.273 2002.54 606.273 2005.69 606.273C2006.99 606.273 2008.35 606.273 2009.67 606.3H2010.36C2010.83 606.3 2011.3 606.3 2011.79 606.327C2011.93 606.3 2012.04 606.3 2012.16 606.3H2012.27C2012.6 606.3 2012.93 606.3 2013.26 606.327C2016.52 606.354 2019.81 606.381 2023.15 606.44H2023.18C2023.57 606.44 2023.95 606.467 2024.34 606.467C2025.58 606.494 2026.85 606.521 2028.13 606.548C2028.76 606.548 2029.37 606.575 2030.01 606.601C2031.19 606.601 2032.41 606.655 2033.6 606.682H2033.71C2035.07 606.709 2036.45 606.763 2037.8 606.795C2039.02 606.849 2040.21 606.876 2041.4 606.935C2043.58 607.016 2045.76 607.102 2047.92 607.183C2048.77 607.209 2049.63 607.263 2050.46 607.295C2050.7 607.295 2050.95 607.322 2051.2 607.322C2051.98 607.349 2052.72 607.403 2053.49 607.435C2055.65 607.548 2057.8 607.656 2059.9 607.769C2061.04 607.823 2062.14 607.882 2063.24 607.963C2065.34 608.076 2067.41 608.21 2069.43 608.35C2070.7 608.431 2071.94 608.544 2073.16 608.624C2074.07 608.678 2074.98 608.764 2075.86 608.845C2076.75 608.899 2077.63 608.985 2078.49 609.066C2080.2 609.232 2081.89 609.399 2083.46 609.534C2083.71 609.56 2083.96 609.587 2084.18 609.614C2085.12 609.727 2086.01 609.808 2086.86 609.916C2087.33 609.969 2087.8 610.029 2088.24 610.082C2088.8 610.136 2089.32 610.222 2089.82 610.276C2091.37 610.497 2092.81 610.717 2094.16 610.911C2096.7 611.325 2098.83 611.766 2100.51 612.207C2100.92 612.32 2101.29 612.428 2101.65 612.568C2101.81 612.595 2102.01 612.681 2102.14 612.735C2102.44 612.815 2102.72 612.928 2102.97 613.036C2103.55 613.31 2104.02 613.563 2104.35 613.811C2105.43 614.693 2123.08 685.806 2123.08 685.806L2107.26 690.115L2106.9 690.97C2106.82 691.137 2106.73 691.331 2106.65 691.551C2105.21 694.839 2101.62 703.21 2098.33 710.86C2097.72 712.297 2097.14 713.706 2096.56 715.03C2096.53 715.083 2096.51 715.143 2096.48 715.196C2095.54 717.381 2094.68 719.398 2093.97 721.109C2093.8 721.496 2093.63 721.857 2093.5 722.185C2093.45 722.298 2093.42 722.379 2093.39 722.459L2093.36 722.513C2093.31 722.626 2093.25 722.761 2093.19 722.874C2093.05 723.175 2092.95 723.455 2092.83 723.702C2092.31 724.972 2091.92 725.827 2091.78 726.188C2091.76 726.241 2091.73 726.301 2091.73 726.328C2091.56 726.823 2091.46 727.043 2091.46 727.043L2092.48 727.404L2092.87 727.543L2102.31 730.858L2102.34 730.884L2119.96 737.071L2120.05 737.098L2146.13 746.271L2144.61 747.019L2134.61 752.017L2137.92 760.334L2138.28 761.244L2139.77 764.945L2140.35 766.408L2153.31 795.197L2152.9 796.746L2151.71 801.276L2140.35 844.321L2140.98 844.488L2206.57 859.988L2199.39 878.721L2205.64 882.342H2205.66L2206.8 883.003L2206.85 883.03L2207.65 883.525H2207.68L2208.65 884.079L2221.22 891.375L2221.52 891.816L2226.33 898.638L2243.62 923.364L2243.74 923.531L2247.55 929.002L2247.6 929.083L2248.77 930.74C2248.79 930.74 2248.79 930.767 2248.82 930.767L2252.16 935.577L2252.66 936.297H2067.47V936.271C2067.67 935.609 2067.86 934.78 2068.08 933.785L2068.16 933.371C2069.04 929.336 2070.23 923.009 2071.39 916.521C2072.78 908.617 2074.13 900.499 2074.9 895.775C2075.15 894.226 2075.34 893.042 2075.46 892.348L2075.51 892.101L2075.56 891.687L2081.17 883.563L2087.66 874.169L2087.69 874.143L2088.52 872.954L2082.05 871.985H2082L2031.38 864.389H2031.36L2030.94 864.335C2030.94 864.335 2030.64 864.416 2030.09 864.529H2030.06C2026.83 865.303 2015.36 868.036 2011.77 869.526C2011.28 869.747 2010.94 869.914 2010.78 870.081C2010.25 870.608 2009.2 872.76 2008.04 875.606C2005.97 880.717 2003.6 887.985 2003.6 891.687C2003.6 892.655 2003.43 894.807 2003.26 897.739C2003.21 898.734 2003.15 899.837 2003.1 901.026C2003.04 902.543 2002.98 904.206 2002.98 905.944C2002.87 913.045 2005.11 927.937 2006.08 933.817C2006.3 935.367 2006.46 936.303 2006.46 936.303H1976.16C1976.38 935.582 1976.63 934.813 1976.91 933.957C1979.17 926.829 1982.74 915.611 1984.75 908.87C1985.69 905.723 1986.3 903.539 1986.3 903.205C1986.3 903.011 1986.47 902.71 1986.77 902.296V902.269C1987.46 901.274 1988.78 899.73 1990.3 898.067C1993.64 894.42 1997.82 890.25 1997.82 890.25L1950.63 868.45L1910.54 849.97L1904.94 847.372L1904.28 847.065L1904.39 847.372L1905.49 850.105C1907.65 855.356 1912.04 866.099 1914.83 871.904C1914.88 871.985 1914.91 872.044 1914.94 872.125C1915.55 873.314 1916.05 874.309 1916.43 874.944C1916.79 875.525 1917.04 875.826 1917.21 875.826C1917.57 875.826 1919.01 876.461 1921 877.43L1921.14 877.51C1921.41 877.65 1921.69 877.785 1921.99 877.952L1922.3 878.091C1928.4 881.158 1937.8 886.323 1938.82 887.345C1938.87 887.399 1938.93 887.539 1939.04 887.705C1939.23 888.233 1939.6 889.223 1940.04 890.578C1940.73 892.736 1941.61 895.802 1942.61 899.364C1945.53 909.833 1949.43 924.644 1951.59 932.93C1951.95 934.226 1952.22 935.361 1952.47 936.297H1869.7L1871.3 931.299L1872.6 927.291L1872.63 927.238L1873.59 924.252V924.225L1875 919.829L1880.17 903.808L1882.65 895.991L1881.16 894.554L1877.52 891.154L1861.91 876.51H1861.88L1859.64 874.385H1851L1850.86 874.605L1849.34 876.87L1845.33 882.783L1843.82 877.037L1842.82 873.249L1842.35 871.506L1852.43 855.678L1872.6 858.551L1895.23 851.477L1895.62 851.364L1895.59 851.17L1895.54 850.395L1892.5 820.09L1891.31 808.157L1918.13 806H1918.19L1927.31 805.279L1927.83 804.698L1929.63 802.653H1929.66L1960.4 767.845L1955.98 763.837L1947.69 756.294L1944.57 753.448L1926.7 745.765L1924.43 744.797L1933.55 743.441H1933.58L1933.8 743.387H1933.83L1936.78 742.946L1938.8 742.645C1938.83 742.672 1938.83 742.645 1938.83 742.645L1941.84 742.204C1941.84 742.204 1941.87 742.177 1941.89 742.177L1950.29 740.934L1964.74 738.777H1964.77L1965.46 738.664L1976.56 737.007L1977.7 736.84H1977.72L1978.52 736.7L1978.61 736.673H1978.66L1982 736.178L1981.95 736.038V736.012L1981.78 735.624L1980.29 731.923L1956.14 671.5L1956.09 671.387L1956.01 671.333L1936.98 662.822L1935.76 662.268L1935.54 662.187L1933.05 661.305C1933.05 661.305 1933.05 661.251 1933.08 661.111C1933.33 655.667 1938.91 542.069 1925.87 546.131C1908.47 551.575 1914.87 648.183 1914.35 651.223C1914.3 651.471 1913.91 651.777 1913.19 652.105C1913.05 652.159 1912.92 652.245 1912.75 652.299C1912.31 652.493 1911.81 652.713 1911.23 652.907C1906.56 654.618 1897.36 657.05 1887.5 659.481C1887.33 659.535 1887.14 659.562 1886.97 659.621C1885.78 659.922 1884.57 660.202 1883.35 660.504C1882.41 660.724 1881.48 660.972 1880.53 661.192C1877.77 661.854 1875.04 662.516 1872.38 663.156H1872.36C1869.34 663.877 1866.47 664.538 1863.88 665.173C1861.25 665.808 1858.93 666.389 1856.97 666.857C1856.64 666.938 1856.36 667.024 1856.06 667.105H1855.98C1853.44 667.74 1851.7 668.208 1851.12 668.46C1851.06 668.487 1851.04 668.487 1851 668.514C1848.13 669.951 1841.92 720.065 1841.92 720.065L1836.61 718.903C1836.61 718.903 1835.81 676.606 1837.14 663.592L1837.13 663.635ZM2016.6 824.093C2016.57 828.402 2016.57 831.221 2016.57 831.221L2017.37 824.119L2020.61 795.885L2022.32 780.827C2022.32 780.827 2019.44 779.39 2018.01 779.39C2017.43 779.39 2017.1 787.788 2016.87 797.817C2016.68 806.904 2016.63 817.351 2016.6 824.093ZM1966.9 812.682L1970.46 813.483H1970.49L1970.85 813.564L1985.27 816.851L1991.16 818.18L1997.84 819.697L2002.18 818.261L1998.15 816.851C1998.17 816.604 1998.2 816.356 1998.23 816.103C1998.53 813.177 1998.95 808.754 1999.33 803.918C1999.38 803.229 1999.44 802.535 1999.5 801.819C1999.61 800.41 1999.72 799 1999.8 797.564C1999.85 796.402 1999.94 795.245 1999.99 794.11C2000.43 786.126 2000.43 779.111 1999.27 777.948C1996.4 775.076 1984.88 773.639 1984.88 776.512C1984.88 776.846 1984.96 777.674 1985.13 778.89C1985.18 779.385 1985.27 779.939 1985.35 780.547C1985.59 782.398 1985.95 784.803 1986.34 787.482C1986.45 788.17 1986.56 788.891 1986.68 789.607C1987.01 791.764 1987.36 794.056 1987.72 796.402C1987.84 797.177 1987.97 797.978 1988.09 798.747C1988.86 803.745 1989.66 808.803 1990.32 812.945C1990.38 813.36 1990.46 813.774 1990.52 814.188L1985.99 812.585L1973.36 808.162L1970.98 809.599L1966.17 812.499L1966.89 812.665L1966.9 812.682ZM2145.18 803.563C2146.42 800.69 2147.27 798.312 2147.55 796.741C2147.58 796.714 2147.58 796.687 2147.58 796.66C2147.75 795.692 2147.72 794.562 2147.55 793.26C2147.53 792.926 2147.47 792.571 2147.39 792.184C2147.25 791.409 2147.08 790.554 2146.83 789.698C2146.72 789.171 2146.56 788.649 2146.42 788.122C2146.3 787.788 2146.22 787.46 2146.11 787.1C2144.73 782.677 2142.6 777.733 2140.56 773.451C2140.34 772.956 2140.12 772.482 2139.87 772.041C2139.65 771.573 2139.43 771.159 2139.21 770.718C2138.99 770.277 2138.77 769.835 2138.55 769.448C2137.72 767.791 2136.92 766.355 2136.26 765.246C2136.03 764.859 2135.81 764.531 2135.62 764.224C2135.51 764.057 2135.43 763.923 2135.35 763.81C2134.93 763.175 2134.62 762.788 2134.49 762.734C2134.38 762.68 2134.1 762.68 2133.69 762.734C2133.58 762.734 2133.44 762.761 2133.27 762.788C2133.22 762.788 2133.13 762.788 2133.05 762.815C2132.72 762.868 2132.37 762.954 2131.95 763.035C2131.64 763.089 2131.34 763.175 2131.01 763.256C2130.98 763.283 2130.93 763.283 2130.9 763.283C2130.56 763.363 2130.26 763.476 2129.9 763.557C2129.82 763.584 2129.71 763.611 2129.6 763.638C2129.3 763.718 2128.97 763.805 2128.66 763.912C2128.02 764.106 2127.39 764.299 2126.69 764.493C2126.36 764.606 2126.01 764.714 2125.65 764.854C2123.93 765.435 2122.16 766.069 2120.56 766.731C2118.79 767.479 2117.22 768.221 2116.11 768.942C2115.92 769.055 2115.75 769.19 2115.59 769.303C2114.86 769.83 2114.45 770.325 2114.45 770.739C2114.45 772.95 2112.74 809.142 2111.88 826.546V826.6L2110.78 827.703L2111.82 827.729C2111.8 828.09 2111.8 828.477 2111.77 828.805V828.945C2111.72 830.107 2111.66 831.156 2111.6 832.039L2053.97 845.602L2054.92 847.426L2062.82 847.092L2109.51 838.333H2109.53L2117.3 836.87L2126.64 838.694C2126.64 838.694 2126.91 838.226 2127.38 837.397C2127.41 837.37 2127.44 837.317 2127.46 837.284C2129.4 833.916 2134.54 824.905 2139.12 816.066C2141.44 811.616 2143.6 807.199 2145.18 803.552V803.563ZM1951.79 864.34L1952.95 864.173H1952.98L1992.43 858.896L1994.97 858.562L2005.05 851.38L1989.27 846.215L1988.47 845.968L1987.2 845.553L1986.45 845.306L1986.18 845.193L1984.47 844.612L1979.99 843.009H1979.97L1979.14 842.734L1987.12 838.979L1988.42 838.344H1988.45L2000.6 832.625L2003.58 831.243L2003.61 831.216L1999.38 830.662L1989.33 829.338L1983.36 828.536L1965.21 826.105L1964.57 826.024L1960.4 825.47L1960.82 827.762L1962.62 837.516L1934.49 828.343L1920.1 831.937L1916.7 832.792L1910.07 834.449L1905.71 835.525L1910.43 838.479L1951.79 864.335V864.34Z" fill="url(#paint19_linear_192_60757)"/>
        <path fill-rule="evenodd" clip-rule="evenodd" d="M1861.08 665.663C1861.87 665.388 1862.82 665.243 1863.87 665.216C1872.11 664.942 1887 671.419 1887 671.419L1887.14 672.63L1892.63 718.252L1896.31 722.669L1898.51 738.104L1908.81 742.15L1901.45 724.498L1894.19 717.488L1890.19 672.269L1890.06 670.844C1890.06 670.844 1887.15 663.791 1887.5 659.53C1887.59 658.481 1887.88 657.588 1888.44 657.023C1891.32 654.144 1854.1 668.138 1861.09 665.663H1861.08Z" fill="url(#paint20_linear_192_60757)"/>
        <path fill-rule="evenodd" clip-rule="evenodd" d="M1891.31 808.189L1892.26 820.079L1892.51 820.106L1908.92 821.951L1916.06 822.742L1920.11 824.023L1960.84 827.767L1960.42 825.464L1964.57 826.024L1965.22 826.11L1970.85 813.569L1966.17 812.504L1970.99 809.61C1963.24 807.694 1927.3 805.306 1927.3 805.306L1891.3 808.184L1891.31 808.189Z" fill="#D1DEFF"/>
        <path style="mix-blend-mode:screen" fill-rule="evenodd" clip-rule="evenodd" d="M1916.06 822.742L1916.69 832.792L1917.23 841.303L1920.1 839.861V823.205L1916.06 822.742Z" fill="url(#paint21_linear_192_60757)"/>
        <path style="mix-blend-mode:screen" fill-rule="evenodd" clip-rule="evenodd" d="M1892.5 820.111L1895.53 850.428L1905.52 850.126L1904.27 847.06L1911.47 849.938L1910.43 838.495L1910.05 834.449L1908.92 821.951L1892.5 820.111Z" fill="url(#paint22_linear_192_60757)"/>
        <path fill-rule="evenodd" clip-rule="evenodd" d="M1916.46 874.96L1861.9 876.531L1877.52 891.17L1881.16 894.581L1939.04 887.727L1921.14 877.521L1921 877.451L1916.65 874.96H1916.46Z" fill="#D1DEFF"/>
        <path fill-rule="evenodd" clip-rule="evenodd" d="M1843.82 877.048L1845.33 882.804L1849.33 876.886L1843.82 877.048Z" fill="url(#paint23_linear_192_60757)"/>
        <path fill-rule="evenodd" clip-rule="evenodd" d="M2007.31 867.369C2007.92 865.777 2005.04 851.38 2005.04 851.38L1994.97 858.578L1951.78 864.335L1905.71 835.541L1904.27 847.06L1948.89 868.655L1997.84 890.25L2007.3 867.369H2007.31Z" fill="url(#paint24_linear_192_60757)"/>
        <path fill-rule="evenodd" clip-rule="evenodd" d="M2005.04 851.38L1995.79 858.793L1953.22 864.335L1905.71 835.541L1934.5 828.343L2005.04 851.38Z" fill="url(#paint25_linear_192_60757)"/>
        <path style="mix-blend-mode:multiply" opacity="0.4" fill-rule="evenodd" clip-rule="evenodd" d="M1938.82 887.372L1953.22 864.335L1905.71 835.541L1904.27 847.06L1916.64 874.966L1938.82 887.372Z" fill="url(#paint26_linear_192_60757)"/>
        <path style="mix-blend-mode:multiply" opacity="0.4" fill-rule="evenodd" clip-rule="evenodd" d="M1908.57 648.388L1913.19 652.143C1913.91 651.809 1914.29 651.508 1914.35 651.261C1914.88 648.221 1908.47 551.613 1925.87 546.168C1938.91 542.106 1933.33 655.71 1933.08 661.149C1933.05 661.289 1933.05 661.343 1933.05 661.343L1935.54 662.225L1935.76 662.306L1936.98 662.86L1956.01 671.371L1956.09 671.425L1956.14 671.538L1980.29 731.96L1981.78 735.662L1981.95 736.049V736.076L1982 736.216L1978.66 736.711H1978.63L1978.52 736.738L1977.72 736.878H1977.69L1976.56 737.044C1976.56 737.044 1976.58 737.071 1976.61 737.157H1976.64L1976.78 737.378H1976.83L1978.63 737.297L1979.1 737.27H1979.26L1981.11 737.19H1981.14L1985.26 736.996C1985.26 736.996 1985.23 736.802 1985.2 736.415C1985.17 736.275 1985.17 736.141 1985.15 735.947C1985.12 735.586 1985.07 735.118 1985.01 734.537C1983.32 718.263 1974.23 626.653 1983.43 625.356C1993.51 623.92 2011.33 622.704 2011.33 622.704C2011.33 622.704 2010.89 622.65 2010.12 622.591C1970.52 622.177 1937.37 618.168 1937.37 618.168C1937.37 618.168 1944.11 616.484 1953.07 614.413C1950.61 613.725 1949.09 613.031 1948.87 612.396C1947.43 608.086 1943.12 543.301 1944.56 541.864C1945.52 540.896 1957.84 538.717 1966.05 537.307L1967.63 537.033L1968.57 536.866L1969.23 536.753C1970.75 536.506 1971.96 536.312 1972.66 536.199C1972.63 536.172 1972.6 536.145 1972.6 536.118C1972.58 536.1 1972.57 536.082 1972.55 536.065C1972.52 536.038 1972.49 536.011 1972.47 536.011C1941.99 536.699 1915.78 537.56 1915.78 537.56L1908.57 648.399L1908.57 648.388Z" fill="url(#paint27_linear_192_60757)"/>
        <path style="mix-blend-mode:screen" fill-rule="evenodd" clip-rule="evenodd" d="M1890.19 672.275C1889.14 672.404 1888.13 672.533 1887.14 672.635L1892.63 718.258L1896.31 722.675L1898.51 738.11L1908.81 742.155L1901.45 724.504L1894.19 717.494L1890.19 672.275Z" fill="url(#paint28_linear_192_60757)"/>
        <path style="mix-blend-mode:screen" fill-rule="evenodd" clip-rule="evenodd" d="M1836.61 718.93L1841.91 720.098C1841.91 720.098 1848.12 669.983 1851 668.547C1851.03 668.53 1851.06 668.52 1851.11 668.504L1837.14 663.651C1835.8 676.638 1836.61 718.935 1836.61 718.935V718.93Z" fill="url(#paint29_linear_192_60757)"/>
        <path fill-rule="evenodd" clip-rule="evenodd" d="M1970.99 809.615C1966.17 809.631 1958.97 802.433 1954.65 802.433C1950.33 802.433 1943.14 808.189 1938.82 805.311C1934.5 802.433 1925.87 802.433 1925.87 802.433L1916.4 806.844L1971 809.615H1970.99Z" fill="#E9F0FF"/>
        <path style="mix-blend-mode:screen" fill-rule="evenodd" clip-rule="evenodd" d="M1873.38 871.334C1873.38 871.307 1873.41 871.28 1873.41 871.253C1873.55 870.785 1873.74 870.398 1874.04 870.091C1874.09 870.038 1874.15 869.978 1874.26 869.925C1874.29 869.925 1874.29 869.898 1874.29 869.871C1876.55 867.746 1890.26 855.834 1895.23 851.498C1895.37 851.417 1895.47 851.304 1895.59 851.197C1895.97 850.863 1896.31 850.589 1896.56 850.395C1896.67 850.282 1896.78 850.202 1896.86 850.148C1896.78 850.228 1896.69 850.315 1896.61 850.395C1896.36 850.643 1896.03 850.976 1895.61 851.391C1891.25 855.813 1878.12 869.128 1876.91 871.533C1875.48 874.406 1876.94 875.703 1876.94 875.703C1876.94 875.703 1877.35 875.843 1878.08 876.063C1884.24 878.108 1913.85 887.888 1917.91 890.207H1917.97C1918.3 890.428 1918.44 890.568 1918.36 890.648C1917.22 891.697 1904.26 894.57 1902.83 896.007C1902.03 896.808 1901.69 907.972 1901.5 917.914C1901.48 921.12 1901.45 924.187 1901.42 926.726C1901.4 930.702 1901.4 933.441 1901.4 933.441L1885.57 934.877L1885.65 933.521L1886.48 919.017L1887.94 893.763L1887.97 893.349L1873.24 876.192L1873.02 875.945C1873.02 875.945 1872.78 873.179 1873.38 871.329L1873.38 871.334ZM1888.44 890.261C1888.44 890.261 1895.48 892.165 1901.45 892.165H1901.48C1903.08 892.165 1904.66 892.026 1905.93 891.638C1905.95 891.638 1906.01 891.611 1906.04 891.611C1907.09 891.337 1907.94 890.89 1908.58 890.256L1875.48 878.651L1888.44 890.256V890.261Z" fill="url(#paint30_linear_192_60757)"/>
        <path d="M1922.99 871.006C1919.14 870.43 1914.3 872.071 1914.3 872.071L1924.01 872.927L1921.36 871.904L1922.99 871.006H1922.99Z" fill="url(#paint31_linear_192_60757)"/>
        <path d="M1912.97 876.59C1912.5 875.342 1909.12 876.015 1909.12 876.015L1912.97 876.59Z" fill="url(#paint32_linear_192_60757)"/>
        <path d="M1913.14 875.439C1911.94 874.67 1905.35 874.869 1905.35 874.869L1918.19 876.779L1913.14 875.439Z" fill="url(#paint33_linear_192_60757)"/>
        <path d="M1874.35 869.801L1864.89 870.398C1864.89 870.398 1868.85 872.991 1870.64 873.26C1872.43 873.529 1874.35 869.801 1874.35 869.801Z" fill="url(#paint34_linear_192_60757)"/>
        <path d="M1871.44 862.893C1869.6 862.027 1867.5 862.893 1867.5 862.893H1871.44Z" fill="url(#paint35_linear_192_60757)"/>
        <path d="M1905.67 726.284L1906.8 729.927C1906.8 729.927 1904.64 729.588 1904.2 729.061C1903.76 728.533 1905.67 726.284 1905.67 726.284Z" fill="url(#paint36_linear_192_60757)"/>
        <path d="M1910.23 724.439C1911.03 724.74 1910.84 725.854 1910.84 725.854L1910.23 724.439Z" fill="url(#paint37_linear_192_60757)"/>
        <path d="M1920.54 722.357C1919.12 720.641 1916.24 720.092 1916.24 720.092L1920.74 723.729L1920.54 722.357Z" fill="url(#paint38_linear_192_60757)"/>
        <path d="M1908.82 934.619C1907.86 934.619 1906.74 932.903 1906.74 932.903L1909.14 933.333L1908.46 933.79L1908.82 934.619Z" fill="url(#paint39_linear_192_60757)"/>
        <path d="M1874.63 928.938C1873.67 928.938 1872.54 927.221 1872.54 927.221L1874.94 927.652L1874.26 928.109L1874.63 928.938Z" fill="url(#paint40_linear_192_60757)"/>
        <path d="M1878.15 925.941C1877.83 926.371 1875.59 925.511 1875.59 925.511L1877.99 925.08L1878.15 925.936V925.941Z" fill="url(#paint41_linear_192_60757)"/>
        <path d="M1880.07 927.227C1879.75 927.657 1879.59 927.227 1879.59 927.227H1880.07Z" fill="url(#paint42_linear_192_60757)"/>
        <path d="M1872.39 923.8C1872.23 924.655 1871.43 923.8 1871.43 923.8H1872.39Z" fill="url(#paint43_linear_192_60757)"/>
        <path d="M1872.39 924.655C1872.07 925.086 1870.47 924.225 1870.47 924.225H1873.67L1872.39 924.655Z" fill="url(#paint44_linear_192_60757)"/>
        <path d="M1862.72 924.558L1860.43 923.1C1860.43 923.1 1861.49 921.642 1861.94 921.642C1862.39 921.642 1862.72 924.553 1862.72 924.553V924.558Z" fill="url(#paint45_linear_192_60757)"/>
        <path d="M1861.76 929.26C1861.28 929.691 1860.8 928.83 1860.8 928.83L1861.76 929.26Z" fill="url(#paint46_linear_192_60757)"/>
        <path d="M1912.34 931.617C1912.02 932.047 1909.78 931.186 1909.78 931.186L1912.18 930.756L1912.34 931.611V931.617Z" fill="url(#paint47_linear_192_60757)"/>
        <path d="M1914.26 932.903C1913.94 933.333 1913.78 932.903 1913.78 932.903H1914.26Z" fill="url(#paint48_linear_192_60757)"/>
        <path d="M1906.58 929.476C1906.42 930.331 1905.62 929.476 1905.62 929.476H1906.58Z" fill="url(#paint49_linear_192_60757)"/>
        <path d="M1906.58 930.336C1906.26 930.767 1904.66 929.906 1904.66 929.906H1907.86L1906.58 930.336Z" fill="url(#paint50_linear_192_60757)"/>
        <path fill-rule="evenodd" clip-rule="evenodd" d="M1811.63 935.625C1809.53 937.336 1946.59 937.282 2032.9 936.981C2027.42 933.995 2021.6 931.262 2018.94 931.536C2018.64 931.536 2018.39 931.59 2018.2 931.703C2018.17 931.703 2018.14 931.73 2018.12 931.73V931.757C2017.9 931.837 2017.68 931.95 2017.45 932.031C2013.2 933.828 2008.75 933.855 2008.5 933.855C2008.5 933.855 2007.67 933.855 2006.1 933.828C2002.78 933.801 1996.1 933.747 1986.65 933.661C1983.05 933.634 1979.83 933.742 1976.92 933.962C1967.78 934.597 1962.08 936.007 1959.66 936.007C1959 936.007 1959.49 935.512 1960.54 934.737C1960.57 934.71 1960.59 934.71 1960.62 934.71C1960.65 934.683 1960.65 934.657 1960.67 934.657C1960.81 934.544 1961.01 934.436 1961.17 934.296C1961.42 934.129 1961.66 933.962 1961.92 933.801C1967.11 930.374 1977.5 924.327 1966.73 925.844C1950.9 928.082 1952.34 933.387 1952.34 933.387C1952.34 933.387 1952.09 933.22 1951.59 932.946C1950.71 932.451 1949.13 931.509 1946.97 930.406C1946.97 930.379 1946.94 930.379 1946.94 930.379C1946.92 930.353 1946.89 930.353 1946.86 930.326C1936.72 924.913 1915.34 914.772 1907.97 921.4C1905.65 923.498 1903.49 925.268 1901.42 926.732C1895.43 931.068 1890.37 933.032 1885.64 933.527C1880.78 933.995 1876.22 932.973 1871.31 931.316C1862.27 928.33 1851.94 923.385 1836.08 922.503C1835.23 922.449 1834.37 922.422 1833.49 922.39C1832.82 922.363 1832.16 922.363 1831.55 922.336H1831.41C1823.48 922.196 1819.12 922.584 1817.27 923.246C1817.24 923.272 1817.22 923.272 1817.22 923.272C1817 923.353 1816.83 923.466 1816.69 923.547C1811.5 926.726 1846.97 935.065 1849.54 935.673C1847.08 935.453 1815.61 932.359 1811.64 935.62L1811.63 935.625Z" fill="#E9F0FF"/>
        <path style="mix-blend-mode:screen" opacity="0.3" d="M1630.73 753.48L1662.73 763.648L1663.25 762.793L1682.56 731.88L1691.29 728.038L1690.82 727.818L1735.69 707.982L1736.22 708.176L1744.47 704.528L1755.94 703.011L1757.43 687.264L1767.51 685.827L1779.39 641.512L1779.03 641.399L1789.64 638.941L1805.99 635.153L1806.99 634.464L1807.79 634.739L1847.58 625.512L1876.47 636.616L1905.45 649.189C1906.12 648.996 1906.7 648.856 1907.16 648.748C1908.07 648.528 1908.57 648.388 1908.57 648.388L1915.78 537.549C1915.78 537.549 1942 536.694 1972.47 536C1972.5 536 1972.53 536.027 1972.55 536.054C1972.57 536.072 1972.59 536.09 1972.61 536.108C1972.61 536.134 1972.63 536.161 1972.66 536.188C1973.54 537.679 1975.95 548.482 1978.65 561.189C1982.58 579.562 1987.16 601.883 1988.74 605.832C1988.9 606.22 1989.01 606.44 1989.12 606.44C1991.47 606.386 1993.96 606.359 1996.53 606.3H1996.58C1999.51 606.273 2002.55 606.273 2005.7 606.273C2007 606.273 2008.35 606.273 2009.67 606.3H2012.27C2012.61 606.3 2012.94 606.3 2013.27 606.327C2016.53 606.354 2019.82 606.381 2023.16 606.44H2023.18C2023.57 606.44 2023.96 606.467 2024.35 606.467C2025.59 606.494 2026.86 606.521 2028.13 606.548C2028.77 606.548 2029.38 606.575 2030.01 606.601C2031.2 606.601 2032.42 606.655 2033.6 606.682H2033.72C2035.07 606.709 2036.45 606.763 2037.81 606.795C2039.02 606.849 2040.21 606.876 2041.4 606.935C2043.58 607.016 2045.76 607.102 2047.92 607.183C2048.78 607.209 2049.63 607.263 2050.46 607.295C2050.71 607.295 2050.96 607.322 2051.21 607.322C2051.98 607.349 2052.73 607.403 2053.5 607.435C2055.66 607.548 2057.81 607.656 2059.91 607.769C2061.04 607.823 2062.15 607.882 2063.25 607.963C2065.35 608.076 2067.42 608.21 2069.44 608.35C2070.71 608.431 2071.95 608.544 2073.16 608.624C2074.07 608.678 2074.99 608.764 2075.87 608.845C2076.75 608.899 2077.64 608.985 2078.5 609.066C2080.21 609.205 2081.9 609.367 2083.47 609.534C2083.71 609.56 2083.96 609.587 2084.19 609.614C2085.1 609.695 2086.01 609.808 2086.87 609.916C2087.33 609.969 2087.81 610.029 2088.25 610.082C2088.8 610.136 2089.33 610.222 2089.83 610.276C2091.4 610.47 2092.84 610.69 2094.16 610.911C2096.7 611.325 2098.83 611.766 2100.52 612.207C2100.93 612.32 2101.29 612.428 2101.65 612.568C2101.82 612.595 2102.01 612.681 2102.15 612.735C2102.45 612.815 2102.73 612.928 2102.97 613.036C2103.56 613.31 2104.02 613.563 2104.36 613.811C2105.43 614.693 2123.09 685.806 2123.09 685.806L2107.26 690.115L2318.88 648.372L2392.29 657.017L2409.44 756.251L2422.54 766.419V773.628L2432.6 779.374L2429.19 805.51L2467.16 799.544C2467.16 799.544 2533.38 822.559 2539.15 825.459L2555.43 838.694L2596.87 828.332L2614.52 829.575L2648.55 844.714L2649.99 870.075L2585.26 881.319L2539.37 889.276L2508.9 894.554L2504.84 894.473L2411.82 892.73L2377.5 892.069L2370.15 891.929L2354.24 891.622L2351.53 891.595L2280.01 890.239L2261.8 890.707L2261.44 890.734L2221.52 891.81L2226.33 898.632L2243.62 923.359C2243.92 923.385 2244.12 923.439 2244.12 923.439L2243.73 923.52L2247.55 928.991L2247.69 928.965C2247.69 928.965 2247.66 929.018 2247.6 929.077L2248.77 930.735C2248.79 930.735 2248.79 930.761 2248.82 930.761C2251.23 932.365 2253.02 933.414 2254.1 933.414C2258.41 933.414 2265.34 922.53 2266.78 922.53C2268.16 922.584 2265.59 934.522 2265.59 934.522C2265.12 935.351 2289.21 928.47 2288.63 934.635C2288.63 934.635 2273.44 935.076 2252.17 935.577L2252.66 936.297H2218.07C2202.79 936.572 2186.85 936.825 2172.38 936.905C2172.52 936.712 2172.65 936.491 2172.74 936.297H2156.6C2159.97 936.572 2162.07 937.013 2161.96 937.734C2161.96 937.734 2155.94 937.621 2146.1 937.513L2146.13 937.734L2145.27 937.513C2134.91 937.347 2120.55 937.18 2104.69 937.072L2105.13 937.54C2104.35 937.54 2103.55 937.32 2102.81 937.045C2085.76 936.905 2067.14 936.852 2050.01 936.905C2051.95 935.415 2054.05 933.952 2055.79 933.091C2055.57 933.064 2055.43 933.037 2055.43 933.037H2055.87C2056.89 932.542 2057.8 932.262 2058.49 932.262C2059.57 932.262 2060.24 932.596 2060.62 933.037H2060.92L2060.65 933.064C2060.96 933.425 2061.09 933.893 2061.12 934.361L2063.11 934.441L2061.95 934.608L2062.55 934.969C2062.09 934.969 2061.59 934.915 2061.12 934.829C2061.12 935.603 2060.87 936.238 2060.87 936.238L2067.47 936.265C2067.67 935.603 2067.86 934.775 2068.08 933.78C2066.89 933.78 2064.21 933.559 2064.21 933.559L2068.16 933.365C2069.04 929.33 2070.23 923.004 2071.39 916.515C2072.78 908.612 2074.13 900.494 2074.9 895.77L2066.92 895.991L2043.41 896.625L2003.27 897.728C2003.21 898.724 2003.15 899.827 2003.1 901.016C2003.05 902.533 2002.99 904.195 2002.99 905.933C2002.87 913.034 2005.11 927.926 2006.08 933.806C2007.66 933.833 2008.49 933.833 2008.49 933.833C2008.73 933.833 2013.18 933.807 2017.44 932.01L2017.41 931.595C2017.88 931.595 2018.05 931.649 2018.1 931.708C2018.13 931.708 2018.15 931.681 2018.18 931.681L2018.15 930.907L2018.93 931.515C2021.58 931.24 2027.41 933.973 2032.88 936.959C1946.57 937.26 1809.51 937.32 1811.62 935.603C1815.59 932.343 1847.06 935.437 1849.52 935.657C1846.95 935.049 1811.48 926.705 1816.67 923.531L1793.4 924.774L1780.67 928.749L1770.37 931.983L1665.28 927.646L1668.15 883.03L1604.8 821.117L1604.58 820.176L1604.08 819.681L1589.39 758.048V758.021L1588.97 756.337L1630.71 753.464L1630.73 753.48ZM1925.87 546.168C1908.47 551.613 1914.87 648.221 1914.35 651.261C1914.3 651.508 1913.91 651.815 1913.19 652.143C1913.05 652.197 1912.92 652.283 1912.75 652.337L1933.08 661.149C1933.33 655.705 1938.91 542.106 1925.87 546.168ZM1966.73 925.844C1977.51 924.327 1967.12 930.374 1961.92 933.801C1961.9 934.188 1961.48 934.823 1961.48 934.823L1961.17 934.296C1961.01 934.436 1960.81 934.544 1960.68 934.657C1960.65 934.657 1960.65 934.683 1960.63 934.71C1960.6 934.764 1960.57 934.791 1960.57 934.791L1960.54 934.737C1959.5 935.512 1959 936.007 1959.66 936.007C1962.09 936.007 1967.79 934.597 1976.93 933.963C1979.19 926.834 1982.76 915.617 1984.77 908.876C1985.71 905.728 1986.32 903.544 1986.32 903.211C1986.32 903.017 1986.49 902.716 1986.79 902.301V902.274C1987.48 901.279 1988.81 899.735 1990.32 898.073L1942.61 899.369C1945.54 909.839 1949.44 924.65 1951.59 932.935C1952.09 933.209 1952.34 933.376 1952.34 933.376C1952.34 933.376 1950.9 928.071 1966.73 925.833V925.844ZM1962.06 923.439L1961.12 924.435L1958.39 923.827C1958.39 923.827 1961.7 922.804 1962.06 923.439ZM1960.63 935.706C1960.63 935.458 1964.99 932.752 1964.99 932.752L1963.3 935.103C1963.3 935.103 1960.73 935.932 1960.63 935.711V935.706ZM1972.17 929.766L1972.56 928.965C1973.27 928.825 1972.36 929.626 1972.17 929.766Z" fill="url(#paint51_linear_192_60757)"/>
        <g clip-path="url(#clip1_192_60757)">
            <path fill-rule="evenodd" clip-rule="evenodd" d="M344.588 758.66C344.588 758.66 346.28 741.706 352.689 732.097C359.097 722.494 364.481 719.127 364.481 719.127C364.481 719.127 347.92 745.113 346.469 758.66C346.469 758.66 354.14 743.54 366.276 732.894C366.276 732.894 352.863 750.794 348.725 758.66C348.725 758.66 354.734 748.255 362.989 740.276C371.244 732.291 386.574 730.238 386.574 730.238C386.574 730.238 357.282 740.883 350.484 758.665H344.593L344.588 758.66Z" fill="#395B33"/>
            <path fill-rule="evenodd" clip-rule="evenodd" d="M345.049 757.404C345.049 757.404 343.665 739.918 338.035 732.649C338.035 732.649 342.65 745.547 343.849 757.404H345.049Z" fill="#395B33"/>
            <path fill-rule="evenodd" clip-rule="evenodd" d="M510 881.561L457.898 822.381L450.417 820.731L374.858 757.332L362.281 756.275L345.362 759.064L328.617 724.624L274.843 686L212.066 700.375L212.163 734.176L209 755.381L212.066 881.316L510 881.561Z" fill="#403146"/>
            <path fill-rule="evenodd" clip-rule="evenodd" d="M362.281 756.275L339.753 773.97L333.38 874.884L361.138 879.39L433.277 874.884L450.417 820.731L374.858 757.332L362.281 756.275Z" fill="#524A58"/>
            <path fill-rule="evenodd" clip-rule="evenodd" d="M274.843 686L212.066 700.375L288.379 741.379L308.544 752.239L338.343 749.578L328.616 724.624L274.843 686Z" fill="#524A58"/>
            <path fill-rule="evenodd" clip-rule="evenodd" d="M270.951 719.413L295.239 754.671L308.544 782.296L322.874 866.098L291.609 844.357L264.681 724.445L270.951 719.413Z" fill="#524A58"/>
            <path fill-rule="evenodd" clip-rule="evenodd" d="M313.261 783.742L313.035 779.374L322.12 775.651L328.924 782.312L319.7 791.016L313.261 783.742Z" fill="#524A58"/>
            <path fill-rule="evenodd" clip-rule="evenodd" d="M457.898 822.381L455.139 830.483L442.937 860.755L452.325 821.15L457.898 822.381Z" fill="#524A58"/>
            <path fill-rule="evenodd" clip-rule="evenodd" d="M274.843 686L211.897 706.735L212.066 700.375L274.843 686Z" fill="#A0979F"/>
            <path fill-rule="evenodd" clip-rule="evenodd" d="M220.69 749.471L262.917 738.447L266.686 733.374L270.952 719.413L212.164 734.176L220.69 749.471Z" fill="#A0979F"/>
            <path fill-rule="evenodd" clip-rule="evenodd" d="M268.67 850.834L289.219 850.962L328.617 875.773L326.581 878.133L268.67 881.361L264.681 855.136L268.67 850.834Z" fill="#524A58"/>
            <path fill-rule="evenodd" clip-rule="evenodd" d="M265.332 859.411L212.164 875.094V869.817L268.67 850.834L265.332 859.411Z" fill="#817580"/>
            <path fill-rule="evenodd" clip-rule="evenodd" d="M339.753 773.97L349.192 758.43L362.281 756.275L339.753 773.97Z" fill="#A0979F"/>
            <path fill-rule="evenodd" clip-rule="evenodd" d="M291.609 844.357L268.096 849.598L262.943 853.072L268.67 850.834L289.22 850.962L328.617 875.773L326.581 878.133L327.422 881.361H362.282L361.138 879.39L333.38 874.884L338.343 796.329L328.924 782.312L319.701 791.016L314.753 808.395L308.544 782.296L322.874 866.098L291.609 844.357Z" fill="#35253B"/>
            <path fill-rule="evenodd" clip-rule="evenodd" d="M308.544 752.239V782.296L313.035 779.374L322.12 775.65L328.924 782.312L338.343 796.329L339.753 773.97L349.192 758.43L344.408 757.107L328.617 724.624L338.343 749.578L308.544 752.239Z" fill="#35253B"/>
            <path fill-rule="evenodd" clip-rule="evenodd" d="M288.379 741.379L291.065 748.612L295.239 754.671L294.075 744.444L288.379 741.379Z" fill="#35253B"/>
            <path opacity="0.5" fill-rule="evenodd" clip-rule="evenodd" d="M433.277 874.884L363.584 875.094L338.343 860.755L339.753 773.97L333.38 874.884L361.138 879.39L433.277 874.884Z" fill="#35253B"/>
            <path fill-rule="evenodd" clip-rule="evenodd" d="M437.974 810.29L427.33 817.835L386.81 832.475L384.508 836.168L379.114 840.459L348.535 844.444L338.486 851.927L334.19 862.052L338.44 854.563L349.192 846.124L378.335 841.093L381.636 841.205L392.501 836.623L394.367 831.152L427.914 818.315L440.65 812.537L437.974 810.29Z" fill="#35253B"/>
            <path fill-rule="evenodd" clip-rule="evenodd" d="M253.606 722.693L285.461 703.097V699.879L287.733 695.256L288.968 696.145L286.328 699.879L286.189 703.797L254.97 723.428L253.606 722.693Z" fill="#35253B"/>
            <path fill-rule="evenodd" clip-rule="evenodd" d="M393.675 831.029L387.917 833.967L385.348 836.168L383.713 838.58V839.228L389.742 837.18L392.219 835.877L393.675 831.029Z" fill="#524A58"/>
            <path fill-rule="evenodd" clip-rule="evenodd" d="M338.102 874.598C338.102 874.598 338.948 860.203 341.081 850.221C343.214 840.24 353.688 817.191 353.688 817.191C353.688 817.191 342.501 848.301 338.102 874.598Z" fill="#619539"/>
            <path fill-rule="evenodd" clip-rule="evenodd" d="M336.297 882C336.297 882 338.768 862.246 353.278 841.971C353.278 841.971 340.045 867.554 336.297 882Z" fill="#619539"/>
            <path fill-rule="evenodd" clip-rule="evenodd" d="M289.219 850.962C289.219 850.962 305.38 829.451 320.982 826.815C320.982 826.815 304.452 827.862 289.219 848.73C289.219 848.73 292.357 841.931 291.68 834.013C291.004 826.095 285.389 816.665 285.389 816.665C285.389 816.665 290.347 837.011 288.476 845.9C288.476 845.9 282.585 816.782 274.546 808.859L286.984 845.128C286.984 845.128 281.631 841.093 276.637 840.904C271.649 840.72 259.21 851.647 259.21 851.647C259.21 851.647 272.3 841.839 286.23 845.563C286.23 845.563 277.786 844.526 269.5 847.427C261.21 850.329 259.846 854.282 259.846 854.282C259.846 854.282 279.873 845.384 286.605 848.362L287.727 850.952L289.214 850.962H289.219Z" fill="#619539"/>
            <path fill-rule="evenodd" clip-rule="evenodd" d="M284.272 846.686C284.272 846.686 274.581 854.185 275.92 868.601L286.881 847.054L284.272 846.686Z" fill="#8BB733"/>
            <path fill-rule="evenodd" clip-rule="evenodd" d="M289.989 791.553L287.138 787.042L290.573 782.25L296.649 794.04L289.989 791.553Z" fill="#6B5E5D"/>
            <path fill-rule="evenodd" clip-rule="evenodd" d="M357.478 792.927L358.816 790.454L363.24 788.748L364.789 792.927L358.816 794.909L357.478 792.927Z" fill="#6B5E5D"/>
            <path fill-rule="evenodd" clip-rule="evenodd" d="M231.262 818.933L232.595 816.456L237.02 814.749L238.574 818.933L232.595 820.915L231.262 818.933Z" fill="#6B5E5D"/>
            <path fill-rule="evenodd" clip-rule="evenodd" d="M389.522 791.834L386.102 793.667L391.957 797.79L401.694 800.671L389.522 791.834Z" fill="#6B5E5D"/>
            <path fill-rule="evenodd" clip-rule="evenodd" d="M255.226 750.594L251.807 752.428L257.657 756.551L267.398 759.432L255.226 750.594Z" fill="#6B5E5D"/>
            <path fill-rule="evenodd" clip-rule="evenodd" d="M392.455 789.816C392.306 789.377 402.981 799.276 402.981 799.276L404.468 797.785L396.834 788.053L392.46 789.816H392.455Z" fill="#6B5E5D"/>
            <path fill-rule="evenodd" clip-rule="evenodd" d="M246.1 755.539C245.951 755.1 256.626 765 256.626 765L258.113 763.508L250.479 753.777L246.105 755.539H246.1Z" fill="#6B5E5D"/>
            <path fill-rule="evenodd" clip-rule="evenodd" d="M297.782 795.118L299.787 793.953L302.95 795.118L300.366 796.441L297.782 795.118Z" fill="#6B5E5D"/>
            <path fill-rule="evenodd" clip-rule="evenodd" d="M237.174 821.068L239.179 819.904L242.342 821.068L239.758 822.396L237.174 821.068Z" fill="#6B5E5D"/>
            <path fill-rule="evenodd" clip-rule="evenodd" d="M427.735 854.482L429.745 853.317L432.908 854.482L430.324 855.81L427.735 854.482Z" fill="#938988"/>
            <path fill-rule="evenodd" clip-rule="evenodd" d="M251.166 868.816L253.17 867.656L256.334 868.816L253.75 870.144L251.166 868.816Z" fill="#938988"/>
            <path fill-rule="evenodd" clip-rule="evenodd" d="M302.95 784.932V781.918L306.165 784.932L302.95 786.577V784.932Z" fill="#6B5E5D"/>
            <path fill-rule="evenodd" clip-rule="evenodd" d="M315.686 740.173V737.16L318.901 740.173L315.686 741.818V740.173Z" fill="#938988"/>
            <path fill-rule="evenodd" clip-rule="evenodd" d="M243.455 809.662V806.648L246.669 809.662L243.455 811.306V809.662Z" fill="#938988"/>
            <path fill-rule="evenodd" clip-rule="evenodd" d="M220.69 749.47L211.897 817.835L213.081 863.891L249.284 857.347L212.163 869.817V734.176L220.69 749.47Z" fill="#35253B"/>
            <path fill-rule="evenodd" clip-rule="evenodd" d="M218.08 744.791L224.54 748.464L219.823 756.173L218.08 744.791Z" fill="#524A58"/>
            <path fill-rule="evenodd" clip-rule="evenodd" d="M262.917 738.447L269.572 746.227L266.686 733.374L262.917 738.447Z" fill="#5A525F"/>
            <path fill-rule="evenodd" clip-rule="evenodd" d="M275.243 725.645L294.075 744.444L295.239 754.671L275.243 725.645Z" fill="#35253B"/>
            <path fill-rule="evenodd" clip-rule="evenodd" d="M253.75 862.829L266.48 855.81L266.327 865.97L253.75 862.829Z" fill="#5A525F"/>
        </g>
    </g>
    <defs>
        <linearGradient id="paint0_linear_192_60757" x1="2134.81" y1="907.434" x2="2086.29" y2="583.962" gradientUnits="userSpaceOnUse">
            <stop stop-color="#452F42"/>
            <stop offset="1" stop-color="#4E5266"/>
        </linearGradient>
        <linearGradient id="paint1_linear_192_60757" x1="1552.62" y1="1475.71" x2="1656.06" y2="982.355" gradientUnits="userSpaceOnUse">
            <stop stop-color="#927B8D"/>
            <stop offset="1" stop-color="#6E5575"/>
        </linearGradient>
        <linearGradient id="paint2_linear_192_60757" x1="1556.19" y1="1972.64" x2="1753.59" y2="1031.15" gradientUnits="userSpaceOnUse">
            <stop stop-color="#927B8D"/>
            <stop offset="1" stop-color="#6E5575"/>
        </linearGradient>
        <linearGradient id="paint3_linear_192_60757" x1="1769.8" y1="837.3" x2="1777.16" y2="651.164" gradientUnits="userSpaceOnUse">
            <stop stop-color="#927B8D"/>
            <stop offset="1" stop-color="#6E5575"/>
        </linearGradient>
        <linearGradient id="paint4_linear_192_60757" x1="1781.99" y1="878.366" x2="1784.33" y2="819.078" gradientUnits="userSpaceOnUse">
            <stop stop-color="#927B8D"/>
            <stop offset="1" stop-color="#6E5575"/>
        </linearGradient>
        <linearGradient id="paint5_linear_192_60757" x1="1850.45" y1="921.911" x2="1852.21" y2="877.494" gradientUnits="userSpaceOnUse">
            <stop stop-color="#927B8D"/>
            <stop offset="1" stop-color="#6E5575"/>
        </linearGradient>
        <linearGradient id="paint6_linear_192_60757" x1="1818.9" y1="925.527" x2="1820.44" y2="886.554" gradientUnits="userSpaceOnUse">
            <stop stop-color="#927B8D"/>
            <stop offset="1" stop-color="#6E5575"/>
        </linearGradient>
        <linearGradient id="paint7_linear_192_60757" x1="1717.85" y1="929.497" x2="1720.22" y2="869.747" gradientUnits="userSpaceOnUse">
            <stop stop-color="#927B8D"/>
            <stop offset="1" stop-color="#6E5575"/>
        </linearGradient>
        <linearGradient id="paint8_linear_192_60757" x1="1626.17" y1="880.566" x2="1630.71" y2="765.844" gradientUnits="userSpaceOnUse">
            <stop stop-color="#927B8D"/>
            <stop offset="1" stop-color="#6E5575"/>
        </linearGradient>
        <linearGradient id="paint9_linear_192_60757" x1="1784.01" y1="684.31" x2="1785.49" y2="865.642" gradientUnits="userSpaceOnUse">
            <stop stop-color="#5A4B58"/>
            <stop offset="1" stop-color="#70727B"/>
        </linearGradient>
        <linearGradient id="paint10_linear_192_60757" x1="1774.91" y1="582.644" x2="1998.37" y2="759.796" gradientUnits="userSpaceOnUse">
            <stop stop-color="#5A4B58"/>
            <stop offset="1" stop-color="#70727B"/>
        </linearGradient>
        <linearGradient id="paint11_linear_192_60757" x1="1798.01" y1="690.884" x2="1869.07" y2="1017.28" gradientUnits="userSpaceOnUse">
            <stop stop-color="#5A4B58"/>
            <stop offset="1" stop-color="#70727B"/>
        </linearGradient>
        <linearGradient id="paint12_linear_192_60757" x1="1818.65" y1="796.854" x2="1831.51" y2="990.56" gradientUnits="userSpaceOnUse">
            <stop stop-color="#5A4B58"/>
            <stop offset="1" stop-color="#70727B"/>
        </linearGradient>
        <linearGradient id="paint13_linear_192_60757" x1="1860.78" y1="794.056" x2="1873.65" y2="987.762" gradientUnits="userSpaceOnUse">
            <stop stop-color="#5A4B58"/>
            <stop offset="1" stop-color="#70727B"/>
        </linearGradient>
        <linearGradient id="paint14_linear_192_60757" x1="1663.33" y1="720.194" x2="1734.39" y2="1046.6" gradientUnits="userSpaceOnUse">
            <stop stop-color="#5A4B58"/>
            <stop offset="1" stop-color="#70727B"/>
        </linearGradient>
        <linearGradient id="paint15_linear_192_60757" x1="1705.67" y1="710.984" x2="1776.73" y2="1037.39" gradientUnits="userSpaceOnUse">
            <stop stop-color="#5A4B58"/>
            <stop offset="1" stop-color="#70727B"/>
        </linearGradient>
        <linearGradient id="paint16_linear_192_60757" x1="1753.11" y1="610.12" x2="1976.59" y2="787.283" gradientUnits="userSpaceOnUse">
            <stop stop-color="#5A4B58"/>
            <stop offset="1" stop-color="#70727B"/>
        </linearGradient>
        <linearGradient id="paint17_linear_192_60757" x1="1820.99" y1="688.765" x2="1822.38" y2="860.289" gradientUnits="userSpaceOnUse">
            <stop stop-color="#5A4B58"/>
            <stop offset="1" stop-color="#70727B"/>
        </linearGradient>
        <linearGradient id="paint18_linear_192_60757" x1="1765.82" y1="881.007" x2="1938.94" y2="763.019" gradientUnits="userSpaceOnUse">
            <stop stop-color="#452F42"/>
            <stop offset="1" stop-color="#4E5266"/>
        </linearGradient>
        <linearGradient id="paint19_linear_192_60757" x1="2136.3" y1="613.886" x2="1911.34" y2="1069.31" gradientUnits="userSpaceOnUse">
            <stop stop-color="#D1DEFF"/>
            <stop offset="1" stop-color="#7375F9"/>
        </linearGradient>
        <linearGradient id="paint20_linear_192_60757" x1="1969.69" y1="531.599" x2="1744.74" y2="987.015" gradientUnits="userSpaceOnUse">
            <stop stop-color="#D1DEFF"/>
            <stop offset="1" stop-color="#7375F9"/>
        </linearGradient>
        <linearGradient id="paint21_linear_192_60757" x1="1954.44" y1="833.206" x2="1872.29" y2="830.635" gradientUnits="userSpaceOnUse">
            <stop stop-color="#9FE5CA"/>
            <stop offset="1"/>
        </linearGradient>
        <linearGradient id="paint22_linear_192_60757" x1="1954.31" y1="837.155" x2="1872.16" y2="834.583" gradientUnits="userSpaceOnUse">
            <stop stop-color="#9FE5CA"/>
            <stop offset="1"/>
        </linearGradient>
        <linearGradient id="paint23_linear_192_60757" x1="1844.01" y1="852.569" x2="1851.54" y2="924.219" gradientUnits="userSpaceOnUse">
            <stop stop-color="#D1DEFF"/>
            <stop offset="1" stop-color="#7375F9"/>
        </linearGradient>
        <linearGradient id="paint24_linear_192_60757" x1="1925.34" y1="890.126" x2="2054.48" y2="757.069" gradientUnits="userSpaceOnUse">
            <stop stop-color="#452F42"/>
            <stop offset="1" stop-color="#4E5266"/>
        </linearGradient>
        <linearGradient id="paint25_linear_192_60757" x1="1955.76" y1="836.703" x2="1953.76" y2="871.888" gradientUnits="userSpaceOnUse">
            <stop stop-color="#5A4B58"/>
            <stop offset="1" stop-color="#70727B"/>
        </linearGradient>
        <linearGradient id="paint26_linear_192_60757" x1="1907.21" y1="876.967" x2="1970.92" y2="811.32" gradientUnits="userSpaceOnUse">
            <stop stop-color="#927B8D"/>
            <stop offset="1" stop-color="#6E5575"/>
        </linearGradient>
        <linearGradient id="paint27_linear_192_60757" x1="2010.63" y1="603.234" x2="1913.99" y2="657.953" gradientUnits="userSpaceOnUse">
            <stop stop-color="#B1BCD6"/>
            <stop offset="1" stop-color="#5B5DC5"/>
        </linearGradient>
        <linearGradient id="paint28_linear_192_60757" x1="1921.23" y1="717.757" x2="1770.28" y2="647.183" gradientUnits="userSpaceOnUse">
            <stop stop-color="#9FE5CA"/>
            <stop offset="1"/>
        </linearGradient>
        <linearGradient id="paint29_linear_192_60757" x1="1916.57" y1="727.716" x2="1765.62" y2="657.141" gradientUnits="userSpaceOnUse">
            <stop stop-color="#9FE5CA"/>
            <stop offset="1"/>
        </linearGradient>
        <linearGradient id="paint30_linear_192_60757" x1="1958.31" y1="914.621" x2="1851.29" y2="879.356" gradientUnits="userSpaceOnUse">
            <stop stop-color="#9FE5CA"/>
            <stop offset="1"/>
        </linearGradient>
        <linearGradient id="paint31_linear_192_60757" x1="1932.13" y1="873.809" x2="1941.74" y2="875.239" gradientUnits="userSpaceOnUse">
            <stop stop-color="#F2F2FF"/>
            <stop offset="0.99" stop-color="#ECF0FD"/>
        </linearGradient>
        <linearGradient id="paint32_linear_192_60757" x1="1926.83" y1="878.661" x2="1930.67" y2="879.232" gradientUnits="userSpaceOnUse">
            <stop stop-color="#F2F2FF"/>
            <stop offset="0.99" stop-color="#ECF0FD"/>
        </linearGradient>
        <linearGradient id="paint33_linear_192_60757" x1="1923.09" y1="877.397" x2="1935.9" y2="879.303" gradientUnits="userSpaceOnUse">
            <stop stop-color="#F2F2FF"/>
            <stop offset="0.99" stop-color="#ECF0FD"/>
        </linearGradient>
        <linearGradient id="paint34_linear_192_60757" x1="1882.65" y1="873.314" x2="1891.79" y2="874.674" gradientUnits="userSpaceOnUse">
            <stop stop-color="#F2F2FF"/>
            <stop offset="0.99" stop-color="#ECF0FD"/>
        </linearGradient>
        <linearGradient id="paint35_linear_192_60757" x1="1885.31" y1="865.437" x2="1889.15" y2="866.008" gradientUnits="userSpaceOnUse">
            <stop stop-color="#F2F2FF"/>
            <stop offset="0.99" stop-color="#ECF0FD"/>
        </linearGradient>
        <linearGradient id="paint36_linear_192_60757" x1="1913.79" y1="738.662" x2="1916.04" y2="741.376" gradientUnits="userSpaceOnUse">
            <stop stop-color="#F2F2FF"/>
            <stop offset="0.99" stop-color="#ECF0FD"/>
        </linearGradient>
        <linearGradient id="paint37_linear_192_60757" x1="1919.35" y1="735.992" x2="1920.29" y2="737.135" gradientUnits="userSpaceOnUse">
            <stop stop-color="#F2F2FF"/>
            <stop offset="0.99" stop-color="#ECF0FD"/>
        </linearGradient>
        <linearGradient id="paint38_linear_192_60757" x1="1926.2" y1="730.954" x2="1929.8" y2="735.307" gradientUnits="userSpaceOnUse">
            <stop stop-color="#F2F2FF"/>
            <stop offset="0.99" stop-color="#ECF0FD"/>
        </linearGradient>
        <linearGradient id="paint39_linear_192_60757" x1="1909.14" y1="933.763" x2="1906.74" y2="933.763" gradientUnits="userSpaceOnUse">
            <stop stop-color="#F2F2FF"/>
            <stop offset="0.99" stop-color="#ECF0FD"/>
        </linearGradient>
        <linearGradient id="paint40_linear_192_60757" x1="1874.95" y1="928.082" x2="1872.55" y2="928.082" gradientUnits="userSpaceOnUse">
            <stop stop-color="#F2F2FF"/>
            <stop offset="0.99" stop-color="#ECF0FD"/>
        </linearGradient>
        <linearGradient id="paint41_linear_192_60757" x1="1878.15" y1="925.575" x2="1875.59" y2="925.575" gradientUnits="userSpaceOnUse">
            <stop stop-color="#F2F2FF"/>
            <stop offset="0.99" stop-color="#ECF0FD"/>
        </linearGradient>
        <linearGradient id="paint42_linear_192_60757" x1="1880.07" y1="927.324" x2="1879.59" y2="927.324" gradientUnits="userSpaceOnUse">
            <stop stop-color="#F2F2FF"/>
            <stop offset="0.99" stop-color="#ECF0FD"/>
        </linearGradient>
        <linearGradient id="paint43_linear_192_60757" x1="1872.39" y1="923.988" x2="1871.43" y2="923.988" gradientUnits="userSpaceOnUse">
            <stop stop-color="#F2F2FF"/>
            <stop offset="0.99" stop-color="#ECF0FD"/>
        </linearGradient>
        <linearGradient id="paint44_linear_192_60757" x1="1873.67" y1="924.504" x2="1870.47" y2="924.504" gradientUnits="userSpaceOnUse">
            <stop stop-color="#F2F2FF"/>
            <stop offset="0.99" stop-color="#ECF0FD"/>
        </linearGradient>
        <linearGradient id="paint45_linear_192_60757" x1="1862.72" y1="923.1" x2="1860.43" y2="923.1" gradientUnits="userSpaceOnUse">
            <stop stop-color="#F2F2FF"/>
            <stop offset="0.99" stop-color="#ECF0FD"/>
        </linearGradient>
        <linearGradient id="paint46_linear_192_60757" x1="1861.76" y1="929.11" x2="1860.8" y2="929.11" gradientUnits="userSpaceOnUse">
            <stop stop-color="#F2F2FF"/>
            <stop offset="0.99" stop-color="#ECF0FD"/>
        </linearGradient>
        <linearGradient id="paint47_linear_192_60757" x1="1912.34" y1="931.251" x2="1909.78" y2="931.251" gradientUnits="userSpaceOnUse">
            <stop stop-color="#F2F2FF"/>
            <stop offset="0.99" stop-color="#ECF0FD"/>
        </linearGradient>
        <linearGradient id="paint48_linear_192_60757" x1="1914.26" y1="932.999" x2="1913.78" y2="932.999" gradientUnits="userSpaceOnUse">
            <stop stop-color="#F2F2FF"/>
            <stop offset="0.99" stop-color="#ECF0FD"/>
        </linearGradient>
        <linearGradient id="paint49_linear_192_60757" x1="1906.58" y1="929.669" x2="1905.62" y2="929.669" gradientUnits="userSpaceOnUse">
            <stop stop-color="#F2F2FF"/>
            <stop offset="0.99" stop-color="#ECF0FD"/>
        </linearGradient>
        <linearGradient id="paint50_linear_192_60757" x1="1907.86" y1="930.18" x2="1904.66" y2="930.18" gradientUnits="userSpaceOnUse">
            <stop stop-color="#F2F2FF"/>
            <stop offset="0.99" stop-color="#ECF0FD"/>
        </linearGradient>
        <linearGradient id="paint51_linear_192_60757" x1="2118.95" y1="943.684" x2="2120.36" y2="603.696" gradientUnits="userSpaceOnUse">
            <stop offset="0.14" stop-color="#D355FF"/>
            <stop offset="0.17" stop-color="#B549DB"/>
            <stop offset="0.22" stop-color="#8F39AD"/>
            <stop offset="0.28" stop-color="#6D2C84"/>
            <stop offset="0.34" stop-color="#4F2060"/>
            <stop offset="0.4" stop-color="#361642"/>
            <stop offset="0.47" stop-color="#220D29"/>
            <stop offset="0.55" stop-color="#130717"/>
            <stop offset="0.64" stop-color="#080309"/>
            <stop offset="0.76" stop-color="#010002"/>
            <stop offset="1"/>
        </linearGradient>
        <clipPath id="clip0_192_60757">
            <rect width="1920" height="940" fill="white"/>
        </clipPath>
        <clipPath id="clip1_192_60757">
            <rect width="301" height="196" fill="white" transform="translate(209 686)"/>
        </clipPath>
    </defs>
</svg>